<svg width="156" height="172" viewBox="0 0 156 172" fill="none" xmlns="http://www.w3.org/2000/svg">
<path fill-rule="evenodd" clip-rule="evenodd" d="M144.813 70.3711C142.729 67.1167 141.005 63.6482 139.674 60.0227C139.674 22.4115 104.918 0.0017995 71.3746 0.0017995C52.3299 -0.133801 34.0346 7.39914 20.6066 20.9056C7.1822 34.4121 -0.243686 52.7574 0.00610392 71.7985C0.00610392 96.7774 9.0699 115.547 26.9834 127.609C27.9754 128.247 28.5678 129.354 28.5535 130.535V167.718C28.5535 169.687 30.1522 171.286 32.1219 171.286H103.49C105.46 171.286 107.059 169.687 107.059 167.718V146.307C107.059 144.337 108.657 142.739 110.627 142.739H121.332C131.185 142.739 139.175 134.749 139.175 124.897V110.623C139.175 108.653 140.773 107.054 142.743 107.054H146.668C149.487 106.965 152.114 105.602 153.805 103.343C154.804 101.745 155.275 99.8713 155.161 97.9907C154.294 88.0134 150.715 78.4643 144.813 70.3711ZM94.8548 71.2989C93.6166 71.1312 92.3854 71.6522 91.6432 72.6549C87.4325 77.8719 81.3233 81.2084 74.6575 81.9328C73.4585 82.0541 72.4094 82.7821 71.8741 83.8597C67.1246 93.6229 57.2508 99.8463 46.3956 99.9176C30.1593 99.3753 17.4057 85.8259 17.8482 69.5861C17.8018 60.6864 21.5665 52.19 28.1967 46.2486C28.7462 45.7526 29.1459 45.1102 29.3385 44.393C31.8971 33.0775 41.9315 25.0272 53.5325 24.9808C55.5308 24.9665 57.5184 25.2056 59.456 25.6945C60.8049 26.1441 62.2894 25.7515 63.2386 24.6953C67.2067 20.2562 72.8448 17.6691 78.7969 17.5584C85.8659 17.5406 92.4889 21.0127 96.4963 26.8363C97.0244 27.7249 97.9058 28.3494 98.9228 28.5492C110.749 29.7303 119.373 40.275 118.192 52.1008C117.011 63.9265 106.466 72.5514 94.6407 71.3703" fill="#A978B5"/>
</svg>
