<svg width="49" height="44" viewBox="0 0 49 44" fill="none" xmlns="http://www.w3.org/2000/svg">
<path fill-rule="evenodd" clip-rule="evenodd" d="M24.1216 0C10.8203 0 0 8.7527 0 19.5041C0.0930405 24.9372 2.68669 30.0234 7.02973 33.2878C7.34561 34.6111 7.11703 36.0044 6.39568 37.1576C5.67432 38.3109 4.52108 39.1264 3.19324 39.4216C2.92446 39.4791 2.68669 39.6341 2.52703 39.8581C2.13534 40.3417 2.02162 40.9941 2.22838 41.5811C2.62581 42.384 3.42412 42.9112 4.31892 42.9595C5.07588 43.1065 5.84547 43.1834 6.61622 43.1892C10.8811 42.987 14.9428 41.3054 18.1027 38.4338C20.037 38.8393 22.0081 39.0391 23.9838 39.0311C37.2851 39.0311 48.1054 30.2784 48.1054 19.55C48.1054 8.82162 37.423 0 24.1216 0Z" fill="#659BB0"/>
</svg>
