<svg width="54" height="55" viewBox="0 0 54 55" fill="none" xmlns="http://www.w3.org/2000/svg">
<path fill-rule="evenodd" clip-rule="evenodd" d="M52.2635 36.8237H1.72297C0.771892 36.8237 0 37.5956 0 38.5466C0 39.4977 0.771892 40.2696 1.72297 40.2696H4.52568C4.78527 40.28 5.00696 40.4568 5.07703 40.7061L8.08649 52.7439C8.28406 53.5101 8.9721 54.0477 9.76351 54.0534H44.223C45.0144 54.0477 45.7024 53.5101 45.9 52.7439L48.9095 40.7061C48.9795 40.4568 49.2012 40.28 49.4608 40.2696H52.2635C53.2146 40.2696 53.9865 39.4977 53.9865 38.5466C53.9865 37.5956 53.2146 36.8237 52.2635 36.8237ZM10.9122 33.4237H43.0743C43.7084 33.4237 44.223 32.9091 44.223 32.275C44.1564 30.1167 43.6395 27.9963 42.7068 26.0493C41.6041 23.752 38.1122 22.4885 33.0811 20.6507L31.7946 20.1912C31.7073 20.097 31.6384 19.9879 31.5878 19.8696C31.3868 19.2264 31.3868 18.5372 31.5878 17.8939C33.7381 15.182 34.8018 11.767 34.5743 8.31421C34.7983 5.42306 33.382 2.65022 30.909 1.1363C28.4348 -0.378767 25.322 -0.378767 22.8478 1.1363C20.3747 2.65022 18.9584 5.42306 19.1824 8.31421C18.9642 11.7808 20.0646 15.2027 22.2608 17.8939C22.4733 18.551 22.4733 19.2585 22.2608 19.9156C22.2493 20.0097 22.2264 20.1028 22.1919 20.1912L20.9054 20.6507C15.9662 22.4885 12.3824 23.821 11.2797 26.0493C10.347 27.9963 9.83014 30.1167 9.76351 32.275C9.76351 32.9091 10.2781 33.4237 10.9122 33.4237Z" fill="#E46F5B"/>
</svg>
