<svg width="49" height="54" viewBox="0 0 49 54" fill="none" xmlns="http://www.w3.org/2000/svg">
<path fill-rule="evenodd" clip-rule="evenodd" d="M37.8066 36.322C39.5434 32.775 43.1455 30.5225 47.0946 30.5144C47.7286 30.5144 48.2432 31.029 48.2432 31.6631V52.8418C48.2432 53.4759 47.7286 53.9905 47.0946 53.9905H5.74324C2.57297 53.9905 0 51.3785 0 48.2013V48.0773L3.45284 16.7421C3.70095 14.8227 4.39358 12.986 5.47446 11.3802C5.55487 11.2562 5.65939 11.1493 5.78 11.0655L20.9238 0.638058C22.3711 -0.441672 24.1469 -0.0350495 25.1669 0.99414L28.5876 4.44698C30.6735 6.30779 31.7165 8.95657 31.473 11.8305C31.4569 14.5022 30.1359 17.1005 28.0982 18.9016C28.0868 18.9131 28.0753 18.9234 28.0638 18.9337L27.1793 19.6505C25.7136 20.8795 23.7035 21.0909 22.0586 20.4959C22.0242 20.4718 21.9897 20.4488 21.953 20.427C21.8852 20.3879 21.8197 20.3466 21.7554 20.3029C20.0232 19.2117 19.5155 16.7995 20.8457 14.9594L23.2578 12.2187C23.6059 11.8351 23.7207 11.2929 23.5576 10.8013C23.3945 10.3097 22.9799 9.94326 22.471 9.84448C21.9622 9.74455 21.4395 9.92718 21.103 10.3212L18.6472 13.1101C18.6219 13.14 18.5966 13.1698 18.5736 13.202C16.6209 15.8301 16.8346 19.3587 18.8723 21.6101C17.2642 22.0006 15.5918 22.0454 13.9653 21.741L15.5045 35.5983C17.7236 32.5039 21.845 30.5121 26.4189 30.5121C31.342 30.5121 35.7391 32.8186 37.8066 36.3243" fill="#E39F58"/>
</svg>
