<svg width="56" height="53" viewBox="0 0 56 53" fill="none" xmlns="http://www.w3.org/2000/svg">
<path fill-rule="evenodd" clip-rule="evenodd" d="M54.6275 46.1068L31.6545 2.45811C30.8608 0.947635 29.2952 0 27.5883 0C25.8814 0 24.3158 0.947635 23.5221 2.45811L0.549119 46.1068C-0.229665 47.5529 -0.176828 49.3046 0.686956 50.7014C1.53811 52.0453 3.02446 52.8539 4.61533 52.8378H50.5613C52.1694 52.8378 53.6603 51.9959 54.4931 50.6186C55.3247 49.2426 55.3753 47.5311 54.6275 46.1068ZM25.291 18.3784C25.291 17.1091 26.3191 16.0811 27.5883 16.0811C28.8576 16.0811 29.8856 17.1091 29.8856 18.3784V32.1622C29.8856 33.4314 28.8576 34.4595 27.5883 34.4595C26.3191 34.4595 25.291 33.4314 25.291 32.1622V18.3784ZM27.7032 44.7973C25.824 44.787 24.2848 43.2983 24.2113 41.4203C24.1803 40.5025 24.5214 39.6123 25.1578 38.9495C25.7941 38.2879 26.6705 37.9111 27.5883 37.9054C29.4675 37.9157 31.0067 39.4044 31.0802 41.2824C31.1112 42.2002 30.7701 43.0916 30.1337 43.7532C29.4974 44.4148 28.6209 44.7916 27.7032 44.7973Z" fill="#E8C66C"/>
</svg>
