<svg width="56" height="51" viewBox="0 0 56 51" fill="none" xmlns="http://www.w3.org/2000/svg">
<path fill-rule="evenodd" clip-rule="evenodd" d="M22.0931 29.265H1.72297C0.771892 29.265 0 30.0369 0 30.988V46.1272C0 48.3188 1.77811 50.0969 3.96973 50.0969H51.1654C53.357 50.0969 55.1351 48.3188 55.1351 46.1249V30.9857C55.1351 30.0346 54.3632 29.2627 53.4122 29.2627H33.042V35.2702C32.9559 38.2314 30.5311 40.5884 27.5676 40.5884C24.6041 40.5884 22.1793 38.2314 22.0931 35.2702V29.265ZM25.5391 35.2702V29.4052H29.5961V35.2679C29.5961 36.3889 28.6887 37.2964 27.5676 37.2964C26.4465 37.2964 25.5391 36.3889 25.5391 35.2679M14.6568 0.00894661C14.4707 -0.0243642 14.28 0.0365133 14.1468 0.172054C14.0147 0.306446 13.9561 0.49827 13.9928 0.684351L15.3574 7.79678L13.0487 11.2037L9.63716 8.89489L8.27257 1.78246C8.23696 1.59753 8.11291 1.44131 7.94061 1.3655C7.76831 1.28969 7.5696 1.30232 7.40879 1.40111C3.76872 3.63178 1.85507 7.85536 2.57757 12.064C3.30007 16.2715 6.51399 19.6141 10.6893 20.5031L11.8173 26.3957H20.0876L18.6655 18.9754C22.2218 16.6081 23.9757 12.3121 23.0924 8.13219C22.2091 3.95226 18.8666 0.732595 14.6568 0.00664948M42.0015 26.3934H34.062L36.5408 13.0875L27.3907 11.3829C27.0794 11.3243 26.8738 11.0256 26.9312 10.7144L27.7536 6.31732C27.8122 6.00604 28.1109 5.80043 28.4222 5.85787C33.2672 6.7607 36.4122 4.62881 36.9107 1.95476C36.9693 1.64347 37.2679 1.43787 37.5792 1.4953L52.9711 4.36232C53.1216 4.38989 53.2537 4.47604 53.3398 4.60239C53.4259 4.72874 53.4593 4.88266 53.4305 5.03313L51.5192 15.2952C51.4606 15.6064 51.162 15.8121 50.8507 15.7546L44.3424 14.5416L42.0015 26.3934Z" fill="#7EA67E"/>
</svg>
