<?xml version="1.0" encoding="UTF-8"?>
<svg id="Layer_1" xmlns="http://www.w3.org/2000/svg" version="1.1" viewBox="0 0 841.9 4102.9">
  <!-- Generator: Adobe Illustrator 29.0.1, SVG Export Plug-In . SVG Version: 2.1.0 Build 192)  -->
  <defs>
    <style>
      .st0 {
        fill: #edce4e;
      }

      .st1 {
        fill: #db9781;
      }

      .st2 {
        fill: #254770;
      }

      .st3 {
        fill: #afaba6;
      }

      .st4 {
        fill: #f57728;
      }

      .st5 {
        fill: #f0baa2;
      }

      .st6 {
        fill: #da9680;
      }

      .st7 {
        fill: #da9c85;
      }

      .st8 {
        fill: #eea04f;
      }

      .st9 {
        fill: #eb9652;
      }

      .st10 {
        fill: #ee9f57;
      }

      .st11 {
        fill: #ed9b55;
      }

      .st12 {
        fill: #db957f;
      }

      .st13 {
        fill: #dc9680;
      }

      .st14 {
        fill: #3969a2;
      }

      .st15 {
        fill: #fcfcfd;
      }

      .st16 {
        fill: #eb9551;
      }

      .st17 {
        fill: #d99983;
      }

      .st18 {
        fill: #fbfcfc;
      }

      .st19 {
        fill: #1c4076;
      }

      .st20 {
        fill: #d8967e;
      }

      .st21 {
        fill: #d9957e;
      }

      .st22 {
        fill: #3a69a1;
      }

      .st23 {
        fill: #da957f;
      }

      .st24 {
        fill: #eea14f;
      }

      .st25 {
        fill: #fff;
      }

      .st26 {
        fill: #574337;
      }

      .st27 {
        fill: #eccd50;
      }

      .st28 {
        fill: #d9edee;
      }

      .st29 {
        fill: #f6782a;
      }

      .st30 {
        fill: #ec9d57;
      }

      .st31 {
        fill: #ec9b54;
      }

      .st32 {
        fill: #d99881;
      }

      .st33 {
        fill: #e7d5c6;
      }

      .st34 {
        fill: #fefefe;
      }

      .st35 {
        fill: #edcc47;
      }

      .st36 {
        fill: #fefbf8;
      }

      .st37 {
        fill: #d9eeee;
      }

      .st38 {
        fill: #8d8a81;
      }

      .st39 {
        fill: #928e87;
      }

      .st40 {
        fill: #f77729;
      }

      .st41 {
        fill: #efa24e;
      }

      .st42 {
        fill: #274871;
      }

      .st43 {
        fill: #dd9680;
      }

      .st44 {
        fill: #be7962;
      }

      .st45 {
        fill: #da9983;
      }

      .st46 {
        fill: #fdfefe;
      }

      .st47 {
        fill: #8f8c83;
      }

      .st48 {
        fill: #edcd4a;
      }

      .st49 {
        fill: #afaca6;
      }

      .st50 {
        fill: #f4cc40;
      }

      .st51 {
        fill: #da9982;
      }

      .st52 {
        fill: #fefcf9;
      }

      .st53 {
        fill: #3a69a2;
      }

      .st54 {
        fill: #dc957f;
      }

      .st55 {
        fill: #f2bba1;
      }
    </style>
  </defs>
  <path class="st25" d="M793.2,2279.5c-1.2-10.9-2.8-21.8-4.9-32.6-3.1-15.9-7.2-31.6-12.4-47-6.1-18.3-13.6-35.9-22.5-53-19.2-37-43.9-69.8-74-98.5-16-15.3-33.4-29.1-51.9-41.4-29.5-19.6-61.2-34.6-95-45.1-21.5-6.7-43.5-11.4-65.9-14.1-11.8-1.4-23.6-2.3-35.4-2.6-16.2-.4-32.4.2-48.6,1.9-15.1,1.6-30,4-44.7,7.4-32,7.3-62.5,18.6-91.5,34-37.6,20-70.9,45.7-99.8,77-23.9,25.9-43.7,54.5-59.5,86-8.9,17.6-16.3,35.9-22.2,54.7-5.5,17.4-9.8,35.2-12.5,53.3-1.2,7.8-2.1,15.6-3,23.4-1.1,9.3-1.5,18.6-1.7,27.9-.2,7.3,0,14.5.2,21.8.1,7.9.8,15.7,1.5,23.5,1.3,13.6,3.4,27.1,6.2,40.5,6.5,30.7,16.7,60.1,30.6,88.2,7.5,15.1,15.9,29.6,25.4,43.6,16.1,23.8,34.6,45.4,55.6,64.9,14.7,13.6,30.3,26,47,37.1,27.7,18.5,57.4,33.1,89,43.6,22.9,7.6,46.3,13,70.3,16,12.9,1.6,25.7,2.7,38.7,2.9,15,.2,30,.2,45-1.6,8.5-1,17.1-1.8,25.6-3.2,20.9-3.4,41.4-8.6,61.5-15.6,32.3-11.2,62.5-26.6,90.6-46.1,19.5-13.6,37.6-28.9,54.2-45.9,6.5-6.7,12.8-13.5,18.8-20.7,20.7-24.6,37.9-51.3,51.7-80.3,11.7-24.7,20.6-50.3,26.7-76.9,2.6-11.3,4.6-22.7,6.1-34.3,1.3-10.3,2.4-20.7,2.7-31.1,0-1.9.2-3.9.2-5.8,0-7.6.4-15.2.2-22.9-.3-9.4-.8-18.8-1.9-28.9Z"/>
  <path class="st19" d="M793.2,2279.8c1.1,9.7,1.6,19.1,1.9,28.6.2,7.6,0,15.2-.2,22.9,0,1.9-.1,3.9-.2,5.8-.4,10.4-1.4,20.7-2.7,31.1-1.5,11.5-3.5,23-6.1,34.3-6.1,26.6-15,52.3-26.7,76.9-13.8,29-31.1,55.8-51.7,80.3-6,7.1-12.3,14-18.8,20.7-16.6,17-34.7,32.3-54.2,45.9-28.1,19.5-58.3,34.9-90.6,46.1-20,7-40.5,12.2-61.5,15.6-8.5,1.4-17,2.2-25.6,3.2-14.9,1.7-29.9,1.8-45,1.6-12.9-.2-25.8-1.3-38.7-2.9-24-3-47.4-8.4-70.3-16-31.6-10.5-61.3-25.1-89-43.6-16.6-11.1-32.3-23.5-47-37.1-21-19.5-39.6-41.1-55.6-64.9-9.4-14-17.9-28.5-25.4-43.6-13.9-28.1-24.1-57.5-30.6-88.2-2.8-13.4-4.9-26.9-6.2-40.5-.7-7.8-1.4-15.7-1.5-23.5-.1-7.3-.4-14.5-.2-21.8.2-9.3.6-18.6,1.7-27.9,1-7.8,1.8-15.6,3-23.4,2.7-18.1,7-35.8,12.5-53.3,5.9-18.8,13.3-37.1,22.2-54.7,15.8-31.4,35.7-60.1,59.5-86,28.9-31.3,62.2-57,99.8-77,29-15.4,59.5-26.7,91.5-34,14.8-3.4,29.7-5.8,44.7-7.4,16.2-1.7,32.3-2.3,48.6-1.9,11.8.3,23.7,1.2,35.4,2.6,22.4,2.7,44.4,7.4,65.9,14.1,33.8,10.5,65.5,25.6,95,45.1,18.5,12.3,35.8,26,51.9,41.4,30.1,28.8,54.8,61.6,74,98.5,8.9,17.1,16.4,34.8,22.5,53,5.2,15.4,9.3,31,12.4,47,2.1,10.8,3.7,21.7,4.9,33M574.4,2637.8c1.2-.5,2.4-1,3.6-1.6,7.9-3.9,15.6-8.1,23.2-12.6,1.7-1,3.2-2.1,5.2-3.4,1.2-.7,2.5-1.4,3.7-2.2,8.5-5.5,16.9-11.1,25-17.3,3.7-2.9,7.4-5.7,11.1-8.7,2.5-2.1,4.8-4.4,7.3-6.4,4.6-3.9,9.2-7.8,13.4-12.1,1-1,1.8-2.3,3.2-3.4,1-.9,2-1.7,2.9-2.7,37.2-37.9,64.8-81.8,82.3-131.9,7.6-21.6,12.9-43.8,16.1-66.5,1.7-12.2,2.9-24.5,3.3-36.9.4-11.3.3-22.5-.4-33.8-.8-13.8-2.3-27.5-4.7-41.1-3.9-22-9.7-43.4-17.7-64.2-27.5-71-73-127.8-136.5-169.8-53.4-35.3-112.3-54.3-176.2-57.7-23.3-1.2-46.5-.2-69.5,3.3-16.4,2.4-32.6,5.9-48.5,10.6-103.6,30.5-188.2,107.4-228.5,207.7-11.3,28.1-18.8,57.2-22.6,87.2-1.3,10.7-2.3,21.4-2.6,32.2-.5,17.1,0,34.1,1.9,51.1,1.6,14.3,4,28.5,7.3,42.5,12.7,53.9,36.9,102.2,72.3,144.8,6.8,8.2,14.1,15.9,21.2,23.8.1.2.7,0,1.2.5.7.8,1.4,1.6,2.2,2.4,4.9,5,10.3,9.5,15.4,14.2,4.8,4.4,9.9,8.4,15,12.5,8.5,6.7,17.4,12.9,26.6,18.8,1.1.7,2.2,1.4,3.9,1.9.6,1.3,1.9,1.8,3,2.5,6.7,3.8,13.3,7.6,20,11.3,3,1.7,6.3,3,9.8,4.9,11.4,5.7,23.3,10.5,35.3,14.8.7.2,1.4.4,2.6.8,5.3,1.7,10.5,3.6,15.8,5.2,14.4,4.4,29.2,7.6,44.1,10,9.1,1.4,18.1,2.6,27.3,3.2,5.5.3,11.1.8,16.6,1.1,1.2,0,2.4-.3,4.1-.2.9.2,1.9.4,2.8.4,2.4,0,4.8,0,7.2,0,1.6,0,3.1-.3,5-.4,2,0,4.1.2,6.1,0,5.4-.3,10.9-.6,16.3-1.1,7.6-.7,15.2-1.4,22.7-2.5,14.7-2.1,29.2-5.2,43.5-9.3,6.5-1.8,13-3.6,19.9-6.3,10.7-3.5,21.1-7.8,31.3-12.4,1.5-.7,3-1.5,5-2.3.4-.3.7-.5,1.6-.9Z"/>
  <path class="st34" d="M171.3,2568.7c-.3,0-.9.2-1,0-7.1-7.9-14.4-15.7-21.2-23.8-35.4-42.6-59.5-90.9-72.3-144.8-3.3-14-5.7-28.2-7.3-42.5-1.9-17-2.4-34-1.9-51.1.3-10.8,1.3-21.5,2.6-32.2,3.8-30,11.3-59.1,22.6-87.2,40.3-100.3,124.8-177.2,228.5-207.7,15.9-4.7,32.1-8.1,48.5-10.6,23.1-3.4,46.3-4.5,69.5-3.3,63.9,3.4,122.8,22.3,176.2,57.7,63.5,42,109,98.8,136.5,169.8,8.1,20.8,13.9,42.3,17.7,64.2,2.4,13.6,3.9,27.3,4.7,41.1.7,11.3.8,22.5.4,33.8-.4,12.3-1.6,24.6-3.3,36.9-3.2,22.7-8.5,44.9-16.1,66.5-17.6,50.1-45.1,94.1-82.3,131.9-.9.9-2,1.8-3.2,2.4-1.9-4.1-3.7-7.8-5-11.7-2.1-5.9-5.6-11-9.3-15.9-5.6-7.4-12.6-13.3-20.3-18.5-2.2-1.5-4.4-3.1-6.5-4.6-7.3-5.2-14.7-10.1-22.8-14.5-1.1-1.7-.5-3.3-.3-4.8.4-2.7-.6-4.7-3.1-5.9-4.9-2.5-9.8-5.2-14.8-7.6-3.8-1.8-7.7-3.4-11.8-5.2-1.2-1.2-2.4-.7-3.8-.8-3.4-1.8-6.6-3.4-9.8-4.8-3.5-1.6-7-3.1-10.5-4.6-3.5-1.5-7.1-2.9-10.6-4.6-1.7-.8-3.4-1.3-5.3-1.4-.5-1.5-1.5-2.1-2.7-2.5-2.7-1.1-5.4-2.1-8-3.3-4.2-2.1-8.4-2.8-12.9-1-.1,0-.2,0-.6-.1-4.5-2.1-8.8-4-13.1-5.9-.3-.1-.7,0-1.1,0,0,0,0,0,0-.3,0-5.2-.1-10,0-15.2,0-1.1,0-1.8,0-2.9,0-4.5,0-8.6,0-13,0-1.1,0-1.8,0-2.9,0-1.6,0-2.8,0-4.3,0-.8,0-1.4.2-2.1,3.4-4.7,7.4-8.6,10.3-13.4,2.5-4.1,5.1-8.2,7.3-12.5,1.8-3.4,3-7.1,4.5-10.7,3.5-8.4,5.1-17.3,6.2-26.3.2-1.9.6-3.8.6-5.7.2-6-.5-5.2,5.5-7.7,5.8-2.4,10.8-5.9,14.6-11,6.5-8.6,9.6-18.6,10.4-29.3.3-4.2.2-8.4-.5-12.6-.8-4.6-2.2-8.9-4.5-12.9-2.1-3.6-4.7-6.7-8.7-8.4-.8-.4-1.5-1.2-2.2-2.1.2-.9.5-1.4.5-2,.5-3.3,1.1-6.6,1.5-9.9.5-3.4,1.1-6.9.8-10.7,0-2.1,0-3.8,0-5.8-.2-1.8-.3-3.3-.5-5.1-.1-.6-.3-.9-.4-1.4-.1-.8-.3-1.4-.2-2.1,1.1-.6,1.9-1,2.9-1.3,5.8-1.4,11-4.3,16.1-7.4,2.1-1.2,3.9-2.9,5.1-5,1.1-1.8.4-4.7-2.4-4.8-1.8,0-3.6-.2-5.4-.1-2.7.1-5.3.4-7.9.6-.7,0-1.3-.3-1.9-.4-.1-.3-.2-.4-.2-.6.1-5.8.3-11.6.4-17.4,0-.7,0-1.4,0-2.2-.1-1.7-.4-3.4-.4-5,0-9.7-1.4-19.2-3.8-28.6-2.6-10.3-7.1-19.7-12.4-28.8-.3-.5-.7-1-1-1.5-3.2-4.7-6.4-9.4-10-13.8-6-7.4-12.3-14.5-19.6-20.8-4.8-4.1-10-7.6-15.2-11.1-2.7-1.8-5.7-3.2-8.7-4.9-3.7-2.3-7.5-3.9-11.5-5.5-.5-1.5-1-2.7-1.4-4-2-6.4-2.1-6.8-9.3-9.3-4.3-1.5-8.8-2.7-13.2-3.7-4.1-.9-8.3-1.9-12.5-2.1-7-.3-14-.1-21-.1-1,0-1.9.1-2.9.3-3.7.6-7.4,1.1-11,1.9-5.3,1.1-10.5,2.7-15.5,4.9-2.3,1-3.7,2.5-4.1,5-.4,2.5-.9,5-1.6,7.5-1.1.3-1.9.5-2.7.7-3.3.9-6.4,1.9-9.6,3.7-.6.3-1.1.7-1.7,1.1-4.6,2.9-9,5.7-13.4,8.5-4.2,2.7-7.8,6-11.6,9.3-3.7,3.2-7.1,6.6-10.3,10.1-6.9,7.5-13.2,15.4-18.5,24.2-3.6,5.9-6.6,12.1-8.8,18.6-2.7,8.3-4.8,16.7-5.2,25.5,0,.4,0,.7-.1,1.1-.2,1.9-.5,3.8-.5,5.8,0,8.8,0,17.7,0,26.5,0,1.4,0,2.9,0,4.4-.9.3-1.6.6-2.2.7-1.3,0-2.7-.1-4-.2-3.3-.1-6.5-.3-9.8-.4-.7,0-1.4,0-2.2.2-.8.2-1.3.7-1.3,1.5,0,.7.2,1.4.4,2.1.6,1.9,1.7,3.5,3.2,4.7,4.6,3.6,9.6,6.5,15.3,8,1.3.3,2.6.5,3.9.9.6.2,1.2.8,1.5,1.4-1,3.2-1.6,6.2-1.2,9.7,0,1.4,0,2.5-.1,3.6-.1,5.3.2,10.5,1.5,15.6.7,2.9,1.1,5.8,1.4,9-.5.4-.8.6-1.1.7-4.6,1.5-7.4,5-9.4,9.1-3.7,7.6-6.1,15.5-5.4,24.1.1,1.8.2,3.6.5,5.4,1.7,8.7,5,16.6,10.4,23.7,1.6,2.1,3.2,4.3,5.2,6.1,3.2,2.8,6.8,5.1,10.9,6.3,1.5.5,2.9,1.1,4.4,2.1.2,2.1.5,4.3.7,6.4.3,2.9.3,5.8.9,8.6.8,3.9,1.5,7.8,2.4,11.7,1.3,5.1,3.2,9.9,4.8,14.8,1,2.8,2.3,5.6,3.7,8.3,2.2,4,4.5,8,7.2,11.7,2.1,2.9,4.1,6,6.8,8.5,1.5,1.4,2.4,3,2.6,5.3.3,2,.5,3.7.7,5.7-.1,7.2-.1,14-.2,20.9,0,4.3.2,8.6-1.1,12.9-4.9,2-9.6,4-14.5,6-3-1.3-5.9-1.3-8.7-.3-4.9,1.9-9.7,4-14.7,6.1-1.5.5-2.7.9-3.9,1.4-3.6,1.6-7.3,3.2-10.8,4.9-7.6,3.7-15.2,7.4-22.7,11.1-.2.1-.4.3-.8.4-3.2.4-5.8,1.6-8.4,2.8-5.2,2.3-10.3,4.6-15.4,7-1.2.5-2.4,1.1-3.6,1.7-1.7.8-2.7,2-2.8,3.9,0,1.7-.2,3.4-.4,5-.1,1.3-.4,2.6-.9,3.9-2.8.5-4.9,2-7,3.4-3.9,2.4-7.6,5.1-11.5,7.5-10.1,6.2-19.7,13.1-28.2,21.3-3.1,2.9-5.8,6.1-7.9,9.8-3.8,6.6-6.8,13.5-8.7,20.9M524.1,2441.7c2.1,2,4.6,3.6,7.2,4.9,6.4,3.2,12.7,6.5,19.1,9.7,2.8,1.4,5.8,2.4,9,2.4,3.5,0,6.3-1.4,8.1-4.4.8-1.2,1.4-2.5,2.1-3.8,3-6.3,6-12.7,9-19,4.8-10.2,9.6-20.3,14.5-30.5,3-6.2,5.9-12.5,8.9-18.7,2-4.2,3.9-8.3,5.9-12.4,1.6-3.2,1.7-6.5.4-9.8-.3-.7-.5-1.4-.6-1.9.3-.8.5-1.5.9-2.2,14.8-30.6,29.6-61.1,44.5-91.7.3-.5.5-1.1.9-1.6.1-.2.3-.3.6-.6.1,0,.3-.1.6-.2.4,0,.7,0,1.1,0,3.2-.1,5.5-1.7,7.1-4.4.5-.8.9-1.7,1.4-2.5,1.9-3.2,3.8-6.5,5.7-9.7,1.5-2.5,3.8-3.7,6.6-3.9,3.2-.2,5.9,1,8.3,3,.9.7,1.3,1.7,1.2,2.9,0,1.3,0,2.7,0,4,.1,2.3,1.1,4.2,3,5.6,1.1.9,2.4,1.7,3.6,2.4,1.6.9,3.2,1.7,4.8,2.5,2.1,1,4.2,1.9,6.3,2.9,4,1.7,8.8-.5,10.4-3.6.5-1,1.1-1.9,1.6-2.9,3.7-7.3,7.5-14.6,11.2-22,.8-1.5,1.6-3,2.1-4.6.6-1.7,1.2-3.4,1.4-5.2.4-3.6-.8-6.6-4.3-8.4-3.5-1.7-6.8-3.7-10.3-5.4-4.1-2-8.3-2.7-12.2.7-.2.2-.4.3-.6.4-1.1.7-2.2.9-3.5.6-1-.3-2.1-.6-3.1-1.1-3-1.5-4.7-3.8-4.5-7.2,0-1.1,0-2.2,0-3.3-.2-2.7-1.4-4.9-3.7-6.3-.9-.6-1.9-1.1-2.8-1.6-4.9-2.5-9.9-5.1-14.9-7.6-5.1-2.5-10.1-5.1-15.3-7.4-8.5-3.8-17.6-5.1-26.9-4.6-4,.2-7.9.9-11.9,1.4-4.7.6-9.2,2.1-13.5,3.9-8.5,3.5-15.9,8.7-22.8,14.7-1.5,1.3-2.8,2.6-4.1,4.1-1.6,1.7-2.1,4.6-1.2,6,1.8,3.1,5.5,4.6,9,3.7,2.5-.7,4.9-1.4,7.3-2.1,5.1-1.4,10.3-2.6,15.7-2.8,6.1-.2,12,.6,17.4,3.9,3.2,1.9,4.6,4.4,4.6,8,0,3.5-1,6.7-2.3,9.8-1.5,3.6-3.1,7.1-4.7,10.6-1.5,3.3-1.4,6.6.8,9.6.2.3.3.6.4,1-16.2,31.8-32.3,63.6-48.4,95.3-1,.3-1.8.6-2.6.7-2.7.4-4.6,2-6,4.2-1,1.6-2,3.3-2.9,5-5.3,10-10.6,20.1-15.9,30.2-3.1,6-6.2,12-9.4,18-5.2,9.9-10.5,19.9-15.8,29.8-.6,1.1-.8,2.2-.9,3.4-.2,2.9.5,5.5,2.6,8.2M283,2449.9c3.9-2.6,7.8-5.3,11.3-8.5,1.8-1.6,3.7-3.1,5.7-4.5,1.9-1.4,4-1.7,6-.2.7.5,1.5.9,2.2,1.2,2.5,1.3,5.1,1.5,7.8,1.1,4.1-.7,8.3-4.2,8.1-9.7,0-1.3-.2-2.7-.5-3.9-.6-2.1-1.4-4.1-2.3-6.1-4.1-9.3-8.2-18.6-12.3-27.9-5.4-12.3-10.9-24.5-16.2-36.8-1.5-3.5-3.6-6-7.3-6.9-.2,0-.4-.3-.6-.5-2.2-4.5-4.4-9.1-6.6-13.6-5.2-11-10.5-22.1-15.7-33.1-5.5-11.6-10.9-23.2-16.3-34.8-5.9-12.5-11.8-24.9-17.8-37.3-4.8-10.2-9.7-20.3-14.5-30.5-4.7-9.9-9.4-19.9-14.1-29.8-2.4-5-4.8-10-7.2-15-.3-.5-.5-1.1-.8-1.6-1.2-1.8-3-2.5-5-1.9-1.2.3-2.3.8-3.4,1.3-6.4,2.6-12.7,5.2-19.1,7.9-5.6,2.3-11.1,4.7-16.7,7.1-1.2.5-2.4,1.1-3.1,2.4-1.2,2.5-2.6,4.9-3.7,7.5-1.7,3.9-2.1,5.6,3,7.9,1.5.7,3,1.4,4.6,2.1,0,.5,0,.9-.2,1.2-.5,1-1,1.9-1.5,2.9-.6,1.2-1.3,2.3-1.8,3.6-.6,1.7,0,3.4,1.5,4.4,1.2.8,2.6,1.3,3.9,2,1,.5,2.3.8,3.2,1.8-.7,1.2-1.2,2.2-1.8,3.2-.6,1.1-1.3,2.1-1.8,3.2-1,2.2-.5,4.1,1.5,5.4,1.3.8,2.8,1.4,4.2,2.2.9.5,2.1.6,2.7,1.8-.9,1.8-1.9,3.5-2.8,5.4-.5,1-.8,2-1,3.1-.3,1.6.3,2.9,1.8,3.6,1.6.8,3.3,1.5,4.9,2.3.6.3,1.2.7,1.9,1.2-.4.8-.8,1.5-1.1,2.1-.8,1.6-1.8,3.2-2.5,4.8-1,2.2-.3,4.1,1.7,5.3,1.4.8,2.8,1.3,4.2,2,.8.4,1.6.9,2.5,1.5-.5,1.1-1,1.9-1.4,2.8-.7,1.5-1.5,3-2,4.6-.7,2,0,3.6,1.7,4.7.9.6,1.9.9,2.9,1.4,1.2.6,2.4.9,3.4,1.9-1,2.6-2.1,4.8-3.3,7-1,1.9-.6,3.6,1.2,4.7,1.7,1.1,3.7,1.8,5.5,2.8.6.3,1.2.7,2,1.1-.8,1.7-1.6,3.2-2.3,4.7-.5,1.2-1.1,2.4-1.4,3.7-.4,1.8.3,3.4,2,4.2,1.3.6,2.6,1.2,3.9,1.9.8.4,1.6.9,2.4,1.4-1.1,2.2-2.1,4.1-3,6.1-1.8,3.7-1.3,5,2.6,6.7,1.7.8,3.5,1.6,5.5,2.5-.6,1.2-1.1,2.1-1.6,3.1-.7,1.4-1.5,2.8-2.1,4.2-.8,2.2-.1,4,2,5.2,1.3.7,2.6,1.2,3.9,1.9.8.4,1.6.9,2.5,1.4-.2.7-.3,1.1-.5,1.5-.9,1.8-2,3.6-2.9,5.4-1.3,2.5-.7,4.4,1.9,5.7,1.5.7,3.1,1.3,4.7,1.9.6.3,1.2.7,1.9,1.1-.5.9-.8,1.7-1.2,2.4-.8,1.4-1.6,2.7-2.3,4.1-1.3,2.6-.7,4.7,1.9,6.1,1.2.6,2.4,1.1,3.6,1.7.8.4,1.7.9,2.6,1.4-.5.9-.9,1.6-1.3,2.4-.7,1.4-1.6,2.7-2.2,4.2-1.1,2.5-.3,4.9,2.1,6.1,1.3.7,2.7,1.2,4,1.8.7.3,1.5.7,2.3,1.2-.3.7-.4,1.3-.7,1.8-.4.9-1,1.7-1.4,2.5-.5.9-1.1,1.9-1.5,2.9-.9,2.2-.3,4.1,1.8,5.2,1.5.8,3.1,1.4,4.6,2.1.7.3,1.4.8,2.2,1.3-.8,1.6-1.6,2.9-2.3,4.3-.5,1.1-1.1,2.2-1.3,3.3-.6,2.5.5,4.6,2.8,5.5,1.1.4,2.3.7,3.5.9,3.5.8,7,1.6,10.7,2.5,0,.7,0,1.1,0,1.6-.6,4.3,0,8.4,1.8,12.4,2.6,5.6,5.2,11.2,7.7,16.8,1.6,3.5,3,7.1,4.3,10.8,1.3,3.8,2.3,7.6,3.6,11.4.6,1.9,1.3,3.9,2.2,5.7,2,4,5.5,5.8,9.7,6,4.2.2,7.5-1.7,9.6-5.4.8-1.3,1.4-2.8,1.7-4.3.4-2.2,1.6-3.4,3.6-4.1,4.6-1.7,8.8-4,13.4-6.8M664.1,2386.4c-.5,4.6-1,9.1-1.4,13.7-.5,5.7-1.6,11.2-2.8,16.8-2.6,12.1-5.9,23.9-10.4,35.5-2.7,7.1-5.4,14.2-8.9,21-3.1,6-6.5,11.9-9.8,17.8-.5.8-1,1.7-1.3,2.6-.5,1.5-.3,2.9.8,4,1.2,1.3,2.7,1.6,4.3,1.1,1.2-.4,2.1-1.1,2.7-2.2,1.1-1.9,2.1-3.8,3.2-5.7,5.7-9.6,10.5-19.6,14.6-30,4.2-10.6,7.7-21.4,10.5-32.4,2.1-8,3.7-16,4.8-24.2.6-4.4,1.1-8.9,1.6-13.3.5-4.7,1.1-9.4,1.2-14.1.4-13.4.3-26.9-1.4-40.2-.8-6-1.3-12-2.4-18-1.9-10.3-4.3-20.6-7.3-30.7-.4-1.4-1-2.7-1.8-4-.8-1.4-2.4-1.8-4.2-1.4-1.5.4-2.3,1.4-2.4,2.8,0,1.4,0,2.9.4,4.3,1.3,5.4,2.7,10.8,4.1,16.2,2,7.4,3.2,14.9,4.2,22.4.4,3,.7,6,1,9,.4,3.8.9,7.7,1,11.5.2,5.3.4,10.6.3,16,0,6.9.1,13.8-.8,21.3M149.1,2486.3c5.6,11.7,11.4,23.2,18,34.4,1.4,2.4,2.9,4.7,4.6,7,1.2,1.6,4,1.9,5.6.9,1.6-1.1,2.3-3.2,1.4-5.1-.3-.8-.8-1.5-1.2-2.2-2.6-4.4-5.3-8.7-7.8-13.1-5.9-10.2-10.8-20.8-15.5-31.6-3.5-8.1-6.4-16.5-9-24.9-3.5-10.9-6.3-22.1-8.4-33.4-.9-4.6-1.8-9.3-2.4-13.9-.7-5.1-1.1-10.3-1.7-15.5-.8-7.1-1.4-14.2-1.3-21.3,0-.8,0-1.7,0-2.5-.1-.8-.3-1.7-.7-2.4-.7-1.6-2.1-2.3-3.8-2.1-1.7.2-2.9,1.1-3.4,2.8-.2.7-.4,1.4-.4,2.1,0,2.8,0,5.6,0,8.3.2,4.5.8,8.9.9,13.4.2,9.1,1.8,18,3.3,27,1.5,8.8,3.5,17.5,5.7,26.2,2.3,8.9,4.9,17.7,8,26.3,2.4,6.5,5.2,12.8,8,19.7M715.1,2400.5c.2-1.4.4-2.9.5-4.3.5-5.3.9-10.6,1.4-15.9.1-1.4.1-2.9.2-4.4.1-3.3.3-6.5.3-9.8,0-1.2-.3-2.4-.7-3.5-.5-1.4-2-2.1-3.5-2-1.7.1-3.1,1.2-3.4,2.7-.1.6-.2,1.2-.2,1.8-.4,6.5-.7,13-1.1,19.5-.4,7-1.2,14-2.3,20.9-2.3,15.6-5.9,30.9-10.6,45.9-4.1,13.2-9,26-15.1,38.4-5.1,10.3-10.5,20.4-16.8,30-.9,1.3-1.6,2.7-2.1,4.2-.7,1.8.2,3.7,1.9,4.6,1.9,1.1,3.9.9,5.3-.7.9-1.1,1.8-2.3,2.5-3.5,4.6-8.2,9.3-16.4,13.8-24.7,3.8-7,6.9-14.4,10-21.7,5.3-12.7,9.6-25.8,12.9-39.2,3.1-12.4,5.6-25,7.2-38.4M196.9,2466.1c-2.9-7.4-6.1-14.8-8.7-22.3-5-14.2-8.2-28.8-10.4-43.7-1.1-7.5-2-15.1-2.1-22.7,0-1.3-.2-2.7-.2-4-.4-6.6-.5-13.3.1-19.9.2-2.4.3-4.8.3-7.2,0-2.3-1.6-4.1-3.7-4.3-2-.2-3.7,1.2-4.3,3.6,0,.4-.1.7-.2,1.1-.2,2.6-.5,5.3-.6,7.9,0,5.6-.2,11.1,0,16.7.1,5.7.3,11.4.9,17,.8,7.3,1.7,14.6,2.9,21.9,3.1,18.8,8.7,36.9,16,54.5,3.2,7.8,7.3,15.3,11,22.9,1.4,2.8,3.1,5.5,4.7,8.2.4.7.9,1.4,1.5,2,1.4,1.5,3.2,1.6,5,.9,1.6-.6,2.4-2,2.3-4.1,0-.7-.3-1.4-.6-2.1-.5-1.1-1.1-2.2-1.7-3.2-4.6-7.3-8.5-14.9-12.2-23.3M240.8,2117.2c-1,.8-2.1,1.6-3.1,2.5-3.9,3.3-7.8,6.6-11.5,10-4,3.7-7.9,7.4-11.8,11.2-.8.7-1.4,1.7-1.8,2.7-.9,2.2.5,4.9,2.8,5.4,1.4.3,2.7-.2,3.8-.9,1-.7,1.8-1.6,2.7-2.5,6-6.1,12.4-11.9,19-17.3,7.1-5.8,14.4-11.4,22.1-16.5,11.4-7.6,23.2-14.5,35.6-20.3,7.2-3.4,14.5-6.7,22-9.3,1-.3,2-.8,3-1.3,1.8-1.1,2.4-3.2,1.5-5.1-.8-2-2.6-2.9-4.7-2.4-1.1.2-2.1.6-3.1,1-11.3,4.3-22.4,9.1-33.1,14.8-7.9,4.3-15.7,8.6-23.1,13.6-6.7,4.5-13.4,9.1-20.1,14.5M518.6,2073.1c-1.9.5-2.8,1.7-2.9,3.7-.2,2.1.8,3.5,2.5,4.4.7.4,1.5.7,2.3,1,10.6,3.5,20.7,8.2,30.5,13.4,11.1,5.8,21.8,12.1,31.8,19.5,5.7,4.2,11.7,8.2,17,13,1.1.9,2.3,1.7,3.6,2.3,2.7,1.2,5.2-.5,5.3-3.5,0-1.7-.5-3-1.9-4.1-2-1.6-3.9-3.3-5.9-4.8-5.4-4.1-10.7-8.3-16.3-12.2-8.3-5.7-16.9-10.8-25.7-15.6-11.7-6.4-23.8-11.8-36.3-16.5-1.1-.4-2.3-.5-4.1-.7M116.9,2319.5c4,7.2,11.4,10.4,19,8.1,9.1-2.7,13.8-12,10.9-21-2.1-6.5-8.3-10.6-15.3-10.8-7.5-.2-14,5-15.9,11.9-1.1,3.9-.7,7.6,1.3,11.8M693.2,2301c0,1.9-.3,3.9.1,5.8,2.2,9.8,11.8,14.7,20.1,12.4,6.4-1.8,10.4-5.9,11.7-12.4,1.2-6.2-.7-11.5-5.5-15.6-6.5-5.5-15.7-5.1-21.7.8-2.4,2.4-3.8,5.2-4.8,9.1M270.2,2161c4.6-3.4,9.1-6.8,13.7-10.2.8-.6,1.5-1.2,2.1-2,.5-.7.8-1.5.8-2.3,0-2.9-2.7-4.8-5.6-3.7-.9.3-1.7.9-2.5,1.5-9.7,6.9-19.1,14-27.7,22.3-2.3,2.2-4.6,4.3-6.7,6.6-3.8,4-7.5,8.2-11.2,12.3-.6.7-1,1.6-1.5,2.5-.7,1.4-.4,2.6.6,3.7,1,1.1,2.2,1.8,3.9,1.3,1.6-.4,2.7-1.5,3.8-2.7,1.4-1.5,2.6-3.2,4.1-4.6,4.2-4.3,8.4-8.7,12.8-12.8,4.2-4,8.7-7.7,13.4-11.9M566.4,2147.5c-1.9-1.3-3.8-2.6-5.6-4-1.4-1-2.9-1.2-4.5-.9-1.2.2-1.9,1-2.1,2.2-.4,2.5.3,4.5,2.5,5.9,6.7,4.4,12.7,9.6,18.9,14.6,1.1.9,2.4,1.7,3.7,2.3,1.2.5,2.6.6,3.8-.4,1.5-1.4,2-3.3,1.2-4.9-.3-.6-.7-1.3-1.2-1.8-1.9-1.7-3.8-3.4-5.8-4.9-3.4-2.7-6.9-5.3-10.8-8.2Z"/>
  <path class="st40" d="M512.1,2458c.1,0,.3,0,.4,0,4.5-1.8,8.7-1.1,12.9,1,2.6,1.3,5.3,2.2,8,3.3,1.1.5,2.2,1,2.6,2.9,0,7.1,0,13.6,0,20.1,0,48,0,96,0,143.9,0,8.1,0,16.2,0,24.3-6.3,2.6-12.8,4.3-19.3,6.2-14.3,4.1-28.8,7.1-43.5,9.3-7.5,1.1-15.1,1.8-22.7,2.5-5.4.5-10.8.8-16.3,1.1-2,.1-4.1,0-6.3-.6-.1-10.4,0-20.4-.1-30.3,0-5.3,1.1-10.3,3.4-15.1,4.2-9,8.3-18,12.5-26.9,4.3-9.1,8.7-18.1,13.1-27.1,3.4-7,6.8-13.9,10.1-20.9,3.6-7.4,7.2-14.8,10.8-22.2,2.3-4.8,4.7-9.5,7-14.3,3.3-7,6.6-14,9.9-21,5.5-11.3,11-22.6,16.5-33.9.4-.8.6-1.6.9-2.4Z"/>
  <path class="st40" d="M304.8,2463.6c4.8-2,9.6-4.1,14.5-6,2.7-1.1,5.6-1.1,8.7.5,4,7.8,7.6,15.3,11.2,22.9,2.8,5.8,5.5,11.6,8.3,17.3,5.1,10.7,10.2,21.4,15.4,32.1,8.2,16.9,16.4,33.7,24.6,50.6,4,8.2,7.9,16.3,11.9,24.5,3.1,6.4,6.2,12.9,9.3,19.3,2.7,5.3,3.9,10.9,3.8,16.8,0,10.2,0,20.3,0,30.5-1.2.2-2.4.5-3.5.5-5.5-.3-11.1-.7-16.6-1.1-9.2-.6-18.2-1.8-27.3-3.2-14.9-2.4-29.6-5.6-44.1-10-5.3-1.6-10.5-3.4-16-5.7-.2-1.6-.2-2.7-.2-3.7,0-48.6,0-97.2,0-145.8,0-13.2,0-26.3,0-39.5Z"/>
  <path class="st22" d="M412.8,2672.2c-.3-10.3-.4-20.5-.3-30.6,0-5.9-1.2-11.5-3.8-16.8-3.2-6.4-6.2-12.8-9.3-19.3-4-8.2-7.9-16.3-11.9-24.5-8.2-16.9-16.4-33.7-24.6-50.6-5.2-10.7-10.3-21.4-15.4-32.1-2.8-5.8-5.5-11.6-8.3-17.3-3.6-7.5-7.2-15.1-10.9-22.8,4.6-2.3,9.2-4.3,14.2-6,.4.6.4,1,.5,1.3,3.8,9.6,9.4,18,16.9,25.1,5.4,5.2,11.6,9.5,18.3,13,12.7,6.6,26.2,9.7,40.4,10.3,6.3.3,12.6-.4,18.8-1.6,13.1-2.5,25.2-7.4,36-15.5,9.9-7.4,17.5-16.6,22.7-27.8.8-1.6,1.6-3.3,1.6-5.2.4,0,.8-.1,1.1,0,4.3,1.9,8.6,3.8,13.1,5.9,0,.9-.3,1.7-.7,2.5-5.5,11.3-11,22.6-16.5,33.9-3.4,7-6.6,14-9.9,21-2.3,4.8-4.7,9.5-7,14.3-3.6,7.4-7.2,14.8-10.8,22.2-3.4,7-6.8,13.9-10.1,20.9-4.4,9-8.8,18-13.1,27.1-4.2,9-8.3,18-12.5,26.9-2.2,4.8-3.4,9.7-3.4,15.1,0,9.9,0,19.8-.1,30.1-1.6.8-3.1,1.1-4.7,1.1-2.4,0-4.8,0-7.2,0-.9,0-1.9-.3-3.1-.6Z"/>
  <path class="st28" d="M304.6,2463.8c.2,13,.3,26.2.3,39.4,0,48.6,0,97.2,0,145.8,0,1.1,0,2.2,0,3.6-.7.2-1.5,0-2.1-.2-12-4.4-23.8-9.1-35.4-15.4-.1-1.7-.1-2.9-.1-4.1,0-31.2,0-62.4,0-93.5,0-12.4-.2-24.9-.3-37.3,0-6.8-.2-13.5-.3-20.3.2-.2.3-.4.5-.5,7.6-3.7,15.1-7.5,22.7-11.1,3.6-1.7,7.2-3.3,10.8-4.9,1.2-.5,2.5-.8,3.9-1.4Z"/>
  <path class="st37" d="M536.4,2653.5c-.3-8-.4-16.1-.4-24.2,0-48,0-96,0-143.9,0-6.5,0-13.1,0-19.9,1.9-.5,3.6,0,5.3.8,3.5,1.6,7,3,10.6,4.6,3.5,1.5,7.1,3,10.5,4.6,3.3,1.5,6.5,3.1,9.8,5.2.1,53.1.2,105.6.2,158.2-1.5.8-3,1.6-4.5,2.3-10.2,4.7-20.6,8.9-31.6,12.5Z"/>
  <path class="st29" d="M266.3,2481.7c.4,6.8.5,13.6.6,20.3.1,12.4.3,24.9.3,37.3,0,31.2,0,62.4,0,93.5,0,1.2,0,2.4,0,4-3.2-1.2-6.4-2.5-9.4-4.1-6.7-3.7-13.4-7.5-20-11.3-1.1-.6-2.4-1.2-3-3,0-1.5,0-2.5,0-3.4,0-12.6,0-25.1,0-37.7,0-22.1,0-44.2,0-66.3,0-1.7.2-3.4.3-5.1.2-1.3.5-2.6.6-3.9.2-1.7.3-3.3.4-5,.1-1.9,1.1-3.1,2.8-3.9,1.2-.6,2.4-1.1,3.6-1.7,5.1-2.3,10.3-4.7,15.4-7,2.6-1.2,5.2-2.4,8.4-2.8Z"/>
  <path class="st4" d="M576.2,2481.3c3.9,1.7,7.8,3.2,11.6,5,5,2.4,9.9,5.1,14.8,7.6,2.5,1.3,3.4,3.2,3.1,5.9-.2,1.5-.8,3.1.3,5.2,0,8.4,0,16.3,0,24.1,0,29.1,0,58.2,0,87.4,0,1.3,0,2.7.1,4-1.6,1-3.2,2.2-4.8,3.1-7.5,4.5-15.3,8.7-23.2,12.6-1.2.6-2.4,1.1-3.9,1.3-.3-50.8-.3-101.4-.3-151.9,0-.7,0-1.5,0-2.2,0-.6.3-1.1.3-1.5.3-.2.4-.3.5-.3.5-.1.9-.2,1.4-.4Z"/>
  <path class="st53" d="M606.3,2620.4c-.2-1.2-.3-2.5-.3-3.9,0-29.1,0-58.2,0-87.4,0-7.9,0-15.7.2-23.9,8,3.8,15.4,8.7,22.7,13.9,2.2,1.5,4.3,3.1,6.5,4.6,7.6,5.2,14.6,11.1,20.3,18.5,3.7,4.9,7.2,9.9,9.3,15.9,1.4,3.9,3.1,7.6,4.7,11.6-.8,1.4-1.6,2.7-2.6,3.7-4.2,4.3-8.8,8.3-13.4,12.1-2.5,2.1-4.8,4.4-7.3,6.4-3.6,3-7.3,5.9-11.1,8.7-8,6.2-16.5,11.8-25,17.3-1.2.8-2.5,1.5-3.9,2.3Z"/>
  <path class="st14" d="M234.7,2505.8c.2,1.7,0,3.4,0,5.1,0,22.1,0,44.2,0,66.3,0,12.6,0,25.1,0,37.7,0,1,0,1.9-.2,3.2-1.5.3-2.6-.4-3.8-1.1-9.1-5.9-18.1-12-26.6-18.8-5.1-4-10.2-8-15-12.5-5.1-4.7-10.5-9.2-15.4-14.2-.8-.8-1.5-1.6-2.3-2.6,1.8-7.6,4.9-14.6,8.6-21.2,2.1-3.7,4.9-6.9,7.9-9.8,8.6-8.2,18.1-15.1,28.2-21.3,3.9-2.4,7.6-5.1,11.5-7.5,2.1-1.3,4.2-2.8,7-3.4Z"/>
  <path class="st33" d="M576,2481.1c-.3.3-.8.4-1.3.6-.1,0-.2.1-.5.3,0,.4-.3.9-.3,1.5,0,.7,0,1.4,0,2.2,0,50.5,0,101.1,0,151.9-.3.6-.7.9-1.3,1.2-.2-52.5-.2-105.1-.2-158,1.2-.4,2.4-.9,3.6.3Z"/>
  <path class="st55" d="M541.1,2258.8c.7.6,1.4,1.4,2.2,1.8,4,1.8,6.6,4.9,8.7,8.4,2.4,4,3.7,8.3,4.5,12.9.7,4.2.8,8.4.5,12.6-.8,10.7-3.8,20.7-10.4,29.3-3.8,5-8.8,8.6-14.6,11-6,2.4-5.4,1.7-5.5,7.7,0,1.9-.4,3.8-.6,5.7-1.1,9-2.7,17.9-6.2,26.3-1.5,3.6-2.7,7.3-4.5,10.7-2.2,4.3-4.8,8.4-7.3,12.5-2.9,4.8-6.9,8.7-10.5,13.4-1.1.4-1.2,1-1.4,1.8-2.2,2.6-4.6,4.5-7,6.6-3,2.7-6.2,4.9-9.5,7.2-6,4.3-12.5,7.7-19.3,10.6-4.7,2.1-9.7,3.7-14.7,5.1-4.5,1.3-9.2,2.1-13.8,2.6-3.6.4-7.1,1.2-10.8.9-2.9-.2-5.7-.2-8.6-.6-3.8-.5-7.7-.8-11.4-1.7-4.8-1.1-9.6-2.2-14.3-3.9-7.2-2.5-14.1-5.7-20.5-9.8-6.3-4-12.6-8.1-17.8-13.6-1.2-1.2-2.3-2.4-3.6-3.6-.5-.5-1.2-.7-1.9-1-.2-2-1.2-3.7-2.6-5-2.7-2.5-4.6-5.5-6.8-8.5-2.7-3.7-5-7.7-7.2-11.7-1.4-2.6-2.8-5.4-3.7-8.3-1.7-4.9-3.6-9.7-4.8-14.8-1-3.9-1.6-7.8-2.4-11.7-.6-2.8-.6-5.7-.9-8.6-.2-2.2-.5-4.3-.7-6.4-1.4-1-2.9-1.6-4.4-2.1-4.1-1.3-7.7-3.6-10.9-6.3-2-1.7-3.5-3.9-5.2-6.1-5.4-7-8.7-15-10.4-23.7-.3-1.8-.4-3.6-.5-5.4-.6-8.6,1.7-16.5,5.4-24.1,2-4.1,4.8-7.6,9.4-9.1.3-.1.6-.3,1.4-.7,1.3-.3,2.1-.4,2.9-.6,2-.4,4-.5,5.9,0,1,1.7,1.2,3.3,1.2,5,0,1.9,0,3.8.5,5.7.3.9.1,1.9-.1,2.8-2.3-1-4.2-.7-6.1.3-2.5,1.2-3.8,3.4-4.8,5.7-1.6,3.9-2.7,8-2.5,12.3,0,1.7.5,3.3.6,5,.5,5,2.4,9.5,5.4,13.6,2.8,3.7,6.4,6,11,7.4.6-1.5.6-2.8.2-4-.6-2-.5-4.1-.5-6.1,0-5.3,0-10.6.2-15.9,2.8,1,5.2,2.5,7.9,2.8.9-1.4.5-2.8.5-4.1,0-10.2,0-20.3,0-30.5,0-2.3.3-4.6,1.1-6.7,1.1-2.9,2.2-5.9,3.3-8.8.8-2,1.6-4.1,1.6-6.5.3-3.5.3-6.7.7-10,1,0,1.8,0,2.5,0,3.1.4,6.2,1.1,9.3,1.2,3.9.1,7.7.7,11.5.9,4.1.2,8.1,1.1,12.2.8.3,0,.7.2,1.1.2,1.2.1,2.4.4,3.6.4,2.8,0,5.6,0,8.3,0,1.3,0,2.7-.2,4,.2,2.3.6,4.5.5,6.8.5,6.6,0,13.3,0,19.9,0,.7,0,1.5-.1,2.2,0,2.6.8,5.3.6,7.9.6,5.6,0,11.1,0,16.7,0,1,0,2,.2,2.9,0,3-.9,6-.6,9-.6,4.5,0,8.9,0,13.4,0,.8,0,1.7.1,2.5-.1,2.4-.7,4.8-.5,7.2-.6,1,0,2,.1,2.9-.1,2.5-.7,5-.5,7.6-.6,1.1,0,2.2.2,3.2-.1,2.5-.7,5-.5,7.6-.6.7,0,1.5,0,2.2-.1,2.1-.7,4.3-.5,6.5-.6.7,0,1.5,0,2.2-.1,2.1-.7,4.3-.5,6.5-.6,2-.1,4.1-.4,6.1-.3-.9,3.4-.6,6.6,0,10,.1.9.2,1.5.4,2,1.5,4.4,3.1,8.8,4.7,13.3,1,2.9,1.6,5.8,1.5,8.8-.1,3.5,0,7,0,10.5,0,6.3,0,12.5,0,18.8,0,.9-.3,1.9.8,2.8.5-.1,1.2-.3,1.8-.5,2-.7,4-1.5,6-2,0,2,.1,3.7-.5,5.3-.3.8-.2,1.7-.2,2.5,0,4.8,0,9.7,0,14.5,0,.8.2,1.6.3,2.7.9-.2,1.6-.2,2.2-.4,6-2.6,9.8-7.1,12.1-13.1,1.8-4.7,2.4-9.6,2.1-14.5-.3-4.2-1.5-8.3-3.7-11.9-1.2-2-3-3.3-5.4-4-1.7-.5-3.1.3-4.6.2.6-2.5.8-4.8.7-7-.1-2,.5-3.8.9-5.6.2-.9.9-1.4,1.8-1.4.6,0,1.2,0,1.8.1,1.6.6,3.3.5,5,.6M461.2,2253.1c3.1,0,6.3-.1,9.4-.2,5.5,0,10.8,1,15.8,3.1,2.4,1,5,1.9,7.4,2.8,1.8.7,3.4.3,4.6-1,1.3-1.4,1.6-3.2.8-5.1-.8-1.9-2-3.6-3.6-4.9-4.7-3.7-9.9-6.5-15.7-8-3.7-1-7.5-1.7-11.4-1.4-2.5.1-5,.4-7.5.7-2.3.3-4.6.5-6.8,1.1-2.1.6-4.1,1.5-6,2.5-2.2,1.1-3.2,3.3-3.6,5.6-.6,3,2,6,5.2,6.1,3.7.2,7.2-.8,11.4-1.4M365.6,2239.1c-1.4.2-2.9.3-4.3.6-6,1.4-11.2,4.3-15.9,8.2-2,1.7-3.3,3.8-4.2,6.2-.2.5-.3,1.2-.1,1.7.7,2.4,2.8,3.6,5.3,3,1.3-.3,2.5-.8,3.8-1.2,2.5-1,4.9-2.1,7.4-2.9,6.9-2.3,14.1-2.1,21.2-1.6,3.6.2,7.1,1.1,10.7,1.7,2.9.5,5.9-1.6,6.4-4.5.4-2.5,0-4.8-2.1-6.5-1.1-.9-2.2-1.8-3.6-2.3-1.7-.6-3.4-1.2-5.2-1.5-3.1-.6-6.2-1.2-9.3-1.4-3.1-.2-6.3-.5-10,.5M430.9,2272.9c-.4-1.4-.7-2.8-2.1-3.7-1.9,0-2.8,1.3-3.1,2.9-.2.9,0,1.9,0,2.9.3,2.1.8,4.2,1.2,6.4.8,4.7,1.6,9.5,2.5,14.2,1.3,6.6,2.7,13.2,4.2,19.7.4,1.6.5,3.1.6,4.6.2,2.7-1.2,4.6-3.2,6.2-2.8,2.2-6.2,3.1-9.7,3.8-.5.1-1,0-1.4,0-3.9-.9-7.8-1.8-11.3-3.7-2-1.1-3.8-1.2-5.9-1.3-1.5,0-2.5.6-3.2,1.9,0,2.8,1.6,4.4,4.1,5.4,3.8,1.5,7.6,3,11.5,4.4,3.4,1.3,7,1.1,10.4.4,5.3-1.1,9.8-4.1,13.2-8.4,1.3-1.6,2-3.5,2.1-5.7.1-3.8-.2-7.5-1-11.1-1.4-6.6-3.1-13.1-4.6-19.7-1.4-6.2-2.8-12.4-4.5-19.2M454.7,2355c-3.3,1.7-6.7,3.3-10.3,4.5-2.9.9-5.8,1.5-8.8,2-3.8.6-7.6,1.2-11.5,1.2-7.1,0-14.2,0-21.3-1.4-5-1-9.9-2-14.5-4.2-1.4-.7-2.9-1.2-4.4-1.6-1.6-.4-2.7,0-3.5,1.3-.6.9-.2,2.5,1,3.5.7.6,1.6,1.1,2.4,1.5,9.5,4.6,19.5,6.9,30,7.3,4,.2,8,.1,12,0,3.1-.1,6.3-.3,9.3-.9,4.2-.8,8.4-2,12.6-3.2,4-1.1,7.6-3,11.1-5.2,1.2-.8,1.9-1.9,2.2-3.2.2-1-.2-1.9-1-2.6-.8-.7-1.7-.9-2.7-.4-.8.4-1.5.7-2.8,1.4M460.4,2414.1c-1.6-1.4-2.2-1.4-3.3-.3-.3.3-.7.7-.9,1.1-1.5,2.8-3.8,5-6,7.2-2.7,2.7-5.9,4.5-9.3,6.1-5.2,2.5-10.9,2.8-16.5,3.5-2.5.3-5.1.2-7.6,0-2.7-.2-5.5-.7-8.2-1.2-1.9-.4-3.7-1-5.6-1.5-4.5-1.2-8.4-3.6-11.9-6.6-2.2-1.9-4-4.2-5.3-6.9-.7-1.5-1.8-2.2-3.3-2.4-1,.5-1.7,1.1-1.9,2.1-.3,1.4.1,2.6.8,3.8,4.5,7.2,10.5,12.6,18.6,15.2,4.6,1.5,9.3,2.6,14.1,2.6,1,0,1.9.2,2.8.4,2.5.4,5,.4,7.6,0,.7-.1,1.4-.4,2.1-.4,4.2,0,8.3-1.1,12.4-2,7.7-1.8,13.4-6.5,18.2-12.4,1.3-1.6,2.6-3.2,3.3-5.1.4-1,.4-1.9-.4-3.2M460.1,2279c.3.9.5,1.9.8,2.8.6,1.7,1.5,3.2,2.9,4.6,2.6,2.6,7.5,3.7,11.1.3,1-1,2-2.1,2.6-3.4,2.1-4.4,2.4-9,.6-13.7-.9-2.4-2.5-4.3-4.8-5.7-2.2-1.4-4.5-1.6-6.8-.3-2.2,1.2-3.9,2.8-5,5-1.6,3.1-1.9,6.4-1.4,10.5M375.1,2263.9c-4.4-2-7.2-1.4-10.2,2.2-.9,1.1-1.7,2.4-2.2,3.7-1.6,4.5-1.4,9,.5,13.4.3.7.6,1.3,1.1,1.9,2,2.6,4.5,3.9,7.8,3.6,3.4-.3,5.4-2.4,7-5.1,1.6-2.7,1.9-5.7,1.8-8.7-.1-4.4-1.7-8-5.8-10.9M478.7,2360.3c-.3-3.4-.9-6.7-2.7-9.6-1.8-2.9-3.5-5.8-6.1-8.1-3.3-3.1-6-6.6-8.6-10.3-.5-.7-1-1.4-1.6-1.9-.7-.6-2-.5-2.7,0-.7.6-.9,1.4-.7,2.3.1.6.4,1.2.7,1.7,1.7,2.9,3.4,5.8,5.8,8.3,2.5,2.6,5,5.3,7.3,8.1,2.3,2.9,3.6,6.3,3.6,10,0,2.2,0,4.4,0,6.5,0,1.2.4,2.1,1.4,2.8.8.6,2,.5,2.6-.3.7-1,1.1-2.1,1.1-3.4,0-1.8,0-3.6,0-6.1M379.1,2333.1c-2.4,3.5-5.1,6.7-8,9.7-1.8,1.9-3.6,3.9-5.1,6-2,2.9-3,6.3-3.4,9.8-.2,1.2-.2,2.4-.5,3.6-.6,2.4.6,4.5.8,6.7,0,.3.4.6.6.9.5.5,1.1.9,1.9.7.9-.2,1.5-.9,1.4-1.8-.3-3.2.7-6.2.8-9.3,0-2.9,1.1-5.5,2.8-7.7,1.8-2.4,3.8-4.6,6-6.8,3.1-3.1,5.4-6.8,7.8-10.3.3-.5.6-1.1.7-1.7.2-1.1-.5-1.8-1.3-2.4-.7-.6-1.6-.6-2.3,0-.7.6-1.3,1.4-2.2,2.6M381,2302.5c3.3-2,6.5-4.1,9.1-7.1.9-1,1.8-2,1.9-3.3-1.9-2.5-2.4-2.6-4.5-.7-1.5,1.3-3.1,2.7-4.7,3.9-5.1,3.6-10.7,5.9-17.1,5.7-2.4,0-4.8,0-7.2,0-1.5,0-2.2.6-2.5,1.6-.3,1.3.2,2.2,1.7,2.8.9.3,1.8.5,2.8.6,1.8,0,3.6,0,5.4,0,5.2.1,10-1.1,15.1-3.5M456.5,2294.4c-1.5-1.2-2.9-2.5-4.4-3.7-1-.9-1.7-.9-2.9.1-.4.4-.7.9-1.1,1.5.8,1.1,1.3,2.2,2.2,3,1.6,1.5,3.2,3,4.9,4.2,5.7,4.1,12,6.6,19.1,6.5,2.1,0,4.1,0,6.2,0,.6,0,1.2,0,1.8-.2,1-.3,2-1.4,2.1-2.3,0-1-1-2.3-2.2-2.5-.7-.1-1.4,0-2.2,0-2.5,0-5.1,0-7.6,0-1.1,0-2.2-.2-3.2-.4-4.5-1-8.7-2.8-12.7-6.1M426.9,2380.3c-.7.2-1.4.5-2.1.5-5.2.2-10.4.2-15.5-1-1-.2-1.8-.5-2.8,0-1,.6-1.6,1.4-1.8,2.8.5.5,1,1.3,1.7,1.5,1.8.7,3.7,1.2,5.5,1.7,3.2.9,6.5.6,9.7.8,2.7.1,5.3-.5,7.8-1,1.6-.3,3.2-1.2,4.7-1.9.6-.3,1.2-.8,1.7-1.3.7-.8.8-1.8.3-2.7-.4-.9-1.2-1.2-2.1-1.1-.8,0-1.6.4-2.4.5-1.4.3-2.8.6-4.8,1.1M343.6,2288.2c1-.4,2.1-.7,3-1.2,1.3-.7,1.4-1.3.6-3.5-3.6-.1-7,1.1-10.4,2.3-.5.2-1,.7-1.4,1.1-.8.9-.8,2.2-.1,3,.6.8,1.4.8,2.3.5,1.8-.7,3.6-1.3,6-2.2M502,2285.1c-1.7-.4-3.5-.8-5.2-1.3-.6-.1-1.2-.3-1.8-.3-1.2,0-2,.4-2.3,1.3-.3.9.1,1.8,1.3,2.3,1.7.8,3.5,1.5,5.3,2.2,1.2.5,2.5.9,3.7,1.3.7.2,1.4.2,2-.4.7-.7.7-1.5.4-2.3-.1-.4-.4-.9-.8-1.2-.7-.5-1.4-.9-2.6-1.5M334.9,2275.9c-.3,1.8.4,3,2.3,3.4,1.4.3,2.7.9,4.2,1.1,1.7.2,3.4.1,5,0,.7,0,1.3-.7,1.4-1.5.1-.8-.3-1.4-1-1.8-.3-.2-.7-.3-1-.4-2.2-.7-4.3-1.4-6.5-1.9-1.4-.3-2.8-.6-4.4,1M502.5,2279.5c.5-.1.9-.3,1.4-.4,1.2-.3,1.7-1.3,2.1-2.3.3-.7-.1-1.5-.8-1.8-.2,0-.5-.2-.7-.2-3.7,0-7,1.4-10.4,2.6-.7.2-1,1.5-.6,2.2.3.4.9.8,1.4.9,2.4.3,4.8-.3,7.7-1Z"/>
  <path class="st50" d="M513.5,2227c-2,.2-4.1.4-6.1.5-2.2.1-4.3,0-6.5.6-.7.2-1.4.1-2.2.1-2.2,0-4.3-.1-6.5.6-.7.2-1.4.1-2.2.1-2.5,0-5.1,0-7.6.6-1,.3-2.2,0-3.2.1-2.5,0-5.1-.2-7.6.6-.9.3-1.9,0-2.9.1-2.4,0-4.8-.2-7.2.6-.8.2-1.7.1-2.5.1-4.5,0-8.9,0-13.4,0-3,0-6-.3-9,.6-.9.3-1.9,0-2.9,0-5.6,0-11.1,0-16.7,0-2.6,0-5.3.3-7.9-.6-.7-.2-1.4,0-2.2,0-6.6,0-13.3,0-19.9,0-2.3,0-4.6,0-6.8-.5-1.2-.3-2.6-.1-4-.2-2.8,0-5.6,0-8.3,0-1.2,0-2.4-.2-3.6-.4-.4,0-.7-.2-1.1-.2-4.1.2-8.2-.6-12.2-.8-3.8-.2-7.7-.8-11.5-.9-3.1,0-6.2-.8-9.3-1.2-.7,0-1.4,0-2.7-.1-2.9-.5-5.3-.9-7.6-1.3-4.3-.7-8.7-1.4-13-2.1-3.3-.6-6.6-1.2-9.9-1.8-.6-.4-1.1-1-1.7-1.2-1.3-.4-2.6-.6-3.9-.9-5.7-1.5-10.7-4.4-15.3-8-1.5-1.2-2.7-2.8-3.2-4.7-.2-.7-.3-1.4-.4-2.1,0-.8.5-1.4,1.3-1.5.7-.1,1.4-.3,2.2-.2,3.3.1,6.5.3,9.8.4,1.3,0,2.7.2,4,.2.7,0,1.3-.4,2.2-.7,0-1.5,0-2.9,0-4.4,0-8.8,0-17.7,0-26.5,0-1.9.3-3.8.5-5.8,0-.4.1-.7.1-1.1.4-8.8,2.5-17.2,5.2-25.5,2.1-6.6,5.2-12.7,8.8-18.6,5.3-8.7,11.5-16.7,18.5-24.2,3.3-3.5,6.7-7,10.3-10.1,3.8-3.2,7.4-6.6,11.6-9.3,4.4-2.8,8.8-5.6,13.6-8.4.8,0,1.2-.1,1.6.2.3.9.5,1.4.7,2,1.5,6.1,3,12.1,4.5,18.2,1.1,4.4,1.9,8.9,3.1,13.3.7,2.3.9,4.7,1.6,7,2.2,7.4,4.1,14.8,6,22.3.5,2.2,1.2,4.4,1.6,6.6.6,3.2,1.6,6.3,2.5,9.4.1.4.4.9.7,1.2.2.2.6.4,1,.4.9.2,1.7-.4,1.6-1.4-.2-3.2-.5-6.5-.9-9.7-.6-4.4-1.2-8.8-2-13.2-.4-2.1-.6-4.3-.8-6.4-.3-2.7-.9-5.4-1.3-8.2-.6-4.2-1-8.3-1.6-12.5-.3-2-.5-4-.9-6.1-.4-2.5-.9-5-1.3-7.5-.4-2.6-.9-5.2-1.2-7.8-.3-3.1-1.2-6.1-1.1-9.3,0-1.4,0-2.9,0-4.4.5-2.5,1-5,1.4-7.5.4-2.5,1.8-4,4.1-5,5-2.2,10.2-3.8,15.5-4.9,3.7-.8,7.4-1.3,11-1.9,1-.2,1.9-.3,2.9-.3,7,0,14-.2,21,.1,4.2.2,8.4,1.2,12.5,2.1,4.5,1,8.9,2.2,13.2,3.7,7.2,2.4,7.3,2.8,9.3,9.3.4,1.3.9,2.5,1.4,4.3-.2,1.7-.5,2.9-.7,4.1-.2.9-.3,1.9-.4,2.8-.6,3.8-1.2,7.6-1.7,11.4-.4,2.8-.9,5.7-1.3,8.5-.3,2.4-.6,4.8-.9,7.1-.3,2.7-.5,5.5-.9,8.2-.3,2.4-.9,4.7-1.2,7.1-.3,1.9-.5,3.8-.8,5.7-.3,2.6-.6,5.3-.9,7.9-.6,4.2-1.3,8.3-1.9,12.4-.4,3.1-.8,6.2-1.2,9.3-.1.8.1,1.4.9,1.8.9.4,1.9.2,2.3-.4.3-.4.5-.8.7-1.3.8-2.7,1.6-5.3,2.3-8,1-4.1,1.8-8.2,2.8-12.3,1.3-5.6,2.7-11.2,4.1-16.8,1.8-7.4,3.6-14.7,5.4-22.1,1.2-4.8,2.4-9.6,3.6-14.3.5-2,1.1-3.9,1.6-5.9,2.9,1.6,5.9,2.9,8.5,4.7,5.2,3.5,10.4,7,15.2,11.1,7.3,6.3,13.6,13.4,19.6,20.8,3.6,4.4,6.8,9.1,10,13.8.3.5.7,1,1,1.5,5.3,9.1,9.8,18.5,12.4,28.8,2.4,9.4,3.8,18.9,3.8,28.6,0,1.7.3,3.4.4,5,0,.7,0,1.4,0,2.2-.1,5.8-.3,11.6-.4,17.4,0,.1,0,.2.2.6.6.1,1.2.4,1.9.4,2.7-.1,5.3-.5,7.9-.6,1.8,0,3.6,0,5.4.1,2.7.1,3.4,3,2.4,4.8-1.3,2.1-3,3.8-5.1,5-5.1,3-10.2,6-16.1,7.4-.9.2-1.8.7-3.1,1.3-2.6.6-4.8.8-6.9,1.2-6.6,1.4-13.2,2.7-19.9,3.5-.8,0-1.6.5-2.4.8M394.9,2197.8c5.9,0,11.9,0,17.8,0,1.1,0,2.2,0,3.2-.3,3.8-.8,7.7-.6,11.6-.2,2.5.3,5,.5,7.6.5,4.6,0,9.2,0,13.8,0,1.3,0,2.6.3,3.9.4,1.1.1,2.2.2,3.2.3,5.5.3,11.1.5,16.6.8.4,0,.8,0,1.1.1,1.6.7,3.3.5,5,.6,1,0,1.9,0,2.9.1,3.2.4,6.4.9,9.6,1.3,1.4.2,2.8.7,4.3.7,4.4,0,8.6,1.2,12.9,1.7,4.9.6,9.7,1.9,14.5,3.1,1.5.4,2.6,0,3.7-.8.9-.6.9-1.7.3-2.6-.9-1.1-2-1.7-3.3-2.1-2.5-.8-5.1-1.6-7.7-2.2-6.2-1.3-12.4-2.8-18.7-3.9-4.5-.8-9-1.3-13.5-2-.9-.2-1.9-.5-2.8-.6-3.2-.3-6.5-.5-9.7-.8-.4,0-.8,0-1.1-.1-1.7-.7-3.6-.5-5.4-.6-.8,0-1.8.1-2.5-.2-2-.7-4.1-.5-6.1-.6-1.2,0-2.5.2-3.6-.1-3.1-.9-6.2-.5-9.4-.6-1.8,0-3.7.2-5.4-.2-2.3-.6-4.6-.5-6.8-.5-5.8,0-11.6,0-17.4,0-1.1,0-2.2.1-3.2.2-1.3.1-2.6.4-3.9.4-2.3,0-4.6,0-6.9,0-5.4.2-10.8.5-16.3.8-.4,0-.7,0-1.1.2-1.5.6-3.1.4-4.7.5-3.6.2-7.2.5-10.8.8-.2,0-.5.1-.7.2-3,.4-5.9.8-8.9,1.2-.7,0-1.4.2-2.1.3-2,.4-4,.9-6,1.1-4.1.4-8.1,1.3-12.1,2.1-4,.8-8,1.5-12,2.5-3.1.8-6.2,1.8-9.3,2.9-1,.3-1.5,1.2-1.4,2.3.1,1.1.8,1.8,1.9,1.9,1.3,0,2.7.2,4,0,3.3-.5,6.6-1.1,9.9-1.7,3.2-.6,6.4-1.3,9.6-1.8,4.3-.6,8.6-1,12.9-1.6,4.2-.6,8.3-1,12.5-1.4,3.4-.3,6.7-.6,10.1-.7.5,0,.9-.2,1.4-.3,1.1-.1,2.1-.4,3.2-.4,2.4,0,4.8,0,7.3,0,1,0,2,0,2.9-.2,1.5-.5,3.1-.5,5.4-.5Z"/>
  <path class="st2" d="M523.9,2441.5c-2-2.5-2.6-5.1-2.4-8,0-1.3.3-2.4.9-3.4,5.3-9.9,10.6-19.8,15.8-29.8,3.2-6,6.2-12,9.4-18,5.3-10.1,10.6-20.1,15.9-30.2.9-1.7,1.9-3.4,2.9-5,1.4-2.3,3.3-3.8,6-4.2.8-.1,1.6-.4,2.6-.7,16.1-31.7,32.3-63.5,48.4-95.3-.1-.3-.2-.7-.4-1-2.3-3-2.3-6.2-.8-9.6,1.6-3.5,3.2-7.1,4.7-10.6,1.3-3.1,2.3-6.3,2.3-9.8,0-3.6-1.4-6.1-4.6-8-5.4-3.2-11.3-4.1-17.4-3.9-5.3.2-10.5,1.4-15.7,2.8-2.5.7-4.9,1.4-7.3,2.1-3.5.9-7.2-.6-9-3.7-.9-1.5-.4-4.3,1.2-6,1.3-1.4,2.7-2.8,4.1-4.1,6.9-5.9,14.3-11.2,22.8-14.7,4.4-1.8,8.8-3.3,13.5-3.9,3.9-.5,7.9-1.2,11.9-1.4,9.3-.5,18.3.8,26.9,4.6,5.2,2.3,10.3,4.9,15.3,7.4,5,2.5,9.9,5,14.9,7.6,1,.5,1.9,1.1,2.8,1.6,2.3,1.4,3.5,3.6,3.7,6.3,0,1.1,0,2.2,0,3.3-.1,3.4,1.6,5.7,4.5,7.2,1,.5,2,.8,3.1,1.1,1.2.4,2.4.1,3.5-.6.2-.1.4-.3.6-.4,3.9-3.4,8-2.7,12.2-.7,3.5,1.7,6.8,3.7,10.3,5.4,3.5,1.8,4.7,4.8,4.3,8.4-.2,1.8-.8,3.5-1.4,5.2-.6,1.6-1.4,3.1-2.1,4.6-3.7,7.3-7.4,14.7-11.2,22-.5,1-1.1,1.9-1.6,2.9-1.6,3.1-6.4,5.3-10.4,3.6-2.1-.9-4.2-1.9-6.3-2.9-1.6-.8-3.3-1.6-4.8-2.5-1.3-.7-2.5-1.5-3.6-2.4-1.8-1.4-2.8-3.3-3-5.6,0-1.3,0-2.7,0-4,0-1.2-.3-2.2-1.2-2.9-2.4-2-5.2-3.2-8.3-3-2.8.1-5.1,1.4-6.6,3.9-1.9,3.2-3.8,6.4-5.7,9.7-.5.8-.9,1.7-1.4,2.5-1.6,2.7-3.9,4.2-7.1,4.4-.4,0-.7,0-1.1,0-.2,0-.5.1-.6.2-.3.2-.5.4-.6.6-.3.5-.6,1.1-.9,1.6-14.8,30.6-29.7,61.1-44.5,91.7-.3.7-.5,1.3-.9,2.2.2.6.4,1.3.6,1.9,1.3,3.3,1.2,6.6-.4,9.8-2,4.1-4,8.3-5.9,12.4-3,6.2-5.9,12.5-8.9,18.7-4.8,10.2-9.6,20.3-14.5,30.5-3,6.3-6,12.7-9,19-.6,1.3-1.3,2.6-2.1,3.8-1.9,3-4.6,4.4-8.1,4.4-3.2,0-6.2-1-9-2.4-6.4-3.1-12.7-6.4-19.1-9.7-2.6-1.3-5-2.9-7.3-5.1M612.1,2329.3c5.3-11,10.7-22,16-32.9,4.6-9.5,9.3-18.9,13.9-28.4,1.5-3.1,3-6.3,4.4-9.5-2.7-2.1-12.1-6.8-15.2-7.7-.2.1-.5.2-.6.4-15.4,30.4-30.8,60.9-46.1,91.3-.4.8-.8,1.7-1.3,2.8,5.4,3.2,11.1,5.5,16.6,8.6,1.3-2.5,2.5-4.7,3.6-6.9,2.8-5.8,5.6-11.5,8.6-17.8Z"/>
  <path class="st42" d="M282.7,2450c-4.4,2.7-8.6,5-13.2,6.7-2,.7-3.2,1.9-3.6,4.1-.3,1.5-.9,3-1.7,4.3-2.1,3.7-5.5,5.6-9.6,5.4-4.2-.2-7.7-2-9.7-6-.9-1.8-1.6-3.8-2.2-5.7-1.2-3.8-2.2-7.7-3.6-11.4-1.3-3.6-2.7-7.2-4.3-10.8-2.5-5.6-5.1-11.2-7.7-16.8-1.9-4-2.5-8.1-1.8-12.4,0-.5,0-.9,0-1.6-3.7-.8-7.2-1.6-10.7-2.5-1.2-.3-2.4-.5-3.5-.9-2.4-.9-3.5-3-2.8-5.5.3-1.2.8-2.3,1.3-3.3.7-1.4,1.4-2.8,2.3-4.3-.8-.5-1.5-1-2.2-1.3-1.5-.7-3.1-1.3-4.6-2.1-2.1-1.1-2.7-3-1.8-5.2.4-1,1-1.9,1.5-2.9.5-.8,1-1.7,1.4-2.5.3-.5.4-1.1.7-1.8-.8-.4-1.6-.8-2.3-1.2-1.3-.6-2.7-1.1-4-1.8-2.4-1.3-3.2-3.6-2.1-6.1.6-1.4,1.5-2.8,2.2-4.2.4-.7.8-1.5,1.3-2.4-.9-.5-1.7-1-2.6-1.4-1.2-.6-2.5-1-3.6-1.7-2.6-1.4-3.2-3.5-1.9-6.1.7-1.4,1.5-2.7,2.3-4.1.4-.7.7-1.5,1.2-2.4-.7-.4-1.2-.9-1.9-1.1-1.5-.7-3.2-1.2-4.7-1.9-2.6-1.3-3.2-3.2-1.9-5.7.9-1.8,1.9-3.6,2.9-5.4.2-.4.3-.9.5-1.5-.9-.5-1.7-.9-2.5-1.4-1.3-.6-2.7-1.2-3.9-1.9-2.1-1.2-2.8-3-2-5.2.6-1.5,1.4-2.8,2.1-4.2.5-.9,1-1.9,1.6-3.1-2-.9-3.7-1.7-5.5-2.5-3.9-1.8-4.3-3-2.6-6.7.9-2,1.9-3.9,3-6.1-.8-.5-1.6-1-2.4-1.4-1.3-.7-2.6-1.3-3.9-1.9-1.8-.9-2.4-2.4-2-4.2.3-1.3.8-2.5,1.4-3.7.7-1.5,1.5-3,2.3-4.7-.8-.4-1.4-.7-2-1.1-1.8-.9-3.8-1.7-5.5-2.8-1.8-1.1-2.2-2.8-1.2-4.7,1.2-2.2,2.3-4.5,3.3-7-1-1-2.3-1.4-3.4-1.9-1-.5-2-.8-2.9-1.4-1.8-1.1-2.4-2.7-1.7-4.7.5-1.6,1.3-3.1,2-4.6.4-.9.8-1.7,1.4-2.8-.9-.5-1.7-1-2.5-1.5-1.4-.7-2.9-1.3-4.2-2-2.1-1.2-2.7-3-1.7-5.3.7-1.7,1.6-3.2,2.5-4.8.3-.6.6-1.3,1.1-2.1-.7-.4-1.3-.8-1.9-1.2-1.6-.8-3.3-1.6-4.9-2.3-1.5-.7-2.1-2-1.8-3.6.2-1.1.5-2.1,1-3.1.9-1.8,1.9-3.6,2.8-5.4-.6-1.2-1.8-1.3-2.7-1.8-1.4-.7-2.9-1.3-4.2-2.2-2-1.3-2.5-3.2-1.5-5.4.5-1.1,1.2-2.1,1.8-3.2.6-1,1.2-2.1,1.8-3.2-.9-1-2.1-1.2-3.2-1.8-1.3-.7-2.7-1.2-3.9-2-1.6-1-2.2-2.7-1.5-4.4.4-1.2,1.2-2.4,1.8-3.6.5-1,1-1.9,1.5-2.9.1-.3.1-.7.2-1.2-1.5-.7-3-1.4-4.6-2.1-5-2.3-4.7-4.1-3-7.9,1.1-2.5,2.5-5,3.7-7.5.6-1.3,1.9-1.9,3.1-2.4,5.6-2.4,11.1-4.8,16.7-7.1,6.4-2.7,12.7-5.3,19.1-7.9,1.1-.5,2.2-1,3.4-1.3,2.1-.6,3.8.1,5,1.9.3.5.6,1.1.8,1.6,2.4,5,4.8,10,7.2,15,4.7,9.9,9.4,19.9,14.1,29.8,4.8,10.2,9.7,20.3,14.5,30.5,5.9,12.4,11.9,24.9,17.8,37.3,5.5,11.6,10.9,23.2,16.3,34.8,5.2,11,10.4,22.1,15.7,33.1,2.2,4.6,4.4,9.1,6.6,13.6.2.2.4.4.6.5,3.7.9,5.8,3.5,7.3,6.9,5.3,12.3,10.8,24.6,16.2,36.8,4.1,9.3,8.2,18.6,12.3,27.9.9,2,1.6,4,2.3,6.1.4,1.3.5,2.6.5,3.9.2,5.4-4,9-8.1,9.7-2.7.5-5.3.2-7.8-1.1-.8-.4-1.5-.7-2.2-1.2-2.1-1.6-4.1-1.2-6,.2-2,1.4-3.9,2.9-5.7,4.5-3.5,3.2-7.4,5.9-11.5,8.6M205.8,2337.4c1.2,1.2,1.4,2.5.8,4-.5,1.2-1.1,2.4-1.7,3.6-.6,1.2-1.1,2.3-1.7,3.7.9.5,1.6.9,2.4,1.3,1.3.6,2.7,1.1,4,1.8,2.2,1.2,2.9,3.2,1.9,5.5-.4.9-.9,1.7-1.3,2.6-.7,1.5-1.4,3-2.1,4.6,1,.6,1.9,1.1,2.7,1.5.9.4,1.8.7,2.6,1.2,3.2,1.7,4,3.9,2.3,7.2-.6,1.3-1.5,2.5-2.2,3.8-.3.6-.5,1.3-.9,2.1,1.3.5,2.4.9,3.5,1.4,1.1.5,2.3.8,3.3,1.4,2.1,1.3,2.8,3.4,1.7,5.6-.5,1.1-1.2,2.1-1.7,3.2-.6,1.2-1.4,2.2-1.5,3.6,3.7,1.6,7.9,2.6,10.6,2.4.5-1.1,1-2.3,1.6-3.5,3.7-8.1,7.5-16.3,11.2-24.4,1.7-3.7,4.4-6.3,8.1-8,5.7-2.6,11.5-5,17.3-7.6,3.3-1.4,6.6-2.9,10.1-4.5-.9-2.1-1.7-3.9-2.6-5.8-2.6-5.5-5.2-10.9-7.8-16.4-2.3-4.8-4.5-9.6-6.8-14.5-5-10.5-10-21-14.9-31.4-4.3-9-8.5-17.9-12.7-26.9-3.2-6.7-6.4-13.3-9.5-20-3.2-6.9-6.4-13.8-9.7-20.7-4.4-9.3-8.9-18.5-13.3-27.8-4.1-8.5-8.1-17-12.1-25.6-.4-.8-1-1.6-1.5-2.5-1,.4-1.8.6-2.5.9-9.3,3.8-18.6,7.6-27.8,11.5-1,.4-2,1-2.9,1.4-2,.9-2.9,2.4-2.8,4.7,1.1.5,2.2,1.1,3.2,1.6,1,.5,2,.8,2.9,1.4,2.2,1.3,2.8,3.3,1.7,5.6-.7,1.4-1.5,2.7-2.2,4.1-.4.8-.7,1.7-1.1,2.8,1.3.6,2.4,1.1,3.5,1.6,1.2.6,2.5,1,3.6,1.7,1.9,1.2,2.4,3,1.5,5-.7,1.5-1.5,3-2.3,4.5-.4.7-.7,1.5-1.1,2.4.6.4,1.1.7,1.6,1,1.5.7,3.1,1.3,4.6,2,2.3,1.1,3,2.6,2.1,5-.6,1.7-1.6,3.3-2.3,4.9-.4.9-1.4,1.7-1.1,3.2,1.8.9,3.8,1.8,5.7,2.8,2.6,1.3,3.4,3.3,2.3,6-.7,1.7-1.7,3.2-2.6,4.8-.3.6-.5,1.3-.7,2.2,1.1.6,2,1.1,3,1.5,1.1.5,2.3.9,3.3,1.5,2.2,1.3,2.8,2.7,2,5.1-.5,1.4-1.3,2.6-1.9,3.9-.5,1.1-1.3,2-1.1,3.5,1.5.7,3,1.4,4.5,2.1.8.4,1.6.7,2.2,1.2,1.7,1.3,2.2,3.2,1.3,5.1-1,2.2-2.2,4.3-3.4,6.5.7.4,1.2.8,1.7,1,1.7.9,3.5,1.7,5.1,2.7,1.8,1.1,2.3,2.3,1.7,4.3-.4,1.3-1,2.4-1.6,3.6-.7,1.5-1.7,2.9-2,4.6,2.2,1,4.3,2,6.3,3,1.7.9,2.3,2.5,2,4.3-.3,1.4-.9,2.7-1.5,4.1-.6,1.4-1.4,2.8-2.1,4.3.8.5,1.5.8,2.1,1.1,1.5.8,3.1,1.4,4.5,2.3,1.8,1.1,2.3,2.2,1.7,4.3-.3,1-.8,2-1.3,3-.8,1.6-1.9,3-2.4,5,.8.4,1.4.7,2.1,1,1.2.5,2.5.9,3.7,1.5,2.6,1.2,3.9,3.4,2.3,6.5-.8,1.6-1.7,3.2-2.5,4.9-.3.6-.5,1.3-.9,2.1,1.3.6,2.4,1,3.5,1.5,1.3.6,2.6,1.3,4.2,2.3M267.7,2401.9c-4.6,3.8-9.1,7.6-13.7,11.3-1.5,1.3-2.4,2.7-1.8,4.7.9,3,2.1,5.9,3.8,8.6.9,1.6,2.4,2,4.1,1.2,1.2-.5,2.3-1.3,3.4-2.1,4.8-3.4,9.7-6.8,14.5-10.2,3.2-2.2,6.4-4.4,9.5-6.7,2.2-1.6,2.4-2.8,1.4-5.3-.6-1.3-1.2-2.6-1.9-3.9-.9-1.8-1.8-3.7-2.9-5.4-1.3-2-2.7-2.2-4.6-1.1-.7.4-1.4.9-2.1,1.4-3.1,2.3-6.1,4.7-9.6,7.3Z"/>
  <path class="st5" d="M497.7,2452c0,1.9-.8,3.5-1.6,5.1-5.2,11.2-12.9,20.4-22.7,27.8-10.8,8.1-22.9,13-36,15.5-6.2,1.2-12.5,1.8-18.8,1.6-14.2-.6-27.8-3.7-40.4-10.3-6.7-3.5-12.8-7.8-18.3-13-7.4-7.1-13.1-15.5-16.9-25.1-.1-.3-.2-.7-.3-1.3.9-4.5.7-8.9.8-13.2,0-6.8,0-13.7.4-20.8,3.4,3.7,7,7.3,10.5,11,5.2,5.3,11,9.8,17.1,13.9,2.5,1.7,5.1,3.3,7.6,4.9,4.9,3,10.2,5.5,15.5,7.6,4.7,1.8,9.6,3.3,14.4,4.8,4,1.2,8.2,1.9,12.4,2.6,2.5.4,5,.5,7.5.9,2.4.4,4.8.6,7.2.5,5.5-.2,11.1.3,16.6-.6,4.1-.6,8.4-.9,12.5-1.6,8.1-1.5,15.9-3.7,23.5-6.8,2.9-1.2,5.8-2.2,8.8-3.4,0,0,0,0,0,0Z"/>
  <path class="st43" d="M497.6,2451.6c-2.9,1.5-5.9,2.5-8.7,3.7-7.6,3.2-15.5,5.4-23.5,6.8-4.1.7-8.4,1-12.5,1.6-5.6.9-11.1.4-16.6.6-2.4,0-4.8-.1-7.2-.5-2.5-.4-5-.5-7.5-.9-4.2-.6-8.3-1.3-12.4-2.6-4.8-1.5-9.7-3-14.4-4.8-5.4-2.1-10.6-4.6-15.5-7.6-2.6-1.6-5.1-3.2-7.6-4.9-6.1-4.1-11.9-8.6-17.1-13.9-3.5-3.6-7.1-7.3-10.4-11.3-.5-1.8-.8-3.5-1-5.5.6,0,1.4.2,1.9.7,1.3,1.1,2.5,2.3,3.6,3.6,5.2,5.5,11.4,9.6,17.8,13.6,6.5,4.1,13.4,7.3,20.5,9.8,4.6,1.6,9.5,2.8,14.3,3.9,3.7.8,7.6,1.2,11.4,1.7,2.9.4,5.8.4,8.6.6,3.7.3,7.2-.5,10.8-.9,4.6-.5,9.3-1.3,13.8-2.6,5-1.4,9.9-3,14.7-5.1,6.7-3,13.3-6.4,19.3-10.6,3.2-2.3,6.5-4.5,9.5-7.2,2.3-2.1,4.7-4.1,7.1-6.6.6,0,.9.3,1.2.5,0,1.2,0,2.5-.1,4.2-.5,1.4-.6,2.3.1,3,0,4.1,0,8.3-.1,12.9-.5,1.4-.6,2.3.1,3.1,0,4.9,0,9.7.2,14.9Z"/>
  <path class="st35" d="M664.1,2386c.9-7.2.7-14.1.8-21,0-5.3,0-10.7-.3-16-.2-3.9-.7-7.7-1-11.5-.3-3-.6-6-1-9-1-7.6-2.3-15-4.2-22.4-1.4-5.4-2.8-10.8-4.1-16.2-.3-1.4-.4-2.9-.4-4.3,0-1.4.9-2.5,2.4-2.8,1.8-.4,3.4,0,4.2,1.4.7,1.2,1.4,2.6,1.8,4,3,10.1,5.4,20.3,7.3,30.7,1.1,5.9,1.6,12,2.4,18,1.7,13.4,1.8,26.8,1.4,40.2-.2,4.7-.7,9.4-1.2,14.1-.5,4.4-1,8.9-1.6,13.3-1,8.2-2.7,16.2-4.8,24.2-2.8,11-6.3,21.8-10.5,32.4-4.1,10.3-8.9,20.4-14.6,30-1.1,1.9-2.2,3.8-3.2,5.7-.6,1.1-1.5,1.9-2.7,2.2-1.6.5-3.1.2-4.3-1.1-1.1-1.2-1.3-2.6-.8-4,.3-.9.8-1.7,1.3-2.6,3.3-5.9,6.7-11.8,9.8-17.8,3.5-6.8,6.2-13.9,8.9-21,4.4-11.5,7.7-23.4,10.4-35.5,1.2-5.5,2.3-11.1,2.8-16.8.4-4.6.9-9.1,1.4-14Z"/>
  <path class="st48" d="M149,2486.1c-2.7-6.6-5.5-12.9-7.9-19.4-3.2-8.6-5.7-17.4-8-26.3-2.2-8.7-4.2-17.4-5.7-26.2-1.5-8.9-3.1-17.9-3.3-27-.1-4.5-.7-8.9-.9-13.4-.2-2.8,0-5.6,0-8.3,0-.7.2-1.4.4-2.1.5-1.7,1.6-2.6,3.4-2.8,1.8-.2,3.1.5,3.8,2.1.4.8.6,1.6.7,2.4.1.8,0,1.7,0,2.5-.1,7.1.5,14.2,1.3,21.3.6,5.2,1,10.3,1.7,15.5.6,4.7,1.5,9.3,2.4,13.9,2.1,11.3,4.9,22.4,8.4,33.4,2.7,8.4,5.5,16.7,9,24.9,4.6,10.8,9.6,21.4,15.5,31.6,2.5,4.4,5.2,8.7,7.8,13.1.4.7.9,1.5,1.2,2.2.8,1.9.2,4-1.4,5.1-1.6,1.1-4.4.7-5.6-.9-1.6-2.2-3.2-4.6-4.6-7-6.6-11.2-12.4-22.7-18.1-34.7Z"/>
  <path class="st9" d="M715,2400.8c-1.5,13.1-4,25.6-7.1,38-3.4,13.4-7.6,26.5-12.9,39.2-3.1,7.4-6.2,14.7-10,21.7-4.5,8.3-9.2,16.5-13.8,24.7-.7,1.3-1.6,2.4-2.5,3.5-1.3,1.6-3.3,1.8-5.3.7-1.7-.9-2.5-2.9-1.9-4.6.5-1.5,1.3-2.9,2.1-4.2,6.3-9.6,11.7-19.7,16.8-30,6.1-12.4,11-25.3,15.1-38.4,4.7-15,8.3-30.3,10.6-45.9,1-6.9,1.9-13.9,2.3-20.9.4-6.5.7-13,1.1-19.5,0-.6,0-1.2.2-1.8.4-1.6,1.7-2.6,3.4-2.7,1.6-.1,3,.6,3.5,2,.4,1.1.7,2.3.7,3.5,0,3.3-.2,6.5-.3,9.8,0,1.5,0,2.9-.2,4.4-.4,5.3-.9,10.6-1.4,15.9-.1,1.4-.3,2.9-.6,4.6Z"/>
  <path class="st16" d="M197,2466.3c3.7,8.1,7.6,15.7,12.1,23,.6,1,1.2,2.1,1.7,3.2.3.6.5,1.4.6,2.1.2,2.1-.6,3.5-2.3,4.1-1.9.7-3.6.6-5-.9-.6-.6-1.1-1.3-1.5-2-1.6-2.7-3.3-5.4-4.7-8.2-3.8-7.6-7.8-15.1-11-22.9-7.3-17.6-12.9-35.7-16-54.5-1.2-7.3-2.2-14.6-2.9-21.9-.6-5.6-.8-11.3-.9-17-.1-5.6,0-11.1,0-16.7,0-2.7.4-5.3.6-7.9,0-.4,0-.7.2-1.1.6-2.4,2.3-3.8,4.3-3.6,2,.2,3.6,2,3.7,4.3,0,2.4,0,4.8-.3,7.2-.6,6.6-.5,13.3-.1,19.9,0,1.3.2,2.7.2,4,.1,7.6,1,15.2,2.1,22.7,2.2,14.9,5.4,29.5,10.4,43.7,2.6,7.5,5.8,14.9,8.8,22.5Z"/>
  <path class="st30" d="M241,2117c6.5-5.2,13.2-9.9,19.9-14.4,7.4-5,15.2-9.3,23.1-13.6,10.7-5.8,21.8-10.5,33.1-14.8,1-.4,2-.8,3.1-1,2.1-.5,3.9.5,4.7,2.4.8,1.9.2,4-1.5,5.1-.9.6-1.9,1-3,1.3-7.6,2.6-14.8,5.9-22,9.3-12.4,5.9-24.2,12.7-35.6,20.3-7.6,5.1-14.9,10.7-22.1,16.5-6.7,5.4-13,11.2-19,17.3-.8.9-1.7,1.8-2.7,2.5-1.1.8-2.4,1.3-3.8.9-2.3-.5-3.7-3.2-2.8-5.4.4-1,1.1-1.9,1.8-2.7,3.9-3.8,7.8-7.6,11.8-11.2,3.8-3.4,7.7-6.7,11.5-10,1-.9,2.1-1.7,3.3-2.6Z"/>
  <path class="st3" d="M309.4,2272.6c0-1,.1-2-.2-2.8-.6-1.9-.6-3.8-.5-5.7,0-1.7-.3-3.3-1.2-5-1.9-.5-3.9-.4-5.9,0-.8.2-1.6.3-2.8.4-.8-2.9-1.2-5.9-1.9-8.8-1.3-5.2-1.6-10.4-1.5-15.6,0-1.1,0-2.2.4-3.6,2.6-.5,4.5.6,6.6,1.1,4.3,1,8.6,1.9,13,2.9,3.7.8,7.5,1.8,11.4,1.6.2,2.2-.6,4.3-1.4,6.3-1.2,2.9-2.2,5.9-3.3,8.8-.9,2.2-1.2,4.4-1.1,6.7,0,10.2,0,20.3,0,30.5,0,1.3.3,2.7-.5,4.1-2.8-.3-5.1-1.8-8-3-1.2-2.7-1.6-5.1-1.6-7.7,0-3-.5-5.9-.9-8.9,0-.5-.4-.9-.6-1.3Z"/>
  <path class="st49" d="M528.8,2290.7c-2,.8-4,1.6-6,2.3-.6.2-1.3.4-1.8.5-1.1-.9-.8-1.9-.8-2.8,0-6.3,0-12.5,0-18.8s0-7,0-10.5c.1-3.1-.5-6-1.5-8.8-1.5-4.4-3.1-8.8-4.7-13.3-.2-.6-.3-1.2,0-2,2.1-.4,4-.2,5.7-.5,4.5-.9,8.9-1.9,13.3-3,3-.7,6-1.7,9-2.3,0,1,0,1.7,0,2.4,0,1.4.7,2.2,2.2,2.3.3,3.5-.3,6.9-.8,10.3-.5,3.3-1,6.6-1.5,9.9,0,.6-.3,1.2-.5,2-1.7.2-3.4.4-5-.3-.5-.2-1.2-.1-1.8-.1-.9,0-1.6.5-1.8,1.4-.4,1.9-1,3.7-.9,5.6.2,2.3,0,4.5-.7,7.4,0,1.7-.1,2.8-.2,3.8-.1,1.4-.4,2.8-.5,4.2-.3,3.4-.7,6.8-1.5,10.1Z"/>
  <path class="st10" d="M518.9,2073.1c1.4.2,2.7.3,3.8.7,12.5,4.7,24.6,10.1,36.3,16.5,8.8,4.8,17.5,9.9,25.7,15.6,5.6,3.8,10.9,8.1,16.3,12.2,2,1.5,3.9,3.2,5.9,4.8,1.3,1.1,1.9,2.4,1.9,4.1,0,2.9-2.6,4.7-5.3,3.5-1.3-.6-2.6-1.4-3.6-2.3-5.3-4.8-11.3-8.7-17-13-10-7.4-20.8-13.8-31.8-19.5-9.9-5.1-19.9-9.9-30.5-13.4-.8-.3-1.6-.6-2.3-1-1.7-.9-2.7-2.4-2.5-4.4.2-1.9,1.1-3.2,3.2-3.7Z"/>
  <path class="st24" d="M478.6,2068.3c-.4,2.2-1,4.1-1.5,6.1-1.2,4.8-2.4,9.6-3.6,14.3-1.8,7.3-3.6,14.7-5.4,22.1-1.4,5.6-2.8,11.2-4.1,16.8-1,4.1-1.8,8.2-2.8,12.3-.7,2.7-1.5,5.3-2.3,8-.1.5-.4.9-.7,1.3-.4.6-1.5.8-2.3.4-.7-.3-1-.9-.9-1.8.4-3.1.7-6.2,1.2-9.3.6-4.2,1.3-8.3,1.9-12.4.4-2.6.6-5.2.9-7.9.2-1.9.5-3.8.8-5.7.4-2.4.9-4.7,1.2-7.1.4-2.7.6-5.5.9-8.2.3-2.4.6-4.8.9-7.1.4-2.8.8-5.7,1.3-8.5.6-3.8,1.2-7.6,1.7-11.4.1-.9.3-1.9.4-2.8.2-1.2.5-2.4.7-3.8,4,1,7.8,2.6,11.5,4.9Z"/>
  <path class="st8" d="M374.5,2063.4c.3,1.4.4,2.8.3,4.3-.1,3.2.7,6.2,1.1,9.3.3,2.6.7,5.2,1.2,7.8.4,2.5.9,5,1.3,7.5.3,2,.6,4,.9,6.1.5,4.2,1,8.3,1.6,12.5.4,2.7,1,5.4,1.3,8.2.2,2.2.4,4.3.8,6.4.7,4.4,1.4,8.8,2,13.2.4,3.2.7,6.4.9,9.7,0,1-.7,1.6-1.6,1.4-.3,0-.7-.2-1-.4-.3-.3-.6-.8-.7-1.2-.9-3.1-1.9-6.2-2.5-9.4-.4-2.2-1.1-4.4-1.6-6.6-1.8-7.5-3.8-14.9-6-22.3-.7-2.3-.9-4.7-1.6-7-1.3-4.4-2.1-8.9-3.1-13.3-1.5-6.1-3-12.1-4.5-18.2-.1-.6-.4-1.1-.6-2.2,0-.7,0-1,0-1.2,2.9-1.7,6.1-2.8,9.3-3.7.8-.2,1.6-.4,2.7-.7Z"/>
  <path class="st31" d="M116.7,2319.2c-1.8-3.9-2.3-7.6-1.2-11.5,1.9-6.9,8.4-12.1,15.9-11.9,6.9.1,13.1,4.2,15.3,10.8,2.9,9-1.8,18.3-10.9,21-7.6,2.3-15-.9-19.1-8.4M136.9,2306c-.7-.5-1.4-1-2.1-1.4-2.6-1.5-5.1-1.2-7.6.3-3.4,2-4.3,5-3.8,8.7.4,3.3,2.7,5.5,6.1,6.3,2.9.7,7.1-.5,8.6-3.1,1.9-3.2,1.7-7-1.2-10.8Z"/>
  <path class="st11" d="M693.3,2300.7c.9-3.5,2.3-6.4,4.7-8.8,6-5.9,15.2-6.3,21.7-.8,4.8,4.1,6.7,9.4,5.5,15.6-1.3,6.5-5.3,10.6-11.7,12.4-8.2,2.4-17.9-2.6-20.1-12.4-.4-1.8-.1-3.8,0-6.1M706.5,2295.7c-.3.1-.7.2-1,.4-3.2,1.7-4.9,4.8-4.4,8.3.5,3.6,2.5,5.9,5.9,7,3,1,7.3-.4,9.1-3,2-2.8,2.1-7.1,0-9.8-2.3-2.9-5.3-4-9.5-3Z"/>
  <path class="st27" d="M270,2161.2c-4.5,4-9,7.7-13.2,11.7-4.4,4.1-8.6,8.5-12.8,12.8-1.4,1.5-2.7,3.1-4.1,4.6-1,1.2-2.1,2.3-3.8,2.7-1.6.4-2.9-.2-3.9-1.3-.9-1.1-1.3-2.3-.6-3.7.4-.9.8-1.8,1.5-2.5,3.7-4.1,7.4-8.3,11.2-12.3,2.2-2.3,4.5-4.4,6.7-6.6,8.5-8.3,18-15.4,27.7-22.3.8-.6,1.6-1.1,2.5-1.5,2.9-1.1,5.7.7,5.6,3.7,0,.8-.4,1.7-.8,2.3-.5.8-1.3,1.4-2.1,2-4.5,3.4-9.1,6.8-13.8,10.4Z"/>
  <path class="st38" d="M327.1,2236.9c-4.1.4-7.8-.5-11.6-1.4-4.3-1-8.6-1.9-13-2.9-2.1-.5-4-1.6-6.6-1.4-.7-3.1,0-6.1.9-9.4,3.5.4,6.8,1,10.1,1.5,4.3.7,8.7,1.4,13,2.1,2.3.4,4.7.8,7.3,1.3.2,3.4,0,6.6-.2,10.1Z"/>
  <path class="st47" d="M541.9,2231.2c-3,.9-6,1.8-9,2.5-4.4,1.1-8.8,2.1-13.3,3-1.7.3-3.6.2-5.7.3-1-3.2-1.3-6.3-.4-9.7.8-.5,1.6-1,2.4-1.1,6.7-.8,13.3-2.1,19.9-3.5,2.1-.4,4.3-.7,6.7-1,.4.5.5,1.1.5,2-1,1.4-1,1.4.6,1.6.2,1.5.4,3,.3,4.9-.8.6-1.4.8-1.9,1.1Z"/>
  <path class="st0" d="M566.6,2147.6c3.7,2.8,7.2,5.4,10.6,8,2,1.6,3.9,3.2,5.8,4.9.5.5.9,1.1,1.2,1.8.7,1.7.3,3.6-1.2,4.9-1.1,1-2.5.9-3.8.4-1.3-.6-2.6-1.4-3.7-2.3-6.2-5-12.3-10.2-18.9-14.6-2.2-1.5-2.9-3.4-2.5-5.9.2-1.2.9-2,2.1-2.2,1.6-.3,3.1-.1,4.5.9,1.9,1.3,3.7,2.7,5.8,4.1Z"/>
  <path class="st3" d="M541.9,2231.5c.6-.5,1.1-.8,1.9-1.1.3,1.7.3,3.4.3,5.5-1.5.2-2.2-.6-2.2-2,0-.7,0-1.4,0-2.4Z"/>
  <path class="st5" d="M497.5,2413.3c-.4,0-.7-.1-1.2-.4-.1-.7,0-1.3,1-1.5.2.5.3,1.1.2,1.9Z"/>
  <path class="st5" d="M497.5,2420.5c-.8-.5-.7-1.4-.2-2.4.2.6.2,1.4.2,2.4Z"/>
  <path class="st5" d="M497.5,2436.5c-.8-.5-.7-1.4-.2-2.4.2.6.2,1.4.2,2.4Z"/>
  <path class="st3" d="M543.5,2225c-1.5,0-1.6,0-.6-1.1.3.2.5.6.6,1.1Z"/>
  <path class="st55" d="M362.3,2067.8c.2.2.1.5,0,.9-.4.2-.7.2-1.3.2.2-.4.6-.8,1.2-1.1Z"/>
  <path class="st39" d="M460.9,2253.2c-3.9.5-7.4,1.5-11.1,1.3-3.1-.2-5.7-3.1-5.2-6.1.4-2.3,1.4-4.4,3.6-5.6,1.9-1,3.9-1.9,6-2.5,2.2-.6,4.5-.8,6.8-1.1,2.5-.3,5-.5,7.5-.7,3.9-.2,7.7.5,11.4,1.4,5.8,1.5,11,4.3,15.7,8,1.6,1.3,2.8,3,3.6,4.9.8,1.9.5,3.6-.8,5.1-1.2,1.3-2.9,1.7-4.6,1-2.5-1-5-1.8-7.4-2.8-5.1-2.2-10.3-3.2-15.8-3.1-3.1,0-6.3.1-9.7.3Z"/>
  <path class="st39" d="M365.9,2239c3.4-.9,6.6-.6,9.7-.5,3.1.2,6.2.8,9.3,1.4,1.8.3,3.5,1,5.2,1.5,1.4.5,2.5,1.4,3.6,2.3,2.2,1.8,2.5,4.1,2.1,6.5-.5,2.9-3.5,5-6.4,4.5-3.6-.6-7.1-1.4-10.7-1.7-7.1-.5-14.3-.6-21.2,1.6-2.5.8-4.9,2-7.4,2.9-1.2.5-2.5.9-3.8,1.2-2.5.6-4.6-.6-5.3-3-.2-.5,0-1.2.1-1.7.9-2.4,2.2-4.5,4.2-6.2,4.7-3.9,9.9-6.9,15.9-8.2,1.4-.3,2.8-.4,4.6-.7Z"/>
  <path class="st12" d="M431.1,2273.2c1.5,6.5,2.9,12.7,4.4,18.9,1.5,6.6,3.2,13.1,4.6,19.7.8,3.6,1.1,7.4,1,11.1,0,2.2-.8,4.1-2.1,5.7-3.4,4.3-7.9,7.3-13.2,8.4-3.3.7-7,.8-10.4-.4-3.8-1.4-7.6-2.9-11.5-4.4-2.5-.9-4-2.6-4.1-5.4.7-1.3,1.7-1.9,3.2-1.9,2,0,3.9.2,5.9,1.3,3.5,2,7.4,2.8,11.3,3.7.5.1,1,.1,1.4,0,3.4-.8,6.8-1.6,9.7-3.8,2-1.6,3.3-3.4,3.2-6.2,0-1.6-.2-3.1-.6-4.6-1.5-6.6-2.9-13.1-4.2-19.7-.9-4.7-1.7-9.5-2.5-14.2-.4-2.1-.9-4.2-1.2-6.4-.2-.9-.3-2,0-2.9.3-1.7,1.2-2.9,3.1-2.9,1.3.9,1.7,2.3,2.2,4Z"/>
  <path class="st13" d="M309.1,2272.6c.5.5.8.9.8,1.3.3,3,.8,5.9.9,8.9,0,2.5.4,5,1.4,7.6.1,5.6.1,10.9.2,16.2,0,2,0,4.1.5,6.1.4,1.2.3,2.6-.2,4-4.5-1.3-8.2-3.7-11-7.4-3-4-4.9-8.5-5.4-13.6-.2-1.7-.6-3.3-.6-5-.2-4.3.9-8.4,2.5-12.3,1-2.3,2.3-4.5,4.8-5.7,2-1,3.8-1.3,6.1-.3Z"/>
  <path class="st54" d="M528.8,2291.1c.7-3.7,1.2-7,1.5-10.5.1-1.4.4-2.8.5-4.2.1-1.1.1-2.1.2-3.5,1.6-.5,3-1.3,4.6-.8,2.4.6,4.1,2,5.4,4,2.3,3.7,3.4,7.7,3.7,11.9.4,5-.3,9.8-2.1,14.5-2.3,6-6.1,10.6-12.1,13.1-.6.3-1.3.3-2.2.4-.1-1-.3-1.9-.3-2.7,0-4.8,0-9.7,0-14.5,0-.8,0-1.7.2-2.5.6-1.7.4-3.3.5-5.3Z"/>
  <path class="st44" d="M455,2354.9c1-.5,1.8-.9,2.5-1.2,1-.5,1.9-.4,2.7.4.8.7,1.2,1.6,1,2.6-.3,1.3-.9,2.4-2.2,3.2-3.5,2.2-7.2,4-11.1,5.2-4.2,1.2-8.3,2.4-12.6,3.2-3.1.6-6.2.8-9.3.9-4,.1-8,.2-12,0-10.5-.5-20.5-2.7-30-7.3-.9-.4-1.7-.9-2.4-1.5-1.2-1.1-1.6-2.6-1-3.5.8-1.2,1.9-1.7,3.5-1.3,1.5.4,3,1,4.4,1.6,4.6,2.1,9.6,3.2,14.5,4.2,7,1.4,14.1,1.4,21.3,1.4,3.9,0,7.7-.6,11.5-1.2,3-.5,5.9-1.1,8.8-2,3.6-1.1,7-2.7,10.5-4.6Z"/>
  <path class="st6" d="M460.5,2414.3c.6,1.1.7,2,.3,3-.8,2-2.1,3.6-3.3,5.1-4.8,5.9-10.5,10.6-18.2,12.4-4.1,1-8.2,2-12.4,2-.7,0-1.4.3-2.1.4-2.5.4-5,.4-7.6,0-.9-.2-1.9-.4-2.8-.4-4.9,0-9.6-1.1-14.1-2.6-8.1-2.7-14.2-8-18.6-15.2-.7-1.2-1.1-2.4-.8-3.8.2-1,.9-1.7,1.9-2.1,1.5.2,2.6.9,3.3,2.4,1.3,2.6,3.1,4.9,5.3,6.9,3.5,3.1,7.3,5.4,11.9,6.6,1.9.5,3.7,1.2,5.6,1.5,2.7.5,5.4,1,8.2,1.2,2.5.2,5.1.3,7.6,0,5.6-.7,11.3-1,16.5-3.5,3.4-1.6,6.6-3.4,9.3-6.1,2.2-2.2,4.5-4.4,6-7.2.2-.4.6-.8.9-1.1,1.1-1.1,1.7-1,3.4.6Z"/>
  <path class="st26" d="M460,2278.7c-.5-3.7-.1-7,1.5-10.2,1.1-2.3,2.8-3.8,5-5,2.4-1.3,4.6-1.1,6.8.3,2.2,1.4,3.8,3.3,4.8,5.7,1.8,4.6,1.5,9.2-.6,13.7-.6,1.3-1.6,2.4-2.6,3.4-3.6,3.5-8.5,2.3-11.1-.3-1.3-1.3-2.2-2.8-2.9-4.6-.3-.9-.5-1.8-.9-3.1Z"/>
  <path class="st26" d="M375.3,2264c3.8,2.8,5.4,6.4,5.5,10.7,0,3.1-.2,6.1-1.8,8.7-1.6,2.7-3.7,4.8-7,5.1-3.3.3-5.9-1-7.8-3.6-.4-.6-.8-1.2-1.1-1.9-1.9-4.4-2.1-8.9-.5-13.4.5-1.3,1.3-2.6,2.2-3.7,3-3.6,5.8-4.1,10.5-2Z"/>
  <path class="st23" d="M478.7,2360.7c0,2.2,0,4,0,5.8,0,1.3-.4,2.4-1.1,3.4-.6.8-1.7,1-2.6.3-.9-.7-1.4-1.6-1.4-2.8,0-2.2,0-4.4,0-6.5,0-3.8-1.3-7.1-3.6-10-2.3-2.8-4.8-5.5-7.3-8.1-2.4-2.5-4.1-5.4-5.8-8.3-.3-.5-.5-1.1-.7-1.7-.2-.9,0-1.7.7-2.3.7-.6,2-.6,2.7,0,.6.5,1.2,1.2,1.6,1.9,2.5,3.7,5.3,7.2,8.6,10.3,2.5,2.3,4.3,5.2,6.1,8.1,1.8,2.9,2.5,6.2,2.7,10Z"/>
  <path class="st21" d="M379.2,2332.9c.8-.9,1.4-1.7,2.1-2.3.7-.6,1.6-.6,2.3,0,.8.6,1.5,1.3,1.3,2.4-.1.6-.4,1.2-.7,1.7-2.4,3.6-4.7,7.2-7.8,10.3-2.1,2.1-4.1,4.4-6,6.8-1.7,2.2-2.7,4.8-2.8,7.7-.1,3.1-1,6.2-.8,9.3,0,.9-.5,1.6-1.4,1.8-.8.2-1.4-.2-1.9-.7-.2-.3-.6-.5-.6-.9-.2-2.2-1.4-4.4-.8-6.7.3-1.1.3-2.4.5-3.6.4-3.5,1.4-6.9,3.4-9.8,1.5-2.2,3.3-4.1,5.1-6,2.9-3.1,5.6-6.3,8.1-10Z"/>
  <path class="st1" d="M380.8,2302.6c-4.9,2.3-9.7,3.5-14.9,3.4-1.8,0-3.6,0-5.4,0-.9,0-1.9-.2-2.8-.6-1.4-.6-1.9-1.5-1.7-2.8.2-1.1.9-1.6,2.5-1.6,2.4,0,4.8,0,7.2,0,6.4.3,12-2.1,17.1-5.7,1.7-1.2,3.2-2.6,4.7-3.9,2.1-1.9,2.5-1.8,4.5.7-.2,1.4-1.1,2.3-1.9,3.3-2.6,2.9-5.8,5.1-9.3,7.2Z"/>
  <path class="st32" d="M456.7,2294.6c3.8,3.1,8,4.9,12.5,5.9,1,.2,2.1.4,3.2.4,2.5,0,5.1,0,7.6,0,.7,0,1.5,0,2.2,0,1.2.2,2.3,1.5,2.2,2.5,0,.9-1,2-2.1,2.3-.6.1-1.2.2-1.8.2-2.1,0-4.1,0-6.2,0-7.1,0-13.4-2.4-19.1-6.5-1.8-1.2-3.4-2.7-4.9-4.2-.8-.8-1.4-1.9-2.2-3,.4-.6.7-1.2,1.1-1.5,1.1-1,1.8-1,2.9-.1,1.5,1.2,2.9,2.5,4.6,3.9Z"/>
  <path class="st51" d="M427.2,2380.2c1.7-.4,3.1-.7,4.5-1,.8-.2,1.6-.4,2.4-.5.9,0,1.7.2,2.1,1.1.4.9.4,1.9-.3,2.7-.5.5-1.1,1-1.7,1.3-1.5.7-3.1,1.5-4.7,1.9-2.6.5-5.1,1.2-7.8,1-3.2-.2-6.5.2-9.7-.8-1.8-.5-3.7-1-5.5-1.7-.7-.3-1.2-1.1-1.7-1.5.1-1.4.7-2.2,1.8-2.8,1-.5,1.8-.3,2.8,0,5.1,1.2,10.3,1.1,15.5,1,.7,0,1.4-.3,2.4-.6Z"/>
  <path class="st45" d="M343.4,2288.3c-2.1.8-3.9,1.4-5.7,2.1-.9.3-1.7.3-2.3-.5-.7-.8-.6-2.2.1-3,.4-.4.8-1,1.4-1.1,3.4-1.2,6.8-2.4,10.4-2.3.8,2.1.8,2.8-.6,3.5-1,.5-2,.8-3.3,1.3Z"/>
  <path class="st20" d="M502.2,2285.2c1,.5,1.7.9,2.4,1.4.4.3.7.7.8,1.2.2.8.2,1.7-.4,2.3-.6.6-1.2.7-2,.4-1.2-.4-2.5-.8-3.7-1.3-1.8-.7-3.6-1.4-5.3-2.2-1.1-.5-1.6-1.4-1.3-2.3.3-.9,1.1-1.4,2.3-1.3.6,0,1.2.2,1.8.3,1.7.4,3.5.8,5.5,1.4Z"/>
  <path class="st7" d="M335,2275.6c1.4-1.3,2.9-1,4.2-.7,2.2.5,4.4,1.3,6.5,1.9.3.1.7.2,1,.4.7.4,1.1,1,1,1.8-.1.8-.7,1.4-1.4,1.5-1.7,0-3.4.2-5,0-1.4-.2-2.8-.8-4.2-1.1-1.9-.4-2.6-1.5-2.2-3.7Z"/>
  <path class="st17" d="M502.2,2279.6c-2.6.6-5,1.2-7.4.9-.5,0-1.1-.4-1.4-.9-.4-.7-.1-2,.6-2.2,3.4-1.2,6.7-2.6,10.4-2.6.2,0,.5.1.7.2.7.2,1.1,1,.8,1.8-.4,1-.9,2-2.1,2.3-.5.1-.9.3-1.7.5Z"/>
  <path class="st41" d="M394.5,2197.8c-1.9,0-3.5,0-5,.5-.9.3-1.9.2-2.9.2-2.4,0-4.8,0-7.3,0-1.1,0-2.1.2-3.2.4-.5,0-.9.3-1.4.3-3.4,0-6.7.3-10.1.7-4.2.4-8.4.8-12.5,1.4-4.3.7-8.6,1-12.9,1.6-3.2.5-6.4,1.2-9.6,1.8-3.3.6-6.6,1.2-9.9,1.7-1.3.2-2.7,0-4,0-1.1,0-1.8-.8-1.9-1.9-.1-1.1.3-2,1.4-2.3,3.1-1,6.2-2.1,9.3-2.9,4-1,8-1.8,12-2.5,4-.8,8-1.7,12.1-2.1,2-.2,4-.7,6-1.1.7-.1,1.4-.2,2.1-.3,3-.4,5.9-.8,8.9-1.2.2,0,.5-.1.7-.2,3.6-.3,7.2-.6,10.8-.8,1.6-.1,3.1.1,4.7-.5.3-.1.7-.1,1.1-.2,5.4-.3,10.8-.5,16.3-.8,2.3,0,4.6,0,6.9,0,1.3,0,2.6-.3,3.9-.4,1.1-.1,2.2-.2,3.2-.2,5.8,0,11.6,0,17.4,0,2.3,0,4.5,0,6.8.5,1.7.4,3.6.1,5.4.2,3.1.1,6.3-.3,9.4.6,1.1.3,2.4,0,3.6.1,2,0,4.1-.2,6.1.6.8.3,1.7.1,2.5.2,1.8,0,3.6-.2,5.4.6.3.1.7,0,1.1.1,3.2.3,6.5.5,9.7.8,1,0,1.9.5,2.8.6,4.5.7,9,1.3,13.5,2,6.3,1.1,12.5,2.5,18.7,3.9,2.6.6,5.1,1.4,7.7,2.2,1.3.4,2.5,1,3.3,2.1.7.8.6,2-.3,2.6-1.1.8-2.2,1.2-3.7.8-4.8-1.2-9.6-2.5-14.5-3.1-4.3-.5-8.5-1.7-12.9-1.7-1.4,0-2.8-.5-4.3-.7-3.2-.5-6.4-.9-9.6-1.3-1-.1-1.9-.1-2.9-.1-1.7,0-3.4.1-5-.6-.3-.1-.7-.1-1.1-.1-5.5-.3-11.1-.5-16.6-.8-1.1,0-2.2-.2-3.2-.3-1.3-.1-2.6-.4-3.9-.4-4.6,0-9.2,0-13.8,0-2.5,0-5-.2-7.6-.5-3.8-.4-7.7-.6-11.6.2-1,.2-2.2.3-3.2.3-5.9,0-11.9,0-18.1,0Z"/>
  <path class="st15" d="M611.9,2329.6c-2.9,6-5.7,11.8-8.5,17.5-1.1,2.3-2.3,4.5-3.6,6.9-5.6-3.1-11.2-5.4-16.6-8.6.5-1.1.8-2,1.3-2.8,15.4-30.4,30.7-60.9,46.1-91.3,0-.2.4-.3.6-.4,3.1.9,12.5,5.6,15.2,7.7-1.5,3.1-2.9,6.3-4.4,9.5-4.6,9.5-9.2,18.9-13.9,28.4-5.4,11-10.7,22-16.2,33.2Z"/>
  <path class="st46" d="M205.6,2337.3c-1.5-.8-2.7-1.5-4-2.2-1.1-.5-2.2-.9-3.5-1.5.3-.9.6-1.5.9-2.1.8-1.6,1.6-3.2,2.5-4.9,1.6-3.1.3-5.4-2.3-6.5-1.2-.5-2.5-1-3.7-1.5-.6-.3-1.3-.6-2.1-1,.5-1.9,1.6-3.4,2.4-5,.5-1,1-1.9,1.3-3,.6-2.1.1-3.2-1.7-4.3-1.5-.8-3-1.5-4.5-2.3-.6-.3-1.2-.7-2.1-1.1.8-1.5,1.5-2.9,2.1-4.3.6-1.3,1.2-2.7,1.5-4.1.4-1.8-.3-3.4-2-4.3-2-1-4.1-2-6.3-3,.3-1.8,1.3-3.1,2-4.6.5-1.2,1.2-2.4,1.6-3.6.6-2.1.1-3.2-1.7-4.3-1.6-1-3.4-1.8-5.1-2.7-.5-.3-1-.6-1.7-1,1.2-2.3,2.3-4.4,3.4-6.5.9-1.9.5-3.9-1.3-5.1-.7-.5-1.5-.8-2.2-1.2-1.5-.7-3-1.4-4.5-2.1-.3-1.5.5-2.5,1.1-3.5.7-1.3,1.4-2.5,1.9-3.9.9-2.4.3-3.9-2-5.1-1.1-.6-2.2-1-3.3-1.5-1-.5-1.9-1-3-1.5.3-.9.4-1.6.7-2.2.8-1.6,1.8-3.1,2.6-4.8,1.2-2.7.4-4.7-2.3-6-1.9-1-3.9-1.9-5.7-2.8-.3-1.5.7-2.2,1.1-3.2.8-1.6,1.7-3.2,2.3-4.9.9-2.5.2-3.9-2.1-5-1.5-.7-3.1-1.3-4.6-2-.5-.2-1-.6-1.6-1,.4-.9.7-1.6,1.1-2.4.7-1.5,1.6-3,2.3-4.5.9-2,.4-3.9-1.5-5-1.1-.7-2.4-1.2-3.6-1.7-1.1-.5-2.2-1-3.5-1.6.4-1.1.7-1.9,1.1-2.8.7-1.4,1.6-2.7,2.2-4.1,1.1-2.3.4-4.3-1.7-5.6-.9-.6-2-.9-2.9-1.4-1.1-.5-2.1-1-3.2-1.6,0-2.3.9-3.8,2.8-4.7,1-.5,1.9-1,2.9-1.4,9.3-3.8,18.6-7.7,27.8-11.5.8-.3,1.6-.6,2.5-.9.6.9,1.1,1.7,1.5,2.5,4.1,8.5,8.1,17,12.1,25.6,4.4,9.3,8.9,18.5,13.3,27.8,3.3,6.9,6.4,13.8,9.7,20.7,3.1,6.7,6.3,13.3,9.5,20,4.2,9,8.5,17.9,12.7,26.9,5,10.5,10,21,14.9,31.4,2.3,4.8,4.5,9.6,6.8,14.5,2.6,5.5,5.2,10.9,7.8,16.4.9,1.8,1.7,3.7,2.6,5.8-3.5,1.6-6.8,3-10.1,4.5-5.8,2.5-11.5,5-17.3,7.6-3.7,1.6-6.4,4.2-8.1,8-3.7,8.2-7.4,16.3-11.2,24.4-.5,1.2-1.1,2.4-1.6,3.5-2.7.2-7-.8-10.6-2.4,0-1.4.9-2.4,1.5-3.6.5-1.1,1.2-2.1,1.7-3.2,1-2.3.4-4.4-1.7-5.6-1-.6-2.2-1-3.3-1.4-1.1-.4-2.2-.9-3.5-1.4.4-.8.6-1.5.9-2.1.7-1.3,1.5-2.5,2.2-3.8,1.6-3.3.9-5.5-2.3-7.2-.9-.4-1.8-.8-2.6-1.2-.9-.4-1.7-.9-2.7-1.5.7-1.6,1.4-3.1,2.1-4.6.4-.9.9-1.7,1.3-2.6,1-2.3.3-4.3-1.9-5.5-1.3-.7-2.7-1.2-4-1.8-.7-.4-1.5-.8-2.4-1.3.6-1.3,1.2-2.5,1.7-3.7.6-1.2,1.1-2.4,1.7-3.6.6-1.5.4-2.8-1-4.2Z"/>
  <path class="st18" d="M267.9,2401.7c3.3-2.5,6.3-4.9,9.4-7.2.7-.5,1.4-1,2.1-1.4,2-1.1,3.3-.9,4.6,1.1,1.1,1.7,2,3.6,2.9,5.4.7,1.3,1.3,2.6,1.9,3.9,1,2.5.8,3.7-1.4,5.3-3.1,2.3-6.3,4.4-9.5,6.7-4.8,3.4-9.7,6.8-14.5,10.2-1.1.8-2.2,1.5-3.4,2.1-1.7.8-3.1.3-4.1-1.2-1.6-2.7-2.9-5.6-3.8-8.6-.6-2,.3-3.5,1.8-4.7,4.6-3.7,9.1-7.5,13.9-11.5Z"/>
  <path class="st52" d="M137.1,2306.2c2.7,3.7,3,7.4,1,10.6-1.6,2.6-5.7,3.9-8.6,3.1-3.4-.9-5.7-3.1-6.1-6.3-.5-3.7.5-6.7,3.8-8.7,2.5-1.5,5-1.8,7.6-.3.7.4,1.4.9,2.3,1.6Z"/>
  <path class="st36" d="M706.8,2295.7c3.9-.9,6.9.1,9.2,3.1,2.1,2.7,2,7,0,9.8-1.8,2.5-6.1,4-9.1,3-3.4-1.1-5.4-3.5-5.9-7-.4-3.5,1.2-6.6,4.4-8.3.3-.2.7-.3,1.3-.5Z"/>
</svg>