<?xml version="1.0" encoding="UTF-8"?>
<svg id="Layer_1" xmlns="http://www.w3.org/2000/svg" version="1.1" viewBox="0 0 745.3 745.3">
  <!-- Generator: Adobe Illustrator 29.0.1, SVG Export Plug-In . SVG Version: 2.1.0 Build 192)  -->
  <defs>
    <style>
      .st0 {
        fill: #183d74;
      }

      .st1 {
        fill: #f5792c;
      }

      .st2 {
        fill: #f0c840;
      }

      .st3 {
        fill: #d49a78;
      }

      .st4 {
        fill: #ec9c50;
      }

      .st5 {
        fill: #244771;
      }

      .st6 {
        fill: #4570a5;
      }

      .st7 {
        fill: #5d3f31;
      }

      .st8 {
        fill: #c37c5b;
      }
    </style>
  </defs>
  <path class="st0" d="M390.5,703c-39.9,2.4-80.8-2.8-119.6-15.4-100.7-32.5-180.1-111.2-213.3-211.5-21.6-65.2-21.9-139-.8-205.1,11-34.5,31.1-72.4,53.6-101.3,16.8-21.5,40.6-44.9,62.5-61.5,44.8-33.8,100.6-56.7,155.4-63.5,35.3-4.4,72.9-3.4,105.9,2.9,54,10.3,101.9,32.6,146.2,67.9,11.8,9.4,36.3,33.7,46.4,46,43.8,53.2,69.1,115.9,74.9,185.3,1.1,13.4.5,51-1.1,63.5-5.1,40.2-15.3,74.7-32.5,109.2-16,32.2-34.5,58.3-59.2,83.6-58.4,60-134.4,94.7-218.4,99.8h0ZM368.9,686c1.4,1.4,37.8-1.3,53.8-4,49.7-8.4,94.9-27.6,134.9-57.2,63.2-46.8,106.1-114.1,121.4-190.6,4.6-23,5.5-32.3,5.5-60.8,0-26.2-.3-31.1-3.3-50.2-13.5-86.3-64-164.2-137.9-212.9-40.7-26.8-88.1-43.6-139-49.3-13.5-1.5-54.7-1.3-68,.4-71,8.8-133,38.2-182.6,86.7-26.6,26-45.4,51.6-61.6,83.7-20.4,40.5-30.7,80-33.1,126.4-3,57.3,11.6,118.5,40,168.3,6.1,10.7,19.8,31.2,26.6,39.6,42,52.6,96.9,89.5,160.2,107.7,25,7.2,53.5,11.7,74.1,11.7,4.8,0,8.8.2,9.1.4h0Z"/>
  <path class="st5" d="M532.2,502.7c-.9.5-3.3.9-5.4.9-3.2,0-8.8-2-35.9-13-17.6-7.1-32.7-13.3-33.5-13.7-1.9-1.1-4.7-4.3-4.2-4.9.2-.2,0-.4-.3-.4-.8,0-1-1-1.1-4.5,0-3.1.2-4.2,3.4-11.9,3.3-8,4.1-10.1,3.9-10.1s.3-.8.8-1.8c.5-1,1.1-2.1,1.1-2.5s.7-2,1.3-3.5,1.2-3,1.2-3.3c0-.3.7-1.6,1.5-2.9.8-1.3,1.2-2.4,1-2.4s0-.8.7-1.8c.7-1,1-1.8.7-1.8s0-.8.7-1.8,1-1.8.7-1.8,0-.8.7-1.8,1-1.8.8-1.8,0-.7.5-1.6.9-1.8,1-2c.1-.7,3.4-9,3.8-9.8.3-.4.5-1.1.6-1.5,0-.4.6-2,1.3-3.5.6-1.5,1.2-3,1.2-3.3,0-.3.5-1.3,1.1-2.2s.9-1.6.6-1.6,0-.8.7-1.8,1-1.8.8-1.8,0-.7.5-1.6,1-2,1-2.4c.2-1.1,3.2-8.4,4.1-10.1.5-.8.9-1.9,1-2.3,0-.4.6-2,1.3-3.5.6-1.5,1.1-2.9,1.1-3.1s.5-1.2,1.1-2.2c.6-1,1-1.8.7-1.8s0-.8.7-1.8,1-1.8.7-1.8,0-.8.7-1.8,1-1.8.7-1.8,0-.8.7-1.8,1-1.8.8-1.8,0-.7.5-1.6c.5-.9.8-1.9.8-2.2,0-.3.2-.5.7-.5s.6-.2.4-.4c-.4-.4.5-3.2,3.4-10.1.6-1.4,1.1-2.8,1.1-3,0-.2.5-1.2,1.1-2.2.6-1,1-1.8.7-1.8s0-.9.8-1.9,1.4-2.8,1.6-3.8c.2-1.1.7-2.2,1.2-2.5.5-.3.6-.6.4-.6-.6,0,2.8-8.7,3.9-10,.4-.5.5-.9.3-.9s0-.7.4-1.6,1-2,1-2.4c.3-1.5,7-17.5,7.7-18.4.4-.5.5-.9.2-.9s-.1-.5.4-1.1.7-1.1.4-1.1,0-.8.7-1.8,1-1.8.8-1.8,0-.7.5-1.6,1-2,1-2.4c0-.4.7-2,1.3-3.6s1.2-3,1.2-3.1.5-1.2,1.1-2.4,1.1-2.4,1.1-2.7c0-.3.5-1.3,1.1-2.2s.9-1.6.7-1.6,0-.7.5-1.6.9-1.8,1-2,.5-1.1,1-2,.7-1.6.4-1.6,0-.8.7-1.8c.7-1,1-1.8.7-1.8s0-.8.7-1.8,1-1.8.7-1.8,0-.8.7-1.8,1-1.8.8-1.8,0-.7.5-1.6c.9-1.6,1-2.1,1.2-3.4,0-.4,1.3-1.9,2.7-3.5,2.5-2.6,2.9-2.8,7.3-2.9,4.8-.1,12.6,2.1,12.6,3.6s.3.5.6.3c.8-.5,6.7,1.8,6.7,2.6s.3.5.6.3c.5-.3,45,17.2,49.1,19.4,3.9,2,6.6,7.5,5.9,11.7-.3,1.8-14.3,37.3-17.8,45.2-.7,1.6-17.6,43.8-37.6,93.8-20.2,50.5-36.9,91.6-37.8,92.4-.8.9-2.2,2-3.1,2.5h0ZM519.4,494.5c3.1,1.4,6.4,2.5,7.2,2.5,1.9,0,4.6-2.2,5-4.2.2-.8.5-1.9.9-2.4.3-.5.6-1.2.7-1.6,0-.4.7-2,1.4-3.6.7-1.6,1.4-3.2,1.5-3.5,0-.3.2-.6.3-.7s.2-.8.4-1.5c.1-.7,1-2.7,1.8-4.5.9-1.8,1.5-3.4,1.5-3.7,0-.2.4-1.2,1.1-2.2.6-1,1-1.8.7-1.8s0-.5.4-1c.5-.6,1-1.6,1.1-2.4s.8-2.6,1.4-4.1c.6-1.5,1.1-2.9,1.1-3.1s.5-1.2,1.1-2.2c.6-1,1-1.8.8-1.8s0-.7.5-1.6,1-2,1-2.4c.2-1,4.7-12.1,5.2-13.1.2-.4.5-1.2.6-1.7,0-.5.8-2.2,1.6-3.8.8-1.6,1.3-2.9,1.1-2.9s0-.5.5-1.1.7-1.1.4-1.1,0-.8.7-1.8,1-1.8.7-1.8,0-.8.7-1.8,1-1.8.7-1.8,0-.8.7-1.8,1-1.8.8-1.8c-.5,0,3.8-10.2,4.8-11.4.4-.5.6-1,.3-1s0-.7.4-1.6,1-1.9,1-2.2c0-.3.2-.8.3-1.1,0-.3.1-.8,0-1.1s.3-.5.8-.5.6-.2.4-.5,0-1.2.6-2.2c.6-.9.9-1.7.7-1.7s0-.8.7-1.8,1-1.8.7-1.8,0-.8.7-1.8,1-1.8.8-1.8,0-.7.5-1.6,1-2,1-2.4c0-.4.7-2,1.3-3.6s1.2-2.9,1.1-2.9.3-.8.8-1.8c.5-1,1.1-2.1,1.1-2.4,0-.3.2-.8.3-1.1,0-.3.1-.8,0-1.1s.3-.5.7-.5.6-.3.4-.6c-.2-.3.3-2,1.2-3.8.8-1.8,1.6-3.8,1.8-4.6.2-.7.8-2.3,1.4-3.5.6-1.2,1-2.2,1-2.3,0-.1.4-1.2,1-2.4,1.1-2.1,2.1-4.7,2.1-5.5,0-.2.5-1.1,1.1-2s.9-1.6.7-1.6,0-.7.5-1.6.9-1.8,1-2c.2-1,1.4-4.3,2.8-7.3.8-1.8,1.5-3.6,1.6-4,0-.4.7-2,1.3-3.5.6-1.5,1.2-3,1.2-3.3,0-.3.5-1.3,1.1-2.2s.9-1.6.7-1.6,0-.7.5-1.6,1-2,1-2.4c.2-1.2,6.2-15.9,7.1-17.5.4-.8.8-1.6.9-1.8s.5-1.1,1-2,.7-1.6.4-1.6,0-.8.7-1.8c.7-1,1-1.8.8-1.8s0-.7.5-1.6.9-1.8,1-2c.2-1,1.4-4.3,2.8-7.3,2.5-5.5,2.4-8.1-.4-9.6-4-2.1-64.3-26.1-65.7-26.1-2.5,0-3.7,1.5-6,7.6-1.2,3.2-9.9,25.2-19.5,48.8-9.5,23.6-22.5,55.9-28.9,71.7-39.8,98.7-40.8,101.4-40.2,103.3.5,1.3,1.8,2.3,5,3.6,2.4,1,4.5,2,4.6,2.4.1.4.5.5.8.3.7-.4,14.9,5.4,15.2,6.3.1.4.5.5.8.3.6-.4,19,6.6,19.7,7.5.2.3.7.5,1.1.5,1.5,0,6.2,2.1,6.2,2.7s.3.4.7.2c.4-.2,3.2.7,6.4,2.1h0ZM259.7,493.8c-3.7,1.5-10.4,1.4-14.1-.3-5.7-2.6-7.5-5.3-12.9-19-6.9-17.5-11.6-32.1-15.4-48-1.8-7.4-4.2-15.8-5.4-18.7-2.7-6.7-2.8-10-.3-12.6l1.9-2-1.6-4.8c-1.5-4.5-1.7-4.8-4.3-5.2-12.8-2-17.8-5.1-21.2-12.9-.8-1.9-1.7-3.5-1.8-3.5s-1.6.5-3.1,1c-22.2,8.5-30.6,10.4-35.1,8.1-3-1.5-6.5-5.8-7.3-8.9-.8-3.2-2.8-132.8-2-135.7.7-2.7,4.7-7.1,7.5-8.3,3-1.3,7.6-1.2,10.7,0,3,1.3,5.1,3.8,26.4,31.6,9.6,12.5,26.2,34.3,37,48.4,10.8,14.1,20.2,26.9,20.9,28.5.7,1.6,1.4,4.2,1.4,5.8,0,3.1-2.1,8.2-4.3,10.2-.8.7-8.5,3.8-17.2,7-8.7,3.1-16,5.9-16.2,6.1-1,1,2.2,2.6,7.3,3.6,3.1.6,6.8,1.6,8.2,2.3,5,2.4,8,7,12.2,19.4.3.8,1,1.1,2.3.8,1.2-.2,2.4.1,3.4,1,1.7,1.5,4.4,7.2,5.7,12,.5,1.8,2.4,6.3,4.3,10.1,7,14,14.3,32.5,20.5,52,4.2,13.3,4.7,18,2.3,22.7-1.9,3.7-6.3,7.9-9.8,9.4h0ZM149.1,369.3c1.1.7,2.8,1.1,3.8.9,2.3-.4,28.6-9.8,29.2-10.5.3-.3-.9-4.7-2.5-9.8-2.9-9-3-9.4-1.9-12.3.6-1.6,1.9-3.6,2.9-4.4,2.7-2,7.2-2.4,10-1,2.7,1.4,4.1,4,7.4,13.7,1.4,4.2,2.8,7.1,3.4,7.1,2.5,0,29.8-10.3,31-11.7,1.4-1.7,1.7-5.1.5-7.2-.4-.8-10-13.5-21.2-28.2s-28.3-37-37.9-49.7c-9.6-12.6-18.3-23.8-19.3-24.9-2.6-2.8-6-2.7-9,.2l-2.2,2.2.4,25.3c.2,13.9.6,36.4.8,50s.5,31.6.6,40c.2,16.4.5,18,4,20.3h0ZM513.2,461.8c-2.1,1.1-6.5,2-7.7,1.5-.4-.1-1.6-.5-2.7-.7-2.8-.6-6.2-3.7-8-7.2-2.3-4.4-1.6-7.8,5.1-24.4,5.6-13.9,5.9-15,5.1-17.4-1.8-5.4-.8-8.4,16.7-52.2,9.3-23.2,17.5-43.4,18.3-44.8,1.5-2.9,5.6-6.8,7.9-7.6,1-.3,3.1-4.6,7.8-16,7.7-18.9,9.5-21,17.5-20.9,4.1,0,7.1,1.2,9.5,3.9,5,5.6,4.6,8.8-3.5,28.9-4,9.9-6.9,18.1-7.2,20.5-.7,5.8-35.2,91.6-38.2,95.2-1.5,1.7-4.7,8.7-9,19.6-7,17.5-8.3,19.9-11.6,21.6h0ZM503,454.5c1.2,1,3,1.9,4,1.9,3.3,0,5.1-2.9,10.5-16.4,2.8-7.2,5.2-13.3,5.2-13.5s-1.3-.7-2.9-.9c-1.6-.2-4-1-5.5-1.7-1.6-.8-2.8-1-3.2-.5-1.3,1.4-10.2,24.9-10.2,27.1s.6,2.8,2.2,4.1h0ZM565.5,311.1c1,1,2,1.8,2.4,1.6.7-.2,11.4-26.3,11.4-27.9,0-3.1-3.2-6.1-6.5-6.1s-4.8,2.1-15.1,28.1c-.2.5,1,1.1,2.8,1.6,1.7.4,4,1.6,4.9,2.7h0ZM218.2,385.5c1.7,4.5,2.3,5.3,3.6,5.3,2.6,0,2.7-1.7.5-7.7-3.2-8.7-5.9-11-14.5-12.2-5-.7-8.8-2.9-10.3-5.7-.7-1.3-3.1-7.8-5.3-14.4-3.5-10.3-4.3-12-5.7-12.2-1-.1-1.8.2-2.1,1-.7,1.8,8.2,28.3,10.4,31,2.5,3,4.7,4,11.8,5.3,7.5,1.4,8.9,2.6,11.5,9.7h0Z"/>
  <path class="st6" d="M368.9,686c-.2-.2-4.3-.4-9.1-.4s-1.4,0-2,0c1.5-.1,1.8-.6,2.1-1.9.6-2.5.4-24.8-.4-30.6-.6-5.2-3.4-11.3-25.5-56.9-4.4-8.9-7.9-16.4-7.9-16.5s-4.1-8.7-9.2-19c-5-10.3-10.9-22.4-13-26.8-2.1-4.4-7.2-14.8-11.2-23.2-4.1-8.4-7.3-15.3-7.2-15.4.5-.4,11.7-5.5,12.2-5.5s1,1.5,1.7,3.4c2,5.3,8.8,14.9,14,19.9,9.1,8.6,21.4,15.1,35,18.8,6.3,1.7,8.5,1.9,18.8,1.9s12.4-.2,18.8-2c14.1-3.9,24-9,32.7-17.2,8.3-7.7,11.9-12.9,17.7-25.3,0-.1,2.9,1.2,6.4,2.9,3.5,1.7,6.2,3.3,6.1,3.5-.6,1.1-16.1,32.7-24.4,49.9-5.2,10.8-13.3,27.5-17.9,37-4.6,9.5-8.4,17.5-8.4,17.6s-4.8,10.2-10.6,22.3c-5.8,12.1-11.2,24-12,26.2-1.2,3.7-1.4,6.3-1.4,21v16.7c-3,0-4.9,0-5.2-.4h0ZM531.3,642.3v-111.8l4.2,2.3c6,3.4,20.1,14.1,25.3,19.3,5.2,5.1,14.3,17.1,18.4,24.2,1.6,2.7,4.4,8.5,6.4,13.1,1.9,4.5,3.8,8.2,4,8.2s0,0,.1,0c-10,9.7-20.8,18.8-32.2,27.3-8.5,6.3-17.3,12.2-26.3,17.5h0ZM202.7,636.2c-20.3-13.1-39.2-28.6-56.3-46.3.5.5.9.8,1,.8.4.1.8-.5.9-1.3,0-.9.5-1.8,1.1-2.2s.7-.6.4-.6c-1.3,0,8.8-18.1,10.5-18.8.3-.1.6-.5.6-.9,0-1.1,5.2-7.9,6.6-8.7.8-.4,1.4-1.2,1.4-1.7,0-1.1,7.6-8.3,14-13.2,3.7-2.9,18.2-11.9,19.1-11.9s.4,23.7.5,52.6l.2,52.4h0ZM262.3,666.2c-19.2-7.2-37.6-16.2-54.9-27l4,2.4c16.5,9.8,33.5,18,50.9,24.6h0ZM671.4,464.4c5.2-17,9-34.6,11.5-53.2.2-1.2.3-2.4.5-3.5-.8,8-2.1,15.7-4.3,26.4-2.1,10.3-4.6,20.4-7.7,30.3h0ZM410.1,683.7c13.3-1.7,26.2-4.1,38.7-7.2-8.6,2.2-17.3,4-26.1,5.5-3.4.6-7.9,1.2-12.6,1.7h0ZM345.3,684.9c-6.4-.5-13.3-1.3-20.3-2.4,6.3.9,14,1.8,20.3,2.4ZM125.5,566.2c-3.4-4.3-8.6-11.6-13.7-19.2,5.3,7.8,10.7,15.5,14.6,20.3l-.8-1.1h0ZM620.4,563.1c4.7-6.1,9.1-12.3,13.2-18.6-4.2,6.4-8.6,12.6-13.2,18.6ZM137.5,580.4c-3.1-3.5-6.2-7.1-9.3-10.8,2.8,3.4,6.1,7.3,9.3,10.8ZM603.6,583.2c1-1.1,2-2.2,2.9-3.3-1,1.1-2,2.2-2.9,3.3Z"/>
  <path class="st7" d="M380.1,474.9c-6.2,1.1-17.8,1.2-24.6.2-16.2-2.3-29.6-10.6-48.3-29.6-9.7-9.9-15.6-18.1-20.8-28.7-6-12.2-7.5-21.5-13.7-82.1l-1.6-15.6h-5.1c0,0-5.1-.2-5.1-.2l-.5-2.5c-1.9-8.6-3.6-30.5-2.5-30.5s2.7.5,5.6,1.1c2.9.6,8.4,1.6,12.1,2.1,3.8.6,7,1.1,7.1,1.3.1.1-.9,3.7-2.4,7.9-1.8,5.1-2.7,9.4-3,13.1-.5,7.4,1.7,36.4,3.4,45,4.1,21.2,10.2,34.4,20.2,43.8,5.5,5.2,14.4,11.3,15.4,10.6.4-.2,1-1.5,1.2-2.8.9-4.4,4.7-11.3,7.6-13.9,3.2-2.9,11.9-6,22.8-8.2,6.2-1.2,6.4-1.2,13,.4l6.6,1.6,6.1-1.6c7.4-2,10.6-1.6,23.9,2.5,11.6,3.6,14.2,6.3,18.2,18.4l1.5,4.6,5.8-3.8c3.2-2.1,7.9-5.9,10.4-8.4,8.9-8.9,12.8-17.1,17.8-36.6,2.3-9.3,3-13.7,3.9-25.1.6-7.6,1.1-17.7,1.1-22.3,0-8.1-.1-8.9-2.9-16.7-1.6-4.5-2.8-8.2-2.7-8.3.3-.2,24.9-4,25.6-4,.9,0-.1,15.2-1.6,24.7l-1.2,7.6-5.2-.2-5.2-.2-.4,2.8c-.2,1.5-1.3,11.1-2.3,21.3-5.5,55-6.8,62.5-13.9,76.4-6.6,13-19.1,27.6-34.5,40.1-11.8,9.6-19.8,13.5-32,15.7h0ZM346.4,437.1c3.6.9,6.9.1,9.6-2.4,1.2-1.1,1.2-1.3-1-4.4-1.9-2.6-2.1-3.5-1.5-4.5.6-1,1.6-1.2,4.7-.9,2.1.2,6.7.4,10.1.4s7.5-.2,9.1-.4c2.7-.3,2.9-.2,3.1,1.5.1,1.2-.5,2.7-1.7,4.2-1.6,1.9-1.8,2.5-1,3.4,1.6,1.9,4.9,3.2,8.1,3.2,6.1,0,15-7.1,18.1-14.4,2.5-5.8,2.6-9.5.3-14.5-3.5-7.7-3.7-7.8-22.2-10.5-8-1.2-12.5-1.5-18.3-1.2-9.6.5-29,3.9-30.7,5.4-.7.6-2.1,3-3.2,5.2-2.6,5.5-2.6,10.1,0,15.4,3.7,7.7,9.1,12.3,16.5,14.2h0ZM436.2,314.7c-.5,1.4-3.7,1.5-6.1,0-1-.6-4.4-1.9-7.6-3-5.1-1.7-6.6-1.9-12.4-1.5-3.6.2-8.3.9-10.4,1.5-4.1,1.1-5.7.9-7.2-1-1.1-1.4-1.2-7.1-.2-7.7,1.2-.8,13.9-2.5,18.2-2.5,5.1,0,11.5,1.6,17.2,4.4,7.7,3.7,9.8,6.2,8.5,9.7h0ZM306.6,313.7c-6,2.7-8,2.8-9.1.3-.8-1.6-.6-2.1,1.6-4.3,4.6-4.7,16-9.1,23.8-9.1s14.7,1.4,17.5,2.6c2.7,1.1,3.1,3.3,1.2,7-.4.7-.5,1.2-.8,1.5-.8.7-2.5.5-9.7-.5-.9-.1-2-.3-3.1-.4-7.9-1.1-14.4-.2-21.4,3h0ZM415.1,344.3c-1.2.9-3,1.5-4.8,1.5-5.8,0-9.4-6.3-8.2-14.4.6-3.8,3.9-7.8,7.2-8.6,2.5-.6,6.4,1.1,8.1,3.7,2.9,4.5,1.5,14.7-2.4,17.8h0ZM327.9,344.1c-3.7,2.9-8.7,1.7-11.1-2.7-4.5-8.2-1-18.3,6.2-18.3s8.9,4.4,8.9,10.9-1.4,8-4,10.1h0Z"/>
  <path class="st8" d="M380.1,474.9c12.1-2.2,20.1-6.1,32-15.7,12.3-10,22.7-21.2,29.8-32-4,6.3-8.8,12.2-14.8,18.3l-7.2,7.4.3,9.2c.3,8.6.4,9.4,2.6,13.6,1.5,2.8,3.9,5.9,6.7,8.4l4.4,4-5.6,2.6c-7.4,3.4-8.9,3.9-15.8,5.7-7.5,2-26,2.6-33.1,1.1-17.8-3.7-39.7-15.6-56.2-30.6-4.7-4.2-7.8-6.6-8.1-6.1-.2.5-.4-1.1-.4-3.5v-4.4c0,0-8.1-8.4-8.1-8.4-4-4.1-7.4-8.1-10.4-12.1,3.2,4.2,6.8,8.4,11.3,13,18.6,19,32.1,27.3,48.3,29.6,6.8,1,18.3.9,24.6-.2ZM458,289.5c-4,.6-7.2,1.2-7.3,1.2s1.1,3.8,2.7,8.3c.8,2.4,1.4,4.1,1.9,5.6-.5-1.2-1-1.7-1.8-1.4-.7.3-4.8,1.3-9.2,2.2-7.1,1.5-9.2,1.9-9.4,2.7,0,.3.2.8.5,1.4,0,.1.1.2.2.4.4.6.6,1.2.7,1.9-.7-2.1-3.3-4.1-8.7-6.8-5.8-2.8-12.1-4.4-17.2-4.4-4.4,0-17,1.8-18.2,2.5-1,.6-.9,6.3.2,7.7.8,1,1.7,1.6,3,1.6-1.2,0-2-.4-2.5-1.1-.2-.3-11.7-.7-25.6-.8-20.8-.2-25.4,0-26.4.8,0,0,0,0-.1,0,.3-.3.4-.8.7-1.4,1.9-3.7,1.5-5.9-1.2-7-2.9-1.2-12.3-2.6-17.5-2.6-7.5,0-18.5,4.1-23.4,8.7l.2-.2,3.1-3.1-4.2-.8c-2.3-.5-6.8-1.4-10-2s-6.4-1.5-7.1-1.9c-1.1-.6-1.5-.2-2.5,2.1,0,0,0,.1,0,.2.4-1.6.9-3.3,1.5-5,1.4-4.2,2.5-7.7,2.4-7.9-.1-.1-3.3-.7-7.1-1.3-1-.1-2-.3-3.2-.5,19.7,3.1,49.7,5.2,85.2,5.8,35.5.6,74.9-1.4,100.2-5h0ZM277.4,377.5c-.9-6.4-1.2-7.9-2.1-8.3-.4-.2-.9-.1-1.7-.3-8.2-1.3-16-11.8-16-21.6s3.1-16.2,8.9-17.7c1.6-.4,3.4-.6,4-.4.9.3,1-.5.8-4.9l-.2-5.3,1.6,15.6c1.9,18.5,3.4,32.2,4.6,42.7h0ZM456.4,379.9c1.1-9.3,2.4-21.2,4-37.1.7-7.4,1.5-14.4,1.9-18.4,0,.9-.1,1.7-.1,2.3,0,2.5,0,2.5,3.2,2.6,6.7.2,9.9,4.8,10.4,15,.4,7.2-.6,11-4.3,16.8-2.5,3.9-6,6.5-10.7,7.9-2.5.8-3.1,1.2-3.4,3.1-.1.8-.5,3.9-1.1,7.7h0ZM378.6,379.4c-6.8,3.1-15.2,3.5-21.9,1-5.5-2.1-8.4-4.7-7.8-6.8.7-2.3,2.1-2.4,8.9-.5,7.9,2.2,9.4,2.2,16.7.2l.8-.2c6.2-1.6,7.6-2,8.3-1.5.2.2.4.5.6,1,1.3,2.4-.3,4.4-5.7,6.8h0ZM204.1,637.2c-.5-.3-1-.6-1.5-.9l-.2-52.4c-.1-28.5-.3-51.8-.5-52.5.2,0,.4-.2.5-.2,1.2-.4,1.3,2.5,1.5,52.8l.2,53.3h0ZM455.5,334.4c0,1.3-.2,2.5-.3,3.7-.7,9.5-1.3,14.1-2.9,20.8,1.4-6.6,2.3-13.5,2.9-20.8,0-1.3.2-2.5.3-3.7ZM279.8,348.9c1,8.3,2.4,14.6,4.8,22.6.4,1.4.8,2.7,1.2,3.9-1.9-5.5-3.5-11.8-4.9-18.9-.4-1.8-.7-4.5-1.1-7.6h0ZM444.8,383.6c-2.6,5.8-5.6,10.2-9.6,14.5,4-4.3,7.1-9.2,9.6-14.5ZM475.1,286.9c-1.8.2-5.2.8-8.9,1.4.1,0,.2,0,.4,0,1-.2,1.9-.4,2.8-.5,2.8-.5,4.6-.9,5.8-.8h0ZM408.5,394c-2.5-2-5.8-3.4-10.8-5,6.6,2.1,8.7,3,10.8,5ZM475.9,301.5c.5-5.6.8-11.1.7-13.5.3.9.2,2.5,0,4.9,0,.7-.1,1.5-.2,2.4-.1,1.8-.3,4-.5,6.2h0ZM277.5,311.5c0-.6.1-1.3.2-1.9-.2,2.8-.2,6.4,0,11.1-.2-4-.2-7.3-.1-9.1h0ZM455.7,306.3c.6,2.5.6,4.8.6,9.5,0,.5,0,1,0,1.6,0-5-.1-8.7-.6-11.1h0ZM205.1,637.8l7.1,4.2c1.5.9,2.9,1.8,4.4,2.6-1.7-1-3.5-2-5.2-3l-4-2.4h0c-.8-.5-1.6-1-2.3-1.5h0ZM284.4,412.2c-2-4.9-3.3-9.8-4.5-17.2,1.4,7.9,2.7,12.8,4.5,17.2ZM416.3,408.5v.3c0,0-.4-1.4-.4-1.4-.5-1.6-1-3-1.5-4.3.8,1.7,1.4,3.5,1.9,5.4h0ZM339.8,312.1c-1,.2-2.4,0-5.2-.4-.1,0-.2,0-.4,0,3,.4,4.6.6,5.6.5h0ZM419.8,410.4l-2.3,1.5h0c0-.1,2.4-1.5,2.4-1.5h0ZM327.6,310.7c-2.7-.3-5-.4-7.2-.4,2.3,0,4.7,0,7.2.4ZM435.2,315.6c-.7.3-1.6.4-2.8,0,1,.2,2,.2,2.8,0ZM258,286c-.5,0-.5,4.7,0,10.4-.4-5.8-.5-10.4,0-10.4h0ZM191.6,537.4c-3.6,2.3-7.2,4.6-8.7,5.8,1.8-1.3,5.2-3.6,8.7-5.8ZM421.2,311.4c-2-.6-3.5-1-5-1.1,1.5.1,3,.5,5,1.1ZM262.3,666.2h0c-1.7-.6-3.3-1.3-5-1.9,4,1.6,8,3.1,12,4.5-2.4-.8-4.7-1.7-7.1-2.5h0ZM266.3,287.7c-1-.2-1.9-.4-2.7-.5-.8-.2-1.5-.3-2.2-.5,1.1.2,2.3.5,3.6.7.4,0,.8.2,1.2.2h0ZM430.2,314.8c-.2-.1-.5-.2-.7-.3-.2-.1-.4-.2-.7-.3.6.2,1,.5,1.3.6,0,0,0,0,.1,0h0ZM401.9,311.4c-.9.2-1.6.3-2.2.5-.4.1-.7.2-1.1.3.3,0,.7-.2,1.1-.3.6-.1,1.3-.3,2.2-.5h0ZM299.4,315.7c1.4.3,3.5-.4,7.2-2-3.6,1.6-5.8,2.3-7.2,2ZM463,319.3v-.6h0v.6Z"/>
  <path class="st3" d="M436.2,314.7c.4-1.1.5-2,.2-3-.1-.6-.4-1.3-.7-1.9,0-.1-.1-.3-.2-.4-.4-.6-.6-1-.5-1.4.2-.8,2.3-1.2,9.4-2.7,4.4-1,8.5-2,9.2-2.2.7-.3,1.3.2,1.8,1.4.2.6.3,1.1.4,1.6.5,2.4.6,6.1.6,11.1,0,4.2-.4,11-.8,17,0,1.2-.2,2.4-.3,3.7-.6,7.3-1.5,14.2-2.9,20.8-.3,1.3-.7,2.7-1,4.3-2.2,8.7-4.2,15.1-6.5,20.4-2.5,5.4-5.7,10.2-9.6,14.5h0c-.5.5-1,1.1-1.6,1.6-2.5,2.5-7.2,6.3-10.4,8.4l-3.5,2.3-2.4,1.4-1-3.1v-.3c-.6-1.8-1.2-3.6-2-5.4-1.7-4.3-3.3-7.1-5.9-9.1-2.1-2-4.2-2.9-10.8-5-13.4-4.2-16.6-4.5-23.9-2.5l-6.1,1.6-6.6-1.6c-6.5-1.6-6.7-1.6-13-.4-10.8,2.1-19.6,5.3-22.8,8.2-2.9,2.6-6.6,9.5-7.6,13.9-.3,1.3-.8,2.5-1.2,2.8-1,.6-9.9-5.5-15.4-10.6-6.6-6.2-11.5-14-15.3-24.8-.4-1.3-.8-2.6-1.2-3.9-2.3-8-3.7-14.3-4.8-22.6-1-8.2-1.8-19.8-2.2-28.3h0c-.2-4.7-.2-8.3,0-11.1.2-1.9.6-3.9,1.2-6.1,0,0,0-.1,0-.2,1-2.3,1.4-2.6,2.5-2.1.7.4,3.9,1.2,7.1,1.9,3.2.6,7.7,1.5,10,2l4.2.8-3.1,3.1-.2.2c-.1.1-.3.3-.4.4-2.1,2.2-2.3,2.7-1.6,4.3.4,1,1,1.5,1.9,1.7h0c1.4.3,3.5-.4,7.1-2h0c.1,0,.2-.1.3-.2h0c4.5-2,8.8-3.1,13.5-3.2,2.1,0,4.5,0,7.2.4.1,0,.3,0,.4,0,1.1.2,2.1.3,3.1.4,1.2.2,2.2.3,3.1.4.1,0,.2,0,.4,0,2.8.5,4.3.6,5.2.4.5,0,.8-.2,1-.4,0,0,0,0,0-.1,0,0,0,0,.1,0,1-.9,5.6-1,26.4-.8,13.8.1,25.3.5,25.6.8.5.7,1.3,1,2.5,1.1.8,0,1.9,0,3.2-.4.3,0,.7-.2,1.1-.3.6-.1,1.3-.3,2.2-.5,2.4-.4,5.6-.8,8.3-1,2.7-.2,4.5-.2,6.1,0h0c1.5.2,3,.5,5,1.1.4.1.8.3,1.3.4,2.3.8,4.8,1.7,6.3,2.3.3.1.5.2.7.3.2.1.5.2.7.3.7.4,1.5.7,2.2.8,1.2.3,2.1.3,2.8,0,.5-.2.9-.5,1-.9h0ZM441.9,491.7c-3-1.5-5.4-2.6-5.5-2.5-5.8,12.4-9.4,17.6-17.7,25.3-8.8,8.2-18.6,13.4-32.7,17.2-6.4,1.8-8.4,2-18.8,2s-12.5-.2-18.8-1.9c-13.7-3.7-25.9-10.2-35-18.8-5.3-5-12.1-14.5-14-19.9-.7-1.9-1.5-3.4-1.7-3.4s-5.2,2.1-8.7,3.8c1.4-.7,3-1.5,4.7-2.3,13.6-6.8,18.8-13.3,20.1-25.4,0-.6.1-1.2.2-1.7.5-5.2.8-7.8,0-10-.6-1.9-2-3.5-4.5-6.1l4.9,5v4.4c.1,2.4.3,4,.5,3.5.2-.5,3.4,1.9,8.1,6.1,16.6,15,38.4,26.8,56.2,30.6,7.1,1.5,25.6.9,33.1-1.1,6.9-1.8,8.5-2.4,15.8-5.7l5.6-2.6-4.4-4c-.5-.4-1-.9-1.4-1.4,3,2.9,7,5.5,12.7,8.3.4.2.9.4,1.3.6h0ZM346.4,437.1c-7.4-1.9-12.8-6.6-16.5-14.2-2.5-5.3-2.5-9.9,0-15.4,1.1-2.2,2.5-4.6,3.2-5.2,1.7-1.5,21.1-4.9,30.7-5.4,5.8-.3,10.3,0,18.3,1.2,18.6,2.7,18.7,2.8,22.2,10.5,2.2,4.9,2.2,8.6-.3,14.5-3.1,7.3-12,14.4-18.1,14.4-3.2,0-6.5-1.3-8.1-3.2-.8-1-.6-1.5,1-3.4,1.2-1.5,1.9-3,1.7-4.2-.2-1.8-.4-1.9-3.1-1.5-1.6.2-5.7.4-9.1.4s-8-.2-10.1-.4c-3.1-.3-4.1-.1-4.7.9-.6,1-.3,1.9,1.5,4.5,2.2,3,2.2,3.3,1,4.4-2.7,2.5-6.1,3.3-9.6,2.4h0ZM277.4,377.5c.3,2.8.7,5.4,1,7.7l-4.6-1.3c-15.4-4.4-26.3-20.4-26.3-38.6,0-11.3,3.7-19.5,11.2-24.8l2.1-1.5-.6-3.6c0,.4.2.8.2,1.1l.5,2.5h5.1c0,0,5.1.2,5.1.2h0l.2,5.3c.2,4.3,0,5.2-.8,4.9-.6-.2-2.4,0-4,.4-5.8,1.5-8.9,7.7-8.9,17.7s7.7,20.2,16,21.6c.8.1,1.3,0,1.7.3.9.4,1.2,1.9,2.1,8.3h0ZM456.4,379.9c.5-3.9,1-6.9,1.1-7.7.3-1.9.8-2.4,3.4-3.1,4.7-1.4,8.2-4,10.7-7.9,3.7-5.8,4.7-9.6,4.3-16.8-.5-10.1-3.7-14.8-10.4-15-3.2,0-3.3-.1-3.2-2.6,0-.6,0-1.5.1-2.3.2-1.5.3-2.5.4-3l.3-2.2v-.6c0,0,5.3.2,5.3.2l5.1.2v.5c0,0,2.9,2,2.9,2,3.4,2.3,7.2,8.2,8.8,13.5,1.4,4.6,1.4,15.7,0,21-3,11.7-10.3,21.2-19.6,25.6-2.9,1.4-6.2,2.7-7.4,2.9-2.2.5-2.3.6-3.1,6.4-.4,2.5-.8,4.9-1.3,7.3.9-4.8,1.8-10.7,2.8-18.4h0ZM356.7,415.2c9.9,2.1,21.6.9,29.8-3.3,4.3-2.2,8.7-5.5,8.7-6.6s-11.8-.7-28.4-.7-28.4.3-28.4.7c0,2.4,10.8,8.2,18.3,9.9h0ZM415.1,344.3c4-3.1,5.3-13.4,2.4-17.8-1.7-2.6-5.6-4.4-8.1-3.7-3.4.8-6.7,4.8-7.2,8.6-1.2,8.1,2.4,14.4,8.2,14.4s3.6-.5,4.8-1.5h0ZM327.9,344.1c2.6-2.1,4-5.5,4-10.1,0-6.5-3.6-10.9-8.9-10.9s-10.7,10.1-6.2,18.3c2.4,4.4,7.4,5.6,11.1,2.7h0ZM378.6,379.4c5.4-2.5,7-4.4,5.7-6.8-.2-.4-.4-.8-.6-1-.7-.6-2.2-.2-8.3,1.5l-.8.2c-7.3,1.9-8.8,1.9-16.7-.2-6.9-1.9-8.2-1.8-8.9.5-.7,2.1,2.2,4.7,7.8,6.8,6.7,2.5,15.1,2.2,21.9-1h0ZM286,415.9c.1.3.3.7.5,1,2.8,5.7,5.8,10.7,9.5,15.7,1.6,2.2,3.4,4.3,5.2,6.5-6.6-7.7-11.6-15.2-15.2-23.2h0ZM281.2,402.1c-.8-3.3-1.4-6.7-1.9-10.2.2,1.1.3,2.1.5,3.1.4,2.6.9,4.9,1.4,7h0ZM443.9,423.9c-3.7,6.4-8.2,12.4-13.9,18.6,4.7-5,8.5-10,11.8-15.2.7-1.1,1.5-2.3,2.1-3.4h0ZM475.9,301.5c.2-2.2.4-4.4.5-6.2,0-.9.1-1.7.2-2.4.2-2.4.3-3.9,0-4.9h0c.3.8.2,2.3,0,4.6,0,.7-.1,1.4-.1,2.3-.1,2.1-.4,4.8-.7,7.5,0-.3,0-.6,0-.9h0ZM258.5,302.9c.3,3,.7,6.1,1.1,8.8v-.2c-.4-2.2-.8-5.3-1.1-8.5h0ZM285.4,495.4c.2.7,3.3,7.3,7.2,15.3-4.1-8.4-7.3-15.2-7.2-15.3ZM257.9,286c-.1,0-.2.5-.3,1.2,0-.8.1-1.2.2-1.2h0ZM448.9,495.6c-.2.3-1.2,2.4-2.9,5.8,1.7-3.4,2.8-5.5,2.9-5.8h0ZM475.1,286.9c-.2,0-.4,0-.6,0,.2,0,.5,0,.7,0h0ZM422.9,476.2c0-.1-.2-.3-.2-.5-.2-.3-.3-.6-.5-.9.1.3.3.5.4.9,0,.2.2.4.3.5Z"/>
  <path class="st2" d="M458,289.5c-25.3,3.6-64.7,5.6-100.2,5s-65.5-2.6-85.2-5.8c-2.1-.4-4.4-.7-6.3-1.1h0c-.4,0-.8-.2-1.2-.2-1.3-.3-2.6-.5-3.6-.7h0c-1.9-.4-3.3-.7-3.4-.7h-.1c-.1,0-.2.5-.2,1.2,0,.3,0,.6,0,1v-2.7c-.1,0-5.8-1.6-5.8-1.6-3.1-.9-6.7-2.3-7.9-3-1.9-1.2-2.3-1.8-2.1-3.8.2-2,.9-2.8,4.9-5.5,2.6-1.7,4.9-3.7,5.2-4.4.3-.7.9-5.4,1.3-10.4,2.5-26.8,6.1-41.9,13.4-56.4,9.2-18.5,25.9-36.6,43.1-46.9,3.8-2.3,5.2-2.8,5.6-2.1.5.9,1.3,4,12.1,46.6,3.1,12.3,6.1,22.8,6.5,23.2,2.2,2.2,2.3-.8.5-13.7-1-7.2-2.7-19.6-3.7-27.6-1.1-8-2.7-19.2-3.6-24.9-1.9-11.4-1.7-13.8,1.5-17.6,2.1-2.5,9.2-5.1,20.4-7.3,8.4-1.7,26-2.1,33.4-.7,5.7,1,15.4,3.8,19.4,5.6,2.9,1.3,3.4,1.9,5,6.1,1,2.6,1.6,5.1,1.3,5.7-.8,1.7-10.2,68.1-10.2,72.2s2,2.7,3,0c.4-1.1,3-11.1,5.8-22.4,6.6-26.5,11.6-45.8,12-46.1s6.2,2.9,10.9,6.3c12.2,8.7,25.4,22.4,31.7,33,11.6,19.5,16.2,35.1,19.3,65.2,1.5,14,.8,12.5,7.9,17.1,2,1.3,3.7,2.9,3.9,3.6.6,3.2-4.5,6.8-12.3,8.6l-3.4.8-.2,3.5c0-.4,0-.8-.2-1,0-.8-.1-1.2-.3-1.2,0,0-.5,0-1.2.1-.2,0-.4,0-.7,0-1.1,0-2.8.3-5.1.8-.8.2-1.8.3-2.8.5-.1,0-.2,0-.4,0-2.7.4-5.7.9-8.2,1.3h0ZM273.7,271.9c1.1,1.3,1.4,1.3,8.4,0,9.5-1.8,29.9-4.6,40.7-5.6,6.9-.6,22-.9,46.6-.9,39.7,0,47.7.6,74.3,5.2,6.4,1.1,12.7,2,14.1,2,2.2,0,2.5-.2,2.5-1.8s-1.2-2.7-16.2-5.7c-28.7-5.9-63.9-8.3-96.6-6.7-40.4,2-77.8,8.9-73.8,13.6h0ZM152.2,557c-1.6,1.4-3.1,1.5-4.6.3-3.3-2.6-14.8-23.7-21.6-39.7-13.1-30.7-20.6-63.2-21.7-94.4-.5-13.7-.2-14.5,3.9-14l2.1.2.6,8c1.7,23.9,3.9,39.5,8.2,56.6,6.3,25,16.3,49.5,29,70.5,3,5,5.5,9.7,5.5,10.3s-.6,1.6-1.3,2.3ZM558.7,529.4c-1,1.1-2.5,1.9-3.2,1.9-1.5,0-3.7-1.8-3.7-3s2.4-5.2,5.4-10.7c11.1-20.4,18.6-41.3,22.9-64.5,2-10.9,3.7-26.2,3.7-34.8,0-6.1.2-7.3,1.5-8.5,1.8-1.8,3.1-1.8,4.6-.1,2.2,2.4,1.5,17.1-1.8,39.7-1.8,12.8-6.1,29.6-10.5,41.2-4,10.8-16.3,36-18.9,38.8h0ZM216.5,248.3c-6.8,6.7-12.7,12.2-13.1,12.2-2.3-.1-4-1.5-4-3.2,0-3.3,17.9-21.4,31.9-32.4,11.2-8.8,15.1-10.5,16.9-7.3,1.2,2.3,0,3.7-10,11.4-5.1,3.9-14.9,12.6-21.7,19.3ZM523.2,248.8c-2.1,2.1-4.2,1-12.6-7.1-3.6-3.5-10.6-9.3-15.6-13-5-3.7-9.4-7.2-9.7-7.9-.3-.6-.4-1.9-.2-2.9.8-3.2,4.5-2.4,11.1,2.3,15,10.7,27.9,22.6,27.9,25.7s-.4,2.3-.9,2.8ZM258.5,302.9c.3,3.3.7,6.4,1,8.5v.2c0,0,0,.1,0,.2v-.4c-.6-3.3-1.2-8.6-1.5-13.2.1,1.5.3,3.1.4,4.7h0ZM260.8,319l-.6-3.7h0c0,0,.6,3.7.6,3.7Z"/>
  <path class="st4" d="M273.7,271.9c-3.9-4.8,33.4-11.6,73.8-13.6,32.7-1.6,67.9.9,96.6,6.7,15,3.1,16.2,3.5,16.2,5.7s-.3,1.8-2.5,1.8c-1.4,0-7.7-.9-14.1-2-26.6-4.6-34.7-5.1-74.3-5.2-24.6,0-39.7.3-46.6.9-10.8,1-31.1,3.8-40.7,5.6-7,1.3-7.4,1.3-8.4,0h0ZM586.8,557c-2.1,2.4-6,1-6-2.2s2-5.3,4.7-9.7c5.7-9.3,14.4-26.8,18.2-36.3,11.1-28,17.5-57.7,19-87,.3-5.6.8-10.8,1.2-11.5.8-1.6,3.7-1.7,5-.2,1.3,1.6.5,24.6-1.4,37.8-3.2,23.1-10.1,47.9-19.4,69.6-4.5,10.5-18.2,35.9-21.2,39.3h0ZM181.1,530.4c-1.4,1.4-4.2,1-6-1-.9-1-4.5-7.5-7.9-14.4-14.4-29.1-21.4-55-23.8-88.3-.9-11.8-.3-32.9.9-34.4,1.1-1.4,4.7-1.1,5.6.4.4.8.6,5.9.3,12.9-.8,22.5,2.5,48.2,9,69.5,4.5,14.8,12.8,34.2,19.4,45.4,3.4,5.8,4.1,8.2,2.5,9.8h0ZM196.4,213.3c-8,7.5-10,8.7-12,7.4-2.9-1.9-1.2-5,6.4-12.1,23.4-22,47.2-37.4,76.8-49.8,9.8-4.1,13.5-4.6,14.8-2.2,1.4,2.6-.7,4.5-7.8,7.2-15,5.7-30.2,13.6-46.5,24.4-12.5,8.3-20.7,14.8-31.8,25.1h0ZM533.6,202.7c-.4,1.5-1.1,2.2-2.4,2.4-1.9.2-2.6-.2-13.7-8.8-17.3-13.4-40-26.1-59.6-33.3-5.2-1.9-7.3-4.1-6-6.5,1.3-2.4,5-1.9,14.1,1.9,22.7,9.4,52.6,27.4,65.2,39.4,2.6,2.5,2.9,3.1,2.4,5h0ZM627.9,371.9c-6.5,2.4-14.8-1-17.9-7.5-4.8-9.9,2.8-20.8,13.9-20,5.2.4,9.8,3.2,11.8,7.3,1.6,3.3,1.8,9.8.2,12.7-1.5,2.8-5.5,6.5-8,7.5h0ZM117.8,378.4c-3.4,1.6-8.4,2-11.5.8-7.8-3.1-11.5-11.8-8.1-19.2,4.7-10.2,19.6-11.1,25.2-1.5,4.1,7,1.4,16.6-5.6,20h0ZM421,151.6c-1.2-.6-2-1-2.2-.8-.4.4-5.4,19.6-12,46.1-2.8,11.2-5.4,21.3-5.8,22.4-1,2.6-3,2.6-3,0,0-4.2,9.3-70.6,10.2-72.2.2-.5,0-2.2-.8-4.3.8,1.8,1.7,3.2,2.2,3.4,3,1,7,3,11.3,5.5ZM326.2,142.4c-.5,2.6-.1,6.2,1,12.9.9,5.7,2.5,16.9,3.6,24.9,1.1,8,2.7,20.4,3.7,27.6,1.8,12.9,1.7,15.9-.5,13.7-.5-.5-3.4-10.9-6.5-23.2-10.8-42.6-11.6-45.6-12.1-46.6-.2-.4-.8-.4-2,0,2.1-1.1,4.3-2.2,6.4-3.1,5.3-2.3,5.5-2.5,6.3-5.5,0-.2.1-.4.2-.7h0ZM620.3,365c4.4,1.9,9.1-1,9.8-6,.3-2.5,0-3.3-1.8-5.3-1.9-2.1-2.6-2.4-5.7-2.4s-3.8.3-5.2,2c-3.3,3.8-1.8,9.8,2.9,11.7ZM109.4,372.5c3.4.9,5.4.3,7.5-2.3,1.6-1.9,1.8-2.7,1.5-5.2-.5-3.9-3.2-6.2-7.1-6.2-8.2,0-9.8,11.6-1.9,13.7ZM448.4,173.4c-4.3-4.5-9-8.9-13.8-12.7,1.6,1.2,3.1,2.4,4.5,3.6,2.7,2.2,6,5.5,9.3,9.1h0ZM292.9,166.3c-10.7,9.8-20.1,21.9-26.3,34.2,6.3-12.7,15.6-24.6,26.3-34.2ZM333.1,134.8c3.5-1.6,8.6-3,16-4.5-7,1.4-12.5,2.9-16,4.5Z"/>
  <path class="st1" d="M448.9,495.6c.1-.2-2.6-1.8-6.1-3.5h-.2c4.2,1.9,7.3,3.1,7.5,2.8.8-1.3,4.4-.7,11.6,2l7.3,2.8.2,85.4.2,85.3.6-.2c-7,2.3-14.1,4.4-21.2,6.2-12.6,3.2-25.5,5.5-38.7,7.2h0c-12.9,1.5-28.7,2.6-36.5,2.7h.5v-16.7c0-14.7.2-17.4,1.4-21,.8-2.3,6.2-14.1,12-26.2,5.8-12.1,10.6-22.2,10.6-22.3s3.8-8,8.4-17.6,12.7-26.2,17.9-37c6.8-14,18.3-37.7,22.7-46.5-.4.7-.8,1.5-1.2,2.5,1.7-3.4,2.8-5.5,2.9-5.8h0ZM345.3,684.9c-6.3-.6-14-1.5-20.3-2.4-13-2-26.6-5-39.4-8.7-5.5-1.6-10.9-3.3-16.3-5.2-2.3-.8-4.7-1.7-7-2.5.9.3,1.5.5,1.8.5.5,0,.7-27.9.7-83.3v-83.3l7.5-3c7.5-3,10.6-3.6,11.9-2.3.4.4,3-.6,6.2-2.1-.5.3-1,.5-1.5.8-1.9.9-3.3,1.6-3.5,1.7h0c-.1.1,3.1,7,7.2,15.4,4.1,8.3,9.1,18.8,11.2,23.2,2.1,4.4,8,16.5,13,26.8,5,10.3,9.2,18.9,9.2,19s3.6,7.5,7.9,16.5c22.2,45.6,24.9,51.7,25.5,56.9.7,5.8,1,28.1.4,30.6-.3,1.3-.6,1.7-2.1,1.9-3.9,0-8.1-.2-12.5-.6h0ZM531.3,642.3c-9.2,5.5-18.7,10.5-28.4,15l.2-70.4.2-70.5,2.1.2c3.6.4,21.1,8.2,23.1,10.3,1,1.1,2,2.3,2.2,2.7.1.3,1.5,1.2,3.3,2.3l-2.6-1.5v111.8h0ZM205.1,637.8c-.3-.2-.6-.4-.9-.6l-.2-53.3c-.2-46.5-.2-52.5-1.2-52.8.4-.3.9-1,1.3-1.8.6-1.1,1.7-2.6,2.4-3.3,1.9-1.8,22.7-10.2,24-9.7.8.3,1,11.5,1.2,68.6l.2,67.8c-5.1-2.6-10.2-5.3-15.2-8.2h0c-1.5-.9-3-1.7-4.4-2.6l-7.1-4.2h0ZM312.3,473c.9-3.1,1.5-6.9,1.7-11.6l.3-5.7c.3,2,0,4.4-.4,8.4,0,.5-.1,1.1-.2,1.7-.3,2.6-.7,5-1.4,7.1h0ZM478.1,667.5c3.7-1.4,8.1-3.1,11.9-4.6-3.9,1.6-7.9,3.1-11.9,4.6ZM439.1,490.3c-4.9-2.5-8.4-4.9-11.2-7.5h0c2.7,2.6,6.3,4.9,11.2,7.5h0ZM193.5,536.2c-.6.4-1.2.8-1.9,1.2-3.5,2.2-7,4.5-8.7,5.8,2.1-1.7,6.5-4.5,10.6-7h0ZM549,542.2c4.7,3.6,9.2,7.3,11.8,9.9-2.5-2.5-7.1-6.3-11.8-9.9ZM286,415.9c1.8,3.9,3.8,7.7,6.3,11.4-2.5-3.8-4.5-7.6-6.3-11.5h0c0,0,0,0,0,0ZM296.1,490c.5-.2.9-.5,1.4-.8-.5.2-.9.5-1.4.8Z"/>
</svg>