<?xml version="1.0" encoding="UTF-8"?>
<svg id="Layer_1" xmlns="http://www.w3.org/2000/svg" version="1.1" viewBox="0 0 841.9 4636">
  <!-- Generator: Adobe Illustrator 29.0.1, SVG Export Plug-In . SVG Version: 2.1.0 Build 192)  -->
  <defs>
    <style>
      .st0 {
        fill: #eca159;
      }

      .st1 {
        fill: #efa24c;
      }

      .st2 {
        fill: #433027;
      }

      .st3 {
        fill: #efa14c;
      }

      .st4 {
        fill: #fafafb;
      }

      .st5 {
        fill: #f4f5f7;
      }

      .st6 {
        fill: #eca15a;
      }

      .st7 {
        fill: #425970;
      }

      .st8 {
        fill: #fefcfa;
      }

      .st9 {
        fill: #7a4736;
      }

      .st10 {
        fill: #402d24;
      }

      .st11 {
        fill: #392b23;
      }

      .st12 {
        fill: #d4edea;
      }

      .st13 {
        fill: #382d28;
      }

      .st14 {
        fill: #f6f6f6;
      }

      .st15 {
        fill: #f87929;
      }

      .st16 {
        fill: #513a33;
      }

      .st17 {
        fill: #f2cc40;
      }

      .st18 {
        fill: #fbfbfa;
      }

      .st19 {
        fill: #fbfcfc;
      }

      .st20 {
        fill: #1c4076;
      }

      .st21 {
        fill: #3668a0;
      }

      .st22 {
        fill: #fafbfc;
      }

      .st23 {
        fill: #25446b;
      }

      .st24 {
        fill: #f3a04e;
      }

      .st25 {
        fill: #f5792b;
      }

      .st26 {
        fill: #966145;
      }

      .st27 {
        fill: #28476f;
      }

      .st28 {
        fill: #eda258;
      }

      .st29 {
        fill: #7d4838;
      }

      .st30 {
        fill: #ede6cb;
      }

      .st31 {
        fill: #f7f8f8;
      }

      .st32 {
        fill: #26466d;
      }

      .st33 {
        fill: #f0a349;
      }

      .st34 {
        fill: #ec9f57;
      }

      .st35 {
        fill: #976145;
      }

      .st36 {
        fill: #fff;
      }

      .st37 {
        fill: #e2ae75;
      }

      .st38 {
        fill: #523c33;
      }

      .st39 {
        fill: #814a38;
      }

      .st40 {
        fill: #a06e2c;
      }

      .st41 {
        fill: #372a22;
      }

      .st42 {
        fill: #392e29;
      }

      .st43 {
        fill: #f7f7f7;
      }

      .st44 {
        fill: #fefefe;
      }

      .st45 {
        fill: #254369;
      }

      .st46 {
        fill: #eece50;
      }

      .st47 {
        fill: #422e25;
      }

      .st48 {
        fill: #fafbfb;
      }

      .st49 {
        fill: #3568a1;
      }

      .st50 {
        fill: #efcf51;
      }

      .st51 {
        fill: #583f35;
      }

      .st52 {
        fill: #d3eeeb;
      }

      .st53 {
        fill: #f6792b;
      }

      .st54 {
        fill: #fcfbf8;
      }

      .st55 {
        fill: #fdfdfd;
      }

      .st56 {
        fill: #28466b;
      }

      .st57 {
        fill: #fcfdfd;
      }
    </style>
  </defs>
  <path class="st36" d="M47.4,2320.9c.1,3.7.2,7.5.3,11.2.2,10.3,1.1,20.5,2.3,30.7,1.6,14.1,4.1,28,7.3,41.8,7.6,32.6,19.4,63.5,35.5,92.9,19.1,35,43.2,66.2,72.2,93.6,26.5,25,56.1,45.7,88.6,62.1,17.7,9,36.1,16.4,55.1,22.4,14.9,4.7,30,8.4,45.4,11.2,8.6,1.5,17.2,2.9,25.9,3.7,7.8.7,15.7,1.5,23.5,1.9,6.9.3,13.8.3,20.7.3,13.2.1,26.3-.8,39.5-2.2,11.6-1.3,23-3.1,34.4-5.5,34.4-7.2,67.2-19,98.3-35.5,36.6-19.4,69-44.2,97.4-74.3,24.8-26.3,45.4-55.7,61.7-87.9,9.7-19.1,17.6-39,23.9-59.5,4.9-16.1,8.7-32.5,11.3-49.1,1.2-7.9,2.2-15.8,3-23.7,1-9.2,1.4-18.3,1.6-27.5.2-7.4-.1-14.8-.2-22.1-.2-10.2-1.1-20.3-2.2-30.4-1.4-11.8-3.3-23.5-5.8-35.1-6.5-30.7-16.9-60-30.9-88.1-7.2-14.5-15.5-28.5-24.5-41.9-15.2-22.5-32.6-43-52.2-61.7-16.1-15.3-33.4-29.1-51.9-41.3-29.5-19.5-61-34.5-94.7-45-21.5-6.7-43.5-11.4-65.9-14.1-10.2-1.2-20.5-2.1-30.7-2.5-11-.4-22-.4-33,.2-9.1.5-18.1,1.2-27.1,2.3-12.1,1.4-24.2,3.5-36.1,6.1-31.6,7.1-61.7,18-90.4,32.9-37,19.2-69.8,43.9-98.6,73.9-15.3,15.9-29,33.2-41.2,51.6-19.5,29.4-34.6,60.9-45.2,94.6-5.4,17.2-9.5,34.7-12.3,52.6-1.9,11.8-3.2,23.7-4,35.7-.5,8.3-.9,16.7-.7,25.7Z"/>
  <path class="st20" d="M47.4,2320.5c-.2-8.7.2-17.1.7-25.4.7-12,2.1-23.8,4-35.7,2.9-17.8,6.9-35.3,12.3-52.6,10.6-33.7,25.6-65.2,45.2-94.6,12.2-18.4,25.9-35.6,41.2-51.6,28.8-30.1,61.6-54.8,98.6-73.9,28.7-14.9,58.9-25.8,90.4-32.9,11.9-2.7,24-4.7,36.1-6.1,9-1,18-1.8,27.1-2.3,11-.6,22-.6,33-.2,10.3.4,20.5,1.2,30.7,2.5,22.4,2.7,44.4,7.4,65.9,14.1,33.7,10.5,65.3,25.5,94.7,45,18.5,12.3,35.8,26,51.9,41.3,19.6,18.7,37,39.3,52.2,61.7,9.1,13.5,17.3,27.4,24.5,41.9,14,28.1,24.4,57.4,30.9,88.1,2.5,11.6,4.4,23.3,5.8,35.1,1.2,10.1,2.1,20.2,2.2,30.4.1,7.4.4,14.8.2,22.1-.2,9.2-.7,18.4-1.6,27.5-.8,7.9-1.8,15.9-3,23.7-2.6,16.6-6.4,33-11.3,49.1-6.2,20.5-14.2,40.4-23.9,59.5-16.3,32.3-36.9,61.6-61.7,87.9-28.4,30.1-60.8,54.9-97.4,74.3-31.1,16.5-63.9,28.3-98.3,35.5-11.4,2.4-22.8,4.2-34.4,5.5-13.1,1.4-26.3,2.3-39.5,2.2-6.9,0-13.8,0-20.7-.3-7.8-.4-15.7-1.1-23.5-1.9-8.7-.8-17.3-2.2-25.9-3.7-15.4-2.8-30.5-6.5-45.4-11.2-19-6-37.3-13.4-55.1-22.4-32.5-16.4-62.1-37.1-88.6-62.1-29-27.4-53.1-58.5-72.2-93.6-16-29.4-27.8-60.3-35.5-92.9-3.2-13.8-5.7-27.7-7.3-41.8-1.2-10.2-2.1-20.5-2.3-30.7,0-3.7-.2-7.5-.3-11.6M584.7,2632.7c3.2-1.7,6.5-3.2,9.6-5.1,6.5-3.8,13-7.8,19.5-11.8,1.3-.8,2.7-1.6,3.7-3.3,1.1-.5,2.3-.8,3.3-1.4,3.9-2.6,7.8-5.3,11.5-8.1,6.3-4.8,12.5-9.8,18.7-14.8,3.9-3.2,7.7-6.5,11.4-10,4.4-4.1,8.6-8.5,12.9-12.8.9-.9,1.3-2,1.7-2.9.3,0,.8.2.9,0,.9-.8,1.8-1.7,2.6-2.5,19.1-20.6,35.6-43,49.4-67.5,27.8-49.5,42.8-102.7,45.2-159.4,1-24.7-.6-49.3-4.8-73.8-4-23.3-10.1-46-18.7-68.1-23.4-60-60.3-110.1-110.9-150-59-46.5-126.2-71.6-201.2-75.7-24.8-1.4-49.6,0-74.2,4-19.7,3.2-39.1,7.8-58,14.4-72,25-130.3,68.4-174.5,130.4-40.5,56.9-61.8,120.6-64.9,190.3-1,21.6.2,43.1,3.3,64.5,2.2,15.1,5.2,30,9.3,44.7,17.1,60.9,48.3,113.4,93.3,157.8,1.8,1.8,3.7,3.5,6,5.5,1,.9,1.9,1.8,2.9,2.7,3.2,2.9,6.3,5.9,9.6,8.7,3.3,2.8,6.7,5.5,10.1,8.1,5.4,4.2,10.8,8.4,16.4,12.3,8.6,6,17.3,11.8,26.9,17.1,1,.6,2,1.3,3.1,1.9,7.8,4,15.6,8,23.4,12,1.7.9,3.5,1.5,5.7,2.5,5.6,2.3,11,4.9,16.7,7,6.9,2.6,13.9,4.8,21.3,7.4,1.8.6,3.7,1.2,5.5,1.7,11.1,3.3,22.4,6,33.8,8.2,13.8,2.6,27.7,4.4,41.7,5.4,8.6.6,17.2.6,26.5.9,1.4,0,2.9,0,4.3,0,1.8,0,3.6.2,5.3-.2,1.9-.4,3.8-.5,6.4-.5,3.6-.2,7.2-.4,10.9-.6,8.5-.5,16.8-1.6,25.2-2.9,19.1-2.8,37.7-7.4,56-13.3,5-1.6,10-3.7,15.5-5.6.2,0,.5,0,.7-.2,11.5-4.4,22.9-9.4,33.9-15,.4-.2.8-.5,1.6-.8.4-.3.8-.6,1.6-.9Z"/>
  <path class="st44" d="M179.2,2576.8c-1.9-1.7-3.8-3.4-5.6-5.2-45-44.4-76.2-96.9-93.3-157.8-4.1-14.7-7.2-29.6-9.3-44.7-3.1-21.4-4.2-42.9-3.3-64.5,3.1-69.7,24.4-133.4,64.9-190.3,44.2-62,102.5-105.4,174.5-130.4,18.9-6.6,38.3-11.2,58-14.4,24.6-4,49.3-5.3,74.2-4,75,4.1,142.2,29.2,201.2,75.7,50.5,39.9,87.4,90,110.9,150,8.6,22,14.8,44.7,18.7,68.1,4.2,24.4,5.8,49,4.8,73.8-2.4,56.7-17.3,109.9-45.2,159.4-13.8,24.5-30.3,47-49.4,67.5-.8.9-1.7,1.7-2.6,2.5-.2.1-.6,0-1.1-.5-5.1-11.7-11.9-21.8-19.8-31.2-2.8-3.3-5.6-6.6-8.9-9.5-6.3-5.6-13-10.9-20.1-15.5-3.5-2.3-7.3-4.2-11.1-6.5-1.7-3.5-4-6-7.4-7.4-1.1-.5-2.2-1-3.3-1.4-5.4-2.3-10.9-4.6-16.3-7-1.7-.7-3.3-1.4-5.2-2.2-.8-.1-1.3-.2-2.1-.4-1.9-1.1-3.6-2-5.3-2.7-4.5-2-9.1-3.9-13.6-5.9-2.2-1-4.4-2-6.6-3-1.7-.7-3.3-1.4-5-2.1-1.8-.8-3.6-1.5-5.7-1.7-.4-1.1-1-1.6-1.9-1.9-1.6-.6-3.1-1.3-4.6-1.9-.8-.3-1.5-.7-1.7-1.9.8-5.5.8-10.5-3-14.7,4.6-6.9,4.8-13.8,0-20.7,4.3-6.9,5.1-13.8,0-20.7,4.5-7,5.5-13.9-.2-20.6,4.8-6.8,5.5-13.6.5-20.4,4.4-7,5.5-13.5-.4-20.8,2.5-2.5,3.8-5.5,4.5-9,.8-.4,1.3-.7,1.8-1,8-4.2,14.2-10.3,18.5-18.3,3.4-6.4,5.4-13.1,5.8-20.4.5-8.4-.9-16.3-5.1-23.7-.5-.8-.8-1.7-1.1-2.8.6-1.1,1.1-1.9,1.5-2.8,1.8-4.5,2.1-8.9-1.4-12.8,1.8-3,2.6-6.2,2.3-9.7-.3-3.5-2.6-6.1-4.6-9,1.6-2.5,1.2-5.3.9-8,0-.6-.2-1.2-.2-2,.5-.6.8-1,1.2-1.1,2.6-.9,5.2-1.7,8.2-1.8.8,0,1.3-.2,1.7-.2,11.3,0,22.6,0,33.9,0,.6,0,1.1.4,1.6.9,0,1.8,0,3.3,0,5.1,0,1.1,0,1.8,0,2.9,0,1.1,0,1.8,0,2.9,0,.6,0,.9,0,1.4.2.6.4,1,.7,1.6,1.2,2,2.9,2.3,4.8,2.4,1.4,0,2.8.1,4.3.2.6,1.5.4,2.8.4,4.1,0,15,0,29.9,0,44.9,0,1.3.1,2.6,0,4.3,0,1.1,0,1.9,0,2.8,0,.3,0,.4,0,.7,0,.1,0,.5-.2.6-.4.5-.7.9-1,1.4-.3,0-.3.2-.5.5-2.3,2.3-4.3,4.4-6.3,6.6-1.8,2-2.2,4.4-1.1,7,0,0,0,.2,0,.4.3.7.5,1.2.8,1.8,0,0,0,.1,0,.4.4.9.7,1.5,1,2.1,0,0,0,.1,0,.4.1.6.2.9.3,1.4.2.6.4.9.6,1.5,0,.3.1.4.2.8,3.1,9.3,6.2,18.4,9.3,27.4.7,2.2,1.6,4.3,2.3,6.5.8,2.4,2.6,3.4,5,3.5,1.5,0,2.9,0,4.4,0,.9,0,1.8.2,2.9.3.1,3.2.2,6.2-.6,9.2-.6,2.2-1.8,3.9-3.7,5.2-.7.5-1.5.9-2.2,1.3-2.8,1.5-5.3,3.4-7.4,5.8-4.5,5.1-6.8,11.1-6.1,18,1,9.3,8.1,18.5,19.3,21.1,3.3.8,6.7.8,10.1-.2,9.9-3.1,15.8-9.9,18-20,.3-1.3.2-2.7,0-4-.2-1.8-1.4-2.9-3-3.1-1.8-.2-3.4.7-4.1,2.3-.4.9-.5,1.9-.8,2.8-.7,1.9-1.3,3.9-2.2,5.7-3.2,5.8-8.1,8.6-14.9,8.2-6.7-.4-15-6.7-13.8-17.2.5-4,2.2-7.4,5.7-9.7,1.7-1.1,3.5-2.2,5.2-3.2,4.1-2.5,6.9-6.1,7.8-10.9.5-2.6.5-5.3.7-7.9,0-1.2-.4-2.4.5-3.6.7,0,1.4-.1,2.1-.2,1.2,0,2.4,0,3.6,0,3.8,0,4.9-.8,6.3-4.3.3-.7.5-1.4.7-2,3.4-10.1,6.9-20.1,10.3-30.2,1-3.1,2-6.2,3.1-9.3,1-2.9.6-5.5-1.6-7.7-1.3-1.4-2.8-2.7-4.2-4.1,0,0-.1-.1-.3-.3-1.1-1.1-2.1-2-3.2-3.3,0-1.3-.2-2.3-.2-3.2,0-11.5,0-23.1,0-34.6,0-3.5-.1-7-.1-10.7,0-.6,0-.9,0-1.4,0-.3,0-.4,0-.9,0-1.8,0-3.3,0-5.1.2-.8.3-1.3.7-1.9,2,0,3.7,0,5.4-.1.7,0,1.5-.2,2-.6.8-.7,1.3-1.6,2.1-2.8.3-4.6.4-8.9.5-13.3,1.5-.7,3-.4,4.4-.5,16.8,0,33.6,0,50.4,0,1.1,0,2.2,0,3.3-.1,2.2-.3,3.9-2.8,3.1-4.8-.4-.9-.6-1.9-1.2-2.6-2.5-2.9-5.1-5.8-7.7-8.9-4.5-5.5-9-10.8-13.4-16-.8-.9-1.7-1.7-2.5-2.8-.2-.3-.4-.5-.7-.8-1.2-1.5-2.4-2.8-3.6-4.3-.2-.3-.4-.5-.7-.8-.5-.5-1-.8-1.5-1.4-1.3-1.8-2.5-3.5-3.9-5-3.9-4.1-2.8-3.4-7.8-3.5-10.5,0-21,0-31.6,0-2.2,0-4.3-.3-6.4-.8-3.3-.9-6.5-1.8-9.8-2.7-17.1-4.4-34.1-8.8-51.2-13.2-11.7-3-23.4-5.9-35.3-9.1-.7-1.4-1.4-2.6-1.8-3.8-1.9-5.4-4.5-10.4-7.2-15.4-3.4-6.2-7.2-12-11.4-17.7-4.9-6.5-10.5-12.4-16.5-17.8-5.6-5.1-11.7-9.8-18.2-13.8-2.4-1.4-4.9-2.5-7.5-4-1.3-.8-2.5-1.5-3.6-2.1-2.6-1.2-5.3-2.4-7.9-3.8-.4-1.8-1-3.3-1.3-4.8-.7-3.9-3.2-6.1-6.8-7.2-3.6-1.1-7.1-2.3-10.7-3.3-9.4-2.6-18.9-4.2-28.6-4-7,.1-14,1.1-20.8,2.5-5.6,1.1-11,2.8-16.3,4.9-3.6,1.4-6.2,3.7-7.4,7.5-.5,1.5-.7,3-1.3,4.7-3.1,1.6-6,3-8.9,4.5-.8.4-1.6,1-2.6,1.6-1,.4-1.8.7-2.5,1.1-5.9,3-11.2,7.1-16.4,11-3.3,2.4-6.2,5.3-9.3,8-1,.8-1.7,2.1-3.4,2-23.6-6.2-47-12.2-70.2-18.2-.9-1.4-1.6-2.7-2.4-3.9-1.3-1.9-3.1-3.4-5.2-4.3-9.5-4-19.5,1.6-20.9,11.7-.1.9-.2,1.9-.3,2.9-.7.6-1.3,1.1-2,1.7-12.5,10.3-24.9,20.7-37.4,31-7.9,6.6-15.8,13.2-23.7,19.8-3,2.5-5.8,5.1-9,7.6-.6.4-1,.8-1.4,1.3,0,0,0,0-.2,0-.4.3-.6.5-.9.7-.1,0-.2.2-.5.3-.9.7-1.5,1.3-2.4,2-1,.8-1.7,1.5-2.7,2.3-.9.7-1.6,1.4-2.4,2.1-.7.5-1.2,1-1.9,1.5-.6.5-1,.9-1.3,1.3,0,0,0,0-.2,0-.4.3-.6.5-.9.8-.7.5-1.2,1-1.9,1.5-.6.5-1,.9-1.4,1.3,0,0,0,0-.2,0-.4.3-.6.5-.9.8-.7.5-1.2,1-1.9,1.5-.6.5-1,.9-1.3,1.3,0,0,0,0-.2,0-.4.3-.5.5-.9.8-.7.5-1.2,1-1.9,1.5-.6.5-1,.9-1.3,1.3,0,0,0,0-.2,0-.4.3-.6.5-.9.7-.1,0-.2.2-.5.3-.6.5-.9.9-1.3,1.3,0,0,0,0-.2,0-1.1.9-2,1.8-2.8,2.7.1.1-.1-.1-.3,0-.5.3-.8.6-1,.9,0,0,0,0-.2,0-1.7,1.1-2.3,2.4-2.3,4.1,0,1.2-.1,2.4-.1,3.6,0,17.9,0,35.8,0,53.7,0,.7,0,1.5.2,2.2.6,2.4,2.1,3.7,4.6,3.8.5,0,1,0,1.5,0,12.9,0,25.9,0,38.8,0,.7,0,1.5,0,2.2,0,.9-.1,1.6-.4,2-1.3,0,0,0,0,.2-.2,1.3-1.5,1.1-3.1,1.1-4.7,0-14.7,0-29.5,0-44.2,0-1.3-.1-2.6-.1-4.3,0-1.9.1-3.4.2-5.1,1-.1,1.8-.3,2.6-.3,9.1,0,18.2,0,27.2,0,.7,0,1.3.2,2.1.4,0,.9,0,1.6,0,2.4,0,10.3,0,20.6,0,30.9,0,12.8,0,25.7,0,38.5,0,3.9,1.9,6.6,6.3,6.5,1.8,0,3.6,0,5.4,0,.7,0,1.3.3,2.2.5,0,1.4,0,2.6,0,3.8,0,49.4,0,98.8,0,148.2,0,33.9,0,67.8-.2,101.8-1.5,1.1-2.7,2-4,2.9-7.2,5.3-13.9,11.2-19.8,18-9.2,10.6-16.4,22.3-21.8,35.2-1.6,3.9-3,7.9-4.6,11.8M611.8,2130.1c.8.5,1.6,1,2.5,1.3,1.7.6,3.1-.2,4.3-1.3,1.1-1,1.1-2.4.7-3.7-.3-1.3-1.3-2.3-2.3-3.1-2.6-2-5.1-4.1-7.7-6-3-2.2-6.1-4.3-9-6.6-7.8-6.1-16.3-11.2-24.8-16.1-.9-.5-1.9-.9-3.2-1.8-.5-.3-1-.7-1.5-1-7.5-4-15-7.9-22.8-11.3-4-1.7-8-3.4-12.1-4.9-1.6-.6-3.2-1.1-4.9-1.4-2.7-.4-4.6,1-4.9,3.6-.2,1.9.7,3.3,2.2,4.3.9.5,2,.9,3,1.2,6.2,2.1,12.3,4.5,18.2,7.3,14.9,7,29.2,15.1,42.6,24.7.4.3.9.4,1.6,1,5.7,4.2,11.6,8.2,16.8,13,.3.2.6.3,1.3.9M186.2,2346c.4-3.2.6-6.5,1.1-9.7.8-5.7,1.5-11.5,2.7-17.2,1.2-6,2.8-12,4.4-18,3.1-11.7,7.1-23.1,12.5-34,.5-1.1,1-2.2,1.2-3.4.5-2.1-.8-3.8-2.9-4.2-2-.3-3.6.2-4.7,2-.6,1-1.2,2.1-1.6,3.2-2.4,5.9-4.9,11.9-7.2,17.8-2.8,7.3-5.1,14.9-6.9,22.5-2,8.5-3.6,17-4.8,25.6-1,7.3-2,14.6-2,22,0,.8,0,1.7-.1,2.5-.2,2.8-.4,5.5-.5,8.3-.2,8.5.4,16.9,1.3,25.3.7,6.8,1.4,13.7,2.5,20.5,1.8,10.9,4.4,21.5,7.8,32,3.4,10.5,7,20.9,11.8,30.8,3.9,8.2,8,16.3,12.6,24.1.5.8,1,1.7,1.7,2.3,2,2,5.4,1.3,6.6-1.4.7-1.6.2-3.1-.6-4.5-1.1-2-2.4-3.9-3.5-5.9-5.2-9-9.6-18.4-13.6-28.1-4.2-10.1-7.7-20.3-10.4-30.9-2.8-11.3-5-22.6-6.4-34.2-1-8.4-1.4-16.9-1.8-25.3-.3-7.3.5-14.5.9-22.4M151.7,2440c-1.4-5.8-3.1-11.5-4.1-17.3-1.6-9-3.2-18.1-4.1-27.2-.6-6.6-1.5-13.2-1.3-19.9,0-1.1,0-2.2,0-3.3-.2-2.5-.3-5.1-.6-7.6-.2-1.7-1.3-2.9-2.9-3.4-1.3-.4-2.4.2-3.3,1.1-.4.4-.8,1-.9,1.5-.3,1.3-.5,2.6-.6,3.9-.1,7.9.5,15.7,1.2,23.5.5,5.4,1,10.8,1.7,16.2.8,5.6,1.8,11.2,3,16.8,2,9.7,4.5,19.3,7.4,28.8,4.5,14.7,10.2,29,17,42.8,2.3,4.8,4.8,9.5,7.4,14.1,3.1,5.5,6.4,10.9,9.6,16.3.6.9,1.2,1.8,1.9,2.6,1.2,1.2,2.8,1.4,4.3.7,1.5-.7,2.1-1.9,2.2-3.5,0-1.5-.7-2.8-1.5-4-3.3-5.6-6.7-11.2-9.9-16.9-5.9-10.6-11.2-21.5-15.7-32.7-4.2-10.4-7.7-21.1-10.9-32.5M719.6,2376.5c0,.7-.2,1.4-.3,2.2,0,6.4-.8,12.8-1.5,19.1-.8,7.2-1.9,14.4-3.2,21.5-2.8,14.9-6.7,29.5-11.9,43.7-4,11-8.8,21.7-14,32.3-4.5,9.1-9.5,18-15.1,26.4-.7,1-1.3,2.1-1.7,3.2-.7,1.8,0,3.8,1.6,4.7,1.8,1.1,3.9.8,5.3-.8.7-.8,1.3-1.8,1.9-2.7,6-9.1,11.1-18.8,16-28.5,2.9-5.6,5.3-11.4,7.8-17.2,4.4-9.9,8-20,11.1-30.3,2.4-8,4.3-16.1,6-24.3,2.3-10.4,3.7-20.9,4.8-31.5.4-3.7.7-7.5.9-11.2.3-5.6.4-11.1.6-16.7,0-.9-.3-1.9-.6-2.8-.6-1.4-1.9-2.3-3.4-2.2-1.6,0-2.8.9-3.3,2.4-.4,1-.5,2.1-.5,3.2-.1,2.9-.1,5.8-.3,9.4M132.5,2299.4c-4.7,3.6-6.9,8.4-6.9,14.4,0,10.1,10.5,17.1,19.2,15,3.2-.8,5.8-2.2,8.1-4.4,7.6-7.3,6.7-20.2-3.5-25.8-5.5-3.1-11.1-2.6-17,.9M706.5,2313.8c.5.6.9,1.1,1.4,1.7,4.8,5.7,15.2,7.1,22.1,1.6,6.2-4.9,7.1-14.6,4.5-19.8-2.8-5.5-10.8-11.3-19.7-8.3-5.3,1.8-9.3,5.4-10.6,11-1.1,4.6-.6,9.1,2.3,13.7M668.8,2452.1c.2-1.2.5-2.4.6-3.6,0-3.1-2.6-4.6-5.2-3-.7.4-1.3,1.1-1.7,1.8-.6,1-1,2.2-1.4,3.3-3.7,10-8,19.7-13,29.1-2.3,4.3-4.7,8.5-7.1,12.6-.8,1.4-1.2,2.9-1,4.5.1,1.2.8,2,1.9,2.4,2.2.9,4.5.2,5.9-2.1,2.2-3.6,4.3-7.3,6.2-11.1,2.7-5.3,5.3-10.6,7.7-16,2.5-5.8,4.7-11.7,7.2-18Z"/>
  <path class="st15" d="M422.6,2672.8c-8.6-.3-17.2-.3-25.8-.8-14-.9-27.9-2.7-41.7-5.4-11.4-2.2-22.7-4.9-33.8-8.2-1.9-.5-3.7-1.2-5.7-2.2-.2-14.8-.1-29.2-.2-43.6,0-47.5,0-95-.1-142.5,0-1.4-.1-2.9,0-4.6.6-1.5,1.8-1.7,2.8-2.2,1.6-.8,3.4-1,4.8-2.5,2.1-.7,3.9-1.3,5.6-2.1,3.9-1.6,7.7-1.8,11.2,1.1,0,.1,0,.3.1.5.2.5.4.8.6,1.4.6,1.5,1.1,2.7,1.6,3.9.9,2,1.9,3.9,2.8,5.9,2.5,5.2,4.9,10.5,7.4,15.8,1.7,3.6,3.5,7.1,5.3,10.7,5.3,11,10.5,22,15.8,33,3.9,8.1,7.8,16.1,11.7,24.1,4.2,8.6,8.3,17.2,12.5,25.8,3.3,6.7,6.5,13.5,9.8,20.2,3.4,6.9,7,13.8,10.3,20.8,5,10.6,5.3,11.8,5.3,22.2,0,8.2,0,16.4,0,24.7,0,1.3-.2,2.6-.3,4Z"/>
  <path class="st15" d="M538,2460.2c.3.9,1,1.3,1.8,1.6,1.5.6,3.1,1.3,4.6,1.9.8.3,1.5.8,1.8,2.2,0,.8,0,1.1,0,1.3,0,59.5,0,119.1,0,178.6,0,1.3,0,2.7,0,4-5,1.8-9.9,3.8-15,5.5-18.3,6-37,10.5-56,13.3-8.4,1.3-16.8,2.4-25.2,2.9-3.6.2-7.2.4-11.2.3-.3-11-.3-21.7-.2-32.6.6-2.4,1-4.6.9-7.1,0-.3.1-.4.3-.7.2-.5.3-.9.4-1.5,0-.2.2-.5.4-.6,1.2-.8,1-1.9,1.1-3,0-.3.1-.4.3-.6.3-.2.3-.4.4-.8.1-.3.1-.4.3-.6.3-.2.3-.4.4-.8.1-.3.2-.4.3-.6.3-.2.3-.4.4-.8.1-.3.2-.5.3-.7.2-.2.3-.4.4-.8.1-.3.2-.5.3-.7.2-.2.3-.4.4-.8.1-.3.2-.4.4-.6,1.4-1.2,1.7-2.7,1.8-4.5.1-.3.2-.5.3-.7.2-.2.3-.4.4-.8.1-.3.2-.5.3-.7.2-.2.3-.4.4-.8.1-.3.2-.5.4-.7.2-.2.3-.4.4-.8.1-.3.2-.5.3-.7.2-.2.3-.4.4-.8.1-.3.2-.4.4-.6.9-.6,1-1.3,1-2.3,0-.3.1-.4.4-.6,1.5-1.9,2.7-3.7,2.9-6.3.2-.7.4-1.2.7-1.8.2-.2.3-.3.3-.6,0,0,.1-.1.3-.2,1.2-.8,1.8-1.8,1.6-3.3.2-.7.4-1.2.6-1.8.2-.2.3-.4.4-.8,0-.2.2-.5.4-.6,1-.6,1-1.4,1-2.4,0-.2.2-.5.4-.6,1-.6,1-1.3,1-2.3.2-.4.4-.6.7-.8.4-.2.4-.4.3-.9.1-.3.2-.5.4-.6.4-.2.4-.4.3-.9.1-.3.2-.4.4-.6.4-.2.4-.4.3-.9.2-.6.3-.9.4-1.3,0,0,0-.3.1-.5.1-.3.2-.5.3-.7.2-.2.3-.4.4-.8.1-.3.2-.4.3-.7.2-.2.3-.4.4-.8.1-.3.2-.4.4-.6.7-.5.9-1,.8-1.6,0,0,0,0,.2,0,.4-.2.4-.4.4-.9.2-.7.4-1.2.7-1.8.3-.2.3-.4.4-.8.1-.3.2-.5.3-.7.2-.2.3-.4.4-.8.4-.8.6-1.4,1-2,.3-.4.5-.7.7-1.2,0-.2.2-.5.4-.6,1-1.4,2-2.6,1.9-4.4.3-.6.5-1,1-1.4,1.3-1.7,2.2-3.4,2.2-5.6.1-.3.2-.5.3-.7.2-.2.3-.4.4-.8.1-.3.2-.4.3-.6.3-.2.3-.4.4-.9.4-.8.6-1.4,1-2,.3-.2.3-.4.5-.8.4-.8.7-1.4,1-2.1.2-.2.3-.4.5-.8.4-.8.6-1.4,1.1-2.1,1-.6,1-1.4,1-2.3,0-.2.2-.5.4-.6,1.1-.8,1-1.8,1.2-2.9.2-.4.4-.6.7-.9.4-.2.4-.4.4-.9.1-.3.2-.4.4-.6.4-.6.5-1.2.8-1.9.3-.6.5-1,1-1.5,1.2-.8,1-1.8,1.1-2.9.2-.4.3-.6.6-.9.4-.7.5-1.3.7-2.1,0-.2.2-.5.4-.6,1.1-.9,1.7-1.8,1.5-3.1,0,0,0,0,.3-.1.4-.7.5-1.3.8-2,.2-.4.4-.6.7-.9.9-1.2,1.8-2.2,1.7-3.8.1-.3.2-.4.4-.6.4-.2.4-.4.3-.9.2-.6.3-.9.4-1.3,0,0,0-.2.1-.4.1-.4.2-.5.3-.8.2-.2.2-.3.3-.7.2-.4.2-.5.4-.7.2-.2.2-.3.4-.7.4-.8.7-1.5,1.1-2.2.2-.2.3-.3.4-.7.1-.4.2-.5.4-.7.2-.2.3-.4.3-.7.1-.3.2-.5.3-.7.2-.2.3-.4.4-.8.2-.4.4-.6.7-.9,1.2-1.9,2.6-3.5,2.6-5.7,0,0,0,0,.3-.1.9-1.2,1.8-2.2,1.8-3.8.3-.7.4-1.2.6-1.6,4.1-8.5,8.3-17.1,12.4-25.6.6-1.3,1-2.7,1.7-4.2,2.1-1.7,4.3-2,6.6-1.9,1.8.1,3.5.6,5.2,1.4,1.3.6,2.6,1.3,4.1,1.2Z"/>
  <path class="st21" d="M455.9,2596.7c-.2.5-.4,1-.8,1.7-1.9,2-2.8,4-2.9,6.3,0,.1,0,.2-.4.6-.8.8-1.3,1.4-1,2.3,0,.1-.1.2-.4.5-.3.4-.3.6-.3.8,0,.1-.1.3-.4.6-.3.4-.3.6-.3.9,0,.1-.1.3-.4.6-.3.4-.3.6-.3.9,0,.1-.1.3-.4.6-.3.4-.3.6-.3.9,0,.1,0,.3-.5.6-1.3,1.5-1.8,2.9-1.8,4.5,0,.1-.1.2-.4.5-.3.4-.3.6-.3.8,0,.1-.1.3-.4.6-.3.4-.3.6-.3.9,0,.1-.1.3-.4.6-.3.4-.3.6-.3.9,0,.1-.1.2-.4.6-.3.4-.3.7-.3.9,0,.1,0,.2-.4.6-.3.4-.3.7-.3.9,0,.1,0,.2-.4.6-.9,1.1-1.7,1.9-1.1,3.1,0,0-.1.3-.4.6-.3.7-.3,1.1-.4,1.5,0,.1,0,.2-.4.7-.6,1.4-1.1,2.5-1.2,3.6-.2,1.2-.6,2.5.5,3.6,0,10.7,0,21.3,0,32.4-1.9.3-3.8.4-5.7.8-1.7.4-3.6.2-5.3.2-1.4,0-2.9,0-4.6,0-.3-1.3,0-2.7,0-4,0-8.2,0-16.4,0-24.7,0-10.5-.3-11.6-5.3-22.2-3.3-7-6.9-13.9-10.3-20.8-3.3-6.7-6.6-13.5-9.8-20.2-4.2-8.6-8.3-17.2-12.5-25.8-3.9-8-7.8-16.1-11.7-24.1-5.3-11-10.5-22-15.8-33-1.7-3.6-3.6-7.1-5.3-10.7-2.5-5.2-4.9-10.5-7.4-15.8-.9-2-1.9-3.9-2.8-5.9-.6-1.2-1.1-2.4-1.6-4.1-.2-.8-.5-1.1-.7-1.4,0,0-.1-.2,0-.6.8-1.8,2.1-2.4,3.4-3,1.5-.7,3.1-1.2,4.8-1.8,2-.8,3.6-2,5.6-1.6.1,1,.2,1.7.4,2.4.7,2.8,2.4,5,3.7,7.4,2.5,4.9,6,9,9.6,13.1,4.3,4.8,9.1,8.9,14.6,12.3,3.5,2.1,7,4.4,10.7,6,4,1.7,7.9,3.5,12.1,4.6,5.1,1.4,10.3,2.3,15.6,3.1,2.8.4,5.7.7,8.6.8,6.9.3,13.7-.8,20.4-2.1,7.9-1.5,15.4-4,22.5-7.6,2.1-1.1,4.1-2.5,6.1-3.8,4.5-2.7,8.7-5.7,12.3-9.4,2.5-2.6,5-5.3,7.3-8.1,2-2.5,3.9-5.2,5.7-7.9,2.1-3.2,3.9-6.7,4.3-10.6,0-.3.2-.7.6-1,1.9.6,3.6,1.1,5.5,1.8,2.1.9,3.9,1.8,5.8,2.6,1.4.5,2.1,1.5,2.4,2.9-.5,1.3-.9,2.7-1.5,4-4.1,8.5-8.2,17.1-12.4,25.6-.2.4-.3.9-.8,1.7-1.3,1.3-1.9,2.4-1.8,3.8,0,0,0,0-.3,0-1.8,2.4-2.2,3.4-2.6,5.8-.1.2-.3.4-.7.8-.3.4-.3.6-.3.8,0,.1-.1.3-.4.6-.3.3-.4.4-.4.4,0,.1,0,.3.1.4,0,.1-.1.3-.5.6-.3.3-.4.3-.4.4,0,.1,0,.3.1.4-.3.6-.6,1.3-1.2,2.1-.3.2-.5.5-.5.5l.2.3c0,.1-.1.3-.5.6-.3.2-.5.5-.5.5l.2.3c0,.1-.1.3-.4.6-.3.2-.4.3-.5.3.1,0,.3.2.4.2-.1.3-.2.7-.5,1.3-.3.5-.4.6-.4.9,0,.1-.1.2-.5.6-1.3,1.2-1.9,2.3-1.7,3.8-.1.2-.2.4-.7.9-.5.8-.6,1.4-.8,2,0,0,0,0-.3,0-1.3.8-1.9,1.8-1.5,3.1,0,0-.1.3-.4.6-.4.9-.6,1.5-.7,2.1-.1.2-.2.4-.7.9-.9,1-1.7,1.8-1.1,3-.2.4-.4.8-1,1.4-.9.7-.9,1.3-.7,2,0,.1,0,.2-.4.6-.4.4-.5.6-.4.9-.1.2-.3.5-.7.9-.9,1-1.7,1.8-1.2,3,0,0-.1.3-.4.6-.8.9-1.3,1.5-1,2.4-.2.6-.5,1.2-1,2-.3.4-.4.6-.4.9-.3.6-.5,1.2-1.1,2-.4.4-.4.7-.4.9-.3.6-.6,1.2-1.1,2-.3.5-.3.7-.3.9,0,.1-.1.2-.4.6-.3.4-.3.7-.3.9,0,.1,0,.3-.5.6-1.4,1.9-2.2,3.6-2.2,5.6-.2.4-.5.7-1,1.4-1.5,1.4-1.9,2.9-1.9,4.5,0,0-.1.3-.4.5-.4.5-.5.9-.6,1.2-.2.6-.5,1.2-1.1,2-.3.4-.3.6-.4.9,0,.1-.1.3-.4.6-.3.4-.3.6-.3.9-.2.5-.3,1-.7,1.8-.4.5-.5.7-.4.9,0,0,0,0-.3,0-1,.4-1.2,1-.7,1.7,0,.1-.1.2-.4.5-.3.4-.3.6-.3.9,0,.1-.1.3-.4.6-.3.4-.3.6-.3.9,0,.1,0,.3-.4.6-.3.2-.4.3-.5.3.1,0,.3.2.4.3,0,.3-.2.6-.5,1.3-.4.5-.4.7-.4.9,0,.1-.1.2-.3.6-.4.4-.4.6-.4.8,0,.1-.1.3-.4.6-.4.4-.4.6-.4.8-.2.2-.3.4-.8.8-1.1.8-1.5,1.4-1,2.4,0,0-.1.3-.4.6-.8.9-1.3,1.5-1,2.4,0,0-.1.3-.4.5-.3.4-.3.6-.3.9-.2.5-.3,1-.8,1.8-1.3,1.1-2,2-1.5,3.3,0,0,0,0-.3,0-.2.2-.2.4-.2.6Z"/>
  <path class="st12" d="M315.1,2465.8c0,1.4.2,2.9.2,4.3,0,47.5,0,95,.1,142.5,0,14.4,0,28.8,0,43.5-7-2-14-4.2-20.9-6.8-5.6-2.1-11.1-4.6-16.8-7.5-.1-12.6-.1-24.7-.1-36.8,0-39.1,0-78.2,0-117.2,0-1.9-.2-3.9-.1-6,1.4-.9,2.7-1.5,3.9-2.2.7-.4,1.3-.9,2.3-1.4,1-.1,1.7,0,2.4-.3,1.9-.7,3.7-1.6,5.6-2.4,5.4-2.5,10.9-5,16.4-7.4,2.3-1,4.4-2.5,7.1-2.2Z"/>
  <path class="st52" d="M546.6,2649.8c-.3-1.3-.4-2.6-.4-3.9,0-59.5,0-119.1,0-178.6,0-.2,0-.5,0-1.1,2.1-.4,3.8.3,5.6,1.1,1.7.7,3.3,1.4,5,2.1,2.2,1,4.4,2,6.6,3,4.5,2,9.1,3.9,13.6,5.9,1.8.8,3.4,1.7,5.3,3.1.1,14,.1,27.4.1,40.8,0,1.2,0,2.4-.2,3.6-.9,4-.6,8-.3,11.9.2,2,.5,4.1.5,6.1,0,6.3,0,12.6,0,18.9,0,23.7,0,47.4,0,71.1-.4.3-.7.6-1.2.8-11,5.6-22.3,10.6-33.9,15-.2,0-.5.1-1,.2Z"/>
  <path class="st21" d="M179.5,2576.9c1.3-4.1,2.7-8.1,4.3-11.9,5.4-12.9,12.6-24.6,21.8-35.2,5.9-6.8,12.6-12.6,19.8-18,1.3-.9,2.5-1.9,4.2-3,3-1.9,5.5-3.6,8.3-5.4,2.5-1.1,4.7-2.2,6.9-3.1.2,3.4.5,6.6.5,9.7,0,37.1,0,74.2,0,111.3,0,1.4,0,2.9-.1,4.3-9.2-5-17.9-10.8-26.5-16.8-5.6-3.9-11-8.2-16.4-12.3-3.4-2.6-6.9-5.3-10.1-8.1-3.3-2.8-6.4-5.8-9.6-8.7-1-.9-1.9-1.8-3.1-2.8Z"/>
  <path class="st53" d="M245.5,2625.8c-.2-1.6,0-3,0-4.5,0-37.1,0-74.2,0-111.3,0-3.1-.3-6.3-.3-9.9,1.3-4.1,3.7-6.6,7.2-8.2.6-.3,1.1-.9,1.9-1.4,2.9-.9,5.7-1.4,8.1-3.2.6,0,1,.1,1.3,0,3.7-1.6,7.3-3.1,10.9-4.7.3-.1.5-.5,1.1-.7.8,0,1.3,0,1.8,0,0,1.9.3,3.9.3,5.8,0,39.1,0,78.2,0,117.2,0,12.1,0,24.2,0,36.7-1.8-.3-3.7-.9-5.4-1.8-7.8-3.9-15.6-8-23.4-12-1.1-.5-2-1.3-3.3-2Z"/>
  <path class="st25" d="M584.7,2481.4c1.7.7,3.3,1.4,5,2.1,5.4,2.3,10.9,4.6,16.3,7,1.1.5,2.2,1,3.3,1.4,3.4,1.4,5.7,3.9,7.3,7.8,0,2.3,0,3.9,0,5.6,0,34.8,0,69.6,0,104.4,0,1,.2,1.9.3,2.9-.4,1.7-1.8,2.5-3.1,3.3-6.5,3.9-12.9,7.9-19.5,11.8-3.1,1.8-6.4,3.4-9.8,4.8-.3-34.1-.3-68-.3-101.8,0-14.9,0-29.7,0-44.6,0-1.6-.2-3.2.6-4.6Z"/>
  <path class="st49" d="M617.1,2612.6c-.4-.9-.5-1.9-.5-2.9,0-34.8,0-69.6,0-104.4,0-1.7,0-3.4.2-5.4,3.7,1.7,7.5,3.7,11,6,7.1,4.6,13.8,9.8,20.1,15.5,3.3,2.9,6.1,6.2,8.9,9.5,7.9,9.4,14.7,19.5,19.5,31,0,1.5-.3,2.6-1.2,3.5-4.3,4.2-8.5,8.6-12.9,12.8-3.7,3.5-7.5,6.8-11.4,10-6.2,5-12.4,10-18.7,14.8-3.7,2.9-7.6,5.5-11.5,8.1-1,.7-2.2,1-3.5,1.5Z"/>
  <path class="st30" d="M584.5,2481.3c-.6,1.6-.4,3.2-.4,4.7,0,14.9,0,29.7,0,44.6,0,33.8,0,67.7,0,101.8-.3.6-.7.9-1.3,1.2-.3-23.7-.3-47.4-.3-71.1,0-6.3,0-12.6,0-18.9,0-2-.3-4.1-.5-6.1-.4-3.9-.7-7.9.3-11.9.3-1.2.2-2.4.2-3.6,0-13.4,0-26.9,0-40.6.6-.3,1.2-.3,1.9-.2Z"/>
  <path class="st17" d="M384.2,2064c.4-1.5.6-3.1,1.1-4.6,1.2-3.7,3.7-6.1,7.4-7.5,5.3-2,10.7-3.8,16.3-4.9,6.9-1.4,13.8-2.3,20.8-2.5,9.7-.2,19.2,1.4,28.6,4,3.6,1,7.2,2.2,10.7,3.3,3.6,1.1,6.1,3.2,6.8,7.2.3,1.5.8,3,1.3,5.1,0,1.5-.2,2.5-.3,3.5-.4,2.1-1,4.2-1.1,6.4-.1,2.8-.5,5.5-1.2,8.2-1,4.1-1,8.3-1.7,12.5-.3,1.6-.2,3.3-.6,5-.6,2.3-.6,4.8-.9,7.1-.3,2.6-.6,5.2-1,7.9-.4,2.9-.8,5.7-1.2,8.6-.3,2.6-.5,5.3-.9,7.9-.6,3.8-1.4,7.6-1.9,11.4-.2,1.7-.4,3.3-.7,5-.2,1.1-.4,2.4.4,3.5,1.2.6,2.1.3,2.7-.9.3-.8.6-1.6.9-2.4,1.8-7.1,3.6-14.2,5.4-21.3,2.1-8.8,4-17.6,6.2-26.3,1.2-4.8,2.8-9.5,3.8-14.3.8-3.9,1.7-7.7,2.6-11.6.3-1.4.9-2.7,1.3-4.1,2.5,1.3,5,2.4,7.4,3.8,6.5,4,12.6,8.6,18.2,13.8,6,5.4,11.6,11.3,16.5,17.8,4.2,5.6,8,11.5,11.4,17.7,2.7,5,5.3,10,7.2,15.4.4,1.2,1.1,2.4,1.8,4.1.9,3.3,1.7,6.1,2.4,9.1.6,3.9,1.2,7.6,2,11.2.4,1.7.3,3.6,1.6,5.3.4,3.5.9,6.7,1.3,10.3.2,5.3.4,10.2.7,15.1.1,1.9.4,3.8.6,5.7.3,2.9,1.9,4.9,4.2,6.4,1,.6,2.1,1.1,3.2,1.6,1.7.8,3.2,1.6,4.5,3,.3.3.8.5,1.3,1,.4,2.7-.7,4.4-2.6,5.6-.7.4-1.5.7-2.2,1.2-.6.4-1.1.8-1.7,1.2-2.8,0-5.4.8-7.9,1.7-.4.1-.7.6-1.4,1.1-1.4.3-2.3.4-3.3.6-9.5,2-19.1,3.7-29.1,4.9-3.1.2-5.8.4-8.6.7-4.1.4-8.1,1-12.2,1.2-7.2.4-14.5.9-21.7,1.4-4.9.4-9.9.4-14.8.7-10.2.6-20.5,0-30.8.7-5.6.4-11.4.4-17-.4-12.3.2-24.6-.6-37-.9-1.1,0-2.2,0-3.3,0-6.5-.4-13-.9-19.5-1.4-4.1-.3-8.2-.5-12.3-.8-.2,0-.5,0-.7,0-3.1-.8-6.2-.5-9.6-.7-.7-.3-1.2-.5-1.6-.6-11.4-1.5-22.7-3.3-33.8-6.3-.9-.3-1.9-.3-2.9-.5,0,0-.2,0-.4-.1-.9-.3-1.6-.5-2.3-.5,0,0,0,0,0-.2-.5-.3-.9-.3-1.5-.5-.3-.1-.4-.1-.6-.4-1.2-.9-2.4-1.5-3.3-2.4-2.4-2.1-2.5-5-.4-7.3.6-.7,1.2-1.5,2-2.3,2.4-.9,4.2-2.2,5.9-3.6,1-.9,1.8-1.8,1.9-3.4,1.6-2,1.5-4.2,1.8-6.3.6-4.3,1-8.6,1.4-12.9.1-1.7,0-3.3,0-5.3.3-2.8.5-5.2,1-7.8.6-1.4,1.1-2.6,1.3-3.9.8-3.6,1.4-7.3,2.2-11,2.1-9.7,5.6-18.9,10.1-27.7,2.7-5.2,5.5-10.4,9.2-15.1,1.8-2.3,3.5-4.6,5.2-7,.9-1.3,2.2-2.3,2.5-4.1,2.1-2.3,4-4.5,5.9-6.7,1.5,0,2.2-1.3,3.2-2.1,3.1-2.7,6-5.6,9.3-8,5.3-3.9,10.5-8,16.4-11,.8-.4,1.5-.7,2.6-.9.8,1.7,1.2,3.2,1.5,4.7.4,1.6.5,3.4,1.1,4.9,1.9,5,2.4,10.3,3.9,15.4,1.6,5.5,2.6,11.2,4.3,16.8,1.4,4.6,2.5,9.3,3.7,14,1.9,7.4,3.6,14.7,5.5,22.1.2.7.4,1.4.8,2,.5.8,1.2,1.1,2.3.6.5-1.9.4-3.9,0-6-.2-.9-.4-1.9-.4-2.8,0-3-.7-6-1.1-8.9-.6-3.8-1.2-7.6-1.8-11.4-.4-2.9-.4-5.8-.9-8.6-.6-3.7-1.4-7.3-1.4-11.1,0-.4,0-.7-.2-1.1-.6-3.8-1.5-7.6-1.9-11.4-.4-3.8-.9-7.6-1.6-11.4-.2-1.4-.5-2.8-.7-4.3-.3-2.7-.5-5.5-.9-8.2,0-.6-.4-1.1-.7-1.7M355.4,2203.5c2.7-.5,5.4-1,8.2-1.4,3-.4,6-.5,9-.8.4,0,.7,0,1.1-.2,1.5-.7,3.1-.5,4.7-.5.7,0,1.5.1,2.2,0,4-1.1,8.2-.5,12.3-.7.8,0,1.8.1,2.5-.2,1.8-.7,3.6-.5,5.4-.5,6.7,0,13.3,0,20,0,1.1,0,2.2-.1,3.2-.2,1.3-.1,2.6-.4,3.9-.4,5.4,0,10.9,0,16.3,0,1,0,2,0,2.9.2,1.5.5,3.1.5,4.7.5,3.5,0,7,0,10.5,0,1,0,2-.2,2.9,0,3.3,1,6.7.5,10.1.6,1.2,0,2.5-.1,3.6.2,1.7.5,3.3.4,5,.5,1.3,0,2.6.3,3.9.5.8,0,1.7.2,2.5.2,3.5,0,6.9,1.1,10.4.8.3,0,.7.2,1.1.2,3.8.6,7.6,1.4,11.4,1.8,4.6.5,9,1.5,13.5,2.4,1.8.3,3.5.9,5.3,1.2,1.3.2,2.7.1,4,0,.9,0,1.5-.8,1.6-1.7,0-.9,0-1.7-.9-2.2-.6-.3-1.3-.6-2-.8-5.6-1.5-11-3.4-16.8-4.4-4.7-.8-9.5-1.6-14.2-2.5-3.4-.6-6.9-1.2-10.3-1.6-3.6-.4-7.1-1.2-10.7-1.3-.5,0-1,0-1.4-.1-1.9-.7-3.8-.6-5.7-.6-.8,0-1.8,0-2.5-.2-1.7-.6-3.3-.5-5-.5-2.5,0-5.1.3-7.6-.2-2.5-.5-5-.5-7.6-.5-3.5,0-7,0-10.5,0-1.1,0-2.2,0-3.2-.3-2.9-.7-5.8-.6-8.7-.2-2,.3-4.1.5-6.1.5-5.9,0-11.9,0-17.8,0-.8,0-1.8-.2-2.5,0-3.1,1-6.2.5-9.4.7-1.1,0-2.2.1-3.2.2-1.3.1-2.6.3-3.9.5-1,0-2,0-2.9.2-3.4,1-6.9.4-10.4,1.2-2.7.6-5.5.5-8.2.9-4.4.7-8.7,1.6-13.1,2.2-5.5.8-10.8,2.1-16.2,3.4-2.9.7-5.8,1.7-8.6,2.6-.9.3-1.7,1-2.3,1.6-.3.3-.4,1.1-.2,1.6.2.9.8,1.4,1.8,1.5,1.6.1,3.1-.4,4.6-.6,5.2-.6,10.1-2,15.2-2.8,2.6-.4,5.2-.7,8.5-1Z"/>
  <path class="st35" d="M559.1,2266.8c.4.9.8,1.8,1.2,2.6,4.1,7.4,5.5,15.3,5.1,23.7-.4,7.3-2.4,14-5.8,20.4-4.2,8.1-10.4,14.1-18.5,18.3-.5.3-1,.6-2.1,1-3.2.7-5.9,1.3-8.8,2-.2.4-.5.9-.6,1.4-.5,2.1-1,4.2-1.6,6.3-3.2,11.9-7.3,23.5-14.3,33.9-.8,1.2-1.1,2.4-1.4,3.7-1.8.7-2.6,2.1-3.5,3.6-.7.6-1.3,1-1.7,1.6-4.2,5.3-8.9,10.1-14.2,14.4-1,.8-1.8,2-2.9,3-3,2.4-5.3,5.2-8.6,6.9-.3.2-.5.5-.8.7-3.3,2.5-6.4,5.1-9.8,7.3-2.8,1.8-5.8,3.4-8.9,4.8-4.7,2.1-9.5,4.3-14.5,5.6-.7.2-1.4.5-2.1.6-3.7.7-7.4.8-11.1,1.4-4.9.7-9.9,0-14.7-.9-4.5-.8-9.3-1.3-13.3-4.2,0,0-.2-.1-.3-.2-4.1-.9-7.4-3.4-11-5.4-4.9-2.7-9.6-6-14.1-9.5-2.4-1.9-4.8-4-7.3-5.8-.6-.5-1.5-.5-2.4-1-.8-1-1.5-1.9-2.2-2.6-5-4.5-10.1-8.8-14.1-14.3-.8-1-1.6-2.2-3.1-2.6-.6-1.1-1.1-2.1-1.6-2.9-.3-.5-.8-.7-1.3-1.4-1.1-2.3-2.1-4.4-3.3-6.3-5-7.8-8.1-16.4-10.7-25.3-1.1-3.7-1.9-7.5-2.8-11.2-.3-1.2-.9-2-2.1-2-1.9,0-3.6-.7-5.3-1.1-.8-.2-1.7-.2-2.7-.5-2.6-1.7-5.2-3-7.5-4.8-6.6-4.9-11.1-11.3-14.4-18.8-3.5-7.9-4.7-16.2-3.7-24.8.7-5.3,2.5-10.3,5.1-15,.5-.8,1.1-1.6,1.2-2.7,2.3-1.5,4.3-3,6.5-4.3,2.9-1.8,6.1-2.9,9.5-3,1.7,0,3,.5,4,1.9,1.4,2,2.2,2.2,4.2,1,.8-.5,1.6-1.1,2.3-1.7,3.2-3.4,4-7.3,2.6-11.7-1.3-3.9-2-3.6,1.7-7.1,2-1.9,3.3-4.1,3.8-6.8.3-1.8.5-3.6,1.1-5.4,4.3.3,8.3.5,12.2.8.4,0,.7.2,1.1.2,1.2.2,2.4.4,3.6.4,2.2,0,4.4,0,6.5,0,1,0,1.9.1,2.9.3,1.3.1,2.6.4,3.9.4,2.7,0,5.4-.4,8,.2,3.9.8,7.7.4,11.5.6,1.6,0,3.2-.3,4.7.1,2.8.8,5.5.6,8.3.6,4.7,0,9.4,0,14.2,0,1.1,0,2.2.2,3.2.3,1.2.1,2.4.4,3.6.4,8.5,0,16.9,0,25.4,0,1,0,2,0,2.9-.3,1.4-.5,2.8-.5,4.3,0,.7.2,1.4.3,2.1.3,4.5,0,8.9-1.1,13.3-.8.2,0,.5-.1.7-.2,1.3-.2,2.6-.4,3.9-.4,2.5,0,5.1,0,7.6,0,.8,0,1.8.1,2.5-.2,1.9-.7,3.8-.5,5.7-.5,1.7,0,3.5.2,5.1-.2,2-.5,4.1-.5,6.1-.5,1.6,0,3.2.2,4.7-.2,2.2-.6,4.3-.5,6.5-.5,1.1,0,2.3.2,3.3,0,3-.9,6-.5,9.1-.3.1,1.4.2,2.5.2,3.6,0,3.6,1.2,6.6,3.9,9.1.7.7,1.4,1.3,2.1,2,.8.8.9,1.7.5,2.7-.5,1.2-1.1,2.4-1.5,3.7-1.4,4.8,1.1,9.8,5.8,11.9.9.4,1.9.1,2.6-.7.2-.3.4-.6.6-.9.9-1.6,2.3-2,4-1.9,5.1.3,9.8,1.6,13.4,5.5.7.8,1.4,1.7,2.6,1.8M425.3,2349.9c-9.8,0-19.6,0-29.4,0-1.9,0-3.8,0-5.7.6.3,1.6,1,2.9,2,4,4.3,5.2,9.3,9.4,15.5,12.2,10.1,4.6,20.8,5.5,31.6,4.2,10.4-1.2,19.4-5.7,27-12.9,1.7-1.7,3.5-3.4,4.5-5.6.3-.6.4-1.3.6-2.1-1.6-.8-3.2-.6-4.7-.6-13.5,0-27.1,0-41.3,0M307.9,2286c-.9,2.5-1.1,5.1-.5,7.5,1,4.3,1.9,8.7,4.2,12.6,1.6,2.7,3.1,5.4,6.2,6.7,1,.4,1.8,1.2,2.7,1.8.5.3,1,.6,1.6.8,1.3.5,2.7,1,4,1.5.5.2,1.1.3,1.8.5.1-.8.3-1.4.3-2-.2-2.9-.4-5.8-.8-8.6-.6-3.9-1.3-7.8-1.3-11.8,0-.4,0-.8,0-1.1-.9-2.3-.6-4.8-.6-7.2,0-.8.1-1.8-.1-2.5-.7-2-.5-4-.6-6.1,0-1.1,0-2.2,0-3.3,0-1.2-.6-2-1.7-2.5-2.7-1.3-6.9-.8-9.2,1.2-3.5,3.1-5.1,7.2-5.9,12.3M554.2,2294.4c0-1.7,0-3.4,0-5.1,0-5.2-1.8-9.9-4.6-14.2-.5-.7-1-1.4-1.7-1.8-.9-.6-1.9-1.2-2.9-1.3-1.5-.2-3.1-.1-4.7,0-1.4,0-2.5,1.2-2.7,2.5-.3,2.6-.8,5.3-.7,7.9.1,3.9-1.1,7.7-.8,11.5-.8,2-.7,4-.7,6.1,0,.4,0,.7-.1,1.1-.2,1.4-.4,2.9-.6,4.3-.1,1.1-.4,2.1-.5,3.2-.1,1.3-.2,2.6-.3,4,0,1.4-.2,2.8-.3,4.4,1.1,0,2,.1,2.7-.2,2-.8,4-1.6,6-2.6,1.3-.6,2.6-1.4,3.5-2.5,3.3-3.9,6-8.1,7.4-13.1.3-1.2.6-2.3,1-4.1M400.1,2242.5c-.6-.1-1.2-.3-1.8-.4-5.1-1.4-10.4-2.1-15.6-2.7-1.8-.2-3.6-.2-5.4,0-8.5,1.2-16.3,4.3-23.2,9.5-1,.8-2,1.8-2.9,2.8-.9,1-.7,2.2.3,3.3.9,1,1.7,1.2,2.9.6,1.2-.6,2.3-1.4,3.4-2.1,7.8-5,16.4-6.3,25.3-5.3,4.4.5,8.7,1.7,13.1,2.5,1.4.3,2.9.3,4.3.3,1.2,0,2.1-.5,2.6-1.6,1.5-3.6,2.6-5.2-3.1-6.8M491.5,2248.4c5.5,1.2,10.6,3.1,15.1,6.6.3.2.6.5.9.6,1.1.6,2.3.2,3.2-.9.8-1,.9-1.9,0-2.9-1.3-1.4-2.7-2.7-4.3-3.9-3.3-2.5-7-4.3-10.8-5.7-4.9-1.8-9.9-3-15.1-3-.7,0-1.5,0-2.2.1-3,.4-6,.8-8.9,1.4-3.3.7-6.5,1.6-9.8,2.6-1.9.6-2.3,1.8-1.9,3.7.6,2.6,2.2,3.8,4.9,3.7.7,0,1.5,0,2.2-.2,2.8-.6,5.7-1.2,8.5-1.8,5.8-1.3,11.7-1.2,18.2-.4M387.1,2266.4c-.8-.5-1.6-1.1-2.4-1.5-2.7-1.4-5.2-.8-7.5.8-1.3,1-2.5,2.3-3.3,3.7-3.3,5.9-2.4,11.6,1.2,17,2.2,3.3,5.1,4.2,8.8,3.1,4.3-1.3,7.3-5.1,7.6-9.6.3-4.9-.7-9.3-4.4-13.5M488.2,2283c.3-.8.5-1.6.8-2.4,1.4-4.7.6-11-4.5-15-1.4-1.1-3-1.8-4.7-1.6-3.1.5-5.7,1.7-7.3,4.8-2.3,4.6-2.4,9.3-1.2,14.1.9,3.3,3.2,5.3,6.2,6.6,2.3,1,4.5.7,6.5-.9,1.7-1.4,3.3-2.9,4.2-5.6M437,2330.2c3.8-.7,7.3-2.4,10.9-3.7.9-.3,1.7-1,2.3-1.7,1.3-1.5,1.9-3.4,1.6-5.4-.2-1.2-1.3-1.9-2.4-1.5-.9.4-1.8.8-2.4,1.5-.9.9-2.1,1.3-3.2,1.6-1.9.5-3.8.7-5.5,1.6-4.7.2-9.4.8-14-.3-3.4-.8-6.8-1.6-9.9-3.4-1.4-.8-3-.9-4.4.1,0,.8,0,1.5-.2,2.2-.3,2.1.7,3.4,2.4,4.3,2.6,1.4,5.4,2.5,8.2,3.5,5.2,1.9,10.6,2,16.6,1.1M440.8,2389.2c1.2-.6,2.4-1,3.8-1.2,2.2-.2,3.1-1.6,2.9-3.8-.1-1.2-.9-2-2.2-1.9-.9,0-1.9.3-2.8.6-3.3,1.1-6.7,1.8-10.3,1.6-1.2,0-2.4,0-3.6,0-.8,0-1.7,0-2.5-.3-2.3-.5-4.7-1.1-7-1.6-2.7-.6-3.5,0-3.5,2.9,0,.5.2.9.2,1.5,1.7.5,3.2,1.1,4.8,1.5,4.2,1.2,8.4,2.2,12.8,1.8,2.3-.2,4.5-.5,7.4-1M379.2,2338.3c-3.9,3.6-5.6,8.3-6.5,13.3-.1.6,0,1.2,0,1.8.1,1.3,1.1,2.1,2,2.8.8.7,1.7.8,2.9,0,.2-1.2.6-2.5.8-3.9.4-3.7,1.2-7,4.6-9.2,1.3-.9,2.1-2.5,3.1-3.9.2-.3.2-1,0-1.4-.5-1.5-2-2.2-3.5-1.5-1.1.5-2.1,1.1-3.5,2.1M487.2,2356.2c1.9-.7,1.9-2.4,1.6-3.9-.4-2.7-1-5.5-2.3-7.9-1.5-2.8-3.2-5.6-6-7.5-.8-.5-1.7-.9-2.6-1-1-.2-1.9.6-2,1.6-.2,1.7-.2,3.1,1.6,4.3,3.1,2.1,5.1,5,5.7,8.8.2,1.4.4,2.8.6,4.2.2,1.5.8,1.8,3.4,1.4Z"/>
  <path class="st23" d="M300.1,2200.2c.2,1.5-.7,2.5-1.7,3.3-1.7,1.5-3.5,2.8-6,3.4-3.7-7.5-7-14.9-10.3-22.2-.7-1.5-1.7-2.1-3.4-2.1-5.8,0-11.6,0-17.4,0-4.9,0-5.7.8-5.7,5.7,0,8.8,0,17.6,0,26.4,0,.6,0,1.2,0,1.8.2,1.5,1.6,2.9,3.1,3,.7,0,1.4,0,2.2,0,10,0,20,0,30.1,0,1.1,0,2.2-.1,3.2-.2.1,0,.2,0,.6.4.7.3,1.1.4,1.5.5,0,0,0,0,0,.2.9.3,1.6.4,2.4.5,0,0,.1-.1.3.1,1,.8,1.9,1.2,2.7,1.7,1.2.8,1.8,1.8,1.3,3.4-.3,1.2-.5,2.7-.1,3.9.7,2.2.4,3.9-1.4,5.5-1.4,1.3-2.3,3.2-2.5,5.1-.2,2.4-.2,4.7.8,7.1,1,2.2,1.1,4.7-1.3,6.7-2.9,0-5.4,0-8,.1-2.5,0-5-.4-7.7.4,0,2.7,0,5.4,0,8,0,64.9,0,129.9,0,194.8,0,6.8,0,13.5.1,20.3-.7.5-1.3,1-2,1.4-1.2.7-2.5,1.3-3.9,2.2-.7.2-1.2.2-2-.1-.3-.9-.3-1.3-.3-1.8,0-12.8,0-25.6,0-38.4,0-.1,0-.3,0-.4,0,0-.2-.1-.5-.3-.5.3-1,.7-1.5,1.2-4.5,3.8-9,7.7-13.5,11.6-5.2,4.5-10.4,9-15.6,13.6-.8.7-1.8,1.3-2,2.7.5.5,1,1.2,1.6,1.8,1.7,1.5,3.5,2.9,5.3,4.4,4.4,3.8,8.7,7.6,13.1,11.5-2.2,1.9-5,2.4-8.1,3.1-5.2-4.1-9.9-8-14.7-12-.4-.4-.9-.8-1.6-.3v25.4c-2.5,1.7-5.1,3.5-7.9,5.2-.3-33.9-.3-67.7-.3-101.6,0-49.4,0-98.8,0-148.2,0-1.2,0-2.4,0-3.8-.8-.2-1.5-.4-2.2-.5-1.8,0-3.6-.1-5.4,0-4.5.2-6.4-2.5-6.3-6.5.2-12.8,0-25.7,0-38.5,0-10.3,0-20.6,0-30.9,0-.7,0-1.4,0-2.4-.8-.1-1.4-.4-2.1-.4-9.1,0-18.2,0-27.2,0-.8,0-1.6.2-2.6.3,0,1.7,0,3.3-.4,5.3-.5,1.1-.8,1.8-.8,2.5,0,3.3,0,6.5,0,9.8,0,13.7,0,27.3,0,41,0,0,0,0-.3,0-14.6,0-28.9,0-43.2,0-.5,0-1,0-1.5,0-1.7-.2-2.8-1.3-3-3,0-1,0-1.9,0-2.9,0-17.7,0-35.3,0-53,0-2.4,0-4.8,1.5-6.9,0,0,0-.2,0-.4,0,0,0,0,.2,0,.5-.3.7-.7,1-1,0,0,.2.3.4.2,1.8-.3,2.6-1.3,2.8-2.9,0,0,0,0,.2,0,.9-.2,1.2-.6,1.3-1.3,0,0,.1-.2.5-.3.5-.3.7-.5.9-.7,0,0,0,0,.2,0,1-.1,1.3-.7,1.3-1.4.5-.5,1-.9,1.9-1.5.6-.3.7-.6.9-.8,0,0,0,0,.2,0,1-.1,1.3-.7,1.3-1.4.5-.5,1-.9,1.9-1.5.6-.3.8-.6.9-.8,0,0,0,0,.2,0,1-.1,1.3-.7,1.3-1.4.5-.5,1-.9,1.9-1.5.6-.3.7-.6.9-.8,0,0,0,0,.2,0,1-.1,1.3-.7,1.3-1.4.5-.5,1-.9,2-1.4,1.7-.2,2.3-.9,2.4-2.2.8-.7,1.5-1.4,2.7-2.2,1.7-.2,2.2-.9,2.4-2.1,0,0,.1-.2.5-.3.5-.3.7-.5.9-.8,0,0,0,0,.2,0,1,0,1.3-.6,1.3-1.4,2.9-2.5,5.8-5.1,8.7-7.6,7.9-6.6,15.8-13.2,23.7-19.8,12.5-10.4,24.9-20.7,37.4-31,.6-.5,1.3-1.1,2-1.7,0-1,.1-1.9.3-2.9,1.4-10.1,11.4-15.7,20.9-11.7,2.2.9,3.9,2.4,5.2,4.3.8,1.2,1.5,2.5,2.4,3.9,23.2,6,46.6,12,70.2,18.2-1.7,2.3-3.6,4.5-6,6.7-1.2-.2-1.8-.5-2.5-.7-19.2-5-38.3-10-57.5-15-1.3-.3-2.6-.6-3.7-.8-1.4,2.3-2.5,4.4-3.9,6.3-.8,1.1-1,2.1-.8,3.3.6,2.8,1.2,5.7,1.7,8.5,1.6,8.2,3.1,16.4,4.7,24.5,2.7,13.6,5.4,27.2,8.2,40.8.1.6.4,1.1.6,1.7,7.6,0,15.1,0,22.6.1-.2,2.5-.4,4.9-1,7.7-4.9.5-9.4,0-14.2.7.3,1,.5,1.8.8,2.5,3.2,7,6.5,13.9,9.8,20.9,0,.2.4.3.5.5M222.1,2107.2c-7.4,6.2-14.9,12.4-22.3,18.6-6.3,5.3-12.5,10.7-18.8,15.9-9.6,8.1-19.3,16.1-29,24.1-.5.4-.9,1-1.5,1.6,4.2.6,59.2.9,78.5.4.7,0,1.4-.1,2-.2.2-.5.4-.8.5-1.1,1.7-8.5,3.4-17,5.2-25.6,2.4-11.7,4.7-23.4,7.1-35.2.9-4.6,1.7-9.3,2.7-13.9.3-1.5,0-2.6-1.5-3.2-.3.1-.7.2-1,.4-7.2,5.9-14.4,11.8-21.9,18.1M174.1,2183c0-1.3,0-2.7,0-4,0-.7-.3-1.3-.4-2.1-1.1,0-2.1,0-3.1,0-9.1,0-18.2,0-27.2,0-.1,0-.2,0-.3.1-.1,0-.2.2-.3.2-.4,3-.5,45.8,0,49,3.4.5,6.9.2,10.4.2,3.4,0,6.8,0,10.2,0,3.5,0,7,.3,10.3-.2.2-.4.4-.6.4-.9,0-13.9,0-27.8,0-42.5M258.8,2307.3c-5.1,4.4-10.2,8.9-15.3,13.3-.7.6-1.6,1.1-1.8,2.3,10.8,9.2,21.7,18.4,32.5,27.6.1.1.4,0,.7,0,0-.2.3-.4.3-.6,0-18.5,0-37,0-55.4,0-.1,0-.2,0-.3,0,0-.2-.1-.6-.3-5.2,4.1-10.2,8.6-15.7,13.3M260.8,2379.1c-5.7,5-11.5,10-17.2,15-.7.6-1.7,1.1-1.5,2.6,10.6,9,21.3,18.2,32.1,27.4.1.1.4,0,.7,0,.4-3.3.6-46,.2-55.8,0-.2-.3-.3-.7-.7-4.5,3.5-8.8,7.4-13.6,11.5M237.6,2358.7c0,9.4,0,18.9,0,28.3,0,.1,0,.3,0,.3,0,0,.2.1.5.3.7-.5,1.4-1,2.1-1.6,9.4-8.1,18.9-16.3,28.3-24.5.9-.8,2-1.4,2.5-3.1-.6-.5-1.3-1.1-2.1-1.7-4.3-3.7-8.7-7.3-13-11-5.4-4.6-10.9-9.2-16.3-13.9-.5-.4-1-1.1-2-.7,0,8.8,0,17.8,0,27.4M249.9,2451c2.4-2.1,4.7-4.2,7.1-6.2,2.4-2.1,4.8-4,7.2-6.1,2.3-2.1,4.9-3.9,7-6.5-1.8-1.5-3.4-2.9-5.1-4.3-8.9-7.5-17.7-15-26.6-22.5-.5-.4-.9-1.2-1.9-.6,0,18.5,0,37,0,55.5,0,.2.3.3.6.6,4-2.9,7.5-6.4,11.7-9.8M237.6,2293.3c0,6.4,0,12.8,0,19.2,0,.5.3,1,.5,1.8.9-.7,1.6-1.2,2.2-1.8,9.8-8.6,19.7-17.2,29.5-25.8.4-.4.7-.9,1.1-1.4-1-1-1.9-1.8-2.8-2.6-7.6-6.5-15.3-13-22.9-19.6-1.8-1.6-3.7-3.1-5.6-4.6-.5-.4-.9-.8-1.6-.4,0,.1-.2.2-.2.3,0,11.4,0,22.7,0,34.8M253.8,2159.2c4-3.2,8.1-6.4,12.4-9.8-1.1-1-2-1.8-2.9-2.5-4.8-4-9.7-8-14.5-12-.6-.5-1.2-1.3-2.2-.6-.8,3.6-1.5,7.3-2.3,11-.8,3.8-1.7,7.6-2.3,11.4-.6,3.6-1.9,7.2-2.1,11.2,1.3,0,2.3.1,3.3.2,3.5-2.8,6.9-5.6,10.7-8.6M271.2,2254.6c-4.7,0-9.4,0-14.1,0-2.5,0-5.1,0-7.6.1-.1,0-.2,0-.3.1,0,0-.1.2-.3.5,8.5,7.3,16.9,14.6,25.4,21.8,0,0,.2.1.3,0,.1,0,.2-.1.3-.2.5-4.8.4-20.1-.2-22.4-.9,0-1.8-.1-3.5-.2M264.4,2138.7c1,.4,1.4,1.7,2.8,1.6,0-2.8-.9-5.4-1.3-8.1-.5-2.7-1-5.5-1.6-8.1-.6-2.6-.8-5.4-1.8-8.1-1.8.9-3,2.3-4.3,3.5-1.3,1.2-2.6,2.5-3.9,3.7-1.2,1.2-2.9,2.1-3.7,4,4.5,3.8,8.8,7.7,13.8,11.5M257.9,2093.7c-1.2-.2-2.4-.3-3.5.6-1.5,7.5-2.9,15-4.5,23.1,4.1-3.5,7.4-7,11.1-10.4-1-4.3-1.3-8.7-3.1-13.2M255.6,2166.8c-.2.5-.2,1,.5,1,5.4,0,10.8,0,16.3,0,.1,0,.2-.1.6-.3-.7-3.8-1.4-7.8-2.4-11.6-.3,0-.5-.2-.6-.1-4.7,3.6-9.4,7.2-14.4,11.1Z"/>
  <path class="st23" d="M608,2316.9c-.2-.4-.4-.7-.4-1.4.4-1,0-1.3-.5-1.5,0,0,0,0,0-.5,0-1.2.2-2.1-1-2,0,0,0,0,.2-.4.2-1.6.2-1.6-.9-1.8,0,0,0-.1.2-.5.3-1.6.9-2.6,2.2-3.1,1.2-.5,2.4-1,3.7-1.5,1.6-.6,2.6-1.6,2.9-3.2-.5-2-.9-3.9-1.3-5.7,0-.2,0-.3.6-.5.6-.5.8-1,1-1.4,0,0,0-.3.2-.5.2-.3.3-.4.3-.4,0-.1-.2-.3-.3-.4,0-.8,0-1.6.2-2.7.8-1.2,1.3-2,1.8-3,1,1.1,1.9,2,2.5,3,.8,1.3,2.1,2,3.3,2.7,2.3,1.3,4.4,1.1,6.2-.9,1.6-1.7,3.3-2.3,5.5-2,.7,0,1.4,0,2.1.1.3.4.5.6.6,1,.4,1.4,1.4,1.8,2.8,1.8,2.9.1,5.7-.2,8.4-1.5,1.3-.6,2.7-.9,4.2-1.2.9.7,1.5,1.4,1.2,2.3-.5,1.6-.6,3.3-1.9,4.5-3.1.6-3.7,1.1-3.8,3.4,0,1.5,1.1,2.5,2.3,1.7,1.5-.9,3.1-1.2,4.7-1.4.8-.9,1.5-1.7,1.9-2.2,1.5-.8,2.7.7,3.9-.2,0,0,0,0,0,.4-.4,1.1-.7,1.8-.9,2.6,1.1,1.3,2.6,1.6,3.8,2.4.6.4,1.5.8,1.6,1.3.5,2.1.8,4.2-1,5.9-1.2-.4-2.2-.7-3.5-1.2,0,.9-.3,1.7,0,2.3.4,1.4,1,2.7,1.5,4,.7,1.8.6,2.4-1,3.7-2.4,1.9-3.5,4.3-2.8,7.3.6,2.6-.1,4.5-2.4,5.8-1.7,1-2.3,2.3-2.1,4.2.2,2.2-.3,4-2,5.5-1.5,1.4-2,3.2-1.2,5.3.5,1.3.4,2.8-.1,4.4-.6,0-1.4.3-1.8,0-1.6-1.3-3.6-1.1-5.5-1.5-.9-.2-1.6-.2-2.3.3-1.1.8-2.2.8-3.3,0-.3-.2-.6-.5-.9-.6-.4,0-1,0-1.3.2-.3.3-.4.9-.4,1.3,0,.9.6,1.5,1.5,1.8.7.2,1.3.5,2,.8,0,2.1,0,4,0,5.9,0,.8-.2,1.7-.7,2.4-.7,1.1-.9,2.2-.4,3.4.7,1.5,0,2.5-1.2,3.7-1.4-1.2-3.3-1.1-4.2-3.1,1-1.8,1.5-3.7,1.4-5.8,0-.9.4-1.9.6-2.8.3-1.8-.8-3.3-2.7-3.6-.5,0-1,0-1.4,0-.8,0-1.7,0-2.5,0-2-.1-2.4-.5-2.6-2.6,0-.7-.2-1.4-.3-2.2-1.4-.6-2.8-1.1-4-1.7-1.5-.8-1.9-2.2-1-3.6.5-.7,1.1-1.3,1.5-2,.4-.6-.3-1.5-1-1.5-.7,0-1.3.2-2,.3-.4-1-.7-1.8-1.1-2.5-1.8-2.5-2-5.3-2.2-8.2-.2-3.8-1-7.4-4-10.1-.7-.6-1.2-1.5-1.9-2.4-.2-.3-.4-.5-.6-.6M628.8,2304c-.1.2-.3.4-.6,1.1-.5.8-1,1.6-1.7,2.6-.2.2-.2.4-.2.6,0,0,.1,0-.4.2-1,1.7-1.4,3.5-1,5.5.2,1.3.5,2.6.6,3.9.2,2.2,1.1,3.3,3.4,3.3,1.6,0,3.1.3,4.3,1.3.4.4,1.1.5,1.6.7,1.7-.5,3.3-1,4.9-1.6,1.3-.4,1.9-1.4,1.9-3.1.8-.8,1.7-1.7,3.1-2.5.9-.4,1.8-.6,2.6-1.1,1.4-1,1.8-2.2,1.1-3.7-.6-1.4-1.4-2.8-2.1-4.2-.4-.8-1.2-1.1-2.5-1.2-.6-.6-1.1-1.2-1.6-2.5,0-1.1,0-2.2,0-3.2-.1-1.7-2-3.4-3.6-3.4-1.8,0-3.5.3-5.3.6-.6,0-1.1.4-1.6.7-1.9,1.3-2,3.1-1.7,5.1,0,0,0,0-.3.1-.1.2-.3.4-.4.6,0,0,0,0-.3.2M620.9,2330.3c-1,1.8-.7,3.4.3,5.1.7,1.1,2.5,1.5,3.8.8,1-.5,1.3-1.9.7-3.2-.4-.7-.8-1.5-1.2-2.2-.8-1.7-1.1-1.8-3.7-.5M634.9,2344.9c0,.8,0,1.5,1,1.6,1,0,2.2-.7,2.2-1.4,0-.3-.2-.7-.5-.9-.9-.6-1.8-.7-2.7.7M626.5,2304.3s0,0,0,0Z"/>
  <path class="st45" d="M553.8,2151.3c-.8-2.8-1.6-5.6-2.3-8.6,11.7,2.7,23.5,5.6,35.2,8.6,17.1,4.4,34.2,8.8,51.2,13.2,3.3.8,6.5,1.8,9.8,2.7,2.1.6,4.2.8,6.4.8,10.5,0,21,0,31.6,0,5,0,3.9-.6,7.8,3.5,1.4,1.5,2.6,3.2,3.9,5.1,0,.3,0,.3-.3.3-1,0-1.5-.5-2-1-1.8-1.9-3.8-3.7-5.6-5.5-.9-.9-2-.8-3-.5-.6.1-1,.6-1.5.9-.8.4-1.7.6-2.4,0-1.6-1.3-3.4-1.1-5.2-1.1-1.9,0-3.9,0-5.8,0-2,0-3.8,0-5.4,1.5-2.1-.6-4-1-6.1-.3-2.2.7-3.9-1.6-6.2-1.2-1.7.3-3.3-.3-4.9-.8-2.3-.8-4.8-1.5-7.5-1.2-1.1,1.4-2.4,2.4-4.3,2.9-3.3.7-4.7,2.5-5.1,6-.2,1.8-.5,3.6-.9,5.3,0,.4-.6.7-1.1,1-1-1.1-1.9-2.2-2.9-3.4-.9,1.1-1.7,2-2.5,2.9-3.3,4.2-6.5,8.5-9.7,12.7-3.2,4.1-6.3,8.1-9.6,11.9-.7-1.7.7-2.6,1-3.8-.3-1.4-1-2.2-2.4-2.2-.9,0-1.9.1-2.4-1.1.9-1.3,1.6-2.4,2.4-3.4,4.6-6.1,9.2-12.1,13.9-18.2.4-.5,1.1-1,.5-1.9-16.1,0-32.3,0-48.5,0-.1,0-.3,0-.3.1,0,0-.1.2-.2.5.3.4.5.9.9,1.3,6.4,8.2,12.8,16.4,19.2,24.6,1.5,1.9,2.9,3.8,4.3,6,0,.4,0,.6-.3.9-2.3,1.3-4.4,2.5-6,4.4-1.1,1.2-1.3,2.5-.4,4.1,2.3.3,4.8,0,7.1.1,1.1,0,2.1-.2,3-.9,2.4-1.9,5.3-1.3,8-1.1.9,0,1.4.9,1.5,1.8.2,1.3,0,1.7-1.5,2.2-.2-.4-.4-.5-.7-.6-.6-.2-1.1-.5-1.7-.5-11.3,0-22.6,0-33.9,0-.5,0-1,.1-1.7.2.3-.4.8-.8,1.4-1.2.7-.4,1.5-.7,2.2-1.2,1.9-1.2,3.1-2.9,3-5.7,1.5-.4,2.7-.4,3.9-.4,1.2,0,2.4,0,3.6,0,1.1,0,2.3.2,3.6-.2-.3-1.5-1.2-2.3-1.9-3.2-4-5.2-7.9-10.4-11.9-15.5-2.6-3.3-5.2-6.6-7.9-9.9-1.2-1.5-2.4-3.1-4.2-3.9-.5-3.2-.9-6.4-1-9.9,19.2-.3,38.1-.3,56.9-.4,0,0,0-.2.2-.5-.2-.5-.8-.6-1.4-.7-8.4-2.2-16.8-4.4-25.3-6.6-11.5-2.9-23-5.8-34.4-8.7Z"/>
  <path class="st34" d="M186.2,2346.3c-.3,7.6-1.1,14.8-.8,22.1.3,8.5.8,16.9,1.8,25.3,1.4,11.5,3.5,22.9,6.4,34.2,2.7,10.6,6.2,20.8,10.4,30.9,4,9.6,8.4,19,13.6,28.1,1.1,2,2.4,3.9,3.5,5.9.8,1.4,1.2,2.9.6,4.5-1.1,2.7-4.5,3.5-6.6,1.4-.7-.7-1.2-1.5-1.7-2.3-4.7-7.8-8.7-15.9-12.6-24.1-4.7-9.9-8.4-20.3-11.8-30.8-3.4-10.5-6-21.2-7.8-32-1.1-6.8-1.8-13.6-2.5-20.5-.9-8.4-1.5-16.9-1.3-25.3,0-2.8.3-5.5.5-8.3,0-.8.1-1.7.1-2.5,0-7.4,1-14.7,2-22,1.2-8.6,2.8-17.2,4.8-25.6,1.8-7.6,4.1-15.2,6.9-22.5,2.3-6,4.7-11.9,7.2-17.8.5-1.1,1-2.2,1.6-3.2,1.1-1.7,2.7-2.3,4.7-2,2.1.4,3.4,2.1,2.9,4.2-.3,1.2-.7,2.3-1.2,3.4-5.4,10.9-9.4,22.3-12.5,34-1.6,6-3.2,11.9-4.4,18-1.1,5.7-1.8,11.4-2.7,17.2-.5,3.2-.7,6.5-1.2,10.1Z"/>
  <path class="st13" d="M512.7,2380.2c0-1.3.4-2.5,1.2-3.7,7-10.4,11-21.9,14.3-33.9.6-2.1,1-4.2,1.6-6.3.1-.6.5-1.1.6-1.4,2.9-.7,5.6-1.3,8.6-1.9-.2,3.4-1.5,6.5-4,8.9,5.9,7.3,4.9,13.8.4,20.8,5.1,6.8,4.3,13.6-.5,20.4,5.8,6.7,4.8,13.7.2,20.6,5.2,6.9,4.4,13.8,0,20.7,4.7,6.9,4.6,13.8,0,20.7,3.9,4.2,3.8,9.3,3,14.7-1.6.4-2.9-.3-4.2-.9-1.6-.7-3.3-1.3-5.2-1.4-2.4-.1-4.5.2-6.6,1.9-.6-1.2-1.3-2.2-2.7-2.7-1.9-.7-3.7-1.6-5.8-2.8,0-2.3,1.9-3.3,2.2-5.2-4.6-6.6-5-13.3,0-20.1-2.4-3.1-3.6-6.7-3.6-10.5,0-3.8,1.8-7.2,3.7-10.4-2.4-3.1-3.5-6.5-3.8-10.2-.2-3.9,1.8-7.1,3.6-10.4-1.8-2.1-3-4.3-3.1-7M533.5,2437.5c.6-1.3,1.3-2.6,1.9-3.9,1-2.2-.2-4.1-2.6-4.1-1.8,0-3.2.7-4.1,2.4-1.7,3.2-3.4,6.3-5.1,9.5-.3.6-.7,1.3-.9,1.9-.5,1.6-.7,3.2.1,4.7,4.4.9,5.2-.3,6.7-3.2,1.2-2.3,2.5-4.6,4-7.4M533.9,2376.1c.6-1.6,1.2-3.2,1.8-4.7.5-1.2.2-2.1-.8-2.9-.8-.7-1.7-1.3-3.1-1.2-2.2,1.9-4.2,4.1-4.8,7.2-.1.8-.8,1.5-1.2,2.2-.7,1.4-1.6,2.7-2.1,4.2-.5,1.2-.6,2.5-.8,3.8-.3,1.7,1.9,3.1,3.5,2,1-.7,2-1.4,2.7-2.4,1.7-2.5,3.5-4.9,4.8-8.2M528.2,2413.3c-1.5,3-3,6-4.5,9-.9,1.8-1,3.6-.2,5.5,2.6.7,4.5,0,6.1-2.1,2.5-3.4,4.3-7.2,5.6-11.2.3-.9.2-1.9.1-2.8,0-.9-.7-1.5-1.7-1.7-2.5-.5-3.4,0-5.4,3.3M533.5,2396.1c.8-1.5,1.4-3,1.6-4.8-.6-.6-1.1-1.3-1.8-1.8-1.3-1-2.7-.8-3.7.6-.7,1-1.2,2.1-1.9,3-1.7,2.4-2.3,5.5-4.5,7.7-1.2,1.3-1.1,3.1-.9,4.8.1,1.5,1.4,2.3,2.9,1.9,1.4-.4,2.7-1.1,3.4-2.5,1.6-2.8,3.1-5.7,4.9-9Z"/>
  <path class="st46" d="M151.8,2440.3c3,11.1,6.6,21.8,10.8,32.3,4.5,11.2,9.7,22.2,15.7,32.7,3.2,5.7,6.6,11.3,9.9,16.9.7,1.3,1.5,2.5,1.5,4,0,1.6-.7,2.8-2.2,3.5-1.6.7-3.2.6-4.3-.7-.7-.8-1.4-1.7-1.9-2.6-3.2-5.4-6.5-10.8-9.6-16.3-2.6-4.6-5.1-9.4-7.4-14.1-6.7-13.8-12.5-28.1-17-42.8-2.9-9.5-5.4-19.1-7.4-28.8-1.1-5.6-2.2-11.2-3-16.8-.8-5.4-1.2-10.8-1.7-16.2-.7-7.8-1.3-15.7-1.2-23.5,0-1.3.3-2.6.6-3.9.1-.6.5-1.1.9-1.5.9-.9,2-1.5,3.3-1.1,1.6.5,2.7,1.7,2.9,3.4.3,2.5.5,5.1.6,7.6,0,1.1,0,2.2,0,3.3-.2,6.7.7,13.3,1.3,19.9.9,9.2,2.4,18.2,4.1,27.2,1,5.8,2.7,11.5,4.2,17.6Z"/>
  <path class="st6" d="M719.6,2376.1c.1-3.2.1-6.1.2-9,0-1.1.2-2.2.5-3.2.5-1.5,1.8-2.3,3.3-2.4,1.6,0,2.8.8,3.4,2.2.4.9.7,1.9.6,2.8-.1,5.6-.3,11.1-.6,16.7-.2,3.7-.5,7.5-.9,11.2-1.1,10.6-2.5,21.1-4.8,31.5-1.8,8.2-3.7,16.3-6,24.3-3.1,10.3-6.7,20.5-11.1,30.3-2.5,5.8-5,11.6-7.8,17.2-4.9,9.7-10.1,19.3-16,28.5-.6.9-1.2,1.8-1.9,2.7-1.3,1.6-3.4,1.9-5.3.8-1.5-.9-2.3-2.9-1.6-4.7.4-1.1,1-2.2,1.7-3.2,5.6-8.5,10.6-17.3,15.1-26.4,5.2-10.5,10-21.2,14-32.3,5.2-14.2,9.1-28.8,11.9-43.7,1.3-7.1,2.5-14.3,3.2-21.5.7-6.4,1.4-12.7,1.5-19.1,0-.7.2-1.4.3-2.5Z"/>
  <path class="st32" d="M608.7,2317.6c.6.7,1.1,1.6,1.8,2.2,3,2.7,3.8,6.2,4,10.1.1,2.9.4,5.7,2.2,8.2.5.7.7,1.5,1.1,2.5.6-.1,1.3-.3,2-.3.8,0,1.4.8,1,1.5-.4.7-1,1.3-1.5,2-.9,1.4-.6,2.9,1,3.6,1.3.6,2.6,1.1,4,1.7.1.8.2,1.5.3,2.2.3,2.1.7,2.5,2.6,2.6.8,0,1.7,0,2.5,0,.5,0,1,0,1.4,0,1.9.2,3,1.7,2.7,3.6-.2.9-.6,1.9-.6,2.8.1,2.1-.4,4-1.4,5.8.8,1.9,2.8,1.9,4.2,3.1,1.1-1.2,1.9-2.2,1.2-3.7-.5-1.2-.4-2.3.4-3.4.4-.7.6-1.6.7-2.4,0-1.9,0-3.9,0-5.9-.7-.3-1.4-.6-2-.8-.9-.3-1.5-.9-1.5-1.8,0-.4,0-1,.4-1.3.3-.2.9-.2,1.3-.2.3,0,.6.3.9.6,1.1.8,2.3.8,3.3,0,.7-.6,1.4-.6,2.3-.3,1.8.4,3.8.2,5.5,1.5.3.3,1.1,0,1.8,0,.5-1.5.6-3,.1-4.4-.8-2.1-.3-3.9,1.2-5.3,1.7-1.6,2.2-3.3,2-5.5-.2-1.9.5-3.2,2.1-4.2,2.2-1.3,3-3.2,2.4-5.8-.7-3,.3-5.4,2.8-7.3,1.6-1.2,1.7-1.9,1-3.7-.5-1.3-1.1-2.7-1.5-4-.2-.6,0-1.3,0-2.3,1.3.4,2.3.8,3.5,1.2,1.8-1.7,1.6-3.9,1-5.9-.1-.6-1-1-1.6-1.3-1.2-.8-2.7-1.1-3.8-2.4.3-.8.6-1.6,1-2.6,1.6,1.1,3,2.4,4.3,3.8,2.2,2.2,2.6,4.8,1.6,7.7-1.1,3.1-2.1,6.2-3.1,9.3-3.4,10.1-6.9,20.1-10.3,30.2-.2.7-.5,1.4-.7,2-1.4,3.5-2.5,4.2-6.3,4.3-1.2,0-2.4,0-3.6,0-.7,0-1.4.1-2.1.2-.8,1.2-.4,2.5-.5,3.6-.2,2.6-.2,5.3-.7,7.9-.9,4.8-3.7,8.3-7.8,10.9-1.8,1.1-3.5,2.1-5.2,3.2-3.6,2.2-5.3,5.7-5.7,9.7-1.3,10.5,7.1,16.8,13.8,17.2,6.8.4,11.7-2.4,14.9-8.2,1-1.8,1.5-3.8,2.2-5.7.3-.9.5-1.9.8-2.8.7-1.7,2.3-2.6,4.1-2.3,1.6.2,2.8,1.3,3,3.1.2,1.3.2,2.7,0,4-2.2,10-8.1,16.8-18,20-3.3,1-6.8,1-10.1.2-11.2-2.7-18.3-11.8-19.3-21.1-.8-6.9,1.5-12.8,6.1-18,2.1-2.4,4.6-4.3,7.4-5.8.7-.4,1.5-.8,2.2-1.3,1.9-1.3,3.1-3,3.7-5.2.8-3,.7-6,.6-9.2-1,0-1.9-.2-2.9-.3-1.5,0-2.9,0-4.4,0-2.4,0-4.1-1.1-5-3.5-.7-2.2-1.6-4.3-2.3-6.5-3.1-9-6.2-18.1-9.1-27.4.1-.3.4-.3.4-.3Z"/>
  <path class="st23" d="M601.4,2199.8c.6,1,1.6.9,2.5.9,1.5,0,2.1.8,2.4,2.2-.2,1.1-1.6,2-1,3.8,0,.3,0,.3,0,.2-.2,0-.3,0-.4,0,0,.2.2.3.2.6-.1.4-.3.6-.8.7-.3.3-.4.6-.6,1,0,.3-.2.4-.6.5-.3,0-.4,0-.5,0,0,.2.2.3.3.7.2.4.4.5.7,1,.6,1.2,1.5,1,2.3,1,3,0,6,0,9.2,0,1.1,1.9,2.9,2.4,4.9,2.2,1.7-.1,3.4.1,5-.5.7-.3,1.8-.3,2.5,0,1.3.5,2.4.3,3.4-.5,1.2-1.1,2.6-1.1,4.1-1.1,4.2,0,8.5,0,12.7,0,.8,0,1.7,0,2.5,0,.9,0,1.1-.8,1.1-1.7,0-.1,0-.4.3-.4.5-.3,1-.4,1.1-.7.4-1.5.1-2.3-1.3-2.8-2-.7-2.9-1.9-2.9-3.9,0-.3-.2-.6-.4-1.1-.6,0-1.1-.1-1.8-.4-.5-.9-.5-1.5,0-2.1,1-1.3,2.4-1.3,3.8-1,0,3.1,1.6,5.3,3.1,7.5.2.4.7.6,1.2.8.6.3,1.2,0,1.7-.4.6,1.4,1.3,2.5,2.3,3.4.9.9,1.7.5,2.6.3,1.1,1.7,1.5,3.5,1.7,5.2,1,.3,1.8.5,2.6.7,1.9.5,2.3.3,2.8-1.6.2-.9.5-1.6,1.8-1.7,2.2,0,4.1-.4,5.6,1.3.2.3.9.1,1.4.4.5,1,1,1.9,1.3,2.9-.8,1.1-1.7,1.2-2.7,1.2-2.2,0-4.3,0-6.5,0-.8,0-1.7,0-2.6.7-1.2,0-1.9.4-1.9,1.5,0,.5,0,.9-.3,1.5-1.1.4-1.2,1.1-1.2,1.9,0,2.4,0,4.8,0,7.2,0,1.4-.2,2.6-1.4,3.7-.9,0-2,.1-3,.2-.9,0-1.2.6-1.3,1.4,0,.5-.2,1.1-.4,1.8-.2.2-.3.2-.3,0-.2-.5-.5-.8-.7-1.3-.5-1.6-1-2.9-1.9-3.9-1.3-.3-2,.3-2.2,1.3-.2.7,0,1.4-.3,2.1-.4,0-.5,0-.8,0-.2,0-.4-.2-.5-.5-.6-.5-1.1-.9-1.6-.9-1,0-1.8-.3-2.6-1-2.2-2-4.9-1.7-7-.4-2.2,1.3-4.2,1.4-6.5,1.4-1.6,0-3.1,0-4.7-.3-.8-1.1-1.6-2.1-2.4-2.9-.6-.6-1.3-.6-2-.2-.6.4-.5,1-.4,1.6.2.6.3,1.2.3,1.8-.9.1-1.1.6-1.5,1.4-.4,1.6-.5,3-.9,4.7-.2,2.5-.3,4.8-.6,7.1-1.2.3-1.7.9-1.8,1.8-.3,2.4-.6,4.8-.9,7.1,0,.6-.4.8-1,.6,0-.2-.3-.4-.3-.6,0-4.6,0-9.2,0-13.8,0-.9.4-1.6.9-2.3.7-1,1.4-2,1.8-3.1.5-1.1,0-2.2-1.1-2.8-.5-.3-1.1-.6-1.7-.7-1.6-.5-3.2-1-4.9-1.4-2-.4-3.9-1.2-6.2-.9-.2,0-.5,0-.5,0,0-.3,0-.6.1-1.4.6-1.3.7-2.2-.1-3,0-.8,0-1.5.1-2.6.2-.3.5-.3.7-.4.6-.7.4-1-.2-1.6,0-1.1,0-1.8,0-2.6,1.4-.7,1.6-1.1,1.4-2.4-.1-.9-.6-1.8-1.5-1.8-2.7-.2-5.6-.8-8,1.1-.9.7-1.9.9-3,.9-2.4,0-4.8.1-7.1-.1-.9-1.6-.7-2.9.4-4.1,1.7-1.8,3.7-3.1,6.1-4.1.6,1.1,1,2.1,1.4,3.1q2.3-.4,3.8-3c-.7-.6-1.4-1.2-2-2.1,0-.6,0-.9,0-1.2,0,0,0,0,.3,0,.8-.2,1.4-.4,1.8-.7.7-.8.9-1.9.8-3,0,0,0,0,.2,0,.3-.4.4-.7.6-1.2.5-.7,1-1.2,1.4-1.7M629.1,2229.1c0,1.1,0,2.1,1.5,2.6,1.5-.6,3.1-1.1,4.3-3.3,7.4,0,14.7,0,22.1,0,.6,0,1.2,0,1.8,0,.1,0,.2,0,.3,0,0,0,.2-.2.5-.5,0-2.6.4-5.4-.3-8.5-1.7,0-3.2,0-4.8,0-3.1,0-6.3-.2-9.4-.8.1-.7.3-1.4.4-2.1-3.7-1-7,0-10.2,1.4-.3.1-.3.8-1.1,1.5-6.3,0-12.6,0-18.8,0-.9,0-2-.3-2.8.8,0,2.5-.1,5.3,0,8.2,1.4,0,2.6.1,3.8.1,4.2,0,8.4.1,12.7.7Z"/>
  <path class="st11" d="M559.2,2266.5c-1.3,0-2-.8-2.7-1.6-3.6-3.8-8.3-5.1-13.4-5.5-1.7-.1-3.1.3-4,1.9-.2.3-.4.6-.6.9-.7.8-1.6,1.1-2.6.7-4.7-2.1-7.2-7-5.8-11.9.4-1.3,1-2.5,1.5-3.7.4-1,.3-1.9-.5-2.7-.7-.7-1.4-1.4-2.1-2-2.7-2.4-3.9-5.5-3.9-9.1,0-1.1,0-2.2-.1-3.8.1-1.1.2-1.5.3-2,9.7-1.3,19.2-3,28.8-5,.9-.2,1.9-.3,3.1-.4.4.6.5,1.2.6,1.8.4,2.7.8,5.5-.9,8,2,2.9,4.3,5.4,4.6,9,.3,3.5-.5,6.7-2.3,9.7,3.5,4,3.2,8.3,1.4,12.8-.4.9-.9,1.7-1.5,2.8M546.7,2239.8c.8.6,1.5,1.2,2.3,1.8.8.6,1.6,1.1,2.4,1.6.8.4,1.8-.1,2-1,.4-1.9.2-3.6-1-5.1-2.9-3.7-6.8-6-11.4-7.2-1.5-.4-2.6.6-2.7,2.1-.1,1.5.6,2.5,1.7,3.4,2,1.5,4.5,2.3,6.8,4.5M538.8,2244.2c-.5.6-.6,1.3-.2,2,.1.2.3.4.4.6.8.9,1.6,1.9,2.6,2.5,2.6,1.8,4.9,3.9,6.6,6.6.7,1.1,1.8,1.7,3.1,1.3,1.2-.4,2-1.3,2.2-2.6.2-1.3-.3-2.3-1.2-3.2-2.3-2.5-5.2-4.3-7.8-6.4-1.7-1.4-3.3-1.7-5.7-.7Z"/>
  <path class="st1" d="M384,2064.1c.5.4.8,1,.9,1.5.3,2.7.6,5.5.9,8.2.2,1.4.5,2.8.7,4.3.6,3.8,1.2,7.6,1.6,11.4.4,3.8,1.2,7.6,1.9,11.4,0,.4.2.7.2,1.1,0,3.8.8,7.4,1.4,11.1.5,2.8.5,5.7.9,8.6.5,3.8,1.2,7.6,1.8,11.4.5,3,1.2,5.9,1.1,8.9,0,.9.2,1.9.4,2.8.4,2,.5,4,0,6-1.1.6-1.8.3-2.3-.6-.3-.6-.6-1.3-.8-2-1.8-7.4-3.6-14.7-5.5-22.1-1.2-4.7-2.3-9.4-3.7-14-1.7-5.5-2.6-11.2-4.3-16.8-1.5-5.1-2-10.4-3.9-15.4-.6-1.6-.7-3.3-1.1-4.9-.4-1.5-.8-3-1.3-4.8.7-.8,1.4-1.4,2.2-1.8,2.9-1.5,5.8-2.9,8.9-4.5Z"/>
  <path class="st3" d="M488.8,2069.7c-.3,1.6-.8,2.9-1.2,4.3-.9,3.9-1.8,7.7-2.6,11.6-1,4.8-2.6,9.5-3.8,14.3-2.2,8.7-4.1,17.5-6.2,26.3-1.7,7.1-3.6,14.2-5.4,21.3-.2.8-.5,1.6-.9,2.4-.5,1.2-1.4,1.5-2.7.9-.8-1.1-.6-2.4-.4-3.5.3-1.7.5-3.3.7-5,.5-3.8,1.3-7.6,1.9-11.4.4-2.6.6-5.3.9-7.9.4-2.9.8-5.7,1.2-8.6.3-2.6.7-5.2,1-7.9.3-2.4.4-4.8.9-7.1.4-1.7.3-3.4.6-5,.8-4.1.8-8.4,1.7-12.5.6-2.7,1.1-5.4,1.2-8.2,0-2.1.7-4.2,1.1-6.4.2-.9.2-1.9.3-3.2,2.6.9,5.3,2,7.9,3.2,1.2.6,2.3,1.2,3.6,2.1Z"/>
  <path class="st45" d="M605.1,2231.9c2.1-.3,4.1.5,6,.9,1.6.4,3.2.9,4.9,1.4.6.2,1.1.4,1.7.7,1.1.6,1.6,1.7,1.1,2.8-.5,1.1-1.1,2.1-1.8,3.1-.5.7-.9,1.4-.9,2.3,0,4.6,0,9.2,0,13.8,0,.2.2.4.3.6.6.2.9,0,1-.6.3-2.4.6-4.8.9-7.1.1-.9.7-1.5,1.9-1.5.3,2.6.2,4.8.3,7.1,0,.7.4,1.3.6,2.3,0,3,0,5.7-.2,8.6-.3.5-.4.7-.4.9,0,6.1,0,12.2,0,18.3,0,.5.4,1.1.7,1.9.8,1.3,1.8.9,2.7.9,4.2,0,8.4-.4,12.7-.3,3.9,0,7.7.3,11.6.5,2.2,0,2.5-.2,2.7-2.4,0-.4,0-.7,0-1.1,0-16.2,0-32.4,0-48.6.1,0,.3,0,.9.2.5,3,.6,5.7.7,8.8,0,8.3,0,16.3,0,24.2,0,1.1,0,2.2,0,3.2,0,.3.4.6,1,1.3.7-2.9,1.3-5.3,1.8-7.8.1-.6,0-1.2-.1-1.8-.9-3.8-.8-7.6,0-11.4.2-.8,0-1.7-.3-2.5-.4-1.7-.4-3.3.7-4.9.7,0,1.2,0,1.7,0,0,3.5.2,7,.2,10.5,0,11.5,0,23.1,0,34.6,0,1,0,1.9-.1,3.2-.9,0-1.1-.5-1.1-1.1,0-1.4,0-2.9,0-4.3,0-.6,0-1.2,0-1.8-.1-.8-1.4-1.7-2.2-1.5-.8.2-1.2.8-1.3,1.6,0,.8,0,1.7,0,2.5-1.4.4-2.8.7-4.1,1.4-2.7,1.3-5.5,1.7-8.4,1.5-1.3,0-2.3-.4-2.8-1.8,0-.3-.4-.6-.6-1-.7,0-1.4,0-2.1-.1-2.2-.3-3.9.3-5.5,2-1.8,2-3.9,2.2-6.2.9-1.2-.7-2.5-1.5-3.3-2.7-.7-1-1.5-1.8-2.5-3-.6,1-1,1.8-1.8,2.7-.3-1.3-.4-2.6-.4-3.9,0-15,0-29.9,0-44.9,0-1.3.2-2.6-.4-4.1-1.4,0-2.9,0-4.3-.2-1.9,0-3.6-.4-4.8-2.6,0-.9,0-1.2,0-1.6Z"/>
  <path class="st28" d="M132.8,2299.2c5.6-3.3,11.2-3.8,16.7-.7,10.2,5.7,11,18.6,3.5,25.8-2.3,2.2-5,3.7-8.1,4.4-8.7,2.1-19.3-4.9-19.2-15,0-6,2.3-10.7,7.2-14.5M141.4,2321.3c.8,0,1.7,0,2.5-.2,5.9-1.6,8.4-9.6,4.2-13.9-2.3-2.4-5.8-3.6-9.6-2.1-3.7,1.5-5,3.6-5,7.9,0,.2,0,.5,0,.7.1,3.2,1.9,5.4,4.6,6.8.8.4,1.8.6,3.3.9Z"/>
  <path class="st0" d="M706.4,2313.6c-2.8-4.3-3.2-8.9-2.1-13.5,1.3-5.6,5.2-9.2,10.6-11,8.8-3,16.8,2.7,19.7,8.3,2.6,5.2,1.7,14.9-4.5,19.8-6.9,5.5-17.2,4-22.1-1.6-.5-.6-.9-1.1-1.6-1.9M717.8,2312.5c.8,0,1.7.2,2.5.1,3.4-.1,5.8-1.9,7-4.8,1.2-2.9,1.1-5.9-.8-8.6-2.3-3.3-8.2-4.8-12.5-1.2-2.7,2.3-3.4,9.5.2,12.4.9.8,2,1.2,3.6,2Z"/>
  <path class="st50" d="M668.7,2452.4c-2.4,6.1-4.6,12-7.1,17.8-2.4,5.4-5,10.7-7.7,16-1.9,3.8-4.1,7.4-6.2,11.1-1.4,2.3-3.7,3.1-5.9,2.1-1.1-.5-1.7-1.2-1.9-2.4-.2-1.6.2-3.1,1-4.5,2.4-4.2,4.8-8.4,7.1-12.6,5-9.4,9.3-19.1,13-29.1.4-1.1.8-2.3,1.4-3.3.4-.7,1-1.4,1.7-1.8,2.7-1.6,5.3,0,5.2,3,0,1.2-.4,2.4-.7,3.8Z"/>
  <path class="st37" d="M593.5,2115.7c-.4-.2-.9-.3-1.3-.6-13.4-9.6-27.7-17.7-42.6-24.7-5.9-2.8-12-5.2-18.2-7.3-1-.3-2.1-.7-3-1.2-1.6-.9-2.4-2.4-2.2-4.3.2-2.5,2.2-4,4.9-3.6,1.7.3,3.3.8,4.9,1.4,4.1,1.6,8.1,3.2,12.1,4.9,7.8,3.4,15.3,7.2,22.8,11.3.5.3,1,.7,1.6,1.2,0,.3,0,.4-.3.3-2.3-.8-4.4-1.3-6.3-2.4-4.4-2.5-8.9-4.8-13.5-6.9-5.6-2.6-11.1-5.2-17-7.2-2-.7-3.9-1.2-6-.7-.5.6-1,1.3-1.5,2-.1.2-.1.4-.3.8.8,1.4,1.9,2.4,3.7,2.9,2.7.6,5.3,1.5,7.9,2.6,6.2,2.7,12.4,5.4,18.4,8.4,5.5,2.8,10.9,5.7,16.1,9,2.9,1.8,5.8,3.8,9.3,4.7.4.1.9.4,1.1.8.8,1.3,2.1,1.9,3.3,2.7,1.9,1.3,3.7,2.7,5.4,4.2.4.4.6,1,.8,1.6,0,0-.1.1-.1.1Z"/>
  <path class="st7" d="M135.6,2168.8c.2,0,.3.2.2.3-1.5,2.1-1.5,4.5-1.5,6.9,0,17.7,0,35.3,0,53,0,1,0,1.9,0,2.9.1,1.8,1.2,2.9,3,3,.5,0,1,0,1.5,0,14.3,0,28.5,0,43.1,0,0,.9-.8,1.2-1.7,1.3-.7,0-1.4,0-2.2,0-12.9,0-25.9,0-38.8,0-.5,0-1,0-1.5,0-2.5-.2-4-1.4-4.6-3.8-.2-.7-.2-1.4-.2-2.2,0-17.9,0-35.8,0-53.7,0-1.2.1-2.4.1-3.6,0-1.7.6-3.1,2.3-4.1Z"/>
  <path class="st56" d="M666.8,2218.8c.6-.8,1.5-.7,2.3-.7,2.2,0,4.3,0,6.5,0,1,0,1.9,0,3-1.2,3.6,0,6.6.8,9.8.5,1.4-.1,2.9,0,4.3.5.7.3,1.7.3,2.5,0,2-.6,4,.4,6-.5.4-.2,1,0,1.4.1,3.7,1.1,7.4.8,10.9-.9,1.7-.9,3.5-.9,5.2-.2,1,.4,2,.8,3.1.9,4.2.7,5.6-1.2,4.1-5.2-.2-.4-.5-.8-.7-1-1.3-.3-2.4-.5-3.4-.9-1.1-.4-2.1-1.5-1.7-2.5.7-1.8-.4-3.3-.3-5,0,0,.1-.1.1-.1,2.6,2.9,5.2,5.7,7.6,8.7.6.7.8,1.7,1.2,2.6.9,2-.8,4.5-3.1,4.8-1.1.1-2.2.1-3.3.1-16.8,0-33.6,0-50.4,0-1.4,0-2.9-.2-4.4.5,0,4.4-.2,8.7-.5,12.9-.3-2.6-.3-5.2-.3-8,0-1.1,0-1.8,0-2.9,0-1.1,0-1.8,0-2.6Z"/>
  <path class="st37" d="M572.5,2093.1c1,.4,2.1.8,3,1.3,8.5,5,17,10.1,24.8,16.1,3,2.3,6.1,4.4,9,6.6,2.6,2,5.1,4,7.7,6,1.1.8,2,1.8,2.3,3.1.3,1.3.3,2.7-.7,3.7-1.2,1.1-2.6,1.9-4.3,1.3-.9-.3-1.7-.9-2.6-1.6,0-.3,0-.4.3-.4,1.2.3,2.1.6,3.1.7,1.1.2,2.4-.7,2.9-1.8.4-.9,0-1.6-.6-2.3-.4-.4-.9-.9-1.3-1.3-3.1-3.3-6.9-5.7-10.4-8.4-3.9-3-7.9-5.8-11.9-8.7-3-2.2-6.2-4.2-9.4-6-3.8-2.1-7.4-4.6-11-7-.5-.3-.7-.9-1.1-1.4,0,0,.1-.1.2-.2Z"/>
  <path class="st56" d="M704,2183.9c.8.9,1.7,1.7,2.5,2.6,4.5,5.3,8.9,10.5,13.4,16,0,.2,0,.3-.3.3-2.3-1.1-3.9-2.8-5.1-4.8-.8-1.2-1.8-1.9-3.3-1.7-.6,0-1.2.1-1.9.2-.6,1.2-1.2,2.4-2.1,3.4-2.5-2.9-4.8-5.7-6.9-8.6,2.5.7,4.6.9,6.2-1.4-.2-1.3-.8-2.3-1.6-3.2-.9-.8-1.1-1.8-1.1-2.9,0,0,0,0,0,0Z"/>
  <path class="st32" d="M652.5,2289.5c-.1-1.1-.2-1.9,0-2.7,0-.8.5-1.4,1.3-1.6.8-.2,2.1.7,2.2,1.5.1.6,0,1.2,0,1.8,0,1.4,0,2.9,0,4.3,0,.6.2,1.2,1.2,1.5,1.3,1,2.3,1.9,3.4,3-1,1.2-2.2-.4-3.7.4-.4.5-1.1,1.3-1.9,2.2-1.6.2-3.2.5-4.7,1.4-1.3.8-2.4-.1-2.3-1.7.1-2.3.7-2.8,3.8-3.4,1.3-1.2,1.4-2.9,1.9-4.5.3-.9-.3-1.6-1.2-2.3Z"/>
  <path class="st7" d="M182.5,2234.6c-.2-13.5-.2-27.2-.2-40.8,0-3.3,0-6.5,0-9.8,0-.7.3-1.3.8-2.1.3,1.2.5,2.5.5,3.8,0,14.7,0,29.5,0,44.2,0,1.6.2,3.2-1.1,4.7Z"/>
  <path class="st27" d="M657.2,2245.5c-.5.2-1,.2-1.9,0-1.3-.3-2.1-.4-3-.5-.1-2.8-.2-5.5-.5-8.5-.2-.9-.2-1.6,0-2.3.3-1,1-1.6,2.2-1.3.9,1,1.5,2.3,2,4.1.3.8.5,1,.7,1.3,0,0,.2,0,.2,0,.2,1.5.3,3,.1,4.9-.4.4-.5.6-.7.7.3.1.5.2.8.4,0,.3.1.7,0,1.2Z"/>
  <path class="st45" d="M666.8,2224.7c0,2.6,0,5.1.1,8-.6,1.2-1.1,2.2-1.9,2.8-.5.4-1.3.6-2,.6-1.7.1-3.4,0-5.4.1-.2-.8.1-1.3,1-1.4,1.1,0,2.1-.1,3-.2,1.3-1.1,1.4-2.4,1.4-3.7,0-2.4,0-4.8,0-7.2,0-.7,0-1.5,1.2-1.9.3,0,.3,0,.3.2q.2,2.4,2.2,2.6Z"/>
  <path class="st45" d="M612.7,2295.6c.7,1.7,1.1,3.6,1.6,5.6-.3,1.5-1.4,2.6-2.9,3.2-1.2.5-2.4,1-3.7,1.5-1.3.5-1.9,1.4-2.2,3-1.3-2.3-.9-4.6.9-6.6,2-2.2,4-4.3,6.3-6.6Z"/>
  <path class="st37" d="M611.6,2129.6c-.4,0-.8-.2-1-.4-5.2-4.8-11.1-8.8-17-13.2-.1-.2,0-.3.3-.3,1.2.4,2.2.5,3,1.1,2.9,2.1,6.5,3.3,8.8,6.3.3.5,1.1.6,1.5,1,1.7,1.7,3.9,2.9,4.7,5.4,0,0-.1.1-.2.2Z"/>
  <path class="st56" d="M699.6,2178.8c1.2,1.3,2.3,2.6,3.5,4.1,0,.3,0,.4-.3.3-2.1-.9-3.4-2.1-3.4-4.4,0,0,.1,0,.1,0Z"/>
  <path class="st7" d="M139.9,2165.1c0,1.5-.8,2.5-2.6,2.7.6-.9,1.5-1.7,2.6-2.7Z"/>
  <path class="st7" d="M605,2220.1c0,.9,0,1.7,0,3,0,.9,0,1.2,0,1.5,0,0-.3,0-.5,0-.2-1.5-.3-3-.3-4.8.3-.3.5-.1.7.2Z"/>
  <path class="st7" d="M161.8,2147c.1,1.1-.4,1.9-2,2,.4-.7,1.1-1.3,2-2Z"/>
  <path class="st7" d="M166.9,2142.7c0,1.1-.5,1.8-2,1.9.4-.6,1.1-1.2,2-1.9Z"/>
  <path class="st7" d="M604.4,2227.8c.9.5.8,1.4.2,2.5-.2-.6-.3-1.4-.2-2.5Z"/>
  <path class="st7" d="M169.8,2140.5c.1.7-.1,1.2-1.2,1.3.2-.4.6-.8,1.2-1.3Z"/>
  <path class="st7" d="M157.4,2150.6c.2.7,0,1.2-1.1,1.3.1-.4.5-.8,1.1-1.3Z"/>
  <path class="st7" d="M153.1,2154.2c.2.7,0,1.2-1.1,1.3.1-.4.5-.8,1.1-1.3Z"/>
  <path class="st45" d="M697.4,2176.7c.5.3,1,.6,1.5,1.2,0,.3,0,.4-.3.3-1-.2-1.1-.8-1.2-1.4,0,0,0,0,0,0Z"/>
  <path class="st7" d="M148.7,2157.8c.2.7,0,1.2-1.1,1.3.1-.4.5-.8,1.1-1.3Z"/>
  <path class="st7" d="M144.3,2161.5c.2.7,0,1.2-1.1,1.3.1-.4.5-.8,1.1-1.3Z"/>
  <path class="st7" d="M141.5,2163.8c.1.6-.2,1.1-1.1,1.2.1-.4.5-.8,1.1-1.2Z"/>
  <path class="st45" d="M605.3,2309.6c1.1-.1,1.1,0,.9,1.5-.4-.3-.6-.8-.9-1.5Z"/>
  <path class="st45" d="M606.1,2311.7c1.2-.3,1.1.6,1,1.8-.4-.3-.7-.9-1-1.8Z"/>
  <path class="st7" d="M136.8,2167.8c0,.3-.3.6-.8.9,0-.3.3-.6.8-.9Z"/>
  <path class="st7" d="M604.9,2231.9c.2.4.2.7.1,1.3-.3-.1-.5-.5-.7-1.1,0-.2.4-.2.5-.2Z"/>
  <path class="st45" d="M657.1,2244.1c-.3,0-.6,0-.8-.2.1-.1.3-.2.6-.3.2,0,.2.2.2.5Z"/>
  <path class="st45" d="M614.3,2293.7c0,.3-.2.8-.7,1.3,0-.3.2-.7.7-1.3Z"/>
  <path class="st45" d="M607.1,2314.2c.5,0,.9.3.5,1.1-.3-.2-.4-.5-.5-1.1Z"/>
  <path class="st32" d="M614.6,2292.4c.2,0,.3,0,.3.2,0,0,0,.1-.2.3-.1,0-.2-.2,0-.5Z"/>
  <path class="st7" d="M151.5,2155.5c0,.2-.1.4-.5.7,0-.2.1-.4.5-.7Z"/>
  <path class="st7" d="M168.2,2141.7c0,.2-.1.4-.5.7,0-.2.1-.4.5-.7Z"/>
  <path class="st56" d="M703.2,2183.2c.2,0,.4.2.7.6,0,.2,0,.2-.2.2-.4-.2-.5-.4-.6-.6,0,0,0,0,.1-.1Z"/>
  <path class="st7" d="M155.9,2151.9c0,.2-.1.4-.5.7,0-.2.1-.4.5-.7Z"/>
  <path class="st7" d="M147.2,2159.2c0,.2-.1.4-.5.7,0-.2.1-.4.5-.7Z"/>
  <path class="st7" d="M142.8,2162.8c0,.2-.1.4-.5.7,0-.2.1-.4.5-.7Z"/>
  <path class="st45" d="M698.9,2178.1c.2,0,.4.2.7.6,0,.2,0,.2-.2.2-.4-.2-.5-.4-.6-.6,0,0,0,0,.1-.1Z"/>
  <path class="st45" d="M608.6,2317.5c0,.2-.2.2-.3.2-.2-.1-.3-.2-.3-.5.2-.1.4,0,.7.4Z"/>
  <path class="st44" d="M283.7,2478.2c-.3-6.8-.4-13.5-.4-20.3,0-64.9,0-129.9,0-194.8,0-2.6,0-5.3,0-8,2.6-.7,5.2-.3,7.7-.4,2.5,0,5.1,0,8,.2-.2,4.6.6,8.5,3.3,12,.1,1-.4,1.8-.9,2.7-2.6,4.7-4.4,9.7-5.1,15-1.1,8.6.2,16.9,3.7,24.8,3.3,7.4,7.8,13.9,14.4,18.8,2.3,1.7,4.9,3.1,7.5,5.1.7,3.5,1.9,6.4,3.7,9-5.4,7.1-4,13.9,0,20.8-.5.7-1,1.2-1.3,1.8-1.3,2.2-2.5,4.7-2.2,7.2.3,3.3.9,6.7,2.9,9.6.4.6.7,1.2,1.1,1.7-4.8,5.7-5,11.7-1.8,18,.4.8.9,1.7,1.3,2.6-.5.8-.9,1.5-1.3,2.2-2.1,3.3-3,6.8-1.9,10.7.5,1.6,1,3.2,1.6,4.8.4,1.1,1,2.2,1.6,3.3-4.8,6.9-4,13.8.2,20.6-2,2.5-3.4,5.1-3.5,8.3,0,2.4.1,4.8.2,7.2-1.2,1.5-3,1.7-4.6,2.5-1,.5-2.3.7-2.8,2.2-2.8,0-5,1.5-7.2,2.5-5.5,2.3-10.9,4.9-16.4,7.4-1.9.8-3.7,1.7-5.6,2.4-.6.3-1.4.2-2.4.3Z"/>
  <path class="st13" d="M322.9,2460.8c-.4-2.4-.6-4.8-.5-7.2,0-3.1,1.5-5.8,3.5-8.3-4.3-6.8-5-13.7-.2-20.6-.6-1.2-1.2-2.2-1.6-3.3-.6-1.6-1.2-3.2-1.6-4.8-1.1-3.9-.2-7.4,1.9-10.7.4-.7.9-1.4,1.3-2.2-.5-.9-.9-1.8-1.3-2.6-3.3-6.3-3.1-12.3,1.8-18-.3-.5-.7-1.1-1.1-1.7-2-2.9-2.6-6.3-2.9-9.6-.2-2.5.9-4.9,2.2-7.2.4-.6.8-1.2,1.3-1.8-4-6.8-5.5-13.7,0-20.8-1.8-2.5-2.9-5.4-3.5-8.8.8-.2,1.7-.2,2.5,0,1.7.5,3.4,1.1,5.3,1.1,1.3,0,1.9.8,2.1,2,.9,3.8,1.7,7.5,2.8,11.2,2.6,8.8,5.7,17.4,10.7,25.3,1.2,1.9,2.2,4,3.2,6.6-1,3.2-2,5.9-3.1,8.7,4.2,6.6,4.2,13.3-.5,19.8,1.9,3.2,3.5,6.4,3.6,10.2,0,3.9-1.7,7.2-3.3,10.5,4.4,6.8,3.9,13.5.3,19.7.8,2.4,1.5,4.3,2.1,6.2-1.5.6-3.1,1.2-4.6,1.8-1.3.6-2.6,1.2-3.4,2.9-3.6-2.4-7.4-2.3-11.3-.7-1.8.7-3.6,1.4-5.6,2.1M335.5,2377c-1.2-1.7-2.2-3.4-2.9-5.4-.3-1-.9-2-1.5-2.8-.7-1-1.8-1.2-2.9-.9-2.3.7-3.3,2.1-2.5,4.4.9,2.5,2,4.9,3.3,7.2.7,1.1,1.4,2.2,2,3.4.7,1.4,1.8,2.6,2.8,3.7,1,1.1,2.4,1,3.7.5.9-.4,1.3-1.8,1-3.2,0-.2-.1-.5-.2-.7-.8-1.9-1.6-3.8-2.7-6.1M335.5,2438.7c-.9-1.7-2.1-3.3-2.6-5.1-.5-1.6-1.2-2.8-2.3-4-.9,0-1.9-.1-2.8,0-1.5.3-2.3,1.8-2,3.3.5,1.9,1,3.7,1.9,5.4,1.5,2.6,2.9,5.3,4.3,7.9.8,1.5,2,2.3,3.8,2.2,2-.1,2.9-1,2.7-3,0-.7-.3-1.4-.6-2-.7-1.4-1.4-2.8-2.3-4.7M333.5,2414.5c-.4-.8-.7-1.5-1.1-2.3-1.2-2.2-1.9-2.7-4.3-2.3-.9.2-1.7.7-2.4,1-.5,1.9-.1,3.3.4,4.9,1.4,3.7,3.8,6.6,6,9.8.5.8,1.3,1.4,2.1,2,.9.7,2.1.7,3.1,0,.8-.5,1.3-1.9,1-2.9-.4-1.1-.8-2.3-1.3-3.4-1-2.2-2.1-4.3-3.5-7M326.1,2391.5c0,2.1.7,4,1.7,5.8.9,1.7,1.9,3.4,2.8,5,.7,1.1,1.3,2.3,2.1,3.4.3.5.8.9,1.3,1.2,1.4.9,2.9,1,3.7.3,1-1,.9-2.3.5-3.4-.9-2.3-2-4.6-3.1-6.9-.8-1.6-1.6-3.2-2.5-4.8-.5-.8-.9-1.7-1.6-2.3-1.7-1.6-3.4-1.2-4.9,1.7Z"/>
  <path class="st13" d="M339.8,2460.3c.2.1.4.4.6.9-.2-.1-.4-.4-.6-.9Z"/>
  <path class="st35" d="M452.4,2604.7c-.1-2.2.7-4.3,2.6-6,.1,2.3-1.1,4.1-2.6,6Z"/>
  <path class="st35" d="M438.7,2639.2c-1.2-.8-.7-2.1-.6-3.3.2-1.1.6-2.2,1.2-3.4.4,2.1,0,4.3-.6,6.8Z"/>
  <path class="st35" d="M502.9,2500.5c0-2.2.5-3.3,2.3-5.6.3,2.2-1.2,3.7-2.3,5.6Z"/>
  <path class="st35" d="M475.3,2557.9c-.2-1.9.5-3.7,1.9-5.3.4,2-.6,3.6-1.9,5.3Z"/>
  <path class="st35" d="M472.3,2563.7c-.2-1.5.2-3,1.6-4.2.4,1.6-.6,2.8-1.6,4.2Z"/>
  <path class="st35" d="M445.9,2618.5c-.3-1.5.2-2.9,1.5-4.2.3,1.5,0,3-1.5,4.2Z"/>
  <path class="st35" d="M456.7,2595.9c-.7-1.3,0-2.2,1.3-3,.5,1.3-.1,2.2-1.3,3Z"/>
  <path class="st35" d="M491.6,2523.3c-.7-1.3,0-2.2,1.2-3,.5,1.2-.2,2.1-1.2,3Z"/>
  <path class="st35" d="M505.7,2494.7c-.4-1.4.2-2.5,1.5-3.5.3,1.4-.5,2.4-1.5,3.5Z"/>
  <path class="st35" d="M494.8,2517.2c-.4-1.4.2-2.5,1.4-3.5.3,1.3-.5,2.4-1.4,3.5Z"/>
  <path class="st35" d="M488.7,2529.8c-.8-1.1,0-1.8.8-2.7.2.9.4,1.9-.8,2.7Z"/>
  <path class="st35" d="M440.8,2629.4c-.8-1.1,0-1.9.8-2.8.2.9.4,2-.8,2.8Z"/>
  <path class="st35" d="M484.3,2538.5c-.8-1.1,0-1.8.8-2.7.2.9.3,1.9-.8,2.7Z"/>
  <path class="st35" d="M461.1,2586.5c-.7-.9-.3-1.5.7-2.1.3.8.2,1.5-.7,2.1Z"/>
  <path class="st35" d="M451,2607.6c-.6-.8,0-1.4.7-2.1.3.8.2,1.5-.7,2.1Z"/>
  <path class="st35" d="M459.7,2589.4c-.5-.8,0-1.4.7-2.1.3.8.2,1.5-.7,2.1Z"/>
  <path class="st35" d="M482.9,2541.5c-.5-.8,0-1.4.7-2.1.3.7.2,1.5-.7,2.1Z"/>
  <path class="st35" d="M466.9,2574.2c-.6-.6-.5-1.2.5-1.6.4.6.2,1.1-.5,1.6Z"/>
  <path class="st35" d="M493.4,2520.1c0-.5,0-1.1.4-1.8,0,.5,0,1.1-.4,1.8Z"/>
  <path class="st35" d="M486.9,2533.2c-.4-.6-.4-1.2.4-1.7,0,.5,0,1.1-.4,1.7Z"/>
  <path class="st35" d="M490.5,2525.9c0-.5,0-1.1.4-1.8,0,.5,0,1.1-.4,1.8Z"/>
  <path class="st35" d="M471.3,2565.5c0-.3,0-.6.4-1,0,.3,0,.6-.4,1Z"/>
  <path class="st35" d="M439.9,2631.4c-.1-.3,0-.7.2-1.2.1.3,0,.7-.2,1.2Z"/>
  <path class="st35" d="M469.8,2568.3c0-.1,0-.4.1-.6.2.2.1.4-.1.6Z"/>
  <path class="st35" d="M469,2569.8c0-.1,0-.4.2-.6.2.2.1.4-.2.6Z"/>
  <path class="st35" d="M467.9,2572.5c-.2-.2-.2-.4.2-.6.3.2.3.4-.2.6Z"/>
  <path class="st35" d="M466.1,2575.6c0-.1,0-.4.1-.6.2.2.1.4-.1.6Z"/>
  <path class="st35" d="M465.4,2577c0-.1,0-.4.1-.6.2.2.1.4-.1.6Z"/>
  <path class="st35" d="M465,2578.2c-.2,0-.3-.1-.5-.2,0,0,.2-.1.4-.1.1,0,.1.3,0,.3Z"/>
  <path class="st35" d="M464.3,2580.4c-.2-.2-.2-.4.1-.6.3.2.3.4-.1.6Z"/>
  <path class="st35" d="M481.4,2544.3c0-.1,0-.4.1-.6.2.2.1.4-.1.6Z"/>
  <path class="st35" d="M463.6,2581.9c-.2-.2-.2-.4.1-.6.3.2.3.4-.1.6Z"/>
  <path class="st35" d="M462.9,2583.3c-.2-.2-.2-.4.1-.6.3.2.3.4-.1.6Z"/>
  <path class="st35" d="M448,2613.3c0-.1,0-.4.1-.6.2.2.1.4-.1.6Z"/>
  <path class="st35" d="M442.2,2625.7c-.1-.1,0-.4.1-.6.2.2.1.4-.1.6Z"/>
  <path class="st35" d="M442.9,2624.2c0-.1,0-.4.1-.6.2.2.1.4-.1.6Z"/>
  <path class="st35" d="M443.6,2622.8c0-.1,0-.4.1-.6.2.2.1.4-.1.6Z"/>
  <path class="st35" d="M444.3,2621.3c0-.1,0-.4.1-.6.2.2.1.4-.1.6Z"/>
  <path class="st35" d="M445.1,2619.9c0-.1,0-.4.1-.6.2.2.1.4-.1.6Z"/>
  <path class="st35" d="M448.7,2611.9c0-.1,0-.4.1-.6.2.2.1.4-.1.6Z"/>
  <path class="st35" d="M449.5,2610.4c0-.1,0-.4.1-.6.2.2.1.3-.1.6Z"/>
  <path class="st35" d="M450.2,2609c0-.1,0-.4.1-.6.2.2.1.4-.1.6Z"/>
  <path class="st35" d="M456,2596.6c0-.1,0-.3.1-.5.2.2,0,.3-.1.5Z"/>
  <path class="st35" d="M458.9,2590.8c-.1-.1,0-.4.1-.6.2.2.1.4-.1.6Z"/>
  <path class="st35" d="M501.7,2502.2c-.1-.1,0-.3,0-.6.2.2.1.4,0,.6Z"/>
  <path class="st35" d="M501.1,2503.6c-.1,0-.2-.2-.2-.3,0,0,0-.1.3-.2.2.2.1.3,0,.5Z"/>
  <path class="st35" d="M477.8,2551.6c-.1-.1,0-.4.1-.6.2.2.1.4-.1.6Z"/>
  <path class="st35" d="M500.4,2505.1c-.1,0-.2-.2-.2-.3,0,0,0-.1.3-.2.2.2.1.3,0,.5Z"/>
  <path class="st35" d="M498.9,2508c0,0-.3-.2-.3-.2,0,0,.2-.3.4-.3.2.2.1.3,0,.5Z"/>
  <path class="st35" d="M498.2,2509.5c0,0-.3-.2-.3-.2,0,0,.2-.3.4-.3.2.2.1.3,0,.5Z"/>
  <path class="st35" d="M497.7,2510.7c-.2,0-.3-.1-.5-.2,0,0,.2-.1.4-.1.1,0,.1.2,0,.3Z"/>
  <path class="st35" d="M497,2512.9c-.2-.2-.2-.4.1-.6.3.2.3.4-.1.6Z"/>
  <path class="st35" d="M486.2,2534.7c-.2-.2-.2-.4.2-.6.3.2.2.4-.2.6Z"/>
  <path class="st35" d="M479.9,2547.2c0-.1,0-.4.1-.6.2.2.1.4-.1.6Z"/>
  <path class="st35" d="M478.5,2550.1c-.1-.1,0-.4.1-.6.2.2.1.4-.1.6Z"/>
  <path class="st26" d="M507.9,2452.4c-.1.3-.3.7-.4,1-.4,4-2.1,7.4-4.3,10.6-1.8,2.7-3.6,5.4-5.7,7.9-2.3,2.8-4.7,5.5-7.3,8.1-3.6,3.7-7.8,6.8-12.3,9.4-2.1,1.2-4,2.7-6.1,3.8-7.1,3.6-14.7,6.1-22.5,7.6-6.8,1.3-13.5,2.4-20.4,2.1-2.9-.1-5.8-.4-8.6-.8-5.2-.8-10.4-1.7-15.6-3.1-4.2-1.1-8.2-2.9-12.1-4.6-3.8-1.7-7.2-3.9-10.7-6-5.5-3.4-10.4-7.5-14.6-12.3-3.6-4-7.1-8.2-9.6-13.1-1.2-2.5-3-4.7-3.7-7.4-.2-.7-.2-1.4-.2-2.5.3-.8.4-1.2.8-1.6,2.5-.6,3.9-2.4,5.5-3.7,7-5.7,11-12.8,11-22,0-2.9-.2-5.8.8-8.5,3.3,2.8,6.3,5.6,9.4,8.3,2.2,1.9,4.3,3.8,6.5,5.7,3.7,3.3,8.3,5.3,11.8,8.8,6.5,4.4,13.3,8.3,20.4,11.7.7.3,1.4.4,2,.8,2.9,2.1,6.3,3,9.5,4.2,4.9,1.8,9.9,3,15,4,4.1.8,8.3,1.6,12.5,1.5,2.5,0,5.1,0,7.6,0,3,0,6,0,9-.7,5.5-1.1,11.1-2.2,16.4-4.1,4.7-1.7,9.2-3.5,13.2-6.9.8,0,1.4.2,2,.4.2.6.4,1.1.6,1.5Z"/>
  <path class="st43" d="M354.4,2451.5c-.1.4-.3.8-.5,1.3-2.2,0-3.8,1.3-5.8,2-.9-1.9-1.6-3.8-2.4-6.2,3.7-6.2,4.1-12.9-.3-19.7,1.7-3.3,3.4-6.7,3.3-10.5,0-3.8-1.7-7-3.6-10.2,4.7-6.5,4.7-13.2.5-19.8,1.1-2.8,2.1-5.5,3.2-8.5.5,0,1,.4,1.3.8.6.9,1,1.9,1.7,3.2,1.2,3.7,3,6.5,4.8,9.4-.7.9-1.3,1.6-1.9,2.4-1,1.5-1.7,3.2-1.8,5.1-.3,3.7.3,7.2,2,10.5.5.9,1,1.9,1.6,2.9-.7.8-1.3,1.5-1.8,2.3-1.5,2-2.2,4.3-2,6.8.2,3,.8,6,2.4,8.6.5.8.9,1.6,1.3,2.4-.7,1.1-1.4,1.9-2,2.8-.5.9-1.1,2-1.2,3-.5,3.8-.7,7.7,1.1,11.3Z"/>
  <path class="st14" d="M508.1,2452.4c-.4-.5-.6-.9-.7-1.8.8-3.2.7-5.9.6-8.7,0-1.9-.6-3.6-1.6-5.1-.5-.8-1-1.6-1.5-2.5,1.4-2.1,2.3-4.3,2.8-6.7.4-1.9.5-3.8.3-5.8-.3-2.9-1.8-5.2-3.1-7.3,4-7.1,5.3-14,0-20.9,2-3,3.6-6.2,4.2-9.8.7-1.5,1.5-2.8,3.3-3.5.4,2.7,1.5,4.9,3.3,7-1.8,3.2-3.8,6.4-3.6,10.4.2,3.7,1.4,7.1,3.8,10.2-1.9,3.2-3.7,6.5-3.7,10.4,0,3.8,1.2,7.4,3.6,10.5-4.9,6.8-4.5,13.5,0,20.1-.3,2-2.3,2.9-2.5,5.1-1.7-.3-3.4-.8-5.3-1.4Z"/>
  <path class="st31" d="M237.9,2503.4c-.2-8.4-.2-16.9-.2-25.4.6-.5,1.1,0,1.6.3,4.8,3.9,9.5,7.9,14.4,12-.4.7-.8,1.3-1.4,1.6-3.4,1.6-5.9,4.1-7.2,7.9-2.4,1.3-4.6,2.4-7.1,3.5Z"/>
  <path class="st19" d="M262.2,2487.4c-4.6-3.9-8.9-7.7-13.3-11.6-1.7-1.5-3.5-2.9-5.3-4.4-.6-.5-1.1-1.2-1.6-1.8.3-1.4,1.2-2,2-2.7,5.2-4.5,10.4-9.1,15.6-13.6,4.5-3.9,9-7.7,13.5-11.6.5-.4,1.1-.8,1.5-1.2.3.2.5.3.5.3,0,0,0,.2,0,.4,0,12.8,0,25.6,0,38.4,0,.5,0,1,0,1.8-.2.6-.5.9-.8,1-3.6,1.6-7.3,3.2-10.9,4.7-.3.1-.7,0-1.3,0Z"/>
  <path class="st55" d="M304.5,2167.8c-7.7,0-15.2,0-22.8,0-.2-.6-.5-1.2-.6-1.7-2.7-13.6-5.5-27.2-8.2-40.8-1.6-8.2-3.2-16.4-4.7-24.5-.6-2.8-1.1-5.7-1.7-8.5-.3-1.3,0-2.2.8-3.3,1.4-1.9,2.5-4.1,3.9-6.3,1.2.2,2.5.5,3.7.8,19.2,5,38.3,10,57.5,15,.7.2,1.4.4,2.3.8.1,1.8-1.2,2.8-2,4.1-1.7,2.4-3.4,4.7-5.2,7-3.7,4.7-6.5,9.9-9.2,15.1-4.6,8.8-8.1,18-10.1,27.7-.8,3.6-1.4,7.3-2.2,11-.3,1.3-.7,2.5-1.3,3.9Z"/>
  <path class="st33" d="M355.1,2203.6c-3,.3-5.6.6-8.2,1-5.1.8-10.1,2.2-15.2,2.8-1.5.2-3,.7-4.6.6-1,0-1.6-.6-1.8-1.5-.1-.5,0-1.3.2-1.6.7-.7,1.5-1.3,2.3-1.6,2.8-1,5.7-2,8.6-2.6,5.4-1.3,10.8-2.6,16.2-3.4,4.4-.7,8.8-1.6,13.1-2.2,2.7-.4,5.6-.3,8.2-.9,3.4-.8,7-.2,10.4-1.2.9-.3,1.9,0,2.9-.2,1.3-.1,2.6-.3,3.9-.5,1.1-.1,2.2-.2,3.2-.2,3.1-.1,6.3.3,9.4-.7.8-.2,1.7,0,2.5,0,5.9,0,11.9,0,17.8,0,2,0,4.1-.2,6.1-.5,2.8-.4,5.8-.5,8.7.2,1,.2,2.1.3,3.2.3,3.5,0,7,0,10.5,0,2.5,0,5,0,7.6.5,2.5.5,5.1.2,7.6.2,1.7,0,3.4,0,5,.5.8.3,1.7.2,2.5.2,1.9,0,3.9-.1,5.7.6.4.2,1,.1,1.4.1,3.6,0,7.2.9,10.7,1.3,3.5.4,6.9,1,10.3,1.6,4.7.9,9.5,1.7,14.2,2.5,5.7,1,11.2,2.9,16.8,4.4.7.2,1.4.4,2,.8.9.5,1,1.3.9,2.2,0,.9-.7,1.7-1.6,1.7-1.3,0-2.7.2-4,0-1.8-.3-3.5-.9-5.3-1.2-4.5-.8-8.9-1.8-13.5-2.4-3.8-.4-7.6-1.2-11.4-1.8-.4,0-.7-.3-1.1-.2-3.5.3-6.9-.7-10.4-.8-.8,0-1.7-.2-2.5-.2-1.3-.1-2.6-.4-3.9-.5-1.7,0-3.3,0-5-.5-1.1-.3-2.4-.1-3.6-.2-3.4-.1-6.8.4-10.1-.6-.9-.3-1.9,0-2.9,0-3.5,0-7,0-10.5,0-1.6,0-3.1,0-4.7-.5-.9-.3-1.9-.2-2.9-.2-5.4,0-10.9,0-16.3,0-1.3,0-2.6.3-3.9.4-1.1.1-2.2.2-3.2.2-6.7,0-13.3,0-20,0-1.8,0-3.6-.1-5.4.5-.8.3-1.7.1-2.5.2-4.1.2-8.2-.4-12.3.7-.7.2-1.4,0-2.2,0-1.6,0-3.2-.1-4.7.5-.3.1-.7.1-1.1.2-3,.3-6,.4-9,.8-2.7.3-5.4.9-8.5,1.4Z"/>
  <path class="st55" d="M294.2,2219.1c-1,.3-2.1.4-3.1.5-10,0-20,0-30.1,0-.7,0-1.5,0-2.2,0-1.5-.1-2.9-1.5-3.1-3,0-.6,0-1.2,0-1.8,0-8.8,0-17.6,0-26.4,0-4.9.8-5.7,5.7-5.7,5.8,0,11.6,0,17.4,0,1.7,0,2.7.6,3.4,2.1,3.3,7.4,6.7,14.7,10.1,22.3-.5,1-1.1,1.8-1.7,2.5-2.2,2.3-2.1,5.2.4,7.3,1,.8,2.2,1.4,3.3,2.4Z"/>
  <path class="st41" d="M302.5,2266.8c-2.9-3.5-3.8-7.4-3.2-12,2.1-2.3,1.9-4.8.9-7-1-2.4-1-4.7-.8-7.1.1-2,1-3.8,2.5-5.1,1.8-1.6,2-3.3,1.4-5.5-.4-1.2-.2-2.7.1-3.9.4-1.6-.1-2.6-1.3-3.4-.8-.5-1.7-1-2.6-1.7.8,0,1.8,0,2.7.2,11.1,3.1,22.4,4.8,33.8,6.3.5,0,.9.3,1.6.8.3.7.3,1,.3,1.3-.3,1.8-.4,3.6-.8,5.3-.5,2.7-1.8,5-3.8,6.8-3.7,3.5-3,3.2-1.7,7.1,1.4,4.4.6,8.3-2.6,11.7-.7.7-1.4,1.3-2.3,1.7-2,1.1-2.8,1-4.2-1-1-1.5-2.2-2-4-1.9-3.5.1-6.6,1.2-9.5,3-2.1,1.3-4.2,2.8-6.5,4.3M316.4,2231.2c-1.5.8-3,1.5-4.4,2.4-2,1.2-3.3,3.2-4.4,5.1-.3.6-.3,1.4-.3,2.1,0,1.2.8,1.9,2.1,2,1.3.1,2.3-.4,3.2-1.3,2.3-2.3,4.9-4.2,7.8-5.6.7-.4,1.5-.9,2-1.4.9-.9,1-2.6.4-3.7-.7-1.1-1.9-1.1-2.9-.9-1,.2-2,.8-3.5,1.3M313.7,2254.8c1.4-1.9,2.9-3.8,5-5.1,1.2-.7,2.1-1.9,3.1-3,.9-1,.8-1.9-.2-2.9-1.1-1.1-2.2-1.3-3.6-.5-3.6,2.1-6.6,4.7-9.3,7.8-2,2.3-1.9,3.4.3,5.5.3.3.8.4,1.2.6,1.1-.8,2-1.5,3.4-2.5Z"/>
  <path class="st31" d="M553.8,2151.6c11.5,2.6,23,5.5,34.5,8.4,8.4,2.2,16.8,4.4,25.3,6.6.6.1,1.1.3,1.4.7-.1.3-.2.5-.2.5-18.9,0-37.7,0-56.9,0-1.7-1.4-1.6-3.3-2-5.1-.8-3.6-1.4-7.3-2-11.2Z"/>
  <path class="st18" d="M558.7,2178.4c1.9.5,3,2.1,4.3,3.6,2.6,3.3,5.3,6.6,7.9,9.9,4,5.2,8,10.3,11.9,15.5.7.9,1.7,1.7,1.9,3.2-1.3.4-2.5.2-3.6.2-1.2,0-2.4,0-3.6,0-1.2,0-2.4,0-4,0-.7-.2-1.3-.3-1.6-.7-1.2-1.4-2.8-2.3-4.5-3-1.1-.5-2.2-1-3.2-1.6-2.4-1.5-4-3.5-4.2-6.4-.2-1.9-.5-3.8-.6-5.7-.3-4.9-.5-9.9-.7-15.1Z"/>
  <path class="st40" d="M338.1,2229.7c-.3-.3-.4-.6-.4-1.2,3.2-.3,6.3-.5,9.4.3.2,0,.5,0,.7,0,4.1.3,8.2.5,12.3.8,6.5.4,13,.9,19.5,1.4,1.1,0,2.2,0,3.3,0,12.3.3,24.6,1.1,37,.9,5.7.8,11.4.7,17,.4,10.3-.6,20.6-.1,30.8-.7,4.9-.3,9.9-.3,14.8-.7,7.2-.6,14.4-1.1,21.7-1.4,4.1-.2,8.2-.8,12.2-1.2,2.8-.3,5.5-.5,8.6-.7.2.5,0,1,0,1.8-3.1.3-6.1,0-9.1.9-1,.3-2.2,0-3.3,0-2.2,0-4.3,0-6.5.5-1.5.4-3.1.1-4.7.2-2,0-4.1,0-6.1.5-1.6.4-3.4.2-5.1.2-1.9,0-3.9-.2-5.7.5-.8.3-1.7.2-2.5.2-2.5,0-5.1,0-7.6,0-1.3,0-2.6.3-3.9.4-.2,0-.5.2-.7.2-4.5-.3-8.9.8-13.3.8-.7,0-1.5,0-2.1-.3-1.4-.5-2.8-.4-4.3,0-.9.3-1.9.3-2.9.3-8.5,0-16.9,0-25.4,0-1.2,0-2.4-.3-3.6-.4-1.1-.1-2.2-.3-3.2-.3-4.7,0-9.4,0-14.2,0-2.8,0-5.5.2-8.3-.6-1.5-.4-3.1,0-4.7-.1-3.8-.2-7.7.2-11.5-.6-2.6-.5-5.3,0-8-.2-1.3,0-2.6-.3-3.9-.4-1-.1-1.9-.2-2.9-.3-2.2,0-4.4,0-6.5,0-1.2,0-2.4-.3-3.6-.4-.4,0-.7-.2-1.1-.2-4-.3-7.9-.5-12.2-.8Z"/>
  <path class="st31" d="M300.4,2200.1c-.5,0-.7-.2-.8-.4-3.3-7-6.5-13.9-9.8-20.9-.3-.7-.5-1.5-.8-2.5,4.8-.6,9.3-.2,14.2-.4.3,1.6.5,3.3.3,5-.4,4.3-.8,8.6-1.4,12.9-.3,2.1-.2,4.3-1.8,6.3Z"/>
  <path class="st41" d="M298.8,2220.7c-.6.1-1.3,0-2.2-.3.6-.1,1.3,0,2.2.3Z"/>
  <path class="st41" d="M296.4,2220c-.3.1-.7,0-1.2-.2.3-.1.7,0,1.2.2Z"/>
  <path class="st39" d="M505,2450.4c-3.7,3.5-8.2,5.3-12.9,7-5.4,1.9-10.9,2.9-16.4,4.1-3,.6-6,.7-9,.7-2.5,0-5.1,0-7.6,0-4.2.1-8.4-.7-12.5-1.5-5.1-1-10.1-2.2-15-4-3.3-1.2-6.6-2.2-9.5-4.2-.6-.4-1.3-.5-2-.8-7.1-3.3-13.9-7.2-20.4-11.7-3.5-3.6-8.1-5.6-11.8-8.8-2.2-1.9-4.4-3.8-6.5-5.7-3.1-2.7-6.1-5.5-9.5-8.6-.4-.8-.7-1.3-.7-1.8,0-4,0-7.9,0-11.9.8.3,1.7.3,2.3.8,2.5,1.9,4.9,3.9,7.3,5.8,4.4,3.5,9.1,6.7,14.1,9.5,3.5,2,6.9,4.5,11,5.4.1,0,.2,0,.3.2,3.9,3,8.7,3.4,13.3,4.2,4.8.9,9.8,1.6,14.7.9,3.7-.5,7.4-.6,11.1-1.4.7-.1,1.4-.4,2.1-.6,5-1.3,9.8-3.5,14.5-5.6,3.1-1.4,6.1-3,8.9-4.8,3.4-2.2,6.6-4.9,9.8-7.3.3-.2.5-.6.8-.7,3.3-1.7,5.7-4.5,8.6-6.6.2,1.2.2,2.2.2,3.2-.2,3.6.2,7.2-.6,10.8-.3,1.5,0,3.1,0,4.7,0,1.4.3,2.9.5,4.3,0,1.1,0,2.2.2,3.3,1.7,8.3,6.1,14.8,13.2,19.5.6.4,1.2.8,1.3,1.6Z"/>
  <path class="st54" d="M425.7,2349.9c13.9,0,27.4,0,41,0,1.5,0,3.1-.3,4.7.6-.2.8-.3,1.5-.6,2.1-1.1,2.2-2.8,3.9-4.5,5.6-7.6,7.3-16.6,11.7-27,12.9-10.8,1.2-21.5.4-31.6-4.2-6.2-2.8-11.2-7-15.5-12.2-.9-1.1-1.6-2.4-2-4,1.9-.6,3.8-.6,5.7-.6,9.8,0,19.6,0,29.7,0Z"/>
  <path class="st13" d="M371.3,2403.1c0,4.2,0,8.1,0,12.1,0,.5.2.9.4,1.7-.7,3.1-.5,6-.5,8.9,0,9.2-4.1,16.3-11,22-1.7,1.3-3.1,3.1-5.5,3.7-2.1-3.6-1.9-7.4-1.4-11.3.1-1,.7-2.1,1.2-3,.5-.9,1.2-1.8,2-2.8-.4-.8-.8-1.6-1.3-2.4-1.7-2.6-2.3-5.6-2.4-8.6-.1-2.5.6-4.8,2-6.8.6-.8,1.2-1.5,1.8-2.3-.5-1-1.1-1.9-1.6-2.9-1.7-3.3-2.3-6.8-2-10.5.1-1.9.9-3.5,1.8-5.1.5-.8,1.2-1.5,1.9-2.4-1.8-2.8-3.6-5.7-4.6-9.2,1.3,0,2.1,1.2,2.9,2.2,4,5.4,9.1,9.8,14.1,14.3.8.7,1.4,1.6,2.2,2.6Z"/>
  <path class="st42" d="M505.2,2450.5c-.4-.8-1-1.2-1.6-1.6-7.1-4.7-11.4-11.2-13.2-19.5-.2-1,0-2.2-.2-3.3-.1-1.4-.4-2.9-.5-4.3-.1-1.6-.4-3.2,0-4.7.8-3.6.4-7.2.6-10.8,0-1,0-1.9,0-3.2.9-1.3,1.6-2.5,2.6-3.3,5.3-4.3,10-9.1,14.2-14.4.4-.6,1-1,1.7-1.6-.4,3.6-2,6.8-4,9.8,5.3,6.9,4,13.8,0,20.9,1.3,2.2,2.9,4.5,3.1,7.3.2,2,0,3.9-.3,5.8-.5,2.4-1.4,4.6-2.8,6.7.5.8,1,1.6,1.5,2.5.9,1.6,1.5,3.3,1.6,5.1.1,2.8.2,5.6-.6,8.5-.7.2-1.3.1-2.1,0Z"/>
  <path class="st29" d="M308,2285.7c.7-4.8,2.3-8.9,5.8-12,2.2-2,6.5-2.5,9.2-1.2,1.1.5,1.7,1.3,1.7,2.5,0,1.1,0,2.2,0,3.3,0,2-.1,4.1.6,6.1.3.8.1,1.7.1,2.5,0,2.4-.2,4.8.6,7.2.1.3,0,.7,0,1.1,0,4,.7,7.9,1.3,11.8.4,2.8.6,5.7.8,8.6,0,.6-.2,1.1-.3,2-.7-.2-1.3-.3-1.8-.5-1.4-.5-2.7-1-4-1.5-.6-.2-1.1-.5-1.6-.8-.9-.6-1.7-1.4-2.7-1.8-3.1-1.3-4.6-4-6.2-6.7-2.3-3.9-3.2-8.3-4.2-12.6-.6-2.4-.4-5,.5-7.8Z"/>
  <path class="st9" d="M554.2,2294.7c-.3,1.5-.6,2.7-1,3.8-1.4,5-4.1,9.2-7.4,13.1-.9,1.1-2.3,1.8-3.5,2.5-1.9,1-3.9,1.8-6,2.6-.7.3-1.6.1-2.7.2.1-1.6.2-3,.3-4.4,0-1.3.1-2.6.3-4,.1-1.1.3-2.1.5-3.2.2-1.4.4-2.8.6-4.3,0-.4.1-.7.1-1.1,0-2-.1-4.1.7-6.1-.2-3.9,1-7.6.8-11.5,0-2.6.4-5.3.7-7.9.2-1.4,1.3-2.4,2.7-2.5,1.6-.1,3.2-.2,4.7,0,1,.1,2,.7,2.9,1.3.7.4,1.3,1.1,1.7,1.8,2.8,4.3,4.6,9,4.6,14.2,0,1.7,0,3.4,0,5.4Z"/>
  <path class="st10" d="M400.4,2242.6c5.4,1.4,4.3,3,2.8,6.7-.5,1.1-1.4,1.7-2.6,1.6-1.4,0-2.9,0-4.3-.3-4.4-.8-8.7-2-13.1-2.5-9-1-17.5.4-25.3,5.3-1.1.7-2.2,1.5-3.4,2.1-1.2.6-2,.4-2.9-.6-1-1.1-1.1-2.3-.3-3.3.9-1,1.8-2,2.9-2.8,6.9-5.2,14.7-8.2,23.2-9.5,1.8-.3,3.6-.3,5.4,0,5.2.7,10.5,1.3,15.6,2.7.6.2,1.2.3,2,.5Z"/>
  <path class="st47" d="M491.2,2248.3c-6.2-.7-12.1-.8-17.9.5-2.8.6-5.6,1.2-8.5,1.8-.7.1-1.4.1-2.2.2-2.7,0-4.3-1.1-4.9-3.7-.5-1.9,0-3.1,1.9-3.7,3.2-1,6.5-1.9,9.8-2.6,2.9-.6,5.9-1,8.9-1.4.7-.1,1.4,0,2.2-.1,5.3,0,10.3,1.1,15.1,3,3.9,1.4,7.6,3.2,10.8,5.7,1.5,1.2,2.9,2.5,4.3,3.9,1,1,.9,1.9,0,2.9-1,1.1-2.1,1.4-3.2.9-.3-.2-.6-.4-.9-.6-4.5-3.5-9.6-5.4-15.4-6.7Z"/>
  <path class="st2" d="M387.3,2266.6c3.5,4,4.5,8.4,4.2,13.3-.3,4.5-3.3,8.3-7.6,9.6-3.7,1.1-6.6.2-8.8-3.1-3.7-5.4-4.5-11.1-1.2-17,.8-1.4,2-2.8,3.3-3.7,2.2-1.6,4.8-2.3,7.5-.8.8.5,1.6,1,2.6,1.7Z"/>
  <path class="st2" d="M488.1,2283.3c-.8,2.5-2.4,3.9-4.1,5.3-1.9,1.6-4.1,1.8-6.5.9-3.1-1.3-5.4-3.3-6.2-6.6-1.3-4.8-1.2-9.5,1.2-14.1,1.6-3,4.2-4.3,7.3-4.8,1.7-.3,3.3.5,4.7,1.6,5.1,4,5.9,10.3,4.5,15-.2.8-.5,1.6-.8,2.7Z"/>
  <path class="st9" d="M436.7,2330.3c-5.7.8-11.1.7-16.3-1.2-2.8-1-5.6-2.1-8.2-3.5-1.8-1-2.8-2.3-2.4-4.3.1-.7.1-1.4.2-2.2,1.5-1,3-.9,4.4-.1,3.1,1.7,6.5,2.6,9.9,3.4,4.6,1,9.3.5,14,.3,1.7-1,3.6-1.2,5.5-1.6,1.1-.3,2.3-.7,3.2-1.6.7-.6,1.6-1.1,2.4-1.5,1.1-.5,2.2.3,2.4,1.5.3,2-.3,3.8-1.6,5.4-.6.7-1.4,1.4-2.3,1.7-3.6,1.3-7.1,3.1-11.2,3.9Z"/>
  <path class="st39" d="M440.5,2389.3c-2.6.4-4.8.7-7.1.9-4.4.4-8.6-.6-12.8-1.8-1.6-.5-3.2-1-4.8-1.5,0-.5-.2-1-.2-1.5,0-2.8.8-3.5,3.5-2.9,2.3.5,4.7,1.1,7,1.6.8.2,1.7.2,2.5.3,1.2,0,2.4,0,3.6,0,3.6.3,6.9-.5,10.3-1.6.9-.3,1.9-.5,2.8-.6,1.3,0,2,.7,2.2,1.9.2,2.1-.7,3.5-2.9,3.8-1.4.2-2.6.6-4,1.3Z"/>
  <path class="st39" d="M379.4,2338.1c1.2-.8,2.3-1.4,3.3-1.9,1.4-.7,2.9,0,3.5,1.5.1.4.1,1,0,1.4-1,1.4-1.8,3-3.1,3.9-3.4,2.3-4.3,5.5-4.6,9.2-.1,1.4-.5,2.8-.8,3.9-1.2.9-2.1.7-2.9,0-.9-.7-1.9-1.5-2-2.8,0-.6-.1-1.2,0-1.8,1-5,2.7-9.7,6.7-13.5Z"/>
  <path class="st39" d="M486.9,2356.4c-2.3.3-2.9,0-3.1-1.5-.2-1.4-.4-2.8-.6-4.2-.6-3.8-2.7-6.7-5.7-8.8-1.8-1.2-1.8-2.6-1.6-4.3.1-1,1-1.8,2-1.6.9.2,1.9.5,2.6,1,2.7,1.9,4.5,4.7,6,7.5,1.3,2.4,1.8,5.2,2.3,7.9.2,1.5.3,3.2-1.9,4.1Z"/>
  <path class="st57" d="M222.3,2107c7.4-6.1,14.6-12,21.7-17.9.3-.2.7-.3,1-.4,1.5.6,1.8,1.7,1.5,3.2-.9,4.6-1.8,9.3-2.7,13.9-2.3,11.7-4.7,23.4-7.1,35.2-1.7,8.5-3.4,17.1-5.2,25.6,0,.3-.3.6-.5,1.1-.6,0-1.3.2-2,.2-19.3.5-74.3.2-78.5-.4.6-.6,1-1.2,1.5-1.6,9.7-8,19.4-16,29-24.1,6.3-5.3,12.5-10.7,18.8-15.9,7.4-6.2,14.8-12.4,22.5-18.8Z"/>
  <path class="st22" d="M174.1,2183.3c0,14.3,0,28.2,0,42.1,0,.2-.2.4-.4.9-3.3.6-6.8.2-10.3.2-3.4,0-6.8,0-10.2,0-3.5,0-7,.3-10.4-.2-.5-3.2-.5-46.1,0-49,0,0,.2-.2.3-.2,0,0,.2,0,.3-.1,9.1,0,18.2,0,27.2,0,1,0,1.9,0,3.1,0,.2.8.4,1.5.4,2.1,0,1.3,0,2.7,0,4.3Z"/>
  <path class="st4" d="M259,2307.1c5.3-4.5,10.3-9,15.5-13.1.4.2.5.2.6.3,0,0,0,.2,0,.3,0,18.5,0,37,0,55.4,0,.2-.2.4-.3.6-.2,0-.5,0-.7,0-10.9-9.2-21.7-18.4-32.5-27.6.2-1.3,1.1-1.7,1.8-2.3,5.1-4.5,10.2-8.9,15.5-13.5Z"/>
  <path class="st48" d="M261,2378.9c4.6-3.9,8.9-7.7,13.4-11.3.4.4.7.5.7.7.4,9.8.2,52.5-.2,55.8-.2,0-.5,0-.7,0-10.8-9.2-21.5-18.4-32.1-27.4-.2-1.5.8-2,1.5-2.6,5.7-5,11.5-10,17.4-15.2Z"/>
  <path class="st19" d="M237.6,2358.3c0-9.3,0-18.2,0-27.1,1.1-.5,1.5.2,2,.7,5.5,4.6,10.9,9.2,16.3,13.9,4.3,3.7,8.7,7.3,13,11,.7.6,1.5,1.2,2.1,1.7-.5,1.7-1.6,2.3-2.5,3.1-9.4,8.2-18.8,16.3-28.3,24.5-.7.6-1.5,1.1-2.1,1.6-.3-.2-.5-.2-.5-.3,0,0,0-.2,0-.3,0-9.4,0-18.9,0-28.7Z"/>
  <path class="st19" d="M249.7,2451.1c-4,3.3-7.5,6.8-11.5,9.7-.3-.3-.6-.5-.6-.6,0-18.5,0-37,0-55.5.9-.6,1.4.2,1.9.6,8.9,7.5,17.7,15,26.6,22.5,1.6,1.4,3.3,2.8,5.1,4.3-2.2,2.6-4.7,4.4-7,6.5-2.3,2.1-4.8,4.1-7.2,6.1-2.4,2.1-4.7,4.1-7.3,6.4Z"/>
  <path class="st19" d="M237.6,2292.9c0-11.7,0-23.1,0-34.5,0,0,.1-.2.2-.3.6-.4,1.1,0,1.6.4,1.9,1.5,3.8,3,5.6,4.6,7.6,6.5,15.3,13,22.9,19.6.9.8,1.8,1.6,2.8,2.6-.4.5-.7,1-1.1,1.4-9.8,8.6-19.6,17.2-29.5,25.8-.6.5-1.3,1-2.2,1.8-.2-.8-.5-1.3-.5-1.8,0-6.4,0-12.8,0-19.6Z"/>
  <path class="st4" d="M253.6,2159.4c-3.6,2.9-7,5.6-10.5,8.4-1,0-2,0-3.3-.2.2-4,1.4-7.5,2.1-11.2.7-3.8,1.5-7.6,2.3-11.4.8-3.7,1.5-7.3,2.3-11,1-.6,1.6.1,2.2.6,4.9,4,9.7,8,14.5,12,.9.8,1.8,1.6,2.9,2.5-4.3,3.4-8.3,6.6-12.6,10Z"/>
  <path class="st5" d="M271.5,2254.6c1.3,0,2.2.1,3.1.2.6,2.4.7,17.6.2,22.4-.1,0-.2.2-.3.2-.1,0-.3,0-.3,0-8.5-7.3-17-14.6-25.4-21.8.2-.3.3-.4.3-.5,0,0,.2-.1.3-.1,2.5,0,5.1-.1,7.6-.1,4.7,0,9.4,0,14.5,0Z"/>
  <path class="st31" d="M264.2,2138.5c-4.8-3.7-9.1-7.5-13.6-11.3.8-1.9,2.4-2.8,3.7-4,1.3-1.3,2.6-2.5,3.9-3.7,1.3-1.2,2.5-2.6,4.3-3.5,1.1,2.7,1.2,5.4,1.8,8.1.6,2.7,1.1,5.4,1.6,8.1.5,2.7,1.4,5.3,1.3,8.1-1.4.1-1.9-1.1-3-1.7Z"/>
  <path class="st43" d="M258.1,2093.9c1.6,4.4,1.9,8.8,2.9,13.1-3.7,3.5-7,6.9-11.1,10.4,1.6-8.1,3.1-15.6,4.5-23.1,1.1-.9,2.3-.8,3.7-.5Z"/>
  <path class="st5" d="M255.8,2166.6c4.9-3.8,9.5-7.3,14.2-10.9,0,0,.2,0,.6.1,1,3.8,1.7,7.7,2.4,11.6-.4.2-.5.3-.6.3-5.4,0-10.8,0-16.3,0-.7,0-.7-.5-.3-1.2Z"/>
  <path class="st48" d="M644.1,2316.1c-.8.8-1.7,1.7-2.9,2.8-1,.5-1.7.9-2.4,1.1-5.2,2.2-13-1.9-12.7-9.2,0-.8.1-1.7.2-2.5,0,0-.1,0,0,0,.2-.3.3-.5.3-.7.5-.8,1-1.6,1.7-2.7.4-.5.5-.7.7-.9,0,0,0,0,.1,0,.3-.2.5-.5.6-.7,0,0,0,0,.2,0,2.7-.6,5.1-1.1,7.8-.9.3,0,.4,0,.8.1,1.3.6,2.3,1.1,3.3,1.6.6.6,1.1,1.2,1.9,2.2,1.9,3.6,1.4,6.7,0,9.8Z"/>
  <path class="st45" d="M637.8,2302.3c-2.5-.2-4.9.3-7.6,1-.5-2-.5-3.9,1.4-5.1.5-.3,1-.7,1.6-.7,1.8-.3,3.5-.5,5.3-.6,1.6,0,3.5,1.7,3.6,3.4,0,1.1,0,2.2,0,3.6-1.1-.2-2.1-.7-3.4-1.4-.5-.2-.7-.1-.9-.1Z"/>
  <path class="st32" d="M626.1,2308.4c.2.7,0,1.6,0,2.4-.3,7.3,7.5,11.4,12.7,9.2.7-.3,1.3-.6,2.3-.9.5,1.3-.1,2.3-1.4,2.7-1.6.5-3.2,1-4.9,1.6-.5-.2-1.1-.4-1.6-.7-1.3-1.1-2.7-1.3-4.3-1.3-2.3,0-3.2-1.1-3.4-3.3-.1-1.3-.4-2.6-.6-3.9-.4-2,0-3.8,1.3-5.7Z"/>
  <path class="st32" d="M621.1,2330.1c2.4-1,2.7-.9,3.5.8.4.7.8,1.4,1.2,2.2.6,1.3.3,2.7-.7,3.2-1.3.7-3.1.3-3.8-.8-1-1.6-1.3-3.3-.2-5.3Z"/>
  <path class="st32" d="M644.4,2316.1c1-3.1,1.5-6.3-.2-9.7.8-.4,1.6-.1,2.1.7.7,1.4,1.5,2.7,2.1,4.2.7,1.6.3,2.8-1.1,3.7-.8.5-1.7.8-2.9,1.1Z"/>
  <path class="st32" d="M635,2344.7c.9-1.1,1.8-1,2.7-.4.3.2.5.6.5.9,0,.7-1.2,1.5-2.2,1.4-.9,0-1-.8-.9-1.9Z"/>
  <path class="st45" d="M629.7,2303.2c0,.1,0,.4-.4.6,0-.1,0-.4.4-.6Z"/>
  <path class="st32" d="M626.5,2304.2s0,0,0,0Z"/>
  <path class="st32" d="M626.6,2307.6c0,.1,0,.4-.2.7-.2-.2-.1-.4.2-.7Z"/>
  <path class="st45" d="M629,2304c0,.1,0,.4-.4.7,0-.1,0-.4.4-.7Z"/>
  <path class="st19" d="M601.5,2199.6c-.5.7-1,1.3-1.7,2.1-.4.6-.5.9-.6,1.1,0,0,0,0-.2,0-1,1.3-1.8,2.4-2.6,3.6,0,0,0,0-.2.1-.4.5-.6.9-1,1.3-.7.2-1.1.3-1.6.4-1.4-1.9-2.9-3.9-4.4-5.8-6.4-8.2-12.8-16.4-19.2-24.6-.4-.5-.6-1-.9-1.3.1-.3.2-.5.2-.5,0,0,.2-.1.3-.1,16.2,0,32.4,0,48.5,0,.6.9-.1,1.4-.5,1.9-4.6,6.1-9.2,12.1-13.9,18.2-.8,1.1-1.6,2.1-2.4,3.4Z"/>
  <path class="st19" d="M603.3,2209.5c.2,0,.3-.2.6-.6.3-.5.5-.7.6-1,.3,0,.5-.2.7-.6.1-.2.2-.4.2-.4,0,0,0,0,0,0,3.2-4.1,6.4-8.1,9.5-12.2,3.3-4.2,6.5-8.4,9.7-12.7.7-.9,1.5-1.8,2.5-2.9,1,1.2,1.8,2.3,2.9,3.6.8.9,1.3,1.4,1.8,2.2.3.4.5.5.7.6,0,0,0,0,0,.2.4.6.8,1,1.2,1.5,0,0,0,0,.1.3,4.2,5.4,8.3,10.7,12.5,16.1,1.8,2.3,3.4,4.4,5.1,6.5,0,0,0,.3-.3.5-2,.2-3.7.3-5.3.3-12.9,0-25.7,0-38.6,0-1.2,0-2.4,0-3.6.1-.2-.2-.4-.3-.5-.8.1-.4.2-.5.2-.7Z"/>
  <path class="st27" d="M631.9,2184.7c-.5-.5-1-1.1-1.6-1.9.2-.6.7-.9.8-1.3.3-1.8.6-3.5.9-5.3.4-3.5,1.8-5.3,5.1-6,1.9-.4,3.2-1.5,4.3-2.9,2.7-.4,5.1.4,7.5,1.2,1.6.5,3.2,1.1,4.9.8,2.3-.4,4.1,1.9,6.2,1.2,2.1-.7,4-.3,6.1.3,1.5-1.5,3.4-1.6,5.4-1.5,1.9,0,3.9,0,5.8,0,1.8,0,3.6-.2,5.2,1.1.7.6,1.6.4,2.4,0,.5-.3,1-.8,1.5-.9,1-.3,2.1-.4,3,.5,1.9,1.9,3.8,3.6,5.6,5.5.5.6,1,1,2,1,.4.7.5,1.2,1.5,1.4.3.3.4.4.8.7.1,2.3,1.5,3.5,3.5,4.4.3.3.5.4.8.7.1,1.2.4,2.2,1.3,3,.9.8,1.5,1.8,1.6,3.2-1.5,2.2-3.6,2.1-6.2,1.3-.3,0-.3,0-.3-.2-.3-.3-.5-.5-.6-.7,0,0,0,0,0-.2,0-2.2-1.1-3.3-3.2-3.4-.4-.2-.4-.4-.4-.9-.3-.5-.7-.8-1-1.1,0,0,0,0,0-.1-.2-.4-.5-.5-.6-.7,0,0,0,0,0-.1-.3-.4-.5-.5-.6-.7,0,0,0,0,0-.1-.3-.3-.5-.5-.7-.6,0,0,0,0,0-.2-.6-1.2-1.1-2.1-1.7-2.9-.2-.3-.8-.3-1.5-.5-.2,1.9-1,3.3-2.2,4.5-.6.7-1.1,1.6-1.5,2.4-.1.3.2.9.2,1.4,0,0-.1.2-.4,0-1.3.1-2.3.5-3.3.7-.5.1-1.1,0-1.8,0-.2-2.1-.5-3.9.8-5.6.3-.3,0-1.1,0-1.7,0,0,0,0,.3,0,.4-.4.6-.8.8-1.2,0,0,0,0,.2,0,1.3-.3,1.3-.9.9-1.7,0,0,0-.1.2,0,.2.1.3.1.4.1-.1-.1-.2-.3-.3-.8,0-.5-.1-.9-.2-.9-.8-.1-1.7-.2-2.5-.2-14.1,0-28.2,0-42.3,0-1.1,0-2.1,0-3.2,0,0,.6-.2.9-.2,1.5.1.9.4,1.1,1.1,1,0,0,0,0,0,.3-.2,1.4.5,1.4,1.3,1.4,0,0,0,0,0,.1.2.4.5.5.6.7,0,0,0,0,0,.1.3.3.5.5.6.7,0,0,0,0,0,.2.3.5.7.8.9,1.1,0,0,0,0,0,.1.2.4.5.5.7.7,0,0,0,0,0,.3.2,2.8-2.2,3.6-3.1,5.8-.9-1.2-1.5-2.1-2.3-3-.5.1-1.1.3-1.7.4,0,0,0,0,0-.3.1-1.3-.5-1.4-1.3-1.4,0,0,0,0,0-.2-.3-.3-.5-.5-.7-.6M657.7,2173.6c-3.3-.9-4.1-.8-6.4,1,2,.8,3.8.9,7.1.3,0-.3-.2-.6-.8-1.2M667.6,2173.8c-.6,0-1.2,0-1.8,0-.6,0-.8.4-.6,1.1,1.1.4,2.2.5,3.5-.1-.2-.3-.4-.6-1.1-1Z"/>
  <path class="st27" d="M593.5,2208.6c.5-.4,1-.5,1.9-.7.6,0,.8,0,.9,0,.7.6,1.4,1.3,2,1.9q-1.4,2.6-3.8,3c-.4-.9-.7-1.9-1.2-3.2,0-.4,0-.6,0-1Z"/>
  <path class="st51" d="M533.4,2437.7c-1.4,2.5-2.7,4.8-3.9,7.2-1.5,2.9-2.3,4.1-6.7,3.2-.8-1.5-.7-3.1-.1-4.7.2-.7.6-1.3.9-1.9,1.7-3.2,3.4-6.3,5.1-9.5.9-1.7,2.3-2.4,4.1-2.4,2.4,0,3.7,1.8,2.6,4.1-.6,1.3-1.3,2.6-2,4.1Z"/>
  <path class="st51" d="M533.8,2376.3c-1.2,3.1-3,5.5-4.7,8-.6,1-1.7,1.7-2.7,2.4-1.6,1.2-3.8-.3-3.5-2,.2-1.3.4-2.6.8-3.8.6-1.4,1.4-2.8,2.1-4.2.4-.7,1-1.4,1.2-2.2.6-3.2,2.6-5.3,4.8-7.2,1.3,0,2.2.5,3.1,1.2.9.8,1.3,1.7.8,2.9-.7,1.5-1.2,3.1-1.9,5Z"/>
  <path class="st51" d="M528.3,2413c1.9-3,2.8-3.5,5.3-3.1.9.2,1.6.7,1.7,1.7,0,.9.2,2-.1,2.8-1.4,4-3.1,7.8-5.6,11.2-1.6,2.1-3.4,2.8-6.1,2.1-.8-1.8-.7-3.7.2-5.5,1.5-3,3-6,4.6-9.3Z"/>
  <path class="st51" d="M533.4,2396.3c-1.7,3.1-3.2,6-4.8,8.8-.7,1.3-2,2.1-3.4,2.5-1.5.4-2.7-.4-2.9-1.9-.2-1.7-.3-3.5.9-4.8,2.2-2.2,2.8-5.3,4.5-7.7.7-1,1.2-2.1,1.9-3,1-1.4,2.4-1.7,3.7-.6.7.5,1.2,1.2,1.8,1.8-.2,1.7-.9,3.3-1.8,5Z"/>
  <path class="st57" d="M650.5,2236.3c.2,16.2.2,32.4.1,48.6,0,.4,0,.7,0,1.1-.1,2.1-.5,2.4-2.7,2.4-3.9-.2-7.7-.4-11.6-.5-4.2,0-8.4.3-12.7.3-.9,0-1.9.5-2.6-1.2,0-4.3,0-8,0-11.7,0-3.1-.1-6.2-.2-9.3,0-2.7,0-5.4.1-8.7,0-2.7,0-4.7,0-6.7,0-3.3-.2-6.6-.3-10,.1-1.4.3-2.8,1-4.4,4.8-.1,9-.1,13.1-.1,5,0,10.1,0,15.1,0,0,0,.3.2.4.2Z"/>
  <path class="st44" d="M645,2219c3.1,0,6.3.2,9.4.3,1.6,0,3.1,0,4.8,0,.7,3,.3,5.9.3,8.5-.3.3-.4.5-.5.5,0,0-.2,0-.3,0-.6,0-1.2,0-1.8,0-7.4,0-14.7,0-22.8,0-2.1,0-3.6,0-5.1.2-4.2,0-8.4-.1-12.7-.2-1.2,0-2.4,0-3.8-.1-.2-2.9-.1-5.7,0-8.2.9-1.1,1.9-.8,2.8-.8,6.3,0,12.6,0,19.5,0,3.8,0,7-.1,10.2-.2Z"/>
  <path class="st27" d="M707.5,2200.1c.6-1.2,1.2-2.3,1.8-3.6.7,0,1.3-.1,1.9-.2,1.5-.1,2.6.5,3.3,1.7,1.2,2,2.7,3.6,5,4.8.2,1.7,1.3,3.2.6,5-.4,1,.6,2.1,1.7,2.5,1,.4,2.1.5,3.4.9.1.2.5.5.7,1,1.5,4,0,5.9-4.1,5.2-1.1-.2-2.1-.6-3.1-.9-1.8-.6-3.5-.7-5.2.2-3.5,1.7-7.1,2-10.9.9-.5-.1-1-.3-1.4-.1-1.9.9-4,0-6,.5-.8.2-1.7.2-2.5,0-1.4-.5-2.9-.6-4.3-.5-3.2.3-6.2-.5-9.6-.8-.8-.8-1.2-1.6-1.4-2.7,1.4-.5,2.6-.6,3.8-1,1.4-.5,2.8-.7,4.2-.7,9.3,0,18.6,0,27.9,0,1.4,0,2.8.2,4.2.3q-.1-1.8-2-2.6c0,0,0-.3,0-.5-.3-.4-.5-.6-.7-.8,0,0,0,0,0-.1-.2-.3-.4-.5-.6-.7,0,0,0,0,0-.2-.3-2.2-.4-2.3-2.3-2.6,0,0,0,0,0-.1-.3-.3-.5-.5-.8-.7-.3-.3-.4-.5-.5-1,0-1.4-.5-1.9-1.6-1.8,0,0,0,0,0-.1-.3-.4-.5-.5-.9-.7-.3-.2-.4-.4-.4-.6Z"/>
  <path class="st45" d="M633.9,2187.5c.5-.3,1-.5,1.6-.6.7,1,1.4,1.8,2.3,3,1-2.2,3.3-3.1,3.3-5.7,1.7,1.6,3.1,3.4,4.4,5.1,1.9,2.4,3.7,4.9,5.4,7.6-.3.4-.5.6-.8.8-1.4,0-2.8,0-3.8,1.3-.5.7-.4,1.3,0,2.5,0,1,0,1.4-.1,1.9-4.1-5.2-8.2-10.4-12.4-15.9Z"/>
  <path class="st27" d="M603.7,2211.3c1.1-.3,2.3-.4,3.5-.4,12.9,0,25.7,0,38.6,0,1.7,0,3.4,0,5.4-.1.3.7,0,1.4-.8,1.5-.8,0-1.7,0-2.5,0-4.2,0-8.5,0-12.7,0-1.5,0-2.9,0-4.1,1.1-.9.8-2,1.1-3.4.5-.7-.3-1.7-.3-2.5,0-1.7.6-3.3.4-5,.5-2.1.2-3.8-.2-4.9-2.2-3.1,0-6.2,0-9.2,0-.8,0-1.7.2-2.3-1Z"/>
  <path class="st56" d="M715.5,2210.1q1.8.7,1.9,2.5c-1.4-.1-2.8-.3-4.2-.3-9.3,0-18.6,0-27.9,0-1.5,0-2.9.2-4.2.7-1.1.4-2.3.5-3.8.8-.8,0-1.4,0-1.7-.2-1.5-1.6-3.4-1.2-5.6-1.5-.3-.6-.3-.9,0-1.2,14.1,0,27.8,0,41.5,0,1.1,0,2.2,0,3.2-.1.3,0,.5-.4.7-.6Z"/>
  <path class="st27" d="M669.7,2210.9c0,.3,0,.6,0,1.2-1.1.3-1.3,1-1.5,1.9-.5,1.9-1,2.1-2.8,1.6-.8-.2-1.6-.4-2.6-.7-.2-1.7-.6-3.4-1.7-5.4,0-.8,0-1.2,0-1.7.4-.6.8-.9,1.5-1.3,1.3-.5,2.4-.9,3.5-1.4,1.2,1.4,2.4,2.6,2.3,4.5,0,.9.6,1.2,1.4,1.3,0,0,0,0,0,0Z"/>
  <path class="st45" d="M650,2235.8c-5,.3-10,.3-15,.3-4.2,0-8.4,0-12.9,0-.2-.7,0-1.1,1.2-1.2,1.8,0,3,0,4.3,0,1.6,0,3.1,0,4.7,0,2.3,0,4.4-.1,6.5-1.4,2.1-1.3,4.8-1.5,7,.4.8.7,1.6,1,2.6,1,.5,0,1,.4,1.6.9Z"/>
  <path class="st27" d="M645.1,2218.7c-3.2.4-6.4.4-9.9.4-.2-.5-.1-1.3.2-1.4,3.2-1.3,6.5-2.4,10.2-1.4-.2.8-.3,1.4-.5,2.4Z"/>
  <path class="st27" d="M650.1,2198.1c.2-.5.4-.7.9-1,.4.1.5.3.6.8.3,2.3.4,2.4,2.3,2.7,0,0,0,0,0,.1.2.4.4.5.6.7,0,0,0,0,0,.2,0,1.8.9,2.9,1.4,4.1-.4.5-.9.8-1.6.6-.4-.2-.9-.4-1.2-.8-1.4-2.2-3.1-4.4-3.1-7.5Z"/>
  <path class="st27" d="M646.4,2203.6c0-.7,0-1.1.1-1.9.6-.3,1.2-.2,1.7-.1.2.4.4.7.4,1.1,0,2.1.9,3.3,2.9,3.9,1.5.5,1.7,1.3,1.3,2.8,0,.3-.5.4-1.1.7-1.9-2.1-3.6-4.2-5.4-6.5Z"/>
  <path class="st56" d="M656.1,2205.9c-.7-1.4-1.7-2.5-1.4-4.2,1.6,1.7,3.1,3.5,4.5,5.4.5.6,1,.9,1.8.8,0,.3,0,.7,0,1.2-.9.7-1.7,1.1-2.6.2-1-.9-1.7-2-2.3-3.4Z"/>
  <path class="st27" d="M629,2228.9c1.5-.3,3-.4,4.8-.3-.2,2.1-1.8,2.7-3.3,3.2-1.5-.5-1.5-1.6-1.5-2.9Z"/>
  <path class="st27" d="M627.6,2234.6c-1.2.3-2.4.3-4,.3-.5-.6-.6-1.2-.8-1.7-.2-.6-.3-1.2.4-1.6.7-.4,1.4-.4,2,.2.8.8,1.6,1.8,2.4,2.9Z"/>
  <path class="st7" d="M620.7,2240.9c.3,3.1.4,6.4.4,9.7,0,2,0,4,0,6.4-.3-.3-.6-1-.7-1.6,0-2.3,0-4.5,0-7.1,0-2.6.1-4.9.4-7.4Z"/>
  <path class="st27" d="M666.6,2218.9c.3.8.3,1.5,0,2.6-.8.3-1.4.3-1.9.3,0,0,0,0,0,0,0-.5,0-.9,0-1.4,0-1,.6-1.5,1.9-1.5Z"/>
  <path class="st27" d="M596.7,2206.5c.5-1.2,1.3-2.3,2.3-3.6.4,1,.2,2.1-.5,2.9-.3.4-1,.5-1.8.7Z"/>
  <path class="st45" d="M656.6,2238.1c-.2,0-.4-.4-.7-.9.2,0,.4.4.7.9Z"/>
  <path class="st45" d="M596.4,2207.7c-.2.2-.3.2-.8.2,0-.4.2-.8.6-1.3.2.2.2.5.2,1.1Z"/>
  <path class="st45" d="M605.2,2224.5c-.2-.2-.2-.5-.2-1.1.5,0,.8.5.2,1.1Z"/>
  <path class="st27" d="M603.2,2209.5c.1.1,0,.2,0,.5-.2,0-.3-.2-.4-.4,0,0,.2,0,.5,0Z"/>
  <path class="st45" d="M605.3,2206.8c.1,0,0,.3,0,.3-.2-.1-.3-.3-.4-.4,0,0,.2,0,.4,0Z"/>
  <path class="st45" d="M604.3,2208.1c0,.2,0,.4-.4.8,0-.2,0-.4.4-.8Z"/>
  <path class="st45" d="M599.4,2202.7c0-.2,0-.4.4-.8,0,.2,0,.4-.4.8Z"/>
  <path class="st38" d="M546.5,2239.7c-2-2-4.5-2.8-6.5-4.3-1.2-.9-1.8-1.8-1.7-3.4.1-1.6,1.2-2.5,2.7-2.1,4.5,1.2,8.4,3.5,11.4,7.2,1.2,1.5,1.5,3.3,1,5.1-.2.9-1.2,1.4-2,1-.8-.4-1.6-1-2.4-1.6-.8-.6-1.5-1.2-2.5-1.9Z"/>
  <path class="st16" d="M539,2244.1c2.2-.8,3.8-.5,5.5.9,2.6,2.1,5.4,3.9,7.8,6.4.9,1,1.4,2,1.2,3.2-.2,1.3-1,2.2-2.2,2.6-1.3.4-2.4-.2-3.1-1.3-1.7-2.7-4-4.8-6.6-6.6-1-.7-1.7-1.7-2.6-2.5-.2-.2-.3-.4-.4-.6-.4-.7-.3-1.4.4-2.2Z"/>
  <path class="st23" d="M652.3,2245.3c.9-.2,1.7-.1,2.7.2-.7,1.8-.7,3.4-.3,5.1.2.8.4,1.7.3,2.5-.8,3.8-.8,7.6,0,11.4.1.6.2,1.2.1,1.8-.5,2.4-1.1,4.9-1.8,7.8-.5-.7-.9-.9-1-1.3-.1-1.1,0-2.2,0-3.2,0-8,0-15.9,0-24.2Z"/>
  <path class="st7" d="M620.8,2266.3c.3,2.9.3,6,.4,9.1,0,3.7,0,7.4,0,11.4-.3-.2-.7-.7-.7-1.3,0-6.1,0-12.2,0-18.3,0-.2.1-.5.4-.9Z"/>
  <path class="st8" d="M141.1,2321.3c-1.2-.3-2.2-.4-3-.9-2.7-1.4-4.5-3.6-4.6-6.8,0-.2,0-.5,0-.7,0-4.2,1.3-6.4,5-7.9,3.8-1.5,7.3-.3,9.6,2.1,4.2,4.3,1.7,12.4-4.2,13.9-.8.2-1.7.1-2.8.2Z"/>
  <path class="st8" d="M717.5,2312.4c-1.3-.7-2.4-1.2-3.4-1.9-3.6-2.9-2.9-10.1-.2-12.4,4.3-3.7,10.2-2.1,12.5,1.2,2,2.7,2.1,5.7.8,8.6-1.3,3-3.7,4.7-7,4.8-.8,0-1.7,0-2.8-.2Z"/>
  <path class="st24" d="M612,2129.4c-1.1-2.5-3.3-3.8-5-5.4-.4-.4-1.1-.6-1.5-1-2.3-3-5.9-4.1-8.8-6.3-.7-.6-1.8-.7-2.9-1.1-.5-.6-.7-1.2-1.1-1.6-1.8-1.5-3.5-2.9-5.4-4.2-1.2-.8-2.5-1.4-3.3-2.7-.2-.4-.7-.7-1.1-.8-3.5-.9-6.4-2.8-9.3-4.7-5.2-3.3-10.6-6.2-16.1-9-6-3-12.2-5.7-18.4-8.4-2.5-1.1-5.2-2-7.9-2.6-1.8-.4-2.9-1.4-3.7-2.9.1-.4.1-.6.3-.8.5-.7,1-1.4,1.5-2,2.2-.5,4,0,6,.7,5.8,2.1,11.4,4.7,17,7.2,4.6,2.1,9.1,4.4,13.5,6.9,1.8,1.1,4,1.6,6.3,2.4.6.5.9,1.1,1.3,1.4,3.6,2.4,7.2,4.8,11,7,3.3,1.8,6.4,3.8,9.4,6,4,2.9,8.1,5.7,11.9,8.7,3.5,2.7,7.3,5.1,10.4,8.4.4.4.8.9,1.3,1.3.6.6,1,1.4.6,2.3-.5,1.1-1.7,2-2.9,1.8-.9-.1-1.9-.5-3.1-.7Z"/>
  <path class="st23" d="M664.7,2222c.5-.3,1.1-.3,1.9-.3.3.8.3,1.5.3,2.6q-2,0-2.2-2.3Z"/>
  <path class="st19" d="M715.4,2210.1c-.2.3-.4.7-.7.7-1.1.1-2.2.1-3.2.1-13.7,0-27.4,0-41.5,0-.3,0-.3,0-.4-.3,2.8-4.2,5.5-8.1,8.3-12.1,2.7-3.7,5.4-7.4,8.1-11.1,0,0,0-.1.3-.3,1.7-2,3.1-3.9,4.6-5.8.8.5,1.3.9,1.9,1.2,0,0,0,0,0,.1.2.3.4.5.7.6,0,0,0,0,0,.1.2.4.4.5.6.7,0,0,0-.1,0,.1.2.4.4.5.6.7,0,0,0-.1,0,.1.3.5.6.8.9,1.1,0,.2,0,.4.5.9,1.2,1.4,2.1,2.4,3.1,3.5,0,0,0,0,0,.1.2.4.4.5.6.7,0,0,0,0,0,0,2.3,2.8,4.6,5.6,7.1,8.5.2.4.3.6.7,1,.5.4.7.6.9.7,0,0,0,0,0,.1.5.8,1,1.3,1.5,1.8,0,.2.2.4.5.9.4.4.6.6.8.7,0,0,0,0,0,.2.8,1,1.5,1.8,2.2,2.6,0,0,0,0,0,.2.2.4.4.5.6.7,0,0,0,0,0,.1.2.4.5.6.7.8,0,0,0,.2,0,.3Z"/>
  <path class="st38" d="M335.6,2377.3c.9,2.1,1.8,4,2.6,5.9,0,.2.2.5.2.7.3,1.5,0,2.8-1,3.2-1.3.5-2.7.6-3.7-.5-1.1-1.1-2.1-2.4-2.8-3.7-.6-1.2-1.3-2.3-2-3.4-1.3-2.3-2.4-4.7-3.3-7.2-.8-2.3.2-3.7,2.5-4.4,1.1-.3,2.2-.1,2.9.9.6.9,1.2,1.8,1.5,2.8.7,2,1.6,3.7,3,5.7Z"/>
  <path class="st38" d="M335.6,2439c.8,1.6,1.6,3,2.2,4.5.3.6.6,1.3.6,2,.3,2-.6,2.8-2.7,3-1.8.1-3-.6-3.8-2.2-1.4-2.6-2.8-5.3-4.3-7.9-1-1.7-1.5-3.5-1.9-5.4-.4-1.5.5-3,2-3.3.9-.2,1.9,0,2.8,0,1.1,1.2,1.9,2.4,2.3,4,.5,1.8,1.7,3.4,2.7,5.3Z"/>
  <path class="st38" d="M333.7,2414.7c1.2,2.4,2.3,4.5,3.3,6.7.5,1.1.9,2.2,1.3,3.4.3,1-.2,2.4-1,2.9-1,.6-2.1.6-3.1,0-.8-.5-1.6-1.2-2.1-2-2.2-3.2-4.6-6.2-6-9.8-.6-1.5-.9-3-.4-4.9.7-.3,1.5-.8,2.4-1,2.4-.4,3.1,0,4.3,2.3.4.7.7,1.5,1.2,2.5Z"/>
  <path class="st16" d="M326.2,2391.2c1.5-2.6,3.2-3,4.9-1.4.7.6,1.2,1.5,1.6,2.3.9,1.6,1.7,3.1,2.5,4.8,1.1,2.3,2.2,4.6,3.1,6.9.4,1.1.5,2.4-.5,3.4-.8.8-2.3.7-3.7-.3-.5-.3-.9-.8-1.3-1.2-.7-1.1-1.4-2.2-2.1-3.4-1-1.7-1.9-3.3-2.8-5-1-1.8-1.7-3.7-1.7-6.1Z"/>
  <path class="st16" d="M316.7,2231.1c1.3-.5,2.2-1,3.3-1.3,1-.2,2.2-.2,2.9.9.7,1.1.5,2.8-.4,3.7-.6.6-1.3,1.1-2,1.4-2.9,1.4-5.6,3.3-7.8,5.6-.9.9-1.9,1.5-3.2,1.3-1.3-.1-2.1-.7-2.1-2,0-.7,0-1.5.3-2.1,1.2-2,2.4-3.9,4.4-5.1,1.4-.9,2.9-1.6,4.7-2.5Z"/>
  <path class="st16" d="M313.5,2254.9c-1.2.8-2.1,1.5-3.2,2.3-.4-.2-.9-.3-1.2-.6-2.3-2.1-2.4-3.1-.3-5.5,2.7-3.1,5.8-5.8,9.3-7.8,1.4-.8,2.5-.6,3.6.5.9,1,1,1.9.2,2.9-1,1.1-1.9,2.3-3.1,3-2.1,1.3-3.6,3.1-5.2,5.2Z"/>
  <path class="st7" d="M637.9,2302.3c0-.1.2-.2.5,0,0,.1-.2.1-.5,0Z"/>
  <path class="st45" d="M632.6,2185.8c.8-.2,1.4,0,1.3,1.2-.5-.2-.8-.6-1.3-1.2Z"/>
  <path class="st45" d="M631.9,2184.9c.2,0,.4.1.6.5-.2,0-.4-.1-.6-.5Z"/>
  <path class="st19" d="M661.1,2207.7c-.8.3-1.4,0-1.9-.6-1.4-1.9-2.8-3.7-4.5-5.7-.2-.1-.2,0-.3-.3-.2-.4-.4-.5-.6-.7,0,0,0,0,0-.2-.7-1.1-1.5-1.9-2.2-2.7,0-.2-.2-.5-.5-.8-2-2.5-3.8-5-5.7-7.5-1.4-1.8-2.8-3.5-4.4-5.4-.2-.1-.2-.1-.3-.3-.3-.4-.5-.5-.7-.7,0,0,0,.1,0-.1-.3-.5-.6-.8-.9-1.1,0,0,0,0,0-.2-.2-.4-.4-.5-.6-.7,0,0,0,0,0-.1-.2-.4-.4-.5-.6-.7,0,0,0,0,0-.1-.4-.6-.7-1-1.1-1.4,0,0,0,0-.2-.2-.4-.5-.7-.8-1-1.1,0-.3.1-.7.2-1.2,1.1,0,2.2,0,3.2,0,14.1,0,28.2,0,42.3,0,.8,0,1.7,0,2.5.2.1,0,.2.4.2,1-.1.4-.2.5-.2.5,0,0,0,0-.3.3-.5.6-.7,1.1-1,1.6,0,0,0,0-.1,0-.4.4-.6.7-.9,1.1,0,0,0,0-.2.2-4.4,5.7-8.7,11.2-12.9,16.8-2.2,2.9-4.2,5.8-6.3,8.7-.4.4-.8.7-1.2,1.3Z"/>
  <path class="st56" d="M662.5,2206.4c1.8-2.9,3.9-5.9,6.1-8.7,4.2-5.6,8.4-11.1,12.8-16.8.2.4.4,1.2.2,1.5-1.4,1.7-1,3.5-.8,5.6.7,0,1.3,0,1.8,0,1-.2,2-.6,3.3-.7-2.4,3.8-5.2,7.5-7.8,11.2-2.8,3.9-5.6,7.9-8.3,12.1-.8.2-1.4-.2-1.4-1.1.1-1.9-1-3.1-2.3-4.5-1.1.5-2.2,1-3.5,1.4Z"/>
  <path class="st56" d="M692.9,2182.4c-.6-.1-1.1-.5-1.9-1-1.5,1.9-2.9,3.7-4.5,5.7-.3-.3-.6-.8-.4-1.2.4-.9.8-1.8,1.5-2.4,1.2-1.2,2-2.7,2.2-4.5.6.2,1.2.2,1.5.5.6.8,1.1,1.8,1.7,2.9Z"/>
  <path class="st45" d="M657.9,2173.8c.3.4.4.8.5,1.1-3.4.7-5.2.6-7.1-.3,2.3-1.8,3.1-1.9,6.6-.8Z"/>
  <path class="st45" d="M667.9,2173.9c.4.3.6.6.8.9-1.3.6-2.4.6-3.5.1-.2-.7,0-1,.6-1.1.6,0,1.2,0,2.1,0Z"/>
  <path class="st56" d="M699.5,2190.3c-1-.8-1.9-1.9-2.9-3.2,1.9-.1,2.9.9,2.9,3.2Z"/>
  <path class="st45" d="M682.9,2179.5c0-.5.3-.9.7-1.5.6.6.6,1.3-.7,1.5Z"/>
  <path class="st45" d="M636.7,2178.8c.5.1.8.5,1.3,1.1-.8.3-1.5.2-1.3-1.1Z"/>
  <path class="st56" d="M695.8,2186c-.3,0-.6-.4-.9-.9.3,0,.6.3.9.9Z"/>
  <path class="st45" d="M639.3,2182c.3,0,.6.4.9.9-.3,0-.6-.3-.9-.9Z"/>
  <path class="st45" d="M635.7,2177.5c.3,0,.6.3,1,.8-.5.4-.9,0-1-.8Z"/>
  <path class="st56" d="M681.9,2180.7c0-.4.2-.7.6-1.2,0,.3-.2.8-.6,1.2Z"/>
  <path class="st56" d="M694.9,2184.8c-.2,0-.4-.1-.7-.5.2,0,.4,0,.7.5Z"/>
  <path class="st56" d="M694.3,2184c-.2,0-.4-.1-.6-.5.2,0,.4.1.6.5Z"/>
  <path class="st45" d="M640.2,2183.2c.2,0,.4.1.6.5-.2,0-.4-.1-.6-.5Z"/>
  <path class="st56" d="M693.6,2183.2c-.2,0-.4-.1-.6-.4.2,0,.4.1.6.4Z"/>
  <path class="st45" d="M638.6,2181.1c.2,0,.4.1.6.5-.2,0-.4-.1-.6-.5Z"/>
  <path class="st45" d="M638,2180.3c.2,0,.4.1.6.5-.2,0-.4-.1-.6-.5Z"/>
  <path class="st45" d="M684.1,2177.8c-.1,0,0-.3,0-.3.2.1.3.3.4.4-.1,0-.2,0-.4-.1Z"/>
  <path class="st56" d="M700.1,2191.2c-.2,0-.4-.1-.6-.5.2,0,.4.1.6.5Z"/>
  <path class="st56" d="M714,2207.7c-.7-.5-1.4-1.3-2.2-2.3,1.8,0,1.9.1,2.2,2.3Z"/>
  <path class="st56" d="M710.4,2203.3c-.5-.3-1-.8-1.6-1.5,1.1-.4,1.6.2,1.6,1.5Z"/>
  <path class="st56" d="M711.7,2205c-.2,0-.4-.1-.6-.5.2,0,.4.1.6.5Z"/>
  <path class="st56" d="M715.4,2209.6c-.2,0-.4-.2-.7-.6.2,0,.4.2.7.6Z"/>
  <path class="st56" d="M714.6,2208.6c-.2,0-.4-.1-.6-.5.2,0,.4.1.6.5Z"/>
  <path class="st56" d="M708.8,2201.4c-.2,0-.4,0-.7-.4.2,0,.4,0,.7.4Z"/>
  <path class="st56" d="M651.6,2197.9c.7.5,1.4,1.4,2.2,2.4-1.8,0-1.9-.1-2.2-2.4Z"/>
  <path class="st56" d="M653.9,2200.7c.2,0,.4.1.6.5-.2,0-.4-.1-.6-.5Z"/>
</svg>