<svg width="78" height="79" viewBox="0 0 78 79" fill="none" xmlns="http://www.w3.org/2000/svg">
<path fill-rule="evenodd" clip-rule="evenodd" d="M8.50697 65.4584C8.50697 68.1575 10.6952 70.3455 13.3945 70.3455C16.0938 70.3455 18.282 68.1575 18.282 65.4584C18.282 62.7594 16.0938 60.5713 13.3945 60.5713C10.6952 60.5713 8.50697 62.7594 8.50697 65.4584ZM63.9084 24.7424C60.3094 24.7424 57.3918 21.8251 57.3918 18.2263C57.3918 14.6276 60.3094 11.7102 63.9084 11.7102H72.0543C72.6713 11.7102 73.2355 11.3616 73.5114 10.8097C73.7874 10.2578 73.7278 9.59736 73.3576 9.10374C67.6844 1.6116 57.1865 -0.225454 49.3058 4.89485C41.4251 10.0152 38.8391 20.3532 43.3809 28.5804L17.2198 54.7166C12.2016 52.9352 6.61852 54.8635 3.7696 59.3619C0.92068 63.8604 1.56438 69.7314 5.32032 73.5058C9.08981 77.2761 14.9687 77.9317 19.4763 75.0843C23.9838 72.237 25.9168 66.6468 24.1307 61.6237L50.2625 35.4973C54.6797 37.9716 59.9375 38.4621 64.7362 36.8475C69.5349 35.233 73.4266 31.6641 75.4494 27.0231C75.6692 26.5196 75.6204 25.9393 75.3196 25.4796C75.0188 25.0199 74.5065 24.7427 73.9571 24.7424H63.9084Z" stroke="#193E75" stroke-width="4" stroke-linecap="round" stroke-linejoin="round"/>
</svg>
