<svg width="79" height="79" viewBox="0 0 79 79" fill="none" xmlns="http://www.w3.org/2000/svg">
<path d="M30.0477 56.9472H8.66329C4.98453 56.9472 2.0018 53.9662 2 50.2877V8.65948C2.0018 4.98102 4.98453 2 8.66329 2H58.6201C62.2983 2 65.2801 4.98155 65.2801 8.65948V30.306M2 15.0062H65.2801M2 42.6443H32.7228M2 28.8464H65.2801M27.8484 15.0062V56.9472M46.3785 15.0062V30.306M67.8086 56.9602H56.8541V45.557M56.8541 76.9354C67.8906 76.9354 76.8374 67.9893 76.8374 56.9537C76.8374 45.9181 67.8906 36.972 56.8541 36.972C45.8175 36.972 36.8707 45.9181 36.8707 56.9537C36.8707 67.9893 45.8175 76.9354 56.8541 76.9354Z" stroke="#193E75" stroke-width="4" stroke-linecap="round" stroke-linejoin="round"/>
</svg>
