<svg width="79" height="79" viewBox="0 0 79 79" fill="none" xmlns="http://www.w3.org/2000/svg">
<path d="M6.8875 41.0968L21.55 28.0646M21.55 28.0646L36.2125 41.0968M21.55 28.0646V8.51618M3.62917 8.51618H50.875M50.875 76.9355V2.00006L63.9084 15.0323L50.875 26.4355L63.9084 37.8387L50.875 49.242L63.9084 60.6452L50.875 72.0484M63.9084 2.00006V76.9355M11.775 47.6129V57.3871M21.55 47.6129V57.3871M31.325 47.6129V57.3871M73.6834 8.51618V23.1775M63.9084 8.51618H76.9417M5.25833 41.0968H37.8417C37.8417 41.0968 41.1 41.0968 41.1 44.3549V60.6452C41.1 60.6452 41.1 63.9032 37.8417 63.9032H5.25833C5.25833 63.9032 2 63.9032 2 60.6452V44.3549C2 44.3549 2 41.0968 5.25833 41.0968ZM72.0542 23.1775H75.3125C75.3125 23.1775 76.9417 23.1775 76.9417 24.8065V34.5807C76.9417 34.5807 76.9417 36.2097 75.3125 36.2097H72.0542C72.0542 36.2097 70.425 36.2097 70.425 34.5807V24.8065C70.425 24.8065 70.425 23.1775 72.0542 23.1775Z" stroke="#193E75" stroke-width="4" stroke-linecap="round" stroke-linejoin="round"/>
</svg>
