<svg width="77" height="77" viewBox="0 0 77 77" fill="none" xmlns="http://www.w3.org/2000/svg">
<path d="M44.4429 56.3755V63.4572C44.4429 66.7153 41.8363 69.6475 38.2521 69.6475M38.2521 69.6475C34.6679 69.6475 32.0613 67.0411 32.0613 63.4572V56.3755M38.2521 69.6475V74.5346M58.3883 58.3828C59.9079 57.2431 61.4276 56.4833 63.3276 56.4833L67.8866 56.8632C70.5461 57.2431 72.8256 55.3437 73.9654 53.064C75.1052 50.4048 74.3456 47.7455 72.4457 45.8461L69.0264 42.8067C67.8866 41.667 67.1268 40.1474 67.1268 38.248C67.1268 36.7284 67.8866 34.829 69.0264 33.6893L72.4457 30.65C74.3456 28.7505 75.1052 25.7112 73.9654 23.4318C72.8256 21.1524 70.5461 19.6328 67.8866 19.6328L63.3276 20.0128C61.4276 20.0128 59.528 19.253 58.3883 18.1132C57.2485 16.5937 56.4887 15.074 56.4887 13.1745L56.8686 8.61573C57.2485 5.95644 55.3489 3.677 53.0694 2.5373C50.4096 1.39761 47.7501 2.15744 45.8505 4.05696L42.8112 7.47603C41.6714 8.61574 40.1517 9.37555 38.2518 9.37555C36.3522 9.37555 34.8328 8.61574 33.6927 7.47603L30.6534 4.05696C28.7538 2.15744 26.0943 1.39761 23.4348 2.5373C21.1552 3.677 19.2555 5.95644 19.6354 8.61573L20.0154 13.1745C20.0154 15.074 19.2555 16.5937 18.1157 18.1132C16.9759 19.253 15.0762 20.0128 13.1765 20.0128L8.61741 19.6328C5.95786 19.6328 3.67827 21.1524 2.53847 23.4318C1.39867 25.7112 2.1585 28.7505 4.05816 30.65L7.47755 33.6893C8.61735 34.829 9.37719 36.7284 9.37719 38.248C9.37719 40.1474 8.61735 41.667 7.47755 42.8067L4.05816 45.8461C2.1585 47.7455 1.39867 50.4048 2.53847 53.064C3.67827 55.3437 5.95786 57.2431 8.61741 56.8632L13.1765 56.4833C15.0762 56.4833 16.596 57.2431 18.1157 58.3828M54.5438 41.3024C54.5438 50.2992 47.2497 57.5927 38.2521 57.5927C29.2545 57.5927 21.9604 50.2992 21.9604 41.3024C21.9604 32.3056 29.2545 25.0122 38.2521 25.0122C47.2497 25.0122 54.5438 32.3056 54.5438 41.3024Z" stroke="#193E75" stroke-width="4" stroke-linecap="round" stroke-linejoin="round"/>
</svg>
