<svg width="78" height="78" viewBox="0 0 78 78" fill="none" xmlns="http://www.w3.org/2000/svg">
<path d="M57.421 75.3064H75.521C74.4377 71.0695 71.4379 67.5814 67.4106 65.876C63.3832 64.1707 58.7905 64.4436 54.9935 66.6139M20.0056 75.3064H2C3.07899 71.0905 6.056 67.6154 10.0565 65.9019C14.057 64.1883 18.6267 64.431 22.4232 66.5585M30.0999 39.4058C34.8057 44.2829 42.0397 45.7373 48.2651 43.0581M59.8941 41.0967C59.8941 41.0967 50.1191 31.3226 50.1191 23.1774H64.7816L38.7149 2L12.6482 23.1774H27.3107C27.3107 31.3226 17.5357 41.0967 17.5357 41.0967M55.1597 54.9435C55.1597 58.6916 58.1984 61.73 61.9468 61.73C65.6952 61.73 68.7339 58.6916 68.7339 54.9435C68.7339 51.1954 65.6952 48.157 61.9468 48.157C58.1984 48.157 55.1597 51.1954 55.1597 54.9435ZM8.78711 54.9435C8.78711 58.6916 11.8258 61.73 15.5742 61.73C19.3226 61.73 22.3613 58.6916 22.3613 54.9435C22.3613 51.1954 19.3226 48.157 15.5742 48.157C11.8258 48.157 8.78711 51.1954 8.78711 54.9435ZM55.3096 75.3064C55.3935 69.3233 52.2493 63.7585 47.0809 60.7425C41.9125 57.7265 35.5205 57.7265 30.3521 60.7425C25.1838 63.7585 22.0396 69.3233 22.1235 75.3064L55.3096 75.3064ZM28.7411 44.3841C28.7411 49.7985 33.1307 54.1876 38.5455 54.1876C43.9603 54.1876 48.3498 49.7985 48.3498 44.3841C48.3498 38.9698 43.9603 34.5806 38.5455 34.5806C33.1307 34.5806 28.7411 38.9698 28.7411 44.3841Z" stroke="#193E75" stroke-width="4" stroke-linecap="round" stroke-linejoin="round"/>
</svg>
