<svg width="73" height="79" viewBox="0 0 73 79" fill="none" xmlns="http://www.w3.org/2000/svg">
<path d="M50.875 76.9354V60.6451C50.875 58.8457 52.3338 57.3871 54.1333 57.3871H70.425M50.875 76.9354H5.25833C3.45881 76.9354 2 75.4767 2 73.6774V11.7742C2 9.97481 3.45881 8.51612 5.25833 8.51612H67.1667C68.9662 8.51612 70.425 9.97481 70.425 11.7742V57.3871M50.875 76.9354L70.425 57.3871M11.775 2V16.6613M28.0667 2V16.6613M44.3583 2V16.6613M60.65 2V16.6613M28.0667 24.8064L18.2917 34.5806L13.4042 29.6935M28.0667 42.7258L18.2917 52.5L13.4042 47.6129M34.5833 31.3226H55.7625M34.5833 47.6129H55.7625" stroke="#193E75" stroke-width="4" stroke-linecap="round" stroke-linejoin="round"/>
</svg>
