<svg width="73" height="81" viewBox="0 0 73 81" fill="none" xmlns="http://www.w3.org/2000/svg">
<path d="M41.1 63.837L42.4685 50.8047H47.6167V44.2886C47.6167 37.9908 42.5109 32.8854 36.2125 32.8854C29.9142 32.8854 24.8083 37.9908 24.8083 44.2886L24.8083 50.8047H29.9565L31.325 63.837M39.6989 77.9444L43.1528 76.6086C59.4444 70.3531 70.425 52.8899 70.425 35.3289V14.1841C70.4211 11.5967 68.8866 9.2568 66.515 8.22186C47.1652 -0.0739517 25.2599 -0.0739517 5.91 8.22186C3.53844 9.2568 2.00392 11.5967 2 14.1841V35.3941C2 52.955 12.8503 70.4183 29.2723 76.6737L32.7261 78.0095C34.9793 78.8457 37.4617 78.8225 39.6989 77.9444ZM27.2521 20.6677C27.2521 25.6159 31.2638 29.6273 36.2125 29.6273C41.1612 29.6273 45.1729 25.6159 45.1729 20.6677C45.1729 15.7194 41.1612 11.708 36.2125 11.708C31.2638 11.708 27.2521 15.7194 27.2521 20.6677Z" stroke="#193E75" stroke-width="4" stroke-linecap="round" stroke-linejoin="round"/>
</svg>
