<svg width="79" height="79" viewBox="0 0 79 79" fill="none" xmlns="http://www.w3.org/2000/svg">
<path d="M2 15.6936L26.8806 2L51.758 15.6936M2 15.6936L26.8806 29.384M2 15.6936V43.0776L26.8806 56.768M26.8806 29.384L51.758 15.6936M26.8806 29.384V56.768M51.758 15.6936V29.384M31.0904 54.4515L26.8806 56.768M67.6196 67.6141L76.9417 76.9354M37.0271 54.9435C37.0271 64.8401 45.0505 72.8628 54.9479 72.8628C64.8453 72.8628 72.8688 64.8401 72.8688 54.9435C72.8688 45.0469 64.8453 37.0242 54.9479 37.0242C45.0505 37.0242 37.0271 45.0469 37.0271 54.9435Z" stroke="#193E75" stroke-width="4" stroke-linecap="round" stroke-linejoin="round"/>
</svg>
