<svg width="79" height="79" viewBox="0 0 79 79" fill="none" xmlns="http://www.w3.org/2000/svg">
<path d="M30.1455 76.9322C32.8456 73.1043 34.3863 68.58 34.5833 63.8999M48.7962 76.9322C46.096 73.1043 44.5554 68.58 44.3583 63.8999M24.8083 76.9354H54.1333M2 54.129H76.9417M5.25833 2H73.6834C73.6834 2 76.9417 2 76.9417 5.25806V60.6451C76.9417 60.6451 76.9417 63.9032 73.6834 63.9032H5.25833C5.25833 63.9032 2 63.9032 2 60.6451V5.25806C2 5.25806 2 2 5.25833 2ZM44.1531 28.0612C44.1549 30.6474 42.0594 32.7451 39.473 32.7463C36.8867 32.7475 34.7892 30.6517 34.7886 28.0656C34.788 25.4795 36.8845 23.3827 39.4708 23.3827C42.0555 23.3827 44.1513 25.4768 44.1531 28.0612ZM42.5467 14.0516L43.6122 17.5572C43.9844 18.7589 45.2211 19.4696 46.4469 19.1863L49.9985 18.362C51.3817 18.05 52.8067 18.6758 53.5128 19.9054C54.2189 21.1349 54.0411 22.681 53.0744 23.7182L50.5883 26.4322C49.7321 27.3595 49.7321 28.789 50.5883 29.7163L53.0744 32.401C54.0381 33.4386 54.214 34.9826 53.5085 36.2105C52.803 37.4383 51.3804 38.0639 49.9985 37.754L46.4469 36.9297C45.2211 36.6463 43.9844 37.357 43.6122 38.5587L42.5467 42.0709C42.1375 43.4274 40.8879 44.3557 39.4708 44.3557C38.0538 44.3557 36.8041 43.4274 36.395 42.0709L35.3295 38.5652C34.9572 37.3635 33.7205 36.6528 32.4947 36.9362L28.9432 37.7605C27.5613 38.0704 26.1387 37.4448 25.4331 36.217C24.7276 34.9892 24.9036 33.4451 25.8673 32.4075L28.3534 29.7228C29.2136 28.7946 29.2136 27.3605 28.3534 26.4322L25.8673 23.7508C24.8915 22.7148 24.7082 21.1625 25.416 19.9277C26.1237 18.693 27.5559 18.0665 28.9432 18.3848L32.4948 19.2091C33.7205 19.4924 34.9573 18.7817 35.3295 17.5801L36.395 14.0516C36.8041 12.695 38.0538 11.7667 39.4708 11.7667C40.8879 11.7667 42.1375 12.695 42.5467 14.0516Z" stroke="#193E75" stroke-width="4" stroke-linecap="round" stroke-linejoin="round"/>
</svg>
