<svg width="78" height="78" viewBox="0 0 78 78" fill="none" xmlns="http://www.w3.org/2000/svg">
<path d="M75.0323 55.2539L71.7088 51.9306C71.7088 51.9306 71.4253 47.5648 70.2002 46.3593L59.0404 35.3471C57.5266 33.8533 55.0932 33.8533 53.5794 35.3471C52.8587 36.0584 52.453 37.0289 52.453 38.0415C52.453 39.0541 52.8587 40.0246 53.5794 40.7359L50.8489 38.0415C49.3344 36.5494 46.9025 36.5494 45.388 38.0415C44.6672 38.7529 44.2615 39.7233 44.2615 40.7359C44.2615 41.7486 44.6672 42.719 45.388 43.4303M45.388 43.4303L44.026 42.088C42.5122 40.5942 40.0788 40.5942 38.565 42.088C37.8443 42.7994 37.4386 43.7698 37.4386 44.7824C37.4386 45.7951 37.8443 46.7655 38.565 47.4769L39.9335 48.8257C38.4193 47.3297 35.9835 47.3297 34.4693 48.8257C33.7485 49.537 33.3428 50.5075 33.3428 51.5201C33.3428 52.5327 33.7485 53.5032 34.4693 54.2145L38.565 58.2545C37.1196 59.6766 36.3051 61.619 36.3037 63.6466C36.3037 65.6666 37.1183 67.6052 38.565 69.0355C42.361 72.7822 49.3957 75.3984 55.2705 75.014M45.388 43.4303L48.1185 46.1248M38.5618 58.2513L42.6575 62.2913M42.6542 51.5136L39.9238 48.8192M2 21.8001L5.3235 25.1233C5.3235 25.1233 5.60698 29.4891 6.83211 30.6946L17.9919 41.7068C19.5057 43.2007 21.9391 43.2007 23.4529 41.7068C24.1736 40.9955 24.5793 40.025 24.5793 39.0124C24.5793 37.9998 24.1736 37.0293 23.4529 36.318L26.1834 39.0124C27.6979 40.5045 30.1298 40.5045 31.6443 39.0124C32.3651 38.3011 32.7708 37.3306 32.7708 36.318C32.7708 35.3054 32.3651 34.3349 31.6443 33.6236M31.6443 33.6236L33.0063 34.9659C34.5201 36.4597 36.9535 36.4597 38.4673 34.9659C39.188 34.2545 39.5937 33.2841 39.5937 32.2715C39.5937 31.2588 39.188 30.2884 38.4673 29.5771L37.0988 28.2282C38.613 29.7242 41.0488 29.7242 42.563 28.2282C43.2838 27.5169 43.6895 26.5464 43.6895 25.5338C43.6895 24.5212 43.2838 23.5507 42.563 22.8394L38.4673 18.7994C39.9127 17.3773 40.7272 15.4349 40.7286 13.4073C40.7286 11.3873 39.914 9.4455 38.4673 8.01847C34.6713 4.2717 27.6333 1.65548 21.7618 2.03667M31.6443 33.6236L28.9138 30.9292M38.4738 18.8027L34.3748 14.7627M34.3781 25.5403L37.1085 28.2347M46.5936 5.94634L48.7571 3.46044C49.0917 3.07656 49.5763 2.85649 50.0856 2.85712C50.5949 2.85775 51.0789 3.079 51.4126 3.4637L55.7397 8.44202C56.1671 8.93429 56.8316 9.14994 57.4666 9.00241L63.8921 7.51673C64.3891 7.4015 64.9117 7.50769 65.3244 7.80777C65.737 8.10785 65.9991 8.57226 66.0426 9.0806L66.616 15.6521C66.6714 16.3007 67.0816 16.8653 67.6815 17.1182L73.755 19.6921C74.2276 19.8905 74.5902 20.2851 74.7479 20.7728C74.9057 21.2604 74.843 21.7925 74.5761 22.2301L71.1777 27.8861C70.8442 28.4428 70.8442 29.1377 71.1777 29.6944L74.5761 35.3503C74.8441 35.7872 74.9074 36.3194 74.7495 36.8068C74.5915 37.2943 74.2282 37.6883 73.755 37.8851L72.2367 38.5302M30.5267 71.1076L28.3632 73.6C28.0285 73.9839 27.544 74.2039 27.0347 74.2033C26.5254 74.2027 26.0413 73.9814 25.7076 73.5967L21.3806 68.6152C20.9528 68.1235 20.2886 67.908 19.6537 68.0548L13.2282 69.5437C12.7312 69.6589 12.2086 69.5528 11.7959 69.2527C11.3833 68.9526 11.1212 68.4882 11.0777 67.9798L10.5043 61.4083C10.4482 60.76 10.0382 60.1958 9.43878 59.9422L3.36198 57.3651C2.89093 57.1659 2.52987 56.7716 2.37283 56.2849C2.2158 55.7982 2.27833 55.2672 2.54414 54.8303L5.94259 49.1743C6.27736 48.6169 6.27736 47.9203 5.94259 47.3628L2.54414 41.7101C2.27833 41.2732 2.2158 40.7422 2.37283 40.2555C2.52987 39.7688 2.89093 39.3745 3.36198 39.1753L4.88363 38.527" stroke="#193E75" stroke-width="4" stroke-linecap="round" stroke-linejoin="round"/>
</svg>
