<svg width="79" height="79" viewBox="0 0 79 79" fill="none" xmlns="http://www.w3.org/2000/svg">
<path d="M34.5833 34.286V44.0602M34.5833 44.0602C34.5833 45.8619 27.2912 47.3182 18.2917 47.3182C9.29215 47.3182 2 45.8619 2 44.0602M34.5833 44.0602V53.8344M2 44.0602V34.286M2 44.0602V53.8344M34.5833 53.8344C34.5833 55.6361 27.2912 57.0924 18.2917 57.0924C9.29215 57.0924 2 55.6361 2 53.8344M34.5833 53.8344V63.6086M2 53.8344V63.6086M34.5833 63.6086C34.5833 65.4103 27.2912 66.8666 18.2917 66.8666C9.29215 66.8666 2 65.4103 2 63.6086M34.5833 63.6086V73.3827C34.5833 75.1844 27.2912 76.6408 18.2917 76.6408C9.29215 76.6408 2 75.1844 2 73.3827V63.6086M14.6456 22.8795C19.0215 13.4442 30.0217 6.73909 42.8888 6.73909C46.1949 6.73938 49.4848 7.19993 52.6638 8.10748C54.694 5.22281 57.6263 3.09545 60.9987 2.06052C61.4898 1.92279 62.0172 2.02308 62.4235 2.33148C62.8299 2.63989 63.0683 3.12081 63.0677 3.6309V13.2715C66.5226 16.2982 69.1338 20.1686 70.6466 24.5053H73.6996C75.4992 24.5053 76.958 25.964 76.958 27.7634V37.5375C76.958 39.3369 75.4992 40.7956 73.6996 40.7956H70.6498C68.9341 45.0665 65.9776 48.7253 62.1619 51.2996L64.7946 58.438C65.7591 61.0518 64.4214 63.9525 61.8071 64.9162C59.1929 65.8799 56.2923 64.5417 55.3292 61.9274L53.0255 55.6882C49.738 56.6748 46.3245 57.1786 42.8921 57.1837M26.4375 19.6247C29.8145 15.8999 34.4645 13.5751 39.4708 13.1086M2.01303 34.286C2.01303 36.0854 9.30706 37.5441 18.3047 37.5441C27.3023 37.5441 34.5964 36.0854 34.5964 34.286C34.5964 32.4866 27.3023 31.0279 18.3047 31.0279C9.30706 31.0279 2.01303 32.4866 2.01303 34.286ZM56.5901 22.8828C56.1402 22.8828 55.7756 23.2475 55.7756 23.6973C55.7756 24.1471 56.1402 24.5118 56.5901 24.5118C57.04 24.5118 57.4047 24.1471 57.4047 23.6973C57.4047 23.2475 57.04 22.8828 56.5901 22.8828Z" stroke="#193E75" stroke-width="4" stroke-linecap="round" stroke-linejoin="round"/>
</svg>
