<?xml version="1.0" encoding="UTF-8"?>
<svg id="Layer_1" xmlns="http://www.w3.org/2000/svg" version="1.1" viewBox="0 0 994.1 994.1">
  <!-- Generator: Adobe Illustrator 29.0.1, SVG Export Plug-In . SVG Version: 2.1.0 Build 192)  -->
  <defs>
    <style>
      .st0 {
        fill: #8f8e89;
      }

      .st1 {
        fill: #23456f;
      }

      .st2 {
        fill: #f97627;
      }

      .st3 {
        fill: #554338;
      }

      .st4 {
        fill: #adaca7;
      }

      .st5 {
        fill: #f97827;
      }

      .st6 {
        fill: #386aa4;
      }

      .st7 {
        fill: #da9782;
      }

      .st8 {
        fill: #dd947e;
      }

      .st9 {
        fill: #f97626;
      }

      .st10 {
        fill: #f0974b;
      }

      .st11 {
        fill: #908e89;
      }

      .st12 {
        fill: #544238;
      }

      .st13 {
        fill: #db957f;
      }

      .st14 {
        fill: #efcd42;
      }

      .st15 {
        fill: #eecc43;
      }

      .st16 {
        fill: #8b8a85;
      }

      .st17 {
        fill: #d99983;
      }

      .st18 {
        fill: #ef9f50;
      }

      .st19 {
        fill: #da9b84;
      }

      .st20 {
        fill: #d99780;
      }

      .st21 {
        fill: #d9957e;
      }

      .st22 {
        fill: #aeaba7;
      }

      .st23 {
        fill: #da957f;
      }

      .st24 {
        fill: #386aa5;
      }

      .st25 {
        fill: #fffffe;
      }

      .st26 {
        fill: #f4cd3f;
      }

      .st27 {
        fill: #f3bba0;
      }

      .st28 {
        fill: #f3bba2;
      }

      .st29 {
        fill: #fff;
      }

      .st30 {
        fill: #f0cb39;
      }

      .st31 {
        fill: #d8957d;
      }

      .st32 {
        fill: #f09248;
      }

      .st33 {
        fill: #f09147;
      }

      .st34 {
        fill: #efcc3f;
      }

      .st35 {
        fill: #bc7761;
      }

      .st36 {
        fill: #fa7725;
      }

      .st37 {
        fill: #da947e;
      }

      .st38 {
        fill: #f0a24f;
      }

      .st39 {
        fill: #8d8b86;
      }

      .st40 {
        fill: #f19c4e;
      }

      .st41 {
        fill: #d99781;
      }

      .st42 {
        fill: #de9680;
      }

      .st43 {
        fill: #f0994d;
      }

      .st44 {
        fill: #dd9680;
      }

      .st45 {
        fill: #da9580;
      }

      .st46 {
        fill: #d7eff1;
      }
    </style>
  </defs>
  <path class="st29" d="M825.4,827.5l-2.2-.2c-7.7-20.2-15.9-35-33.1-50-14.6-12.8-31.3-23.1-48-32.8l-1.1-2.8c-2.5,1.3-3-.9-3-3.2.7-3.2.5-6.1-.5-8.5l-17.8-9.6c-7.3-2.7-13.9-6.2-19.7-10.7-2.4.9-4.6.7-6.7-.6l-36.7-16.4c-3.9-.8-6.7-2.4-8.5-4.8l-2.1.2c-7.3-4.4-15-7.1-23.1-8.2-2.7,1-4.9.9-6.6-.1l-2,.5c-5-2.7-10.3-4.9-15.7-6.8l-.6-2.2c-.1.4-.4.4-.8,0l-1.9-.9c0-16,0-32.1,0-48.1.3-1.2,1-2,1.9-2.5-1.8-1.1-2-2.3-.8-3.9,23.2-25.8,36.4-58.6,37.5-93.4,1.2-4.4,4.8-7.3,11-8.5,32-15.6,42.8-76.7,9.6-95.5-1.2-1.2-.8-2.4,1.1-3.4l-1.8-2.1c2.1-10.2,3.1-20.5,3.2-30.9l1.7-2.5c-3.1-1.5-3.3-10-1.2-12.4-.4-.8-.5-1.6-.2-2.4,8.5-2.5,16.5-6.1,24-10.7,12.5-8.7,7.3-11.8-15.5-9.2l-2.3-2.7.7-33.3c0-58.4-39.7-112.5-89.2-140.4l-1.8-2.9c-.6.5-1.2.8-2,.6-.8-.2-12.5-5.8-13.5-6.4l-.5-2.5-2.3-.9c-1.7-13.4-14.1-16.1-25.8-18.6-26.3-5.5-47.5-5.6-73.6,1.1-13.1,3.4-17.4,4.9-18.3,18.3l-2.1.9-1.3,2.1c-4.6,1.2-8.9,3-12.9,5.6l-2.2-1-3.1,3.8c-26.4,14.3-48.1,36.2-64.9,60.9-23.2,34.2-24.1,71.8-22.8,111.8.3,2.5-1,3-3,3.7l-21.4-.6c-.8,0-1.2.2-1.2,1.1-.6,8.9,23.1,17.6,30.5,19.4l-.2,2.4c1.8,1.9,1.6,5.1-1.1,5.7.5,7.4.9,15,1.5,22.8l2.7,15-1.1,3.4c.9,1.8,1.3,3.2,1.2,4.4-22.5,12.3-24.4,43.9-14.9,66,7.6,17.6,18.4,27.7,35.8,34.2,2.2,35.3,12.7,69.3,37.5,95.5l.8,4c-1.4.4-1.7,1.5-.9,3.3,2.5,0,2.4,1,0,1.8,2.2,9.3,3,18.9,2.1,28.8.7,7.1-.3,13.5-3,19.1.2.7.4,1.8,0,2.1-1.6.9-16.1,7.3-17,7.2-.8,0-1.5-.6-2-1.2-1.6,1.2-3.9,1.5-6.8.7-7.5,1.7-14.9,4.3-22.1,7.8l-2-1.2-1,2.7c-14.5,5.9-28.7,12.5-42.7,19.8-3.3,2.2-6.3,2.8-9.2,1.7l-3.3,3.3-31.9,14.3c-1.3,4.2-1.9,8.6-1.8,13.3l-2.3.8-1.2,2.4c-20,11.4-42.4,24.7-59,40.9-11.9,11.6-17.3,25-22.7,40.4l-2.4-.4C75.3,735,25.8,611.9,29.2,483.1,36,227.2,248.3,23.6,505.1,28.2c253.8,4.5,458.1,211.3,459.2,465.7.5,124.9-49.6,247.1-138.8,333.6h0Z"/>
  <path class="st2" d="M648.2,687.9c1.1.3,1.8.8,1.9,1.5.1,82.5,0,164.9-.2,247.4l-1.7,1.2c-45.8,15.7-93.9,24.5-142.8,25.1l-.2-32.7-1.9-3c-.8-9.3,3-21,6.3-29.6l104.6-217.8,2.2-.2c10-4.9,17.3,1.2,29.2,5.6,1.4.5,2.1,1.6,2.7,2.5h0Z"/>
  <path class="st5" d="M373.7,679.2l2-.2,108.8,226.1,2.1,10v46.7c.1,0-1.8,1.1-1.8,1.1-48.3-.6-96.5-9.9-142-25.8l-1.9-1.5c0-82.4,0-164.8.2-247.2l1.9-1.8,16.2-6.8c5-2.1,9.9-2.3,14.5-.6h0Z"/>
  <path class="st6" d="M392.8,671.2l2.8,2.4c33.9,82.2,165.4,82.8,199.5.2l2.9-2.4c1.4.4,18.6,6.7,18.3,8.5l-83,172.4-20.8,43.6c-5.5,11.5-7.5,22.2-7.4,34.6-.7-.3-1,1-1,2v30.7c-6.9.4-13,0-19.2-.2v-47.8c-.1-6.7-3.3-12.1-6.2-18.1l-90.4-187.2-14.5-30.5,19.1-8.1h0Z"/>
  <path class="st46" d="M700,709.7c0,68.4,0,136.9,0,205.5l-1.9,1.8c-16.2,8-32.7,15-49.9,20.9v-250.1c3.4.8,6.8,2,10.4,3.6l33.1,14.8c3,1.3,5.7,2.4,8.4,3.5h0Z"/>
  <path class="st46" d="M342.8,937.1c-17.3-6-33.5-13.4-49.9-21.1l-1.9-1.8v-180.1c-.4-8-.8-15.8-.9-23.3,14.4-5.2,31.5-16.2,48.3-22,2-.7,3.1-1.6,4.6-2.2v250.5Z"/>
  <path class="st9" d="M700,709.7c13.1,5,25.7,11.1,38.1,18.4,4.7,2.7-.1,10.5,3,13.6l1.6,3.3c0,49.2.2,98.2.3,146.9l-2.8,3.1c-13.8,8.2-27.9,15.1-42.1,22.1v-204.4c0-1.2-.2-1.6,0-2.2.3-.6,1.1-.8,1.9-.8h0Z"/>
  <path class="st36" d="M292.8,916c-15-7.1-29-15.4-43.2-24l-1.9-2.6.2-134.4,1-11.1,1.7-1.4c1.6-2.6-.5-14.3,3.6-16.1,12.2-5.2,23.6-11.3,35.8-15.7,3.5-3.4,1.6,19.2,2.9,23.1v182.1c0,0,0,0,0,0Z"/>
  <path class="st6" d="M825.4,827.5c-26,25.3-53.9,48.8-85.3,67.5.7-1.3,1-2.8,1-4.8l-.3-74.7c0-4.8-.8-8.9,0-13.7.5-3.2.5-7.1,0-10.4-.8-6.6-.2-12.4-.3-18.8-.1-10.3-.8-21.1.5-30.9,23.6,13.3,63.4,38.2,74.8,64l9.6,21.8Z"/>
  <path class="st24" d="M250.7,742.5c1,4.1-.8,8-.8,12.5l-.2,137c-30.5-18.4-59.1-40.8-84.4-66.2.7-.4,1.3-1,1.6-2.1,2.9-9.4,6.6-18.3,11.7-26.8,9.4-15.4,34.1-31.9,49.6-41.6,7.5-4.7,14.2-10.6,22.5-12.8h0Z"/>
  <path class="st27" d="M618.3,374.1c2.5,3.1,2.8,10.2.2,13.3l2,.8c2.7,8,5.4,16.1,8.1,24.2l.5,47.4,7.6-2.9,1.7,1.4,1.9,1.2-.6,30.4c16.7-7.1,20.7-26.5,16.6-42.7-1.7-6.6-5.1-12.2-12.5-11.2l-1.5-1.6c-2.6-2.4-1.9-9.7-1.3-13.4-.6-9,8.7-8,14.6-6-.4,5.6,6.1,1.8,13.7,14.4,11.7,19.5,8.1,47.5-2.7,66.6-6,10.7-15.1,18.3-26.8,22.2-2.8.9-3.8,2.4-4,5.5-1.3,33.2-13.1,64.9-34.9,89.8-1.9,2.2-3.5,3.8-3.5,6.4-10.2,13.8-28.9,25.6-44.8,33-54.3,25.2-117.3,11.9-157.9-31.6l-.9.3c-1.4-1.7-.7-4-1.5-6.3-25.1-27.2-35.5-59-37.4-95.6-7.1-3-14.2-5.1-19.8-10.5-11.1-10.7-18.4-24.8-21.3-40-2.6-13.9.8-27.4,7.1-39.6,6.8-13.2,14.9-8.4,13.3-15.4,3.3.5,6.9.5,10.9,0,1.1.1,3,.6,3.5,1.4,1.8,3.2,2.6,15.8.1,18.9l-1.5,1.6c-7.6-1.1-11.3,5-12.9,11.6-3.9,15.9.3,35.6,16.8,42.4l-.5-31,1.9-1.4,2.2-.9c2.5,1.7,4.9,2.6,7.3,2.7l.4-46.8c2.7-8.2,5.4-16.4,8.2-24.6l2.1-.9c-2.5-2.7-2.8-10.6,0-13.1l.8-1.9c80.4,8.3,163,8.2,243.5.2l1.3,1.8h0Z"/>
  <path class="st26" d="M557.2,157.2l1.7,1.7-15.5,111.4.8-.2c8.6-35.2,17.5-70.2,26.6-105l2.4.4c31.2,13.6,65.1,52.7,79.6,83.6,9.5,20.2,13.8,41.9,13.3,64.3l-.7,29.6,18.9-.8c2.5-.1,5.2,1.1,5.5,3.5,1.1,8.2-20.3,17.1-27.6,19.3-2,.6-3.7.8-4.7,2.2l-.3,2-37.5,6.7-1.5-1.7-51.9,4.2-16.2,1-27.4.7c-13.8.3-27.5.3-41.4,0l-38.7-.7c-3.6,0-6.9-1-10.6-.8-5.8.4-11.4-.3-17.2-.8l-42.2-3.8c-.8.4-1.6.8-2.4,1s-1.6.4-2.3.4c-6.5-.5-29.5-3.9-33.6-6.6-.7-.5-1.4-1-2-1.7-.8-.9-2.1-1.8-3.7-2.1-8.1-1.1-25.4-8.7-28.2-18.1-.4-1.4-.4-3.2.6-3.9.5-.4,1.5-.8,2.7-.8l22.2.7c-.6-45.2-1.8-79.8,25.4-118,17.7-24.9,40.3-47,67.3-60.3l2.1,1.2c9,34.7,17.8,69.5,26.4,104.2h.6c0,.1-14.7-105.6-14.7-105.6-.9-3.6-.2-5.8,2-6.5l1.8-9.8c.7-3.9,3.1-5.8,6.4-7.2,26.2-11,64.5-12.5,91.2-3.7,17.2,5.7,17.1,2.4,22.7,19.9h0Z"/>
  <path class="st1" d="M742.8,547c1.3,5.2,3.4,9.3,1.2,14l-52.2,110.6c-3.8,8.1-11.5,11.1-20,7.5-12-5-23.4-11.2-35-17.6-6-3.3-10.3-11.4-6.8-18l57.5-109.4c2.5-4.8,6.5-7,12.1-7.3l64.4-126.7c-3.3-3.8-4.1-8.2-2.2-12.5l7.7-18.1c2-4.7,3.7-12.1,0-16.5-12.1-14.9-40.3-8-56-2.9-5.4,1.8-11.7.1-13.9-5.7-3.2-8.6,26.1-26.2,33.2-29.7,8.6-4.3,17.2-6.4,26.6-7.8,17.8-2.6,35-1.1,51.2,7l37.7,19.1c11.7,5.9,2,16.2,10.4,21.8,12.6,8.4,12.7-6.2,24.4-.8,6.5,3,13.4,5.9,19.3,10.3,4.5,3.3,4,10.4,1.6,15.2l-19.1,38.3c-3.1,6.1-9.6,8.7-15.8,5.8-5.7-2.6-11.3-5.3-16.6-8.5-11.1-6.5-.3-15.4-10.5-20-4.8-2.2-11-3-14.8,1.5-10.7,12.3-9.1,24.6-23,24.1l-61.5,126.5h0Z"/>
  <path class="st1" d="M194.2,505.5c-2.6-2.4-14.2-4.5-11.3-10.5l4.8-10.1c-2.2-2.7-14.3-3.9-11.4-10.1l5-10.5-7.8-3.7c-8.1-3.9.4-12.4,1.5-17.4-4.3-2.4-14.9-4.3-11.3-11.1,1.6-3.1,3.2-5.9,4.4-9.4-3.2-2.5-14-3.8-10.5-11.3l4.2-8.8c-2.7-2.8-14.6-4.5-11.3-11.1l4.8-9.8-10-5.2c-4.8-2.5,3.1-13,3.8-15.7-2.8-1.7-5.5-2.6-8.1-4-3.6-1.9-4.7-5.4-2.6-9,1.5-2.4,3.1-4.6,4.2-7.6-3.5-2.6-10.5-3.6-11.4-7.6-1.1-4.7,4.4-8.5,4.9-13.1-3.6-1.8-14.4-4.5-11.1-10.9,2.1-4.2,3.8-10.4,7.3-13.6,9.6-5.6,19.9-9,30.1-13.3l22.4-9.4c2.6-1.1,6.9-1.3,8.5,1.9l90,189.8,14.1,29.8c6.3,13.3,11.6,26.8,19.4,39.4,1.9,2.2,6.5,2,8,5.6l41.8,95c2,4.5,2.1,10-.3,14.1-4.1,7.2-14,8.6-20.7,4-4.1-2.8-8-2.5-11.9,1-11.4,10.3-23.7,19.4-38.2,24.8-2.7,1-3.8,2.5-4.3,5.3-1.2,6.9-6.9,12.4-13.5,12.8-7,.4-13.4-3.7-15.5-10.5l-8.2-25.3-14.1-31c-2.7-6-3.7-12-2.2-18.7l-17.5-4c-2.2-.5-3.9-1.7-4.6-2.8-3.5-5.5,2.9-10.6,3.9-15.6-3.5-2-7.5-2.5-10.3-5.1-4.7-4.2,3.3-10.9,3.9-15.4-3.9-2.7-13.9-3.4-11.3-11,1.1-3.4,3.9-6,4.7-9.7-2.5-1.5-5-2.5-7.5-3.6-3.4-1.5-4.9-4.9-3.1-8.2,1.6-2.9,3.4-5.5,4.8-8.8-3.3-2.8-14.9-3.4-11.5-10.9,1.5-3.3,3.9-6.1,4.7-9.7h0Z"/>
  <path class="st28" d="M597.3,671.3c.2,0,.5,0,.8,0-7.3,21.4-23,39.2-43.2,50.7-37.9,21.5-84.9,20.5-122.1-2.2-18.7-11.4-33.5-28.4-39.9-48.7,1.7-15.9,1.1-32,.9-47.9,1.9-.1,3.4,1.2,4.3,4.1,46.5,57.3,126.9,74,193.9,44.2l5.3-.3h0Z"/>
  <path class="st44" d="M597.3,619.7v51.5c-69.5,31.8-146.8,18.2-198.4-39.6-2.5-2.8-3.7-5.6-5.1-8.5v-1.8c.1-.8-.2-1.8.3-2.8,27.3,28.5,64.9,45.9,105.4,44.9,35.3-.9,68.2-16.8,93.4-40.6,1.7-1.6,2.4-3.2,4.5-3.2h0Z"/>
  <path class="st30" d="M771.8,726.3c42-68.4,55.5-150.2,42.2-228.6-2.6-15.2-6.9-29.2-10.3-44-.6-2.7,1.7-5.4,3.5-5.8,2.5-.6,5.5.2,6.6,3.6,29.3,93.5,18.8,196.8-32.7,280.7-1.5,2.4-4.8,1.5-6.4,1.3-1.8-.2-4.6-4.1-2.8-7.1h0Z"/>
  <path class="st34" d="M166.6,771.3c-8.1-11.7-13.9-23.5-20.4-35.8-27.4-52-44.2-120.5-43.3-179.3,0-3.2,1.9-5.1,4.6-5.7,2.4-.5,5.7,1.6,5.8,4.9l.7,18.7c2.5,68.2,24.8,133.8,62,191.2,1.9,2.8.5,6.2-1.7,7.5s-5.7,1.4-7.7-1.6h0Z"/>
  <path class="st32" d="M825.2,769.9c-2.1,3.5-5.2,4.7-8.1,3.4-2.7-1.2-4.5-5.4-2.5-8.4,40.5-62.2,61.8-134.4,62.9-208.6,0-3.6,2.1-5.7,5.2-5.7,2.7,0,5.1,2.2,5.2,5.5.3,18.5-1.3,36-3.9,54.5-6.5,45.6-20.2,89.1-41.9,129.6-5.5,10.2-10.8,19.6-16.9,29.7Z"/>
  <path class="st33" d="M209.2,731.5c-5.2-6.9-8.2-13.9-12-21.4-15.7-30.7-26.4-63.1-31.9-97.4-4.4-27.3-6-54-3.8-81.2.3-3.3,3-5.2,5.3-5.3,3.2,0,5.9,2.2,5.6,6.1-4.7,67,10.9,136,46.5,193.1,1.6,2.6.3,6.7-1.9,7.7-2.4,1.2-5.6,1.3-7.8-1.6h0Z"/>
  <path class="st43" d="M230.2,269c-2.9,2.9-6.1,2.8-8.4.7-1.5-1.5-2.6-5.2-.2-7.7,39.4-40.3,87.2-71.6,140.3-90.7,3.7-1.3,6.9.4,7.7,3.5.9,3.6-.9,5.9-4.8,7.3-50.8,18.6-96.3,48.6-134.7,87h0Z"/>
  <path class="st22" d="M372.6,387c-1,8-8.4,21.1-8.5,27.1l-.2,48c-4.4-.6-8.1-2.7-11.5-4.6.1,1.6-.4,2.1-1.7,1.2-1-.7-4.4-23.6-3.3-24.1.4-.2.8-.2,1.2-.3-.6-5.8-.4-11.7-1.5-17.9-3.7-1.2-7.2-.2-11,.8-.7-1.1-1.8-2.2-2-3.1-3.4-13.5-5.4-27.5-3-41.2,1.8-.2,2.6,1.3,2.2,4.6,12.3,4.2,25,6.9,37.9,7.8l1.3,1.8h0Z"/>
  <path class="st4" d="M658.7,379.5c1.6,15-2.3,23.7-3.1,35.5-1.8,2.4-8-.4-11.9,1.3-1.5,6.2-.8,12.3-1.4,18.1l1.7,1.9c-.9,7.1-1.9,14.2-3.1,21.2l-2.4.8c-3.4,1.2-6.3,3.2-11.2,4l-.4-48.2c0-6-7.6-19.4-8.3-26.7l1.5-1.9c12.4-1.5,24.7-4,36.8-7.7l1.8,1.6h0Z"/>
  <path class="st40" d="M743,237.7c2.9,2.5,1.4,6.8-.4,8.2-1.9,1.5-5,1.6-7.5-.5-33.2-27.8-70.4-49.7-111.1-64.1-3-1.1-3.1-5.6-2.4-7.4.8-2.4,4.2-4,7.5-2.7,41.5,15.5,80.1,37.5,114,66.5h0Z"/>
  <path class="st18" d="M573.1,165.5c-.8.4-1.3,1.1-1.6,2.4l-19.8,79.7c-2,8-3,15.5-5.8,23.1-.5,1.4-2,1.6-3.2,1.5-.9-.1-1.5-1.5-1.3-3.1l8.4-60.7,7.3-51.2c3.4,2.3,13.7,5,16,8.3h0Z"/>
  <path class="st18" d="M418.6,164.7c5.2-2.6,10.2-6,16.4-6.6-.4,2.1-.3,4.9.1,7.6l14.5,104.4c.3,1.9-1.5,2.2-2.5,2.1-.9-.1-1.8-.8-2.1-2.2l-10.4-41.4-14-57.1c-.6-2.5-2-4.5-2-6.7h0Z"/>
  <circle class="st10" cx="113.4" cy="486.5" r="21.5"/>
  <circle class="st10" cx="877.2" cy="475.4" r="21.4"/>
  <path class="st15" d="M255.1,327.5c-2.4,2.7-5.6,2.4-7.5.9s-2.8-5-.8-7.5c18.2-22.3,39.8-41.1,63.6-57.3,2.8-1.9,6.1-1.1,7.5,1.1,1.7,2.5,1.1,5.9-1.7,7.8-22.7,15.7-42.7,34.1-61.2,55h0Z"/>
  <path class="st16" d="M372.7,373.9c0,4.4.5,8.7,0,13.1-8.8,1.4-30.5-5.4-41-7.7l-.5-6.5c.3-1.9,0-4,1.1-5.7,13.4,2.4,26.8,5.6,40.4,6.9Z"/>
  <path class="st39" d="M657.5,367.1c1.2,4.1.7,8.3,1.2,12.4-10.3,1.8-30,8.8-40.1,7.9-.4-4.4-.7-8.9-.2-13.3l39.2-7h0Z"/>
  <path class="st14" d="M710.5,286.7c2.5,2.4,2.2,5.7.7,7.9-1.7,2.5-5.6,2.2-8.1.2l-29.5-23.2c-2.2-1.7-1.9-5.9-.5-7.6,1.6-1.9,4.9-2,7.3-.3,10.3,7.4,20.6,14.2,30.1,23.1h0Z"/>
  <path class="st0" d="M590.5,415.9c-35.1-16.7-52.8-.2-60.1-6.6-2.1-1.8-3.2-4.6-2.5-7.7.9-4.2,4.4-7.5,8.7-8.7,10-2.9,20.2-4.2,30.9-2.8,15,2,39.1,15,31.6,24.4-1.8,2.3-5.4,3-8.6,1.4h0Z"/>
  <path class="st11" d="M430.1,408.3c-24.2.3-31.7,12.6-37.9,6.9-2.5-2.3-1.8-5.5.2-8.3,13.7-19,43.6-20.8,64.1-12.8,4.2,1.6,6.6,5.2,6.6,9.1,0,3.3-2.6,8.3-7,7.8-8.7-.9-17.1-2.7-26-2.6h0Z"/>
  <path class="st13" d="M470.9,511.7c-2.2-1-2.8-4.1-2.3-5.9,1.9-6.5,14.5.9,18.4,2.4,9.2,3.5,21,2.1,26.2-7.2,2.2-3.8.1-9.6-.7-13.8-3.3-17.5-7.9-34.2-9.8-51.9-.2-1.9.8-4,2-4.8,1.5-.9,3.8.4,4.3,2.7l9.2,39.7c1.8,7.9,3.5,15.5,4.6,23.4.8,6.1-1.2,11.3-5.8,15.3-16.6,14.3-28,8.8-46.1.2h0Z"/>
  <path class="st42" d="M348.6,434.3c-.3-3.3,4,29.6,3.8,23.2l.7,35.1c-21.2-5.6-26.4-33.1-19.1-50.5,2.7-6.3,8.6-9.5,14.5-7.7h0Z"/>
  <path class="st8" d="M638.4,458.4c1.5-3.2,2-6.7,2.1-10.6,0-4.8,1.4-9.2,1.8-13.3,5.6-1.6,11.4,1,14,7,7.9,18.1,2.6,45.1-18.6,51.3l.7-34.3h0Z"/>
  <path class="st23" d="M513.2,643c26.5-5.1,28.3-25.3,34.4-22.4s-7.5,21.8-23.9,27.2c-17,5.5-35.4,5.7-52.5.9-18.3-5.1-31.8-23.4-27.3-27.6,6.3-5.8,5.3,13.3,29.6,20.4,13.1,3.8,26.2,4.1,39.7,1.5h0Z"/>
  <path class="st35" d="M444.2,550.5c-2-1.1-1.6-3.8-1.2-5.2.6-1.7,3.1-1.9,5.1-1.1l10.8,4.3c21.3,8.6,60.6,7.2,84.9-6.7,1.8-1,4.6-.2,4.9,1.5.3,1.4.5,4-1.3,5.3-22,16-61.1,16-87.1,8.9-5.8-1.6-10.9-4.1-16.2-7.1h0Z"/>
  <path class="st12" d="M569.3,450.9c-2.1,3-5.5,4.8-8.2,4.9-3.3.1-6.9-1.3-9.2-4.2-6.1-7.9-5.8-19.8,1.1-26.8,4.9-4.9,11.4-4.6,15.7.6,5.7,6.9,6,17.6.6,25.4h0Z"/>
  <path class="st3" d="M438.7,451.7c-2.5,3-5.8,4-9,4-2.9,0-6.4-1.8-8.5-4.9-5-7.4-4.9-17.8.6-24.8,2.1-2.8,5.1-4.4,8-4.5,3.1-.1,6.2,1.2,8.6,3.9,6.5,7.1,6.7,18.8.4,26.4h0Z"/>
  <path class="st21" d="M435.9,531.3c-9.3,11-11,10.5-10.8,28.7,0,2-.7,3.4-2.4,3.8-1.2.3-3.2-.4-3.6-2.1-2.7-12.6,1.1-24.4,10.1-33.4,5.1-5.1,9.5-10.3,13.2-16.4.9-1.5,2.9-1.5,4-1.1,6.6,2.5-8,17.5-10.6,20.5h0Z"/>
  <path class="st37" d="M568.9,563.8c-6-.4,0-12-5.8-22.7-4.1-7.6-25.2-25.5-19.2-30,1-.8,3.6-.9,4.6.7,11.3,17.8,28.1,24.3,23.4,49.1-.3,1.8-1.3,3-3,2.9h0Z"/>
  <path class="st45" d="M412.7,478.1c-2.3-.4-2.3-2.8-2.2-3.8.3-1.8,2-2.7,4-2.4,14.4,2.1,28.1-2.7,38-13.2,1.2-1.3,3.3-1.2,4.2-.5,1.5,1.1,1.6,3,.1,4.7-10.6,12.8-27.3,18.3-44.1,15.1h0Z"/>
  <path class="st41" d="M537.6,458.3c19.8,21.9,40.3,9.5,42,15.9.4,1.7-.5,3.7-2.8,4.1-26.5,4.5-49.4-16.8-43.1-20.5.9-.5,2.7-.9,3.9.4Z"/>
  <path class="st20" d="M516.9,577.8c0,9.7-43.7,9.3-41.8.9,1.8-7.5,13.3,4.1,38.8-4.2,1.9-.6,3,2.2,3,3.3h0Z"/>
  <path class="st7" d="M398.6,453.3c-3.5,1.4-14.9,6.8-15.9,3.3-.5-1.8,0-3.6,1.9-4.4,3.1-1.2,14.1-5.5,15.1-2.1.3.9,0,2.7-1.2,3.2h0Z"/>
  <path class="st31" d="M604.1,458l-11.1-4.2c-1.5-.6-2.2-1.6-2.1-2.8,0-5.4,13.8.6,15.7,1.7,1.5.8,1.6,2.9,1.3,4-.4,1.3-2.1,2-3.8,1.3h0Z"/>
  <path class="st19" d="M399.3,443.3c-.3,4.4-12.4.4-15.2-.6-1.6-.6-1.9-2.1-1.9-3.2.2-4.8,9.8-.6,14.6.5,1.9.5,2.6,1.6,2.5,3.3h0Z"/>
  <path class="st17" d="M607,442.2c-2.6,1.3-13.8,5.3-15.5,1.9-.6-1.2-.2-2.9,1.5-3.5,2.9-.9,14.5-5,15.2-1.9.2,1.1.2,2.8-1.2,3.5h0Z"/>
  <path class="st38" d="M606.2,342.7c-51-7.4-90.8-8.3-142.5-6.9-35.5,1-69.9,4.8-104.5,12-1.8.4-3-.5-3.8-1.3-.8-.8-1.6-3.4,0-4.1,7.1-3.1,14.1-4.5,21.9-6.2,41.9-9.1,83.8-11.8,126.7-11.5,37.7.3,94.5,5,129.6,16.7,2,.7,3.1,2.4,2.7,4.1s-2.5,2.7-4.5,2.3c-8.7-1.7-16.8-3.7-25.7-5h0Z"/>
  <polygon class="st29" points="732.9 542 710.6 530.8 731.1 489.3 773.6 405.3 794.3 415.6 732.9 542"/>
  <path class="st29" d="M189.4,473.5c.8-3.6,7.2-11.2,3.7-15.2-2.6-2.9-6.6-3.6-10.2-5.3.4-4.2,8.4-12.2,3.7-16-3.1-2.5-6.6-3.6-10-5.6.9-4.4,9.4-12.5,1.8-16.1l-8.5-4c.9-3.6,3.2-6.1,4.4-9.3,3-7.8-7.3-7.7-11-11.3.9-3.5,3.5-6.1,4.6-9.4,2.6-7.7-6.6-7.7-11.2-11.4l4.5-8.8c1.3-2.6,1.4-5.9-1.4-7.5-3-1.8-6.4-2.4-9.3-4.5,1.3-3.5,3.3-6.2,4.6-9.4,2.9-6.8-7.6-8.1-11.3-10.9.4-4.1,9.6-12.8,2.1-16.4l-8.3-4c-.3-3.2,1.7-5.5,4.7-6.8l43.6-17.8,119.9,253.1-35.7,15.6c-6,2.6-10,6.8-12.3,13l-15.9,35c-5-.2-9.4-1.6-14.2-3.2.7-4.4,6.2-9.5,5-13.1-1.7-5.2-7.6-4.5-12-7.6l4.5-8.2c1.9-3.3.4-7-3-8.6-2.5-1.2-5.1-2-7.4-3.7,1-3.4,2.8-6.1,4.3-9.1,1.8-3.7,0-7-3.6-8.5-2.5-1-4.9-1.8-7.2-3.3l4.2-8.5c1.6-3.3.5-6.4-2.8-8.1-2.6-1.4-5.6-1.7-8.1-3.8,1.4-4.7,9.8-13.8,2-17.1l-8.3-3.5c.9-4.6,6.3-9.1,4.8-13.8-1-3-8.1-4.7-10.9-6.8h0Z"/>
  <path class="st29" d="M319.4,614.8l-34,23.8c-1.5,1.1-3.4,1.4-5.1,1-2.8-.7-8.2-13.3-7.3-16.9,11.6-10.5,23.5-20.1,36.1-29.1,5.7-4.1,10.5,9.2,13,15,1,2.3-.4,4.6-2.7,6.2h0Z"/>
  <circle class="st25" cx="113.5" cy="486.6" r="10.8"/>
  <circle class="st25" cx="877.2" cy="475.4" r="10.9"/>
</svg>