<?xml version="1.0" encoding="UTF-8"?>
<svg id="Layer_1" xmlns="http://www.w3.org/2000/svg" version="1.1" viewBox="0 0 528.4 615.8">
  <!-- Generator: Adobe Illustrator 29.0.1, SVG Export Plug-In . SVG Version: 2.1.0 Build 192)  -->
  <defs>
    <style>
      .st0 {
        fill: #fa7728;
      }

      .st1 {
        fill: #fa7727;
      }

      .st2 {
        fill: #554338;
      }

      .st3 {
        fill: #564339;
      }

      .st4 {
        fill: #f97626;
      }

      .st5 {
        fill: #908e89;
      }

      .st6 {
        fill: #db947e;
      }

      .st7 {
        fill: #f97625;
      }

      .st8 {
        fill: #f5cc40;
      }

      .st9 {
        fill: #d99983;
      }

      .st10 {
        fill: #386ba5;
      }

      .st11 {
        fill: #d99a84;
      }

      .st12 {
        fill: #d99782;
      }

      .st13 {
        fill: #aeaba7;
      }

      .st14 {
        fill: #da957f;
      }

      .st15 {
        fill: #386aa5;
      }

      .st16 {
        fill: #f3bba2;
      }

      .st17 {
        fill: #df9781;
      }

      .st18 {
        fill: #bc7660;
      }

      .st19 {
        fill: #f19f51;
      }

      .st20 {
        fill: #d9957d;
      }

      .st21 {
        fill: #8d8b87;
      }

      .st22 {
        fill: #da947e;
      }

      .st23 {
        fill: #f0a250;
      }

      .st24 {
        fill: #afada8;
      }

      .st25 {
        fill: #d99781;
      }

      .st26 {
        fill: #de9680;
      }

      .st27 {
        fill: #8b8984;
      }

      .st28 {
        fill: #8e8d88;
      }

      .st29 {
        fill: #d99680;
      }

      .st30 {
        fill: #f09f50;
      }

      .st31 {
        fill: #d7947c;
      }

      .st32 {
        fill: #da9580;
      }

      .st33 {
        fill: #d7eff1;
      }

      .st34 {
        fill: #f3bba1;
      }
    </style>
  </defs>
  <path class="st34" d="M354.2,176.5c1.2,2.6,1.2,6.9,0,9.5l1.1.6c2,5.9,4,11.8,5.9,17.7l.3,34.8c2.2-.5,4.4-1.4,6.4-2.6l1.2.5.7,1.1-.6,22.8c12.8-4.6,16.2-20.1,12.7-32.3-1.4-4.8-4.3-8.8-9.7-7.6l-.9-.7c-.4-.1-.9-.3-.9-.6,0-2.1.8-12.5,1.7-13.4,1.1-1.1,4.2-.7,5.8-.4,1.9,0,3,.7,3.2,1.8,5.7,2.7,10,7.2,12.3,13.4,2.2,5.8,3.3,11.9,2.9,18.1-.7,11.3-3.8,22-10.8,30.9-4.9,6.2-11,9-18.1,11.7-.9,2.8-.7,5.4-.9,8.4-1.9,22.1-10.5,43-25.1,59.7-1,1.2-2.5,2.4-2.5,3.8-.1.5-.3,1-.5,1.4s-.4.9-.7,1.1c-19.1,18.5-45.8,31.1-72.6,31-27.8-.2-54.3-12.6-73.5-32.1l-1-2.4c-.6-1.1-1-2-2-3.2-9.7-11.6-16.4-22.4-20.8-37.1-2.4-8.2-3-16.5-3.9-24.9-.2-2-.1-4-1-5.8-4.8-1.9-9.5-3.7-13.5-7.1-8.4-7.2-13.5-16.9-15.4-27.8-1.2-7.1-1.2-8.7-.2-15.9.8-6,3.3-11.6,6.5-16.8,2-3.2,5.3-4.5,8.3-6.3-.1-.4-.1-.9.1-1,2.2-.6,8-1.6,9.6-.4.6.5,1.6,11.8,1.6,13.4l-.9.8-1,.5c-5.2-2.1-8.9,3.5-10,8-2.9,12.2,0,27.2,13.2,31.8l-.8-23.8.9-.6,1-.4c1.8,1.6,4.5,3.2,6.6,3l.2-34.7c1.9-5.9,3.8-11.7,5.8-17.6l1.2-1.1-.8-1.2v-6.7s.9-1.2.9-1.2l1.4-.8c55.6,5,113,6,168.7.3,2.3,0,4.7,0,7-.2l.9.8h0Z"/>
  <path class="st8" d="M309.7,19.1l.9.7c-4,27.3-7.7,54.6-11.1,81.9,1.4,0,2.2-1.4,2.4-4.2,5.6-24.4,11.6-48.5,18-72.4l1.2-.2c3.7,1.1,6.9,3.4,10.2,5.6,2.1,1.4,4.3,2.6,6.4,4.3,4.1,3.3,7.9,6.7,11.8,10.2,9.1,8.2,16.9,19.3,23.8,29.6,3.5,5.2,6,10.3,8.6,16,3.6,8,5.7,16,6.4,24.8.9,12.7,1,25.2,0,38.2,4.8.9,12.6-1.1,17.9,0,1.9.4.9,3.5.1,4.5-2,2.7-4.6,4.5-7.5,6.1-4.5,2.5-9,4.9-14.1,6-.9.2-1.7.2-2,1,0,.4,0,1-.1,1-8.6,1.9-18.2,3.6-26.9,5l-1.2-.7c-2.8.9-6,.1-9,.5-4.2.6-8.2.7-12.4,1.1l-15,1.2-6.7.4-6.7.5-17.1.4c-14.8.3-29.4.4-44.1,0l-14.2-.4-10.6-.5-8.1-.4-22-1.9c-4.1-.4-8.3-.2-12-.9v.6c-9.7-1.2-19.2-2.8-28.8-4.8l-.5-1.1c-.2-.6-.9-1-1.8-1.2-5.1-.8-9.4-2.9-13.8-5.4-3.5-2-6.8-4.5-7.7-8.5-.2-.7-.2-1.6.2-2.2.3-.4,1.2-.6,2-.6l14.4.5c.8,0,1.6-.1,1.9-.7.2-.3.5-1,.5-1.6-.6-7.2-.2-14.1-.3-21.3-.1-8.9,0-17.7,2-26.5.8-3.8,2.3-7.3,3.5-10.9,2.1-6.6,5.2-12.6,8.7-18.5l3.2-5.4c5.7-9.5,11.6-16.1,20-23.3l4.7-4c7.7-6.5,15.7-12.4,24.5-16.8,1.2-.5,1.9.2,2.3,2.1,6,25,12.3,49.9,18.9,74.7h1c0,.1-9.7-69.9-9.7-69.9-.4-3.7-.8-7.3-1-11,0-.3.6-.5,1-.6,1.1-3.6.8-8.6,3.9-11.5C235.3.6,260.1,0,272.7.8c10.8.6,21,3.5,31,7.2,4.2,1.5,4.7,7.2,6.1,11h0Z"/>
  <path class="st1" d="M375.5,403.5l1.2.8c0,70,0,140,0,210.2l-1,.6h-11.5s-92,0-92,0c-.4,0-1,0-1-.3-.3-15.9-.1-32.2.6-48,2.4-7.4,5.4-14.5,8.8-21.4l71-147.4h1.1c2.2-1,4.4-1.7,6.9-.9,5.5,1.7,11.4,3,15.7,6.6h0Z"/>
  <path class="st0" d="M176.7,397.3h1.1s78.6,162.9,78.6,162.9c1.6,4.2,2.1,8.7,2.2,13.2.3,13.1.5,28-.4,41l-1,.7c-2.9.3-5.9,0-9.1,0h-36.9s-49.4.2-49.4.2c-2.6,0-4.9,0-7.2,0l-1-.5c.1-70.3,0-140.6-.4-210.8.3-.4.7-.8,1.2-1,3.1-2.4,7.2-3,10.9-4.7s7.6-2.5,11.4-.9h0Z"/>
  <path class="st10" d="M339.4,391.5c.6.1,14,5,13.4,6.2l-39.3,81.5-7.9,16.5-24.1,50-4.9,10.6c-2.3,5-4.4,9.6-4.4,15.3v43.5c-.1,0-12.6.1-12.6.1-.9,0-1.8.8-2.5,0l.3-15.1c.1-6.6,0-13.1.1-19.7,0-8,.4-14.7-3.1-22.1l-13-26.9-25.3-52.3-20.9-43.4-5-10.4-13.6-28c4.5-2.2,9.1-4.2,13.8-5.9l1.5,1.5c24.9,60.8,122.1,60.6,146.1-.4l1.3-1h0Z"/>
  <path class="st15" d="M87.8,443.2l.8.8c-.3,56.7-.4,113.5-.2,170.4l-1,.6h-20.6c0,0-41.4-.1-41.4-.1-3,0-5.7-.4-8.4-1.3-8.7-2.8-14.8-11.3-12.7-20.7l9.2-40.9c2.8-12.5,5.3-24.6,9.3-36.7l3.6-11.1c2-6.1,4.2-11.8,6.8-17.7,2.5-5.3,5.7-9.6,10-13.7,5.2-5,10.9-9.2,17-13.2l14.2-9.3c2.3-1.5,11.5-7.5,13.4-7.1h0Z"/>
  <path class="st10" d="M442.9,615l-1-.3s0-57.4-.3-172.1l1-.7,8.4,4.9,14,9.5c6.5,4.4,12.5,9,18.5,14.2,7.6,6.7,12.9,14.9,16.5,24.4,2.4,6.3,4.9,12.1,6.8,18.7,5,16.7,8.8,33.4,12.7,50.5l3.1,13.8,2.9,11.9c1.1,4.4,1.3,9.1-.5,13.4-3.3,8.1-11.1,11.8-19.8,11.9l-49.3.2h-13c0,0,0,0,0,0Z"/>
  <path class="st33" d="M154.5,403c-.4.9-.3,1.7,0,3v209.3c.1,0-36-.2-36-.2-1,0-1.3-.5-1.2-1.5.4-63.1.2-125.5-.1-188.5l-.5-4.7,1-.6c2.6-2.2,6-3.5,9.4-5.1l17.2-7.7c3.5-1.6,6.8-3,10.3-4h0Z"/>
  <path class="st33" d="M412.7,418.9c.7,1,.7,2.3.2,3.9-.2,63.7-.2,127.6-.1,191.5l-1,.6h-36.1c0,0,0-209,0-209,0-1.2,0-1.8-.3-2.5.9.7,2.3.2,3.4.7l24,9.6c3.7,1.5,6.6,3.7,9.8,5.2h0Z"/>
  <path class="st4" d="M442.6,441.9v21c0,1.7,0,3.1,0,4.9v19.2c.1,2.9.2,5.3.2,8.3v119.8c0,0-28.1.1-28.1.1-1.1,0-2.2.8-2.9-.1v-185.5c0-3.9-.2-7.2.9-10.5l27.1,12.5c1.5.7,2.1,2.1,1.9,3.7-.4,2.5.9,4.6.9,6.8h0Z"/>
  <path class="st7" d="M117.6,419.7c-.2,1.7.5,3.4.5,5.3l.3,44v46.9s0,21.4,0,21.4v32.2s0,25.6,0,25.6c0,5.9.3,11.6-.2,17.5,0,.9,0,1.8.2,2.4-2.4,1.1-5.3.1-8.1.1h-23c0-.1,0-169.3,0-169.3,0-1,.3-2.1.4-2.6,2-4.8-1.3-10.3,3.6-12.3l10.1-4.3,14.4-6.8c.6-.3,1.2-.1,1.7,0h0Z"/>
  <path class="st16" d="M338.9,391.4h.6c-3.1,11-12.5,23.3-21.6,30.3-4.7,3.6-9.3,6.7-14.7,9.3-26.3,12.5-57.2,11.2-82.3-3.5-14-8.2-25.2-20.9-30.3-36,.6-.8.8-2.1.7-3.4-.5-5.7-.1-11.1,0-16.8,0-3.7-.4-7.2,0-10.6.5-1.2,1.7-1.2,3.5,0,34.2,41.2,93.1,53.3,141.6,31l2.8-.3h0Z"/>
  <path class="st26" d="M338.9,353.5v37.9c-25.6,12.8-58.9,15.8-86.7,7.8-22-6.3-41.3-18.9-56.6-35.8-.9-2.1-2.6-2.8-4.5-2.8.2-2.7-.4-5.4-.5-8.1.6,1.2,2.3,1.9,3.3,3,15.6,15.9,35.8,26,57.8,29.4,10.4,1.6,20.1,1.5,30.4-.5,22-4.2,41.2-15.4,56.8-31h0Z"/>
  <path class="st24" d="M176.1,185.5c-.9,6.6-6.1,15.2-6.1,19.8v35.1c-2.8-.5-5.5-1.4-7.4-2.9l-1.3-1.1-1-.5c-.8-4.8-1.5-9.6-2.2-14.5l.9-.9-1.2-13.6c-1.9-.4-3.9-.3-5.8,0l-3.5.6-2.7-15c-.6-3.7-.3-7.3-.3-10.8.1-.9.4-1.7.9-2.4l20.5,4.5c3.2.6,6.3,1.1,9.3,1.6h0Z"/>
  <path class="st13" d="M381,207.5c-2-.9-7.2-1.5-8.1-1-.4.2-.7,1-.8,1.8l-1,11.9c.2,0,.5,0,.6.1.7.4-1.4,14.5-1.8,16.3l-1,.3c-2.7,1.3-5.3,3-8.5,3.4l-.2-35c0-4.6-5.4-13.7-6-19.3.2-.4.4-.7.8-.7,9.1-1.2,18.6-3.2,27.4-6.2l1.1.3c.7,11.5-1.5,17.3-2.5,28.2h0Z"/>
  <path class="st19" d="M321.1,24.8c-.6,1-.9,2.2-1.2,3.6l-6.6,26-7.2,29.3c-1.5,6.1-2.4,11.9-4.4,17.7-.4,1.1-1.8,1.3-2.5,1.1-1-.2-1-1.4-.8-2.4l4.8-34.6,6.5-46.4,9.1,4.2c.9.4,1.7,1.1,2.2,1.6h0Z"/>
  <path class="st30" d="M221.3,19.9c-.2.5.9,10.4,1.1,12.5l6,42.3,3.6,26.9c.1,1.1-1.6,1.1-2.2.9-.4-.2-1-.7-1.2-1.5l-5.5-21.9-6.3-24.9-6.5-26.6c-.3-1.1-.8-2.3-1.5-2.8,3.9-1.9,7.7-4.6,12.4-4.8Z"/>
  <path class="st27" d="M176.2,176.5c0,3,.4,6,0,9.1-.9.6-2,.8-3.3.5-9-1.7-17.5-3.6-26.3-5.8l-1,1.5c0-3.5,0-7.3,1.4-10.6l10,1.9,19.3,3.3h0Z"/>
  <path class="st21" d="M382.4,171.2c.8,2.7.9,5.4,1.1,8.1-.4.5-1,.8-1.8,1-7.8,2.5-15.6,4.2-23.7,5.6-1.4.2-2.7.5-3.8,0-.4-3.2-.3-6.3,0-9.5,2.2-.7,4.4-.9,6.9-1.4l21.3-3.9h0Z"/>
  <path class="st5" d="M234.7,202.9c-12-2.4-24.3-3.1-35.5,2.3-2.9,1.4-7.8,3.5-9.7-.1-.9-1.6-.4-3.1.7-4.6,10-14.3,30.9-15.4,46.2-10,3.2,1.1,5.4,3.8,5.3,6.9,0,1.9-.8,3.4-2,4.5-1.4,1.2-3,1.5-5,1.1h0Z"/>
  <path class="st28" d="M319.2,201.6c-8.1-1.2-15.7-.2-23.5,1.2-2.3.4-4.4,0-5.9-1.6-1.3-1.4-1.9-3.7-1-5.8,2.6-6.6,13.2-7.4,19.8-7.9,19.3-1.4,36.6,12.1,31.7,17.9-4.1,4.8-9.4-2.1-21.1-3.9Z"/>
  <path class="st6" d="M248,276.4c-1.8-.9-3.4-3.5-2-5.2s4.4-1.6,6.2-.7c4,1.9,7.8,3.8,12.3,4.3,4.8.5,9.7-1.7,12.8-5.2,2.7-3.1-.4-14-1.4-18.7-1.9-9-3.9-17.7-5.2-26.9-.3-2-1-7.4,2.2-7.1.7,0,1.8,1,2,2l6.9,29.5c1.3,5.5,2.4,10.8,3.2,16.4.6,4.1-.7,7.6-3.7,10.6-5,4.8-12.7,8.4-19.9,6.3-4.7-1.4-9-3.2-13.4-5.3h0Z"/>
  <path class="st17" d="M158.9,220.5c.2,2.8,1.4,5.7,1.2,8.7-.2,2.7,1.1,4.9,1.1,7.2l.9,25.9c-15.1-4.1-19-22.7-14.5-35.5,1.7-4.9,6.8-9.1,11.2-6.3h0Z"/>
  <path class="st26" d="M369,236.9c.3-1.6,1.1-3.4,1-5.2-.2-2,1.1-10.5,1.2-11.5,4.1-1.5,8.4.5,10.3,4.8,6,13.2,1.9,32.6-13.4,37.4l.5-22c0-1.3,0-2.4.4-3.4h0Z"/>
  <path class="st14" d="M288.2,367.2c11.4-6.9,10.9-13.9,14.4-12.5,5,1.9-4.9,16.2-17.7,20.1-11.8,3.7-24.6,3.7-36.5.6-15.1-3.9-24.7-18.7-19.9-20.7,1.3-.5,2.5,0,3.2,1.3,8.8,16.2,30.3,18,46.5,15,3.7-.7,6.9-1.9,10.1-3.8h0Z"/>
  <path class="st18" d="M282.7,310.8c-16.8,3.3-40.5,2.3-55.2-7.1-1.1-.7-.8-2.6-.5-3.4.5-1.1,2.1-1.4,3.3-.9l7.9,3.2c15.3,6.1,44.4,5.5,61.4-4.5,1-.6,2.6-1,3.5,0,1.6,1.8.7,4.3-1.2,5.5-5.9,3.7-12.2,5.9-19.2,7.3h0Z"/>
  <path class="st3" d="M224.7,231.8c-1.7,2.4-4.1,3.6-6.5,3.7s-5-1.1-6.6-3.3c-3.7-5.1-3.8-12.5-.2-17.7,1.5-2.2,3.9-4,6.6-3.9,2.9,0,5.5,1.9,7.1,4.4,3.2,5,3.2,11.9-.4,16.8h0Z"/>
  <path class="st2" d="M318.3,232.3c-1.7,2.1-3.9,3.3-6.1,3.2s-4.5-1-6.1-2.9c-3.6-4.4-4.1-10.7-1.9-15.9,1.4-3.3,4.5-6.1,8.3-6.1,3,0,5.6,2.3,7,4.9,2.9,5.2,2.5,12-1.2,16.8h0Z"/>
  <path class="st20" d="M216.1,297.4c-4,7.4,0,15.8-3.7,16.3s-3.1-5-3.1-7.7c-.1-14.1,9.8-17.6,17.5-30,.7-1.1,2.3-1.1,3.2-.6,5,2.9-11,16.8-13.8,21.9h0Z"/>
  <path class="st22" d="M319.2,296.7c1.8,4.3,3.1,17-.8,17-5.3,0,1.5-10.9-6.9-20.2l-4.6-5.1c-1.6-1.8-10.3-11.2-6.5-13,.9-.5,2.6-.5,3.2.6,5.8,9.3,12.4,13,15.6,20.7h0Z"/>
  <path class="st32" d="M237.3,237.4c3.8,3.2-14.3,18.9-32.6,14.1-1.3-.4-1.4-1.8-1.2-2.8.3-1.1,1.5-1.7,2.8-1.5,10.5,1.4,20.5-1.9,27.6-9.6.9-1,2.4-1,3.3-.3Z"/>
  <path class="st12" d="M326.2,249.2c.9,5.1-14.3,2.7-17.6,1.7-6.3-2-11.8-5.7-16.1-10.5-1-1.2-.4-2.7.6-3.4s2.1-.2,3.1.9c6.9,7.5,17,10.9,27.1,9.3,1.6-.3,2.7.7,2.9,2.1h0Z"/>
  <path class="st29" d="M280.6,323.6c.8,5.6-21.1,7.8-29.8,2.7-1.1-.6-.5-2.1-.2-2.7,2-3.6,11.3,3.7,27.4-2.1,1.4-.5,2.4,1.2,2.5,2.1h0Z"/>
  <path class="st31" d="M345.6,233.2c1.2.6,1.2,2.1,1,3-.2,1-1.5,1.4-2.8,1l-8.3-3.1c-1-.4-1.4-1.3-1.4-2.1,0-.6.8-1.9,1.9-1.6,3.2.6,6.5,1.5,9.5,3h0Z"/>
  <path class="st25" d="M186.5,236.9c-1.6.6-2.7.2-3.1-.9-1.2-3.7,5.5-4.2,9.8-5.6,1-.3,2.1,0,2.5.7.5.9.3,2.3-.9,2.7l-8.3,3.1h0Z"/>
  <path class="st11" d="M193.6,224.1c1.4.3,1.9,1.2,1.9,2.1,0,3.8-9.3.6-11.3-.2-1.1-.5-1.3-1.8-1.2-2.6.6-2.9,6.8-.1,10.5.7h0Z"/>
  <path class="st9" d="M345.8,225.8c-1.9.8-10.5,3.7-11.2,1.2-.2-.6-.4-2,.6-2.3,3.1-1.1,6.2-1.9,9.5-2.6,1.1-.2,2,.5,2.2,1.2.2.7,0,2-1,2.4h0Z"/>
  <path class="st23" d="M287.5,148.3c-22.6-.6-44.3-.2-66.7,1.3-18.6,1.2-36.5,4.1-54.6,7.6-1.4.3-2.5-.3-2.8-1.3-.4-1.3,0-2.5,1.3-3.1,4.9-1.9,9.7-3.1,15-4.2,19.6-4.2,39-6.5,59.1-7.6,15.9-.8,31.3-1.1,47.1-.4,24.4,1.1,56.1,4.5,79.2,11.8,1.2.4,2.2,1.5,2.1,2.5-.2,1.1-1.5,2.4-2.9,2.1l-14.8-2.9c-20.5-4-40.8-5-62-5.9h0Z"/>
</svg>