<?xml version="1.0" encoding="UTF-8"?>
<svg id="Layer_1" xmlns="http://www.w3.org/2000/svg" version="1.1" viewBox="0 0 988.1 988.1">
  <!-- Generator: Adobe Illustrator 29.0.1, SVG Export Plug-In . SVG Version: 2.1.0 Build 192)  -->
  <defs>
    <style>
      .st0 {
        fill: #f19b53;
      }

      .st1 {
        fill: #3e6fa9;
      }

      .st2 {
        fill: #f29951;
      }

      .st3 {
        fill: #23456f;
      }

      .st4 {
        fill: #ed9b50;
      }

      .st5 {
        fill: #ed9c4f;
      }

      .st6 {
        fill: #c1795b;
      }

      .st7 {
        fill: #3d6ea7;
      }

      .st8 {
        fill: #c27859;
      }

      .st9 {
        fill: #fefefb;
      }

      .st10 {
        fill: #5b4132;
      }

      .st11 {
        fill: #f0cb3f;
      }

      .st12 {
        fill: #5d4134;
      }

      .st13 {
        fill: #c37b5e;
      }

      .st14 {
        fill: #f1ca3c;
      }

      .st15 {
        fill: #d8ebf2;
      }

      .st16 {
        fill: #5b4032;
      }

      .st17 {
        fill: #d8ecf2;
      }

      .st18 {
        fill: #f0c83d;
      }

      .st19 {
        fill: #ed9f4d;
      }

      .st20 {
        fill: #fffffe;
      }

      .st21 {
        fill: #fff;
      }

      .st22 {
        fill: #fffefe;
      }

      .st23 {
        fill: #c2795a;
      }

      .st24 {
        fill: #d89775;
      }

      .st25 {
        fill: #f19750;
      }

      .st26 {
        fill: #fefefe;
      }

      .st27 {
        fill: #ef934c;
      }

      .st28 {
        fill: #f6792a;
      }

      .st29 {
        fill: #614133;
      }

      .st30 {
        fill: #f0cc41;
      }

      .st31 {
        fill: #d69673;
      }

      .st32 {
        fill: #234c75;
      }

      .st33 {
        fill: #d59672;
      }

      .st34 {
        fill: #f3964c;
      }

      .st35 {
        fill: #f0924c;
      }

      .st36 {
        fill: #3d6fa7;
      }

      .st37 {
        fill: #5d4133;
      }

      .st38 {
        fill: #c57d5c;
      }

      .st39 {
        fill: #f6792b;
      }

      .st40 {
        fill: #efca41;
      }

      .st41 {
        fill: #d69774;
      }
    </style>
  </defs>
  <path class="st21" d="M819.4,829.9c-1.4.5-2.7.6-3.2-.8-14.5-41.3-44-75.7-82.3-96.2l-1.8-2.9c-1.5-.5-2.8-1.7-3.9-3.8l-3.9-2.9-32.4-14-.3-2.2-2.6,1.1c-16.2-7-32.5-13.9-48.7-20.7l-.8-2.5-2.2.2c-7.4-4.2-15.1-6.9-23.1-8-2.7,1.2-4.7,1.2-6.1,0-.6.4-1.3.8-2,.6-3.5-1.4-11-4.9-14-6.8l-.4-2.3c-2.2,1-5.6,0-5-2.9-5.9.4-12.4-7.4-15.7-12.3-3.1-4.5-5-9.7-6-15-1.5-7.3-2.5-18,1-24.5l1.5-4.2c28.2-25.6,46.8-57.1,50.3-95.2l2.3-2.5,2.1-2.2c40.2-6.6,58.2-71,22.5-93.8-.4-.8.2-2.1,1.7-3.7l-1-2.2c1.7-13.5,2.7-27,3.2-40.6l1.8-4.1v-2.2c4.3-1.9,8.8-3.5,13.5-4.7,4-1.5,10.6-4.1,8.4-9.3-5.9-3.4-11.1-7.3-15.6-11.9-4.4-36.8-6.6-55.2-6.6-55.2-9.6-48.1-39.5-91.9-82.8-115.6l-2.7-3.6-2.3,1c-4-2.7-8.2-4.8-12.7-6.4l-1.1-2.2-2-.8c-1.7-7.6-2.4-11-10.2-13.8-34.2-12.5-72.4-13.4-105.1,3.2-2.2,3.2-3.7,6.9-4.5,11l-2.1.3c-2.4,4.1-10.5,8.9-15.3,7.8l-2.5,3.4c-60.2,32.8-87,96.4-88.4,162.1-1.7,12.1-4.1,13.8-14.8,19.2-.8.5-1.4,1.1-1.9,1.8-4.8,6.5,14.5,11.1,18.1,11.8,2.9,1.1,6.6,2.4,3.6,5.1l1.8,4.4c0,13.1,1.7,26.1,4.2,38.9l-1,4.7-.9,2.6c-34,23.9-15.2,86.3,24.4,93l2,2.2,2.3,3.3c2.5,38.8,24.2,70.3,51.8,96v2.4c1.9,2.4,3.2,5.1-.1,6.6,6.5,20.2-5.6,38.9-22.8,49.4l-1.9-1.2-.2,2.2c-5.4,2.5-10.8,4.9-16.2,7.4l-2-1.2c-2.8-.4-5.6-.5-8.4-.3l-20.2,8.3-2-1.2-.8,3.1c-16.4,7-32.8,14.1-49.1,21.5-.4-1.4-1-1.7-2.2-1.4v2.1c0,0-32.4,13.5-32.4,13.5l-3.3,2.8c-1.2,2.8-2.8,4.4-4.7,4.7l-3.5,3.9c-36,18-62.4,49.2-77.7,85.9-.9.5-1.8.1-2.9-.9C-21.5,633.7-16.7,337.7,168.8,158.1s481.5-174.8,661.2,10.7c179.6,185.5,174.9,481.5-10.6,661.2h0Z"/>
  <path class="st39" d="M639.6,685l1.9,1.8c.1,83.5,0,166.9,0,250.4l-1.8,1.2c-46.1,15.1-94.3,23-142.9,23.2-.8.1-1.9,0-1.9-.7-.1-17.2-.2-34.5,1.2-51.7l2-6.7c35.3-74.8,71.3-149.8,107.8-225l2.2-.2c4-1.9,8-3,12.4-1,5.4,2.4,11,4.4,16.6,6.3,1.5.5,1.6,1.8,2.4,2.4h0Z"/>
  <path class="st28" d="M365.2,677.2l2-.2,108.9,225.1,2.2,10.4.2,47.7-1.9,1.1c-48.5-1.8-96.5-11.2-142.2-27.8l-1.9-1.5c0-82.1,0-164.2.3-246.2l1.8-1.8,20.5-8.5c2.7-1.1,8.5-1.4,10.1,1.8h0Z"/>
  <path class="st36" d="M591.7,668.7l13.2,6.1c1.4.7,2.6,1.3,3.2,2.4l-62.5,129.7-26.1,54.5-18.8,39.8c-2.6,5.5-3.7,11.2-3.7,17.3l-.3,43.1c-6.7,0-13.5,0-20.2-.3l-.2-48.8c0-7.4-4-13.9-7.2-20.5l-33.7-70-36-74.3-21.1-43.2-13.3-27.4,18.4-8.4,3.2,2.6c38.4,83.6,167,81.9,202.1-3.5.8-.3,2.1.2,2.8.8h0Z"/>
  <path class="st17" d="M691.6,707.1l-.4,2,.6,207.7-1.9,1.8c-16.3,7.5-33.1,14.1-50.2,19.7v-253.4c1.7,1.6,4.4,1.8,7,2.9l40,17.3,5,2h0Z"/>
  <path class="st15" d="M334.4,933.6c-17.1-6.2-33.8-13.4-50.1-21.6l-1.8-1.8c0-68.4,0-136.1,0-203l2.9-.8,44.4-20.1c1.8-.8,3.9-.5,4.7-2.3v249.6c-.1,0-.1,0-.1,0Z"/>
  <path class="st7" d="M819.4,829.9c-26.3,25.5-55.6,47.8-87.2,66.5l-1.9-.7s0-54.8-.2-164.5l1.9-1.2c10.4,4.2,19.2,11.6,28.6,18.4,13.1,9.5,23,20.7,32.6,33.6,9.8,13.1,17.2,26.8,22.9,42.3.8,2,1.4,4.4,3.2,5.6h0Z"/>
  <path class="st28" d="M691.6,707.1l30.4,12.9c3.9,1.7,10,5.3,10,10l.2,166.4c-13.7,8.1-27.9,15.5-42.4,22.2l-.5-207.5c0-1.5-.3-2.3.3-3.3.3-.5,1.2-.8,2-.7h0Z"/>
  <path class="st28" d="M284.3,912c-14.5-7.3-28.7-15.3-42.4-24.1l-1.9-2.6c0-51,.1-102,.3-153l1.9-1.8c1.5-4.3,4.1-8.2,8.9-10.1l31.6-13.1c.4,0,1,0,1.4.1s.7.8.7,1.9l-.3,202.8h0Z"/>
  <path class="st1" d="M241.9,887.8c-30.5-19.5-58.7-42.6-83.9-68.6,1.4.5,1.8-.5,2.4-2.1,16.2-38.9,44-68.8,81.7-86.8l-.2,157.5Z"/>
  <path class="st18" d="M548.6,155.3l1.8.9c-5.7,36.8-10.8,73.7-15.3,111,9.4-34.4,18.5-69.3,27.1-104.8l2.4.5c47.7,23.8,82.3,75.7,88.9,128.8l4.4,35.2c.5,3.7-1.2,9.4,1.9,11.5l13.2,8.9c3.3,2.2,1,8-2.2,9.9-10.1,5.7-14.8,4.1-20.5,8.1l-3.5,2.6c-5.7,1.5-29.3,6.3-33.1,4.9-.7-.3-1.4-.7-2.1-1.1,0,.8-.2,1.9-.8,2-21.2,2.1-45.3,4-66.6,4.7-60.1,1.8-118.1,1.3-178.1-4.5-.7,0-1.3-.4-2-.9s-1.3-.9-1.9-1.5l-1.4,1.8-36-5.9-1.2-1c.2-5.8-24.7-3.6-24-15.9.3-5.6,12.7-7.8,15-12.5,6.3-13.1-2.9-75.6,41.4-130.3,5.5-6.8,10.5-12.9,17-18.7,11.4-10.2,23-19.6,36.5-25.9h2c8.9,35.1,18.2,69.8,27.6,104.4-4.4-37.2-9.6-74-15.6-110.4l1.2-1.7c1.9-5.1,2.5-12.2,8.4-14.8,15.2-6.9,31.7-9.8,48.5-10.8,21.3-1.2,42,3,61.5,11.8,2.8,3.3,5.5,9.8,5.5,13.9h0Z"/>
  <path class="st29" d="M362.3,371.6l1.4,1.7-4.9,13.7-2.3.6,1.1,2.8c-1.8,5.4-2.8,10.9-2.7,16.5.1,32.6,4.1,78.3,19.4,107.2,8,15.1,21.2,27.2,36.2,35.2,6.7-27.3,20.6-31.3,47-37,9.6-2,16-1.5,24.9,1.9,6,.9,12,0,18.1-2.5,7.5-1.2,10.7-.7,18.2.8,10.6,2.1,28.6,7.3,35.2,15.7,4.8,6.1,7.2,14.1,9.2,21.5,35-17.6,47.6-54.6,52.5-91.2,1.7-19.1,2.8-38.2,3.3-57.4-1.3-4-1.4-7.6-.3-10.7l-.9-1.1c-.6,0-.7-.4-.4-.9l-2.3-1.4c-1-2-4.9-13.1-4.3-14.1.3-.5.6-.9,1-1.3,12.9-.9,25.8-4.1,38.6-6.3.8,15.8-1.8,31.4-4.1,47,0,2.9-1.3,4-3.8,3.4-9.2-3.4-13.1.2-11.6,11l-2,1c-.2,1.2.3,2,1.7,2.3-2,19.5-4.1,39.1-6.1,58.6l-2.1,1.5c.7.3,1.8.7,1.8,1.3,0,2.1-1.5,18.6-2.2,19.3-.5.6-1.3,1-2.1,1.2-.7,6-2.3,12.1-3.2,18.5-2.6,17.4-9.5,32.6-19.2,47.2-9.1,13.8-20.4,24.8-31.7,36.2l-1.4,3.8c-23.2,20.9-45.4,32.8-77.7,32.7-31.7-.2-54.6-12.1-77-33l-1.5-3.5c-1.7-1.2-3.1-3.7-5-5.5-17.3-15.8-31.5-34.5-40.3-56.5-5.2-13.1-7.1-26.4-8.6-39.8l-2-.9-2.3-21.4,1.8-1.6-2-.7c-2-19.1-4.1-38.1-6.1-57.2,1.5-.4,1.7-1.4,1.6-2.7l-2-.9c.4-10.9-1.2-14-12.5-11.2l-1.9-1.3c-3.3-15.8-5.6-31.9-5.1-48,0-.3.2-.7.4-1.1,0,.1,34.3,5.8,38.2,6.2h0Z"/>
  <path class="st3" d="M294.8,665.8c-3.8-5.5-4.8-11.4-7.3-17.1-13.3-30.8-22-62.6-29.4-95.3-1.1-5.1-14.1-22.2-.1-27.8-2-4.8-2.5-10.6-5.9-14.3-2.8-2.3-8-1.9-11.5-2.6-12.9-2.3-22.1-10.3-25.3-23.5l-39.7,14c-6.7,2.4-13.4,3-19.9-1.1-4.9-3.1-9.6-8.6-9.8-16l-1.8-95.5-.2-32.8c-.2-22.9-1.4-45.1-.6-68.1.2-7.8,7.4-13.9,13.8-15.9,7.1-2.2,15.8-.7,20.7,5.8l116.7,152.5c7.6,9.9,6.1,25.9-5.8,30.4l-45.4,17.3c-1.9.7,1.6,4.2,3.2,4.3,10.7,1,25.9,4.7,30.3,15.7l7.8,19.3c4.4-.6,9.6-.2,11.5,5l6.6,19.1c8.6,24.7,28.6,55.5,40.6,105.9,3,12.4-5,24.3-15.3,29-11.9,5.3-25.6,2.5-33.2-8.5h0Z"/>
  <path class="st32" d="M742.8,677c-4.2,10.4-13,16.6-23.9,12.2l-95-38.1c-8.8-3.5-13.2-13.7-9.7-22.5l135.3-336.2c3.5-8.8,11.7-12.1,20.8-10.4l98.4,39.8c8,3.2,9.8,12.8,8,20.6l-26.2,65.1-107.7,269.5h0Z"/>
  <path class="st41" d="M586.7,665.8c1.6,1,4,1.1,5,2.9-2.2-.3-1.8,2.3-2.8,4.2-7.7,15.7-18.3,29.6-32.7,40.1-19.9,14.5-44.3,22.1-69.1,22.3-22.9.2-44.2-6.8-63.3-18.5s-32.3-28.1-40.3-48c2.8-1.3,5.5-4.2,8.3-6.1,10.2-7.2,15.8-18.3,16.1-30.7l.3-11.4,2.6.5c42.3,46.9,111.4,79.1,171.6,44.9l4.2-.2h0Z"/>
  <path class="st13" d="M565.9,614c-1,23.3,0,38,20.8,51.8-24.2,14.8-54.6,20-83,14.2-31.3-6.4-66.5-29-88.8-51.2-2.7-2.7-4.9-5.2-6.5-8.1,0-2.2.2-4.4,0-6.6,10.5,7.2,22.4,20.4,38,26.6,24.1,9.7,50.9,10.5,75.7,2.5,10.6-3.4,19.6-9.2,27.9-16.2,5.4-4.6,11.4-8.2,16.1-12.9h0Z"/>
  <path class="st27" d="M816.8,767.5c-2.1,3.4-5.2,4.5-8.1,3.3-2.6-1.2-4.4-5.4-2.3-8.6,40.6-62.8,60.8-133.7,62.7-208.6,0-3.3,2.2-5.8,5.3-5.7,2.5.1,5.4,2.2,5.3,5.8-.5,63.8-15.6,126.5-45.3,182.9-5.6,10.7-11.3,20.5-17.7,30.9h0Z"/>
  <path class="st11" d="M166.8,761.1c2,3.2,2.2,6.5,0,8.5s-7.1,2-9.1-1.1c-40-62.2-64.2-141.6-63.2-215.8,0-2.7,2.6-4.2,4.6-4.7s5.4.9,5.5,3.9c.9,27.8,3.3,54.8,9.4,82,7.1,31.2,17.1,60.4,30.8,89.2,6.4,13.4,13.9,25.2,21.8,38.1h0Z"/>
  <path class="st35" d="M211,723.7c1.9,3.1-1.3,6.6-3.2,7.1-2.8.8-6.5.2-8.4-3.1-16.1-28.2-28.8-57.8-36.8-89.4-8.6-34.1-12.4-74.5-9.5-109.6.3-3.2.6-5.7,3.6-6.5,2.6-.7,6.5,0,7,3.5.9,7-.5,13.3-.6,20.4-.7,62.7,14.7,123.8,47.9,177.7h0Z"/>
  <path class="st14" d="M773.2,728.6c-1.8,2.8-5.2,2.6-6.9,2.1-2.3-.6-4.4-4.6-2.7-7.4,27.8-45.5,44.7-96.5,46.5-149.9l.7-20.6c0-2.6,2.4-4.7,4.2-5,2-.4,5.6.3,5.9,3,1,12.5.3,24.5-1,37-2.8,26.8-7.5,52.7-16.8,78.1-8.1,22-17.3,42.7-29.9,62.7h0Z"/>
  <path class="st33" d="M345.2,427.8c0,1.4-.2,2.7-.8,3.8-11.2-1.8-16,5.2-17.9,15.6-3.1,16.6,5.3,38,23.7,39.4l1.5,1.8,2.6,23.8c-27-3.3-45.6-30-45.7-57.5,0-7.2.4-13.6,2.9-20.2,3.2-8.7,9-16.2,17.2-20.2,3.6-1.7,11.1-2.1,14.2,0,2.6,3.8,1.8,9.4,2.2,13.5Z"/>
  <path class="st2" d="M358.8,178.6c-50.9,18.3-100.9,50-138,89.2-2,2.1-6.5.5-7.7-1-1.5-1.9-1.8-4.8.4-7.2,19.5-21.1,41.5-38.4,65.7-54.3s48.2-27.1,74.4-36.7c3.1-1.1,6.8.1,7.5,2.6.6,2.1.7,6.3-2.2,7.4h0Z"/>
  <path class="st33" d="M620,512.1l2.5-21.8c1.2-2.5,3.7-4,7.5-4.6,21-7.1,28.2-56.3-.5-54.4l-.6-3.5c.4-4-.3-9,1.8-13.2,2.2-4.4,14.7,2,15.6-2.2-.1.8-.2,1.6-.2,2.8,8.6,4.5,14.4,12.1,17.1,22,8.8,31.8-9.3,70.9-43.2,75h0Z"/>
  <path class="st0" d="M734.6,235c2.4,2.1,1.8,5.7.6,7.7-1.4,2.2-5.6,2.8-8.1.7-18.3-15.7-37.9-28.7-59-40.6-16.7-9.4-33.6-16.8-51.5-23.4-3.4-1.3-4.3-4.6-3.8-7.2.6-3.3,4.2-4.9,7.8-3.6,31.1,11.5,60.4,26.5,87.3,45.8,9.4,6.8,18.2,13,26.7,20.5h0Z"/>
  <path class="st4" d="M564.7,163c-1,.1-1.2,1.1-1.4,2.3-2.6,13.1-6.3,25.3-9.6,38.2l-11,44c-.8,3.4-5.1,24.1-8.1,22.7-.6-.3-1.6-1.5-1.5-2.8l10.4-79.6,5.1-32.5c6,1,10.9,5.1,16,7.6h0Z"/>
  <path class="st5" d="M409.5,163c5.1-2.4,10-5.6,15.3-7.8,1.5,2.3,1.7,5.4,2.1,8.4l3.6,23.2,10.9,82.7c-2.3,1.2-4.3-1.1-4.9-3.4l-27-103.3h0Z"/>
  <circle class="st25" cx="868.8" cy="472.8" r="21.6"/>
  <circle class="st34" cx="105.1" cy="483.9" r="21.6"/>
  <path class="st40" d="M248.1,323.5c-2.9,3.4-8.5,4.2-10.6.8-2.3-3.7,1.1-6.8,3.4-9.4,18.2-20.6,38.1-38.9,61.1-53.9,2.7-1.7,6.5-1.2,7.8.8,1.5,2.6.9,6.2-1.8,8.1-22.1,15.5-42,32.7-59.9,53.5h0Z"/>
  <path class="st30" d="M719.9,301c2.5,2.4,2.6,5.9.8,7.8s-6,2.6-8.4.2c-11.4-11.2-22.8-21.9-36.1-31-4-2.8-7.7-5.6-11.4-8.6-2.3-1.9-2.6-5.1-1.2-7.5,1-1.8,4.9-3,7.3-1.4,11.9,8.1,23.8,16,34.2,26l14.8,14.4h0Z"/>
  <path class="st38" d="M611.8,371.7c1.4,5.7,4.5,10.9,5.6,16.7.9,2.5.3,4-1.7,4.3-1.2.7-25.2,6-26.5,5.9-.8-.1-1.5-.3-2.1-.8l-3.5.2c-17.5-11-38.5-11.6-58-6-.3.1,0,5.8.3,7.1l-1.5,1.6c.2.8.2,1.7-.3,2.4-.7,1-19.7.8-23.6.8-14.5-.1-29-.4-43.6-.9-1.2,0-2.4-.4-3.6-.7s-2.4-.9-3.6-1.4l-1.4-1.6c.6-1.1,1.6-5.8.7-6.3-15.1-7.1-39.6-5.7-54,2.7l-2.8-.8-4,.7c-10.1-2-20.1-4-30.1-6.2l-1.4-2,5.7-16c49.5,5.1,132.3,8.4,181.9,4.9l67.5-4.8h0Z"/>
  <path class="st19" d="M490.5,333.4c-57.7.5-83.4,1.3-139.6,12-1.6.3-3.5-.6-3.8-1.6-1.6-5.8,16.7-8.8,21.5-9.8,38-7.6,75.8-11,114.7-11.4,45.2-.5,99.1,4.6,142.3,16.5,1.7.5,1.9,2.9,2.1,4,.2,1.5-1.8,3-4.3,2.4-43.7-9.3-87.3-12.5-132.7-12.1h0Z"/>
  <path class="st24" d="M392.1,395.1c.2,2-1.4,3.9-4.6,5.7-4.2,4.3-3.4,7.8,2.9,5.9,16.9-8.5,34.8-10.4,53.1-4.3,2.1-.5,4.1-1,6.2-1.5,22.9.6,45.7,1.7,69.1.7,2.2,0,4.1.5,5.5-.8,2.1.5,4.2,1.1,6.5,1.7,18.4-5.5,36.8-5.2,53.3,4.4,5.8,2,6.8-3,2.9-6.5v-2.6c.3-.8,1.2-1,2.3-1.2l26-5.7c1.2-.3,1.4-1.9,2-2.4,0,.3.3.6.4.9l.9,1.1c1.9,6,2.9,12.3,2.4,19.2l-3.3,47.2c-1.2,16.5-6.4,32.1-11.8,47.6-7.5,21.8-24,37.3-43.9,48.5-3.5-13.6-8-28-22-32.1l-20.8-6.1c-20.8-6.1-23.8,5.5-38.5,1.1-4.6-1.4-9.7-3.3-14.7-2.8-11.5,1.4-22.4,4.5-33.1,8.3-13.7,4.8-16.7,18.8-21.3,31-20.7-11.5-35.9-26.8-43.8-48.4-12.6-34.6-12.7-58.5-14.6-94.6-.4-8,1-14.9,3.5-21.8,5.2,0,10.2,2.4,15.9,3.3,6.9,1,13.5,2,19.6,4.2h0Z"/>
  <path class="st31" d="M501.5,584.3c1.4-3,7.5-5.9,6-10.6-.3-1-1.7-2.2-3.2-1.9-11.2,2.2-22.2,1.7-33.5-.2-1.6-.3-3,.5-3.8,1.5-2.5,3.1,3.2,8.6,5.4,11.3-4.2,6.7-12.2,8.2-19.7,5.2-12.6-5.1-22.8-17.2-24-31.3-.7-8.1,3.9-15,8.7-21.3,16.9-3,33.2-7.5,50.7-7.5,14.9,0,29.1,4.3,43.8,6,8.5,1,13.6,16,13.5,20.9-.2,15.3-11.2,28.9-25.2,33.8-7.3,2.5-14.6,0-18.6-6h0Z"/>
  <path class="st23" d="M622.4,490.3l6.5-62.5c-1.1,4.8,11.3-3.3,17.5,9.6,7.4,15.3,3.8,34.2-8.8,45.8-4.5,4.1-10.1,5.1-15.3,7h0Z"/>
  <path class="st8" d="M351.8,488.4c-4.9.6-10-.7-13.7-4.5-14.3-9.1-17.8-32.2-10-46.9,3.3-6.2,9.8-8.5,16.1-7.1.8.2,1-1.7,1.1-2.1l6.5,60.6h0Z"/>
  <path class="st38" d="M618.6,390.5c-.7.3-.7-.7-.9-1.1.7-.3.8.7.9,1.1Z"/>
  <path class="st21" d="M203.8,449.5c2.1,9.1,6.2,16.9,7.5,25.5l-38.6,13.9c-3.9,1.4-7.5,2.7-11.3.3-2.7-1.7-4.9-5-4.9-9.3l-1.7-105.7-1.3-85c0-4,2.9-7.2,5.7-8.4,3.7-1.5,8.1-.9,10.8,2.7l115.6,151c3.5,4.6,3.4,12.5-2.3,14.8-14.7,6.1-29.5,10.6-44.5,16l-8.3-23.4c-2.6-7.2-9.3-11.1-16.6-9.4s-11.9,8.8-10,16.9h0Z"/>
  <path class="st26" d="M268.4,521.1c-2.8-3.5-3.3-8.4-5.2-12.3-5.3-11-11.8-9-24-11.7-6.1-1.4-10.6-5.6-12.6-11.5l-12.7-38.2c-.6-1.9.5-3.8,1.7-4.4,1.7-.8,4-.2,4.7,2l11,33c6.8,20.4,27.8,7.8,35.9,22.8,2.9,5.5,4.6,12.4,6.8,18-.3,1.6-4.6,3.3-5.6,2.2h0Z"/>
  <rect class="st21" x="557.3" y="428.1" width="376.1" height="115.7" transform="translate(16.5 996.3) rotate(-68.1)"/>
  <circle class="st20" cx="868.8" cy="472.7" r="10.8"/>
  <circle class="st22" cx="105.2" cy="483.8" r="10.7"/>
  <path class="st37" d="M587,397.9c1.8,1.7,3.6,3,4.2,5.3.5,2.2-.4,4.5-1.8,5.5-7.5,5.3-16.3-15.7-56.8-4.4-3.1.9-7-.3-8.3-3.4s-1.2-7.1.1-10.1c25.7-6.4,40-6.1,62.6,7.2h0Z"/>
  <path class="st12" d="M449.6,401c-1.3,3.1-5.1,4-8.6,3-37.8-11.7-51.8,12.5-57.5,3.2-3.2-5.1,6.8-11.2,8.5-12.1,7.2-3.5,13.9-7,21.9-7.7,11.8-1.1,24.6-.6,35.6,4,3.1,1.4,1.1,7.7,0,9.6Z"/>
  <path class="st10" d="M563.6,428c3.5,9.9-.5,26.4-11.8,26.1-4-.1-8-2.1-10.2-6.3-3.5-6.7-3.5-15.8.4-22.3,2.5-4,7.3-6.2,11.3-5.8,4.5.5,8.5,3.6,10.2,8.4h0Z"/>
  <path class="st16" d="M430.5,450c-4.7,5.5-12.7,5.3-16.6.3-8-10.1-5.5-27.4,5.1-30,4-1,8.3,0,11.3,3.3,6.2,6.9,6.7,19,.3,26.5h0Z"/>
  <path class="st6" d="M512.3,493c7.3,8.9-17.8,15-25.2,15.3s-27.1-4.9-26.8-11.9c.4-9,11.9,0,24.8.9s24.2-8,27.1-4.3Z"/>
  <path class="st9" d="M524.3,548.3c-23.3,15.6-53.4,14.5-76.2-1-2.1-1.4-4-3.2-3.6-5.6h85c-.2,3.3-2.3,4.7-5.2,6.6h0Z"/>
  <path class="st3" d="M712.2,619.7c-4.3,10.1-16.7,12-25.7,7.5s-13.7-15-9.7-24.9l17.2-43.1c-3.1-7.7-2.8-15.2.4-23.2l49.4-123.1c3-7.5,8.3-12.1,15.4-15.3l17.9-43.3c4.2-10.1,16.1-13.4,25.3-9.2,9.9,4.5,14.6,15,10.4,25.6l-18.8,48c-2,5.2-1.3,10.3-3.6,16l-48.5,121.2c-2.1,5.3-5.9,7.7-7.9,12.3l-21.8,51.7h0Z"/>
  <path class="st21" d="M704.7,611.4c-2,5.2-6.1,8.2-10.8,7.2s-9.1-6.1-7-11.4l15-38.8c6.1,3.1,11.2,4.9,17.7,5.3l-14.8,37.6h0Z"/>
  <path class="st21" d="M787.4,405.2c-5-3.7-9-7-15.8-8l14.2-36c2-5.2,6.2-8.4,11.3-6.7,4.7,1.6,7.8,6.1,6.3,11.6l-16,39.2h0Z"/>
</svg>