<?xml version="1.0" encoding="UTF-8"?>
<svg id="Layer_1" data-name="Layer 1" xmlns="http://www.w3.org/2000/svg" viewBox="0 0 850.32 850.32">
  <defs>
    <style>
      .cls-1 {
        fill: #5b4133;
      }

      .cls-2 {
        fill: #c4795a;
      }

      .cls-3 {
        fill: #3f6fa7;
      }

      .cls-4 {
        fill: #ee9f4e;
      }

      .cls-5 {
        fill: #c47a5a;
      }

      .cls-6 {
        fill: #3d6fa8;
      }

      .cls-7 {
        fill: #5c4134;
      }

      .cls-8 {
        fill: #d59673;
      }

      .cls-9 {
        fill: #f7792a;
      }

      .cls-10 {
        fill: #ba8261;
      }

      .cls-11 {
        fill: #d59471;
      }

      .cls-12 {
        fill: #f0c93e;
      }

      .cls-13 {
        fill: #614134;
      }

      .cls-14 {
        fill: #c2795b;
      }

      .cls-15 {
        fill: #3d6ea6;
      }

      .cls-16 {
        fill: #d79775;
      }

      .cls-17 {
        fill: #ee9b51;
      }

      .cls-18 {
        fill: #d69874;
      }

      .cls-19 {
        fill: #f57a2c;
      }

      .cls-20 {
        fill: #f6792a;
      }

      .cls-21 {
        fill: #5e4235;
      }

      .cls-22 {
        fill: #ee9c50;
      }

      .cls-23 {
        fill: #d8ecf3;
      }

      .cls-24 {
        fill: #c57d5c;
      }

      .cls-25 {
        fill: #fefdfc;
      }

      .cls-26 {
        fill: #d8ebf3;
      }

      .cls-27 {
        fill: #c37b5d;
      }

      .cls-28 {
        fill: #5a4032;
      }

      .cls-29 {
        fill: #d69774;
      }
    </style>
  </defs>
  <path class="cls-12" d="M468.93,138.17l.47,2.02c-3.79,22.7-6.78,45.04-9.69,68.12-.51,4.01-.94,8-1.2,12.02-.04.67,3.09-5.55,2.66-6.55l17.37-69.45c.18-1.08.71-1.36,1.66-.76,4.83,1.47,21.72,14.19,25.12,17.66l5.95,6.05c11.13,11.33,19.08,23.66,24.94,38.45,5.66,14.29,8.81,29.01,10.31,44.27.28,2.85.49,5.34.78,8.14l.89,8.62c.15,1.45.22,3.83,1.44,4.53l7.94,4.55c1.68.96,2.8,2.72,2.5,4.56-.9,5.51-11.01,7.53-16.37,9.05-.58.17-.9.42-1,.86l-.55,1.06-27.44,4.51-.72-.85-1.05.94c-22.06,1.71-44.17,3.1-66.32,4.17-37.16,1.05-74.68-.92-111.68-4.3l-1.53-1.13c-.35.21-.71.39-1.09.52s-.72.24-1.05.21c-8.41-.9-16.24-1.83-24.44-4.06-.32-.09-.59-.34-.89-.61s-.54-.59-.78-.93l-5.76-1.96c-3.99-1.36-12.32-3.04-11.58-8.26.18-1.3,1.21-2.46,2.5-3.22l6.92-4.12c1.55-.92,2.46-2.21,2.65-4.12l1.51-15.12c1.27-12.77,2.93-25.07,6.26-37.48,1.37-5.08,3.26-9.5,5.23-14.37,4.64-11.48,12.38-22.53,20.84-31.57l4.65-4.96c6.27-6.69,21.22-17.41,29.31-20.98l1.35-.22c6.42,25.46,13.02,50.92,19.81,76.38.95,1.16,1.16.07.63-3.27-3.46-25.8-7.07-51.74-10.84-77.82l.8-2c-.13-2.03,1.09-4.79,2.13-6.53,1.45-2.41,3.98-3.45,6.47-4.28,17.74-5.92,27.12-6.92,46.22-6.01,7.67.37,14.76,2.57,21.98,4.88,10.59,3.38,9.45,2.76,12.66,13.34Z"/>
  <path class="cls-19" d="M534.67,522.61l.96,1.13c-.03,69.82-.07,139.63-.1,209.44l-.96.6c-5.04.97-10.18.19-15.63.19l-66.82.02-20.73.11-.96-.55c-.43-16.69-.24-33.38.57-50.06l2.33-6.45c25.61-53.61,51.47-107.13,77.58-160.56l1.16-.17c2.46-1.59,5.13-2.01,8.06-.89l12.13,4.63c1.35.52,2.74.96,2.42,2.56Z"/>
  <path class="cls-9" d="M335.43,515.72l1.11.08c26.69,54.34,53.12,109.09,79.31,164.2l1.3,5.14c.55,16.07.66,32.13.34,48.2-.17.43-.62.67-1.36.72l-12.72-.05-74.17-.15c-5.64-.01-11.07,1.03-16.23-.12l-.6-.7v-210.38s.44-.93.44-.93c1.11-1.19,2.84-1.75,4.52-2.45l11.44-4.72c2.22-.91,4.61.73,6.63,1.15Z"/>
  <path class="cls-6" d="M499.03,509.62l12.01,5.71c.51.24.82.64,1.02.97l-5.21,10.31-22.8,47.21-17.39,35.9-16.01,33.44-12.95,27.37c-2.5,5.28-6.02,10.27-6.13,16.22l-.39,21.47c-.04,2.37.01,4.43.04,6.8l.17,19.08-15.26-.02c.33-.4.52-1,.51-1.8l-.06-40.77c0-4.39-.36-8.68-2.31-12.77l-22.78-47.63-17.9-36.86-9.78-20.48-11.54-23.79-8.28-16.76-8.55-17.49c4.73-1.57,9.5-3.49,13.86-5.97l1.56,1.54c26.09,61.6,121.6,60.74,146.85-.73l1.34-.94Z"/>
  <path class="cls-13" d="M333.44,294.73c.33.21.81.53.75.81-.26,1.26-2.75,9.27-3.32,9.59-.2.11-.44.12-.71.11l.56,1.42c-1.42,4.38-2.82,8.83-2.87,13.49.06,11.86.99,25.68,2.55,37.46,3.54,26.85,12.46,54.36,38.65,66.49,2.44-8.42,5.79-17.95,14.68-21.39,12.56-4.86,26.1-8.94,38.72-3.64l3.43-.14c9.39-3.44,15.42-3.11,25.36-.36,4.53,1.25,9.03,2.64,13.46,4.23,8.4,3.02,12.14,13.81,14.14,21.72,36.13-17.97,39.22-61.26,40.93-96.36.56-5.39.45-10.63-.32-15.7-.98-1.95-1.37-3.89-1.17-5.85l-1.37-1.07-3.13-8.81.25-1.7,28.71-4.72-.47,2.51c-.58,3.15.91,6.88-.52,9.65-.38.72-.14,1.43.44,2.44-2.99,3.34.18,3.73-1.1,8.08l-.5-1.59c-1.02.93.51,1.92.36,2.53-.55,2.31-.54,4.57-.98,6.94l-.57,3.09c-.16.88-.54,1.67.06,2.34l-1.05.53c-3.1-1.3-6.55-.94-9.8-.57-.46,2.44-.7,4.9-.71,7.39l-1.03.76c-.29,1.34-.05,2.2.7,2.57-1.47,14.33-2.94,28.64-4.41,42.94l-1.01.48c.37.04.93.2.92.43-.17,3.86-.82,9.51-1.52,13.3.13,1.59-.3,2.5-1.28,2.72-.38,3.31-1.23,6.78-1.71,10.28-.94,6.91-2.44,13.45-5.13,19.94-4.09,9.89-9.74,18.84-16.67,26.93-2.91,3.39-9.72,11.38-13,13.34-1.37.82-1.79,1.6-2.36,2.91l-1.15,1.97c-16.08,15.29-32.39,23.99-55.27,24.17-16.65.13-33.51-4.42-46.16-15.24l-10.99-8.95-.68-1.82c-2.01-1.67-3.5-4.16-5.88-5.81-2.18-1.52-3.67-3.57-5.47-5.56-8.52-9.4-15.88-19.6-20.87-31.36-2.86-6.75-3.44-13.86-4.99-20.78l-2.26-10.13c-.29-.21-.57-.43-.8-.69-1.14-1.31-1.88-12.63-1.89-15.24l.8-1.78-.99-.23-4.25-41.21.68-.41-.14-3.72c-.45-.01-.99-.19-1.04-.6.64-4.67-.63-7.02-3.81-7.05l-6.38.7c-.7.01-.85-.54-.7-1.25-1.77-6.62-2.21-13.5-3.13-20.52-.84-6.4.78-8.39-.82-14.89,9,3.06,18.75,3.81,28.25,4.87Z"/>
  <path class="cls-3" d="M246.58,553.8c.38.04.96.19.96.46.34,58.92.25,120,.08,178.85l-.6.89-44.67-.03-22.98-.46c-2.15-.04-3.67-.84-5.52-1.74-6.87-3.37-11.17-9.92-10.92-17.66.12-3.79,1.08-7.47,1.97-11.29l5.22-22.64,8.78-36.83c2.07-8.66,5.11-16.47,8.29-24.72,6.46-16.79,15.22-29.17,27.59-42.03,5.55-5.77,11.44-10.63,18.03-15.11,3.39-2.31,6.54-4.42,10.38-5.97,1.23-.49,2.1-1.81,3.39-1.7Z"/>
  <path class="cls-15" d="M601.7,733.99l-.64-.15c.12-59.62.28-119.24.45-178.87l.76.14c3.85,1.06,6.98,3.65,10.55,5.81,8.33,5.03,15.36,11.17,22.25,18.07,4.82,4.84,8.44,10.36,12.6,15.75,2.07,2.68,3.55,5.31,5.28,8.22,5.99,10.07,10.32,20.67,13.63,31.97s5.93,22.17,8.54,33.6l6.5,28.51c1.4,6.13,3.48,12.06,3.45,18.19-.05,11.3-9.83,18.97-19.99,18.66-6.09-.18-11.87.06-17.98.06l-45.41.04Z"/>
  <path class="cls-26" d="M313,733.75c-.82.7-1.94-.02-3.06-.02l-32.56.04-.96-.46c0-65.49-.02-130.9-.04-196.21l22.6-9.36c4.78-1.98,9.07-4.55,13.86-6,.3.1.41.29.53.98v209.91c.01.73-.13.91-.37,1.12Z"/>
  <path class="cls-23" d="M570.07,536.49c1.74.78,2.01,1.19.82,1.23.18,65.02.22,130.03.15,195.05.92.65.28,1.09-1.91,1.33l-9.22-.23-21.44.11c-1.31,0-2.89-.4-3.89-.21l.1-211.17c.73.5,1.55.91,2.58,1.19,5.7,1.57,10.83,4.02,16.37,6.03s11.07,4.3,16.45,6.66Z"/>
  <path class="cls-20" d="M277.38,733.77c-10.07.01-20.21.24-30.36.23-.33-.44-.42-.84-.42-1.82l-.02-178.38c.83-1.12.57-2.68,1.34-4.03,6.25-3.32,12.83-5.32,19.16-8.29l9.31-4.38c.61.32.97.72.97,1.89l.03,194.78Z"/>
  <path class="cls-9" d="M575.84,538.8l19.39,8.46c2.04.89,4.13,1.75,5.12,3.56.12,1.6.56,3.06,1.33,4.36l-.38,6.42c.08,57.42,0,114.82-.25,172.19-10.12.24-20.23.13-30.31-.33.35-65.52.45-130.93.3-196.24,1.67.34,3.27.86,4.8,1.57Z"/>
  <path class="cls-18" d="M497.17,508.64c.55.17,1.33.73,1.87.98-4.57,14.12-19.5,30.87-32.8,37.73-26.33,13.59-53.32,14.95-80.19,1.89-16.85-8.19-30.9-21.85-36.76-39.49,3.74-2.13,7.26-4.87,10.28-8.13,6.37-6.88,7.71-15.79,7.49-24.57.07-1.36.71-1.2,1.68-.5,18.27,19.16,45.14,37.67,72.19,41.55,18.81,2.7,37.6-1.45,54.2-10.16l2.04.69Z"/>
  <path class="cls-27" d="M481.38,470.26c-.52,1.2-.51,2.32-.46,3.84l.29,8.59c.42,12.47,6.47,19.5,15.96,25.94-1.53-.16-2.54.6-4.1,1.38-17.51,8.76-37.56,12.23-56.95,8.22-22.56-4.66-45.87-19.72-62.57-35.17-1.54-1.42-5.67-7.06-6.5-6.01-.06-2.22-.08-4.43.07-6.66,7.1,5.9,18.72,16.06,27.45,19.46,17.57,6.83,37.13,7.48,55.08,1.52,9.01-2.99,16.35-8.41,23.43-14.37,2.86-2.41,5.35-4.85,8.3-6.74Z"/>
  <path class="cls-8" d="M321.07,333.47l.2,4.34-.7.32c-11.42-2.58-14.64,10.71-13.65,19.6s7.9,21.36,17.96,20.67l.89.63c.61,5.92.63,12.06,1.89,17.71-2.9.57-13.97-4.78-16.05-6.34-12.18-9.11-15.3-17.11-16.68-32.37-1.23-7.91.08-15.79,3.71-22.87,1.97-3.83,5.09-6.72,8.91-8.51.77-.36,1.34-.74,1.58-1.39.86,1.26,8.33-2.05,10.68.75,1.58,1.87.86,5.27,1.25,7.45Z"/>
  <path class="cls-11" d="M539.45,326.31c5.76,3.33,9.89,8.51,11.89,15,2.07,6.7,2.03,16.65.91,23.59-1.19,7.36-3.35,14.81-8.77,20.24-5.04,5.05-16.23,11.27-23.24,11.73l1.88-16.46,1.02-1.11c13.4-2.02,20.22-17.88,17.6-30.15-1.68-7.83-5-12.32-13.24-11.36-.71-.64-.92-1.76-.65-3.36.3-2.93.05-5.61.93-9.02,3.52-.43,8.39-.99,11.67.91Z"/>
  <path class="cls-22" d="M367.71,143.7c3.43-1.51,6.56-3.83,10.38-5.05.64-.43.81-1.58,1.37-1.88.38,5.75,1.65,11.31,2.47,17.31l5.47,40.12,2.77,20.27c.33,2.42.82,4.72.33,7.27-1.64-.01-2.78-1.41-3.19-3.01l-9.71-38.28-7.04-26.97-2.25-9.29c-.11-.45-.18-.87-.59-.48Z"/>
  <path class="cls-17" d="M480.22,143.58c-.73.15-.69.98-.88,1.75l-2.73,11.25-5.92,22.82-6.53,26.15c-1.22,4.88-2.09,9.61-3.87,14.25-.28.72-.99,1.08-1.38,1.38-.29.22-1.54-.05-1.49-.62.86-10.14,2.4-19.87,3.76-30.06l4.45-33.45,1-6.75c.62-4.2,1.24-8.28,2.3-12.14,2.64,1.16,9.64,3.37,11.29,5.41Z"/>
  <path class="cls-10" d="M575.84,538.8l-4.72-1.17c.19,3.83-.67,6.99.39,10.73v182.31c0,.85-.52,1.74-.03,2.22.38.37,1.17.76,2.1.76l27.2-.05.06-172c0-2.82,1.1-4.99-.21-7.69-.43-.9-.23-2.2-.28-3.08,1.06,1.31-.27,1.7,1.93,4.28-.46.31-.51.68-.51,1.63l-.07,177.25-32.58.12c.44-.27.91-.33,1.21-.59.51-.45.25-1.39.25-2.36l-.02-192.62c0-1.14.58-1.61-.49-2.04,1.86.82,4.21.81,5.77,2.3Z"/>
  <path class="cls-13" d="M541.85,307.17c-.09,1.12-.58,1.06-.66-.1.11-.57.56-.5.66.1Z"/>
  <path class="cls-24" d="M514.01,295.04c1.86,3.67,2.94,7.71,4.25,11.58.36,1.75.06,2.8-.89,3.14l-20.1,4.48-1.04-.41-1.69.2c-12.62-8.2-26.18-8.44-40.51-5.37-2.88.62-2.85,1.89-2.74,4.43.54,1.47.45,2.52-.25,3.16.4,1.2-.41,1.39-1.52,1.39-16.44.22-32.98,0-49.64-.66l-2.49-1.22-.87-.73c1.38-5.46-.12-5.83-5.47-6.76-12.34-2.14-23.34-2.4-34.36,3.91l-1.6-.33c-1.59.44-3.32.28-5.21-.49-6.65-1.03-13.12-2.5-19.42-4.41-.31-.45-.4-1.02-.27-1.72l3.27-10.52c27.4,3.07,87.68,5.94,114.78,4.39l55.56-3.2c3.65-.21,6.88-1.03,10.23-.87Z"/>
  <path class="cls-4" d="M454.28,267.55c-29.54-.97-70.17-.68-98.9,3.38-10.2,1.44-19.93,2.99-29.99,5-1.34.27-2.54-.24-2.86-1.22-.45-1.35.2-2.26,1.54-2.97,7.02-3.73,30.64-7.19,39.66-8.38,51.12-6.74,109.85-5.34,159.76,7.72,1,.26,1.85,1,2.12,1.6.32.71.48,2.55-.32,2.96-1.06.54-2.37.3-3.51.08-11.76-2.26-23.21-4.3-35.2-5.54-10.92-1.13-21.06-2.25-32.3-2.62Z"/>
  <path class="cls-16" d="M355.07,311.87l.26,1.01c-3.49,2.08-10.17,7.8-2.25,8.34,8.39-4.24,17.31-7.09,26.78-5.99l13.14,2.22,1.98-.37c.77-.95,1.56-1.39,2.39-1.31,5.15.57,10.33.87,15.83.88l34.98.04c1.14,0,2.1.12,2.85-.43.86.13,1.77.55,2.74,1.25l1.96.19c11.01-3.21,22.09-4.21,32.76.69,7.73,4.27,10.91,3.81,9.56-1.37-1.32-1.09-1.92-2.14-1.82-3.17.64-.68,1.7-.8,2.76-1.03l18.5-4.05c.54-.75.17-1.68.78-2.13.95,2.81,2.55,5.53,2.65,8.85.17,5.69-.07,11.29-.47,17.03l-1.63,23.21c-.88,12.49-4.76,24.37-8.98,36.11-5.48,15.21-17.23,26.47-31.58,34.33-2.06-8.22-5.2-18.97-13.9-22.46-7.08-2.47-14.18-4.65-21.57-6.14-3.67-.74-6.94-.33-10.52.64-11.45,3.09-6.37,2.39-17.7-.32-3.74-.89-7.04-.69-10.73.13-6.75,1.51-13.33,3.02-19.74,5.59-9.21,3.7-11.9,13.36-14.58,22.3-7.75-4.52-14.97-9.35-20.66-16.07-4.77-5.64-8.69-11.95-11.26-18.97-9.39-25.67-9.1-42.32-10.66-68.82-.36-6.23,1.51-11.29,3.23-16.8.68,1.2,1.88,1.6,3.32,1.89l9.98,2.02c4.03.82,7.97,1.32,11.6,2.71Z"/>
  <path class="cls-29" d="M436.81,439.91c-8.42,1.47-16.52,1.28-24.69-.16-1.13-.2-2.23.43-2.69,1.08-1.85,2.58,2.55,6.1,4,8.38-3.18,4.64-8.58,5.82-13.87,3.81-9.42-3.58-16.96-12.56-17.89-23.04-.45-5.06,2.55-9.98,5.19-13.73,1.22-1.73,3.09-2.11,5-2.4,11.08-1.71,21.91-4.8,33.29-4.53,10.61.25,20.71,2.97,31.11,4.33,6.75.88,10.06,12.37,10.01,14.98-.22,11.21-8.24,21.27-18.6,24.72-5.31,1.77-10.99-.22-13.32-4.99,2.65-1.8,5.62-4.95,4.47-7.3-.22-.44-.91-1.33-2.02-1.14Z"/>
  <path class="cls-5" d="M522.13,380.41l4.72-45.98c0,.82.02,1.69.42,2.48,5.02-.34,9.07-.03,11.84,5.07,4.65,8.6,3.86,18.47-.62,27.06-3.4,6.53-9.23,10.53-16.36,11.37Z"/>
  <path class="cls-2" d="M325.76,379.04c-2.91,1.64-6.24-.24-8.88-2.03-14.52-9.8-13.23-32.13-5.05-38.3,2.56-1.93,6.1-2.35,9.14-1.36-.06-1.43.31-2.71.1-3.87l4.7,45.57Z"/>
  <path class="cls-21" d="M397.37,315.77c-3.26,6.5-10.36-1.23-26.39.49-6.24.67-11.68,3.12-17.18,5.71-1.95.92-4.2-.08-4.94-1.51-.93-1.82-.22-3.61,1.36-4.83l4.85-3.76c5.66-2.55,10.7-5.21,16.86-5.73,7.97-.66,15.85.11,23.48,2.22,3.89,1.08,2.14,5.4,1.96,7.41Z"/>
  <path class="cls-7" d="M496.23,313.84c1.37,1.15,2.65,2.25,3.05,3.56.42,1.4.18,3.34-1,4.28-1.31,1.05-3.22.6-4.63-.04-13.97-6.33-20.85-7.51-36.52-3.21-2.14.59-5.21.21-6.1-2.17-.78-2.11-1.16-5.31-.14-6.93,1.19-1.88,4.1-1.63,6.05-2,7.27-1.4,14.45-2.08,21.73-.78,6.52,1.17,11.96,4.4,17.57,7.3Z"/>
  <path class="cls-1" d="M479.72,336.52c1.91,6.72-.43,18.51-9.18,18.1-2.65-.12-5.23-1.71-6.78-4.13-1.98-3.08-1.99-6.48-1.9-10.12.13-5.3,3.66-10.48,9.4-10.71,3.98-.16,7.43,3.17,8.47,6.86Z"/>
  <path class="cls-28" d="M375.54,354.54c-6.93-.82-9.28-11.54-7.25-17.84,1.22-3.79,4.3-6.9,8.4-6.87,3.7.02,6.85,2.55,8.26,5.91,1.76,4.2,1.72,8.94-.03,13.09-1.56,3.69-5.05,6.23-9.37,5.71Z"/>
  <path class="cls-14" d="M415.17,392.57c-3.63-1.25-11.11-3.46-10.64-7.52.13-1.1,1.23-3.03,2.86-2.7,9.9,1.98,13.83,5.75,25.11,2.14,5.22-1.67,9.01-3.97,10.39-.58,1.82,4.47-5.62,6.6-8.75,7.89-6.21,2.56-12.6,2.96-18.96.78Z"/>
  <path class="cls-25" d="M453.13,421.32c-16.85,12.96-41.45,12.7-57.97.27-1.12-.84-2.31-1.87-2.12-3.61h61.57c.73,1-.26,2.4-1.49,3.34Z"/>
</svg>