<?xml version="1.0" encoding="UTF-8"?>
<svg id="Layer_1" xmlns="http://www.w3.org/2000/svg" version="1.1" viewBox="0 0 988.1 988.1">
  <!-- Generator: Adobe Illustrator 29.0.1, SVG Export Plug-In . SVG Version: 2.1.0 Build 192)  -->
  <defs>
    <style>
      .st0 {
        fill: #7a4734;
      }

      .st1 {
        fill: #686271;
      }

      .st2 {
        fill: #fdfdfe;
      }

      .st3 {
        fill: #f19b4d;
      }

      .st4 {
        fill: #372e29;
      }

      .st5 {
        fill: #573c35;
      }

      .st6 {
        fill: #f1a34a;
      }

      .st7 {
        fill: #f29d4d;
      }

      .st8 {
        fill: #6d6873;
      }

      .st9 {
        fill: #3369a4;
      }

      .st10 {
        fill: #22436e;
      }

      .st11 {
        fill: #593f36;
      }

      .st12 {
        fill: #3f2f28;
      }

      .st13 {
        fill: #543d33;
      }

      .st14 {
        fill: #f2cc40;
      }

      .st15 {
        fill: #3d2d25;
      }

      .st16 {
        fill: #352b26;
      }

      .st17 {
        fill: #fefeff;
      }

      .st18 {
        fill: #3e2e26;
      }

      .st19 {
        fill: #f2cf47;
      }

      .st20 {
        fill: #f09d4d;
      }

      .st21 {
        fill: #7f4937;
      }

      .st22 {
        fill: #5c4137;
      }

      .st23 {
        fill: #21426d;
      }

      .st24 {
        fill: #fffffe;
      }

      .st25 {
        fill: #f09f4c;
      }

      .st26 {
        fill: #563f35;
      }

      .st27 {
        fill: #3368a4;
      }

      .st28 {
        fill: #fff;
      }

      .st29 {
        fill: #513931;
      }

      .st30 {
        fill: #563e34;
      }

      .st31 {
        fill: #d1efed;
      }

      .st32 {
        fill: #f19d4f;
      }

      .st33 {
        fill: #986245;
      }

      .st34 {
        fill: #352b27;
      }

      .st35 {
        fill: #fefefe;
      }

      .st36 {
        fill: #352923;
      }

      .st37 {
        fill: #804936;
      }

      .st38 {
        fill: #7c4838;
      }

      .st39 {
        fill: #fb7828;
      }

      .st40 {
        fill: #814c38;
      }

      .st41 {
        fill: #fb7826;
      }

      .st42 {
        fill: #824a37;
      }

      .st43 {
        fill: #ef9d4e;
      }

      .st44 {
        fill: #986142;
      }

      .st45 {
        fill: #f2a150;
      }

      .st46 {
        fill: #3e3027;
      }

      .st47 {
        fill: #362c29;
      }

      .st48 {
        fill: #583f35;
      }

      .st49 {
        fill: #7b4636;
      }

      .st50 {
        fill: #f1ce43;
      }

      .st51 {
        fill: #fdfdfd;
      }

      .st52 {
        fill: #fcfdfd;
      }
    </style>
  </defs>
  <path class="st28" d="M832.8,816.4c-1,1-2,1.3-2.7.2-14.9-32.9-39.6-60.3-71.3-78l-3.2-4c-2.3,2.1-3.3.2-3.6-2.3-1.9-.2-3.6-1.6-4.9-4.3l-3.8-3-32.2-13.8-.3-2.2c-1.7,1.2-3.4,1.2-5,.2-14.5-6.5-29.3-12.9-44.3-19.2l-2.4-2.8c-3.5,0-11.5-2.1-10.8-6.1-1.5-1.6-1.9-4.1-1.2-7.4-.2-4.6-1.7-9-4.5-13.1,5.8-9.2,6-17.9,0-27.1,5.7-9.5,6.2-18.5-.1-27.8,6.1-9.2,6.5-18-.2-26.9,5.9-9.2,6.9-17.9.5-27.1,6-9.3,6.5-18-.2-27.1l3.7-6.7c.4-2.6,1.5-4.2,3.1-4.8l1.5-2.9c29.2-15.4,40.3-53.1,25-82l.3-3.1-1-2c3.6-6.5,4-12.7-.5-18.9,4.5-8.7,3.7-16.4-3-23.6l1.2-6.5c-.7-3.6-.3-6.2,1.3-7.8-1.3-4.1,10-7.7,11.6-3.9l7-2c14.7-.5,29.2-.4,43.7.3,1.4,5.1,1.8,10.5,1.2,16.2.2,4.9,4.1,7,11.6,6.1l2.1,2.8v74c-3.3,4.8-7.1,9.2-11.5,13.5-1.3,1.9-1.6,3.9-1.3,6.1l19.9,58.3c2.8,2.5,6.9,3.3,12.5,2.5,4.8.8,3.8,11.3,2.5,15.2-1.1,3.2-3,5.7-5.8,7.6-49.1,25.2,4.2,87.2,35.4,42.3,8.9-15.8-.2-27-6.1-3.7-18.5,30.2-59.4-2.5-33.7-26.8,13.8-7,19.5-15.5,17.8-31.4,0-1.9,1-3,2.8-3.3,5.6.9,9.8.1,12.8-2.4l19.7-57.7c.5-2.3.5-4.5-1-6.5-4.2-4-8-8.1-11.6-12.5v-74.9c0-2,.9-2.9,2.9-3.2,6.3,1,9.9-.5,10.7-4.5l.2-16,2.8-2.3,75.1-.3c2.8-.4,3.4-2.2,3-4.8-16.1-20.1-32.9-39.6-50.4-58.6-17-.4-34.1-.5-51.3-.4l-127.7-32.5-.6-2.1-1.2-.8c0,1.7-.6,1.7-1.5-.1l-3.5-3.5c-14.8-37.2-41-70-76.5-89l-2.6-3.4-2,1.1c-3.7-2.6-7.7-4.6-11.8-6.1l-.9-2.1-2.2-1.4c-.3-1.9-3.9-11.5-4.4-11.8-14-6.8-38.6-11.2-54.2-11.2-19,0-37.5,3.7-54.8,11.5-3.2,1.4-5.5,7.6-6,10.9l-2,1.4c0,1.6-.4,2.1-1.2,3-.4.4-9.6,4.9-10.9,5.4l-2.4-.6c0,2.2-1.8,3.6-5.4,4.2-12.4,8-24,16.9-34.9,26.6l-1.8-1.3-2.2,1.4-90.7-23.4-1.9-.8c-8.4-19.6-34.9-13.7-34.7,7.4-47.4,40.1-95.1,80-143,119.6-.5,26.6-.6,53.2-.4,80l2.1,3.5c18.8.6,37.7.8,56.8.5,2.5-.4,3.2-.6,3.9-3.3v-72.9c0-1.6,1.1-2.6,2.6-3.1,14.2-.4,28.4-.2,42.4.6l1.1,1.9v97.5c.1,0,.9,1.9.9,1.9,4.1,1.9,8.9,2.6,14.2,2.1l1.2,2.1.5,1.5v332.8c1.2.4,1.6,1.1,1,2.2-30.4,20.8-52.3,50.4-64.5,85.1l-3.4,3.8C36,705.4-10.3,505.2,57,328.1,124.1,151,291.5,32,480.9,26.7s363.2,104.1,440.3,277.1c77.1,173,42.2,375.5-88.4,512.7h0Z"/>
  <path class="st41" d="M386.1,680.1l4,4.7c35.1,73.2,70.1,145.7,104.9,217.6l2.5,8.2c1,16.6,1.4,33.2,1.1,49.9l-1.9,1.1c-48.2.3-96.1-6.9-142.1-21.3l-1.9-1.5c.1-83.6,0-167-.4-250.2l2.6-2.7c-.9-2.9,6.5-5.5,8.5-4.6,2.4-3.2,10.2-6,14.4-6.3,3-.2,9.6,1.2,8.4,5h0Z"/>
  <path class="st39" d="M648.2,681.1c2.6,2.9,8.4,2.7,10.8,6.1l1.8,1.2c.2,80.4.2,160.9.2,241.3l-1.9,1.8c-45,17-92.3,26.9-140.3,29.4l-3.8-.9c-.6-16.8-.3-33.7.8-50.5l1.7-5.4,107.4-223.7,2.2-.2c-1.7-5.7,5.8-5.5,10.2-5,2.4.2,11.2,3.1,10.9,5.8h0Z"/>
  <path class="st27" d="M402.7,671.7c1.5-.5,2.3.9,2.5,4,37.2,80.9,165.9,83.2,202.6-1.1,0-4,.3-4.1,4.1-3.1,1.1-2.6,4-1.7,3.9,1.1,1.3-2.8,7.4,1.1,9.7,2.7,3,1.5,3.6,3.2,1.7,5l-70.5,146.3-35.1,73.3c-2.5,5.3-4.7,10.5-4.7,16.5v43.2c-.1,1,1.6,1.2,1.9,1.5-7.4.4-14.8.6-22.2.7l-.2-42.3c0-7.4-1.9-14.1-5.2-20.6l-14-28.4-24.9-51.9-42.1-87.1c-8.4-17.4-17.2-33.8-24.1-51.3-3.6-3.7,7.9-9.2,10.7-6.6.2-3.2,4-4.5,5.8-1.8h0Z"/>
  <path class="st31" d="M354.9,686c-1.7,4.3-.5,8.6-.5,13.9v240.5c-17.2-5.4-34.1-11.8-50.6-19.2l-1.9-1.8v-202.9c-.8-3.7-.1-6,1.8-7.1-.2-2.3,1.8-4.2,5.9-5.4v-292.2c-.1-2.3.7-3.3,2.9-2.2l1.9.9v291.2c23.9-10.2,35.8-15.3,35.8-15.3l4.8-.3h0Z"/>
  <path class="st31" d="M710.8,709c.2,65.5.2,131.6.2,198.3l-1.8,1.8c-16.3,8.4-33,15.9-50.2,22.4v-244.3c8.2,2.5,16,6.4,24.2,10l23.2,10.2,4.3,1.6h0Z"/>
  <path class="st27" d="M251.2,736.8c2.2-2,4.8-3.5,7.7-4.6l1.7,1.6,1.9.7s.4,54.7,1.1,164.2l-1.9,1.2c-31.7-18.1-61.1-39.9-87.8-64.9,12.7-37.1,33-67.4,66.4-89.9v-335.5c1.6-2.3,2.4-1,2.9,1.5v329.3c1.9-.1,3.9-1.3,5.8-3.4h2.1c0,0,0,0,0,0Z"/>
  <path class="st39" d="M303.8,921.2c-14.4-6.4-28.4-13.5-42-21.3l-1.1-166.1c-3.2-1.9,1.1-6.8,3.1-8.9,2.3-2.5,6-6.3,9.2-4.2-.3-3.2,8.3-6.1,10.6-4-.2-.7-.4-1.8,0-2.1,1.2-.8,14.1-6,15.4-6.1l2,1.3c.2-2.8,1.2-2.7,2.7-.5v211.9c.1,0,.1,0,.1,0Z"/>
  <path class="st41" d="M710.8,709l32.1,13.7c4.4,1.9,7.4,5.6,9.1,9.6,1.4,1,1.6,2.8.6,5.1-.6,48.4-.8,96.9-.4,145.5l-1.2,1.8c-13.5,8.9-27.4,17-41.7,24.5l-.4-198.1c0-1.1.2-1.6.6-1.9s.9-.2,1.3-.2h0Z"/>
  <path class="st9" d="M755.7,734.6c32.7,17.5,58.9,44.1,74.7,78.4.7,1.5,1.1,2.7,2.4,3.4-23.9,25.1-50.5,47.5-79.3,66.7l-1.3-.6c-.2-48.4,0-96.6.4-144.5.3-4.1,1.3-5.2,3.1-3.4h0Z"/>
  <path class="st8" d="M755.7,734.6c-1.4-4.2-2.6,13-2.6,11l.2,57.5v16.3c-.1,10.3,1,20.1,0,30.3-.6,6.5-.1,12.8,0,19.1,0,4.8-1,9.4,0,14.2-.8.5-1.6,1.1-2.5,1.6l.2-146.7c0-2.4,1.3-3.9.9-5.7,1.5.2,2.4,1.7,3.6,2.3h0Z"/>
  <path class="st14" d="M568.5,158c.7.1,1.9.5,1.8.9-4.7,36.6-10.9,77-16.5,111.5,2.2-3.3,3.6-7.3,4.4-11.9l23-92.9,2.1-.6c16.5,7.5,30.7,19.3,43.8,32.7,17.6,18.1,29.8,40,38.9,63.1,2.6,1.1,4.9,7.7,5.4,10.5l-1,2,1.5,1.3c2.2,12,3.4,18,3.4,18l-.9,1.8c1.3.8,1.9,2.3,1.6,4.5l2,7.8-1.8,2.1,1.8,3.5c-.9,10.3.2,19.7,3.3,28.2,4.5,3.1,9.1,6,14,8.6v2.3c1.1.4,1.7.7,1.8,1.8.6,6.3-6.4,8.6-11.3,9.3-4.1,0-8.6,1.2-11.6,3.9-.7.6-1.5,1.2-2.3,1.7-4.8,2.9-25.5,5.7-32.5,6.4-.8,0-1.7,0-2.6-.3s-1.8-.6-2.7-1c-2.1.7-4.1,1.4-6.2,1.9s-4.2,1-6.3,1.3c-79.5,8.2-161.5,5.7-237.1-.2l-1-2c-.8.4-1.5.8-2.3,1.1-5.7,1.9-34.7-5-42.1-7.5-3.9-2.2-8-3.9-12.5-5.3-7.5-1.1-11.9-5.8-7.7-13.3.9-1.6,3.2-3.6,5.1-3,.7-2,2.5-3.6,5.3-4.9,1.5-2.4,3.3-3.7,5.2-3.9-.6-5.3-.2-10.8,1.2-16.6l.9-13.8,1.9-1.7c-3-2-1.1-8.5,1-10.8-.7-4,.7-10.1,1.8-14.6,4.3-17.2,8.5-31.4,17.1-47.1,5.6-10.2,12.9-22.1,21.5-29.3-.4-1.6.4-3.1,2.4-4.4,1.6-3,3.7-4.5,6.1-4.5,1.9-.7,3.8-2.3,5.6-4.1,8.8-8.9,19.3-15.3,29.5-22.4,2.2-1.6,5.4-1.6,7.1-3l2,.2,26.4,105.1c-4.9-37.1-10.1-74.1-15.5-111l1.6-2.1c-.2-4.1,3.2-12.1,7.1-14,16.4-7.8,33.6-10.9,51.7-11.6,20.5-.8,40.2,4.4,59.3,11.6,2.7,4.8,4.8,9.9,5.5,14.7h0Z"/>
  <path class="st33" d="M634,373.2c.7,1.7-.2,2.2-1.4,3-.6,9.2,3.3,14.8,9.7,20.9-3.7,7.9-5.4,18.2,4.7,21.3,2.9-7,11-4.9,16.9-3,4.3,1.4,13.5,4.6,12.1,9.9,7.2,10.8,9.2,24.6,8.1,37.4-2,22.5-15.3,41-34.9,50.7l-1.2,2.2c-3.2.6-6.2.9-9.1.8-3.6,18.3-11.4,42.8-22.3,57.9l-2.2.7c0,2.8-1.7,5.6-4.6,6-5.6,8.5-12.8,16.6-21.6,24.2h-2.4c0-.1-1.6,3.1-1.6,3.1-21.5,18.8-47.6,35-77.1,35.2-31.1.2-55-17-78.3-35.2l-1.4-3.3-2.1.7c-9.3-7.3-16.9-15.8-22.9-25.5-2.8,1.1-4.4-2.6-4.3-5.2l-2.2-.8c-10.3-14.8-19.7-39.8-22.1-57.7-2.4.5-9.4-.2-10.7-3-1.2.4-2.4.5-3.6.2-7.9-2.4-20.8-17.8-25-25.2-5.6-10-8.5-21.4-8.1-32.9.2-6.7,2.9-23.1,6.9-28.1.8-1,1.9-1.5,3.1-1.9,1.8-4.8,10.4-9.5,15.6-10.8s11.1-2,13.4,4c9.7-2.4,10.4-13,6.2-20.6l.3-2.1c6.4-5.5,9.5-12,9.5-19.6l1.8-1.8,52,3.4c66.6,4.4,132.8,2.6,198.7-4.4h0Z"/>
  <path class="st10" d="M388.2,194.6c-2.6,3.1-4.8,7-8.4,8.9l-1.1,1.7-82.2-21.4-5.3,9,19.8,99.5,27.1.3,1.4,1.9c1,3.4-1.1,7.4-1,10.8l-1,2-15.4.7,11.8,25.4.5,4.1c-1.9,4.3-5.8,7.5-10.5,8.8l-2.2-.2-14.3-29.9c-1.2-.9-28.5-.3-29.5.8-.9,13.8-1.2,27.7-.7,41.8l.9,1.7c14.2.9,28.6,1,43.1.4l5.2,1.6c2.5,1.5,5.3,2.5,8.6,2.9,6.8,1.1,5.6,10.2,4.9,15.5-3.3,4.6-5,9.4-5.2,14.4,1.9,4.8,3.4,14.4-2.1,16.3-5.7-.6-11.5-.7-17.4-.4l-2.9-1.7c-.8,0-1,.7-1,2.2v293.7c-3.4,1.3-5.7,2.4-7.8,3.9-.8.5-1.9.2-2.7.5l-1.9-.9v-50.4c-.1,0-39.5,33.9-39.5,33.9,8,7.5,16.2,14.8,24.6,22l-.6,2.3-10.6,4-2.8.2-16.8-13.2-.2,27.8-1.9,1.1c0,2.2-8.5,7.1-9.8,7.1v-333.1c0-1.2-.7-1.2-1-1.2-5.7-1.2-18.1,1.9-18.1-6.9v-97.4c0,0-42.3.1-42.3.1v74.4c-.5,3.1-2.6,4.9-5.7,4.9h-54.8c-3.1,0-6-2.3-6-5.8v-75.8c0-1.6-.3-4.7,1.2-5.9l142.4-118.5c-.4-10.4,6.3-18.3,15-20.2,9.8-2.2,18.8,2.5,22.6,12l93.6,24.2h0Z"/>
  <path class="st23" d="M667.4,260.9l1.2.8,49.3,12.3,79.3,20.5h49c2.8,0,4.7,1.2,6.4,3.3l47,55.3c1.5,1.8,1.1,5,.3,6.4-.8,1.5-2.7,2.6-5,2.6l-75.4.2-.2,15.7c0,2.8-1.3,5.8-4.2,6.5-3.1.7-6.1,0-9.5.6v76s9.8,9.6,9.8,9.6c3.5,3.4,3.9,7,2.3,11.5l-19,55.6c-2.2,6.5-10.9,3.3-15.8,4.4l-.2,10.4c-.4,18-16.1,19.8-21.5,26.6-6.6,8.2-5.2,20,1.9,26.9,7.1,6.8,18.4,7.9,26.4,1.5,11.3-9,6.3-22.9,15.5-21,9.9,2-.3,34.8-25.6,36.5-17.2,1.2-32.5-12.9-33.6-30-.9-13,7-23.7,17.8-29.7,9-5,9.2-10,8.5-21.1l-10.6-.2c-2.8,0-4.4-1.9-5.3-4.5l-18.8-54.7c-1.7-4.9-1.2-8.7,2.4-12.5l9.5-10v-75.4c-3-.6-5.3-.2-7.9-.5-9.5-1-3.9-15.7-6.1-22.5l-49.6.5c4.1-2.9,9.8-3.2,9.4-11.1l2.1-1.7,9.4-.3-29.1-37.5-1.4-3.1c.2-4.5-3.6-9.6-1.9-14.4l.9-1.9,60.4-.4-64.6-16.6-.7-2.1c-2.5-3.6-2.8-8.4-4.4-12.5h1.5c0,.1,0,.1,0,.1Z"/>
  <path class="st3" d="M221.3,731.8c-30.9-50.2-47.4-106.8-49.4-165.6-1.7-50.5,8.8-103.3,30.5-148.5,1.2-2.6,4.6-2.5,6.5-2.1,1.9.4,4.7,3.4,3.3,6.2-45.8,96.6-38,211.1,17.1,302.2,1.7,2.8,1.6,5.2-.1,7.2-1.5,1.7-6.3,3.4-8,.6h0Z"/>
  <path class="st34" d="M649.3,513.2c-.1,4.2-2.3,7.8-5.2,11.5,7.2,8,6.8,18.8.3,27.1,6.8,8,6,19-.5,27.1,7,7.6,7.1,18.4.3,27,6.8,8.5,6.3,19.1.2,27.7,6.4,8.3,6.3,18.7,0,27.1,5.2,5.9,5.4,13.3,4,20.5l-10.5-3.7c-3.7-1.3-8.9-.5-10.6,2.9.8-3-12.1-7.9-11.4-7.7-.8-.2-.8-.5,0-.8l.8-1.1c-1.6-1-1.5-2.7.4-5.1-6.1-7.2-6.6-20,.2-26.5-6.9-7-6.2-19.7-.3-27.4-6.4-8.2-6-18.6-.6-27.2-3.1-3.6-3.7-6.8-1.9-9.7,1.2-4.4,4.9-8.7,7.2-13.2,7.6-14.7,12.3-30,16-46.4,3.8-1.2,8-1.2,11.6-1.9h0Z"/>
  <path class="st32" d="M899.2,556.5c-1,78.8-21.8,146.5-63.5,213-1.8,2.9-4.1,4.5-7.3,3.5-2.4-.7-5.2-4.5-3-7.8,41-62.4,62.9-134.8,63-209.5,0-3.3,3.1-5.2,5.1-5.3,3.2-.1,5.7,2.3,5.7,6.1h0Z"/>
  <path class="st50" d="M182,756.2c2.3,3.7,3.9,6.5,5.5,9.8,1.2,2.7-.4,5.8-2.6,6.8-2.5,1.1-5,.3-6.8-2.5-35.6-55.3-57.4-118.1-62.6-183.9-.9-11.4-1.4-21.4-.7-32.4.1-2.1,2.7-3.8,4.3-4,8.2-.8,5.5,18.4,6.2,26.6,1.9,24.9,5.1,49,11.4,73.1,9.9,37.9,24.9,72.8,45.3,106.4h0Z"/>
  <path class="st36" d="M674.1,366.4c.7,4.6,1.3,9.2-.8,14,7.1,6.5,8,15.9,3,23.9,5.8,6.4,3.7,14.5-.2,20.9-4.6-7-16.5-9.6-23.4-9.8-3.4.9-2.8,4.1-5.5,5.1-5-.8-8.2-5.2-9.3-8.8-1.6-5.2.2-9.5,2.8-14.2-6.3-4.8-10.4-10.7-9.8-18.5,0-1.2-.6-2.8,0-4.1.4-.9,2-.8,3-1.6,13.5-1.5,26.8-4.5,40.1-6.8h0Z"/>
  <path class="st45" d="M747.4,245.6c-33.8-28.1-70.3-50.1-111.6-64.6-3-1.1-3.5-4.7-2.9-7.2.7-2.7,4.4-4.3,7.8-3.1,41.6,15.1,79.6,38,113.5,66.4,2.2,1.8,1.7,5.2.7,6.9s-4.9,3.7-7.6,1.5h0Z"/>
  <path class="st25" d="M430.3,165c4.4-3.5,9.9-4.7,14.5-7.7l12.9,90.6c1.2,8.1,2.4,15.4,2.9,23.2,0,1-1.4,1.3-2,1.2-.8,0-1.9-.9-2.2-2.4l-26.1-105h0Z"/>
  <path class="st20" d="M583.3,165l-17.9,71.4c-1.8,7.2-6.9,32-9.7,35.5-.5.6-3.5.4-3.3-.7l16.2-113.3c5.6.7,10,4.9,14.8,7h0Z"/>
  <circle class="st7" cx="124.6" cy="486" r="21.5"/>
  <circle class="st43" cx="888.5" cy="474.9" r="21.4"/>
  <path class="st19" d="M792.5,730.5c-1.8,3-5.9,2.6-7.7,1.8-2.2-1.1-3-4.7-1.4-7.3,11.8-19.4,21.2-39.7,28.9-61,1.1-3,4.5-3.8,7.1-2.9,1.8.6,3,4.2,2.1,7.1-7.3,21.7-17,42.4-29,62.3h0Z"/>
  <path class="st14" d="M668.6,261.7c-.4-.1-1.5,0-1.2-.8.4,0,1.5.1,1.2.8Z"/>
  <path class="st28" d="M332.6,411.5c1.2,1.2,1.9,3.1,2.1,5.5,1.9,3,2.5,5.8,1.8,8.2-17.5,33.3-6,70.1,26.7,87.9l1.9,1.2c.7,3.5,2.1,6.8,4,10.1-6,9.2-5.4,18.1,0,27.4-3.3,4.9-4.7,10-4.1,15.3,1.5,3.3,1.8,6.2.9,8.5l2,2c.9.2,1.4.7,1.7,1.5-6.4,9-6.1,16.8-.4,26.2-1.2,3.7-2.7,7.2-4.5,10.7-.7,5.9.8,11.8,4.7,17.7-5.6,9.2-5.4,18,.2,27.2-2.5,4-4.1,8.2-4.7,12.6.5,3.5,0,6.2-1.7,7.9-2.1,2.6-5.6,3-8.5,4.6-13.5,7.3-28.1,12.4-42.5,19.2v-295.7c6.4-.7,13-.3,19.8-.3.5.3.5,2,.5,2.4h0Z"/>
  <path class="st16" d="M398.3,574.5c2.5,3.2-.5,8-2.8,10.9,6.2,7,6.2,20.2-.5,26.6,6.7,6.7,6.7,20,.4,27,6.1,7.1,5.6,18.5.8,26.5,1.4,2.2,1.4,4,0,5.1l.8,1.2c2.1,0,1.6.6,0,1.7-5,2.5-9.4,2.6-10.7,6.6-9-7.5-15.3.8-22.8,1.3-.9-7.3-.2-14.6,4.7-20.5-6.4-8.8-6-19-.3-27.2-3.9-6-7.3-13.2-4.4-19.4l4.1-8.7c-10.9-17.3.8-24.4.5-27.9l-2-2c-4.2-8.8-4.5-15.4,1.5-23.9-6-8.8-6.4-19.2,0-27.4-2.8-3.9-4.4-7.5-4.2-11.2,3.8-.3,7.6,1.5,12,1.9,3.5,16.4,8.3,32.1,16.2,46.8,2.4,4.5,5.6,8.1,6.8,12.6h0Z"/>
  <path class="st35" d="M402.6,579.7c2.7,4.1,5.2,8.2,7.7,12.4-7.1,9.5-5.2,18.1-.1,28-7.4,8.8-5.5,17.2,0,26.4-4.1,6.3-6.4,13.1-3.3,20.4l-1.1,2.2c2.3,1,2.2,1.6-.3,1.9.3,2.5-1,2.8-2.7.8-2,.3-4,.9-5.8,1.8v-1.7l-.8-1.2-2.1-5.3c5.3-8.2,5.4-18-.4-26.3,6.1-8.7,6-18.7-.3-27,6.4-8,6.4-18.3.5-26.5,2.1-3.8,3.7-7.2,4.5-10.9,1.9,1,3.2,3.5,4.3,5.2h0Z"/>
  <path class="st35" d="M616.7,670.6l-.8,1.1c0,.3,0,.6,0,.8l-3.9-1.1c-1.3-.2-2.5,0-3.6.5-.8-1.7-.9-3.2-.2-4.3-1.5-1.8-1.8-4.3-1.1-7.6-.2-4.8-1.5-9.5-4-13.9,5.1-8.9,5.5-17.4-.2-26,5.4-9.4,6.4-18.4.2-27.6,2-4.3,4.3-8.3,7-11.9.5-2.5,2.9-4.7,4.6-6,.4,3.4,1.8,6.6,4.4,9.9-6.5,8.2-6.3,18.8.3,27-6.3,8.3-6.8,18.8-.3,27.5-6.3,7.8-6.2,18.2-.1,26.1-.1,2.3-1.7,3.7-2.2,5.5h0Z"/>
  <path class="st1" d="M611.9,671.5c-1.1,0-2.3,0-2.8.8-.6.9.1,2.1-.3,3.2-9,21.6-25.7,38.3-46.2,49.4-16,8.7-33.6,12.5-51.8,13.5-12.7.7-25.3-1.9-37.7-4.8-21.3-5.1-48.4-22.8-59.9-41.7l-9.4-15.5c-.8-1.4.3-3.8-1.1-4.6.9-.1,1.7-1,2.7-.8,2.4,2,4.2,5,5.2,8.9,40.6,74.3,159.1,72.2,194.1-5.4,0-3,.7-5.1,2.2-6.4.2-.9.6-1,1.2-.2-.4,2.4,2,3.2,3.9,3.8h0Z"/>
  <path class="st51" d="M272.9,720.8c-5.2,2-11,7.7-12.3,13-3.3,0-7.5,5.2-9.4,3l.2-33.2,21.5,17.1h0Z"/>
  <path class="st28" d="M301,709.9l-17.4,7c-2.2-4-27-22.1-26.2-24.1.4-1,1-1.7,1.9-2.5l41.8-35.9v55.5s0,0,0,0Z"/>
  <path class="st28" d="M379.7,203.5c.5.9,0,1.8-.9,2.9-20.2,23.8-33,52.3-37.4,83.3-.3,2.1-.9,3.8-2.1,4.7h-30s-20.3-102.5-20.3-102.5c2.8-3.4,4.6-6.2,6.1-10.5l84.6,22.1h0Z"/>
  <path class="st6" d="M643.4,347.6c-58.9-12.6-108.7-12.7-168.8-11.7-35.1.6-69.2,4.7-103.4,11.7-2,.4-4-.5-4.4-2.1-.4-1.4.4-3.2,2.4-3.9,9.1-3.1,17.9-5.3,27.6-7.1,65.8-12.6,153.4-13.1,219.1,0,5.7,1.1,33.2,5.7,31.4,11.3-.3.9-2.2,2.3-3.8,1.9h0Z"/>
  <path class="st36" d="M383.4,374.2c1.4,18.9-12.4,19.4-9.3,24.5,2.2,3.8,3,9.8.9,14-1.5,3.1-4.8,7.5-9.6,7.5-2,0-2.4-4.1-4.2-4.5-7.9-1.2-15.3,2.8-21.1,7.8-1.2,1-2.1,1.8-3.4,1.7-1.9-3.8-5.6-9.2-3.9-13.7,6.5-17-6.6-11.8,5.1-30.2,1.5-3.5.6-8.9,0-12.6-.8-5.1-10.7-2.2-11.3-6.4,18.6,5,37.6,10.5,56.9,11.8h0Z"/>
  <path class="st28" d="M323.9,346.2c-.6,1.6-2.3,2.5-3.5,4.1-2.8,3.6-.9,8.3,3.2,10,1.1.5,2.8,1,3,2.1-15.4,1-30.8.2-46.7.5-2.8,0-4.7-2.7-4.5-5.1v-38.4c0-3.5,2.2-5.5,5.6-5.5l28,.2,15.1,32h0Z"/>
  <path class="st35" d="M674.3,294.4c-1.4,1.7-5.7-22.3-4-21.1l80.3,20.6-76.3.5h0Z"/>
  <path class="st24" d="M695.2,351.4c-8.5-7-17.2-5.5-18.1-17.6-.7-8.8-1.3-17-.9-25.1.7.3,1.8.5,2.5,1.4l31.7,40.7c-5.6.6-10.6,1-15.2.5h0Z"/>
  <path class="st35" d="M338.4,305.2c.4,5.9-1.5,26.5-4,32.2-.5-.5-1.2-1-1.7-2l-13.8-29.6,19.5-.6h0Z"/>
  <path class="st42" d="M585.9,604.7l1.8,2.1-1,22.9c.6,15.9,5.2,27.5,19.4,36,.5.5-.2,1.7-.9,2.3,0,3.8-5.7,6.4-9.1,7.8-62.1,26.9-119.9-5.5-165.6-47.5l-.7,10.2-2.2,1.7c-.7-.2-1.9-.5-1.9-1.1-.5-9.6-.3-21.9.2-31.6l1.7-2.9c1.9,1.8,4.3,2.8,6.7,4.7,12.8,10.5,30,22.2,45.7,27.5,37.8,12.7,72.3-3.5,100.5-28.1,1.8-1.6,3.7-3,5.5-3.9h0Z"/>
  <path class="st35" d="M552.7,546.6c-8.6,7.9-18,13.1-29.3,15.4-24.9,5.1-53.7-.7-69-22.5-.9-1.3-1.8-2.8-.9-4.2h106.8c-.5,4.9-4,8-7.6,11.3h0Z"/>
  <path class="st47" d="M427.6,604.5c.9,7.8,0,15.6,0,23.9v11.6c2.9,4.8-2.4,13.5-5.6,17.9-1.9,2.5-12.3,13.8-15.1,12.2-.5-.3-.9-.7-1.2-1.1-3.7-7.3-2.9-16.2,2.7-22.7-6.3-8.9-7.5-18.8,0-26.5-5.8-9.5-7.4-19,.1-27.8-2.9-4-5-8-6-12.3l12.9,13.7,12,11.2h0Z"/>
  <path class="st4" d="M609.9,580.6c-.9,4-2.2,7.7-5.3,11.9,6.6,8.1,5.9,18.8-.1,27.6,5.8,7.6,6,17.4.2,26.1,4.5,6.6,5,14.2,3.3,21.5-.4,0-.8.2-1.2.2-.1,1.9-1,1.9-1.6,0-.2-.9-1-1.5-1.9-2-23.2-14.2-18.7-38.7-17.5-61.2,1.7-2,3.3-4.1,5.7-6,6.8-5.4,12.1-12,17.5-18.8.3,0,.5.6.7.8h0Z"/>
  <path class="st38" d="M371.6,491.6c-12.6-1.3-22.2-10.4-25.8-22.2s-3-23.4,4.1-33.1c3.6-4.9,11.2-6,16.1-2.6,1.1,19.2,2.6,37.2,5.6,57.9h0Z"/>
  <path class="st49" d="M666.4,440.6c8.4,21.1,0,46.6-24.2,51.5l3.7-36.1c.7-7,0-16,2.5-22.4,6.2-5.3,15.2.1,18,7h0Z"/>
  <path class="st15" d="M440.1,400c-12-.9-23.8,2.8-33.3,9.6-2,1.4-3.7,1.3-5.2-.4-4.7-5.6,19.3-19.1,34.6-19.9,11.6-.6,24.2.7,34.3,6.2,3.2,1.8-1,9.4-4.1,9-9.2-1.2-17.2-3.8-26.3-4.5h0Z"/>
  <path class="st18" d="M606,409.1c-10.6-7.9-23.6-11-36.3-8.7l-22.2,3.9c-3.6.6-7-5.9-5.3-8.8,24.3-9.8,48.2-9.1,68.6,8.3,2.2,1.9,2.6,4,1.4,5.4-1.9,2.2-3.7,1.6-6-.1h0Z"/>
  <path class="st12" d="M452.7,448.6c-3,6-10.5,9.7-16.1,5.8-9-6.2-10.2-20.5-3.4-28.4,4.8-5.5,12.2-5.6,16.7-.2,5.1,6.1,6.6,15.3,2.8,22.8h0Z"/>
  <path class="st46" d="M580.5,450.7c-2.2,3.3-5.5,5.2-8.5,5.1-3.3,0-7.2-1.4-9.5-4.7-5.2-7.5-4.7-19,1.2-26,2.3-2.8,6.7-3.6,10-3.1,7.5,1,15.5,15.8,6.8,28.8Z"/>
  <path class="st0" d="M504.1,509.9c-8.6-.3-16.2-4.1-23-7.7-2-1-2.3-3.4-2.5-4.7-1.8-14.1,18.4,12.7,49.5-2.9,1.5-.8,3.5-3.3,5.5-1.5,1.6,1.5,1.5,7.1-.7,8.5-8.2,5.3-18.3,8.7-28.7,8.3h0Z"/>
  <path class="st40" d="M492.2,578.3c24.8,7.2,32.1-3.6,35.5.4,1.1,1.3,1.1,3.5.7,4.8-.7,2-2.7,1.4-4.5,2-11.5,3.8-23.1,3.6-34.5-.6-1.5-.5-3.2-.6-3.4-2.2s-.2-3.6,1.2-4.7c1.1-.8,3.3-.2,5,.2h0Z"/>
  <path class="st21" d="M440.2,529.2c-3.8,3.9-1.9,9.9-4,14.1-1.3,2.5-6.2-.7-6.2-3.6-.1-15,13.6-26.7,17.2-21.7.9,1.2.7,3.4-.6,4.7l-6.3,6.5h0Z"/>
  <path class="st37" d="M582.8,542.5c-.4,1.9-5.6,1.7-5.7.2-1.5-18.5-10.6-17.2-11-21.5-.2-1.6-.5-4.1,1.6-4.4,8-1.4,17.3,15,15.2,25.6h0Z"/>
  <path class="st28" d="M243,294.5l-107.3-.4,63.5-53.4,59.6-49.7c.9-.8,2.2-1.4,3.1-1,.8.3,1.6,1.9,1.3,3.5l-20.2,101h0Z"/>
  <rect class="st28" x="125.6" y="306.4" width="41.8" height="65.7"/>
  <polygon class="st28" points="296.1 546.9 251.5 585.6 251.4 509.2 296.1 546.9"/>
  <polygon class="st28" points="296 643.8 251.4 682.4 251.4 606.4 296 643.8"/>
  <polygon class="st28" points="295.7 449.8 251.5 488.6 251.5 412.6 295.7 449.8"/>
  <polygon class="st28" points="300.7 536.7 256.1 498.9 300.8 460.4 300.7 536.7"/>
  <polygon class="st28" points="300.8 633.6 256.4 596.1 300.6 557.8 300.8 633.6"/>
  <path class="st28" d="M261.6,292.1c-2.1,2.3-5.2,3.2-7.5,1.6l9.4-44.6,25.7,21-27.5,22h0Z"/>
  <polygon class="st17" points="300.5 409 300.4 439.6 265.8 409.8 300.5 409"/>
  <path class="st35" d="M290.6,258.6c-8.3-5.7-14.9-11.7-22.4-18.3,5.5-5.3,10.2-10.3,16.2-14.8l6.2,33h0Z"/>
  <path class="st52" d="M282.3,213.6c-4.9,5-9,9.2-14.5,13.8l5.8-29.7c.4-2,4.4-1.7,5.4-.5l3.3,16.4Z"/>
  <path class="st52" d="M298,294.3l-23.7-.2,20.2-16.2c1.9,5.3,2.4,10,3.5,16.5h0Z"/>
  <rect class="st28" x="757.9" y="384.7" width="39.4" height="69"/>
  <polygon class="st28" points="755.4 305.4 722.6 348.7 688.9 305.5 755.4 305.4"/>
  <polygon class="st28" points="842.2 305.4 810 348.1 776.7 305.4 842.2 305.4"/>
  <polygon class="st28" points="798.4 351.1 733.8 351.3 766.1 309.1 798.4 351.1"/>
  <polygon class="st28" points="882.9 350.9 821.7 351.3 850.8 311.8 882.9 350.9"/>
  <rect class="st2" x="746.7" y="362.3" width="62.3" height="12.5"/>
  <circle class="st35" cx="777.4" cy="484" r="12.4"/>
  <path class="st11" d="M645.4,643.7c-1.9,5.7-9.3,24.1-16.4,21.8-6.3-2,4.3-16.8,7.2-22.4,1.1-2.1,3-3.1,4.9-3,1.4,0,5.1,1.4,4.3,3.6h0Z"/>
  <path class="st22" d="M645.2,617.8c-.8,4-8.6,25.3-16.3,20.4-2.2-1.4-1-5.4,0-7.2l6.7-13.4c1.2-2.3,2.3-3.8,4.7-3.8s5.6.9,4.9,4h0Z"/>
  <path class="st48" d="M636.2,581.8c-1.4,2-6.5,4.3-7.7,1.3-1.8-4.8,2.2-10,4.2-14.1,2.8-5.5,5.1-13.2,10.7-10.2,2.6,1.4,2,3.9,1,6.5-2.3,5.9-4.6,11.1-8.3,16.5Z"/>
  <path class="st30" d="M644.5,591c-1.6,5.2-8.9,23.1-15.6,20-5.6-2.5,4.6-16,7.7-22.1,1-2,2.8-2.9,4.5-2.6,1.9.3,4.2,2.1,3.4,4.7h0Z"/>
  <path class="st27" d="M615.8,671.7c.1-.4.2-1.5.8-1.1-.1.5,0,1.5-.8,1.1Z"/>
  <path class="st5" d="M668.9,393.1c-2.8,4.8-7.4-3.9-19.9-10.3-1.5-.8-1.4-6.1.3-6.2,10.5-.2,22.7,11,19.6,16.4h0Z"/>
  <circle class="st24" cx="124.6" cy="486" r="11.2"/>
  <circle class="st24" cx="888.4" cy="474.8" r="11.1"/>
  <path class="st29" d="M368,577.6c-.9-.4-1.6-1.1-2-2,1,.3,1.9.9,2,2Z"/>
  <path class="st29" d="M376.5,562.3c3.2,7.9,12.4,20.3,6.2,22-6.7,1.8-9.6-9.7-14-16.7-1.1-1.7-2-4.2-1.4-6.4.3-1.4,3.2-2.1,5.3-2.5,1.4-.2,3.2,1.5,4,3.6h0Z"/>
  <path class="st13" d="M380.1,665.8c-3.7-1.2-4.7-4.2-6.1-6.9-2.5-5-6-9.4-6.6-15.1-.2-2.2,2.5-3.4,4.1-3.7,1.9-.2,4,1,4.9,3.2,4.5,11.4,14.4,22.4,3.8,22.5h0Z"/>
  <path class="st26" d="M375.5,615.1c2.5,4.1,11.6,19.9,7.7,23.1-1.5,1.2-4.2.8-5.6-1.1-2.7-3.8-12.3-16.8-10.2-21.1,1-2.1,6.7-3.2,8.2-.8h0Z"/>
  <path class="st27" d="M396.8,671.7c-.7.3-.6-.8-.8-1.2.6-.3.8.7.8,1.2Z"/>
  <path class="st44" d="M605.3,667.9c.5,0,1.1,0,1.6,0,2.3,11.7-12,26.3-19.5,34.8-35,39.6-101.2,43.2-144.7,14.5-7.7-5.1-14.5-10-20.4-17.3-7.2-8.9-14.5-18-16.9-29.1-.1-.6.4-1.3.3-1.9,3.6-.2,5.9-3.5,8.6-5.7,7.5-6.2,11.5-14.3,13.3-23.2,1-5.2,1-10.2,1.1-16.2l9.1,8c21.2,18.7,44.2,35.3,71,44.7s56.4,9.6,83.3-1.2c5-2,9-4.5,13-7.4h0Z"/>
</svg>