<?xml version="1.0" encoding="UTF-8"?>
<svg id="Layer_1" xmlns="http://www.w3.org/2000/svg" version="1.1" viewBox="0 0 531.8 617.1">
  <!-- Generator: Adobe Illustrator 29.0.1, SVG Export Plug-In . SVG Version: 2.1.0 Build 192)  -->
  <defs>
    <style>
      .st0 {
        fill: #f0a04d;
      }

      .st1 {
        fill: #3c2d26;
      }

      .st2 {
        fill: #d58454;
      }

      .st3 {
        fill: #593f34;
      }

      .st4 {
        fill: #f0cdaa;
      }

      .st5 {
        fill: #656273;
      }

      .st6 {
        fill: #3268a5;
      }

      .st7 {
        fill: #382f2a;
      }

      .st8 {
        fill: #7b4735;
      }

      .st9 {
        fill: #f2a24b;
      }

      .st10 {
        fill: #f09e4e;
      }

      .st11 {
        fill: #f2e4c3;
      }

      .st12 {
        fill: #3e2e27;
      }

      .st13 {
        fill: #573e34;
      }

      .st14 {
        fill: #3e2e28;
      }

      .st15 {
        fill: #f2cc3e;
      }

      .st16 {
        fill: #3368a4;
      }

      .st17 {
        fill: #5d4138;
      }

      .st18 {
        fill: #976145;
      }

      .st19 {
        fill: #7b4737;
      }

      .st20 {
        fill: #533a31;
      }

      .st21 {
        fill: #7d4839;
      }

      .st22 {
        fill: #615c70;
      }

      .st23 {
        fill: #d1efed;
      }

      .st24 {
        fill: #fb7827;
      }

      .st25 {
        fill: #fb7a29;
      }

      .st26 {
        fill: #352c29;
      }

      .st27 {
        fill: #352b27;
      }

      .st28 {
        fill: #fefefe;
      }

      .st29 {
        fill: #3369a5;
      }

      .st30 {
        fill: #824a38;
      }

      .st31 {
        fill: #3e3028;
      }

      .st32 {
        fill: #3f3028;
      }

      .st33 {
        fill: #5a4036;
      }

      .st34 {
        fill: #553d33;
      }

      .st35 {
        fill: #352a24;
      }

      .st36 {
        fill: #fb7826;
      }

      .st37 {
        fill: #d3885e;
      }

      .st38 {
        fill: #583f35;
      }
    </style>
  </defs>
  <path class="st15" d="M311.4,17.5l.5,1.5c-4,26.8-7.8,53.6-11.2,80.6h.8c6.4-25.7,12.9-51.1,19.5-76.5.5-.2,1.1-.2,1.8.1l7.8,4.3c15.6,8.6,38.4,32.9,46,51,5.8,13.7,8.7,22.9,10.9,37.9.5,3.7,0,7.3,1.1,11,8.9,2.2,7.9,10.4,8.3,17.8.3,6.3.9,12.4-.4,18.6-.3,1.7-2.5,3.4-4,4.1-2.8,1.4-6,.4-8.2,2.3l-.4.5c-6.4,1.1-12.9,2.2-19.6,3.5-2.4.7-4.7.6-6.9-.2-.5.1-1,.5-1.4,1.1-58.7,5.9-118.8,5.8-178.5.5l-.6-1.1-.6.9-25.9-4.1c-1.1.4-1.7,0-1.8-.9-1.4-1.2-3.3-1.5-5.4-1.7-2.5-.3-6-2-6.5-4.9-1-6.2-.1-12.3,0-18.5.1-4.6-.5-9.3,1.7-13.4,1.2-2.3,4.7-2.6,6.3-4.3s1.1-4.8,1.5-7c1.2-7.1,2.4-13.8,4.4-20.7,6.5-22.2,15.7-37.8,31-54.8,6.7-7.4,19.3-18,28.1-21.8l1.7-.3c6.5,25,12.9,50,19.2,75,1.4,3.8,1.5,1.7.3-6.3-3.1-24.7-6.6-49.3-10.3-73.7l.7-.8c2-8.1,2.5-9.2,9.7-11.9,8-3,16-4.8,24.6-5.7,6.2-.7,12.2-.1,18.6-.3,10.9,1.1,21.5,3.7,31.7,7.7,3.5,1.4,4.2,8.4,5.3,10.7h0Z"/>
  <path class="st18" d="M357.4,174c-.6,6.6.5,12.2,6.2,16.2.8,1.6.4,3.6-1.2,6-1.4,4.7,1,9.5,5.6,11,4.8-8.3,16-1.3,21.3,3.1l-.2,1.2c3.5,4.4,5,10.7,5.8,16.3,2.1,15.3-3.3,30.5-14.7,40.6-2.8,2.5-5.6,4.5-9,5.9-.6.2-.8.6-.9,1l-.6.8c-.9.2-6.4,1.3-7,1.2-.9-.1-.7-.4-.7-.4,0,.9-.1,1.7-.3,2.6-3.2,13.5-8.1,28.1-16.1,39.5l-1.6.9c.6,1.4-.5,3-1.9,2.3-3.8,6.6-8.9,12.4-15.3,17.2-1,1.6-1.9,2.1-2.9,1.5-.5,1.4-1.5,2.5-2.6,3.5-16.7,14-33.2,24.3-55.7,24.3-21.9,0-39.3-13-55.5-25.9l-1.4-2.3c-.4,0-.7,0-1.1,0s-.7-.1-.9-.3c-6.1-5.2-12.1-10.7-16.2-17.5-1.5-.1-2.2-1.8-2.4-3.1-1.3-.6-2.2-1.9-2.8-3.6-6.8-11.2-13.1-25.7-14.6-38.9-2.6.1-5.2-.3-7.8-1.3l-.7-1.3c-6.9-2.9-12.4-8.1-16.7-14.2-5.8-8.2-8.4-17.2-8.2-27.2.2-7.5,1.5-14.8,6.6-20.6-.6-.8-1-1.4-1.5-1.9.8-.3,1.6-.5,2.7-.4,3.6-1.9,7.3-3.6,11-5.1,3-1.2,6.1-1.4,7.6,2.1,5.5-.3,8.3-6.5,7-11.5-1.6-2.6-1.8-4.7-.6-6.5,4.6-3.3,6.6-7.8,6.1-13.5l.9-1.1c15.5,2.4,86.5,4.7,104.6,4l38.5-1.4,37.4-3.1h0Z"/>
  <path class="st25" d="M368.9,396.7l8.2,4.3c0,70.5,0,141-.2,211.6,0,.5-.4.8-.8,1-5.2.3-10.4,0-15.8,0h-25.7c-2.4-.2-4.8,0-7.3-.1h-4.5c-7.9-.3-15.7-.4-23.6,0s-15.3.4-22.9.2c-1.1-.2-2.2-.4-3.3-.5.1-15,.2-30.1.2-45.2.1-4.5,1.5-8.8,3.4-12.8,25.5-53.4,51.2-106.6,77.1-159.8l.7-.2c0-2.2,3.7-2.5,5.6-2.4,1.5,0,7,2,8.5,2.8l.4,1.1h0Z"/>
  <path class="st6" d="M88.7,613.4h-6.1s-24-.1-24-.1h-10.6s-25.1-.2-25.1-.2c-3.8,0-7.7-1.9-10.7-4.1-6.2-4.6-8.3-12.5-6.6-19.9l10.8-46.8c3.3-14.3,6.9-28,12-41.8,6.3-17.2,16-32.5,29.2-45.2,9.6-9.2,19.5-15,31-20.8l.5.2c.2,59.4.3,118.6.3,177.7l-.7,1h0Z"/>
  <path class="st16" d="M443.4,613.3c-.5-.5-.5-1.3-.2-2.3v-131.5c-.2-15.4-.2-30.7,0-45.8l.7-.4c7.7,4.3,15.1,8.7,22,14.7,16.1,14,27.4,26.4,36.1,46.1,4.1,9.3,7.1,18.5,9.5,28.4l11.2,46.9,4.6,19.4c.8,3.3.7,6.5,0,9.9-1.4,8-10.4,14.3-15.8,14.3l-65.1.3c-1.1,0-2.1,0-2.8,0h0Z"/>
  <path class="st23" d="M155.3,401.5c1.2-1.1,1.3,0,1.5,1.2v208.4c.2,1.8-.3,2.2-2,2.4-7.6,0-15.2.8-23,0-4-.4-7.8.3-11.5-.3-1.4.2-1.8-.9-1-3.2-.1-64.3,0-128.5.2-192.7-1.1.2-.9-.1-.1-.8,2.2-.9,4.2-2,6.6-2.9l21.8-8.8c2.6-1,4.8-2.8,7.4-3h0Z"/>
  <path class="st23" d="M412.5,416.7c.3.7.3,1.5,0,2.6,0,64.2,0,128.7,0,193.7-1.5.3-3.1.4-4.7.4l-30.7-.2c0-70.6,0-141.2,0-211.8,4.6,1.4,10.5,4.1,15.3,6.2,6.8,3,13.7,5.5,20,9.1h0Z"/>
  <path class="st36" d="M443.9,433.3c-.2,1,.3,2.5.3,3.7v15.3c-.2,2.7-.6,10.3-.1,12.6.6,2.8-.3,5.7-.1,8.5.1,2.1.2,3.8.2,6v131.6c0,1.1-.4,1.7-.8,2.3-2.5.2-5,.4-7.8.4l-22-.2-1.3-.5.2-193.7.7-2.6c5.6,1.3,10.7,4.3,16.3,6.7l7.5,3.2c3.3,1.4,5.8,3.5,7.1,6.7h0Z"/>
  <path class="st24" d="M91,428.7c1.4-1.3,14.1-7,15.4-6.7,4.3-1.5,8.6-3.2,12.8-5.1l.4.2c-.2,64.8-.3,129.7-.4,194.9-1.8.9-3.7,1.3-5.9,1.2-7.9,0-15.8-.4-23.7-.8-.5-3.2-.5-6.5-.2-9.9.1-56.2,0-111.8-.3-166.9-.1-2.8.5-5.1,1.9-6.8h0Z"/>
  <path class="st27" d="M188,319.5c.3.4.7.9.8,1.4,0,1.5-2,5.1-3,6.4,4.1,5.4,4.4,14.4-.4,19.4,4.5,5.2,4.6,14.2.2,19.6,4.1,5.5,4,13.6.3,19.4l1,1.7c1,1.5,1.1,2.6.4,3.5.3.4.5.9.2,1.1-2.4,1.2-5.3,2.4-7.8,2.8.2,1.4-.2,1.7-1.2.9l-.6.2c-3.7-1.8-7.6-1.4-11.8,1.3-1.7.9-2.8.8-3.4-.2-1.2-5-.3-10.6,3.1-14.8-1.4-2.3-3.9-5.7-2.9-7.6l.6-1.2c0-.2-.4,0-.9-.2-.4-3.8.7-7.5,3-10.8-4-7-5.4-13.5.1-19.9-1.3-2.3-3.5-4.9-2.2-7.1-.5,0-.8,0-.9-.1s-.5-.8-.3-1.1c2.2-2.8-2.8-3,3.5-11.6-4-6.5-5.5-12.8-.2-19.4-1.9-1.9-4.3-10-2.7-9.5-.1,0-.7,0-.7,0-.4-3.7.9-7.1,3.2-10-1.7-3-3.1-6-3.2-9.2,2.7,1.1,5.7,1.5,9.1,2,2.2,11.2,5.6,22.1,10.9,32.3,2,3.8,4.5,6.9,5.9,10.7h0Z"/>
  <path class="st27" d="M370.3,275.2c-.8,3.1-2.1,6-4.1,8.2,5,5.6,4.8,13.9.2,19.8,4.6,4.8,4.1,14.6-.4,19.5,1.5,2.1,3.7,4.6,3.4,7.2-.9,8,2.3,2.7-3.1,13,4.9,4.7,4,14.2.2,19.4,4.3,6.9,4.1,13,0,19.9,1.7,2.9,3.5,5.7,2.9,9.2-.3,1.8.6,3.8-.6,5.2-5.3-.9-8.3-5.1-14.5-1.5-1.2,1-1.5.5-1.8-.9-.4.2-.7.2-1.1.2-1.1,0-6.8-2.4-6.6-4.1l-.5-1.2,2-3.6c-3.9-5.2-4.6-14.6.2-19.3-4.6-5.9-4.8-14,0-19.8-4.7-5.2-4.7-14-.5-19.6-1.4-1.9-3-4.5-2.4-6.9,2.5-4.7,5.7-9,8-14.2,4.2-9.5,7.2-19.2,9.5-29.4,2.6,0,8.5-1.9,8.9-1.1h0Z"/>
  <path class="st12" d="M177,174.4c1.1,15.2-9.1,13.4-6.6,18,2.9,5.5,1.5,11.7-3.8,14.8-1,.6-1.9.9-3.2.6-.8-.2-1-1.6-1.9-2.2-1.9-1.3-4.5-.2-6.4.6-3.2,1.4-6.2,2.6-9.2,4.3-1.4.8-2.5.5-3.6-.2-.3-.4-.3-1.2-.6-1.4,0-.9-.3-1.5-.7-2.1-2.2-6.1,1.3-7.1,2.8-10.8-5.9-4.1-2.3-14,.7-18.6,1.4-2.2,5.3-3.7,4.3-7.2.5.4,1.1-.2,1.8,0l26.4,4.1h0Z"/>
  <path class="st35" d="M384.3,170.1l5.3,9c1.6,2.8,2.5,6,2.8,9.2.6,6-4.1,6.4-2.2,9,3.4,4.6,2.7,10.1-1.1,14.1-2.2-2.8-15.9-11.2-19.3-4.9-.4.7-.8,1.3-1.3,1.5-.7.3-1.3,0-2-.4-5.5-2.8-7-9.5-3.6-14.6.3-.4.6-.9.5-1.4-.3-1.8-7.4-3.9-7-14.3,0-1.3-.3-2.8,1-3.3,7.6-.6,15.2-2.1,23-3.8,1.5-.3,2.7-.5,3.9,0h0Z"/>
  <path class="st2" d="M178.5,395.7l1,.7c26.2,54.2,52.3,108.3,78.3,162.3l1.1,4c.6,15.9.8,31.9.5,47.9.5,1.7.3,2.6-.5,2.8-8-.5-16,.2-24.4.2h-79.6c.8-.5,1.1-1.1,1.1-2.5v-208.5c-.1-.8-.4-.9-.7-1,.6-2.1,6.1-2.4,7.4-4.4,2.5,0,4.4-1.5,7-2.5s7.3-1.7,8.8,1.1h0Z"/>
  <path class="st22" d="M354.4,395.2c-.5,1.9-1.8,3.9-2.8,5.9l-7.8,16.3-23,47-6.6,14.1c-.9,2-2,3.7-2.9,5.8-2.5,6-5.6,11.5-8.4,17.4l-12.3,25.6-13.5,28.2c-2.4,5-3.5,9.8-3.5,15.4v42c1.1.4,2.4-.1,2.6.7-3.2,0-6.5.5-9.8.3l-7.6-.5v-45.8c0-4.9-1.7-9.2-3.8-13.5l-10.1-20.5-11.8-24.6-8.1-16.8-8.9-18.5-21.2-44-10.8-22.4c-1.9-4-3.6-7.8-5.6-11.5.3-.4,1-.5,1.2-.9l1,.7c25.6,53.4,51.6,107,77.8,160.9,1.3,3,2.1,6.2,2.2,9.4l.2,45.3c0,.5.3.7.7.8,1.7.3,9.4.9,9.8-1.2l.2-44c.1-3.1.9-6.2,2-9,9.9-21.3,19.7-42.4,30.3-63.4.7-2.4,1.8-4.5,3.2-6.4,14.3-30.2,29-60.4,44-90.6.3-1.4.8-2.4,1.5-3.1.6.3,1.2.6,1.8.9h0Z"/>
  <path class="st0" d="M210,23.2c-1.5.6,12.6-6.2,11.6-6.1.5.9.7,2.1.9,3.4l3.9,27.3,4.9,36.4c.7,5.4,1.5,10.4,1.9,15.9,0,.7-1.3.7-1.7.6-1.7-.5-4.4-13.2-5-16l-2.2-9.2-6.3-24.9-6.2-25c-.3-1.1-.2-2.3-1.6-2.2h0Z"/>
  <path class="st10" d="M322.8,23.2c-1.1,0-1.3.8-1.6,1.8l-6.2,24.9-12.1,48.9c-.2,1-.8,1.7-1.5,1.7-.6,0-1.8,0-1.8-.9.5-5.4,1.3-10.2,2-15.5l7.3-53.1c.7-4.8.8-9.4,2.4-13.6,3.9,1.8,7.7,3.7,11.5,5.7h0Z"/>
  <path class="st37" d="M120.3,613.1c-8.4,1.3-23,.3-31.6.2-1.1-3.6,0-7,0-11v-167.9c0-.9.8-2.1.6-3.2-.4-1.8,1.1-2,1.8-2.6-1.4,1.9-1.2,4.4-1.5,6.8,0-.8.1,20.7,0,19.6l.5,5.5v151.2c4.1.8,7.6,0,11.1.2l6.4.2c2.7.1,11.5,1.7,11.5-2.1v-148.5c0-2.1-.2-3.4-.2-5.4l.4-18.4c.1-6.9,0-13.4.3-20.5l-6.2,2.6c-1.6.7-5.4,2.5-6.8,2.2l13.1-5.7c.2.4.4.7.4,1.6v193.2c0,1.1,0,1.6.5,2.1h0Z"/>
  <path class="st11" d="M413.5,613.5h-5.8c.8-.9,2-.4,3.9-.4v-157.4c0,0,0-36.5,0-36.5,0-1,1-1.7.8-2.5.2,0,.4,0,.6,0v194.3c-.1,1.3,0,1.9.5,2.5h0Z"/>
  <path class="st4" d="M377.1,401.4c0,.6.4,1.1.4,2.2v207c0,1.3,0,1.9-.5,2.6-.3,0-.6.3-1,.4.4-.7.5-1.3.5-2.5v-209c0-.8.1-1,.5-1.1,0,.1,0,.3,0,.4h0Z"/>
  <path class="st18" d="M141.7,209c-.7-.6-.5-1.4-.7-2.1.9,0,.9,1.4.7,2.1Z"/>
  <path class="st9" d="M294.8,146.8c-37.2-1-78-.9-114.4,6l-12.6,2.4c-1.3.2-2.2-.1-2.7-1.4-.3-.7,0-2.1,1.2-2.5,5.2-2.1,10.4-3.4,16.1-4.6,22.4-4.6,44.7-7,67.5-7.6,29.6-.7,82.3.9,109.6,9.6l6.9,2.2c1.2.4,2,1.6,1.8,2.5-.2,1.2-1.2,2.2-2.7,1.9-11.7-2.4-23-4.5-35-5.8s-23.5-2.3-35.7-2.6h0Z"/>
  <path class="st30" d="M323.8,341l.9,1.2-.8,12.8c-.2,13.6,2.1,23.9,14.7,31.2l.5,1.3c-2.9,2.6-7,4.8-10.8,6.4-16.2,6.6-34.5,7.4-51.5,3.3-20-4.8-34.4-14.6-50.6-26.5-5.7-4.2-12.4-10.3-16.7-15.2l-1-.4-.2-12.2c-.6-1-.5-1.8.2-2.3l13,10.1,9.2,6.1c5.5,3.6,14.2,7,15,7.5,1.9,1.2,4.3,1.2,6.3,1.8,8.8,2.8,24.5,1.9,33.2-1.2,15-5.3,22.8-11,34.9-20.8,1.3-1.1,2.2-2.5,3.7-3.1h0Z"/>
  <path class="st28" d="M267.8,311.7c-10.1.1-19.3-1.7-27.7-6.7-4.7-2.8-11-8.3-12.8-13.3-.2-.5.7-.7,1.4-.7h76.2c.3,1.7-.6,3.2-1.7,4.5-8.8,10.5-21.5,16-35.5,16.2Z"/>
  <path class="st26" d="M208.5,340.5l.8,2,.2,12.9,1,1.2c1.2,14.3-4.1,24.3-15.9,32.4h-1.5c-.2.4-.3.4-.4,0l-1.1-.6c-1.3-5.7-2.1-11.8,2-16.5l-2.5-6.3c-1.2-3.2-1.1-5.9.3-8.3,0-1.9.8-3.5,2.6-5-3.9-5.7-5.6-15.2.4-19.9-1.5-1.5-4.4-6.2-4.6-8.3,0-.6.2-1.1.5-1.6,2.6,1.9,6.4,7.5,9.5,10.2s5.7,5.4,8.7,7.7h0Z"/>
  <path class="st7" d="M339.7,387.4c0,.9-.4.9-.6,0-3.1-1.3-5.6-3.7-8.1-6.1-11-10.8-7.6-26.5-7.1-40.3,1-.4,1.5-1.6,2.4-2.4,4.2-3.5,8-7.3,11.5-11.5,1.5-1.8,2.7-3.5,4.2-4.9l.6,1.4c0,1.8-2.9,8.5-4.3,9.2,0,0,.3-.2.5,0,4.4,5.3,3.6,14.3-.3,19.7,4.2,5.4,3.9,13.8,0,19.1,2.8,2.9,4.1,10.8,2.6,14.6-.3.6-.5,1-1.3,1.1h0Z"/>
  <path class="st21" d="M168.5,259.9c-10.6-2.9-15.1-6.7-18.5-16.3-2.9-8.1-2.3-17.2,2.9-24.2,1.9-2.6,5.1-3.9,8.2-3.7,2.5.1,3.6,2.1,3.7,4.5.5,13.3,2,26.2,3.7,39.7h0Z"/>
  <path class="st19" d="M381.6,246.8c-4.4,8.4-7.7,10.5-17.1,13.2l4-40.4c.2-2.2,1.2-3.2,3.3-3.4,4.2-.4,7.7,1.4,9.8,5.4,4,7.7,4.3,17.3,0,25.2h0Z"/>
  <path class="st1" d="M237.6,196.4l-19-3.1c-8.7-1.4-17.5,1.9-24.6,6.9-1.5,1-2.7,1.1-3.9-.2s-.7-2.5.8-3.8c4.9-4.5,10.9-7.5,17.4-9.5,9.5-2.9,21.7-.6,31.1,2.4.7.2,1.2.9,1.5,1.3.7,1.1-1.3,6.4-3.3,6.1h0Z"/>
  <path class="st14" d="M325.7,194.1c-14.4-3.1-24.7,2.8-30.8,2-2.2-.3-3.9-4.3-2.9-6.3,6.8-2.7,14.5-4.2,21.8-4.5,8.3-.3,16.1,2.8,23.1,7.1,2.5,1.5,5,3.1,6.3,5.8.7,1.3-1.9,3.6-3.1,2.8-4.5-3.1-9-5.7-14.5-6.8h0Z"/>
  <path class="st32" d="M217.5,233.5c-1.9-.7-3.4-1.7-4.4-3.1-4.8-6.5-4.3-17.6,3.6-21,3-1.3,6.5,0,8.6,2.5,3.5,4.3,4.5,10.4,2.4,15.5-1.7,4.2-5.6,6.7-10.3,6Z"/>
  <path class="st31" d="M319.8,230c-.9,1.3-2.4,2.6-4,3.2-3.5,1.2-7.7-.4-9.6-3.8-3.1-5.4-2.7-12.6,1.1-17.6,1.7-2.3,5.5-3.5,8.1-2.6,7.9,2.7,9,14.4,4.4,20.8h0Z"/>
  <path class="st8" d="M246.6,266.1c-1.2-1.2-.5-3.7-.3-4.9,1.7-1.3,3.1-.4,4.6.5,2,1.1,4.3,1.4,6.6,2.2,6.3,2.2,13.2,1.7,19.5-.2s5.8-3.7,8-3.5c2.7.2,1.2,6,.3,6.8-4.9,3-10.6,4.9-16.1,5.8-4.3.7-8,0-11.8-1.4-3.6-1.3-7.7-2.1-10.7-5.1h0Z"/>
  <path class="st29" d="M342,389.4c1,.3,2.1.5,3,1,2.1,1,4.1,2.4,6.6,2.9.6.1.8.8,1.1,1,.3,1.3-.2,2.7-.9,4-1.8,3.3-3.2,6.5-4.9,10l-14.5,29.5-3.8,7.8-5,9.8c-1.8,3.5-3.2,7-4.9,10.5l-6.3,12.7-4.4,9.7c-.4.8-1.3,1.4-1.6,2.3-1.3,4.7-4.1,8.5-6.1,12.9s-3.6,8.4-5.9,12.4c-1.8,3.1-2.5,6.7-4.5,9.5-1.9,2.6-3.2,7.6-5.3,11.5-1,1.9-2,3.5-2.8,5.5-2.9,7.5-9.1,16.1-9.2,25l-.2,43.1c0,1.4-1,2.5-2.4,2.5h-8.1c-1.4-.2-2-1.1-2-2.5v-44.1c-.1-4.4-1.6-8.5-3.5-12.4l-8.9-18c-3.3-6.7-6-13.5-9.7-20-2.5-4.3-4-8.8-6.2-13.2l-9.9-20.1c-1.7-3.5-3.3-6.8-5.1-10.4l-11.8-24.1-10.8-22.5-5-9.8-8.4-18c-.5-1.1-1.1-2.1-1.1-3.2,1.3-2.1,6.2-2.3,7.6-4,1-.5,2.5-.7,3.6-1,1.2-.5,1.8.4,1.8,2.8,10.6,22.8,31.2,38,55.8,42.9s49,.6,68.3-14.4c10.1-7.9,20.8-19.2,23.5-31.9l1.7.2h0Z"/>
  <path class="st20" d="M174.6,326.7c-1.6-.5-2.8-2-3.4-3.4-.6-1.6-1.8-2.7-2.5-4.2-1.8-3.8-5.4-8.8-2.4-10.2,1.1-.5,2.4-.8,3.4-.5.8.2,1.9,1.2,2.3,2.4,1,2.4,2.3,4.4,3.3,6.7l2.8,6c.5,1,0,2-.5,2.7-.6.7-1.6,1.1-3.1.6h0Z"/>
  <path class="st34" d="M178.3,383.5c-.1,1.4-1.7,1.9-2.6,2.1-1.2.2-2.7-.4-3.4-1.6l-5.1-8.8c-1-1.8-1.5-3.7-1.8-5.9.8-1.6,3.3-3.1,4.8-2,2.2,1.8,2.8,4.7,4,7.1l2.1,4.1c.8,1.5,2.1,2.8,1.9,5h0Z"/>
  <path class="st38" d="M177,365.7c-3,3-7.3-5.4-8.9-7.9-1.4-2.2-3.1-5.4-2.8-8.1.4-1.5,4.9-2.4,5.7-1.1,2.9,4.5,4.9,9.2,6.9,14,.5,1.2-.2,2.4-.9,3.1h0Z"/>
  <path class="st33" d="M353.7,384.7c-1.6-2.5,5.9-14.2,7.4-16.4.8-1.2,2.5-1.3,3.6-1.1,1,.2,2.8,1.2,2.3,2.7-1.6,5-4.3,9.5-7,13.9-1.4,2.2-4.1,2.6-6.2.9Z"/>
  <path class="st3" d="M355.1,326.8c-1.5-1.8-1-3.7-.2-5.4l3.1-6.5c1.2-2.6,2.2-5.1,4.6-7,1.3-.8,4.5.5,4.2,2.4-.7,3.6-6.1,18.7-11.7,16.6h0Z"/>
  <path class="st17" d="M365.1,355.8c-1.7,3.2-5,12.4-10,10.2-1.5-.6-1.2-3.4-.5-4.7l5.2-10.3c.7-1.4,1.5-2.8,2.7-2.9,1.6-.1,3.5-.2,4,1.5.7,2.1-.4,4.3-1.4,6.1h0Z"/>
  <path class="st13" d="M366.2,332c-1.5,3.7-6.8,16.9-11.6,13.8-1-.6-.7-1.9-.8-2.9-.2-2.2,1-3.1,1.8-4.5l5.1-8.9c.4-.7,1.2-1.2,1.7-1.5.8-.3,1.5.3,2.2.6,1.4.6,2.1,1.8,1.5,3.3h0Z"/>
  <path class="st36" d="M246.3,539.7l6.1,12.9c2.2,4.7,5.1,8.9,5.1,14.5v42.7c0,1-.3,1.7-.9,2.2-.4.3-1.2.3-2,.3l-12.4-.2c-5.5,0-10.8-.2-16.3-.2h-10.5c-8.1.1-16,.3-24,.1-3,0-5.6-.3-8.6-.2l-4.4.2-18.7.2c-1.4,0-2.4-1-2.4-2.5v-187.4s-.2-4.1-.2-4.1c-.2-5.3-.6-10.4-.1-15.7.1-1.2.8-2,1.9-2.4,3.9-1.3,7.6-2.7,11.4-4.3,1.8-.7,4.4-1.1,5.9.2,2.4,1.9,2.8,5,4.2,7.4,2.7,4.9,4.2,7.6,6.2,13-.6-1.8,4.5,8.6,4.4,8.3.6,2.2,1.2,3.9,2.6,5.7,2.5,3.4,3.4,7.7,5.5,11.3,1.9,3.3,3.3,6.7,4.9,10.1l6.7,13.9,5.5,11.3,5.1,10.2,6,12.9,4.5,8.8c1.5,2.9,2.4,5.8,3.8,8.8l10.8,22h0Z"/>
  <path class="st18" d="M339.1,387.4c.2,0,.4,0,.6,0-.1.4.1.8,0,1.2.3.3.5.5.5.8-.9,10-14.1,24.5-22.1,30.7-18.4,14.5-41.1,19.8-63.9,16.5-18.6-2.8-37-11.1-49.4-25.4-2.7-3.1-13.2-17.4-12.7-21.1,0-.5.5-.9,1-1,4.3-3.5,8.9-6.6,12-11.6,4.7-7.5,4.5-13.5,4.4-22,0-1.3,4.2,3.4,5.6,4.5,2.2,1.6,4,3.5,6.1,5.3l4.6,3.9c13.1,11,29.9,20.9,46.4,25.8,16.1,4.8,32.8,5.1,49,.2,5.2-1.6,10.1-3.3,14.5-6.5,1.1-.8,2-1.5,3.3-1.2h0Z"/>
  <path class="st5" d="M342,389.4c-2.6,0-.1,2.4-3.7,8.3-4.1,6.8-10.3,15.5-16.5,20.4-11.1,8.8-17,12.8-30.9,16.7-9.8,2.7-19.7,4.3-29.8,3.3-16.9-1.6-29-5.3-43.1-14.5-12.7-8.2-18.9-17.6-26.1-30.5-.6-1,0-2.7-1-3.4.6-.2,1.2-.7,1.9-.9h.4c-1.1,1.2,5.3,12.8,6,13.8,1.7,2.6,10.7,13.1,12.5,14.4l4.2,3,5.6,3.6c3.6,2.3,7.3,4.4,11.2,6l5.8,2.3c6.9,2.8,26,5.7,33.3,4.7l8.8-1.2c5.3-.7,12.7-3,17.8-4.8,6.8-2.4,15.2-7.9,20.7-12.5,2.3-1.9,4-3.8,6.1-6l4-4.2c2.2-2.3,3.7-4.8,5.5-7.4,2.7-3.9,4.1-7.8,5.2-12.2.8.1,1.5.7,2.2.9h0Z"/>
</svg>