<?xml version="1.0" encoding="UTF-8"?>
<svg id="Layer_1" xmlns="http://www.w3.org/2000/svg" version="1.1" viewBox="0 0 909.2 1131.6">
  <!-- Generator: Adobe Illustrator 29.0.1, SVG Export Plug-In . SVG Version: 2.1.0 Build 192)  -->
  <defs>
    <style>
      .st0 {
        fill: #f4b79b;
      }

      .st1 {
        fill: #c5c6cb;
      }

      .st2 {
        fill: #dd917c;
      }

      .st3 {
        fill: #eda04d;
      }

      .st4 {
        fill: #ebe9ef;
      }

      .st5 {
        fill: #fefefd;
      }

      .st6 {
        fill: #f3b79b;
      }

      .st7 {
        fill: #db957f;
      }

      .st8 {
        fill: #66483a;
      }

      .st9 {
        fill: #c27761;
      }

      .st10 {
        fill: #f8772c;
      }

      .st11 {
        fill: #c4c5cb;
      }

      .st12 {
        fill: #db9482;
      }

      .st13 {
        fill: #df947f;
      }

      .st14 {
        fill: #dd9883;
      }

      .st15 {
        fill: #633f31;
      }

      .st16 {
        fill: #f7782c;
      }

      .st17 {
        fill: #f2b89c;
      }

      .st18 {
        fill: #614031;
      }

      .st19 {
        fill: #dd9481;
      }

      .st20 {
        fill: #eae9ef;
      }

      .st21 {
        fill: #f3c941;
      }

      .st22 {
        fill: #c7c7ce;
      }

      .st23 {
        fill: #dc9481;
      }

      .st24 {
        fill: #eb9f4d;
      }

      .st25 {
        fill: #eb9f4c;
      }

      .st26 {
        fill: #fefefe;
      }

      .st27 {
        fill: #de9682;
      }

      .st28 {
        fill: #634436;
      }

      .st29 {
        fill: #644536;
      }

      .st30 {
        fill: #5d473a;
      }

      .st31 {
        fill: #f2b89b;
      }

      .st32 {
        fill: #5d483a;
      }

      .st33 {
        fill: #f7792c;
      }

      .st34 {
        fill: #f8782d;
      }

      .st35 {
        fill: #dd9782;
      }

      .st36 {
        fill: #eae9ee;
      }
    </style>
  </defs>
  <path class="st21" d="M537.1,50.6c1.6,2.3,1.7,5.4,0,9.3l-19.5,137.2c11.4-44.7,23.2-89.9,35.4-135.4l3.6-1.7c10.6,4.4,20.2,10.2,30,17.7,28.7,21.7,51.3,48.8,69.2,80.1,15.4,26.9,22.1,56.2,22.8,87,.2,9.3,1,18.3.4,27.6-.4,6-2.3,11.8-.8,18.1l29.5.3c3.3,0,6.2,4.8,3.7,7.9-5.3,6.6-12.2,14.2-20,17.4-.2,1.6-.9,2.9-2,4-3.1,3-33.2,9.2-39.9,10.6-17.1,3.5-34.5,6-51.9,7.7l-3.5-2.7-1.5,3.1c-79.7,6-165.4,9.3-245.8,2.8l-1.9-3.1-5.5,2.4c-30.8-2.9-61.7-7.2-92.7-12.8-10.8-1.3-20.1-4.8-27.7-10.5,2.6.8-24.4-12.7-20.4-24.3,1.9-5.5,25.7-1.1,33.8-3.1l-.7-41.3c-.7-42.2,11.5-81.8,36.5-116.4,22.2-30.6,51.7-57.3,85.7-72.6l3.2.3,34.6,134c-5.9-44.4-12.4-89.4-19.3-134.9l1.2-8.6c4.6-10.1,3.5-20.4,16.8-25,39.3-13.8,97.3-13.4,134.7,3.7,8.4,3.9,9.8,13.8,12,21.3h0Z"/>
  <path class="st18" d="M344.8,338.5c-.2,1.2-.3,2.4-.8,3.5-4.5,12.7-49,35.4-63.2,40.7l-2.3,8.9c.3,5.6-1,9.5-4,11.5,1.5,3.4,1.1,9.2-3,10.2l2.8,2.1-3.3,26.6-3.2,1.7c-.5,1.7-2,3-2.9,2.1-3.1-3-11.3-21.4-12.9-26.4l1.8-3.1c-3.3.2-5.3-3-6-9.6-2.6-5.1-10.4.7-13.8,3.8-16.2,14.5-14.1,45.4-6.6,64.2,9.3,23.3,26.5,40.2,51.9,42.1,10.5,45.9,27.4,88.4,64.2,119.1l1.5,5.5c4.5,4.4,4.9,7.1,1.1,8.1-.6,3.4-.6,6.6,0,9.7,4.2,1.2,4.5,6.1.2,7.5l-2.7,5.9c-17.6,17.1-33.6,35.8-47.9,56l-4.8,1.2-2.7,3.4c-10.7,2.5-20.9,6.3-30.7,11.5l-4.1-1.5c-.6,1.1-1.3,2.1-2.1,3-3.1,3.5-26.4,12.6-33,15.2-3.2,1.3-7.5,2.6-8.1-1.8-.2-1.5-1.5-2.1-3.1-3.2-16-11.1-28.1-27.5-32.4-46.7-2.2-9.7-.3-19.2-.4-29.1l8.5-36.7c.4-17.9-5.7-33.8-15.7-48.2-13.9-19.9-20.8-42.5-21.6-67.1-.1-47.7,21.4-92.2,43.6-133.4,13.5-24.9,23.7-50.7,29.8-77.6,20,5.8,40.1,10.9,61.5,13.4l64.4,7.5h0Z"/>
  <path class="st15" d="M691.4,316c4.5,17.4,12.5,42.7,21.1,59.3l20.6,40.1c19.2,37.5,34.9,77.4,32.6,120.1-2.6,47-32.1,66.5-36.1,92.7-2.2,14.4.9,29.1,5,43,9.1,31-.2,62-25.9,81.8-2.6,2-5.9,3.5-7,6.4-.6,4.7-5.4,3.1-8.8,1.8-9.6-3.8-19.6-8-29-12.3-1.3-.6-2.5-1.5-3.6-2.5s-2.2-2.2-3.3-3.4l-2.6,2.2c-10.3-5.4-21.1-9.6-32.2-12.3l-2.7-3.1-3.4.5c-14.2-18.3-28.8-36.3-43.9-53.9-3.8-2.1-6-4.9-6.8-8.2-3.2-1.7-4.2-5.9-3-12.5-.8-5.7.2-10.6,3-14.8l1.8-5.6c37.9-30.4,53-73.5,64.8-118.9,44.2-.8,73.1-68.7,49-102.2-3.4-4.8-15.9-15.6-18.2-6.5-.4,5.8-2.3,9.1-5.8,9.9,1,.6,2.4,1.7,2.1,2.5-.9,2.5-10.4,23.3-11.5,24l-4.2,1.3-1.1-9.8-3.2-1.4c.3-6.9-.8-13.4-3.1-19.5l1.6-3c-4.2-1.1-5.7-6.4-1.7-8.7-2.3-1.3-3.4-4-3.5-7.8-5.3-9.6-12.5-18.4-21.5-26.5-4.7-6-18.4-23.7-17.6-30.2,0-1,.5-2.1.9-3.1,26-2,73.1-9.8,97.3-19.6h0v.2Z"/>
  <path class="st34" d="M291,729.9l3.1.6,20.8,152.4,31.3-27.1,6.2-1.6,3.5-2.1c3.5,4.7,8.7,13.2,7,18.6l5.3,5.3c25.4,51.8,49.8,103.8,73.2,155.8l2.4,10.5c.8,27.7.8,55.3.2,82.9l-3,1.8-186-.2-3-1.1v-379.9l1.4-2.6c12.2-5.1,24.2-12.2,37.6-13.4h0Z"/>
  <path class="st10" d="M656.9,743.2l1.5,1.4c-.9,127.6-1.2,254.7-1,381.2l-3.5,1.2h-185.9l-3-1.4v-79.7s.8-4.6,2.4-13.7c24.2-52.8,49.2-105.7,74.9-158.5l4.8-4.4-1.3-2.8c1.5-4.3,7.5-17.8,11.7-12.7l6.8,2.1,31,26.9,20.8-151.4,3.2-1.4c10-.8,31.3,10.9,37.5,13.2h0Z"/>
  <path class="st4" d="M775.3,1127l-3-1v-321.2l3-1.8c.3,1.6,2.1,4.5,2.8,6.5,28.2,18.5,55.5,37.7,70.3,69.3,7.7,16.4,14,32.3,18.9,50.2,14.5,53.4,24.9,106.8,32.6,161.7,3.2,22.9-15.3,35.6-27.2,35.7l-97.4.7h0Z"/>
  <path class="st4" d="M133.8,1126.5l-91.4-.3c-18.4,0-32.2-16.6-29.9-35.4,6.2-49.6,16.2-97.7,28.2-146.2,5.2-21,11.5-40.5,20-60.1,15.6-35.7,42.9-54,72.8-75.2l3,1s0,104.8.3,314.3l-3,1.8h0Z"/>
  <path class="st5" d="M253.4,743.3c1.1,0,1.6,1,1.6,3.1v380.4h-65.9l-3-1v-351.3c.1,0,1.6-2.8,1.6-2.8,7.7-3.3,15.9-7.1,22.4-12.1,2.7.2,5.7-.3,8.7-1.7,11.7-5.7,23.2-10,34.5-14.7h0Z"/>
  <path class="st26" d="M701.7,759.5c4.9,4.8,12,7.7,18.4,10.7l3,3.5c0,117.1,0,234.2,0,351.3l-3,1.9h-65.9c2.3-6.5.6-13.8.6-21.2v-50.3c0,0,0-292.3,0-292.3,0,2,.6-29.4,2.4-19.8,12,4.5,23.8,9.5,36.1,15,3,1.3,6,1.8,8.7,1.4h0v-.2Z"/>
  <path class="st33" d="M775.2,802.9v324.1h-55.3v-356.8c0,0,47,21.8,47,21.8,4.4,2,7.9,7.5,8.4,10.9h0Z"/>
  <path class="st16" d="M187.8,771.8c1-.5,1.1.2,1.5,1.7v353.4c-.1,0-55.4-.4-55.4-.4l-.3-317.2c0-4.8.9-12.3,6-14.9,16.2-8.3,32.1-15.7,48.1-22.5h0Z"/>
  <path class="st36" d="M430.3,869l3-1.2c4,5.2,8,9.5,12,13.1,5.5-2.4,10.5,6.4,7.5,11,2.1,2.3,2.6,5.7,1.5,10.4v222.9l-3,1.8c-3.5.2-6.8,0-10.3,0l.7-73.4c0-14.4-4.2-26.1-10.3-38.8l-43.1-90c-8.9-18.6-18.2-35.6-25.3-54.1-.8-1.2-1.4-2.7-1-4.1.6-2.2,32-23.7,36.3-14.3l27.7,19.8c1.6,0,3-1.1,4.2-3.1h0Z"/>
  <path class="st20" d="M547.2,869.2c-6,17.5-15.3,33.3-23.6,50.8l-47.7,99.5c-4.3,9-7.8,17.7-7.8,28v79.4c-2,0-4.4,0-6.4.2l-3-1.1.3-226.7c-1.1-3-1.1-5.6,0-7.8-5.7-2.1,0-11.8,4.5-7.6,4.7-4.8,9-9.9,13-15.4l3.6.3c1.5,2.2,2.9,3.1,4.1,2.5l27.4-19.2c10-6.3,27.5,6.7,35.5,13.3v3.6h0v.2Z"/>
  <path class="st22" d="M458.9,891.6c1.7,1.8,3,3.8,3,7.7l-.3,227.8c-3.5.5-6.9-.3-10.3,0v-221.7c0-5.3-.2-9.4,1.5-13.4,2.1-3,3.8-3.1,6.1-.2h0Z"/>
  <path class="st25" d="M556.6,59.9c-.5,3.3-2.6,6.1-3.5,10l-31.6,127.2c-.7,2.8-2.6,3.4-4.7,2.8-1-.3-2.4-1.7-2.1-4l18.8-130.7c.8-5.5.9-10.6,3.6-14.5,7.6.3,13.2,6.7,19.6,9.3h0Z"/>
  <path class="st24" d="M353.9,59.9c5.2-5.2,13-6.6,19.7-9.4,6.2,26.6,8.6,53.9,12.5,81.8l8.7,62.1c.3,2.1-1,4.9-2.6,5.6-1.4.6-2.5-1.4-3-3.4l-35.4-136.7h0Z"/>
  <path class="st6" d="M594,335.6c7.1,17.7,18.7,32.5,32.6,46.1,6,5.8,10.6,14,9.1,21.5l-.2,3.5-29.5,15.3-4.5.3c-11.2-29.5-35.8-49.7-68.7-44.9-27.1,4-42.6,23.1-51.5,47.5-18-6-33.7-5.8-51.9-.7-10.2-28.4-31.3-48.8-63-47.4-28.4,1.3-47,20.2-57,45.5h-4.2l-30.3-15.5-.6-3.7c.3-7.4.8-15.3,4.4-22.6,24.8-10,47.5-23.7,65.8-42.1l18.1.8,32.2,1.3c38.6,1.6,76.6,1.8,115.2,0l45.9-2.1,37.7-2.9h.4Z"/>
  <path class="st3" d="M632.8,299.3c-53.9-12.5-107.8-16.3-163.4-16.8-66-.6-130.2,3.6-194.6,16.9-2.8.6-3.5-4-3.4-5.4.2-1.7,1.6-3.1,4.4-3.9,86.8-24.2,201.6-27.3,290.5-14.3,24,3.5,46.6,7.5,69.1,15.1,2.3.8,2.9,3.5,3.1,4.9.3,2.2-2.4,4.3-5.7,3.5h0Z"/>
  <path class="st6" d="M253.7,416.2l-.3,3.9c-21.4,17.5-9.4,57.5,15.1,65.7-2.5-12.9-3.9-25.9-4-39l3.3-3.1,3.8-30.3c.9-1.1,2.1-2.6,3.3-2.4,4.4.6,33.6,15.6,34.5,18.3-1.8,86.6,119.9,88.3,120.2,1.2,15-10.5,37-10.3,52,0,1.2,86.7,121.8,85.6,120.2-.9,10.4-7,21.1-13.3,32.3-19.1l3.4,1.5c5,6.2,3.6,16.1,4.7,23.9-.3,4.9.9,8.3,3.5,10.1-.8,13.2-2,26.4-3.3,39.6,23.9-5.8,37.3-49.8,15.2-64.1l-.6-3.6c2.3-4.8,1.6-11.8,6.6-16.8,13.1.7,22.6,11.9,26.2,25.1,8,29.6-3,61.9-26.4,81.7-8.7,7.4-18.6,10.3-29.5,10.7-14.4,57.1-25.1,84.9-68.4,122.6l-3.1,6.5c-68.7,53.5-125.8,55.3-198.2,10.8-6.6-4-16.2-10.5-19-17.2-16-15.2-31.8-30.4-42.6-50.6-12.1-22.7-19.7-46.7-25-72.3-10.5-.4-20.2-2.6-28.5-9.4-23.9-19.6-35.2-51.5-28.1-81.7,3.2-13.5,13.2-24.5,26.5-26.6,4.8,4.4,4,11.1,6.4,15.5h-.2Z"/>
  <path class="st0" d="M550.1,725.3l2.1,2.3c-27,50.2-54.5,100.1-82.5,149.8l-6.3,6.6c-2.6.9-4.7,4.9-4.5,7.6-1.9,1.1-4.2,1.3-6.1.2-2.3-3.7-3.6-8.6-7.5-11-3.4-2.2-6.4-5.5-8.9-9.9l-92.5-168-.6-30.8,3-5.4c0-2.5-.4-5-.2-7.5-.8-4.5-1.5-14.1,4.5-10.2,48.5,57.5,121.2,96.2,196.9,73.5l2.7,2.8h0Z"/>
  <path class="st26" d="M445.3,880.8c-.5.5-2,1.3-3,.3l-12-12.1-4.5-1.7c-13-12.6-25.7-25.3-38.3-38.3l-4.3,1.2-27.2,24.8-3.6-.8c-12.6,11.5-25.6,22-39.7,35.2l-21.8-159.6c15.8-19.7,35.5-48.5,55.3-63.2,0,11.7-.3,23,.5,35.5l98.5,178.7h0Z"/>
  <path class="st13" d="M565.3,641.2v27.2l2.7,3.3c1.5,8.1-2.3,34.5-6.1,41.6-2,3.9-7.6,13-11.8,12-3.9,0-8,1-12.4,2.2-74.3,18.7-143.5-22.2-191-78.4l-.6,10.1c-3.2.5,1.2-15.1-1.2-17.8,3.1,2.9,7.8,4.7,11.5,7.8,17.3,14.1,36.7,23.5,57.6,31,27.7,10,56,9.7,83.7,0,25.5-9,47.8-21.7,67.6-38.9h0Z"/>
  <path class="st8" d="M635.7,403.2c.2,2.5,1.9,6.2,1.7,8.7l-33.2,18.6c2.3,25.2-10.7,48.2-31.8,59.9-22.9,12.7-49.9,9.9-70.3-6.6-15.8-12.8-23.6-31.5-22.9-52.1-14.9-8-32.2-8.3-47.4,0,2,36.9-26.8,67.1-63.4,66.5-35.7-.6-65-31.2-61.5-68-9.2-4.9-27.9-16.4-35.4-17,.5-3.8-.2-6.9,3-10.2l33.8,17.3c7.9-28.1,32.8-46.8,61.4-46.7s53.6,19.3,60.8,48.4c16.3-6.6,33.1-7.1,49.9.7,6.4-28.9,31.6-48.5,60.1-49.1,28.9-.6,54.2,18.2,62.2,46.6l33-17.2h0v.2Z"/>
  <path class="st7" d="M267.8,443.6c-1.8,14.5,2.4,29,4.1,45.6-8.5.2-16-6.1-21.5-12.8-12.8-15.6-17.7-46.8,3.4-60.1,3.8,6.9,12.6,31.3,14,27.4h0Z"/>
  <path class="st26" d="M619.4,729.9l-21.9,159.3c-14.1-13.1-27.2-23.9-39.9-35.5l-3.3,1.1-26.8-24.5c-2.4-1.6-5.2-2.4-7.5,0-11.3,11.2-22,22.9-32.6,34.7l-7.4,4.1c-4.8,5.8-9.6,12.7-16.6,15.1l86.7-158.8c4.1-7.6,12.6-14.8,13.2-24.6l2-32.4c7.3,3.1,12.7,9.7,18.1,16.3l36.1,45.2h0Z"/>
  <path class="st2" d="M642.1,435.8c.4,2.6,2.5,5.2,1.7,9.2l13-27.1c20.6,8.3,16.5,39.4,6.1,55.7-5.4,8.5-13.8,14.5-24.1,16.1l3.8-40.6c.4-4.6-1.8-9.1-.5-13.2h0Z"/>
  <path class="st11" d="M430.3,869c.9,1.5,1.2,3.2-.3,4.8-1.2,1.2-3.8,2.2-6,.6l-25.4-18.3c-2.9-2.1-6.8-4.4-10.6-2.5-2.5,1.3-26.7,14.9-25,17.2-4.6-3.6-6.5-18.4-10.5-16.5l28.4-25.9c2.3-2.1,7.4-3.6,10.2-.8,13.6,13.8,26,28.1,39.2,41.4h0Z"/>
  <path class="st1" d="M557.5,853.7c-3.5-1-6.5,13.1-10.4,15.5l-21-13.7c-4.7-3.1-9.1-3.6-13.8-.2l-26.1,18.4c-2.2,1.5-4.7,1.5-5.9,0-1.3-1.6-1.2-3.2-.4-4.7,11.7-14.2,24.8-27.4,38-41,3.2-3.3,8.7-2.5,11.7.3l27.9,25.5h0Z"/>
  <path class="st28" d="M397.4,370.9c-23.6-10-48.9-8-69.3,6-2.7,1.8-6.8-.7-7.5-2.7-.8-2.2-1.1-5.8,1.8-7.8,23.6-16.9,54.5-20.8,80.9-8.8,4.3,2,5.8,6.2,4.5,9.6-1.3,3.8-5.6,5.7-10.4,3.6h0Z"/>
  <path class="st29" d="M589.7,374c-5.7,13.6-26.8-24.6-77-2.9-4.1,1.8-8.8,0-10.1-3.8-1.1-3.3.2-7.5,4.4-9.4,26.8-12.2,57.2-8.6,81,9,2.8,2,2.8,4.9,1.8,7.2h-.1Z"/>
  <path class="st9" d="M411.4,574.1c-6.8-1.7-27.9-8.3-25-15.5.8-1.9,3.8-3.8,6.4-2.7,38.3,16.7,87.9,18.2,124.9-2.9,2.1-1.2,5.2-.2,6,1.2,5.1,9.3-18,17-25,19-28.3,8.1-58.1,8.2-87.3.8h0Z"/>
  <path class="st19" d="M426.1,513.2c-2.9-2.4-2.6-7-1.3-8.9,5.7-8.5,25,20,53.4-1.1,2.3-1.7,7-1.5,8.2.2,1.5,2.1,1.9,6.6-.5,8.8-16.9,15-41.9,15.8-59.7,1h-.1Z"/>
  <path class="st27" d="M482.2,599.1c3.9,14.6-60,13.8-53.4.8,3.6-7,19,6.1,46.9-3.6,2.7-.9,5.8.2,6.5,2.8h0Z"/>
  <path class="st12" d="M549.7,545.8c5.3,7.2,10.6,28.4,0,28-8.1-.3,2.5-15.6-13.2-29.8-5.6-5-15.3-12-12.6-17.3,3.9-7.5,22.6,14.7,25.8,19h0Z"/>
  <path class="st23" d="M370.4,548c-10,12-3.3,22.5-8.8,25.1-9.8,4.8-8.4-17.5-.2-27.8,4.5-5.6,17.8-21.7,24.2-18.7,7.3,3.4-8.5,13.5-15.2,21.4h0Z"/>
  <circle class="st31" cx="369.3" cy="435.8" r="53.9"/>
  <circle class="st17" cx="542" cy="435.8" r="53.9"/>
  <path class="st30" d="M381.1,435c-3.2,4-7.3,5.6-11.3,5.6s-8.5-2-11.5-6.1c-7-9.6-7-23.5.2-32.9,5.4-7.1,14.9-8.1,21.1-1.7,9.1,9.4,10,24.6,1.4,35.2h0Z"/>
  <path class="st14" d="M406.2,446.4c-20,29.6-63.3,26.8-62.3,18.7,1.3-10.3,29.2,8,54.6-20.7,1-1.1,3.4-.6,3.9-1.3.7-.9,4.6,2.1,3.8,3.2h0Z"/>
  <path class="st32" d="M552.2,433.7c-3.4,5-8.3,7-13,6.8s-9.1-2.6-11.9-7.3c-5.9-9.8-5.5-23.1,1.8-32,3.1-3.8,7.3-5.7,11.5-5.7s8.6,2.6,11.6,7c6,8.9,6.5,21.7,0,31.1h0Z"/>
  <path class="st35" d="M510.7,444.1c28.1,29.6,53.9,10.4,54.1,20.9,0,2.2-1.1,4.4-4.2,4.9-21.3,3.3-42-4.9-56.7-20.2-1-2.7-1-4.9.8-6.3s4.3-1.2,6,.7h0Z"/>
</svg>