<svg width="71" height="71" viewBox="0 0 71 71" fill="none" xmlns="http://www.w3.org/2000/svg">
<g clip-path="url(#clip0_2120_91973)">
<path d="M35.5 2.95825V68.0416M50.2917 14.7916H28.1042C25.3581 14.7916 22.7244 15.8825 20.7827 17.8243C18.8409 19.766 17.75 22.3997 17.75 25.1458C17.75 27.8918 18.8409 30.5255 20.7827 32.4673C22.7244 34.409 25.3581 35.4999 28.1042 35.4999H42.8958C45.6419 35.4999 48.2756 36.5908 50.2173 38.5326C52.1591 40.4744 53.25 43.108 53.25 45.8541C53.25 48.6002 52.1591 51.2338 50.2173 53.1756C48.2756 55.1174 45.6419 56.2083 42.8958 56.2083H17.75" stroke="#F5C942" stroke-width="6" stroke-linecap="round" stroke-linejoin="round"/>
</g>
<defs>
<clipPath id="clip0_2120_91973">
<rect width="71" height="71" fill="white"/>
</clipPath>
</defs>
</svg>
