<svg width="100" height="100" viewBox="0 0 100 100" fill="none" xmlns="http://www.w3.org/2000/svg">
<circle cx="50" cy="50" r="50" fill="#3CA63C"/>
<path fill-rule="evenodd" clip-rule="evenodd" d="M70.9402 27.9893H29.9691C23.187 28.0042 17.6928 33.4816 17.6778 40.2429V67.2553C17.6723 68.7584 18.2732 70.2003 19.3439 71.2582C20.4242 72.331 21.8896 72.9301 23.4137 72.9192C28.8765 72.9192 29.5594 71.2854 34.8583 61.0468L36.8522 57.2618C38.0882 55.1392 40.3717 53.839 42.834 53.858H58.0753C60.4693 53.8539 62.69 55.1052 63.9205 57.1529C64.8218 58.8412 65.5866 60.3388 66.2695 61.6459C71.186 71.1765 72.0874 72.9192 77.3863 72.9192C78.9391 72.926 80.4332 72.3188 81.538 71.2309C82.6238 70.1472 83.2329 68.6781 83.2315 67.1464V40.2429C83.2165 33.4816 77.7223 28.0042 70.9402 27.9893ZM37.4805 44.3274H35.4319C34.678 44.3274 34.0662 44.9374 34.0662 45.6889V47.7312C34.0662 48.8585 33.1485 49.7735 32.0176 49.7735C30.8868 49.7735 29.9691 48.8585 29.9691 47.7312V45.6889C29.9691 44.9374 29.3573 44.3274 28.6034 44.3274H26.5548C25.424 44.3274 24.5063 43.4125 24.5063 42.2852C24.5063 41.1578 25.424 40.2429 26.5548 40.2429H28.6034C29.3573 40.2429 29.9691 39.6329 29.9691 38.8814V36.8391C29.9691 35.7118 30.8868 34.7968 32.0176 34.7968C33.1485 34.7968 34.0662 35.7118 34.0662 36.8391V38.8814C34.0662 39.6329 34.678 40.2429 35.4319 40.2429H37.4805C38.6113 40.2429 39.529 41.1578 39.529 42.2852C39.529 43.4125 38.6113 44.3274 37.4805 44.3274ZM61.3803 44.3274C59.8712 44.3274 58.6489 43.1089 58.6489 41.6044C58.6489 40.0999 59.8712 38.8814 61.3803 38.8814C62.8894 38.8814 64.1117 40.0999 64.1117 41.6044C64.1117 43.1089 62.8894 44.3274 61.3803 44.3274ZM68.2088 49.7735C66.6997 49.7735 65.4774 48.5549 65.4774 47.0505C65.4774 45.546 66.6997 44.3274 68.2088 44.3274C69.7179 44.3274 70.9402 45.546 70.9402 47.0505C70.9402 48.5549 69.7179 49.7735 68.2088 49.7735ZM68.2088 38.8814C66.6997 38.8814 65.4774 37.6628 65.4774 36.1583C65.4774 34.6539 66.6997 33.4353 68.2088 33.4353C69.7179 33.4353 70.9402 34.6539 70.9402 36.1583C70.9402 37.6628 69.7179 38.8814 68.2088 38.8814ZM75.0373 44.3274C73.5282 44.3274 72.3059 43.1089 72.3059 41.6044C72.3059 40.0999 73.5282 38.8814 75.0373 38.8814C76.5464 38.8814 77.7687 40.0999 77.7687 41.6044C77.7687 43.1089 76.5464 44.3274 75.0373 44.3274Z" fill="white"/>
</svg>
