<svg width="135" height="135" viewBox="0 0 135 135" fill="none" xmlns="http://www.w3.org/2000/svg">
<path opacity="0.91" d="M60.4289 7.07106C64.3342 3.16582 70.6658 3.16582 74.5711 7.07107L127.929 60.4289C131.834 64.3342 131.834 70.6658 127.929 74.5711L74.5711 127.929C70.6658 131.834 64.3342 131.834 60.4289 127.929L7.07106 74.5711C3.16582 70.6658 3.16582 64.3342 7.07107 60.4289L60.4289 7.07106Z" fill="white" fill-opacity="0.66"/>
<path d="M23.3582 73.8765L14.5728 67.4575L23.3582 61.0384V64.5094C23.3582 64.7947 23.5969 64.9849 23.8357 64.9849H30.2815C30.5202 65.4129 30.7589 65.8408 31.0454 66.2687C32.1436 67.8378 33.6715 69.1217 35.4381 69.8824H23.8357C23.5492 69.8824 23.3582 70.1202 23.3582 70.3579V73.829V73.8765ZM56.6855 65.0325V69.93H46.038C42.8389 69.93 40.2606 72.4976 40.2606 75.6834V77.7755C40.2606 78.0608 40.4993 78.251 40.738 78.251H44.2236L37.7777 87L31.3319 78.251H34.8174C35.1039 78.251 35.2949 78.0133 35.2949 77.7755V74.78C35.2949 73.306 35.6291 71.927 36.2021 70.6432C36.2976 70.4055 36.4408 70.2153 36.5363 69.9775C38.2552 66.9344 41.5497 65.0325 45.0353 65.0325H56.6378H56.6855ZM38.9714 56.7114H35.4859C35.1994 56.7114 35.0084 56.9492 35.0084 57.1869V59.2791C35.0084 62.4173 37.539 64.9374 40.6426 65.0325C40.5471 65.08 40.4038 65.1276 40.3083 65.1751C40.2128 65.2227 40.1173 65.2702 40.0218 65.3178C40.0218 65.3178 39.9263 65.3178 39.9263 65.3653C39.8309 65.3653 39.7831 65.4604 39.7354 65.508C39.7354 65.508 39.6399 65.5555 39.5921 65.6031C39.5444 65.6031 39.4489 65.6981 39.4011 65.6981C39.4011 65.6981 39.3056 65.7457 39.2579 65.7932C39.2101 65.7932 39.1147 65.8883 39.0669 65.9359C39.0669 65.9359 38.9714 65.9834 38.9237 66.031C38.8759 66.031 38.8282 66.1261 38.7327 66.1736C38.7327 66.1736 38.6372 66.2212 38.5894 66.2687C38.5417 66.2687 38.4462 66.3638 38.3985 66.4114C38.3985 66.4114 38.303 66.4589 38.303 66.5065C38.2552 66.554 38.1597 66.6016 38.112 66.6491C38.112 66.6491 38.0642 66.6967 38.0165 66.7442C37.921 66.8393 37.8732 66.8869 37.7777 66.982C37.6822 67.0771 37.5868 67.1722 37.4913 67.2197C37.3958 67.2673 37.4435 67.2673 37.3958 67.3148C37.348 67.3624 37.2525 67.4575 37.2048 67.505C37.2048 67.505 37.157 67.5526 37.1093 67.6001C37.0615 67.6476 37.0138 67.6952 36.966 67.7903C36.966 67.7903 36.9183 67.8854 36.8706 67.8854C36.8228 67.9329 36.7751 67.9805 36.7273 68.0756L36.6318 68.2182C36.6318 68.2658 36.5363 68.3609 36.4886 68.4084C36.4886 68.4084 36.4408 68.5035 36.3931 68.5511C36.3931 68.5986 36.2976 68.6937 36.2498 68.7413C36.2498 68.7413 36.2021 68.8364 36.1543 68.8839C36.1543 68.9315 36.0589 69.0266 36.0111 69.0741C36.0111 69.0741 36.0111 69.1217 35.9634 69.1692C32.3823 67.6001 30.0905 64.1766 30.0905 60.23V57.2345C30.0905 56.9492 29.8518 56.759 29.613 56.759H26.1275L32.5733 48.01L39.0192 56.759L38.9714 56.7114Z" fill="#193E75"/>
<path d="M49.1626 81.8885V53.7419C49.1626 53.3295 49.4204 53.0718 49.8328 53.0718H61.3801C67.1022 53.0718 69.525 55.4946 69.525 60.8559C69.525 66.2171 68.7518 65.4954 66.2258 66.7842V67.1451C68.9064 68.1761 70.4529 70.2381 70.4529 72.8156V74.723C70.4529 80.342 67.7208 82.5071 61.4832 82.5071H49.8843C49.4719 82.5071 49.2141 82.2493 49.2141 81.8369L49.1626 81.8885ZM60.4006 64.9799C61.8956 64.9799 63.2359 64.6706 63.2359 62.4024V61.2683C63.2359 58.897 61.9987 58.6908 60.4006 58.6908H55.5033V64.9799H60.4006ZM60.9677 76.8881C62.9781 76.8881 64.1122 76.3726 64.1122 74.3621V72.7125C64.1122 70.6505 62.9781 69.9288 60.9677 69.9288H55.5033V76.8881H60.9677Z" fill="#193E75"/>
<path d="M69.6284 53.0718H74.6288C75.0927 53.0718 75.3505 53.2264 75.5567 53.6904L80.3509 64.7222H80.7117L85.5059 53.6904C85.7121 53.2264 85.9699 53.0718 86.4854 53.0718H91.4858C92.0013 53.0718 92.3106 53.3295 92.0528 53.8966L83.7017 71.9392V81.94C83.7017 82.3524 83.4439 82.6102 83.0315 82.6102H78.0826C77.6702 82.6102 77.4125 82.3524 77.4125 81.94V71.9392L69.0613 53.8966C68.752 53.3295 69.0613 53.0718 69.6284 53.0718Z" fill="#193E75"/>
<path d="M93.5479 81.8885V53.7419C93.5479 53.3295 93.8056 53.0718 94.218 53.0718H106.281C112.415 53.0718 114.993 56.6803 114.993 61.8869V66.578C114.993 71.733 112.415 75.3931 106.281 75.3931H99.837V81.94C99.837 82.3524 99.5793 82.6102 99.1669 82.6102H94.218C93.8056 82.6102 93.5479 82.3524 93.5479 81.94V81.8885ZM105.765 69.7226C107.466 69.7226 108.704 69.0009 108.704 66.3718V62.0416C108.704 59.5156 107.415 58.6908 105.765 58.6908H99.8886V69.671H105.765V69.7226Z" fill="#193E75"/>
</svg>
