<svg width="235" height="108" viewBox="0 0 235 108" fill="none" xmlns="http://www.w3.org/2000/svg">
<rect width="235" height="108" rx="20" fill="#193E75"/>
<path d="M85.7855 46.8253H71.9361C71.7514 45.4034 71.3729 44.12 70.8004 42.9751C70.228 41.8303 69.4709 40.8516 68.5291 40.0391C67.5874 39.2266 66.4702 38.608 65.1776 38.1832C63.9034 37.7401 62.4908 37.5185 60.9396 37.5185C58.1882 37.5185 55.8153 38.1925 53.821 39.5405C51.8452 40.8885 50.3217 42.8366 49.2507 45.3849C48.1982 47.9332 47.6719 51.017 47.6719 54.6364C47.6719 58.4034 48.2074 61.5611 49.2784 64.1094C50.3679 66.6392 51.8913 68.5504 53.8487 69.843C55.8246 71.1172 58.1605 71.7543 60.8565 71.7543C62.3707 71.7543 63.7465 71.5604 64.9837 71.1726C66.2393 70.7848 67.3381 70.2216 68.2798 69.483C69.2401 68.7259 70.0249 67.8118 70.6342 66.7408C71.2621 65.6513 71.696 64.4233 71.9361 63.0568L85.7855 63.1399C85.5455 65.6513 84.8161 68.1257 83.5973 70.5632C82.397 73.0007 80.7443 75.2259 78.6392 77.2386C76.5341 79.233 73.9673 80.821 70.9389 82.0028C67.929 83.1847 64.4759 83.7756 60.5795 83.7756C55.446 83.7756 50.848 82.6491 46.7855 80.3963C42.7415 78.125 39.5469 74.8196 37.2017 70.4801C34.8565 66.1406 33.6839 60.8594 33.6839 54.6364C33.6839 48.3949 34.875 43.1044 37.2571 38.7649C39.6392 34.4254 42.8615 31.1293 46.924 28.8764C50.9865 26.6236 55.5384 25.4972 60.5795 25.4972C64.0142 25.4972 67.1903 25.9773 70.108 26.9375C73.0256 27.8793 75.5923 29.2642 77.8082 31.0923C80.0241 32.902 81.8246 35.1271 83.2095 37.7678C84.5945 40.4084 85.4531 43.4276 85.7855 46.8253ZM90.8059 26.2727H106.123L118.117 50.0107H118.616L130.609 26.2727H145.927L125.18 64.054V83H111.552V64.054L90.8059 26.2727ZM199.434 46.8253H185.585C185.4 45.4034 185.021 44.12 184.449 42.9751C183.876 41.8303 183.119 40.8516 182.178 40.0391C181.236 39.2266 180.119 38.608 178.826 38.1832C177.552 37.7401 176.139 37.5185 174.588 37.5185C171.837 37.5185 169.464 38.1925 167.469 39.5405C165.494 40.8885 163.97 42.8366 162.899 45.3849C161.847 47.9332 161.32 51.017 161.32 54.6364C161.32 58.4034 161.856 61.5611 162.927 64.1094C164.016 66.6392 165.54 68.5504 167.497 69.843C169.473 71.1172 171.809 71.7543 174.505 71.7543C176.019 71.7543 177.395 71.5604 178.632 71.1726C179.888 70.7848 180.987 70.2216 181.928 69.483C182.888 68.7259 183.673 67.8118 184.283 66.7408C184.911 65.6513 185.344 64.4233 185.585 63.0568L199.434 63.1399C199.194 65.6513 198.464 68.1257 197.246 70.5632C196.045 73.0007 194.393 75.2259 192.288 77.2386C190.183 79.233 187.616 80.821 184.587 82.0028C181.577 83.1847 178.124 83.7756 174.228 83.7756C169.094 83.7756 164.496 82.6491 160.434 80.3963C156.39 78.125 153.195 74.8196 150.85 70.4801C148.505 66.1406 147.332 60.8594 147.332 54.6364C147.332 48.3949 148.523 43.1044 150.906 38.7649C153.288 34.4254 156.51 31.1293 160.572 28.8764C164.635 26.6236 169.187 25.4972 174.228 25.4972C177.663 25.4972 180.839 25.9773 183.756 26.9375C186.674 27.8793 189.241 29.2642 191.457 31.0923C193.673 32.902 195.473 35.1271 196.858 37.7678C198.243 40.4084 199.102 43.4276 199.434 46.8253Z" fill="white"/>
</svg>
