<?xml version="1.0" encoding="UTF-8"?>
<svg id="Layer_1" xmlns="http://www.w3.org/2000/svg" version="1.1" viewBox="0 0 406.4 142">
  <!-- Generator: Adobe Illustrator 29.0.1, SVG Export Plug-In . SVG Version: 2.1.0 Build 192)  -->
  <defs>
    <style>
      .st0 {
        fill: #fff;
      }

      .st1 {
        fill: #ffc709;
      }
    </style>
  </defs>
  <g>
    <rect class="st0" x="3.2" y="3.2" width="290.8" height="67.2"/>
    <rect class="st1" x="3.2" y="70.4" width="400.6" height="68.4"/>
  </g>
  <g>
    <path d="M21.7,89h8.5l6.7,13.8,6.7-13.8h8.4v31.9h-7v-19.5l-5.5,11h-5.3l-5.5-11v19.5h-7v-31.9Z"/>
    <path d="M57.2,112.6c0-3.9,1.8-7,5.7-8.2-2.3-.8-4.7-3.5-4.7-7.3s4.3-8.8,10.9-8.8,10.9,3.9,10.9,8.8-2.4,6.5-4.7,7.3c3.9,1.2,5.7,4.3,5.7,8.2s-4.9,9-11.9,9-11.9-3.7-11.9-9ZM69.1,115.3c3.1,0,4.9-1.7,4.9-3.8s-1.9-3.9-4.9-3.9-4.9,1.9-4.9,3.9,1.7,3.8,4.9,3.8ZM69.1,101.2c2.4,0,3.9-1.7,3.9-3.4s-1.5-3.3-3.9-3.3-3.9,1.5-3.9,3.3,1.5,3.4,3.9,3.4Z"/>
    <path d="M84.2,104.9c0-10.1,5.3-16.7,14.2-16.7s14.1,6.6,14.2,16.7c0,10.1-5.3,16.7-14.2,16.7s-14.2-6.5-14.2-16.7ZM98.4,115.3c4.6,0,7.2-3.8,7.2-10.4s-2.6-10.4-7.2-10.4-7.2,3.8-7.2,10.4,2.6,10.4,7.2,10.4Z"/>
    <path d="M128.5,89h12.1c7.5,0,12.1,4.2,12.1,10.9s-2.1,8.1-5.8,9.8l5.9,11.2h-7.7l-5.2-10h-4.4v10h-7v-31.9h0ZM140.7,104.6c3.4,0,5.1-1.7,5.1-4.7s-1.7-4.7-5.1-4.7h-5.1v9.3h5.1Z"/>
    <path d="M158.1,115.9h4.5v-22h-4.5v-5h16v5h-4.5v22h4.5v5h-16v-5Z"/>
    <path d="M180.2,89h7.3l10.7,18.3v-18.3h7v31.9h-7.3l-10.7-18.3v18.4h-7v-32Z"/>
    <path d="M210.7,104.9c0-10.6,7.8-16.7,16.3-16.7s11.8,3.2,14.1,8.6l-6.2,2.1c-1.5-3.1-4.2-4.4-7.8-4.4s-9.3,3.7-9.3,10.4,4.4,10.4,9.3,10.4,8-2.1,8-5.8h-8v-6.3h15v17.7h-6.2l-.3-2.3c-2.4,2.1-5.2,3.1-8.5,3.1-8.7,0-16.4-6.2-16.4-16.8Z"/>
    <path d="M260.5,89h12.1c7.5,0,12.1,4.2,12.1,10.9s-2.1,8.1-5.8,9.8l5.9,11.2h-7.7l-5.2-10h-4.4v10h-7v-31.9ZM272.7,104.6c3.4,0,5.1-1.7,5.1-4.7s-1.7-4.7-5.1-4.7h-5.1v9.3h5.1Z"/>
    <path d="M288.9,104.9c0-9.7,6.7-16.7,16.2-16.7s16.2,7,16.2,16.7-6.7,16.7-16.2,16.7-16.2-7-16.2-16.7ZM305,115.3c5.5,0,9.2-4.1,9.2-10.4s-3.6-10.4-9.2-10.4-9.2,4.1-9.2,10.4c.1,6.3,3.7,10.4,9.2,10.4Z"/>
    <path d="M342,89l10.2,31.9h-7.3l-1.9-6.4h-10.5l-1.9,6.4h-7.2l10.1-31.9h8.5ZM341,108.2l-1.9-6.3-1.4-4.8-1.4,4.8-2,6.3h6.7Z"/>
    <path d="M356.5,89h12.8c8.2,0,15.7,5.9,15.7,16s-7.5,16-15.7,16h-12.8v-32ZM369.3,114.6c4.5,0,8.7-3.6,8.7-9.7s-4.2-9.7-8.7-9.7h-5.8v19.3h5.8Z"/>
  </g>
  <g>
    <path d="M297.5,67.4V0H0v142h406.4v-74.6h-108.9ZM290.5,7v60.4H123.6V7h166.9ZM7,7h109.4v60.4H7V7ZM399.4,135H7v-60.6h392.4v60.6Z"/>
    <path d="M40.3,36.7c3.1-.8,4.6-3.5,4.6-6.7,0-6-3.7-8.6-10.3-8.6h-12.9v31.9h12.9c6.9,0,11.1-3.4,11.1-8.9,0-4.1-2.1-7-5.4-7.7ZM28.7,27.7h5.8c1.9,0,3.3,1,3.3,3.1s-1.4,3.1-3.3,3.1h-5.8v-6.2ZM34.6,47h-5.9v-6.7h5.9c2.5,0,4,1.2,4,3.4s-1.5,3.3-4,3.3Z"/>
    <polygon points="50.8 26.4 55.2 26.4 55.2 48.4 50.8 48.4 50.8 53.3 66.7 53.3 66.7 48.4 62.2 48.4 62.2 26.4 66.7 26.4 66.7 21.4 50.8 21.4 50.8 26.4"/>
    <path d="M87.5,35.6v6.3h8c0,3.8-3.2,5.8-8,5.8s-9.3-3.7-9.3-10.4,4.4-10.3,9.3-10.3,6.3,1.2,7.8,4.4l6.2-2.1c-2.3-5.4-7.1-8.6-14.1-8.6s-16.3,6.1-16.3,16.7c0,10.5,7.9,16.6,16.4,16.6s6.1-1,8.5-3.1l.3,2.3h6.2v-17.6h-15Z"/>
    <path d="M163,44.5c0-4.1-2-7-5.4-7.8,3.1-.8,4.6-3.5,4.6-6.7,0-6-3.7-8.6-10.3-8.6h-12.9v31.9h12.9c6.9,0,11.1-3.4,11.1-8.8ZM146.1,27.7h5.8c1.9,0,3.3,1,3.3,3.1s-1.4,3.1-3.3,3.1h-5.8v-6.2ZM146.1,40.3h5.9c2.5,0,4,1.2,4,3.4s-1.6,3.4-4,3.4h-5.9v-6.8Z"/>
    <path d="M180.7,54c8.2,0,12.5-4.2,12.5-11.9v-20.7h-7v20.2c0,4-1.6,6.1-5.5,6.1s-5.5-2.1-5.5-6.1v-20.2h-7v20.7c.1,7.8,4.4,11.9,12.5,11.9Z"/>
    <polygon points="214.8 48.4 210.4 48.4 210.4 26.4 214.8 26.4 214.8 21.4 198.9 21.4 198.9 26.4 203.4 26.4 203.4 48.4 198.9 48.4 198.9 53.3 214.8 53.3 214.8 48.4"/>
    <polygon points="243.8 47 228.5 47 228.5 21.4 221.5 21.4 221.5 53.3 243.8 53.3 243.8 47"/>
    <path d="M276.4,37.4c0-10.1-7.5-16-15.7-16h-12.7v31.9h12.8c8.1,0,15.6-5.9,15.6-15.9ZM255,27.7h5.8c4.5,0,8.7,3.6,8.7,9.7s-4.2,9.7-8.7,9.7h-5.8v-19.4Z"/>
  </g>
</svg>