<svg width="59" height="59" viewBox="0 0 59 59" fill="none" xmlns="http://www.w3.org/2000/svg">
<circle cx="29.5" cy="29.5" r="29.5" fill="#F5C942"/>
<path d="M29.3722 10.7908V47.628M37.7443 17.4884H25.1861C23.6319 17.4884 22.1412 18.1059 21.0422 19.2049C19.9431 20.304 19.3257 21.7946 19.3257 23.3489C19.3257 24.9032 19.9431 26.3938 21.0422 27.4929C22.1412 28.5919 23.6319 29.2094 25.1861 29.2094H33.5582C35.1125 29.2094 36.6032 29.8268 37.7022 30.9259C38.8013 32.0249 39.4187 33.5156 39.4187 35.0698C39.4187 36.6241 38.8013 38.1148 37.7022 39.2138C36.6032 40.3129 35.1125 40.9303 33.5582 40.9303H19.3257" stroke="#193E75" stroke-width="6" stroke-linecap="round" stroke-linejoin="round"/>
</svg>
