<?xml version="1.0" encoding="UTF-8"?>
<svg id="Layer_1" xmlns="http://www.w3.org/2000/svg" version="1.1" viewBox="0 0 555.1 131.6">
  <!-- Generator: Adobe Illustrator 29.0.1, SVG Export Plug-In . SVG Version: 2.1.0 Build 192)  -->
  <defs>
    <style>
      .st0 {
        fill: #e61e2a;
      }

      .st1 {
        fill: #fff;
      }

      .st2 {
        fill: #000054;
      }
    </style>
  </defs>
  <path class="st0" d="M45.3,0h-11.6v9.4H14.5v19.6H0v28.7h14.5v19.6h19.2v9.4h10.2c23.8,0,44.8-19.2,44.8-43.2S69.1,0,45.3,0"/>
  <g>
    <polygon class="st2" points="301.8 8.3 311.8 8.3 311.8 4.6 276.9 4.6 276.9 8.3 287 8.3 287 78.3 276.9 78.3 276.9 82 311.8 82 311.8 78.3 301.8 78.3 301.8 8.3"/>
    <path class="st2" d="M365.1,82v-3.6h-10.7V7.5c16.3-.8,19.1,2.7,21.2,17.5h3.6l-1.3-20.4h-62l-1.3,20.4h3.7c2.1-14.8,4.9-18.3,21.2-17.5v70.8h-10.7v3.6h36.2"/>
    <path class="st2" d="M131.7,37.8V8.2h10.1c10.3,0,14.1,2.6,14.1,15.6s-4.3,13.9-14.7,13.9h-9.5M270.3,8.2v-3.7h-28.5l-16.8,52.9-16.2-52.9h-28.4v3.7h10v70.1h-10.8c-10,.2-10.2-8.3-10.1-10.1.1-18.9-4.1-25.7-22.2-28.5v-.3c10.8-1.1,24.6-4.2,24.6-17.3s-15-17.6-27.7-17.6h-37.3v3.7h10v70.1h-10v3.6h34.8v-3.6h-10v-36.9c6.4-.3,13.6,1.4,16.9,4.2,3,2.6,4.6,10.5,4.6,20.1s6.1,16.3,17.8,16.3h33.5v-3.6h-9.8V9.4h.2l23,72.5h3.9l23.2-72.5h.4v68.9h-10v3.6h34.8v-3.6h-10V8.2h10Z"/>
  </g>
  <g>
    <path class="st2" d="M116.8,105.4c0-.6-.3-.9-.9-.9h-1.8v-3.7h4.3c1.9,0,2.8.8,2.8,2.8v16.8c0,4.5,2.9,7.3,7.3,7.3s7.3-2.7,7.3-7.3v-16.8c0-1.9.9-2.8,2.8-2.8h4.3v3.7h-1.8c-.6,0-.9.3-.9.9v15.1c0,6.6-4.6,11.1-11.5,11.1s-11.6-4.5-11.6-11.1v-15.1Z"/>
    <path class="st2" d="M145.6,127.4h1.8c.6,0,1-.3,1-.9v-25.7h3.9l13.5,19.2c1.1,1.6,2.5,4.1,2.5,4.1h0s-.3-2.4-.3-4.1v-16.5c0-1.9.8-2.8,2.8-2.8h4.3v3.7h-1.8c-.6,0-.9.3-.9.9v25.7h-3.9l-13.5-19.2c-1.1-1.6-2.5-4.1-2.5-4.1h0s.3,2.4.3,4.1v16.5c0,1.9-.8,2.8-2.7,2.8h-4.3v-3.7Z"/>
    <polygon class="st2" points="179.9 127.4 182.9 127.4 182.9 104.4 179.9 104.4 179.9 100.7 189.9 100.7 189.9 104.4 187 104.4 187 127.4 189.9 127.4 189.9 131.1 179.9 131.1 179.9 127.4"/>
    <path class="st2" d="M194.6,105.4c-.3-.8-.7-.9-1.4-.9h-.6v-3.7h2.4c2.1,0,2.9.5,3.6,2.5l6.7,18.7c.6,1.6,1.2,4.2,1.2,4.2h0s.6-2.5,1.2-4.2l6.7-18.7c.7-2,1.4-2.5,3.6-2.5h2.4v3.7h-.6c-.8,0-1.2.2-1.4.9l-9.5,25.7h-4.5l-9.5-25.7Z"/>
    <path class="st2" d="M225.5,104.4h-2.8v-3.7h17.8c1.9,0,2.7.8,2.7,2.8v3.8h-3.9v-1.9c0-.6-.3-.9-.9-.9h-8.6v9.5h10.6v3.7h-10.6v8.8c0,.6.3.9.9.9h8.8c.6,0,1-.3,1-.9v-1.9h4v3.8c0,1.9-.8,2.8-2.7,2.8h-13.5c-1.9,0-2.8-.8-2.8-2.8v-23.9Z"/>
    <path class="st2" d="M250.6,104.4h-2.8v-3.7h13.2c5.3,0,9.1,3.4,9.1,8.9s-3.3,7.6-5.5,8h0c0,0,.8.5,1.3,1.5l3.7,7.3c.4.9,1.1,1,2.1,1h.6v3.7h-2.1c-2.4,0-3.2-.3-4.2-2.3l-4.1-8.2c-.8-1.4-1.3-1.6-3-1.6h-4v12.1h-4.3v-26.6ZM260.4,115.3c3.3,0,5.2-2.1,5.2-5.5s-1.9-5.4-5.1-5.4h-5.7v10.9h5.6Z"/>
    <path class="st2" d="M277.8,124s3.1,3.7,7.6,3.7,5.2-1.7,5.2-4.5c0-6.4-14.7-5.4-14.7-14.8s4-8.1,9.7-8.1,8.6,1.5,8.6,5.6v2.5h-3.9v-1.4c0-1.6-2.3-2.8-4.7-2.8s-5.3,1.8-5.3,4.1c0,6.1,14.6,4.8,14.6,14.7s-3.6,8.6-9.6,8.6-10.1-4.5-10.1-4.5l2.5-3Z"/>
    <polygon class="st2" points="299.4 127.4 302.4 127.4 302.4 104.4 299.4 104.4 299.4 100.7 309.4 100.7 309.4 104.4 306.4 104.4 306.4 127.4 309.4 127.4 309.4 131.1 299.4 131.1 299.4 127.4"/>
    <path class="st2" d="M323.1,104.4h-6.1c-.6,0-.9.3-.9.9v1.9h-3.8v-4c0-1.9.6-2.6,2.6-2.6h20.9c1.9,0,2.6.6,2.6,2.6v4h-3.8v-1.9c0-.6-.3-.9-.9-.9h-6.1v26.6h-4.3v-26.6Z"/>
    <path class="st2" d="M350.5,117.8l-7.7-12.3c-.6-.9-.9-1.1-1.9-1.1h-.9v-3.7h2c2.1,0,2.9.3,4.1,2.3l4.6,7.6c1,1.7,1.8,3.4,1.8,3.4h0s.8-1.7,1.8-3.4l4.6-7.6c1.2-2,2.1-2.3,4.1-2.3h2v3.7h-.8c-.9,0-1.3.2-1.9,1.1l-7.6,12.3v13.2h-4.3v-13.2Z"/>
  </g>
  <rect class="st0" x="398.1" y="4.9" width="156.9" height="76.8"/>
  <g>
    <path class="st1" d="M415.5,20.6c-.1-.6-.5-.7-1.1-.7h-.6v-3.7h2.8c1.7,0,2.5.4,2.9,1.9l3.2,14c.3,1.3.4,2.5.4,2.5h0s.1-1.1.5-2.5l4.3-15.8h3.7l4,15.8c.4,1.4.5,2.5.5,2.5h0s0-1.2.4-2.5l3.2-14c.3-1.5,1.2-1.9,2.9-1.9h2.8v3.7h-.6c-.6,0-.9.2-1.1.7l-4.9,19h-5l-3.6-13.3c-.4-1.5-.6-2.9-.6-2.9h0s-.2,1.4-.6,2.9l-3.7,13.3h-5l-4.9-19Z"/>
    <path class="st1" d="M454.8,22.4c5.1,0,9.2,3.7,9.2,8.8s-4.1,8.8-9.2,8.8-9.2-3.6-9.2-8.8,4.1-8.8,9.2-8.8ZM454.8,36.4c2.7,0,5-2.1,5-5.2s-2.3-5.2-5-5.2-5,2.1-5,5.2,2.3,5.2,5,5.2Z"/>
    <path class="st1" d="M468.2,27.1c0-.5-.3-.7-.7-.7h-1.3v-3.6h3.9c1.5,0,2.2.7,2.2,1.9v.5c0,.4,0,.7,0,.7h0c.8-1.7,2.8-3.5,5.4-3.5s4.2,1.2,4.9,3.5h0c.9-1.8,3.1-3.5,5.7-3.5s5.5,2,5.5,6.4v6.6c0,.5.3.7.7.7h1.3v3.5h-4c-1.6,0-2.2-.7-2.2-2.2v-7.8c0-1.9-.4-3.4-2.3-3.4s-3.6,1.8-4,3.9c-.2.7-.3,1.4-.3,2.1v7.4h-4.2v-10c0-1.8-.3-3.4-2.3-3.4s-3.5,1.8-4.1,3.9c-.2.7-.3,1.4-.3,2.1v7.4h-4.2v-12.5Z"/>
    <path class="st1" d="M506.5,22.4c4.8,0,7.5,3.5,7.5,8s0,1.6,0,1.6h-11.6c.3,3,2.5,4.5,5,4.5s4.7-1.9,4.7-1.9l1.7,2.9s-2.6,2.5-6.8,2.5-9-4-9-8.8,3.5-8.8,8.5-8.8ZM509.7,29c0-2-1.5-3.4-3.2-3.4s-3.7,1.3-4.1,3.4h7.3Z"/>
    <path class="st1" d="M518.4,27.1c0-.5-.3-.7-.7-.7h-1.3v-3.6h3.9c1.5,0,2.2.7,2.2,1.9v.5c0,.4,0,.7,0,.7h0c.7-1.4,2.5-3.5,5.9-3.5s5.9,1.9,5.9,6.4v6.6c0,.5.3.7.7.7h1.3v3.5h-4c-1.6,0-2.2-.7-2.2-2.2v-7.7c0-2-.5-3.4-2.6-3.4s-3.9,1.4-4.5,3.4c-.2.7-.3,1.5-.3,2.2v7.7h-4.2v-12.5Z"/>
    <path class="st1" d="M416.1,59.1c0-.5-.3-.7-.7-.7h-1.3v-3.6h4c1.6,0,2.2.7,2.2,2.2v10.3c0,.5.3.7.7.7h1.3v3.5h-4c-1.6,0-2.2-.7-2.2-2.2v-10.3ZM416.3,48.2h3.6v3.9h-3.6v-3.9Z"/>
    <path class="st1" d="M426.2,59.1c0-.5-.3-.7-.7-.7h-1.3v-3.6h3.9c1.5,0,2.2.7,2.2,1.9v.5c0,.4,0,.7,0,.7h0c.7-1.4,2.5-3.5,5.9-3.5s5.9,1.9,5.9,6.4v6.6c0,.5.3.7.7.7h1.3v3.5h-4c-1.6,0-2.2-.7-2.2-2.2v-7.7c0-2-.5-3.4-2.6-3.4s-3.9,1.4-4.5,3.4c-.2.7-.3,1.5-.3,2.2v7.7h-4.2v-12.5Z"/>
    <path class="st1" d="M457.6,65.3s2.4,2.8,5.7,2.8,3.4-1,3.4-2.8c0-4-11-3.7-11-11s3.3-6.6,7.8-6.6,7,1.3,7,4.6v2.2h-3.9v-1.1c0-1.1-1.6-1.8-3.1-1.8s-3.4,1-3.4,2.5c0,4,11,3.2,11,10.9s-2.9,6.9-7.8,6.9-8.1-3.6-8.1-3.6l2.4-3Z"/>
    <path class="st1" d="M481.1,51.8h-3.6c-.5,0-.7.3-.7.7v1.4h-3.8v-3.7c0-1.6.5-2.1,2.1-2.1h16.3c1.6,0,2.1.6,2.1,2.1v3.7h-3.8v-1.4c0-.5-.3-.7-.7-.7h-3.6v19.8h-4.3v-19.8Z"/>
    <path class="st1" d="M498.1,51.8h-2.1v-3.7h14.2c1.6,0,2.2.7,2.2,2.2v3.6h-3.9v-1.4c0-.5-.3-.7-.7-.7h-5.3v6.1h7.6v3.7h-7.6v5.6c0,.5.3.7.7.7h5.4c.5,0,.7-.3.7-.7v-1.4h3.9v3.6c0,1.6-.7,2.2-2.2,2.2h-10.6c-1.6,0-2.2-.7-2.2-2.2v-17.5Z"/>
    <path class="st1" d="M515.4,67.9h1c.5,0,.7-.3.7-.7l1.5-19h4.5l4.8,11.2c.6,1.4,1.2,3.1,1.2,3.1h0s.6-1.8,1.2-3.1l4.8-11.2h4.5l1.5,19c0,.5.3.7.7.7h1v3.7h-3.7c-1.6,0-2.1-.7-2.2-2.2l-.8-10.4c-.1-1.6,0-3.6,0-3.6h0s-.7,2.3-1.3,3.6l-3.9,8.6h-3.5l-3.9-8.6c-.6-1.3-1.3-3.7-1.3-3.7h0s0,2.1,0,3.7l-.8,10.4c-.1,1.6-.7,2.2-2.2,2.2h-3.7v-3.7Z"/>
  </g>
</svg>