<?xml version="1.0" encoding="UTF-8"?>
<svg id="Layer_1" xmlns="http://www.w3.org/2000/svg" version="1.1" viewBox="0 0 2752 1536">
  <!-- Generator: Adobe Illustrator 30.1.0, SVG Export Plug-In . SVG Version: 2.1.1 Build 136)  -->
  <defs>
    <style>
      .st0 {
        fill: #b9b8bd;
      }

      .st1 {
        fill: #b7b7bc;
      }

      .st2 {
        fill: #b7b6bd;
      }

      .st3 {
        fill: #cfd2d8;
      }

      .st4 {
        fill: #cecfd5;
      }

      .st5 {
        fill: #d2d3d8;
      }

      .st6 {
        fill: #d2d2d7;
      }

      .st7 {
        fill: #d1d3d8;
      }

      .st8 {
        fill: #9fa1ad;
      }

      .st9 {
        fill: #b8b7bd;
      }

      .st10 {
        fill: #d0d2d6;
      }

      .st11 {
        fill: #bab9be;
      }

      .st12 {
        fill: #d3d5d9;
      }

      .st13 {
        fill: #b1b0b7;
      }

      .st14 {
        fill: #d0d1d6;
      }

      .st15 {
        fill: #d3d4d8;
      }

      .st16 {
        fill: #9fa1aa;
      }

      .st17 {
        fill: #d1d3d7;
      }

      .st18 {
        fill: #b2b2b9;
      }

      .st19 {
        fill: #b9b9be;
      }

      .st20 {
        fill: #d1d2d8;
      }

      .st21 {
        fill: #d2d4d8;
      }

      .st22 {
        fill: #b8b7bc;
      }

      .st23 {
        fill: #b8b8bd;
      }

      .st24 {
        fill: #9ea0ac;
      }

      .st25 {
        fill: #d3d4d9;
      }

      .st26 {
        fill: #b6b6bd;
      }

      .st27 {
        fill: #b7b7bd;
      }

      .st28 {
        fill: #9da1ad;
      }

      .st29 {
        fill: #a0a1ac;
      }

      .st30 {
        fill: #d1d4d9;
      }

      .st31 {
        fill: #b7b6bc;
      }

      .st32 {
        fill: #b9b8be;
      }

      .st33 {
        fill: #cccfd5;
      }

      .st34 {
        fill: #d2d3d7;
      }

      .st35 {
        fill: #d3d3d8;
      }

      .st36 {
        fill: #b8b7be;
      }

      .st37 {
        fill: #d2d2d8;
      }

      .st38 {
        fill: #bab9bf;
      }

      .st39 {
        fill: #b3b4ba;
      }

      .st40 {
        fill: #b6b7bd;
      }

      .st41 {
        fill: #d2d4d9;
      }

      .st42 {
        fill: #ced0d6;
      }

      .st43 {
        fill: #d4d4d9;
      }

      .st44 {
        fill: #b3b3ba;
      }

      .st45 {
        fill: #9ea1ad;
      }

      .st46 {
        fill: #d1d2d7;
      }

      .st47 {
        fill: #b8b8be;
      }

      .st48 {
        fill: #aeafb6;
      }

      .st49 {
        fill: #b7b7be;
      }
    </style>
  </defs>
  <path class="st35" d="M0,76V0h2752v231.9l-1.9,3.7-17.1,6.7c4.4,8.4-1.7,11-9.4,11.5-12.8-1.2-27.1,3.5-26.8,17.9-2.5,3.9-6.5,5.6-9.3,1.5-6.4.6-22,2-27.2-.8s-4-3.9-3.3-7.9c3.3-3.2.8-4.1-7.3-2.7-4.3-5.5-6.9-6.7-7.8-3.6-5.5,17.1-21.4,3.5-26.9-6.9-5.9,1.7-11.9,2.3-18,1.8-6.5,9.8-13.6,13.3-21.2,10.3l-8.8,20.2c-9.3,6.8-18.4,14-27.3,21.5,17.5,20.2-19.9,25.2-24,3.9-5.1-3.7-9.3-8.1-12.4-13.2-8.3,3.2-14.2,2.2-17.5-3.1-6.1,4.9-10.3,3.8-16.1-.8-2.5,11-7.4,13.8-14.6,8.6-5.5,1-9.8,0-13-2.8-5.2,4.2-9.8,4.6-14,1.2-4.3,2-8.7.3-13-5.1-10.8,10.1-22.6,18.9-35.2,26.5l1.9,8c-5.2,5.7-11.9,10.1-19.9,13.2,15.7,15.5,2.1,19.2-13.3,19.1l-3.4,9.9c-6.8,4.1-10.8,9.6-11.9,16.6-7.6,5.6-10.3,13.7.3,16.7,5.3,6.4,3.7,9.6-2.1,14.4,6.1,7.1,8,13.4,5.6,19-7.2,6.3-11.5,14.6-12.7,25.1,4.6,1.2,7.5,3.4,8.5,6.6-2.1,25.3,1.6,31.6,11.2,18.9,7.9-1.7,10.6,4.4,8.1,18.4l8.2-1.2c4.8,16.5,16.3,19.9,22.7,1.7,21.8-4.3,40.8,4,59.1,14.9,17.8,3.1,32.7,9.8,44.6,20.3,6.8,12.1,15.1,23.2,24.9,33.3,17.4,32.4,37.2,63.2,59.5,92.5,9.3,26.4,14.1,54.3,14.3,83.7,2.4,10.5,4.7,20.8,7,30.9-5.6,3.6-12.1,2.6-19.6-3.1-12.1-1.3-24.4-2.8-35.9-6.8-16.6-5.7.2,1.4,7,3.5,11.9,1.9,23.7,4.5,35.3,7.6,12.7,5.5,49.1,33.2,61,43.2s26.7,22.6,28.9,31.1.7,4-1.9,6c.8,3.5,1.2,5.2-2.3,5.6-68.2-11.7-141.2-20.4-205.2,11.3-36.5,20.2-72.3,33.5-114.4,31-37-5.4-70.6,4-102.7,22.2-4.1,1.4-6.3-.6-8.1-4.2l.7-117.2,4-2.4c1.2-3.1,4.8-4.9,10.9-5.5,7-6.8,5.2-10-5.5-9.3l-259.3-59.1-1.5-4.4c-1.8-1.9-1.8-5.9,0-8,2.7-6.2,9.3-8.8,19.6-7.8.2-8.2,3.7-12.9,10.4-14l1.8-4.5c9.4-4.2,7.7-6.6-5.3-7l-243.5-107.8-1-4.8c-5-3.1-6.4-12.6-.6-13.8-4.8-2.9-4.7-11-1.6-15.1-2.9-3.6-3.5-13.1,1.5-14.7-4.2-3.8-5.7-11.4-.2-14.1-4.8-2.6-4.9-12.2-.2-14.8-4.6-2.6-4.6-12.4,0-15-5.2-3-3.9-11,.5-14.7-5.1-1.6-4.5-9.9-1.9-13.9-2.5-3.9-2.5-11.9-.2-15.8-2.3-3.9-2.9-11.2,1.6-13.8-4.5-3.3-4.6-8.5,1-10.2-3.1-4.3-.7-4.9,3.8-4.6-3.1-4.2-2.5-12.9,3.8-13.1-3-1-2.2-2.4,2.6-4.4-2.6-1.2-3.7-3.4-3.3-6.8-5.5.4-13.3-1.2-7.9-6.3-5.8-1.3-3.9-9.3-.8-12.9-5.1-1.3-5.2-2-.3-4.1-26.1-1.7-53.9-1.6-80,.1l.8,5.2c-3,4.8-5.9,9.5-8.6,14.3,2.6,2.9,1.7,4.2-1.9,2.6-1.3,6.7-2.7,13.4-4.1,20.2,2.5,7.4,5.6,14.6,9.4,21.6l.3,101.6-4.5,5.2c-29.1-11-57.7-23.6-86-37.7-3.2-11.2-6.5-22.2-9.6-33.2h-404.3c-3.4,11.2-6.8,22.6-10,34.1-38.9,16.1-58.3,24.1-58.3,24.1-30-21.2-59.7-42.4-89.2-63.7l-287.8,215.8c.6,5.1-.1,9.4-3.8,13.4l3.8,2.4c-3.3,11.8.3,15.5,10.8,11.2,7.9,0,15.7.8,23.4,2.6l1.8,4.4c11.6-5.3,13.5,14.5,8.4,20.5s-33.7,10.5-38.5,6c.5,1.6,0,2.9-.8,4.3s-19.5,4.6-22.7,5.1c-4.9.8-8.2,1.4-13.1,2.5s-2.7-1.3-3.6-2.8l-.5,4.2c-65.7,14.4-131,29.1-195.8,44l4,6.7c6.5.6,10.7,2.6,12.4,5.8l2.7.2c1.6,30,2,60.6,1.4,91.7l-4.1,5.4c-50.4-12.8-101-25.5-151.8-38.2-30.9-1.9-61.8,1.4-92.8,9.8-15.9-.8-31.7-1.1-47.5-.8-30.3,7.9-60,17.5-89.1,28.8-5,.5-5.9-.5-4.5-5.6l-2.4-4.9c7.1-28.3,24.7-47.6,43.9-68.1,17-27.4,38.8-48.9,65.3-64.7,24.8-9.3,49.9-17.3,75.3-24,10.3-8,19.4-17.8,27.4-29.4,9.4-8.6,24.5-12.4,19.9,3.9l9.6,2.6c5.2-4.2,9.9-2.7,14,4.6,5-.9,10.4-.2,16.2,1.9,11.3-2.6,14.6-11,9.9-25.1,2.1-6,8.1-6.9,18-2.7,9.9-4.3,7.2-11.8,1.2-19.3-3.6-10.5-6.8-16.7-14.7-24.1,1.6-4.5,2.5-8,2.5-10.4-12.6-1.6-19.4-7-20.5-16.4-2.6,1.7-21.6,7-23,6.6-2.4-.8-4.5-4.1-3.8-6.5l8.5-16.5-1.9-2.4c-14.2.4-21.3-4.3-21.2-14.1-4.7,4.2-9.3,1.5-13.9-7.9-5.7-5-8.6-5.1-8,3.2-6.6,4.4-12.1.3-16.6-12.4-8.3-5.6-18.2-9-29.6-10-2,5.7-4.1,8-10.7,6.5,5.7,12.1,3.2,18-7.4,17.5-10.7-1.4-21.2-1.7-31.6-1-3.3,7.3-7.6,14.1-12.9,20.4-24.7-3.5-34.8,26.1-39.8,45.6-2.6,10.3-2.8,15.3,8.5,8.3,8.9-2,13.2,2.5,17.5,9.6,14-13.7,21.3-15.3,30.9,3.2.1,13.4-2.3,25.7-7.4,36.9-8.6,6.1-16.3,12.8-22.9,20.1-5,19.4-11,38.5-17.9,57.3-21.9,26.9-43.1,54.5-63.7,83-6.7,5.3-10.7-1.8-10.7-8.8-5.1-78.5-1.1-164.4,44.7-231.8,23.6-31,46.1-62.7,67.6-95.1,7.4-23.9,21.4-40.3,38.6-57.6,6.6-16.8,16.9-28.8,31-36.1,24.6-6.1,47.5-15.4,68.7-27.9,6.8-4.1,39.4-6.3,45.1-4.1s6.7,6.5,5.9,12.8c7.1,6.5,14.3,6.4,21.5-.2,2.1-13.6,3.6-20.3,17.7-12l-.5-21.2c4.9-8.7,11.8-6.5,20.5,6.7,5.3-12.4,7.1-26,5.3-40.8,2.6-3.2,6.4-4.8,11.5-4.9-2.9-11.6-7.1-22.4-12.6-32.5-11.4-7.5-10.9-17.3,1.9-22.4l.9-5.8c-13.7-9.1-12.5-18,3.6-21.8,3.9-8.1,1.1-16.2-8.4-24.2.9-7.4-.8-11.5-5.1-12.4-6.3-4.6-10.5-10.9-12.5-19.1-9.1-2-18-4.5-26.7-7.4-2.1-7.3,1.2-14.1,9.7-20.2-10-4-18.9-9.5-26.5-16.5-1.4-3.7,0-7.8,4.2-12.2-13.8-3.1-24.9-10.2-31.9-22.6-8.7-3.4-14.8-8.4-18.3-15.1-7.3,7.5-13.5,8.8-18.4,3.7-4,9.6-10.8,7.4-17.1,1.2-6,6.8-11.6,7.7-16.8,2.8-10.2,9.2-16.9,5.9-20.4-10.1-5.8,8.2-13.4,9-22.7,2.4-2.8,7.5-9.7,8.8-20.5,3.9-10.3,9.3-18.4,19.7-24.5,31.2-14.7,11.3-44.9,3.6-22.8-16-.9-4.9-5-8.8-12.3-11.8-7.7-9.3-14.5-15.7-25.3-21-2.1-9.5-5.6-17.7-10.2-26.5-7.4,2-13.7,1.4-18.8-1.8-3.5-7.8-8.9-11.8-16.2-12-7.9,2.2-14.1.7-18.7-4.5-1.8,11.1-18.4,23.7-28.6,20.2-6.9-12.1-11.2-14.5-13.1-7.1-4.2,3.6-9.6,4-16.3,1.4,3.5,6.5,4,11.8,1.5,16-15.1,1.2-30.4,2.1-45.9,2.7l-3.1-5.3c.7-5.1-.6-9.7-4.1-13.6Z"/>
  <path class="st24" d="M130.2,902l2.3,5.1c-7.3,19.4-10,39.9-8.2,61.7-7.8,41.7-5.2,81.1,2.6,122.3,1.7,40.7,3.4,81.4,5.2,122.1l-3.8,3.1c-5,20.4,11.5,35.3,31.4,25.5,4.5-.9,6.6,1.1,9.4,4s12.7,28,6.4,31.3c-12.8-.5-22.5,3.8-29.3,12.9,12.6-6.6,25.1-8.4,37.6-5.3,14.2-2.4,16.4,5.6,6.6,24,.5,9.7,6.9,13,19.4,9.7,8.7,1.8,17.1,4.3,25.2,7.7,8.8-6.8,18.9-11.9,30.3-15.2-11.8-7.6-2.2-20.1,9.7-16.4,4.8,5.3,10,9.2,15.6,11.5.9-14,11.2-12.2,20.1-4.5,4.2-6.9,17.5-10,23.2-5.2s6.7,21.8-6.1,22.4c16.4-1.3,25.4,12.1,4.8,15.7,8.9,2.7,12.4,7.5,10.7,14.4,25.9,8.1-1.4,22.7-15.3,16.1-4.6,8.3-11.3,7.7-18.5,2.2-7.1-2-15.1,7.1-4.9,9.8,1.5,7.5,5.9,10.8,13.4,9.9,11.4.6,22.6,1.1,33.7,1.4,4.9-6.9,10.2-9.9,16-8.8,4,7.2,8.4,8.7,13.3,4.5,12.2-.9,24.4-1.3,36.6-1.2,6.3,7,21,4.7,12.7-4.8-4.5-17.6,6.6-28.2,24.3-26.3,11.5-5.9,21.5-6,29.9-.6,2.9.1,2.7-1.9-.6-6.2-1.4-5.6.9-10.2,7.1-14-12.4-8.3-4.3-21.2,6.6-10.7,7.4-15.3,35.9-9.4,42.8,3.4,1.9-13.7,39.6-20.9,28.9-.3-12.1-1.7-8.7,17.3-1.8,10.4,3.8-1.7,7.8-.4,11.9,3.9,32.7-12.5,38.4,15.7,1.2,11.2l16.4,11.4c6.4,6.5,7,15,2,25.7l2.8.6c8.6-6.5,19.2-6.2,31.7.9,7.9-3.5,14.3-2.8,19.3,2,6.2-2.3,13.3-4.7,19.8-2.9,5.5-11.2,14.2-10.6,26.1,2l28.2-.2c4.8-1.7,9.5-3.9,14.1-6.4,13.1,5.6,25.1,6,35.9,1.4-4.1-15.4,11.5-21.7,12.8-5.2,4.3.3,8.7,1.8,10.8,5.9,10.4-1.7,20.5.3,30.3,6,3-2,5.1-5.2,6.2-9.7-18.4-5.8-3.8-26.7,9.3-31.4,3.7-16.1.2-23.4-10.4-6.2-5.7,4.2-29.9,7.8-38.6,8.4s-27.6-1.4-30.8-4.7c-13.1-13.1,15.1-14.5,24.2-12.6,6.2.4,6.9-3.3,2.1-11.1-.2-9.3-5.3-17.6-15.1-25,6.4-12.4,5.5-23.5-2.8-33.1-1.4-7.2,3.7-8.8,15.2-5,5.4-4.6,12.3-4.4,20.7.7,11.9-20.3,26.8-18.6,47.5-14.6,17.9,9-4.9,26.2-19.6,22.6-5.4,1.4-4.2,4.4,3.8,9.2,1.2,8.2-2.6,16.3-11.5,24.3-4.5,6.1-3.1,7.7,4.1,5,11.9,5.4,21.6,4.8,21.1-9.9,2.1-1.9,4.6-3,7.7-3.2-8.5-19.8,30.3-15.2,13.6,3.5.3,1.8,1.8,3.5,3.7,4s22.4-2.1,23.5-2.6c.3-6,2.2-6.9,7.4-8s22.8,2.2,19.8,9.7c-3.3,5.1-1.9,5.6,4.5,1.6,3.3-8.7,8.7-16.1,16.3-22.2-21.2,2-9.3-34,3.9-39.2-1-3.2-.9-5.3,3-6.6-9.8-4.5-1-25.8,10.3-14.4.4,5.9,1.4,9.5,3.1,10.8.4-18.9,17.2-18.7,16.5,0,2.6-15,8-18.2,16.2-9.4-.2,6.6.8,9.7,3,9.2-.9-19.2,16.6-18.6,16.2.4h1.4c-1.9-19.5,17.3-19.2,15.6,0l2.2-.3c-1.1-19,16.5-18.4,15.9.3,1.1-17.6,17.4-20.7,17.1-.1l1.5.2c-.7-19.4,17.1-19.3,16.4-.1l1.8-.4c-1.1-18.9,16.7-18.3,15.5.4l2.3-.3c-2-18.8,17.1-18.7,15.5,0h1.4c.9-18.3,16-19.1,17,.2,1.7-17.5,17.4-19.9,16.7-.2h1.6c.3-19.2,17.7-18.5,16.1.3h2.1c-.4-20.1,15.6-18.5,16.8,0,.1-18.8,16.9-20.8,16.6-.5l2,.4c-1.6-19.5,16.2-20.1,15.7-.4l3.7.5,7.2-82.2-738.3-.8c-12.9-13.4,4.4-16.1,15.8-15l2.2-.8.2-305.3c0-3.5,2.2-5.6,5.4-6.5h332.9c3.8-.1,5.8,2.2,6.5,5.8v113.2c-.3,8.5-2.9,12.9-7.7,13.4l-76.1.4c-2,1-2.6,3.5-1.8,7.8l79.5-.3c8.7,2.4,9.2,8.5,1,11.8h-80.1c-.5,2.6-.9,5.7.2,8.3,26.9-1.2,53.8-.8,80.7,1.1,4.2,2,3.7,4.8,1.5,8.5l-82.1,2.5c-1.1,2.6-1.4,6.3.7,8.3l78.9-.8c7.9,4.1,8.4,7.9.4,12h-80.3c-.7,2.8-.7,5.5,0,8.4,23.5-.7,47.1-.7,70.6,0,8.3.3,16.2.8,11.6,9.6l-82.7,2.4c-.8.8.1,6.5.5,8.2l79.8-.6c8.1,3.7,8.3,7.8.5,11.9h-80.1c-1.3,2.3-1.1,5.9-.2,8.4l79.8-.4c8.1,3.9,8.2,7.9.4,11.9l-79.9-.2c-1,3.1-1.3,6-1,8.6l65.3-.5c15.5-.7,21.4,2.6,17.6,10.1l-82,2.6-.3,8,79.2-.6c8.4,3.4,9.5,7.1,1.3,12l-80.7-.2c-.1,3,0,6.1,0,9.1l79.4.4,4.5,3c1.1,8.7,3.8,11.1,8.1,7.1l-.2-305c0-3.5,2.2-5.6,5.4-6.5h342.3c3.2,3.7,4.9,5.7,4.9,5.7v114.9c0,0-1.5,3.3-4.3,10l-81.1,2.1c-.4.3-1.6,8.6-1.2,8.6,12.8-1.1,74-3.9,81.3.3s3.8,4.7,1.6,8.5l-81.7,2.2c-.5.2-1.7,9.5-1.2,9.5,13.2-1.3,73-4.7,81.2-.2s4,4.6,1.7,8.5l-80.4,2.6c-1.3.3-3.1,8.9-2.6,8.8,11.8-1.5,74.5-3.7,81.3.2s3.8,4.6,1.6,8.5l-81.6,2.5c-1.2,2.2-1.1,5.6,0,7.8,26.7-1,53.4-.6,80,1.3,4.1,2,3.7,4.8,1.5,8.5-27.6.6-55,1.8-82.2,3.6l2.2,5.3c26.3.9,52.7,1.7,79.1,2.3,3.5,4,5.2,6.2.4,9.1-25.3,2-50.7,2.6-76.1,1.8-1,4.2-3.2,7.7-7.9,7.9h-162.5c0,0,246.3,2,246.3,2,2.1,2.5,1.5,5.2,0,8l-278.4,2.3c-.6,2.4-1.2,6.3,1,7.4l277.4,2.2c2.1,2.5,1.5,5.2,0,8l-278.2,2.6c-.7,2.4-.8,4.8-.2,7,87.8,0,175.7.4,263.7,1.1,13.7-1,18.6,2.1,14.7,9.3l-277.4,2.4c-1.6,1.8-1.8,4.5-.7,8,93.3,0,186.5.7,279.6,2,.4,2.8,4.9,16.8,8.8,10.1l.7-306.4c0-3.4,2.3-5.5,5.4-6.4l271,.2,5.1,5.3.2,306.4c5.1,3.6,7.9,1.6,8.4-6.2,7-4.5,15.5-5.9,25.6-4.3,2.1-2,2-6.9.5-9.6h-20.4c-13.4-5.9-5.5-11,6.4-11.8,12.7,3.5,17.4,1,14.2-7.5l-21.4-.8c-8.1-4.6-8.3-8.5.8-11.1l20.8-.2c.8-3.2.6-6-.5-8.5l-21.7.2c-7-3.1-6.7-8.6.2-11.8l21.6.6c1.4-2.6,1.6-5.6.7-9l-20.6.2c-11.6-3.9-7.4-11.5,3.9-12.1,14.3,3.4,19.7,1,16.2-7-14,.8-43.1-6.6-15-13,13.5,3.3,18.5.6,14.8-8h-20.2c-13.3-5.5-5.9-11.3,5.5-12,14,3.3,18.9.7,14.5-8-16.8,4.4-42.9-6.5-13.8-12,13.2,3.5,17.9.8,14.1-8.2h-20.3c-10-3-9-9.6.9-11.5,16.8,2.8,23.3.2,19.4-7.6l-22.8-.9c-2.4-2.9-4.1-7.1-5-12.4-.6-39.2,0-78.2,1.7-117.1l4-2.3h340c3.5,0,5.6,2.3,6.5,5.5v306.2c4.7,3.8,7.3,1.5,8-6.9l1.9-2.2c10.5-.9,20.6-1.8,30.5-2.8v-8.1c.1,0-21,.7-21,.7-15.5-1.6-18.6-9.6-2.3-12.6l23.2,1.1c.9-2.7,1.1-5.7.4-8.5l-30.5-1.3c-5.1-3.9-4.3-8.3,1.3-10.9l28.5.3c1-2.8,1.2-5.7.7-8.6l-22,.5c-15.4-2-17-10.1-1-12.5l22.9.8c.7-2.7.8-5.8-.2-8.5l-26.3-.3c-10.6-3-9.3-9,.8-11.7l25.8.5c.7-2.9.6-5.6-.3-8.3h-21.4c-12.3-1.4-18.6-7.4-4-12.1l25.2.5c.9-3,1.1-6,.6-9l-26.4.2c-10.7-2.8-9.9-8.8.3-11.7l25.2.6c2-2.1,1.4-6,.6-8.4h-21.1c-17.9-2-16.7-10.8.7-12.6,7,.9,13.9,1.1,20.7.7.6-3,.3-5.8-.9-8.4h-24.7c-16.4-6.1-6.5-11,5.4-12.3,16.7,3.3,23.4.8,20-7.4l-25.9-.5c-5.2-.5-7.8-4.5-7.9-12-.7-39.4-.2-78.6,1.5-117.6l4-2.3,334.1.2,5.1,5.4v306.8c20.1-.9,26,4.1,17.9,15-246.1.7-492.1,1.3-738.1,1.8l7.3,81.3,3.2.3c0-18.4,16.9-20.2,16.2-.4,1.9-.3,3.2-4,3.8-11.1,8.4-6.3,13.4-2.5,15.1,11.4.6-13.6,5.4-17.6,14.2-11.9,1.2,8.4,2.6,12.2,4.3,11.4-1.5-18.5,17.7-18.4,15.7,0l1.6.3c-.6-19.1,17.1-18.7,16.4,0l1.7-.2c-1.4-18.7,16.9-18.4,15.5,0l2.3.2c-1.6-19.6,17-18.8,15.5.2,1.9-1.2,3.2-5.1,4-11.7,8.5-5.7,13.4-1.9,14.8,11.5.1-18.7,17.4-19.8,16-.7l2.3.8c-1.2-19.7,16.7-19.6,16.4-.1l1.8-.2c-1.8-18.8,16.6-18.8,15.1-.2l1.4.3c.3-18.4,16.9-19.8,16.4-.3l2.1.4c-1.1-19.5,16-19.7,16.2,0,2.5-18.3,16.3-19.9,17.8-.2,2.2-18.3,16.1-19.5,17.7.1,1.6-13.3,6.5-17.1,14.8-11.4.7,7.2,2.1,10.9,4.3,11-1.9-18.6,16.9-18.1,15.3.2l1.9.3c-.9-19.2,17.4-19.3,16,0,1.8-1.2,3-4.9,3.8-11.1,8.4-6,13.4-2.3,15.1,11.2-.2-17.9,16.2-19.9,16.2-1.6,4,3,25.3,4,20-7.2,8.2-11.9,16.8-3.1,15.1,8.8l2.4-.4c-1.6-18.8,16.9-18.6,15.8.2,1.7-.9,2.8-4.5,3.2-10.9,8.3-6.6,13.4-3,15.2,10.8,1.8-19.4,16.5-18.5,17.5.1,1.4-17.5,17.3-20.7,16.6-.4l1.7.2c.4-18.8,17.1-19.2,16.4,0l1.9-.3c-.7-18.9,16.9-18,15.9.4h1.9c-2.2-18.4,16.3-18.6,14.6,0l2.4.3c-1.3-19.3,17-19.4,15.7,0h2.3c-1.5-18.8,16.9-19.1,15.4.2l2-.5c-1.6-18.3,17.4-18.7,15.5-.2,2.1,1.8,3.1-1.6,3.1-9.9,8.4-7.4,13.7-3.9,15.8,10.6.9-13.2,5.7-17.1,14.7-11.6.7,6.1,2,9.9,3.8,11.5-1.1-18.9,17-19.2,15.8-.5l1.7.4c-.7-19.2,15.3-19.3,16.4-.1h1.4c-.8-19,16.4-18.9,16.2.1,2.1-10.2,8-22.5,16.7-7.5-.5,5.2.1,7.7,1.9,7.3,1.7-16.2,3.5-16.6,16.7-9,2.2-5.1-2.4-7.5-13.8-7.4-3.6-11.7-6.8-52.6,12.4-36.5l2.5,20.7c-.6-12.6,2.6-38.2,15-17.6-.2-4.3,3.8-4.6,7.8-3.6-11.7-25.3,7.3-20.6,13.7-2-.7-13,4.4-31.4,13.1-12.1,2.3,17.9,4.1,22.5,5.4,13.5-.2-10.4,5.7-22.4,14.2-11.2-3.3,13,10.2,8.5,18.2,4-7.9-19.4-18-37.7-30.1-54.7.9-7.4,1.7-7.5,8-5.1,13.2,5.2,30.4,32.2,37.3,44.8l-5.7-28.7c0-13.1-1.7-24.9-5-35.4-12.7-3.2-13.1-14.1.7-11.7,5-11.9,12.5-4.9,14.3,4.5,14.9,4.1,27,14.3,38.6,24.1l3.7-12.1c-1.1-19.4-7.2-38.1-18.3-56.2.3-5.7,4.3-5.2,9.1-2.9,9.4,9.8,16.6,20.5,21.5,32.3,4-8,15.2-26.5,18.7-11l-10,26.2c-.8,8.9.5,17.9,3.8,26.9,4.1-14.5,13.6-13.2,11.5,2.1,11.2-12.5,21.2-30.3,15-47,2.4-19.1,11.3-5.8,12.2,6.6l3-17.9c3.3-12.6,9.8-30.2,15.2-9.2l-1.1,28c7.7-2.3,13.4,1,8.3,8.9l-11.2,7.4c1.6,19.3-.3,38.5-5.6,57.6l18.8-41.2c3-5.6,11.8-21.7,14.9-8.7,1.9,7.7-7.3,36.2-10.7,45.2-5.8,15.5-14.6,29.2-23.7,42.7,12.8-14.7,24.9-30,36.4-45.9,6.5-6.2,21.2-18.8,20.3-3.6-7,10.1-12.7,20.9-17.2,32.5,6.2,1.3,12.7-.2,19.4-4.5,8-1.8,14.9-2.8,11.8,7.6l-22.9,13.3c15.9,9.3,32,18.1,48.2,26.3,13.8.5,21.2,5.3,22,14.4,6.6,6.4-2.5-13.4-5.3-17.7-18-19.6-31.1-41.5-39.3-65.6-6.5-25.5-.6-40.5,11.5-9.7l6.4,10.6c16.4,17.8,32,36.4,46.7,55.7,2.4-22.3-2.1-41.8-13.4-58.5-12.2-10.4-30.4-27.2-30.8-44.6-.1-5.7.5-11.1,7-8,2.6,4.2,20.7,25.8,20.5,23.9-1.4-19.9-18-40.4-32.5-52.8l-7.1-13.8c-10-5.8-27.4-17.2-8.9-21.1-5.2-7.8-14.4-9.8-27.6-5.9-3.3-4.5-7.3-6.3-12-5.4-7.7-1-13-3.3-8.5-11.8-10-6.1-11.4-18.8,1.5-20.6-7-11.4-2.5-24.7,11.6-17.1-3.9-7.8-4-21.5,3.6-27,12.1-8.7,15.2,6.3,16.8,16.4-3.6-37.5,35.7-37.8,21.4,1.7-.7,10.3,1.4,20.3,6.2,30.2,0-19.2,2.3-38.1,6.6-56.6,7.9-20.8,34.5-24.1,26.1,2.7-10.1,17.1-13.7,36-12.3,55.7,1.6-19,45.5-71,65.1-54.7,6.8,5.6,4.6,13.3-2,17.9-15.2,5.3-52.9,34.5-15.1,10.6,21.4-14.8,49,5.3,17,16.8,3.2,8.7,5.2,19.1-7.9,16-16.4-15.1-31.9,14.5-35.1,28.6,16.7-18.5,37-24.2,61.7-23.1-5.9-9.7-4.1-19.7,8-12,2.5-6,7.2-6,10.8-.8,11.2-1.1,10.1,10.3,6.7,18.5l4.1,11.7c-10.8,11.7-16.2,17.6-16.2,17.6-4.1-2.1-5.9-.8-5.4,4-4.8,5.5-9.7,2.6-14.7-8.6-17.6-15.5-41.5,5.5-52.2,20.6l-6.1,4c-6.7,1-8.2,5.9-4.4,14.6,21.3,35.8,32.7,76.5,35.2,118,8.3-13.6,11.5-27.6,11.8-43.2l7.1-2c7.1-13.1,48.1-40.4,58.7-40.7s5.5,2.2,5.2,7.4l-35,33.9c-14.8,16.6-22.9,37.1-24.2,61.5l20.7-27c7.1-2.4,7.6-1.8,8.5,5.2,1.8,12.9-13.4,38.4-20.6,49.4l52.4.4c4.2-26.5,6.7-53.5,7.3-81,5.3-21.7,9.1-43.6,11.4-65.6,0,0-2.2-24.5-6.7-73.4,5.6-47.4.9-94.6-15.3-139.8l2.2-6.3c-2.3-7.3-7.4-14.1-13.7-19.8l-15.8-14.3-55.6-40.1c-7.4-5.3-18.3-6.2-26.9-7.3-32-4-35.2-24.2-71.2-25.5-33.7-1.2-37.5-27.2-52.7-28.9s-1.2,3.2-.4,3.8,3,1.3,4.7,3.4c-5.3,3.8-15.5-.2-20.2,2.4-9.3,6.4-22.8,9.2-30.7-1.6s2.3-11.3,1.4-16c-4.2-.8-9.1,3.2-11.9,1.6-11.7-5.4,2.4-32.4,9.4-35-2.8-2.9-4.3-4.9-3.5-7.4,1.9-5.9,13-3.6,14.2-7.4l2.9-8.9c6.6,4.1,12.8,5.1,18.9,3.7-2.3-5.2-5.8-7.7-6.7-12.3,4-5.2,10.1-4.8,16.8-4.1,2.9-4.1.3-8.7,2.6-13.6,3.4.5,3.4,5.6,6.8,4.4,1.8-5,4.3-8.5,7.3-9.5s7,.9,10.1,4.1c2.7-16.3,30.5-15.5,31-15.2,1.3.8,2.1,3.2,3.7,5.1,2.2.3,4.2-.5,4.7.6,2.2,5.3-3.1,11.4,0,12.1,7.1,1.6,19.7-6.8,29.1-.3,4.8,3.3,6,10.9,10.4,15.2,21.2-8.5,39.4,45.8,28.5,47.6s-8-5.8-14.3-1.8c-1.6,1-2.9,4.5-5.1,5.2-4.9.6-9.8-7.2-14.9-6-5.5,1.3-5.5,8.8-5.4,13.3.4,30.4,7,17.2,19.2,31.4-11.1,7.4-27.7-24.7-37.6-31.1-3.7-2.4-11.9,1.7-15.6-5.6-1.5-2.9-10.8,5.5-9.5,8.4,11.1,23.7,32.3,39.6,55.6,51.7,9.3,4.8,28.7,8,38.3,8.5,6.9.4,10.8,6.9,19.1,6.7-18.4-38.1-2.9-85.8-26.8-119.1l-35-48.7c-9.6-13.3-13.3-29.9-24.3-42.2-5.5-6.2-11.9-11-15.4-19.2-4.7-11.1-14.7-18.2-26.7-20.8-44.8-9.6-27-21.8-76.8-22.1-1.3,9.8-8.3,15-15,13-7.8-2.4-11.4-6-11.2-15.2-4,1.5-7.8,5.2-9.3,2.9-3.2-5.4-.6-12-.2-19-3.9-3.2-11.4,9.7-14.6,8.6-7.6-2.7-5.9-23.2-5.5-31.7l-10.6-2.6c3.2-6.2,4.6-12.2,5.8-18.9,1.1-6,11.1-9.5,10.5-15.4s-8.1-6.8-7.2-13.9,3.8-3.6,4.9-5.9c2.1-4.4-3.9-4.7-6.4-6.6-7.1-5.2-2.8-15.9,4-19.9,1.6-3.3,1.1-8.4,3.5-10.3,7.9-3,11-8.9,11-17.2,7.3-1.9,14.3-.2,21.2-3.4-2.3-5.7-6.7-9.1-10.7-13.7,8.4-4.9,16.6-7,23.3-12.8-1.1-3.3-3.6-5.4-4.3-9.9,9.8-1,15.5-9,22.8-14.2l11.6-8.2c2.5-1.8,2.6-6.2,5.9-5.6,8.7,1.5,7.4,12.8,14.1,2.9,1.6.7,2.4,4.5,4.3,5,4.7,1.1,6.2-6.6,10.5-4.2s2.9,4.1,4.5,3.8c5.3-1,9.7-1.7,14.5,3.7,2.3-4.9,1.7-12.3,7.5-12.7s5.7,4.8,8.6,4.2,4.6-3.4,7.5-3.6,4,5.1,7.2,5.7c3.7-1.9,7-2.8,11.1-2.2,2.5.4,3.3,5.3,6,7.1,7,4.8,11.2,8.6,12.7,17.7,1.9,1.3,18.3,3,18.2-2s-7.2-5.4-6-9.9c1.8-6.8,11.1-5.5,16.2-15.3s10.9-5.1,12.7-9.4l8.9-21.5c3.1,0,7.2,2.5,9.4,2.2s4.6-2.9,6.6-5.7c10.3-14.7,15,2.2,27.1-12.3,2.6,11,9.9,17.3,19.2,20.6,1.6-5.3,4.3-12.5,10.6-11.5s2.9,6.4,5.3,6.1,6-1.7,8.8-.8c4.7,1.4,1.7,7-.7,10.9,10.1,2,19.2,2,29,1.2s2.8,3.9,4.3,2.1.5-2.9-.9-6.4c21-22.7,10.1-10.5,39.6-16.9-1.5-3.5-3.7-6.6-2.6-8.5s22.4-10.4,23.1-7.9v184.5c-5.2,1.7-24.4,27.2-24.5,30s4.7,4.2,5.1,4.3l16.3-3.5,3.1,3.9v79.2l-3.1,3.6c-5.9-1.8-9.5,2.3-11,12.3,8.9-1.7,13.5,3.6,14,15.8v43.9l-1.6,4.4c.7,10.3-2.3,14.7-9.1,13.2-4.8,8.3-16.8,37.5-18.3,47.3-1.4,9.1,2,58.4,5.4,62l8.3-18.5c3.3-9.6,8.4-15.2,15.4-16.7v28.3c-8.3,40.5-15.7,80.3-14,120.9,4.7-6.7,9.4-9.8,14-9v18.1c-6.6,18.5-12.3,37.4-16.9,56.5-6.7,46-10.1,92.1-10.2,138.3,5.4,25.9,5.9,52.7,2.5,79.1-10.9,33.3-7.4,66.8,2,100.1l20.1.4,2.6,4v301.6H0v-302c11.4-37.4,11.6-79.5,7.1-118.6.4-55.7,3.4-111,8.9-165.8-.6-8.4,0-16.3,2-23.7l-4.3-.7-13.6-41.2v-24c1-3.1,2.8-4.3,5.3-2.2l11.4,17.9c-.6-22.9.2-45.9,2.3-69-2.2-28.8-8.5-57-18.9-84.7v-40l4.6-1c7.7,19.1,15.5,38.2,23.5,57.4l3.2-30c17.7-56.4,10.5-113.9-26.2-160.8l-4.9-13.6v-42c3-4.2,5.5-2.1,7.8,1.9,12.7,33.9,15.8,38.6,9.2,14.1-2.3-20.4-2.9-40.9-1.8-61.4-1.7,9.2-4.9,17.3-9.5,24.3l-5.7-.9v-126c9.6-18.2,35.9-14.8,21.1,9.5,12.8,7.1,22,16.9,27.4,29.3-2.5-23.1-3.1-46.8-1.8-70.9l-3.6-37.8-11.7,6.9c-6.8,6.6-14.5,12.4-21.6,2.5-5.2.8-8.4-.4-9.7-3.6V76c3.2.2,6.6,1.7,7.4,3.9,1.5,3.9.5,7,.7,12.5,6.7-3.8,13.4-1.1,20-1.7s14.9-4.2,23.4-.9c2.2-4.3-7-10.3-2.9-15.9s9.9,2.1,15.3-.3,1.9-6.5,4.5-7c8-1.5,11.8,7.4,16.3,14.2,6.1-4.4,15.1-7.8,19.3-14.3s2.1-13.3,5.9-9.9l8.1,7.1c28.7-7.1,25.4,14.3,33,13.6l17.6-1.8c-1.8,7.5,2.6,11.4,5.4,16.7s.3,8.7,2.7,11.9,6.7,2.8,10.2,5.3c6.7,4.7,10.8,13.1,17.5,17.3s9,3.6,10.5,9.3c3,10.9-12.5,9-6.4,18.9s19.5.7,20.8-.1c2.5-1.6,3.1-6.7,5.7-10,6.6-8.4,13.9-16.7,21.4-23.8,4.6-2.1,11,2.1,15.6,3.3l5.7-9.8,14.5,8c2.4-3.2,7-10.4,11.5-7.8s2.8,12.3,8,15.9c2.8-2.5,5.7-4.7,8-5.8,3.4-1.6,6,.4,8.9,3.8l11.1-9c3.3,3.5,5.4,7.4,9.9,7.6,2.5-2.8,2.9-6.8,6.4-9.6,2.5,2.6,3.4,5.1,5.4,6,5.3,2.4,6.2-8.6,15.2-6.8s1.6,5.3,3.7,7.1c5.7,5.1,13.9,5.3,17.7,12.5,5.9,11.1,18.6,16.5,30.9,18.8.2,6-3.3,8.7-6.7,12.2,8.2,8.7,19.6,12,31.1,18.7-5.2,6.1-11.9,9.9-13.9,16.8s25.5,2.1,28.5,11.1c3.2,9.5,6.1,17,17.6,18.8.2,5.4-1.8,9.1,0,13.6,9,5.4,14.2,19.2,6.9,26.9s-14.4,2.2-11.6,9.2c1.3,3.3,9.2,4.8,9.2,9.2s.2,9.5-5.4,11.1-5.2,3.5-5.5,6.5,2.9,4.4,5.3,6.5c8.6,7.7,9.6,18.8,12.7,29.4s6.1,10,.1,11.8-10.1-.6-9.6,4.1c1.3,11.6,2.4,24.4-3,35.5-1.4,2.8-2.7,6-5.6,5.7-7.3-.7-6-11.2-15.9-12.9-1.7,5.8,2.9,27.3-2.3,28.5s-6.2-7.5-11.1-4.8c-7.6,4.2,2.7,14.7-12.8,18.5s-7,5.6-10.2,2.1-6.4-4.6-9.4-5.9c-2-3.3-.3-7.4-1.9-12-11.1,2.2-22.2-.7-33.5.7-11.9,1.5-21.5,10.2-32,15.3-28.3,13.6-58.4,9.6-70.3,38.6-5.5,13.4-15.7,22.1-25.4,31.9-13.6,13.9-15.9,34.5-27,49.8l-58.9,80.6c-17.3,23.7-28.1,47.5-34.4,76.1s-10.6,41.2-12,63.6c-1.5,24.3-2.7,47.7,0,72,1.1,9.9-1.5,19.1,2.4,29.5,8.3-12.7,15.9-23.4,24.8-34.5l29.2-36.6c5.7-7.1,12.5-13.7,15-22.8l12-44.1c3.5-12.7,17.9-16.9,25.9-25.9,5.4-9.2,2.9-22.4,6.1-32.3-4.6-3.3-5-9.9-9.3-10.9-7.1-1.7-12.5,11.1-19.1,10.8s-4.4-8.3-10.6-10.1-9.6,8.2-18.2,1.6c-4.9-3.7,1.5-19.3,2.3-21.5,8.5-23.6,3.7-18.6,17.5-33.4,6-6.5,11.7-10.8,22-6.8.5-5.9,5.2-7.6,7.5-11.3s1.6-7.4,4-9.2c8.5-6.3,31.1,3.4,42.5-1.9-2.2-4.5-5.1-7.9-4.2-12.5s6.1-3.3,9.6-2.3c.1-2.9-.5-4.9-.3-6.4.8-4.9,29.4,4.3,33.5,6.3,7.4,3.6,6.5,13.2,14.1,18.8,2-2.6-3.4-8.6,1.4-9.9,9.9-2.8,15.7,5.5,19.3,14.3,3.3-3,2.5-7.3,6.8-9.1,3.8,5.1.8,11.8,3.7,16.7s16.2-2.7,21.1,7.6-10.8,16.6-7.9,22.1c4.5-4.4,10.1-3.6,16.2-5s8.1-7.3,9.3-3.4l3.8,12.4c1.1,3.7,17.5-.9,19.2,11.1.3,2.2-3.9,3.5-4.1,5.4-.6,4.5,7.4,6.1,8.7,9.7,3.5,9.6,6.2,18.1,13.9,26.6-3.6,3.8-4.7,10.4-8.4,12.5-5.5,3-11.7-1.5-18.1-2.5-.9,7.3,2.5,14.7,1.1,21.9s-6.8,4.6-9.1,6.5c-5.8,5-9.5,2.9-15.5.3s-6.4,1.6-8.5.4-4-3.3-5.4-8.1c-8.7,9.1-11.8-.5-27.7,0,2.3-4.3,7-3.4,10.2-7.5-9.7-11.8-28.5,19.7-33.3,25-11,12.3-27.5,14.6-42.8,17.8-74.3,15.8-86.1,54.6-112,83.5l-18.8,21c-11.5,12.8-15.4,29.5-21.5,44.5Z"/>
  <path class="st23" d="M2752,1234.4l-26.1-.5c-7.3-30.2-14.7-64.6-4.8-94.5s2.5-22.1,3.6-33.3c4.2-43.5-8.9-38.4-3.4-99.1l2.8-30.9,4.5-46c2.6-26.7,9.2-52.8,23.3-74.1v378.4Z"/>
  <path class="st5" d="M0,682v-70c2.3-4.4,3.3-7.2,3.7-12.7,9.2-4.6,11.7-10.7,7.7-18.3-5.4-4.5-9.2-9.5-11.4-15v-32c4,1.3,5.6,5.7,7.6,10,6.6,14.1,18.4,25.4,24,39.8,8.5,22,13.3,46.3,13.4,69.9,0,15-4.5,29.4-7.7,43.8-4.3,19.5-4.9,37.6-5.9,59l-20.8-48.7c-3.8-8.9-3.9-19.5-10.6-25.7Z"/>
  <path class="st34" d="M0,344v-64c18.9-3.2,10.1,5.6,19.1,4.8s5.1-3.4,8.1-5.7c6.1-4.8,13.2-6.5,19.1-13,4.1,30.7,5.9,60.6,4,91.8-1.3,21.9,6.1,30.1.4,31.8s-8.8-16.2-15.6-20.9l-19.3-13.2,7-17.4c-11.1-5.5-15.5,5.2-23,5.9Z"/>
  <path class="st0" d="M0,1234v-298l2-5c5.7-.7,11.1-2.4,16-5.1,2.3,8.8,2.6,17.8,1.7,28.3l-6.4,78.2-1.5,41.7c-.7,18.4-1.9,35.6.4,53.9,4.2,32.9.7,65.9-5.6,98.2-.8,4.2-3.1,8.2-6.6,7.8Z"/>
  <path class="st6" d="M2752,697.7c-12,14.7-18.1,32.5-25.2,50.7l-5.9-37c-7.7-47.8.8-49,17.8-90.5,1.8-1.4,8.3,0,8.9-3.3.9-4.7.3-9.8,4.5-11.7v91.7Z"/>
  <path class="st7" d="M0,860v-138c11.2,11.5,21.7,58.8,22.7,76.1s-3.1,39.7-2.6,59.8l.9,34.2-17.2-30.3c-.9-1.6-2.7-1.9-3.8-1.9Z"/>
  <path class="st17" d="M2752,837.9l-18.2,20.3.7-46.3c.4-29.8,8-58.9,17.6-85.8v111.9Z"/>
  <path class="st21" d="M0,492v-22c13.6-7.1,3.3-25.2,18.7-32.6,2.3,28.2-2.9,45,3.2,74.7s5.4,16.4,3.9,26.1c-9.8-11.8-15.6-24.8-20.1-39.5s-3.2-5.8-5.6-6.7Z"/>
  <path class="st14" d="M2752,416.4v34.7c-6.8-.2-13.2,2-20.1,3.3s-3.5-4.3-4.9-3.5c-3.2,1.7-7.9,11.7-7.9,5.8,0-9.4,21.2-35.6,29.3-44.4,1.4,1.8,2.2,3.1,3.6,4.1Z"/>
  <path class="st30" d="M18,925.9c2.5,8.3-10.6,6.5-18,10.1v-52c6.8.3,16.5,36.2,18,41.9Z"/>
  <path class="st8" d="M0,612v-46c10.7,7.1,20.4,14,16.3,27.3s-6.8,5-10,9.1,1.3,6.2,0,7.4-4.4,1.8-6.4,2.1Z"/>
  <path class="st15" d="M2752,530.3v31.8c-3.2-2-2.4-7.6-5.4-10.4s-9.2.4-13.5-2.9c2-6.8,3.2-13.9,7.9-18.1s8.2-.4,11-.3Z"/>
  <path class="st0" d="M2239.7,810.4l-.7,121.4c42.1-21.6,60.6-28.1,106.9-23.8,47.6-.8,58-3.5,98.1-23.6,58.5-29.3,90.3-31.3,155.9-27.8,22.1,1.2,42.7,6.1,64.3,9.1,1.9.3,3.8.2,3.5-1.5,5.6,17.6,12.8,35.9,14.5,55.5s5.9,29.8,5.6,44.3-5,37.8-2,58.2.8,28.1,3.7,42c4.6,21.6.3,41.7-5.1,62.5-6.6,25.3-6.7,51.1-7.4,76.9-.3,10.6-1.5,20.2-5.3,30.8l-62.9-.5c13.2-18.6,23.5-35.7,24.7-58.4l-33,44,10-51.4c4.7-24,41.1-48.4,55.5-65.8-16.9,6.6-31.4,15.7-46.1,26-16,11.2-13.2,22.7-20.1,13.9l-.9,14.5c-.9,15.1-11.6,29.2-18,46.2-.6-47.1-10.7-91.7-34.8-132.3s-3.7-14.9-1-18.4c8.1-2.9,13.2-5.9,18-13.2,8-12.1,24.1-20.1,38.4-20,11.3,0,16.3,10.1,19.9,19.2,3.9-5,0-9.9-.5-15.9,4.9.7,6.7,5.3,10.6,8.1,2.1-4-2-4.2-3.1-7,13.5,1.3,4-4.4,17.2-8.6-2.8-3.1-6.4-2.4-9.5-5,1.1-.9,6.2-1.4,5.7-2.6-.7-1.8-3.1-1.6-5.2-2.5,5.7-4.2,8.2-12.6,2.3-18-.3,5.1-.6,9.5-3.6,12.6,0-6,.5-11.9-4.8-15.1-1.2,5.1,2.1,9.5-1.6,14.4-2.5-5.3-4-11.5-11.1-12,1.5,6,6.5,9.6,3.7,15.8-48.2-1.3-48.3,11.8-71.4,30.1s-12.7,6.5-14.7,15.8c-2.8-5.3-1.3-13.9,4.3-16,21.6-8,7.5-26.4,34.8-45.7,12.1-8.5,18.6,5.3,22.4,3.2s-2.1-9.8-1-14.4,11.7-3.4,13.8-8.9c1.2-3.1-.9-6.4-4.3-7.6-13.4-4.8-45.7,18.6-54.7,30.7,5.3-20.8,23.3-34.4,42.5-42.6,4.1-1.8,7-3.7,6.5-7.8-1.7-16.9-43.4-1-60.7,46.3-2,5.6-3.6,10.9-8.8,14.3.5-26.8-1.9-44.3,11.3-67.6s3.7-11.9,1.9-17.3c-8.9-.5-16,5.6-19,13.9-11.3,32.2,3.2,50.6-15.9,77.1,9.5-28.4-13.2-29.1-1.5-66.8s-1.3-12.6-6.8-11c-19.6,5.8-5.2,44.5-1.3,56.9-12-12.7-16.7-28.9-19.5-46.6-2.4-2.6-8.4.4-9.6,2.7-8.4,16.7,5.7,27.4,13.6,43.9-7.3-1.6-19.5-24.1-26.4-20.3s1.9,17.8,8.2,22.4c-5.5.7-9.8-2.1-15.1-3-4.4,10.5,7.2,13.5,10.3,16.1s-4.4,2.1-5.3,3.5c-3.9,6.5,16.8,4.6,21.8,3-.4,1.7-2,2.1-2.7,2.5-1.5.7-3.3,4.8-.4,4.5l17.8-1.8c8.4-.8,14.4,12,18.8,19.6-6.8,1.6-8.9-4.3-14.8-4.5,2.5,7.4,10.1,9.2,15.9,13.5s5.8,13,10.6,17.4l10.4,9.7c14.8,13.7,19.4,37.1,25,57.8-13.1-10.6-22.1-23.5-32.7-37.5,9.3,62.1,50.5,20,44.9,124-7.7-11.2-13.2-21.8-22.1-31.6l-25.7-28.4c-9.8-10.8-15.4-22.7-19.6-36.3-.3,28.6,12.5,54.2,30.9,75,10.7,12,18.2,24.8,21,42.1-4.1-.2-9-2-11.5-5.7s.3-5.1-.8-6.3c-7.9-7.6-14.9-1-35.2-13.6-8.1-5-15.3-11.3-24-15.2-4.9-2.2-10.1-2.6-12.3-9.3l28-15.8c-15.2-3.1-19.4,12.2-36.8,3.6,14.3-22.6,3.5-15.7,22-39.6-30.9,13.9-33.6,51.2-65.4,65.1,5.7-14,15.3-24.4,21.9-37.1,10.8-20.7,16.8-41.6,18.9-64.8-13.3,18.6-22.3,58-41.1,74.5,8.9-27.4,15.4-52.4,13-80.1,4.7-4.9,9.5-7.1,14.6-11.1-3.9-2.6-8.1,1.5-12-.3-1.4-14.1,3-25.9,0-39.7-8.9,17.6-8.4,36.4-12.1,54.9-3.4-17.9-6-17.3-8.4-34.4-3.5,10.4,3.3,19.7.5,29.8s-17.4,27.5-19.9,31.5c-3.8,5.9-1.9,13.9-7.1,19l3.3-36.4-9.1,20.6c-13.1-46.9-7.6-31.1,4.2-69.3-7.8,7.2-11.3,16.4-17.3,25.4-6.9-15.4-10.8-32.4-26.6-42.1,8.6,17,18.7,33.8,20,53.8.5,8.5-4.9,16.7-5.8,25.1-13.3-12.9-26.2-23.4-43.3-29.2l-5.5-11.5c-1.9,3.4-1.9,6.6-3.7,7.5-3.5,1.8-6.7-1.5-10.7.8,4.9,3.6,13.8.9,14.1,15.4.6,30.2,7.4,57.3,18.5,86.3-23.5-31-23.2-50.5-58-74.5l19.3,30.3c10.2,16,13.2,35,25.6,51-7.6.2-10-5.4-15.2-7.7-.6-4.2.8-7-.7-11.4-5.6,5.1-11.9,7.3-19.2,3.7-.2,3.6.9,4.9,1,6.9,0-1.1-8.9,13.9-4-18.6-7.7.3-5.7,6.4-6.4,11-1.1,6.8-5.7,12.9-8.2,19.6-4.5-14.4-2-27.2-8.8-38.5-3.1,15.5-.2,29.8-1.4,45.3-5.6-13.5-5.8-29.8-19.6-40.6,5.2,18.1,13.8,33.3,14.5,51l-16.9-34.3c-.9,13.4,8.2,21.8,9.2,34.4-3.9-9.3-10.5-16.4-16.3-25s1.9-11.1-6.6-10.4l-1.8,29.3c-9.3-3.2-8.6-11.4-9.2-20.2l-.4-6.8c-.1-1.9-6.1-2.8-6.4-.5-1.5,10.9-.5,21.6-.5,33.3,7.9-2.8,16.1,0,17.1,8.2s-3,4.8.1,9c-6.8.5-9.6-10.2-16.3-8.5s.6,11.5-2.9,13.2-5.3,1.1-7,0c-2.8-1.8-.3-11.6-2.8-12.7s-3.3-1.2-5,0,.3,10.8-2.9,12.7-5.2,1.3-6.9.1c-2.7-1.9-.4-11.8-2.7-12.8s-3.3-.6-5,.3c-2.4,1.3.3,10.4-3.3,12.5s-5.3.9-7.4-.1-.6-10.6-1.6-12-3.3-1.7-4.8-1.2c-2.9,1-1,12.3-2.5,13.2-2.2,1.3-5.9,1.1-7.4.2-3.5-2.2-.8-11.4-3.2-12.7s-3.4-.8-5-.2-.1,11.2-2.6,12.8-5.5,1-7.1,0c-3.2-2.1-.8-11.7-2.9-12.7s-3.7-.5-5,0c-3.1.9.1,11.4-2.7,12.9s-5.7,1.1-7.4,0c-3-1.9-.7-11.8-2.8-12.8s-3.6-.9-5.1-.2c-2.7,1.3.8,11.1-2.5,13.1s-5.5,1.1-7.5,0c-3-1.7.2-12.2-2.7-12.9s-3.5-.6-5,.1.2,10.8-2.8,12.8-5.3,1.2-7.2,0-1.1-10.7-1.9-12.2-3.1-1.3-4.8-.8c-3.1.9-1,9.4-2.9,12.1s-4.4,1.7-7.1,1.3c-5.4-.8,1.5-17.6-8-13.6s-.9,11.6-2.5,12.8-5.2,1-7.5.7c-5.7-.6,2.1-15.9-7.7-13.4s.6,11.4-2.9,12.9-5.5,1-7.2,0c-2.7-1.6-.2-11.6-2.8-12.7s-3.8-.9-5.1-.3,0,11.4-2.8,12.9-5.4,1-7,.1c-3.2-1.6-.3-12.4-2.8-13.1s-3.7-.6-5.2.3c-2.1,1.3.4,11.3-2.8,12.8s-5.3.8-7.5-.1.2-11.6-2.2-12.6-3.4-.9-5,0c-2.5,1.5.4,10.8-3.1,12.8s-5,1.1-7.1,0,0-11.8-2.7-13-3.6-.1-4.9.8c-2.5,1.7,0,10.5-3.3,12.3s-4.9,1-6.9-.8-.3-8.9-2-11.6-3-1.2-5-.5-.4,11.6-2.6,13-5.7,1-7.2,0c-3.2-2-.9-11.7-2.9-12.8s-3.7-.5-4.9,0c-2.9,1,0,11.5-2.8,12.8s-5.7,1-7.2.1c-3.5-2.1-.7-11.3-2.9-12.9s-3.6-.4-5,0c-2.7.8.4,8.4-2.2,12.8-8.9,1.5-17.4.3-26.4.4l-1-12.2c-.1-1.8-3.3-1.3-4.7-1.3-4.2.1-.3,10.6-3.9,13.2s-5.1,1.1-7.1-.5-.4-9.4-2.1-12-3-1-5-.5-1,11.9-2.6,12.7-5.9,1.3-7.4.4c-3.7-2.4-.4-11.4-3.1-12.9s-3.3-.8-5,0-.4,11.3-2.6,12.8-5.7,1-7.2,0c-3.3-2-.8-11.8-2.8-12.7s-3.7-.6-5-.2c-2.8.8.5,11-2.7,12.8s-5.6,1-7.4.1c-3.1-1.6-.6-11.7-2.8-12.8s-3.4-.8-5,0,0,10.9-2.9,12.7-5.3,1.2-7,0c-2.7-1.7,0-12-2.8-12.9s-3.6-.4-5,.3c-2.1,1,0,10.7-3,12.5s-5.6,1-7.3,0,.2-11.8-2.4-12.7-3.5-.7-5,.4c-2.3,1.7,0,10.9-3.1,12.5s-5.2,1.2-7-.7-.3-8.6-2-12-3-1.4-5-.7-.5,12-2.7,13.3-5.6,1-7.2.1c-3.4-1.9-1-10.7-3.2-12.7s-3.3-1-5-.3,0,11.4-2.6,12.8-5.6,1.1-7.1.1c-3.3-2.1-.8-11.8-2.8-12.8s-3.4-.8-4.9,0c-2.5,1.3.6,11-2.8,12.9s-5.4.8-7.2-.2c-2.8-1.7-.1-12.5-2.9-13s-4-1-5.4-.2c-2,1.2,1,11.4-2.6,13.4s-5.3.9-7.3-.2c-3.2-1.7.2-12.3-2.7-12.9s-3.3-1.1-4.7.1c-2.5,2.2.3,10.7-3.1,12.9s-5.2,1.3-7.1-.7-.2-9.6-1.9-11.8-3.1-1.2-4.9-.8-.9,12.2-2.5,13.1-6,1.2-7.5.2c-3.5-2.3-.7-11.6-3.1-12.8s-3.4-1.1-4.8-.6c-2.5.9,0,11.5-2.7,13.3s-5.6,1-7.2,0c-3.2-1.9-.9-11.7-2.9-12.7s-3.6-1-4.9-.2c-2.6,1.4,0,11.2-2.9,12.8s-5.4,1-7.1.1c-2.9-1.6-.3-11.7-2.9-12.8s-3.4-.8-5.1,0c-2.4,1.1,0,11.3-2.8,12.9s-5.4.8-7,0c-2.9-1.6-.1-11.5-2.6-12.7s-3.9-.6-5.3,0c-2.1,1,.4,10.7-2.9,12.8s-5.2,1.2-7.1,0-.2-11.3-2.6-12.8-4.2-1.2-5.5-.3.4,11.2-2.6,13.2-5.2,1-7.2-.5,0-8.3-1.8-12.1-3.1-1.3-4.9-.8c-2.7.7-.7,12.1-2.9,13.3s-5.6,1-7.2.1c-3.5-2.1-.7-11.3-3.1-12.8s-3.3-1.1-5-.1,0,11.1-2.6,12.8-5.2.7-7.3.5c-3.9-.3-2.9-4.6-3.3-8.4l-7.6-81.6,739.5-.2c4.1,0,3.4-7,.9-7l-19.7-1.1v-312c-.1,0-336.7-.2-336.7-.2v117.8c11.8,1.1,22.4-1.4,34.3,1.2-11.3,5.2-22.8-1-35.1,3.2,10,5,22.7-.2,32.5,2.8,3.5,1.7,3.5,13-.1,14.8-9.7,2.4-22.8-2.9-33.3,2.4,12.1,4.7,23.2,0,35,2.4.4,4,2.2,13.4-1.1,15.5-11.2,3-22.6-3.6-33.8,2.1,10.6,5.1,23.3-.7,33.3,2.8,3.7,1.4,3.5,13.4,0,15.3-9.8,2.7-22.7-3.9-33.1,1.9,10.3,4.9,23.3-.3,33.6,2.3,3.2,2.3,2.8,13.2-.4,15.7-9.9,2.6-22.7-3.6-33.1,1.9,10.3,5.2,23.3-.7,33.1,2.8,3.6,1.5,3.6,13.5,0,15.1-9.8,2.8-22.9-3.5-33.1,2.1,10.1,4.9,23.3-.5,33.1,2.7,3.5,1.8,3.7,13.3.1,15.1-10,2.6-22.9-3.2-33.4,2.1,11.2,5.5,22.4-1,33.7,2.7,3.3,1.8,1.9,10.8,1.1,15.5-10.6,1.4-20.3-.7-31.4-.2s-3,3.6-1.1,3.7l31.2.9c3.9,2.1,3.2,15.3-1.1,16-11.1,1.8-21.9-3.9-32.4,1.7,11.4,5.1,22.5-.8,33.6,2.2,3.5,2.4,2,11.8.9,16.4l-31.4.6c-2.1,3.2-1.1,6.5-1.9,10.5-4.2,1.4-8.9,2-14.1-.4v-311.4s-343.9-.1-343.9-.1l-.3,117.3c10.1,2.6,19.6-1.6,29.1,2-5.2,3.7-27-.4-28.1,2.3s0,2.7,1.9,2.8l24.3.4c2.1,4.3,1.5,10.1.4,15.4-9.4,2.9-18.3-3.4-28.5,2.1,10.3,4.9,19.4-.6,29.1,2.4.7,4.7.6,10.5-.3,15.6-9.6,3.1-18.5-3.5-28.9,2,9.6,4.9,18.2-.1,28,2.3,2.2,4,1.7,10.4.8,15.6-9.6,3.1-18.4-3.4-28.8,2,9.6,4.7,18.2.3,28.2,2.2,1.8,4.1,1.3,10.4.3,15.7-9.5,3-18.3-3.3-28.6,2.2l28.6,3c1.1,4.3,1.2,10,.2,15-9.4,3.3-18.6-3.7-28.6,1.9,8.2,5.1,19.6-.5,27.3,2.5,3,2.5,3.1,13.1,0,15.5-4.3,2.6-24.6-2.2-25.9,1.1s-.2,3.1,1.9,3.1l24.3-.5c2.4,4.7,1.8,10.8.7,16.2-9.5,2.7-18.3-3-28.6,2.2,10.2,4.6,19.2.2,28.7,3,1,4.4,1,10,0,15-9.5,3.3-18.4-3.6-28.7,2,9.6,4.8,18.1,0,28.2,2,2.3,4.6,1.6,11.2.4,16.7-8.4,1.2-16.3-.9-24.8,1.1-3.6.8-1.6,7.5-3.5,9.3-3.5,3.2-9.4,2-14,.6l.2-49.8.2-72.1-.6-190h-273.4c0-.1-.4,219.9-.4,219.9l-.3,92.4c-6,.8-9.5,1.6-12.9-.4s-.8-5.9-1.8-10.7l-280.3-.2c-2.4-5.4-2.8-11-.6-16.5l282.6-2.5c-26.6-5-279.4.2-282.5-2.8s-1-8.8-.9-14.5l283.4-2.7-282.6-2.3c-2-4.3-2.7-13.3,1.1-15.3l281.5-2.4-280.9-2.2c-3.2,0-2.9-2.7-2.8-4.7s1.2-3,4.6-3h195.3c2.4-1.4,2.5-7.5,4.9-7.7,26.8-2.2,52.2,2.6,79.5-2.3-14.7-6-77.5,2.4-84.3-4.4-2.4-2.4-4.7-8.7-1.9-12.6l86.1-3c-29.6-4.8-57.8-.3-86.5-2-1.3-5.1-1.4-10.4,0-15.4l86.5-2.6c-29.2-4.6-56.8-.7-85.9-1.6-2.2-3.9-1.2-9.2-1-15.7l86.9-2.8c-29.2-4.4-56.8-.9-86-1.3-2.1-4.7-1.4-10.6-.7-16.3l86.7-2.3c-29.2-4.7-56.7-.6-85.9-1.7-2.3-4.3-1.6-10.3-.7-15.5l86-2.3-85.6-3.5,84.6-1.5v-117.8s-344.5.2-344.5.2l.2,311.3c-4.7,2.5-9.4,2-13.6.6-1.4-4.1-.3-7.7-2.3-10.7l-82.5-.3c-2.7-2.8-1.5-9.1-1.6-12.8s4.3-4.1,8.1-4.1h76.5c2.3.2,2.4-3.9,0-3.9l-84,.6c-1.1-6.3-1-11.2.1-15.9l87-2.7c-28.5-4.9-57.6-.3-85.7-2.1-3.5-3-3.5-12.9.1-16.1l83.6.2c1.3-3.8-.6-4.1-3.6-4l-81.5.5c-1.5-6.3-1.4-10.6.1-16.5h85.1c1-3.7-.7-3.9-3.7-3.9l-81.5.7c-.9-6.3-2.3-13,.9-16.1l86.1-2.5c-29.8-4.8-58-.4-86.9-1.9-.9-5.4-2.5-12.5,1-16h84c1.2-3.8-.6-4.2-3.6-4.2l-80.7,1c-2.8-5.3-1.8-11.1-.9-16.2l87.2-2.7c-30-4.8-58.2-.4-87.3-1.9-1-5.6-1-10.3,0-16.1h83.6c2.2.1,2.7-3.8,1.5-3.8h-82.1c-5.1,0-3.8-8.3-3.2-14.3.2-2.2,37.9-1.8,45.8-1.8l36.1.2c1.6,0,2.3-.5,2.7-1.3,2.3-5.7-74.6.6-85-3.9l85.6-1.7v-117.5s-336.8,0-336.8,0l-.2,311.5c-7.4,2-13.2.5-20.4,1.6-2.5-.6-3.7,7,.6,7l740.7.3-7.4,81.7c-.3,2.9.1,6.7-1.7,7.8s-5.3.7-7.2.6c-7.1-.5.4-19.1-9.8-13.9s.5,11.7-2.6,13.3-5.5.9-7.3,0c-2.6-1.5-.8-12.3-2.7-13.2s-4.1-.6-5.4,0c-2.3.9.5,11.7-2.6,13.4s-5.4,1-7.1,0c-3.3-1.9.3-12-2.7-13s-3.6-.5-5,.2.3,10.6-3,12.7-5.1,1.2-7.1,0-.3-11.4-2.6-12.8-3.9-.5-5.2.1c-2,1,.4,11-2.9,12.7s-5.5.7-7.5-.2-.4-10.1-1.6-12.1-3.1-1-4.9-.4c-2.8.9-1,11.7-2.5,12.5s-5.9,1.2-7.3.2c-3.4-2.4-.7-11.3-3.2-12.6s-3.1-.5-4.7-.2c-2.7.5-.2,11.1-2.9,12.8s-5.6.7-7.2,0c-3.1-1.5-.7-11.8-2.8-12.7s-3.7-.5-5.1-.1c-2.9.8.4,11.3-2.6,12.9s-5.8,1.1-7.3.1c-3.4-2-.7-11.9-2.8-12.9s-3.4-.8-5,0,.3,10.8-2.8,12.8-5.3,1.2-7.1,0c-2.6-1.7-.2-12.1-2.9-12.9s-3.6-.7-5.1.1c-2.2,1.1.5,10.8-2.8,13s-5.1,1-7.1-.2-.2-11.5-2.7-12.8-3.7-.6-5.3.1-.2,9-1.6,11.8-4.9,2.1-7.2,1.1-.9-11.5-3.1-12.8-3.2-.6-4.7-.3c-2.8.7-.1,11.1-2.9,12.9s-5.5,1-7,0c-3.4-2.1-.9-11.8-2.9-12.8s-3.7-.9-5.1-.3c-3,1.3.3,11.2-2.6,13s-5.4,1.1-7.3,0c-2.7-1.6-.2-11.6-2.7-12.9s-3.4-.7-5,0,.1,11.2-2.8,12.8-5.4,1-7.4,0-.2-11.4-2.8-12.8-3.4-.6-5,.1-.5,8.4-1.9,11.6-6.1,2.8-8,.7.5-8.7-2.1-12-3.3-.7-4.6-.5c-2.9.5-1.2,11.5-2.5,12.6s-5.1,1-7.4.6c-4.5-.9-.4-11.8-4.1-13.3s-5.4-.8-5.5,3.3l-.4,10.1c-2.4,9.6-18.1,2.2-10.6-5.3l-.6-6.9c-2.2,3.3-4.2,6.6-6.1,10,3,11.7-20.6,6.4-10.3-4.1-2.2-2.1-4.7-.6-7.3,4.5,1.5,7.1-8,8.5-10.4,1.5-2.9-.3-3.9-1.4-3.8-4.2s.1.7-1.3,1.7-1.7.9-2.7,1.1c2.6,6.9-8.3,8.8-10,1.8l-2.7-.7-1.3-13.2c-3.4,2.9-4.6,8.6-3.7,17.2-4.8,1.1-30.9,2.5-30.1-3.2,5.6-3.7,0-12.3-4.3-8,4.2,1.7,4,6.6-.4,7.8-3.3,8.4-16.7,2.6-11.9-4.2.4-4.4-2.3-6.5-5.8-4,3.1.2,2.9,5.5-.2,6,2.5,9-8.1,8.2-13.6,1.2-3.8,6.7-16.3,8.1-13.9-1.2-3.3-1.4-3.4-6.4-.5-8.3-7.8-3.2-5.8,2.3-3.3,7.8s-13.5,11.5-14.3,2.3c-3-3.2-5.2-3.7-6.6-1.4,2.7,7.5-10,7.9-11.3,1.3-2.3-1.9-4.5-1.8-6.6,0-1.5,8.9-17.4,3.5-11.3-2.8l-.4-9.1-3.2,2.8c.6,4.5-.4,7.5-3,9-1,7.7-10.7,5.3-14.3-.7-5.6,7.7-12.3,7.9-17.3-.6-2.6,6.1-12,9.5-14.1,1.9-4.5-1.8-3.6-8.4-.7-11.8-3.5-.8-5.5,1.1-6,5.8,2.6,10.9-6.7,14.6-11.2,5.5-2.1-2.3-4.3-2.2-6.6.3-3.7,9.2-14.9,3.7-11-6.2-2.8-1.7-4.2-.4-4.2,4.1l-2.6,1.7c-4.6,9.3-14.4,4.2-12.7-5.7-.9-3.7-2.6-3.8-5.1-.3,3.1.6,2.8,5.7-.5,6.3-3,7.1-9.6,4.8-13.7-.9-4.7,6.2-12,8.6-13.6.3-4.3-1-4.8-8.5-.1-9.4-4-3.9-7.7-1.4-7,6.6,4.3,8.4-8.1,11.2-10.8,3.3-2.6-2.6-4.8-2.7-6.7-.3-2.3,9-17.1,3.9-12.2-4.2-1.5-4.3-3.4-4.8-5.6-1.4,3,.3,3,3.4-.1,3.9,2.7,4,.1,5.9-4.3,6.3-9,.8-10.8-6.5-10.3-13.9-5.1,3.6-10.8,4.1-17.2,1.6-2.6,5.9-14.9,13-19.5,7.3-9.4-11.6,24.9-29.6,33.6-31.3,3.1,4.8,6.2-4.8,6.1-9.1s-3.2-13.5-5.9-7c2.1,4.4,4.4,10.3,0,13.9,2,3.8,1.5,5.8-1.8,3.2-9.6,8.1-18-3.4-9.1-8.7-3.5-1.6-3.6-8,.6-8.2-5-5.1-8-3.3-8.9,5.5-8.2,10.8-23.9,11.7-18.2-5.1-2.6,7.3-6.7,11.8-12.3,13.5-1.2-4-4.2-4.4-9-1.3-1.9-6.4-4.1-7.8-6.6-4.2l-3.4-1.4c-3.7-8.5-6.7-17.3-9-26.4l4.8,34.1c-1.8,4.1-5.6,4.2-9,1.4l-12.2-20.2c-8.4-10.9-7.9-7.2,1.4,11.2,6.4,12.6,5.2,18.1-3.6,16.3-1.3-3.8-1.8-2.8-1.5,3.3-4.2.5-4.1,3.3.2,8.6-.7,7.3-3.2,11.9-7.2,13.8-6.5-3.2-10.8-2.2-12.9,3-35.8.9-71.4.5-106.6-1.2-2.4-8.6-3-17.9-1.9-27.9l4-2.8c-2.9,0-2.9-3.8.2-4.3-3.6-6.8,6.4-10.8,11.6-10,1.4-4.8.6-6.7-2.5-5.5,2.8,2.2-4.1,8.1-5.5,7.9-14.1-1.8-.2-23.9,7.5-28.6l-1.6-4.1c14.5-40.6,21.8-61,21.8-61l2.6-.9c-2.2-3.7-1-6.8,3.8-9.4-2.4,0-4.5,1.9-6.4,5.6.3,4.5-5.7,27.1-7.7,28.8s-3.9,1.6-6-.6-4.4-24.3.4-26.2c-1,0-2,0-2.8-.3-2.3-.9-1.9-4.1-1.9-3.9,0,2.3-1.6,3-4,3.9-4.4,3.4-9.5.5-10.9-4.5-3.2-2-2.9-3.4,1-3.4-.6-3.4-2.5-3.7-5.3-1.7-5,3.3-6.4-4.2-4-8.1-2.4-.6-2.9-2.4-2.7-4.5s1.6,6.6-1,6.7c5.4,3.2,7.2,10.7.6,14.2,8.3,6.6,0,15.2-5,6.3-3.3,1.2-4,2.4-2,3.6,10-3.8,15.6,5.4,16.9,27.6,0,0-1.3,23.6-3.8,70.8,3,5.1,2.5,16.8-4.7,16.3s-3.7-1.7-2.7-5.4c-5.1-.1-11.1-9.2-10-13.7-1,.3-1.9.5-2.3.1-2-1.8-15.3-14.7-15.5-15.8,2.2-13.2,3.8-26.5,5-40,4.6-4.8,4.8-18.4-3-15.7,2.5,3.7,2.6,13.3-2.2,15.4l3.3,3.4c.6,3.6-.6,30.2-1.9,31.9-4.2,5.6-6.7.2-8.5-4.4s-5-11.4-9.1-16l2.3-5c-1.2-1-2.1-1.9-2-2.9.1-9.8,4.3-28.3,10.2-35.3-1.8-1.5-3.8-1.4-6,.4,1.1,1.2,2.2,2.6,2.1,4.1-.2,2.4-5.6,28.5-6.4,29.7-2.3,3.6-4.6,2.6-5.7-1.6-4-2.5-7.8-6.1-11.6-10.8-9.9-1.9-5.8-10,2.1-12.7l-.6-2.6c5.8-6.2,5.7-14.8-.3-25.8-12.8,17.3-21.4,2.5-12.2-11.7l-4.5.4c-3.4-5.1-6.6-10.5-9.8-16-11.7,11.1-20.3-1.5-6.8-9.9-6.1,0-8.6-.9-9-7.2-8.1-1-12.6-3.4-18.6-8.7-1.2,6-4,9.4-8.4,10.3,4.5,6.1-3.1,8.6-7.1,3l-2.2-16c-5.4-3.2-7.9-3.1-7.4.4l-6.8.3c3.4,3.7,5.9,7.4,1,10.8,5.3,1,24.6,10,15,15.5s-3.2-.8-4.6-1.9c-.5,3.2-3.6,4.9-9.2,5-3.1,6.4-3.1,10,.3,10.9,3.8,4.7,6.5,10,8,16.1,8.4,5.1,15.4,11.5,21.1,19.5,8.5,4.9,12.7,10.9,12.6,18,14.5-2.5,10.6,15.7,9.3,12.7s6.7-6.2,10-4.3c3.1-5.1,7.9-6.4,12.5-2.5,7.8-13.4,23.8-.4,25.1,10.4,3.8.1,3.7,1.8-.2,2.5-6.5,1.3-3.5,3,9.1,5.1,4.2,3.6,13,22.9,1.5,20.6-31-5.4-19.9-2.4,3.5,3.5,6.2,7.1-4.2,10.8-10.9,11.6l-29.5,1.9,9.1,2.3c15.5-1.1,30.9-4.8,46.3-11.2,6,4,9.3,8.5,9.7,13.4,4.4,1.5,11.8,11.3,9.6,16.4,7.1-.6,10.4,14.7,2.2,18.3l-126.5-.2c-3.6-1-6.1-2.5-5.6-6.4-9.5-3.2-7.1-21.7-.4-29.4l-3.7-2.4,3.9-24.3c-1.8,8.1-5.1,13.9-10,5.1-5.1,6.6-10.1,2.5-15.1-12.5l9,32.4-3.1,3.8c4.8,3.5,12.9,29.5,1.4,27.9s-17.6-31.2-12.2-34.4c-2.4-1.8-4.3-1.7-5.7.3l2.8,1.1s5,10.9,15.1,32.7c.8,8-28.7,7.9-32.6,6.2-6-2.6-8-15.5-5.2-21.6l-2.6-44.4c-2.8-47.5,3.3-42.3-5.1-97.2-3.6-23.7-7.6-46.7-4.4-71.1s5.6-38.4,4.6-57.7c-.9-16.8,3.9-30.2,9.5-44.1,1.4,4.5,6.9-.2,10.3-1.3l61.6-20.6c42.2-14.1,46.4,1.6,83.1-6.9,38.2-8.8,62.4-13.3,101-3l129.7,34.6v-94.2s1.9-4,1.9-4c573,0,1146.1-.1,1719.3-.2l2.5,4Z"/>
  <path class="st28" d="M773.9,711.7c3.8-3.7,6-2.8,7.1,2.2,3.3-.5,4.8,1.1,4.4,4.9l5.6-.6h465.8c.3-4.8,2.8-8.2,7.4-10.4,2.3,1.9,4.9,3.2,7.8,3.8.7-4.1,3.6-5.8,8.8-5l31.5,3.7c230.4-.4,460.7,0,690.9,1.2l.6,4.7c-6.7,2.2-12.7,6.1-19.6,7.8-1.6,2.4-1.8,5.7,0,8l261.6,59.7c6.2,1.4,10.7.2,15.9,1.9-8.5,14.5-5.7,16.9-22.1,16.9l-1723.7.2c-18.7,0-13.8-2.2-24.2-17.5,11.9.9,20.9-2.4,32.3-4.9l171.8-38.3c5.1.2,6.1,1.6,4.1,6.4l-1.4,5.1c4.5-5.2,9.6-7.5,15.3-7-.7-5.6,2.4-5.4,4.3-.4l1,2.2c-5.2,3.4-6.2,5.3-3.1,5.7,2.5-.8,2.5.4,0,3.6l-1.5,5.5c5.5-6.2,10.7-9,15.8-8.5,1.6-.9,2.1-.4,1.6,1.5,2.4,2.9,6.2,1.3,11.2-4.7l2.7,1.2c2.7-.9,3.4-.3,2,1.6l1.4,2.7c-11.6,10.5-9.4,8.6,6.5-5.8l-5.4.8c-1.2-.5-1.3-1.2-.2-2.1-1.6-2-2.9-3.9-4.1-5.8-1.8-.4-1.8-1,0-1.7l-5.6-4.4c-4.8,1.5-5.9-.5-4.3-5l34.8-8c2.7-.8,1.8-8.3,2-10.9.3-4.4-3-7.6-6.7-7.7-3.9-6,5.9-9.9,7.7-2.5Z"/>
  <path class="st8" d="M1764,370c.2,1.3.3,2.7.3,4.1l-3.1,4c-8.9-1.5-13.3-.3-13.4,3.5l16.7,1.2c3.7,8.4,1.7,12.5-6,12.2-17.6-5.2-61.6,1.6-16.3,2.1,10.1-1.4,20.2-1.5,30.2-.3l3.8,3.3c-.5,1.7-1.9,2.9-2.6,4.4l-2.2,4-23.2.2v3.5c-.1,0,14.5-.3,14.5-.3,5.3-.4,7.7,1.5,7.1,5.6-1.4,1.4-2.6,3-3.8,4.6-5.1-.4-7,1-5.8,4,6.6,2.6,7.7,10.2-.5,11.6-9-1.7-12.7-.4-11,3.7,15.2-.5,19.7,2.9,13.4,10.1l-33.4.7-.8,3.2,33.6,1.5c5.5,4.6,5.3,7.9-1.9,9.4-8.1-1.4-11.4,0-9.9,4,16.5-4.3,24,12.3,5.3,12.2-12,0-18.2-4.3-17.2-16.3-1.3-.7-28.6-.5-29.7.5s.1,3.3.2,3.5c18.4-2.4,25.2,2.4,20.3,14.5,10.7.8,21.4.8,32.1,0,7.8,2.2,6.4,9.9-1.7,11.8-8.2-2-11.5-.7-10,3.8,15.1-1.5,19.4,1.6,12.9,9.4l-33.6.6.4,3.9,24.9-.2c13.3-2.3,17,10.7,4.9,12.3-7.5-2.3-10.6-1.3-9.1,2.8,14.2-2.5,19,.9,14.4,10.2l-34.6,1.2-1,2.9,35,1.6c2.5,6.8-2.2,10.1-14.2,10-.1,1.7.3,2.8,1.3,3.4,14.6-4.9,22.8,10.4,6.6,10.9,5.4,1.3,8.5,4.3,9.2,8.8l50.2,22.3,196.2,86.8c4.3,1.9,9-.8,13.4.8,1.2,9.5-4.9,13-11.7,14.2-2.7,1.1-5.1,2.7-7,4.9-231.4.3-463.1.4-695.1.2-4.3-2.3-6.6-7.2-7-14.8l-285.2-214.1c-96.6,71.6-193,144-289.2,217l-4.4-1.7c.3-4.8-1-9.3.6-15.5l244-183.1,47.9-36.4,44.8,33.7,43.6,32.1,55.2-22.7,9.1-35.9h412s8.6,34.7,8.6,34.7l83.7,37.4-.3-105.8c-15.6-20.4-8.9-29.6-1.2-40,4.1-1.4,4.8.9,5.3,4.3,3.6,1,28.5,1,32.5,0s.3-3.5-1.3-3h-29.7c0-.1-5-3.9-5-3.9-2.7-7.7,2.9-13.8,7.9-19.5,26-1.8,53.9-1.7,80-.1Z"/>
  <path class="st9" d="M2014.2,702.1c-11.3,7.4,1.7,10.1-10.4,14-1.4-.9-2.7-1.6-6.2-1.6l-685.3-.3c-14.7,0-26.8-6-40.3-2.8-3.8-.3-6.8-1.1-9-2.3,3-8,3.4-15.8,1.1-23.4-2.8.8-5.1-.2-7.1-2.8l-237.1-177.9c-80.6,59.6-161.2,119.5-241.7,179.7l-.3,24-4,3c-2.6-1.5-6,1-7.7,2.5-12.3-2-25.3-6-38.8.4-3.2-7.6-1.5-14.1-1.1-21l292.9-220.7,288.5,216.7c4.4,3.3,1.2,9.4,3.3,13.8h668.5c13.2,0,23.5.8,34.7-1.2Z"/>
  <path class="st13" d="M1766,422v155.9c0,0-25.9-12.3-25.9-12.3,8.4-3.6,15.5,1.5,25-1.4-6.1-5.5-12.3-.7-18.9-2.5-.7-2.7-2.5-10.6.3-11l17.4-2.1-38.1-1.3c-3-.7-1.6-11,1.7-11.1l37.8-1.3c-5.4-6.9-11.6.6-17.8-2.5s-3.5-9.1,0-10.8c6.1-3,12.4,4.1,17.8-2.6-13.7-2.7-25.8-.5-39.5-1.4-2-3.2-1.4-7.4-1.8-11.5l40-.7c-5.2-4.1-12,1.1-17.7-2.4s-1.9-10,1.3-11c6.2-1.9,12.8,3.4,17.5-3-13.6-2.1-26,2.3-39.3-1.1s-.9-10.3,2.3-12.2c-7.6-3.3-15.3-1-23.7-1.9l-.8-11.7h38.2s.5,13.5.5,13.5c7.7,1.9,15.3,5.1,23.3.5-7.3-4.8-13.7.2-20.9-3.2-.3-3.3,1.2-6.9,1.8-10.6,5.8-1.6,11.4,1.5,17.5-1.4l-37.7-1.6c-4.4-.2-2.4-10.7,1.6-10.8l36.2-1c-5.2-3.6-11.8.3-17.5-2.7s-2.8-10.1.9-10.8c6.4-1.2,11.4.9,17.2-1.3l-7-3c-1.7-.8-2-6.5-1.1-10.3s7.9-.3,9.4,2.8Z"/>
  <path class="st13" d="M1764.3,374.1c3.8,3.1-.5,9.1,1.6,13.9s7.6.4,9.3,1.8c2.7,2.3,2.1,7.1,1.1,10.2-6.2,2.2-12.5-1.4-19.1-.3-11.8,1.9-25.4,1.5-37.3.7-2.4-1.5-1.9-9.1.6-10.5,10-.4,22.9-1.5,33.2,0,4.2.6,8.1,3.7,11.2-3.3l-19.1-1c-2.5-.7-2.7-8.4-.7-10.4,5.5-2.2,13.6-1,19.2-1.1Z"/>
  <path class="st13" d="M1674.2,392.2l1.9-2.6c11.9-.4,25-1.3,37.8.3s3,10.1.3,10.4c-12.2,1.4-24.4.1-36.5.4-2.7-1.8-2.4-6.4-3.5-8.4Z"/>
  <path class="st24" d="M740.4,745.8c.9,1.3,1.5,2.5,1.1,2.9-4.5,5.8-18.8,18.4-25.4,17v-3.6c.4-6.5,9.9-10.9,16.1-13.3s-13.4,7.4-14,5.4l-4.3.4c-4-.3-7.9.8-11.7,3.3l-2.3-1.5c-2.2-1.5-3.5-3.8-4.1-6.4l40.2-9.1c2,1.2,3.8,2.7,4.3,5Z"/>
  <path class="st13" d="M1773.7,404.4c-1.9,4.3-.4,9.6-3.8,13.1-7.8-3.5-16.4-.2-25.6-1.6,0-3.8-.2-7.4.6-11.4h28.9Z"/>
  <path class="st13" d="M1764,370h-80c-.9-1,.7-1.6,2.1-2h75.7c1.4,0,2.4,1.2,2.1,2Z"/>
  <path class="st48" d="M1984.2,732c-2.2-.5-2.3-1-2.3-3,0-2.8-.4-4.3,2.3-5v8Z"/>
  <path class="st45" d="M318.6,1082.2c-.3-3.2,1-4,3.7-2.2,0,2.6,2.1,6.7,4,8.1,3.2-4.6,4.4-3.8,5.3,1.7-.6.9-.3,2.6-1,3.4,1.6,3.4,1.6,7.7.1,12.9.3,15.5,3.8,19.5,10.3,11.9-2.6-8.4-2.1-14.3,1.5-17.7.2-5.1,4.2-4.7,7.7-2.4,2.2,8.1,1.1,16.1,2.4,26.3,3.9-9.8,5.7-19.7,11-28.3,5.4-2.7,5.3-.9,2.6,3.8-3.4,16.5-12.8,48.3-21.9,63.4,4.9-.9,11-3.7,13.3-7.8,2.9-19.6,9-38,21.6-53.6,5.3,16.9-10.5,31.8-12.4,46l21.9-11.4c-2.5-3.7-5.7-4.1-5.7-7.9,3.3-.2,5.5,3.5,9.3,1.9-3.6-5.6-11-6.5-10.7-12.7.2-1.3,4.3,0,5.3-.5-1.3.6.4-11.4,6.2-13.6,14.5-5.5,2.7-6.2,26.4-7.2.6-4.1-1.5-7,1.2-10.7,2.8,2.5,3.1,8.3,6.4,9.1,5.2-1.7-4.3-8,.7-12.1s1.1,1.3,4.8,3.4c4.2-7.5,11.9-14,20.6-11.3,3.2-1.8,5.2-7.2,9.8-6.8,1.8,3.7-.4,7.3,1.9,10,2.3-3.2-.7-6.7,3-8.8,9.5,6.7-6.6,19.7,1.2,22.1,7.8-5.9,11.7-14.9,20.3-19.2,1.4,4-1.5,6.3-3.5,10.7,5.5.9,10.7.3,17.1.3-2.9,3.8-7.2,5.5-11.5,8.6,1.7,2.3,4.6,2,5.7,4.5l-23,2.1c10.6,16.2,8.5-3.2,13.8,25.2-6.8-.6-8.4-6.2-13.5-9,0,4.1,4.2,5.3,4.9,8.8-2.9,1.1-5.9,2.2-7.1,4.4s.4,4,.1,7.1c-5.8-1.5-12.3-.9-14.6,5.6-3.7-2.6-2-6.2-5.4-7.4-1.2,6.1-1.3,9.5-6,9.9s-5.6.4-8.2-3.2c-.6,3.6,1.4,5.5-.4,7.3s-4.4-.9-5,0c-.9,1.7.4,4.5.9,5.8s-2.4,3.8-4.4,2.4,0-8.5-6.1-10.3c-2.6,5.1-2.9,16.3-6.6,14.7l-5.5-2.5c-1.1-.5-3.6,1.8-6,2.9l-6.3-11.7c-1.9,2.8,0,5.9-2.2,7.7-3.6-1.7-.6-6.8-1.7-7.8-2.7-1-5.2-4-7-6.4-6.7,2.7-13.5,8.1-19.6,12.6,14.2,6,27.8,4.1,38.7,19.3-15.6-1-25.7-9.4-39.5-13.8,8.5,15,25.4,20.5,38.1,39.6-25-.5-34.5-22.3-46.3-39.2-9.8,3.5-28.7,18.3-25.5,31.3,2.9-1.5,5.6-3.2,7.2-5.2,4.9.7,5.2,1.4,2.5,5.5-3.4,3.3-8.8,6.1-11.6,10-.8,1.7-.9,3.1-.2,4.3l-.3,28.1,106.6-.3-15.8-10c12.2-.8,19.1,6.7,29.7,7.3-3.8-3.5-8.2-4.9-14-8.7,4.9,0,9.4,1.9,15.8,1.1-3.8-6.3-8.6-10.5-12.8-15.5-2.8,9.1-16.5-6.8-20.6-9.2,9.7-1.9.2,1.4,18.8,3.7,5.7.7,8.3,8.3,15,8.4-5.8-11-17.1-15-24.4-25.6,14.8,2,22.9,13.3,32.7,22.9-4.2-14.8-10.8-26.5-16.7-39.9,20,3.3,20.3,21.5,31.6,33.5-1.3-17.9-7.5-32.8-4.7-51.6,7.2,5.9,10.8,31.4,16.4,41.8l8-44.8c2.2,17.8.8,34-.3,50.3l15.6-38c4.2,12.3-6.1,24.1-7.8,37.9,7.2-7.1,12.6-25.9,20.5-29.3l-6.5,28.6,4.2-4.3c1.4-1.5,1.3,11.5,16.6-16.1,4.9,0,4.6,6.6,4.4,9.3-3.4,1-3.7,3.7-.6,8.2.2,2.8.4,5.7,1.3,8.6,4,.5,7.5-1.2,9.7-3.1,3.5-5.1,2.3-8.3,0-13.9,0-2.1,0-4.6.4-6.8s4.2-2.3,6-1.3c.8.1,3.2,59.3-7.2,26.5-13.2,10.1-28,11.4-30.5,27,8.2.3,13.5-4.4,16-12.8,13.9,12.2,14.4-1.8,21.7,2.4s-1.8,12.2,4.3,13.3,5.4-.5,7.1-2.3c1.4-1.3,1.4-2.7.1-3.9,0-2-.7-4.6.3-6.4s3.3-1.2,4.9-.7c3.6,1.1-.4,10.4,4.3,13s5.9-.9,8.3-.2c2.8-4.5,4.2-4.2,6.7.3,2.4-.9,6.5,1.5,8.5-.1,3.1-2.5-.8-14.1,6.1-14.1s3.1,1.4,3.1,4.2c-3.2,3-3.2,6.2.1,9.4,2.7.5,6.3,1.8,8.4.5,3.5-2.2,1-12.3,2.8-13.3s4.1,0,5.3.3c3.5,1-1.7,12.9,4.3,13.4s4.4-.2,6.5-.3l.4-2.7c2.2,1,2.2-.2,0-3.6.1-1.5-.3-4.7.4-6.2s4-1.2,5.8-.3-1.7,12.6,4.7,13.2,4.5-.5,6.8-.6c.8-3.1,3.9-4.8,6.8-5.8.7,2.3,1.5,4.9,3,5.9s6.5-.6,8,.3c2.2-4.5,4.1-4.7,6.6-.3,2.6-.7,6.6,1.9,8.7.1,3.6-3-.3-13.1,4-13.4s4.2-.3,4.6,1.9c-3.4,8.1-3.1,12.1.7,11.8,2.8,0,6.4.8,8.5-.6,3.4-2.2.7-11.7,2.9-12.8s3.6-.8,5-.1c2.6,1.3-.2,11.3,2.9,12.8s5.2,1.1,7.1,0c3.2-1.8-.3-12.1,2.7-12.9,11.4-3.3,1.8,12.3,9.7,13.4s4.6-.5,6.9-.6c1.5-3,2.7-6.5,3.5-10.4l2.6-1.5c2.7,2.4.5,8.3,2.5,11.3s7.4-.6,9.1.6c1.8-4.3,4.5-4.4,6.6,0,3.7-.6,8.2,1.8,11.3-1.3,1.6-.6,3.6-.6,3.6.4,1.1,14.4-2.3,6.6,0,1.1s1.4-.3,3.1,0c2.7,0,6.2,1,8.5-.2,5.1-2.6-2.1-14,6.2-13.5s2.7,1,2.9,3.5c-2.2,3.2-2.1,5.9.5,8.3,2.2,1.6,4.1,3.3,6.9,2.3,6.1-2,.8-12.3,4.2-13.6,11.9-4.4,1.3,12.1,9.5,13.5s5.1,0,6.9-2.3c2.5-2,2.6-4,.2-6,0-1.8-.4-4.6,1.3-5.2,11.1-3.9,1.6,12.4,9.7,13.4s4.3,0,6.6,0c1.5-2.6,1.7-5.2.4-7.8.2-1.4-.5-3.2.2-4.6s3.1-1.3,4.8-1.1c3.3.5,1.8,9.7,3.2,13.6h25.7c.9-5-.9-9.1.7-13.9s3.1-.1,3.6,0c1.8,5.5,1.9,14.6-1.1,19.9s1.5-9.2,5.1-6c3.5.4,7.3.6,10-1.8,3.4-2.4,5.3-1.8,7.8,1.4,3.8.8,7.2.7,10.4-1.5,1.1-5.2,2.1-7.7,7.3-4.5-.2,2.9-.1,5.7,3.3,6.5s4.7-.9,7-2.4c1.6-2.6,2.8-5.4,3.5-8.3l2.6-1.7c3.4,1.8,0,8.6,2.5,11.3s6.6.8,8.7.9c0,2.4,2.4,7.9-.8,9.7-8.2,4.7-12.3,12.6-12.5,20.9s-4.3,9.5.4,10.8,10.4-1.2,10.1,4.1-8.5,8.7-11.5,13-2.9,12-9,14.2-11.4,6.5-15.7,0c4-1.4,10.7-7.2,6.2-10s-11.2,1.2-16.6-3.3c-1.7,3.9-1.1,6.6-1.9,10.8-6.5-3.1-12.2-1.6-18.6.9s-16.6-1-15.8-8.8c.3-2.7,7.2-6.1,3.8-9.7s-11.1-1.9-12.2,1.5,3.9,4.3,4,5.9c.3,4.3-8.2,3.8-10.2,5.3s1.5,4,1.1,5.2c-3.3,10-14.6,12-23.3,7s-7.3,1.6-10.9,3.3c-7.8-15.9,20.7-28.6,12.6-36s-8.2-3-7.1-7.5c2.7-11.8,14-4.2,24-9.1l7.3-10.3c-6.4-4-11.9-2.6-18.5-4-30.8-6.3-22.4,23.2-38.5,14.8s-3.6,7.9-28.5-2.7c10.8,18.7,13,17.5,4.2,36.9,27.2,22.9,6.4,13,20.7,35.2-8.9,12-27,.3-35.2,7.9,2.9,6.8,9.9,4.3,15.2,5.7,10.2,2.7,17.4,1.5,27.3-1.2,8.2-2.3,20.4,1.9,25.5-6.7s5.8-9.7,10.9-9.1c7.5.8,6.1,9,5.9,13.7-1,21.4-12.3,1.1-20.1,31.5,4.7,2.1,8,1.9,12.2,4.7-6.8,6.6-3.2,11.5-11.2,15s-19-11.1-29.5-5.1-4.3,7.9-7.7,7.9-2.9-2.5-3.1-3.6c-.6-2.2,4.3-2.7,5.1-4.7,1.7-4.7-6.3-7.1-11.9-5.7-2.5-2.5,1.8-5.8.7-8.2-1.8-3.9-3.8-.9-5.4-.2-2.2,1.1.8,5.3.8,7.2.4,14.2-31.1,8.9-36.4,5.6-4.8-3-7.2,1.3-11,3.3-9.6,5.3-24.6.2-35.5,2.3-5.9-.6-9.8-9.1-15.9-10.8-4,1.8-5.5,5.6-8.6,8.4-7.8-.7-14.6.5-21.4,4.1l-8.8-6.1c-17.1,11.7-22-11.4-40.3,1.2,4.3,2,9.2,5,8.1,8.4-3.3,3.6-10.5,2.9-14.5.1,1.6-2.6,4.1-4.2,5.3-7.6-4.1-.6-7.5.4-9.6-2.7,4-7.2,9.2-19,1.7-24l-19.6-13.2c6.4-13.4,12.2,2,29.8-9.5-24.2-8.6-21.8,9.3-32.9-4.7-3.4.9-4.6,4-8,5.4-6.7-3.8-9.1-18.7-2.3-20.1l5.6-1.2c1.6-.3,1.5-3.5.2-4.7-5.5-4.6-16.8,2.9-24.3,5.8,4.2,5.3,7,7.4,9.6,13.3-11.2,1.9-16.5,9.9-22.2,17.4s-11.3.6-10,8.6c-24.2-13.9-15.2-2.4-26.6-9.5,18.5-11.2,22.6-.7,30.3-4.7s-3.9-8.1,14.2-15.2c.4-11.3-9.7-14-18.8-15.1-6-.7-12.4-4-17.2,4.5-.6,1.1-2.4,2.7-3.6,3.2-4,1.7-6.3-5.4-9.4-3.7-5.9,3.1,8.9,8.2,5.8,12.4-2.2,3-6.3,4.2-7.7,7.4s2.8,6.1,4.2,10.6-4.4,4.2-6.5,4.5-6.4-3.5-9.5-4.1c-8-1.6-15.2,5-23.6,4.8-7-.2-14.9.5-17.2,7.3-2.2,6.8-4.4,13.6,4.6,19.1-3.4,5.1-9.2,9.5-14.7,8.9s-7.7-5.9-12.6-5.4-11.7,3.6-18.1,1.7-13.8.1-19.6,4.7c-4.9-2.7-6.3-7.3-10.4-10.8l-9.2,9.3c-5.4,5.4-16.1.1-24.3.3-36.6.9-23.2-7.3-29.1-11.4s-5.1-2.5-7.9-.9-.8,6-2.4,8.8c-3.6,6.2-14.3,2.1-16.9-3.7s-5.7-3.9-10.6-4.2c.8-3.4,5-2.7,5-4.5,0-2.6-3.8-3.1-5.4-4.9-2.7-3.1,3.1-2.8,5-2.6,3.5.3,3.7,3.7,1.6,7.6,6.2,1.4,4.2-3.8,5.7-7s12.3-3.6,14.4-.3-1,8.1,4.9,8.4c.5-6.9,3.5-10.4,8.4-12.6,5.1-2.4,10.3.3,15.1,4.7,1.7-1.4,5.5-2.3,6.3-4.2-3.4-8.7-11.9-9.7-20.5-10.2,0-10.5,17-7.8,24.1-7.8,1.2,4.4-2.3,7.7-1.3,12.2s7.9,6.2,10.6,4.9c4.9-2.3,8.5-3.4,14.4-4.1-3.4-6.3-8.4-5.4-13.1-7.5-.5-3.5,1.2-6.4,1.2-10.2-6.2-.7-11.9-2.6-12.7-10.3l12-1.8c1.4-.2,1.3-4.6,0-5.2-3.5-1.8-11.2.7-13.1-.9s-3.6-5.1-1.8-7.1c2.9-3.3,7.7-1.7,11.3-4.5-1.6-5.1-3.4-9.4-5.5-14.5-4.3,2.1-9.9,1.6-13.5,3.1s-.8,8-4.2,6.9c-5.4-1.8-8.5-7.3-15.5-7.9-3.2,2.7-1.4,7-3.2,10.7-15.4,2.5-17.4-18.2-27-10.9-10,7.6,5.1,6.2,2.4,14.6-17.4,9-27.3,5.9-34.9,21.1s-2.2-.1-3.2-.7,1.4-3.9.6-4.5c-5.2-3.8-13-3.9-19.2-6.1s-9.3-.5-15,0c-7.9.7-12.8-11.8-10.6-18.5s5.4-9.7,6.9-16.6c-9,1.6-13.5-.1-20.1-1.4-10.8-2-21.7,8.4-29.5,7-5.2,3.8,3.7,6.1,5.5,8.5,3.7,4.8,5.1,9.1,13.2,9.4-2.1,3.8-4.7,2.2-7.3,1.9-4.8-.6-5.4-9.1-8.6-9.6-5.6-.8-7.6,6.3-13.9,6.2-3,0-5.4-4.6-4.5-8.5,1.5-6.7,7.8-12.2,14.1-15.1,16-7.5-3.1-10.3,33.2-13.1-3.9-7.5-5.2-17.1-10.1-25.5s-13,6.1-30.3-1.6c-7.5-3.3-15.3-29.4-7.2-30.1.3,5.5,2.2,10.9,2.4,17.6h32c-5.9-17.1-12.8-17.9-14.5-35.9,1.8-5.3,3.4-5.4,5.7-.3,2.9,11.2,10.6,20.8,13,32.7,3.2-10-1.9-17.7-2.2-26.1,2.5-1,5.1-.1,7.6,2.7,4.5-6.1,8.3-7.7,11.4-4.8-1.4,8.5-1.9,17.7-.9,28.1,6.7-18.7,10-38.1,20.9-53.9-1,21.6-10.8,38.1-16.4,57.7l130.8.2-4-14.3c-2.6-4.5-.9-5.5,3.9-4.4,1,.8,2.3,1.9,3.2,1.7s2-1.7,1.9-3.2c-2.4-30.5,7.4-69.9-1.1-103.3l-9.6-4.5c-3.9-3.5-3.1-3.7,2-3.6,1.2.2,2.6.7,3.4.9,1.4.4,2.6-.9,1.6-1.8l-2.6-2.2c-12.3-10.7-26.3-19.4-32.5-35.9,16.2,4.7,26.4,17.3,35.1,30.3,1.2-4.5.4-8.5-.6-11.6Z"/>
  <path class="st0" d="M538.3,910.2l11.3-1.9c30.6,5.3,61.8,8.3,92.8,6v-50.8c.1,0,4.2-2.9,4.2-2.9,3.6,1,6.7-1.1,8.8,2.2v252.4s-117.2,18.2-117.2,18.2l.2-223.2Z"/>
  <path class="st0" d="M2107.9,860.2l4,1.8v111c35.2-2.6,69.9-13.4,100.2-31.5l-.2-109,4-2.4c4.8,36.4,1,73.5,1.9,112l-.8,190.9-116.9-17.6v-252.7c2.9-2.4,5.5-2.1,7.8-2.5Z"/>
  <path class="st5" d="M90,640.2c-2.6-14-4.9-28.1-5.8-42.3-1.6-24.2,41.2-53.7,58.6-80.9,10.6-16.5,20.9-57.1,27.4-60.2s5.5-.5,7.8.8c11,6,18.9.2,25.2-8.9,3.6-5.2,8.2-10.6,8.2-17.4,2.8-1.1,9.6.8,10.1-3.4s-2.6-5.2-2.6-7,4.6-5.5,5.8-3.9c6.2,8,0,18.9.4,27.6,1.5,30.2-4.6,57.1-15.3,84.8-5.6,14.7-10,28-18.9,41.2-32.6,48.4-36.7,46-67.7,104.1s-10.1,32.4-17.9,49.3l-15.3-83.8Z"/>
  <path class="st34" d="M2583.2,657.9c3.3,1.4,23.7-14.4,23.5-24.8,22.2,19.5,12.2,38.2,39.8,52.2,15.5,7.9,13,39.9,9.4,52.6-10.4,35.9,3.8,41.8-1.4,79.2-10.3-11.9-26.2-19.3-36.6-33.3-14-18.8-19.8-44-22-67.3-5.9-64.1-38.7-75.3-51.9-112.3-4.7-13.1-10.1-25.7-12.5-39.5-3.1-16.9-5.2-35.3-3-52.5s22.4-41.4,26.4-66.2c8.1,8.4,22.3,9.4,30.9,1.7,2.5-2.2,2.1-7.2,6.1-7.8-1.1-9.1-25.7-16.9-16.2-19.7s6.2,4.2,13.1,3.9c2.8-.1,1.9-5.8,4.2-6.6,4.3-1.6,22.2-16.2,20.8-19.9,17,15.1,28.8,33.7,35,56.2,2.3,8.4,7.8,16.7,1.9,25.2-4.3-8.5-8.1-16.3-14.8-18.2s-17.6,1-23.9,9.4l-3.8-17.6c-9.9,5.5-30.4-1-30.7,19.4-3.1-3.6-4.9-5-6.7-5.9-14.2-6.8,3.9,12.7-23,28.4-4.9,2.9-8.2,8.7-14.6,10.8s-1.7,7.3-2.2,10c-.9,4.5,5.8,4.8,7.2,7.6,3.9,8,8.1,17.1,18.1,19.4s9.7-2.6,15.7-2c3,9.3,9.7,20.3,10.9,30.5-4.4,3.9-9.2,8.5-11.4,15.2s-5.1,3.5-5.5,5.5.7,6.1,2.2,8.9-3.2,5.8-4.2,8.1c12,25.6-5.5,10.1,13.8,25.5s-1.8,20.7,5.4,23.8Z"/>
  <path class="st0" d="M739.2,915.7l.5,186.2-75.6,12,.3-195.7,1.2-4c23.7-.8,47.4-1.6,71.1-2.3l2.5,3.9Z"/>
  <path class="st6" d="M2215.9,830.2l.2,114.4c-33.4,18.5-69.9,31.1-108.1,32.6v-117c0,0,108-30.1,108-30.1Z"/>
  <path class="st23" d="M1420.6,944.6c.2-3.1,6.2-1.9,9.9-1.1v178.3s-106.5.1-106.5.1v-177.7c2.3-2,7.7-2.4,9.3-.5,2.8,4.9,0,11.2,2,17.3l84.2.2,1-16.7Z"/>
  <path class="st0" d="M85.2,920.5v26.4s-8.2,83.3-8.2,83.3c-2.1,21.6,3.3,42.2,5,63.8,2.6,34.4-1.4,67.6-3.4,101.8-.7,13.3,1.2,25.7-5.4,37.8-7.8,1.2-16.3,1.1-24.9,0-4.5-19.2-3.7-38.5-.9-58.1,9.5-66.7-12-67.9-6.1-141.4l6.4-80,.5-30.2c1.4-4.7,5.6-6.8,12.4-6.3,7.1-1,20.2-2.7,24.5,2.9Z"/>
  <path class="st5" d="M85.2,920.5c-12.4,1.1-24.9-.2-36.9,3.4-2.7-12.4,0-24-1.6-35.9l-4.1-30.1c-3.7-27-4.5-53.9,2.8-80.6,1.1-22.7,14.5-109,13.4-125.1l-1.7-24.5,16.3,48.8,9.5,56.8c9.7,57.5-1.6,48.9,2.3,79.6,2.9,23-.3,44.8-.2,67.7l.2,40.1Z"/>
  <path class="st0" d="M2090,980l.5,133.7-75.1-12,.4-121.5c0-1.6.4-3.9,1.3-4,19-1.2,44-1.1,63.1-.2,5.4-1.2,8.6.2,9.7,4Z"/>
  <polygon class="st37" points="2090 980 2015.9 980.2 2015.3 887.1 2091 865.9 2090 980"/>
  <path class="st20" d="M646.5,860.5l-.2,58c-37,1.9-72.8-1.2-108.1-8.4l.6-81.1,107.7,31.4Z"/>
  <path class="st46" d="M205.6,400.8c-11.5-21.4-6.8,4.8-26.9-26.3-4.2-2,.6-15.7-5.2-17.9-4.5-1.7-12.2,1.6-15.9,6,0-20.6-14.9-16.7-27.5-23.4-3.8,2.7-6.6.6-9.7.7-7.7.1.5,29.9-12.2,15.8l-4.1-4.5c-1.2-1.4-3.8,1.8-5.7,1-4.9-2-11.7-7.5-17.1-2.7-13.3,11.8-4.7-5.3-19.1,26.9-6.8-23.4,5.5-32.1,11.5-54.7,4.9-18.2,15-32.7,28.1-45.7,4.5-4.4,6.7-10.9,13.7-11.9-.3,3.2-1.4,5.9-.5,8,1.3,3.1,7,1.4,8.8,3.9l7.5,10.4c3.3,4.7,10.5,5.8,10.7,13.5l18.4-3.7c2-.4,1.8,7-.6,7.9-9.1,3.4-17.2,8.2-20.1,17.1,3.6,1.2,5.6,2.4,7.3,3.2s-.2,6.2,1.1,7.6c9.5,9.6,37.2,7.2,41.5-4.4,4.1,9.5,2.7,17.9,7.6,25.8,11.9,19.5,21.5,39.1,26.4,60.3-4.5-7-14.7-7.1-17.8-12.9Z"/>
  <path class="st5" d="M2692.6,861.7c.5-15.4-14.6-19.3-16-38-1.5-20.3-7.1-38.4-11.7-57.9-2.1-8.9,4-19.6,4-28.8,0-10.3,6.2-18.4,8.1-27.9,2.7-13.7,6.3-25.8,11-38.8,2.4-6.6,3.4-32.9,10-36.7,11.7-6.8.6,38.8,2.6,50.2l6.8,39c4.3,25,8.9,48.5,3,73.8-2.2,9.6-.8,19.5-1.3,29.4l-2.3,42.6c-.2,4.2-5.8,1.9-8.1,1.8-3.5-.1-6.1-4.5-6-8.7Z"/>
  <path class="st5" d="M262.7,392.3c9.1-9.4,16.9-15.4,20.1-27.8s2.8-8.4,7.3-8.6c-1,5.9-1.6,14.6,4.9,14.7s10.9,4.1,15.7,9.3c5.1.7,7.1-8.5,7.6-13.6,4.8-1.1,4.6,4.6,7.7,5.5,7.2,1.9,9.4-5.2,12.1-10.1s3.9.4,5.1,0c4.7-1.5-.8-9.2,1.6-10.5s3.1.5,3.6-.4c2.7-4.7-1.1-9.6-4.2-15,4.4-2.7,8.9.6,11.9,1.9,4.6,2.1,6.2,9.2,2.7,13.2-9.8,11.1-18.7,21.9-24.9,35.3-8.9,19.1-37.8,44.4-52.7,65-10.5,14.4-19.2,29.5-32.5,41.7s-14.3,15.9-20.5,25.4c7.3-26.2,7.4-51.3,11-78.2,2.2-16.9,11.6-35.3,23.5-47.6Z"/>
  <rect class="st9" x="1572.9" y="1107.4" width="295.1" height="17.9" transform="translate(-1.5 2.3) rotate(0)"/>
  <path class="st5" d="M91.1,561l-10.1,13c-3.3-39.1,1.6-75.1-5.3-114,9.7,4.8,29.7-11.3,41.7-14.2,8.4,24.2,19.9,12.1,20.6,34.1l.8,28.5c-13.7,19.7-33.4,34-47.8,52.6Z"/>
  <path class="st22" d="M1465.7,944.7c0-3.2,7.5-1.8,10.3-1.4v176.7c-12.3,1.5-23.6,1.6-36.5-.2v-175.4c.2-2.2,6.4-2.2,7.7-.7l.6,73.7c6.3,2.3,11.8,2.2,17.3.3l.6-73.1Z"/>
  <path class="st22" d="M1308,944.7c0-3,5.4-2,7.6-1.1l-.3,177.2c-13,.6-23.4.7-35.7-.7v-174.3c0-4,9.7-4.2,10-1.4l.6,73.3c5.9,2.6,12,2.5,17.4.3l.4-73.2Z"/>
  <rect class="st23" x="1572.8" y="1067.4" width="295.2" height="17.5" transform="translate(-1.6 2.6) rotate(0)"/>
  <rect class="st23" x="1711.7" y="948.6" width="17.4" height="295.1" transform="translate(621.5 2814.8) rotate(-89.9)"/>
  <rect class="st9" x="1257.5" y="1144.1" width="240.4" height="18.3"/>
  <path class="st0" d="M772.1,916.3l.4,180.9c-7.8,2.1-13.3,2.9-22.3,3v-184.2c1.4-6.3,20.1-5.7,21.8.3Z"/>
  <rect class="st23" x="1369.8" y="1079.6" width="15.7" height="248.7" transform="translate(173.4 2581.4) rotate(-90)"/>
  <path class="st5" d="M63.2,561.9c-.4,12.6,1.2,24.2-1.7,35.5-24.3-27.6-12.9-51-23.6-75.2s-9.9-24.3-7.5-38.2-2-17.1-3.9-25.9c-2.8-13-1.6-26.5-3.2-39.1,5.9-6.2,13.9,24.4,14.2,26.7s5.6,2.3,6.2,4.1,0,7.4,1.7,8.6c4.3,2.8,10.1-1.5,15.3,1,4.2,34.1,3.5,67.9,2.4,102.5Z"/>
  <path class="st41" d="M2480.8,464.2c7.9,28.8,30.9,28.5,36.2,62.2,3,19.2,3.5,36.6,8.2,56.9-23.7-24.7-22.8-22.7-42.8-51.5-6.9-9.8-16.1-17-23.2-26.6l-30.5-41.6c-2-2.8-3.1-7.9-.5-10.1s5.8-5.5,10-3.6c-.6,4.4-3,6.5-4,10.1,3.9,4.9,6.7,10.6,11.3,14.8s10.2.9,15.1-3.1c1.4,5.5-3.6,9.3,1.7,13.6,3.5-6.3,8.6-9,15.5-8.1l3.1-12.9Z"/>
  <path class="st5" d="M206.5,775.9l2.5-21.1c3.7-32,24.4-29.6,40.7-61.3,2.2-4.3,6.4-10.8,11.3-10.4s4.7,3.1,6.3,3.3c8.8,1.3,7.8-6.7,12.2-8.4,9.3-3.7,9.9,5.2,15.7,10.7-20.9,50.2-48,56.7-88.6,87.2Z"/>
  <rect class="st9" x="1255.7" y="1171.8" width="243.8" height="14.8"/>
  <path class="st35" d="M739.2,915.7l-74.8,2.5v-52.7s74.6,21.1,74.6,21.1c1.5,10.4.1,19.8.2,29.1Z"/>
  <path class="st9" d="M1984,895.8l4,1.3v77s11.3,1,11.3,1c1-29.8,1.2-57.5.5-83.2.4-.8,5.9-3.6,5.9-1.6l-.3,89.3-.8,120.5c-8,.3-14.5-1.2-22-2.6l-.3-119.6-.4-78.1c0-2.1.9-3.6,2.1-4.1Z"/>
  <rect class="st23" x="1252.1" y="1222.1" width="251.1" height="12.3"/>
  <path class="st43" d="M2704.5,463.4c-2.2,4.2-16.2-21.8-22.1-9.4s6,8.6,3.2,11.1c-5.2,4.7-9.7,8.9-16.2,11.3,2.2,7-3.3,12.2-8.8,15.6.6-33.4-3.1-56.6,3.7-90.4,8.4,2.3,13.2,8.6,20.9,12.2,4-6.4,12.3-.5,14.2-2.8l3.8-4.8c.7-.9,5.5,2.6,4.8,5.7-5.1,23.7,4.7,44.3-3.5,51.4Z"/>
  <path class="st9" d="M1852.5,1056.1c3.4-3.2,3-6.7,5.1-7.4,3-1,9.1-1.7,9.9,1.2,1.3,4.9.7,9.1-.2,14.3h-293.4c-1.7-5.1-1.5-10.5.6-16.3h33.3c2.1,1.7,2.4,6.7,5.1,8h239.8Z"/>
  <path class="st17" d="M398.5,391.3c3.2,2.5,7.5-3.7,10.8.9-9.9,8.1-21.7,9.8-31.9,15.8-21.2,12.2-42.3,22.9-67.3,28.3,11.1-20.9,23.4-40.3,41.1-55.2,4.6-3.9,10.3-3.8,10.1-12.8,0-5.6,7-11.9,10.7-16.3,1.9-.8,5.5,3.4,5,5.9-1.1,5.9-5.3,9.7-9,13.4,2.3,1.1,3.6-.8,5.2-.4,5.7,1.4,4.1,15.2,8.2,17.4,3.6-1.6,6.5-2.8,9.4-2.8s4.2,3,7.7,5.8Z"/>
  <path class="st23" d="M1775.8,944.9c1.2-4.3,5.6-4.1,8.2-1.2l-.8,96.3-101.5-.4-.3-95.6c2.2-3.1,6.2-3.5,8.2-.4l.2,85.1h85.7s.2-83.9.2-83.9Z"/>
  <path class="st9" d="M1065.5,944.9c.5-4.5,8.3-4.4,8.3-1.2l.2,96.2h-102.1c0,0-.2-93.9-.2-93.9,0-2.9,1.2-4.1,3.2-4.4s4.7.4,4.7,4.3l.4,83.3,85.4-.2v-84.1Z"/>
  <path class="st23" d="M1663.8,944.8c0-4.4,9.6-4,9.7-1.8l.8,96.2-48.4.6-.2-96.9c3.4-1.5,6.8-1.2,9.6-.4l.3,85.4c9.9,1.3,18.6,1.8,28.3,0v-83.2Z"/>
  <path class="st0" d="M2448.3,1234.4c-1.1-4.9,15.2-7.9,13.8-13.3-1.9-7.3-37.9,10.2-47.7,13.4,3.8-9.8,11.1-16.9,19.4-24.1,2.9,5.7-3.6,7.2-2.4,12,8.2-3.4,8.9-11.4,14.9-16.7s16.9-13,24.8-12c11.6,1.5,25.7,18.3,37.2,24.4-3,1.6-6.3.7-9.4,2.7s-.5,3.9.3,5.2c2.5,4.1,30.7-.9,37.2,7.5l-88,1Z"/>
  <path class="st9" d="M1119.8,944.7c0-4.1,8-3.6,9.5-1.5l.3,96.3-48.3.3.3-96c0-3,9.6-3.2,9.6-.3l.6,85.1c8.8,1,17.7,1.1,27.5.1l.5-84.1Z"/>
  <path class="st1" d="M1829.6,944.8c0-3.9,8-3.5,10.2-1.6l.2,96.5h-48.7c0-.1-.2-93.8-.2-93.8,0-3,2.6-4,3.9-4.1s5.5-.6,5.6,2.1l.6,84.8c10.4.3,19,1,28.1-.4l.4-83.5Z"/>
  <path class="st5" d="M346.5,699.4c-27.2,31.5-35.1,49.2-79.6,43.4,26.1-15.7,27.8-43.1,40.8-48.7s10.3.5,14.9-3,5.2-6.8,7-14.2c5.7,6.8,4.9,12.5,9,18.9,2-2.6,9.6,1.6,7.9,3.5Z"/>
  <path class="st46" d="M2684.1,644.2c.2,29.1-6.9,36.4-15,62.1-9.7-22.6-14.5-46.3-17.2-71.5,5.2-3.8,9-7.3,12.2-12.5,14.4,6.3,9.8,22.1,19.8,7.4,2.5-3.7,6.8.7,8.5,2.6,2.7,3.2-4.2,14.3-4.3,14.4-1.1.8-1.9-2.4-4-2.5Z"/>
  <path class="st5" d="M278.7,357.2c.5,8.6-5.8,14-10.2,20.9-12.3,18.9-12,7.5-29.3,33.8-1.4-13.8,3.9-27.3,3.3-41.8s-4.5-28.9-2.6-44.8c5.9-2.7,13.2-3.3,21.4-4.1l-4.7,12.9c1.8,4.6,2.3,9.4,0,13.8,5.9,4.6,12.7,8.8,14.7,17,4.4-2.1,4.8-4.9,7.4-7.6Z"/>
  <path class="st37" d="M1999.8,892c1-.4,4.3-.5,4.3,1.9v85.5c-6.7-.4-12.6-.4-20-1.7v-81.9c4.8-1.4,11-3,15.8-3.8Z"/>
  <path class="st10" d="M229.3,325.8c1.3,26.4,7.5,49.6-.5,70.6-9.4-16.2-16.4-32.8-26.5-48.3s-.6-10.5,2-15.9c4.4-9.1,6.6-19.4,18.2-24.5,1.1,6.5,6.6,12.1,6.9,18.1Z"/>
  <path class="st43" d="M2391.1,493.9c6.9-4.9,10.9-7.2,17.4-4.6s4.2-9.3,8.7-11,4.2,1.7,6.9,1c-4.9-4.2-12.6-8.7-8.1-17.4,18.5,20.1,33.6,41.1,49.5,63.9-10.8-1.4-20-5.6-29.5-10.2l-44.9-21.7Z"/>
  <path class="st12" d="M84,254.3c.9,18.9-11.8,53.8-22.6,73.6l-2.5-81.4c-.1-4.3,8.2-9,9.6-5.3l9.4,23.5c4.9-.9,1.9-5.7,6.1-10.4Z"/>
  <path class="st0" d="M2353.9,1164c-8.3-7.9-11.2-17.8-15.7-28.2-1.8,2.3-.4,4.5-1.9,7.4-21.8-11.9-14.8-21.6-24.5-50.1,12.1-.9,32.5,26.8,40.9,36.5.7,11,2.8,20.9,1.2,34.3Z"/>
  <path class="st9" d="M964.5,1039c-7.4,1.1-15.3,2.4-20.5-1.1s-.8-7.5,1-8.1,5.7-.7,9.2-1.2l.7-84.8c0-3.6,9.2-3.2,9.2,0l.5,95.1Z"/>
  <path class="st32" d="M2386.7,1207.9c2.2-39.6,9.4-68.4,26.4-106.7,12.4,17.8-15.8,86.5-26.4,106.7Z"/>
  <path class="st17" d="M2517.3,507.8l-20.1-23.1c-4.2-4.8-8.9-9.5-8.9-16.1l5.1,1.5c.4.1,11.6-9.1,11.5-16.2s-.5-7.2-5-12.7c6.4-2.7,11.3-.7,17.1.3,1.4,23.8-1.3,37,.5,66.4Z"/>
  <path class="st41" d="M2493.2,749.4c-32.6,3.3-35.4-7-54.1-28.3,7-2.3,6.7-7.7,11.6-13.8,3.8,17.1,17.7,4.7,22.6,15.7s11.7,16.4,20,26.3Z"/>
  <path class="st23" d="M926.4,1031c0,3.9-1.1,7-2.3,8.1s-8,1.8-8-1.2l.2-94.3c0-2.6,9.9-2.7,9.9.2l.2,87.2Z"/>
  <path class="st5" d="M2544.2,461.4l-18.1,34.4c-8.3-13.8-3.6-27.8-2-41.8s.5-17.2,7.5-23.6c6.8,3.9,7.9,10.8,11,16.8s4.6,8.2,1.5,14.2Z"/>
  <path class="st6" d="M2730.7,424.1c-4,8.7-13.8,12.9-16.1,22.2-1.7-12.9-1.8-24.6,1.7-35.6s5-7,3-13.1,2-9.6,2.3-14.6c23.5,6.1,3,15.3,24.9,25.7-9.7,2.5-12.1,7.2-15.8,15.4Z"/>
  <path class="st4" d="M2650.6,677.4c-9.4.2-15.2-8.3-17.6-16.3-7.3-25.1-23.7-24.8-17.4-30.6,4.8-4.4,7.1,2.4,13.4,3.2s5.6-8.2,9.9-6,7.6,37.2,11.7,49.6Z"/>
  <path class="st25" d="M2652.2,443.1c-6.5-4.1-20-47.8-17.4-51,1.7,2.4,2.2,3.2,2.8,3.6s2.8.4,3.4-1l6.1-13.9c.7-1.7,7.1.8,6.9,3.2-1.4,19.9,1.1,38.5-1.8,59.1Z"/>
  <path class="st23" d="M927.1,1124.8l-38.8.4c-1.4-5.5-1.7-10.9.1-17.3l38.5.3c.6,5.8,1.1,10.1.2,16.6Z"/>
  <path class="st19" d="M1612.7,1004.1l-37.2.3c-3.9-1.9-3.8-12.8-1-15.8,12.5-1.3,26.3-.5,39-.3,1.3,4.3,2.3,12.2-.9,15.8Z"/>
  <path class="st19" d="M1613.9,984.6c-13.7-.3-26-.9-39.9.4-1.7-5.7-1.6-11,.3-16.7l39.2-.2c1.4,5.1,1.5,8.9.4,16.5Z"/>
  <path class="st23" d="M1612.7,1024.4l-37-.5c-3.9-1.1-4.2-12.7-1.1-15.2,12.2-1.4,26.5-.9,38.8-.4,1.3,4.5,2.2,11.7-.7,16Z"/>
  <path class="st23" d="M926.7,1084.5l-38.2-.3c-1.6-5.9-1.6-10.3,0-15.9,13.2-.5,25.5-.8,38.4,0,.6,5.5.9,9.7-.2,16Z"/>
  <path class="st9" d="M926.5,1104.9c-12.9-2-24.3.4-37-.6-3.5-2.4-2.3-11.3-1.2-15.8,12.9-.9,24.5-.9,38-.4,1.5,5,1.7,9.8.2,16.8Z"/>
  <path class="st9" d="M1605.1,1044.4c-10.3-.3-20.1.6-29.5-.2-3.8-.8-4-12.7-.8-15.2,11.8-1.7,26.2-.9,38.5-.8,3.5,6.2.3,16.4-8.1,16.2Z"/>
  <path class="st19" d="M1973,1124.5h-33.6c-3.3-3-2.3-11.3-1.1-15.9l34.1-.6c2,4.9,1.3,10,.6,16.5Z"/>
  <path class="st9" d="M1973.3,984.5l-34.8-.3c-1.6-5.9-1.8-10.6,0-16.1l34.7.3c.6,5,.6,8.6.1,16.1Z"/>
  <path class="st31" d="M1972.8,1084.2l-33.1-.7c-3.5-1.5-3.5-12.1-.7-15l33.4-1c2,5.6,1.3,10.4.3,16.7Z"/>
  <path class="st32" d="M1973,963.9h-34.5c-1.5-5.6-1.5-10,0-15.4l33.9-.3c2.3,4.8,1.5,9.7.7,15.7Z"/>
  <path class="st23" d="M1972.2,1004.8l-32.3-.8c-3.8-1.3-3.9-14.1,0-15.1,10.5-2.6,23-.2,33.3-.9.9,5.8,1.1,10.1-1,16.7Z"/>
  <path class="st19" d="M1972.5,1025.2l-33-.9c-3.5-2.6-2.1-11.2-1.1-16,11.5-.4,21.7-.8,33.9,0,1.9,4.7,1.9,9.8.2,16.8Z"/>
  <path class="st11" d="M1972.6,1045.2l-33.1-.8c-3.4-2.9-1.8-11-1-15.9,12-.8,22.8-.8,34.6-.2.6,5.7,1.2,10.1-.5,16.9Z"/>
  <path class="st0" d="M1972.5,1104.9l-33-.8c-3.5-2.5-2.2-11-1.2-15.6,12.1-1,23-.5,34.8-.3.5,5.7,1.2,10-.6,16.6Z"/>
  <path class="st9" d="M1972.9,1064.3h-34.5c-1.6-6-1.6-10.5-.1-16.1l34.2-.4c1.9,5,1.4,10.1.4,16.5Z"/>
  <path class="st15" d="M772.1,916.3l-21.8-.3.2-25.9c6.5,2.3,15.6,2,20.7,6.4,3.2,5.9.8,14.1.8,19.9Z"/>
  <path class="st25" d="M146.6,487.9l-5.4-44.7c6.6-1.5,12.2-2,15.9-7.2,5.5-2.1-7.1,51.5-10.5,51.8Z"/>
  <path class="st9" d="M1512.2,1043.7c-7.9.7-14.4,1.4-22.4.8-1.7-5.1-1-10-.4-15.6,7.2-1.5,14.1-.9,21.6.2l1.2,14.6Z"/>
  <path class="st9" d="M1511.9,1064c-6.6-.7-13.6,1.8-20.3-.6s-2.8-10.8-1.3-14.9c7.7-1.5,14-.7,21.6-.4.4,5.1.3,8.5,0,15.9Z"/>
  <path class="st0" d="M1264.9,1044.1c-7.8.3-13.5.2-20.3-.4-1.2-5.4-1.8-10.1-.2-15.4,7.4-1.3,13.7-.8,20.8.4.8,5.2.8,9.5-.3,15.4Z"/>
  <path class="st0" d="M1265.6,1023.8c-6.6,1.4-12.7.9-20.1.9-3.3-4.8-2.7-10.5-1.2-16.1,7.5-1.2,13.9-.9,20.9-.1.9,5,.7,8.5.4,15.4Z"/>
  <path class="st0" d="M1265.7,963.7c-7.3.6-13.8.8-21.4.1-1.3-5.4-.7-9.8.5-14.9,7.1-.4,13.3-.8,20.3,0,1.2,4.5,1,8.2.6,14.8Z"/>
  <path class="st0" d="M1511.4,1083.1c-7.2,1.2-13.7,1.2-20.9.4-1.9-5.3-2.4-10.1-.3-15.4h21.7c.4,5.1-.2,8.7-.6,15Z"/>
  <path class="st0" d="M1510.9,1002.8c-6.9,1.8-13.3,1.7-20.6.5-1.5-5.1-1.9-9.7-.2-14.6,7.5-.6,13.8-.8,20.9.5.4,4.1.2,7.7,0,13.6Z"/>
  <rect class="st0" x="1243.5" y="988" width="22.1" height="16.8"/>
  <path class="st0" d="M1265.5,983.9c-7.2,1.3-13.9,1.2-21.3,0-1.4-5.6-1.3-10.2.4-15.6,7.3-1,13.6-.8,20.6.2.8,4.8.5,8.4.3,15.3Z"/>
  <rect class="st0" x="1851.2" y="947.7" width="16.1" height="17.4" transform="translate(873.6 2800.4) rotate(-89.1)"/>
  <rect class="st0" x="1850.6" y="967.8" width="17.4" height="16.4" transform="translate(-4.1 7.9) rotate(-.2)"/>
  <path class="st33" d="M2719.8,643.2c-6-18.8,14.2-18.3,3.7-36.3,5-2.1,9,.6,13.8.2-5.3,12.9-10.4,23.7-17.5,36.1Z"/>
  <path class="st42" d="M2590.9,530.3c-2.4,10.1.7,22.4-4.9,25s-8.5-24.6-7.8-29.1c4.3,2.3,7.9,3.5,12.6,4.1Z"/>
  <path class="st3" d="M105.6,259.4l-15.1,16.3c-1.6-8.5,2-15.5,8.8-19.3,2.2,1,4.1.8,6.3,2.9Z"/>
  <rect class="st0" x="1850" y="942" width="17" height="2"/>
  <path class="st24" d="M366.2,1099.8l-2.6-3.8c-6.6-18.8-19.1-28.3-13.5-53.7,9.3,14.9,11.8,30,15.3,46.7,5.8-7,7.8-14,12.2-21-2.8-2.8-6.1-2.3-9.3-4.8-1-1.7,2.5-3.4,3.9-4.7-5.4-1.1-8.3-1.7-11.5-5.7s1.2-6.2.9-9.1c-.6-5.1-3.5-6.8-.7-12.3s-2.5-7.1,3.2-9.9,5.4-3.1,11,0c.8-4.3-2.5-5-2.6-8,2.3-3,5.9-2.7,9.4-3.9-1.2-2.8-5.2-4.1-2.5-4.5s2.2-.4,4-.4c-.4-2.4-2.8-3.9-3.9-7.3,2.6-1.6,3.9,1.3,5.8,1.2.1-2.6-.8-5.2.5-6.2s3.3,1.5,5.3.9c-.3-1.5-1.7-2.1-2-3.2-.5-1.8,1.8-2.4,4.1-3.1-.4-3.5-4.3-4.9-4.2-8.9,4.6.6,6.9,3.4,10.6,1.3-1.4-2.5-3.3-4-4.7-6,3.5-3.6,6.9-5.3,11.9-1.5,1.5-1.8-.4-3.4-.4-6.4,1.8-.6,3.9,1,4.3,0l2.4-7c3.5,5.3,10.4,14.5,15.5,20v-34.2c4.6,4,3,9.4,5.2,13.3,3.1-6.8.7-13.6,6.1-20.1,2.7,4.3-.5,8.4,1.6,13.8,3.9-4.8,6.4-10.1,12.8-12.7-1.3,9.2-7.2,14.7-9.6,23,5.5-2,9.1-6.2,15.3-6.5-4.1,5.9-10.1,8.5-15.2,13.9l14.9-1.4c-8.5,5.8-18,6.3-25,13.5,7.7.4,16.9-.4,23.3,5.9-1.5,1.3-3,3.3-3.3,6.1s-5,2.3-8.6,4.3c1.9,2.2,5.9,0,7.4,2.5s2,5,2.3,8.3l-13.6-5.2c5.6,6.2,3.3,13.1,4.4,18,1.4,6.6-2.5,9.5-5.4,14.5s-8.9,7.7-15.6,8.1-3.6,4.3-5,4.7c-2.3.6-3.7-2.3-8-1.4l15,11.7c-4.9,6-9.5,10.5-16.9,7.5.7,3,2.9,3.1,3,6-10.2-2.2-6.4,1.7-16.7,5.9s-3.9-3.7-6.5-4.1-5.7,2.5-9-2.3c-3.8,5.4-6.4,10.6-9,17.7,12.4-2.1,24-8.2,36.5-1.8-17.8,10.7-39,2-42.4,12.6Z"/>
  <path class="st24" d="M322.3,1080c-.5,1.7-2,3.1-3.7,2.2-2.7-8.6-1.6-18.6-6-27.8s-10.6.2-12.1,4.4c-8.3-3.8-13.3-8.5-20.5-12.7,3.3-1.4,6.1-2.7,6.4-4.6,1.1-6.9-17.5-6.8-13.6-14.1s2.1-5.5.2-9.8,3.2-4.3,2.3-5.8-4.7-3.4-4.6-4.9,3.7-1.8,4.4-2.8c1.3-1.8-3.6-1.3-4.6-3.2s1.4-3.2,2.7-3.2c1.9,0,3.9,1.7,6.9-1-6.1-.7-10.7-2.3-14.3-8.4s.5-6.1,2.3-7.3c2.5-1.6,5.2-.5,8.3-2.8-4.2-2.7-8.8-1-11.9-4.8,5.4-2.5,10.3-2.1,15.7-3.3l-17.8-4.9c1.7-2.5,4.7-3.4,4.7-5.9s-2.2-2.3-2.8-4.7c5.8-.5,9-3.9,11.3-8.8,5.6,1.1,7.1,5.5,14.4,5.1-4-5.2-5.4-11.8-9.8-16.9s-8.4-5.1-8.8-9.9c4.8-.3,6.6,2.9,10.2,3.4-.8-6.2-3-11-4.7-16.8,5.3.2,6.5,5.2,10.3,9.3l2.7-20.5c6.2,11.5,4,23.1,4.7,34.6,4.6-7.3,0-16,8.7-20.7l-4.5,37.8,14.1-12.6c1.4,2.7,1.9,4.8,2.4,6.6,3.3-1.8,4.8-5.8,8.2-4.4-.2,3.6-3,4.7-2.6,6.1.6,2.3,7.2,3.7,6.3,7.1s-1.8,1.7-1.8,3.9c3.9.2,7.7-.5,7.6,2.2s-1.6,4.2-3.7,6c18.3,18.4,4.8,18.8,10.2,25.5.8,1,3.1,1.3,4.2,2.3-5.3-4.6-.5,24.2-.3,25.3.3,1.7,6.4,1.3,5.3,3.2l-3.1,5c-1.4,2.3.4,5.9-1.3,6.7l-5.8,2.5c2.4,1.4,5.4.2,8,2.4-4.4,3.7-7.8-.7-10.6,2.2,3.3,2.3,7.5-1.1,7.8,4.2-6.8-1.5-8.1,2.8-11,5.3-4.7,4-11.1-1.8-16.4-2.6,1.9,11.5,6,21.6,6,32Z"/>
  <path class="st29" d="M268,1150.4c4.2,3.4,3,4.8-2.1,3.3l-11.5-13.1c-2.2,1.3-5.5,1.5-7.4.7-2.8,2.1-3,6.6-6,8-2-2-4-4.9-6.1-4.8s-5.1,8-8,8.7-1.1-4.7-2-4.6c-2.1.8-4.3,5.6-7,5.2s-1-3.4-3.8-4.4,1-4.6,2.9-5.9c-4.3-3.7-9.2-1.7-14.9.6,9.5-19.8-5.2-9.9-16-32.9-9.7,2-2.5-5.6-14.7-8.2l-1-6.8c-.4-2.4-4.7-2.6-7.9-2.4.2-3.9,3.6-4.5,5.3-7.3-2.1.2-7.7,3.4-7.6-.1.2-5.1,1.1-11.2,3-15s9.5-3.1,12.9-3.4c8.8-2.2,7,10,3.6,16.1,10.6,3.5,27.9-15.1,22.3-25.9-8.1,3.4-12.7,2.6-13.7-2.2l6.8-17.6c3,2.2,3.7,4.9,5.7,5.1s4.2-1.5,4.8-.2l-.9,5.6c-.3,1.8,9.5-1.6,13.7,3.2s1,3.2,1,6.8c1.6-2.1,4.8-3.9,6-2.6s2.9,3.9,2.9,5.3c0,3.9-6.6,5.6-7.1,7.6-3.1,11.8,16.3-10.8,13.9-6.3-1.9,8,1.9,13.4,7.1,16.3,1.3,1.3-1.4,4.1-1.2,6.1,1.6-1.4,4.2-3.4,5.8-2.6,8.8,4.1-6.8,11.7.4,21.5,4.8-4.5,6.4-9.3,13.8-12.3-1.4,11.1,13.4,28.2-.4,32.8,1,1.9,3.4,1.9,5,3.3l-12.2,6.4c5.8,5.4,12.3,9.5,14.6,16.3Z"/>
  <path class="st29" d="M307.9,1201.9c.3,3.4-1.1,4.1-3.5,1.7-2.8-3.1-6.2-7.1-10.3-9.8l-25.2,9c-13.6,4.8-28.6,3.5-41.3-5,16.8-6.6,34.2.6,52.7-8.6-13.8-2.3-27.1-5.7-39.9-13.5,13.2-3.1,25.3,1.2,39.9,2.8-11.3-37.6-29.2,4.1-77-17.2,21-7.3,42-9.3,62.3-5,1.5-4.5,7-2.6,10.2-.4,3.2,8.1,6.8,16.2,12.7,25.3,2.5-13.3-2-24,1.2-35.3,4.5-4.9,4.2-9.9,2.2-15.4,2.6-4.7,1.6-10.8,6.4-14.9,3.4,24.1-1.1,46.3-4.9,69.6,7.3,5,10.7,11.2,14.4,16.8Z"/>
  <path class="st24" d="M188.3,1055.7c7.2,1.1,11.9-2.2,18-2.5l.8,18c-5.4,5.1-10.8,9.2-15.7,15s-14.6,3-17.1-.9c4.1-6.1,6.1-12.6,1.9-17.5,12.9-5.4-16.1-6-23.1-19,5.5-.8,9,4.1,12.7,2l-17.2-19.3c9.6.7,13.9,7.6,21.2,9.6-.5-7.1-3.8-12.3-1-19.3l8.3,18.3c1-4.2-1.4-8.1,2-10.4,4.3,10.2,5,19.3,5.5,29.6,2-.8,2.5-2.5,3.5-3.6Z"/>
  <path class="st24" d="M183.6,1202.2c-4,.5-8,11.4-13.7,8.1s-4.6-3.5-5.3-6l-10.2-36.8c-3.3-11.8-7.2-23.1-5.9-35.8,6.9,17,12.4,33.8,21.5,50.7,5-14.3,1.5-27.7,3-43.3,6.8,14,3.9,29.3,4.1,44.8,4.3-15.3,10.2-30.1,11.8-46.3,4.6,7.6,2.7,15,1.5,22.3l-6.7,42.2Z"/>
  <path class="st0" d="M341.5,1097.7c3.7-1.3,4.3.3,1,2.7-.5,6,3.7,12.6,2.2,19-1.5,4.4-8.7,6.5-13.6,9.5-3.4-12.3-7.8-27.1-.6-35.7,4.2-.3,7.6,2.3,10.9,4.5Z"/>
  <path class="st24" d="M314.2,1102.7c-.5,1.1-1,2.6-2,3.6-18.7-2.5-36.9-13-50.2-27.8,11.6-4.1,42.9,18.9,52.2,24.3Z"/>
  <path class="st24" d="M284.1,1117.6c-.8,13-5.2,25.5-8.2,38.2-2.9,4-6.7,1.1-10.2.4.3-.8-.2-1.9.2-2.5l2.1-3.3c7,4.3-.5-12,10-32.3,3.3-4.1,5.4-4.3,6-.4Z"/>
  <path class="st24" d="M331.6,1089.8c-1.6-.8-3.8-.6-5.3-1.7.5-12.3,7.9-23.6,17.4-32.9.4,13.9-5.5,24.8-12.2,34.5Z"/>
  <path class="st24" d="M153.9,1197.8c-1.9,0-3.8,0-5.7.3,0-.3-7-29.6-10.2-34.5,11.4,8.8,12.9,22.3,16,34.2Z"/>
  <path class="st24" d="M350.2,1098c-1.5,2.8-4.9,2.5-7.7,2.4,0-.9-1-1.8-1-2.7.1-7.2-.8-14.6,1.9-22.6,7.3,7.2,4.9,15.8,6.8,22.9Z"/>
  <path class="st24" d="M343.8,1192c-1.6-1.4-2.6-3.3-2.5-5.5,4.3-5.1,10.6-9,18.1-8.3-1.2,8.9-9.3,11.4-15.7,13.8Z"/>
  <path class="st24" d="M307.9,1201.9c2.9,4.4,9.3,7.4,10,13.7-.7,1.9-2.1,3.3-3.9,4.4-5.2-3.9-7-10.7-9.6-16.4.8-1.2,2.1-1.6,3.5-1.7Z"/>
  <path class="st24" d="M896.2,1234.2c-2,2.4-3.1,5.1-5.4,7.2.6-8.9-3.3-15.7,1.4-21.1,6.2-2.4,3.7,12.3,4,13.9Z"/>
  <path class="st24" d="M914,1233.8c-3.7,2.1-4.9,1.4-7.8-1.4l.3-11.2c2.6-.7,6.2-1.5,6.9,1,1.3,4.4.4,8.2.6,11.6Z"/>
  <path class="st24" d="M790.1,1233.9c-2.1,3.3-.9,6.1-3.6,8.3-.1-4.5-2.4-7-3-9.8-1.1-5-1.1-13.7,4.6-11.7s1.8,9.9,2,13.1Z"/>
  <path class="st24" d="M684.2,1233.9c-2.4.6-4.4,1.5-6.6.3.4-4-2.5-14.6,4.3-13.6s2.2,10.2,2.3,13.2Z"/>
  <path class="st24" d="M772.2,1233.8c-2.6.4-4.2,1.6-6.6,0,.3-3.8-2.5-14.1,4.5-13.2s2.3,10.1,2.1,13.2Z"/>
  <path class="st24" d="M596.4,1234c-2.6.9-4.2.4-6.7-.3-.3-3.9-2.7-14.3,4.3-12.9s2,10.2,2.3,13.2Z"/>
  <path class="st24" d="M666.6,1228c-.2,1.5-.2,3.2-1,4.7-1.2,2.3-3.8,1-5.8,1.1,0-3.5-1-7.2.3-11.7s4.9-2.2,5.9-.8c1.6,2.1,0,4.8.6,6.8Z"/>
  <path class="st24" d="M289.8,1145.9c1.3-4.7-.4-10.7,2.2-15.4,5-2.1,4.9,11.1,3.3,13.5s-3.4,1.7-5.5,2Z"/>
  <path class="st24" d="M931.7,1227.9c-1.8,2.5-5,2.9-7.3,4.5.4-3-.7-6.2.3-10.6s5.9-1.8,6.3,0,.8,4.4.7,6.1Z"/>
  <path class="st24" d="M754,1221.9c0,2.6,0,5-.7,8.5s-2.6,3.1-5.5,3.3c.4-3.8-1.4-8.7.7-12.1s4.4-.8,5.5.3Z"/>
  <path class="st24" d="M702.2,1234.3l-1.3,1.8c-1,1.4-2.3,2.7-2.9,0s-2.3-5.8-1.5-8.4,2.6-4,5.2-5.2c.7,3.9,1.1,7.8.7,11.8Z"/>
  <path class="st24" d="M948,1222c.2,2,0,4.1-.2,6.5s-3.8,2.1-5.9,3.5c.5-3.3-1.2-7.8.8-10.6s4.5-.4,5.2.6Z"/>
  <path class="st24" d="M543.8,1186.1l-.6,8.2c-1.6-.1-2.8-.3-3.6-1-1.7-1.7-1.4-4.6-1.6-7.2s2.2-2.4,3.1-2.2,1.4,1.6,2.8,2.2Z"/>
  <path class="st24" d="M614.1,1224c0,3.1.6,6.3.1,9.4-1.9-.3-4.9.7-5.5-.8s-1.2-5.6-.6-7.6,4.3-.8,6-1Z"/>
  <path class="st29" d="M284.1,1117.6c-2,0-4.1,0-6,.4,1.7-3.3,3.4-6.9,6.7-10.2,3.6,3.4-.4,6.7-.6,9.8Z"/>
  <path class="st24" d="M554.1,1199.8v-13.9c2.4,2.1,5,6,5,9.7s-3.8,3.3-5,4.3Z"/>
  <path class="st24" d="M853.6,1234.1c-.1-2.6,0-5.2.4-7.8,1.5.3,2.9.8,3.9,1.2,2.3.8,2.8,3.6,1.5,5.2s-4.1,1.4-5.8,1.5Z"/>
  <path class="st24" d="M807.8,1223.7l.5,8.3c-1.7-1.3-4.8.8-4.5-3s0-6.5,4-5.3Z"/>
  <path class="st24" d="M641.5,1234l.5-6.3c1-1,2.1-.4,3,.3,1.4,1.1,1.3,3.2.9,5s-3,1-4.4,1Z"/>
  <path class="st24" d="M835.8,1232l.2-6c.8.2,2.3-.4,3,0,1.6.9,1.1,3.2,1,4.9s-3.5.1-4.2,1.1Z"/>
  <path class="st24" d="M571.7,1231.9v-3.9c1.1.1,2.4-.3,3.2,0s1.3,1.7,1,3c-.4,2.3-3.5,0-4.3.9Z"/>
  <path class="st24" d="M332.2,1202l-.2,4.3c-.9.7-1.9.5-3-.2s-1.4-1.3-1.1-3,3.1-.7,4.3-1.1Z"/>
  <path class="st24" d="M1264.1,685.7c2.3,2.1,1.4,20.5,1,21.7-1,2.7-1.6,3.3-5.1,3.9-157.9-1.7-316-2.1-474.2-.9l-4.7,3.5c-2.6.3-4.9-.9-7.1-2.2.7-9.4-1-18.3,1.1-28.9l244.4-183.2,240.2,180.3c2.8,2.1,3.7,3.8,4.5,5.9Z"/>
  <path class="st18" d="M747.8,762.3c-.6-1.8.5-2.5,2.5-2.4,9.4-9.4,21-17.3,31.4-24.9-.1-1.7-2-8.8,1-8.9h482.7c2.6,3.9,5.3,9.2,4.3,13.7l-10.4,47.8c-.6,2.7-1.4,3.7-2.4,4.5s-6.6.7-6.3-.8l12.5-55.9c.4-1.8-3.3-2.3-3.9-1.3s-1.6,2-2,3.5l-11.8,50c-.7,3-2.8,4.5-4.4,4.9s-5.4,0-4.8-2.3l13.8-54.5c.4-1.7-4.1-2.3-4.7-.7-4.8,9.5-12.5,56.8-18.2,57.7-14.6,2.3,14.7-50.2,8-60.4-10.1,10.7-15.1,61.9-24,60.4s16-50.6,11.9-60.8c-10.5,6.8-17.3,62.2-25.6,60.8s-4.8-.3-4.2-2.2l17.9-54.9c.5-1.6-1.4-2-2.1-1.9s-2.8.4-3.3,2l-18.2,53.5c-.8,2.2-2.8,2.9-4,3.3s-4.8-.3-4.1-2.2l18.6-55.7c-1.5-1.5-4.7-1.1-5.5,1.2l-18.6,51.7c-1.1,2.9-2.2,4.9-4.6,5-13.7.5,17.7-46,14.5-60.4-10.6,7.1-21.4,62-30.4,60.3-.8-.2-3.6-.7-2.9-2.5l21.1-52.8c1-2.6-.9-3.6-3.9-3.8l-22.8,55.2c-1.1,2.7-3.3,4-5.4,4.1s-4.8-.6-4.1-2.2l23-52.8c.8-1.8,1.2-3.4.3-3.7-2.2-.8-3.9-.1-4.7,1.8l-24.2,53.2c-1.5,3.4-6.4,4.8-9,2.1l25.2-55.3c.8-1.8-2-2.2-2.7-2.1s-1.9.3-2.7,2l-25.4,54.7c-.9,2-4.1,2.3-5.6,2.1s-1.6-.4-2.4-2.3l25.7-53.7c1-2.1-.3-3.2-1.5-2.9s-2.7.2-3.4,1.6l-26.4,53.8c-1.1,2.2-2.7,3.2-4.1,3.5-15.8,3.1,25.6-50.4,21.9-60.7-16.1,18.1-21.1,40.3-34,59s-7.4,2.2-6.4-.5c7.7-20.8,22.3-36.6,28.1-58.4-17,17.7-22.6,40.3-35.9,59.1s-7.5,1.9-6.6-.6c7.7-21,23.4-36.4,28.9-58.2-9.7,2.3-37.5,74.1-44,58.8,1.5-6.2,34.3-56.2,31.1-57.2s-3.6,0-4.6,1.6l-32.9,54.7c-1.8,3-8.5,2.7-7.7.7,9-20.9,25.6-36.6,32.3-58.7-10.3,5.4-36.3,59.5-42.3,60.3-16,2.1,31.9-51.4,29.4-59.9-19.2,17.5-26.4,40-41.4,58.2s-8.4,2.1-7.4,0c10.3-20.7,27.7-36.3,35.9-58.4-11,2.9-43.4,71.9-50.8,58.8l37.5-58.6c-9.1,1.1-46.8,73-51.7,58.7l38.9-58.8c-19.9,17.5-29.6,40.1-46,58.6s-8,1.7-6.6-.7c11.9-21,30.1-35.8,39-57.6-11.7,4.3-47.2,70.2-53.4,58.1-1.5-3,41.4-50.7,41-58.4-9.8,1.9-52.1,73.4-55.6,58.4,12.4-20.7,31.6-35.8,41.8-57.9-10.8,3.1-53.3,73.6-56.7,57.7l44.3-58.1-54.5,60.3c-.7.7-4.3-1.8-3.9-2.2-10.7,9.7,51.6-59.5,45.1-58-12,3.9-52.8,68.2-59.4,58.2s46-51.5,46.6-58.3c-12.9,5.8-50.6,58.7-57.7,60-17.7,3.3,44.8-50.4,44.7-59.9-10.7,1.8-57.8,70.1-64.1,59.1,16.6-20.9,37.1-36.7,51.3-59.2-10.8,1.9-61.8,72.4-64.6,58.2l50.6-57.9c-10.9,2-63.7,72.9-65.3,57.8l52.9-58c-11.4,1.1-65,72.4-68.1,58.2l54.4-57.8c-12.2,2.4-65,70-68.3,57.6l56-57.8c-12.1,1.3-63.9,67.9-70.5,58.3l56.8-58.3c-11.8,1.8-68.8,71.2-71,57.7l57.1-57.2c-13.8,4-66.8,68-73.2,58.4l61.1-58.6c-13,3-69.5,68.3-74.9,58l61-56.8-75.4,59.2,63.3-60.3-76.8,60.7c5.6-15.5,22.9-19.7,31.2-31.8Z"/>
  <path class="st18" d="M1272,711.5c-2.6.6-6.2-.7-8.8.7s-1.6,5.6-2.6,9.9h-470.2c-4.1.1-6.5,2.1-8.5-1.1s-.5-5-.9-7c.5-1.8,0-4.9,1.3-6s4.4-1.8,8-1.8h457.2c6.1,0,9.7.1,15.5,2l1-22.3c11.3,4.8-7.3,20,7.9,25.7Z"/>
  <path class="st48" d="M2124.8,790.9c-1.4,10.8-31-22.6-40-23.1,5.4,9.9,16.4,13.3,24,21.9,4,14.6-35.7-26.2-41.2-24.3,2.3,7.2,27.3,22.4,28,25.7,2.6,12-51-36.3-53.5-37.7,7.6-3.9,18.3,12.5,26.4,13.2-1.3-5.7-6.3-5.9-8-9.7,6.7-2.4,10.7,5.5,16,5.7,6.5.2,11.7-.7,17.4,3.8l30.9,24.6Z"/>
  <path class="st48" d="M1676.7,790.2c1.3,2.5-3,2.8-4.7,2.7s-3.2-1.4-4.5-4l-25.6-52.7c-.6-1.3,4-2,5-1.5s1.9,1.1,3,3.1l26.9,52.3Z"/>
  <path class="st48" d="M1748.7,790.4c1.7,2.7-5.8,3.1-7.6.4-11.9-18.1-23.1-35.5-34.2-54.6,2.9-2.8,6.9-1.5,8.9,1.8l32.9,52.5Z"/>
  <path class="st48" d="M1777.7,789.6c-.7,5-5.6,3.5-8.4,1l-36.5-55.1c4.3-1.8,8.3-.4,10,3.8l34.9,50.2Z"/>
  <path class="st48" d="M1995,790.3c-.2,3.6-3.7,2.6-7,1.6l-58.4-55.8c3.8-3.2,7-.2,9.8,2.4l55.6,51.7Z"/>
  <path class="st48" d="M2010,791.1c-1.9,3.3-5.2,1.5-7.7.4l-60.5-56.7c2.9-1.2,4.9.8,7.8.3l60.4,56Z"/>
  <path class="st48" d="M1807.4,791.4c-2.4,2.5-6.8,2.1-8.6-.3l-39.3-55c2.6-2.7,6.5-1.2,8.8,2l39.1,53.3Z"/>
  <path class="st48" d="M1923.7,791.7c-4.3,2.9-9,.5-11.9-3.5l-47.8-52.3c2.8-2.5,6.2-1.1,8.7,1.4l51,54.4Z"/>
  <path class="st48" d="M1489.2,791c.4,2.4-7.5,2.7-7.9.4l-9.3-51.4c-.6-3.2-.1-5.4,2.9-5.4s3.9.6,4.4,3.7l9.8,52.7Z"/>
  <path class="st48" d="M1647.4,789.5c1.4,3.1-3.2,3.1-4.4,2.9-2.2-.3-3.4-1.8-4.7-4.6l-23-51.5c2.8-3.3,7.3-1.8,8.9,1.8l23.2,51.4Z"/>
  <path class="st48" d="M1849,789.7c2.2,2.8-4,4.3-5.7,2.3l-45.1-56.3c4.3-2.7,7.7-.3,10.5,3.3l40.3,50.7Z"/>
  <path class="st48" d="M1906.4,788.5c1.5,2.5.8,3.3.1,3.6-1.5.6-4.7,1-6.1-.5l-50.5-57c2.8.2,6.4-.1,8.4,1.4l48.1,52.6Z"/>
  <path class="st48" d="M1720.3,790.6c-3.5,4.7-7.2,1.3-9.3-1.8l-30.7-53.1c3.2-2.6,7.5-1.3,9.5,2.4l30.6,52.4Z"/>
  <rect class="st48" x="1448.6" y="734.4" width="8.5" height="58.7" transform="translate(-85 190) rotate(-7.3)"/>
  <path class="st48" d="M1863.7,790c2.7,3.3-5,3.6-6.8,1.3l-45-55.3c3.6-3,7.3-.9,9.7,2.5l42.1,51.5Z"/>
  <path class="st48" d="M1879.6,791.5c-2.2,2.9-5.6,1.1-8.3-.7l-46.5-55.2c3.9-2.2,7.3-.5,10.2,3l44.6,52.8Z"/>
  <path class="st48" d="M1503.3,789.3c.8,3.6-3.2,3.6-4.4,3.5s-3.4-1-3.9-3.5l-10.6-53.9c2.2-.8,4.6-1,5.9-.4s1.8,2.2,2.2,4.3l10.7,50Z"/>
  <rect class="st48" x="1503.5" y="733.7" width="8.5" height="60" transform="translate(-136.9 374.2) rotate(-13.5)"/>
  <path class="st48" d="M1561.4,790.4c.6,2.1-3.2,2.7-4.5,2.4s-3.5-1-4.2-3.4l-16.5-53.9c3.6-1.5,7.5-1.4,8.5,2l16.7,53Z"/>
  <path class="st48" d="M2039.2,791.6c-2.8,1.9-6.4,1.7-8.7-.3l-61.7-55.4c1.8-.5,4.9-1.3,7,.6l63.3,55.2Z"/>
  <path class="st48" d="M1474.3,786.9c.7,4.3-1.5,5.7-3.3,6-2.8.5-4.5-1.2-5-4.7l-7.3-51.9c-.2-1.8,3.4-1.6,4.4-1.6,1.9,0,2.8,2.4,3.2,4.9l7.9,47.3Z"/>
  <path class="st48" d="M1835.5,790.1c-.9,4.3-5.6,3-8.4.7l-41.3-54.7c3-2.7,6.5-1.3,8.5,1.7l41.2,52.3Z"/>
  <path class="st48" d="M1532.1,788.9c1.1,4.1-3.4,4.3-5,4s-3-1.8-3.6-4.4l-12.4-52.5c-.4-1.8,6.5-2.2,7.1.2l13.9,52.7Z"/>
  <path class="st48" d="M1705.2,789.6c1.6,2.9-3,3.6-4.3,3.2s-3.4-1.4-4.5-3.6l-28.5-53.1c-.6-1,3.9-2,5-1.5s1.9,1.1,3.1,3.2l29.2,51.7Z"/>
  <path class="st48" d="M1589.6,789.2c1.4,3.7-3,3.9-4.6,3.5s-3.1-1.6-3.9-4.1l-17.9-52.6c-.6-1.6,6.2-2.2,7,0l19.4,53.2Z"/>
  <path class="st48" d="M1633.9,791c-2.5,3.5-7.5,2.1-9.1-1.6l-22.3-53.3c.8-2.5,6.4-1.6,7.8,1.5l23.5,53.4Z"/>
  <path class="st48" d="M1618.9,791.3c-.9,2.6-7.1,1.5-8.5-1.9l-21.2-53.4c.6-1.7,6.3-2.4,7.2-.2l22.5,55.5Z"/>
  <path class="st48" d="M1604.2,789c1.5,3.8-3.9,4-5.2,3.6s-2.5-1.3-3.4-3.9l-19.3-52.7c.4-2.4,6.9-1.4,8.1,1.9l19.8,51.2Z"/>
  <path class="st48" d="M1950.8,790.6c1.4,1.5-4.4,3.3-6.5,1.1l-53.8-56c4.7-2.3,7.8,0,10.7,3l49.6,51.9Z"/>
  <path class="st48" d="M1546.3,789.2c1.2,4.1-4.1,3.9-5.3,3.5s-2.5-1.8-3.2-4.3l-13.6-52.5c-.4-1.7,6.3-1.9,7,.7l15.1,52.5Z"/>
  <path class="st48" d="M1937.3,790.6c-3.1,4.5-8,1-11.3-2.5l-48.6-52.1c1.9-1.8,4.5-1.3,7.2-.2l52.7,54.8Z"/>
  <path class="st48" d="M1821.6,791.2c-3.8,3.7-7.6.8-10.1-2.6l-39.2-52.6c2.7-2.2,6.4-1.7,8.6,1.1l40.7,54.1Z"/>
  <path class="st48" d="M1661.7,789.5c1.5,3.1-3.4,3.7-4.7,3.2s-2.8-1.7-4-4.3l-24.3-52.3c.6-2.1,5.9-2.3,7.1,0l25.9,53.4Z"/>
  <path class="st48" d="M1764.1,791.3c-3.2,3.5-7.1,1.1-9.6-1.8l-33.9-53.4c1-2,5.6-1.8,7,.4l36.5,54.8Z"/>
  <path class="st48" d="M1575.5,789.6c1.1,3.2-2.9,3.5-4.5,3.2s-3.3-1-4-3.4l-17-53.3c-.5-1.4,4-1.7,4.9-1.3s2.1,1.2,2.8,3.4l17.7,51.5Z"/>
  <path class="st48" d="M1893.4,791c-1.9,3.1-6.3,2.2-8.3-.2l-46.8-55c2.5-2.4,6.2-1.3,8.5,1.4l46.6,53.7Z"/>
  <path class="st48" d="M1791.3,789.5c1.5,2.2-1.6,3.3-2.4,3.2-1.4,0-3.6-.4-5-2.5l-37.4-54.1c1.8-2.5,6.2-1.5,8.1,1.2l36.7,52.1Z"/>
  <path class="st48" d="M1979.5,789.9c.1,4-4.3,3.3-6.7,1.4l-56.8-55.3c2.8-2.5,6.4-1.4,9,1l54.5,52.8Z"/>
  <path class="st48" d="M1965.3,790.1c-.1,3.6-4,2.9-6.9,1.6l-54.6-55.7c2.9-2.6,6.4-1,8.6,1.7l52.9,52.4Z"/>
  <path class="st48" d="M1691.4,791.1c-1.9,3-6.5,2.5-8-.5l-28.6-54.7c0-.2,4.7-4.6,8.6,2.7l28,52.5Z"/>
  <path class="st48" d="M1733.6,789.3c1.6,2.6-1.8,3.5-2.7,3.5-1.4,0-3.7-.6-5-2.7l-32.3-54.1c3.6-3,7.5-1,9.3,2.7l30.6,50.6Z"/>
  <path class="st48" d="M2023.3,790.1c-.2,3.5-4,3-6.6,1.3l-60.8-55.4c2.9-2.6,6-.6,8.5,1.6l58.8,52.5Z"/>
  <path class="st18" d="M750.1,757.8c-.5,2.1-2.4,4-4.3,2.9l-37.8,31.1c-1.6,1.3-4.2.9-5.3-.6s28.4-23.2,29.2-27.1c4.1-5.3,8.8-9.4,14.1-12.2-5.4,4.7,27.6-20,23.8-12.5-6.7,7.2-14.6,11.3-19.7,18.3Z"/>
  <path class="st48" d="M2067.8,790.9c4.1,15.3-64.7-47.5-61.3-47.3,24.9,12.1,40.7,32.6,61.3,47.3Z"/>
  <path class="st18" d="M746,750.2c-4.6,5.7-9.8,9.8-15.6,12.5l-36.8,29c-2.1,1.7-4.7,1.8-7-.7,10.7-7.6,19.9-16.8,29.6-25.3s18.3-11.8,24.3-19.9c1.9-1.2,6.3-1.8,8.9-1.1-1.1,2.3-2.7,3.6-3.3,5.6Z"/>
  <path class="st48" d="M2053.5,791.5c-4.9,2.8-8.7-.2-12-3.1l-52.9-48c24.1,14.6,43.8,33.5,64.9,51.2Z"/>
  <path class="st48" d="M2024.2,747.5c9,1.2,56.6,42.8,56.8,43.7,3,12.5-57.8-42.1-56.8-43.7Z"/>
  <path class="st18" d="M716.1,762l-36.7,29.5c-2.2,1.7-5.2,1.8-7.4-.5l46.1-37.1c4.7-2.8,8.1-6.1,14-5.4-6,4.3-10.7,9-16.1,13.3Z"/>
  <path class="st48" d="M2178.4,787.8c7.5-4.3,14.7-1.7,19.9,3.7-5,2-7.8-.6-11.8-1.4-4,5.2-8.2,2.1-13.1.5-7.4-2.3,1.2,14.4-33.6-15.7,9.7-2.5,18.9,12.5,26.3,11.5-.9-3.2-3.8-3.4-3.6-6.3,5.9,0,10.1,2.5,15.9,7.6Z"/>
  <path class="st18" d="M713.9,754.4c-2.1.3-4,1.5-6.2,3.2l-45.5,35.5c-2,.2-5-1.7-3.1-3.2,13.6-12.6,29-21.1,40.7-33.6s11.6-5.2,14-1.8Z"/>
  <path class="st18" d="M649.5,791.9c-2,1.6-5.1,1.4-7.1-.9l39.6-30.7c3.4-2.7,7.4-3.8,11-2.9l-43.6,34.5Z"/>
  <path class="st18" d="M673.7,762.2c-16.1,10.3-26.6,25-45.3,31.1-3.5-.6,48.1-40.9,45.3-31.1Z"/>
  <path class="st48" d="M2140.7,791.3c-3.6,3.8-7.4.8-10.4-1.6l-28.2-22.4c2.9-1.7,6.5-.3,9.1,1.7l29.4,22.3Z"/>
  <rect class="st18" x="611.5" y="777" width="45.5" height="4.7" transform="translate(-339 529.3) rotate(-36.5)"/>
  <path class="st18" d="M633.2,771c-2.1,2.8-30.6,27.7-33.6,21,4.2-3.4,30-24.7,33.6-21Z"/>
  <path class="st48" d="M2155,791.8c-.8,8.5-35.3-20.7-34.1-21.7,14.1,3.8,22.3,14.1,34.1,21.7Z"/>
  <path class="st18" d="M611.4,776c4.3-1.6-25.3,23.2-26,15.4,8-5.3,13.6-14,26-15.4Z"/>
  <path class="st18" d="M590.6,781.3c-5,3.6-8.6,10.3-18,11.1,3.3-5.7,8.3-10,18-11.1Z"/>
  <path class="st24" d="M746,752c-4.2,3.6-6.8,10.1-14.1,12.2l-1.6-1.5c5.1-4,8.8-10.7,15.6-12.5-.2.5.1,1.2,0,1.7Z"/>
  <path class="st18" d="M573.4,784.7c-4,2.4-7.1,7.5-14.5,7.6,1.3-5.8,6.5-7,14.5-7.6Z"/>
  <path class="st24" d="M750.3,759.9l-2.5,2.4c-.9-.2-2.8-.3-2-1.6.9-.7,2.7-1.3,4.3-2.9l.2,2.1Z"/>
  <rect class="st27" x="1240.6" y="576.5" width="213.2" height="9.6" transform="translate(737.1 1915.7) rotate(-88.8)"/>
  <rect class="st27" x="1476" y="474.2" width="8.8" height="214" transform="translate(-43.7 126.8) rotate(-4.8)"/>
  <rect class="st39" x="1403.4" y="474.2" width="9" height="213.6" transform="translate(-12 30.1) rotate(-1.2)"/>
  <rect class="st39" x="1390.7" y="474.5" width="9.5" height="213.4" transform="translate(-8 19.5) rotate(-.8)"/>
  <rect class="st27" x="1439.9" y="474.4" width="8.6" height="213.6" transform="translate(-28.1 75.5) rotate(-3)"/>
  <rect class="st27" x="1574.2" y="473.2" width="8.3" height="215.6" transform="translate(-69 241.7) rotate(-8.6)"/>
  <rect class="st27" x="1586.6" y="473.1" width="8.2" height="216" transform="translate(-71.5 256.7) rotate(-9)"/>
  <rect class="st27" x="1513.3" y="474.1" width="8.3" height="214.2" transform="translate(-52.3 161.4) rotate(-6)"/>
  <rect class="st36" x="1252.6" y="576.7" width="213.2" height="8.8" transform="translate(756 1930.7) rotate(-89.1)"/>
  <rect class="st27" x="1525.2" y="473.8" width="8.2" height="214.7" transform="translate(-57.9 184.5) rotate(-6.8)"/>
  <rect class="st27" x="1452.5" y="474.4" width="8.6" height="213.5" transform="translate(-30.2 82.2) rotate(-3.2)"/>
  <rect class="st27" x="1562.1" y="473.5" width="8" height="215.4" transform="translate(-66.6 227.8) rotate(-8.1)"/>
  <rect class="st27" x="1427.5" y="474.7" width="8.6" height="213" transform="translate(-23.6 61.9) rotate(-2.5)"/>
  <rect class="st27" x="1464.4" y="474.1" width="8.3" height="214" transform="translate(-37.3 104.9) rotate(-4)"/>
  <rect class="st2" x="1549.7" y="473.9" width="8.3" height="215.1" transform="translate(-63.3 211) rotate(-7.6)"/>
  <path class="st27" d="M1427.5,685.9c0,2.4-5.5,2-6.5,1.3s-2-3.3-2.1-6.6l-5.4-204.3c0-2.4,6-2.7,6.1,0l7.9,209.6Z"/>
  <rect class="st27" x="1500.6" y="474" width="8.4" height="214.4" transform="translate(-51.1 155.3) rotate(-5.8)"/>
  <rect class="st27" x="1489.1" y="474.4" width="8.3" height="213.7" transform="translate(-44.9 132) rotate(-5)"/>
  <rect class="st27" x="1537.9" y="473.7" width="8" height="214.8" transform="translate(-58.6 189.4) rotate(-6.9)"/>
  <rect class="st27" x="1228.2" y="576.6" width="213.4" height="9" transform="translate(716.2 1899) rotate(-88.4)"/>
  <rect class="st49" x="1216.3" y="576.9" width="213.7" height="8.5" transform="translate(680.6 1875.6) rotate(-87.3)"/>
  <rect class="st47" x="1379.6" y="474.4" width="8.4" height="213.5" transform="translate(-1.2 2.8) rotate(-.1)"/>
  <rect class="st49" x="1210.7" y="570.8" width="200.8" height="8" transform="translate(667.2 1853.4) rotate(-86.9)"/>
  <rect class="st27" x="1265" y="576.8" width="213" height="8.8" transform="translate(788.1 1951.8) rotate(-89.9)"/>
  <path class="st49" d="M1297.2,666.7c-5.6-1.5-7.6-5.4-7.3-10.9l11.5-177.7c.1-2.3.9-3.1,1.7-3.3s2.8-.4,4.9.4l-10.8,191.5Z"/>
  <rect class="st49" x="1196" y="561.4" width="182.1" height="8" transform="translate(637.2 1812.1) rotate(-86.2)"/>
  <rect class="st27" x="1602" y="510.9" width="7.9" height="178.1" transform="translate(-76.8 272.4) rotate(-9.5)"/>
  <path class="st27" d="M1637.2,685.4c-.2,3.3-7.2,2.9-7.7.4l-29.6-167.5c4.5-1.1,7.2,1.9,8,6l29.3,161.1Z"/>
  <rect class="st27" x="1627.7" y="522.6" width="8.3" height="166.4" transform="translate(-82.5 304.4) rotate(-10.4)"/>
  <rect class="st27" x="1189.4" y="556.5" width="172.6" height="8" transform="translate(621.1 1790.5) rotate(-85.7)"/>
  <rect class="st27" x="1640.8" y="528.2" width="8.1" height="161.3" transform="translate(-85.8 324.3) rotate(-11)"/>
  <rect class="st49" x="1182.4" y="551.8" width="163.1" height="7.9" transform="translate(603.4 1768.2) rotate(-85.2)"/>
  <rect class="st40" x="1653.4" y="532.5" width="8" height="156.7" transform="translate(-88.7 344) rotate(-11.5)"/>
  <rect class="st49" x="1174.9" y="548" width="155.3" height="7.7" transform="translate(584.4 1746.4) rotate(-84.6)"/>
  <rect class="st26" x="1666.7" y="539.4" width="7.8" height="150" transform="translate(-91.6 363.3) rotate(-12.1)"/>
  <rect class="st40" x="1680" y="545.9" width="7.9" height="143.4" transform="translate(-93.5 377.4) rotate(-12.4)"/>
  <rect class="st40" x="1167.2" y="543.7" width="147.6" height="7.8" transform="translate(566.5 1724.4) rotate(-84)"/>
  <rect class="st27" x="1693.1" y="550.5" width="8.1" height="139" transform="translate(-96 398.2) rotate(-13)"/>
  <rect class="st49" x="1160.9" y="539.2" width="138.2" height="7.7" transform="translate(551.6 1704) rotate(-83.5)"/>
  <rect class="st27" x="1706.6" y="557.2" width="7.6" height="132" transform="translate(-97.1 407.1) rotate(-13.2)"/>
  <rect class="st27" x="1719.8" y="563.7" width="7.9" height="125.7" transform="translate(-99.8 430) rotate(-13.8)"/>
  <rect class="st27" x="1153.7" y="534.8" width="129.6" height="7.8" transform="translate(535.8 1682.7) rotate(-83)"/>
  <rect class="st44" x="1733.1" y="569.9" width="8.1" height="119.8" transform="translate(-102.9 461.2) rotate(-14.7)"/>
  <path class="st27" d="M1203.4,593.2c-2.5,3.9-5.8,0-6.9-3.5l15.7-111.6c.4-2.7,1.5-3.5,2.9-3.5s3.7.7,3.4,3.5l-15,115.1Z"/>
  <path class="st44" d="M1768.3,684.9c.9,3.4-4.1,3.1-5.2,2.6s-2-1.4-2.7-3.9l-27.6-105.3c3.2-1.2,7.2.9,8.1,4.4l27.3,102.2Z"/>
  <path class="st44" d="M1781.7,686.5c-2.4,2.3-4.9,1-7.5.3l-27.3-101.8c1.9-1.9,6.7,0,7.6,3.1l27.2,98.5Z"/>
  <path class="st49" d="M1192.1,585.7c-4.3,2.4-6.6-3.4-6-7.9l14.4-99.5c.3-2.2,1.5-3.4,2.5-3.6,1.5-.2,3.2-.4,4.5,1.6l-15.3,109.4Z"/>
  <path class="st44" d="M1794.5,684.8c1.1,3.9-6.5,3.6-7.1,1.6l-26.8-95.7c2.8-.8,7.4.8,8.3,4.1l25.5,90Z"/>
  <path class="st44" d="M1807.9,685.3c-1.1,3.3-4.9,2.3-7.6,1.7l-25.5-90.2c4.6-.3,7.9,2.5,9.3,7.1l23.8,81.3Z"/>
  <path class="st13" d="M1698.4,519.3c2.7,2.4,5.1,9.2,2.1,11.8s-14.8,2.8-15.8-1.2l-1.4-22.6c13.1-2.4,25.2-1,38.6-1.4.3,4.7-.1,7.6-1,11.3-7.8,2-15.3-.8-22.5,2Z"/>
  <path class="st44" d="M1821,685.6c.8,2.7-6.7,2.9-7.3.7l-24.3-82.4c4.4-1.6,7.7,1.5,8.9,5.7l22.7,76.1Z"/>
  <path class="st44" d="M1834.1,685.2c.9,2.9-6.6,3.3-7.1,1.4l-23.1-76.2c5.5-1.7,8.2,2.2,9.4,6.4l20.8,68.4Z"/>
  <path class="st44" d="M1847.3,686.1c.5,1.6-5.3,2.1-6.1,1.2s-1.7-1.7-2.4-4.1l-20.6-66.8c4.6-1.1,8.2,1.7,9.4,5.8l19.6,63.9Z"/>
  <path class="st44" d="M1860.1,684.8c1.1,3.3-3.8,3.3-4.9,2.7s-2.3-1.2-3-3.5l-18.8-60.1c3.3-2.4,6.9,1,8.1,4.5l18.6,56.5Z"/>
  <path class="st44" d="M1873.4,685.5c.8,2.3-3.4,2-4.5,2-1.8,0-3.2-1.6-4.1-4.2l-17-52.9c4.2-1.4,7.3,1.1,8.5,4.6l17,50.5Z"/>
  <path class="st13" d="M1741.8,416h-37.9c-.6-4.1-.5-7.4.5-11.7l36.3-.5c1.6,3.7.7,7.5,1.1,12.2Z"/>
  <rect class="st13" x="1703.9" y="491.3" width="38.2" height="12.7"/>
  <rect class="st13" x="1683.8" y="448" width="38.2" height="12"/>
  <path class="st13" d="M1740.2,444.5c-12.7,2.9-24,.8-36,1.6-.6-4.6-.3-7.5.5-12.1,11.6-.5,22.8-.4,35.2,0s3.6,9.7.2,10.5Z"/>
  <path class="st13" d="M1740.2,386.3c-11.9-1-22.7,1.1-34.3-.6s-2.2-8.5-1.2-10.8c12-1,23.1-1.9,35.1.4,2,.4,1.6,6.1.5,11Z"/>
  <path class="st13" d="M1721.3,547.7h-11.3c-10.1,0-21-.6-27.6-10.3,12.8-3.5,25.6-.7,37.9-1.6,2.5,3,1.6,8.1,1,11.9Z"/>
  <path class="st44" d="M1885.9,685.2c1.2,3.7-6.4,3.2-6.9.1l-16.4-48.3c4.4-2.3,8.4,2.1,9.9,6.5l13.5,41.7Z"/>
  <path class="st13" d="M1740.6,531.8c-11.9,2.2-23.2,1.4-34.7.5s-2.9-10.3-.1-10.6c11.6-1.4,23.1-.6,34.4,0,2.4.1,3,9.7.5,10.2Z"/>
  <path class="st13" d="M1720.6,488.6c-12,.8-25.1.8-35.5-1.1-2.1-1.2-2-9.5.8-10,11.1-1.7,22.9.6,33.9.1,2.3,1.7,2.5,7.1.7,11Z"/>
  <path class="st13" d="M1740.7,550.7c2.8.5,2.1,11.1-.6,11.3-11.7.9-22.5-5.3-31.8-11,10.7-.8,21.7-2.2,32.5-.4Z"/>
  <rect class="st13" x="1683.5" y="397.9" width="11.7" height="23.9" transform="translate(1266.3 2095.9) rotate(-89.5)"/>
  <rect class="st13" x="1733" y="418" width="20.2" height="12.7"/>
  <rect class="st13" x="1712" y="418" width="18.8" height="12.7"/>
  <path class="st13" d="M1701.9,503.9c-6.3.2-11.2-.3-17.4-.9-1.1-3.5-.8-6.6.3-10.7,5.6-.7,10.7-.6,16.5,0l.7,11.5Z"/>
  <path class="st13" d="M1708.1,418.2c1.3,5.4,1.3,8.2,0,10.7s-15.6,1.4-16.4.9c-1.9-1.1-3-7.1-.8-9.6,3.5-4,11.5-2.2,17.2-2Z"/>
  <path class="st13" d="M1699.6,463.2c3.1,1.5,2.3,7.6,1.6,9.6s-15.1,3.2-16.7-.3-1.8-6.1-.1-8.8c3.4-1.6,10.7-2.8,15.3-.5Z"/>
  <path class="st13" d="M1699.2,434.9c3.3,1.5,2.1,5.7,2,7.7-.6,6.1-16.6,2.3-16.7,2-.5-1.9-1.6-6.5.2-9s10.7-2.4,14.5-.7Z"/>
  <rect class="st13" x="1686.1" y="371.9" width="12.1" height="17.4" transform="translate(1298.2 2069.8) rotate(-89.5)"/>
  <path class="st24" d="M582.2,1297.4c-3.8,3.2-6.1,9.3-9.1,11.1-7.8,3.2-11.7-5.9-16.6-9.1-4-2.6-11.4-.4-16.3-3.1-3.5.5-1.7,12.3-5.3,13.1s-4.3-.2-5.8-1.7-.8-4.2.3-5.8c4.7-6.6.9-10.1-1.5-15.6s-4.9-12.3-9.5-15.8c6-22.3-22,10-31.1-14.5-11.6,12.4,10.3,9.4-11.1,29.6-2.3-2.6-45.6-5.7-43.5-6-5.8.8-10.2,3-16.6,1.1s-5.7,2.7-8.4,2.8c-7.8,0-13.4-6.9-20.1-8.2s-9.4.5-13.7,0-4.7,6.6-8,4c-20.3-16,26.3-5.6,31.6-16.1,2-6.1,6-23.4,15-19.5s8.4,7.9,17.6,6c-13.3,2.7,45.6-3.4,36.8-4l24.2,1.6c1.3-3.6-4.5-6.1-4.3-8.7.4-3.9,4.2-1.7,6.6-.9s.3,4.2,1.6,5.9c3.5,4.8,11.1,1.3,16.2,2.7s12.9,4.9,20.7,1.1c12.7,10,14.3,22,21,21.3s7.6-3.2,9.1-9.8c-3.1-2-4.5,2-8.7,2.7-2-4.7-3.9-8.5-5.1-13,9-5,19.1-3.3,28.3-1.7.3,5.3-1.6,9.2.1,12.5s7.8,2.5,10.8,1.4c10.8-4.1-5.3-13,11.3-17.1s5.3,5.2,8,5.3c6.8.4,13-2.5,20,1,10.8,5.3,15.3-16.4,20.3-10.4s1.3,7.3,4,8.2c12.4,3.9,24.6-3.5,32.7,2.6,3.3,2.5,6.2,10.9,4.8,14.4s-4.8,4.1-4.8,6.6,3.1,4.8,1.5,9.2c-3.7-6.3-11-8.5-17.2-4.1-.2,3.7,2.6,5.6,1.1,10l-15.3-7.6c-8.6-4.3-12.6-1.5-19.2,1.8-22.8,11.6-28.4-5.2-41.9,4.1-2.7,1.9-11-.4-11.6,4s5,5.5.9,8.9Z"/>
  <path class="st24" d="M749.5,1371c-2.2,3.4-9-3-13.5-3.3-7.7,6-17.2,7.1-25.9,2.3-3.8,1-4.6,6.9-8.2,7.5-27,4.1-30-8.1-37.9-5.4-11.4,3.8-23.4,7.3-35.3,2.5,4.1-5.3,9.1-6.1,13.7-5.4.3-2.3,2-3.2,1.2-5.6-4.8,1.1-7.6,2.4-10.6.5s-8.5-5.5-6.3-9.3c4.3-3.3,11.2-2.6,16.7-2.1,1.9,8.4,10.1,15.3,17.3,17.3.8-7,4.7-11.5,11.6-14.5,11-4.8-22-12.7-4.9-20.5.8-3.7-3.9-6-3.7-9,.3-4.6,6.1-4.4,8.7-3.1s8,5.4,5.2,7.5c-4.2,3.1-8,8.9-4.8,12.5s10.2,1.2,11.7-1.2c3-5.5,6.1-12,11.5-18-5.3-3.5-8.9,1.8-11.5-1.1s-6.5-6.3-5.1-10.1,6.6-2.3,9.3-2,4.9,3.2,6.4,7.2c1.8.3,2.8-.8,5.2-2.5-3-2.4-4.1-6.1-4.5-10.7-3-2.7-7.4-.3-10.9-4.6,8.2-6.4,15.5-10.3,20.6-19.6s4.4,3.1,4.7,5c.8,5.5-8.7,7.4-9.2,9.8s3.2,2.7,3.9,4c4.9,9.5-6.1,9.5,11.9,34.4,7.3-1.3,2.8-12.5,7.3-15.5s13.7-.5,13.6-7c-2.3-1.4-5.5-3.5-7-4-4.4-1.4-4.9,6.8-9.7,2.5s-.3-3.6,1.4-5.1c4.1-3.6,7-3.2,11.8-2.7,8.1.8,15.1-5,23.5-2.9,1,3.6-2.8,8.5-.8,12.9s10.3,7.2,12.7,4.5c4.7-5.4-6.9-6-7.6-11.3s3.9-4.2,5.6-1.9c9.1,12.1,13.3,2.4,17.9,26.4-31.9-7-27.6,9.9-43.8-4.6-2.4.5-5.6,2.6-7,3.2-2.3,1.1,2.6,4,2.7,6.8s-5.7,9.2-9.5,10.4-9.9-1-14,3.5c7.8,9,19.3,4.5,29.7,1.6,3.6-1,8.7,6.2,13,1.8,2.5-2.6,7.6-3.1,9.5-1.4,3.3,2.7,4.4,6.6,1.4,9.7s-7.5,2.7-11.6.7l-6.4,9.8Z"/>
  <path class="st24" d="M419,1377.3l-23.2-.4c.3-4.4.5-7.6-1.4-9.8-3.6-4.4-11.9,7.7-18.5,2.3s3.4-13.7,7.4-17.2c2.7,3.8,5.3,4.2,8.6,3.1s7.1-4.2,4.9-7.7-4.4-3.8-4.8-6.6,3.6-3.9,4.5-6.3c3.3-8.5,9.7-12.8,19.6-10.5,20.3,4.7,24.1,0,23.4,7.4-6.6.2-14.5-.4-21.1,2.8,1.5,4.6,7,4.7,10.4,8.8-5.9,3.9-14.4-.4-18.2,5.5s3.8,9.3,7.7,10.9c2.1,5.6.5,9.9.5,17.6Z"/>
  <path class="st24" d="M774.8,1274.9c-6,.2-10,4.4-15.1,6-13.2,4-23.3-16.8-36.5-18.6.7-7.2,2.7-12.5,4.2-18.3,5.7.2,9.3-2.6,13.9-1.8,3.4,5.5,5.7,14,12.5,14.6s4.2-6,7.4-5c6.3,6.2,8.7,11.7,13.6,23Z"/>
  <path class="st24" d="M887.6,1300.2c-.6-6.5,4.8-6.1,5.1-9.2s-5.4-4.1-5.6-6.1c-.5-4.7,1.9-8.8-.8-12.3-6.8-8.8-11.7-1.9-16.1-4s1-5.5-1.6-15.5c6.8-1.1,11.3-4.8,16.8-7.8s7.4,1.7,7.8,4c.7,3.9-1,6.5-5.5,9.5,2.8,1.6,5.4,3.1,7.9,5.5,5.8,5.5,12.3,1.8,18.4-2.8.6,7.2-3.1,13.1-6.9,17.8-12,15.1,2.4,11.1-19.6,20.8Z"/>
  <path class="st24" d="M216,1276.6c-7,.4-7.5,12-31.9-2.2,16.7-20.1,5.3-20.8,16.2-26.8s4.9-4.5,8.2-3,7.5,1.1,7.5,5.4-2.6,6.8-.9,9.8,6.5,2.3,9.3,4.7c2.6,3-4.1,11.8-8.5,12.1Z"/>
  <path class="st38" d="M332.6,1169.4c-.8-24.5-8-30.3,13.4-44.3,9.9,17.4-.8,25.9-13.4,44.3Z"/>
  <path class="st24" d="M394.6,1326.5c-14.6,12.8-31.2-10-30.8-7.8-.4-2.5,9.9-18.7,14.6-19.2,5.3,6.7,6.4,14.5,4.7,23.1,3.7,1.9,6.9.4,11.5,3.9Z"/>
  <path class="st24" d="M257.6,1269.7c.2,2.9.6,5.2,0,6.6-1.3,2.8-4.5,2.3-7.5,2.4-6.9.2-10.8-2.2-12.3-8.1-1.3-5.5,2-9.3,7.4-10.5s11.7.7,12.4,9.6Z"/>
  <path class="st24" d="M568.1,1329.2c8.3-6.7,4.8-14,11.2-17.1s15.1,14,9,18.6-12.7,1.9-20.3-1.5Z"/>
  <path class="st24" d="M367.6,1298.2c-1.4,6.5-8.1,13.4-17.2,13.8,4.9-12.5-8-23.1,2.7-21.8s-.9,13.6,14.5,8Z"/>
  <path class="st24" d="M458.2,1306.1c-1.3,5.4-5.7,7.4-10.1,8.8-6.9,2.2-13.3-9.1-15.1-10.7s.7-5.2,3-4.6c7.7,2.1,13.7,5.8,22.2,6.5Z"/>
  <path class="st24" d="M379.6,1342.8c-21.7,3.6-20.2-6-24.7,7.7-8.8-2.9-4.8-23.7-6.9-19.5.7-1.4,2.2-.7,2.9-.8,4.7-.6,1.7,13.6,8.4,9.8s13.6-3.3,20.2,2.8Z"/>
  <path class="st0" d="M534.8,1196.7c6.8,11.6-11.1,23.2-18.9,26.4,5.2-11.2,12.7-18,18.9-26.4Z"/>
  <path class="st24" d="M378.5,1297.1c-8.6-.2-1.3-16.5,2.4-19.1,3.9,3.5,4.8,7,5.1,10.9s-3.2,8.3-7.5,8.2Z"/>
  <path class="st24" d="M299.7,1264.7c-1,1.8-1.7,3.6-1.5,4.5.3,1.5-6,3.9-6.5.9-1.3-8.4,8.1-13.9,15.4-11.7,1.5-4.1-.6-6.9,2.6-9.8,4,2.6,4.5,5.9,7.3,10.4l-17.4,5.7Z"/>
  <path class="st24" d="M598,1305.1c2.7,1.2,6.7.8,7.2,2.3s1.7,6.8-.9,6.7c-6.8-.3-14.7-2.7-18.1-8.4s3.1-4.5,4.6-3.8l7.2,3.2Z"/>
  <path class="st24" d="M671.2,1305.7c-2.6-3.3-6.1-2.3-9.8-5.7,4.9-1.4,11.8-3.6,16.8-2.7s3.1,5.7,1.5,7.7-5.4,4.8-8.6.7Z"/>
  <path class="st24" d="M781.4,1367.1c-12.7,5.2-18,11.9-17.5,5.8s3-1.4,9.2-11.8c1.9-3.1,6-1.9,7.9,0s3,5,.4,6.1Z"/>
  <path class="st24" d="M803.1,1357c-5.6,5.3-9.9,12.4-18.6,7.6,2.1-6.4,8-10.3,13.8-12.5s6.1,3.8,4.8,4.9Z"/>
  <path class="st24" d="M481.4,1232.4c-1.4,2.2-.6,5.3-2,5.7-3.1.8-5-.3-6.3-3.2s-4.6-5.4-1.7-8.3,4.4-5.1,7.9-3.1,5.3,3.9,2.1,8.9Z"/>
  <path class="st24" d="M734.9,1277.4c3.8,1.5,14.9,5.2,14.9,8.5s.9,5.6-.8,6c-2.5.5-6.8,2.2-8-.4l-6.1-14Z"/>
  <path class="st24" d="M934.1,1273.4c-1.3,4.8-6,5.9-8.9,6.4s-7.8-1.6-7.8-5.4c3.6-3.8,11-3.1,16.6-1.1Z"/>
  <path class="st24" d="M645.7,1328.9c5.8-5.7,2.2,7,9.5,10.5-.1,2.6-5.7,2.9-7.8,1.9-4.9-2.3-2.8-11.1-1.6-12.3Z"/>
  <path class="st24" d="M507.4,1285.8c-5.1,1.4-8,.4-10.2-1.5s-.4-7.5,3.4-8.1,7.8,5.5,6.7,9.6Z"/>
  <path class="st24" d="M823.9,1375.3c-4.3.7-9.3,1.9-14.8-1.1,2-4.5,5.5-5.3,8.2-9l6.6,10.1Z"/>
  <path class="st24" d="M467.3,1202.3c-.8-4.8,14.3,17.3,12.2,10.9.6,1.9-.2,4.3-1.5,5.8-5.3,6.7-4.7-10.2-10.8-16.8Z"/>
  <path class="st0" d="M546.3,1234c-4.3-1.2-1.8-5.2.7-6s5.7-4.1,6.8-.5,0,4.5-.2,5.4-3.3,2.2-7.3,1.1Z"/>
  <path class="st24" d="M479,1344c-1.8,2.2-6.9-1.7-7.1-4.3s3.7-4.1,5-3.1,4.9,3.8,2.1,7.4Z"/>
  <circle class="st24" cx="247.9" cy="1299.6" r="4"/>
  <path class="st24" d="M434.9,1285.3c1.6-.7,2.8,2.6,3.3,3.7s-.1,5.2-2.8,4.2-2.3-1.9-4.4-3.1,1.3-3.8,3.9-4.8Z"/>
  <path class="st24" d="M626.9,1340c2.2,1.5-3,5.5-5.9,5.4s-7-5.2-3.3-7.2,4.3,2.2,9.2,1.8Z"/>
  <path class="st24" d="M796.3,1372.7c1.7-1.3,2.8-.6,4.6,1s.9,2.1-.6,2.9-2.6,1.2-4,0-2.3-2,0-3.9Z"/>
  <path class="st24" d="M340,1382c-2.9.2-2.5-5.1-1.5-8,2.8,1.2,6.1,5.2,1.5,8Z"/>
  <path class="st24" d="M407,1291.8c-2.1-.9,1.2-2.9,2.4-3.1s5,1.3,4.2,2.5-2.2,3-2.6,2.7-1.5-2.1-4-2.1Z"/>
  <rect class="st24" x="362" y="1367.3" width="5.2" height="7.5" transform="translate(-588.2 319.9) rotate(-27.3)"/>
  <path class="st24" d="M674.7,1288.9c.7-1.5,2,.8,2.5,1.2,1.3,1.1,1,3.7-.3,3.9-2.7.5-4.1-1.2-2.2-5.2Z"/>
  <circle class="st24" cx="346" cy="1320" r="2.2"/>
  <path class="st24" d="M365.5,1359.1c-.4,1.4-3.3-1.8-5.6-1.8,1.2-2.2,7-3,5.6,1.8Z"/>
  <path class="st24" d="M844.6,1297.8c2.1,1.1,1.2,2.2-1.1,2.5-4.6-.3-4.1-2.7,1.1-2.5Z"/>
  <path class="st24" d="M700.9,1272.8c0-1.9,2.6-.8,3.1.2s0,2.4-.8,2.9-2.3-1.1-2.3-3Z"/>
  <rect class="st16" x="1333.6" y="978.3" width="36.6" height="120.5"/>
  <rect class="st24" x="1420.9" y="961.5" width="5.7" height="13.7" transform="translate(-15.1 22.5) rotate(-.9)"/>
  <path class="st0" d="M448,987.1c-2.1,1.6-4.6,1.2-8.1.4,1.1-2.3,3.4-2.1,8.1-.4Z"/>
  <path class="st0" d="M430.6,1029.8c2.1,1.1,1.2,2.2-1.1,2.5-4.6-.3-4.1-2.7,1.1-2.5Z"/>
  <path class="st24" d="M256.3,1117.1c-11,19.6-1,16.7-26.4,21.4-4-4.1-6.8-6.9-13.9-7s-2.3-8.5-1.6-12c-3-1.8-6.1-.3-10.5-1.8-2.6-11.1.1-28,13.5-32.4,6.7-2.2,21.9,4.1,24.6,10.4,1.9,4.8-4.9,12,1,16.2s8.2,2,13.3,5.2Z"/>
  <polygon class="st9" points="944.1 671.3 944 578.4 1011.2 528.1 1011.4 667.8 944.1 671.3"/>
  <polygon class="st9" points="1095.9 670.5 1027.5 668 1028.5 528.8 1095.8 578.5 1095.9 670.5"/>
  <path class="st18" d="M1236,704h-435.7c-7,0-11.5-1.2-18-2.7,2.1-2.2,5-9.3,10.3-9.3h458.2c4.9,2.2,9.7,6.9,10.9,10.3-10.1,1.1-16-1.5-25.7,1.8Z"/>
  <path class="st19" d="M861.5,675.2c-3.8-11.2-.5-21.6-1.7-33.9l67.1-50.2.5,80.7-66,3.4Z"/>
  <polygon class="st1" points="1179.3 674.3 1112.4 671.6 1112.7 591.8 1179.1 640.9 1179.3 674.3"/>
  <path class="st0" d="M1365.8,1092.2c-9.9,2.8-18.9,2.3-27.8.3v-108.3c9.7-.6,18.1-.8,27.6.3v107.7Z"/>
</svg>