<?xml version="1.0" encoding="UTF-8"?>
<svg id="Layer_1" data-name="Layer 1" xmlns="http://www.w3.org/2000/svg" viewBox="0 0 1241 533.2">
  <defs>
    <style>
      .cls-1 {
        fill: #b9b8bd;
      }

      .cls-2 {
        fill: #b7b7bc;
      }

      .cls-3 {
        fill: #b8b7bd;
      }

      .cls-4 {
        fill: #bab9be;
      }

      .cls-5 {
        fill: #b9b9be;
      }

      .cls-6 {
        fill: #b8b8bd;
      }

      .cls-7 {
        fill: #9ea0ac;
      }

      .cls-8 {
        fill: #b7b6bc;
      }

      .cls-9 {
        fill: #b9b8be;
      }
    </style>
  </defs>
  <path class="cls-7" d="M-1380.8-100.8l2.3,5.1c-7.3,19.4-10,39.9-8.2,61.7-7.8,41.7-5.2,81.1,2.6,122.3,1.7,40.7,3.4,81.4,5.2,122.1l-3.8,3.1c-5,20.4,11.5,35.3,31.4,25.5,4.5-.9,6.6,1.1,9.4,4s12.7,28,6.4,31.3c-12.8-.5-22.5,3.8-29.3,12.9,12.6-6.6,25.1-8.4,37.6-5.3,14.2-2.4,16.4,5.6,6.6,24,.5,9.7,6.9,13,19.4,9.7,8.7,1.8,17.1,4.3,25.2,7.7,8.8-6.8,18.9-11.9,30.3-15.2-11.8-7.6-2.2-20.1,9.7-16.4,4.8,5.3,10,9.2,15.6,11.5.9-14,11.2-12.2,20.1-4.5,4.2-6.9,17.5-10,23.2-5.2s6.7,21.8-6.1,22.4c16.4-1.3,25.4,12.1,4.8,15.7,8.9,2.7,12.4,7.5,10.7,14.4,25.9,8.1-1.4,22.7-15.3,16.1-4.6,8.3-11.3,7.7-18.5,2.2-7.1-2-15.1,7.1-4.9,9.8,1.5,7.5,5.9,10.8,13.4,9.9,11.4.6,22.6,1.1,33.7,1.4,4.9-6.9,10.2-9.9,16-8.8,4,7.2,8.4,8.7,13.3,4.5,12.2-.9,24.4-1.3,36.6-1.2,6.3,7,21,4.7,12.7-4.8-4.5-17.6,6.6-28.2,24.3-26.3,11.5-5.9,21.5-6,29.9-.6,2.9.1,2.7-1.9-.6-6.2-1.4-5.6.9-10.2,7.1-14-12.4-8.3-4.3-21.2,6.6-10.7,7.4-15.3,35.9-9.4,42.8,3.4,1.9-13.7,39.6-20.9,28.9-.3-12.1-1.7-8.7,17.3-1.8,10.4,3.8-1.7,7.8-.4,11.9,3.9,32.7-12.5,38.4,15.7,1.2,11.2l16.4,11.4c6.4,6.5,7,15,2,25.7l2.8.6c8.6-6.5,19.2-6.2,31.7.9,7.9-3.5,14.3-2.8,19.3,2,6.2-2.3,13.3-4.7,19.8-2.9,5.5-11.2,14.2-10.6,26.1,2l28.2-.2c4.8-1.7,9.5-3.9,14.1-6.4,13.1,5.6,25.1,6,35.9,1.4-4.1-15.4,11.5-21.7,12.8-5.2,4.3.3,8.7,1.8,10.8,5.9,10.4-1.7,20.5.3,30.3,6,3-2,5.1-5.2,6.2-9.7-18.4-5.8-3.8-26.7,9.3-31.4,3.7-16.1.2-23.4-10.4-6.2-5.7,4.2-29.9,7.8-38.6,8.4s-27.6-1.4-30.8-4.7c-13.1-13.1,15.1-14.5,24.2-12.6,6.2.4,6.9-3.3,2.1-11.1-.2-9.3-5.3-17.6-15.1-25,6.4-12.4,5.5-23.5-2.8-33.1-1.4-7.2,3.7-8.8,15.2-5,5.4-4.6,12.3-4.4,20.7.7,11.9-20.3,26.8-18.6,47.5-14.6,17.9,9-4.9,26.2-19.6,22.6-5.4,1.4-4.2,4.4,3.8,9.2,1.2,8.2-2.6,16.3-11.5,24.3-4.5,6.1-3.1,7.7,4.1,5,11.9,5.4,21.6,4.8,21.1-9.9,2.1-1.9,4.6-3,7.7-3.2-8.5-19.8,30.3-15.2,13.6,3.5.3,1.8,1.8,3.5,3.7,4s22.4-2.1,23.5-2.6c.3-6,2.2-6.9,7.4-8s22.8,2.2,19.8,9.7c-3.3,5.1-1.9,5.6,4.5,1.6,3.3-8.7,8.7-16.1,16.3-22.2-21.2,2-9.3-34,3.9-39.2-1-3.2-.9-5.3,3-6.6-9.8-4.5-1-25.8,10.3-14.4.4,5.9,1.4,9.5,3.1,10.8.4-18.9,17.2-18.7,16.5,0,2.6-15,8-18.2,16.2-9.4-.2,6.6.8,9.7,3,9.2-.9-19.2,16.6-18.6,16.2.4h1.4c-1.9-19.5,17.3-19.2,15.6,0l2.2-.3c-1.1-19,16.5-18.4,15.9.3,1.1-17.6,17.4-20.7,17.1-.1l1.5.2c-.7-19.4,17.1-19.3,16.4-.1l1.8-.4c-1.1-18.9,16.7-18.3,15.5.4l2.3-.3c-2-18.8,17.1-18.7,15.5,0h1.4c.9-18.3,16-19.1,17,.2,1.7-17.5,17.4-19.9,16.7-.2h1.6c.3-19.2,17.7-18.5,16.1.3h2.1c-.4-20.1,15.6-18.5,16.8,0,.1-18.8,16.9-20.8,16.6-.5l2,.4c-1.6-19.5,16.2-20.1,15.7-.4l3.7.5,7.2-82.2-738.3-.8c-12.9-13.4,4.4-16.1,15.8-15l2.2-.8.2-305.3c0-3.5,2.2-5.6,5.4-6.5h332.9c3.8-.1,5.8,2.2,6.5,5.8V-64c-.3,8.5-2.9,12.9-7.7,13.4l-76.1.4c-2,1-2.6,3.5-1.8,7.8l79.5-.3c8.7,2.4,9.2,8.5,1,11.8h-80.1c-.5,2.6-.9,5.7.2,8.3,26.9-1.2,53.8-.8,80.7,1.1,4.2,2,3.7,4.8,1.5,8.5l-82.1,2.5c-1.1,2.6-1.4,6.3.7,8.3l78.9-.8c7.9,4.1,8.4,7.9.4,12h-80.3c-.7,2.8-.7,5.5,0,8.4,23.5-.7,47.1-.7,70.6,0,8.3.3,16.2.8,11.6,9.6l-82.7,2.4c-.8.8.1,6.5.5,8.2l79.8-.6c8.1,3.7,8.3,7.8.5,11.9h-80.1c-1.3,2.3-1.1,5.9-.2,8.4l79.8-.4c8.1,3.9,8.2,7.9.4,11.9l-79.9-.2c-1,3.1-1.3,6-1,8.6l65.3-.5c15.5-.7,21.4,2.6,17.6,10.1l-82,2.6-.3,8,79.2-.6c8.4,3.4,9.5,7.1,1.3,12l-80.7-.2c-.1,3,0,6.1,0,9.1l79.4.4,4.5,3c1.1,8.7,3.8,11.1,8.1,7.1l-.2-305c0-3.5,2.2-5.6,5.4-6.5h342.3c3.2,3.7,4.9,5.7,4.9,5.7V-62.7s-1.5,3.3-4.3,10l-81.1,2.1c-.4.3-1.6,8.6-1.2,8.6,12.8-1.1,74-3.9,81.3.3s3.8,4.7,1.6,8.5l-81.7,2.2c-.5.2-1.7,9.5-1.2,9.5,13.2-1.3,73-4.7,81.2-.2s4,4.6,1.7,8.5l-80.4,2.6c-1.3.3-3.1,8.9-2.6,8.8,11.8-1.5,74.5-3.7,81.3.2s3.8,4.6,1.6,8.5l-81.6,2.5c-1.2,2.2-1.1,5.6,0,7.8,26.7-1,53.4-.6,80,1.3,4.1,2,3.7,4.8,1.5,8.5-27.6.6-55,1.8-82.2,3.6l2.2,5.3c26.3.9,52.7,1.7,79.1,2.3,3.5,4,5.2,6.2.4,9.1-25.3,2-50.7,2.6-76.1,1.8-1,4.2-3.2,7.7-7.9,7.9h-162.5l246.3,2c2.1,2.5,1.5,5.2,0,8l-278.4,2.3c-.6,2.4-1.2,6.3,1,7.4l277.4,2.2c2.1,2.5,1.5,5.2,0,8l-278.2,2.6c-.7,2.4-.8,4.8-.2,7,87.8,0,175.7.4,263.7,1.1,13.7-1,18.6,2.1,14.7,9.3l-277.4,2.4c-1.6,1.8-1.8,4.5-.7,8,93.3,0,186.5.7,279.6,2,.4,2.8,4.9,16.8,8.8,10.1l.7-306.4c0-3.4,2.3-5.5,5.4-6.4l271,.2,5.1,5.3.2,306.4c5.1,3.6,7.9,1.6,8.4-6.2,7-4.5,15.5-5.9,25.6-4.3,2.1-2,2-6.9.5-9.6h-20.4c-13.4-5.9-5.5-11,6.4-11.8,12.7,3.5,17.4,1,14.2-7.5l-21.4-.8c-8.1-4.6-8.3-8.5.8-11.1l20.8-.2c.8-3.2.6-6-.5-8.5l-21.7.2c-7-3.1-6.7-8.6.2-11.8l21.6.6c1.4-2.6,1.6-5.6.7-9l-20.6.2c-11.6-3.9-7.4-11.5,3.9-12.1,14.3,3.4,19.7,1,16.2-7-14,.8-43.1-6.6-15-13,13.5,3.3,18.5.6,14.8-8h-20.2C8.7,3.1,16.1-2.7,27.5-3.4c14,3.3,18.9.7,14.5-8C25.2-7-.9-17.9,28.2-23.4c13.2,3.5,17.9.8,14.1-8.2h-20.3c-10-3-9-9.6.9-11.5,16.8,2.8,23.3.2,19.4-7.6l-22.8-.9c-2.4-2.9-4.1-7.1-5-12.4-.6-39.2,0-78.2,1.7-117.1l4-2.3h340c3.5,0,5.6,2.3,6.5,5.5V128.3c4.7,3.8,7.3,1.5,8-6.9l1.9-2.2c10.5-.9,20.6-1.8,30.5-2.8v-8.1c.1,0-21,.7-21,.7-15.5-1.6-18.6-9.6-2.3-12.6l23.2,1.1c.9-2.7,1.1-5.7.4-8.5l-30.5-1.3c-5.1-3.9-4.3-8.3,1.3-10.9l28.5.3c1-2.8,1.2-5.7.7-8.6l-22,.5c-15.4-2-17-10.1-1-12.5l22.9.8c.7-2.7.8-5.8-.2-8.5l-26.3-.3c-10.6-3-9.3-9,.8-11.7l25.8.5c.7-2.9.6-5.6-.3-8.3h-21.4c-12.3-1.4-18.6-7.4-4-12.1l25.2.5c.9-3,1.1-6,.6-9l-26.4.2c-10.7-2.8-9.9-8.8.3-11.7l25.2.6c2-2.1,1.4-6,.6-8.4h-21.1c-17.9-2-16.7-10.8.7-12.6,7,.9,13.9,1.1,20.7.7.6-3,.3-5.8-.9-8.4h-24.7c-16.4-6.1-6.5-11,5.4-12.3,16.7,3.3,23.4.8,20-7.4l-25.9-.5c-5.2-.5-7.8-4.5-7.9-12-.7-39.4-.2-78.6,1.5-117.6l4-2.3,334.1.2,5.1,5.4V129.1c20.1-.9,26,4.1,17.9,15-246.1.7-492.1,1.3-738.1,1.8l7.3,81.3,3.2.3c0-18.4,16.9-20.2,16.2-.4,1.9-.3,3.2-4,3.8-11.1,8.4-6.3,13.4-2.5,15.1,11.4.6-13.6,5.4-17.6,14.2-11.9,1.2,8.4,2.6,12.2,4.3,11.4-1.5-18.5,17.7-18.4,15.7,0l1.6.3c-.6-19.1,17.1-18.7,16.4,0l1.7-.2c-1.4-18.7,16.9-18.4,15.5,0l2.3.2c-1.6-19.6,17-18.8,15.5.2,1.9-1.2,3.2-5.1,4-11.7,8.5-5.7,13.4-1.9,14.8,11.5.1-18.7,17.4-19.8,16-.7l2.3.8c-1.2-19.7,16.7-19.6,16.4-.1l1.8-.2c-1.8-18.8,16.6-18.8,15.1-.2l1.4.3c.3-18.4,16.9-19.8,16.4-.3l2.1.4c-1.1-19.5,16-19.7,16.2,0,2.5-18.3,16.3-19.9,17.8-.2,2.2-18.3,16.1-19.5,17.7.1,1.6-13.3,6.5-17.1,14.8-11.4.7,7.2,2.1,10.9,4.3,11-1.9-18.6,16.9-18.1,15.3.2l1.9.3c-.9-19.2,17.4-19.3,16,0,1.8-1.2,3-4.9,3.8-11.1,8.4-6,13.4-2.3,15.1,11.2-.2-17.9,16.2-19.9,16.2-1.6,4,3,25.3,4,20-7.2,8.2-11.9,16.8-3.1,15.1,8.8l2.4-.4c-1.6-18.8,16.9-18.6,15.8.2,1.7-.9,2.8-4.5,3.2-10.9,8.3-6.6,13.4-3,15.2,10.8,1.8-19.4,16.5-18.5,17.5.1,1.4-17.5,17.3-20.7,16.6-.4l1.7.2c.4-18.8,17.1-19.2,16.4,0l1.9-.3c-.7-18.9,16.9-18,15.9.4h1.9c-2.2-18.4,16.3-18.6,14.6,0l2.4.3c-1.3-19.3,17-19.4,15.7,0h2.3c-1.5-18.8,16.9-19.1,15.4.2l2-.5c-1.6-18.3,17.4-18.7,15.5-.2,2.1,1.8,3.1-1.6,3.1-9.9,8.4-7.4,13.7-3.9,15.8,10.6.9-13.2,5.7-17.1,14.7-11.6.7,6.1,2,9.9,3.8,11.5-1.1-18.9,17-19.2,15.8-.5l1.7.4c-.7-19.2,15.3-19.3,16.4-.1h1.4c-.8-19,16.4-18.9,16.2.1,2.1-10.2,8-22.5,16.7-7.5-.5,5.2.1,7.7,1.9,7.3,1.7-16.2,3.5-16.6,16.7-9,2.2-5.1-2.4-7.5-13.8-7.4-3.6-11.7-6.8-52.6,12.4-36.5l2.5,20.7c-.6-12.6,2.6-38.2,15-17.6-.2-4.3,3.8-4.6,7.8-3.6-11.7-25.3,7.3-20.6,13.7-2-.7-13,4.4-31.4,13.1-12.1,2.3,17.9,4.1,22.5,5.4,13.5-.2-10.4,5.7-22.4,14.2-11.2-3.3,13,10.2,8.5,18.2,4-7.9-19.4-18-37.7-30.1-54.7.9-7.4,1.7-7.5,8-5.1,13.2,5.2,30.4,32.2,37.3,44.8l-5.7-28.7c0-13.1-1.7-24.9-5-35.4-12.7-3.2-13.1-14.1.7-11.7,5-11.9,12.5-4.9,14.3,4.5,14.9,4.1,27,14.3,38.6,24.1l3.7-12.1c-1.1-19.4-7.2-38.1-18.3-56.2.3-5.7,4.3-5.2,9.1-2.9,9.4,9.8,16.6,20.5,21.5,32.3,4-8,15.2-26.5,18.7-11l-10,26.2c-.8,8.9.5,17.9,3.8,26.9,4.1-14.5,13.6-13.2,11.5,2.1,11.2-12.5,21.2-30.3,15-47,2.4-19.1,11.3-5.8,12.2,6.6l3-17.9c3.3-12.6,9.8-30.2,15.2-9.2l-1.1,28c7.7-2.3,13.4,1,8.3,8.9l-11.2,7.4c1.6,19.3-.3,38.5-5.6,57.6l18.8-41.2c3-5.6,11.8-21.7,14.9-8.7,1.9,7.7-7.3,36.2-10.7,45.2-5.8,15.5-14.6,29.2-23.7,42.7,12.8-14.7,24.9-30,36.4-45.9,6.5-6.2,21.2-18.8,20.3-3.6-7,10.1-12.7,20.9-17.2,32.5,6.2,1.3,12.7-.2,19.4-4.5,8-1.8,14.9-2.8,11.8,7.6l-22.9,13.3c15.9,9.3,32,18.1,48.2,26.3,13.8.5,21.2,5.3,22,14.4,6.6,6.4-2.5-13.4-5.3-17.7-18-19.6-31.1-41.5-39.3-65.6-6.5-25.5-.6-40.5,11.5-9.7l6.4,10.6c16.4,17.8,32,36.4,46.7,55.7,2.4-22.3-2.1-41.8-13.4-58.5-12.2-10.4-30.4-27.2-30.8-44.6-.1-5.7.5-11.1,7-8,2.6,4.2,20.7,25.8,20.5,23.9-1.4-19.9-18-40.4-32.5-52.8l-7.1-13.8c-10-5.8-27.4-17.2-8.9-21.1-5.2-7.8-14.4-9.8-27.6-5.9-3.3-4.5-7.3-6.3-12-5.4-7.7-1-13-3.3-8.5-11.8-10-6.1-11.4-18.8,1.5-20.6-7-11.4-2.5-24.7,11.6-17.1-3.9-7.8-4-21.5,3.6-27,12.1-8.7,15.2,6.3,16.8,16.4-3.6-37.5,35.7-37.8,21.4,1.7-.7,10.3,1.4,20.3,6.2,30.2,0-19.2,2.3-38.1,6.6-56.6,7.9-20.8,34.5-24.1,26.1,2.7-10.1,17.1-13.7,36-12.3,55.7,1.6-19,45.5-71,65.1-54.7,6.8,5.6,4.6,13.3-2,17.9-15.2,5.3-52.9,34.5-15.1,10.6,21.4-14.8,49,5.3,17,16.8,3.2,8.7,5.2,19.1-7.9,16-16.4-15.1-31.9,14.5-35.1,28.6,16.7-18.5,37-24.2,61.7-23.1-5.9-9.7-4.1-19.7,8-12,2.5-6,7.2-6,10.8-.8,11.2-1.1,10.1,10.3,6.7,18.5l4.1,11.7c-10.8,11.7-16.2,17.6-16.2,17.6-4.1-2.1-5.9-.8-5.4,4-4.8,5.5-9.7,2.6-14.7-8.6-17.6-15.5-41.5,5.5-52.2,20.6l-6.1,4c-6.7,1-8.2,5.9-4.4,14.6,21.3,35.8,32.7,76.5,35.2,118,8.3-13.6,11.5-27.6,11.8-43.2l7.1-2c7.1-13.1,48.1-40.4,58.7-40.7s5.5,2.2,5.2,7.4l-35,33.9c-14.8,16.6-22.9,37.1-24.2,61.5l20.7-27c7.1-2.4,7.6-1.8,8.5,5.2,1.8,12.9-13.4,38.4-20.6,49.4l52.4.4c4.2-26.5,6.7-53.5,7.3-81,5.3-21.7,9.1-43.6,11.4-65.6,0,0-2.2-24.5-6.7-73.4,5.6-47.4.9-94.6-15.3-139.8l2.2-6.3c-2.3-7.3-7.4-14.1-13.7-19.8l-15.8-14.3-55.6-40.1c-7.4-5.3-18.3-6.2-26.9-7.3-32-4-35.2-24.2-71.2-25.5-33.7-1.2-37.5-27.2-52.7-28.9s-1.2,3.2-.4,3.8,3,1.3,4.7,3.4c-5.3,3.8-15.5-.2-20.2,2.4-9.3,6.4-22.8,9.2-30.7-1.6s2.3-11.3,1.4-16c-4.2-.8-9.1,3.2-11.9,1.6-11.7-5.4,2.4-32.4,9.4-35-2.8-2.9-4.3-4.9-3.5-7.4,1.9-5.9,13-3.6,14.2-7.4l2.9-8.9c6.6,4.1,12.8,5.1,18.9,3.7-2.3-5.2-5.8-7.7-6.7-12.3,4-5.2,10.1-4.8,16.8-4.1,2.9-4.1.3-8.7,2.6-13.6,3.4.5,3.4,5.6,6.8,4.4,1.8-5,4.3-8.5,7.3-9.5s7,.9,10.1,4.1c2.7-16.3,30.5-15.5,31-15.2,1.3.8,2.1,3.2,3.7,5.1,2.2.3,4.2-.5,4.7.6,2.2,5.3-3.1,11.4,0,12.1,7.1,1.6,19.7-6.8,29.1-.3,4.8,3.3,6,10.9,10.4,15.2,21.2-8.5,39.4,45.8,28.5,47.6s-8-5.8-14.3-1.8c-1.6,1-2.9,4.5-5.1,5.2-4.9.6-9.8-7.2-14.9-6-5.5,1.3-5.5,8.8-5.4,13.3.4,30.4,7,17.2,19.2,31.4-11.1,7.4-27.7-24.7-37.6-31.1-3.7-2.4-11.9,1.7-15.6-5.6-1.5-2.9-10.8,5.5-9.5,8.4,11.1,23.7,32.3,39.6,55.6,51.7,9.3,4.8,28.7,8,38.3,8.5,6.9.4,10.8,6.9,19.1,6.7-18.4-38.1-2.9-85.8-26.8-119.1l-35-48.7c-9.6-13.3-13.3-29.9-24.3-42.2-5.5-6.2-11.9-11-15.4-19.2-4.7-11.1-14.7-18.2-26.7-20.8-44.8-9.6-27-21.8-76.8-22.1-1.3,9.8-8.3,15-15,13-7.8-2.4-11.4-6-11.2-15.2-4,1.5-7.8,5.2-9.3,2.9-3.2-5.4-.6-12-.2-19-3.9-3.2-11.4,9.7-14.6,8.6-7.6-2.7-5.9-23.2-5.5-31.7l-10.6-2.6c3.2-6.2,4.6-12.2,5.8-18.9,1.1-6,11.1-9.5,10.5-15.4s-8.1-6.8-7.2-13.9,3.8-3.6,4.9-5.9c2.1-4.4-3.9-4.7-6.4-6.6-7.1-5.2-2.8-15.9,4-19.9,1.6-3.3,1.1-8.4,3.5-10.3,7.9-3,11-8.9,11-17.2,7.3-1.9,14.3-.2,21.2-3.4-2.3-5.7-6.7-9.1-10.7-13.7,8.4-4.9,16.6-7,23.3-12.8-1.1-3.3-3.6-5.4-4.3-9.9,9.8-1,15.5-9,22.8-14.2l11.6-8.2c2.5-1.8,2.6-6.2,5.9-5.6,8.7,1.5,7.4,12.8,14.1,2.9,1.6.7,2.4,4.5,4.3,5,4.7,1.1,6.2-6.6,10.5-4.2s2.9,4.1,4.5,3.8c5.3-1,9.7-1.7,14.5,3.7,2.3-4.9,1.7-12.3,7.5-12.7s5.7,4.8,8.6,4.2,4.6-3.4,7.5-3.6,4,5.1,7.2,5.7c3.7-1.9,7-2.8,11.1-2.2,2.5.4,3.3,5.3,6,7.1,7,4.8,11.2,8.6,12.7,17.7,1.9,1.3,18.3,3,18.2-2s-7.2-5.4-6-9.9c1.8-6.8,11.1-5.5,16.2-15.3s10.9-5.1,12.7-9.4l8.9-21.5c3.1,0,7.2,2.5,9.4,2.2s4.6-2.9,6.6-5.7c10.3-14.7,15,2.2,27.1-12.3,2.6,11,9.9,17.3,19.2,20.6,1.6-5.3,4.3-12.5,10.6-11.5s2.9,6.4,5.3,6.1,6-1.7,8.8-.8c4.7,1.4,1.7,7-.7,10.9,10.1,2,19.2,2,29,1.2s2.8,3.9,4.3,2.1.5-2.9-.9-6.4c21-22.7,10.1-10.5,39.6-16.9-1.5-3.5-3.7-6.6-2.6-8.5s22.4-10.4,23.1-7.9v184.5c-5.2,1.7-24.4,27.2-24.5,30s4.7,4.2,5.1,4.3l16.3-3.5,3.1,3.9v79.2l-3.1,3.6c-5.9-1.8-9.5,2.3-11,12.3,8.9-1.7,13.5,3.6,14,15.8v43.9l-1.6,4.4c.7,10.3-2.3,14.7-9.1,13.2-4.8,8.3-16.8,37.5-18.3,47.3-1.4,9.1,2,58.4,5.4,62l8.3-18.5c3.3-9.6,8.4-15.2,15.4-16.7v28.3c-8.3,40.5-15.7,80.3-14,120.9,4.7-6.7,9.4-9.8,14-9v18.1c-6.6,18.5-12.3,37.4-16.9,56.5-6.7,46-10.1,92.1-10.2,138.3,5.4,25.9,5.9,52.7,2.5,79.1-10.9,33.3-7.4,66.8,2,100.1l20.1.4,2.6,4v301.6H-1511V230.6c11.4-37.4,11.6-79.5,7.1-118.6.4-55.7,3.4-111,8.9-165.8-.6-8.4,0-16.3,2-23.7l-4.3-.7-13.6-41.2v-24c1-3.1,2.8-4.3,5.3-2.2l11.4,17.9c-.6-22.9.2-45.9,2.3-69-2.2-28.8-8.5-57-18.9-84.7v-40l4.6-1c7.7,19.1,15.5,38.2,23.5,57.4l3.2-30c17.7-56.4,10.5-113.9-26.2-160.8l-4.9-13.6v-42c3-4.2,5.5-2.1,7.8,1.9,12.7,33.9,15.8,38.6,9.2,14.1-2.3-20.4-2.9-40.9-1.8-61.4-1.7,9.2-4.9,17.3-9.5,24.3l-5.7-.9v-126c9.6-18.2,35.9-14.8,21.1,9.5,12.8,7.1,22,16.9,27.4,29.3-2.5-23.1-3.1-46.8-1.8-70.9l-3.6-37.8-11.7,6.9c-6.8,6.6-14.5,12.4-21.6,2.5-5.2.8-8.4-.4-9.7-3.6v-203.3c3.2.2,6.6,1.7,7.4,3.9,1.5,3.9.5,7,.7,12.5,6.7-3.8,13.4-1.1,20-1.7s14.9-4.2,23.4-.9c2.2-4.3-7-10.3-2.9-15.9s9.9,2.1,15.3-.3,1.9-6.5,4.5-7c8-1.5,11.8,7.4,16.3,14.2,6.1-4.4,15.1-7.8,19.3-14.3s2.1-13.3,5.9-9.9l8.1,7.1c28.7-7.1,25.4,14.3,33,13.6l17.6-1.8c-1.8,7.5,2.6,11.4,5.4,16.7s.3,8.7,2.7,11.9,6.7,2.8,10.2,5.3c6.7,4.7,10.8,13.1,17.5,17.3s9,3.6,10.5,9.3c3,10.9-12.5,9-6.4,18.9s19.5.7,20.8-.1c2.5-1.6,3.1-6.7,5.7-10,6.6-8.4,13.9-16.7,21.4-23.8,4.6-2.1,11,2.1,15.6,3.3l5.7-9.8,14.5,8c2.4-3.2,7-10.4,11.5-7.8s2.8,12.3,8,15.9c2.8-2.5,5.7-4.7,8-5.8,3.4-1.6,6,.4,8.9,3.8l11.1-9c3.3,3.5,5.4,7.4,9.9,7.6,2.5-2.8,2.9-6.8,6.4-9.6,2.5,2.6,3.4,5.1,5.4,6,5.3,2.4,6.2-8.6,15.2-6.8s1.6,5.3,3.7,7.1c5.7,5.1,13.9,5.3,17.7,12.5,5.9,11.1,18.6,16.5,30.9,18.8.2,6-3.3,8.7-6.7,12.2,8.2,8.7,19.6,12,31.1,18.7-5.2,6.1-11.9,9.9-13.9,16.8s25.5,2.1,28.5,11.1c3.2,9.5,6.1,17,17.6,18.8.2,5.4-1.8,9.1,0,13.6,9,5.4,14.2,19.2,6.9,26.9s-14.4,2.2-11.6,9.2c1.3,3.3,9.2,4.8,9.2,9.2s.2,9.5-5.4,11.1-5.2,3.5-5.5,6.5,2.9,4.4,5.3,6.5c8.6,7.7,9.6,18.8,12.7,29.4s6.1,10,.1,11.8-10.1-.6-9.6,4.1c1.3,11.6,2.4,24.4-3,35.5-1.4,2.8-2.7,6-5.6,5.7-7.3-.7-6-11.2-15.9-12.9-1.7,5.8,2.9,27.3-2.3,28.5s-6.2-7.5-11.1-4.8c-7.6,4.2,2.7,14.7-12.8,18.5s-7,5.6-10.2,2.1-6.4-4.6-9.4-5.9c-2-3.3-.3-7.4-1.9-12-11.1,2.2-22.2-.7-33.5.7-11.9,1.5-21.5,10.2-32,15.3-28.3,13.6-58.4,9.6-70.3,38.6-5.5,13.4-15.7,22.1-25.4,31.9-13.6,13.9-15.9,34.5-27,49.8l-58.9,80.6c-17.3,23.7-28.1,47.5-34.4,76.1s-10.6,41.2-12,63.6c-1.5,24.3-2.7,47.7,0,72,1.1,9.9-1.5,19.1,2.4,29.5,8.3-12.7,15.9-23.4,24.8-34.5l29.2-36.6c5.7-7.1,12.5-13.7,15-22.8l12-44.1c3.5-12.7,17.9-16.9,25.9-25.9,5.4-9.2,2.9-22.4,6.1-32.3-4.6-3.3-5-9.9-9.3-10.9-7.1-1.7-12.5,11.1-19.1,10.8s-4.4-8.3-10.6-10.1-9.6,8.2-18.2,1.6c-4.9-3.7,1.5-19.3,2.3-21.5,8.5-23.6,3.7-18.6,17.5-33.4,6-6.5,11.7-10.8,22-6.8.5-5.9,5.2-7.6,7.5-11.3s1.6-7.4,4-9.2c8.5-6.3,31.1,3.4,42.5-1.9-2.2-4.5-5.1-7.9-4.2-12.5s6.1-3.3,9.6-2.3c.1-2.9-.5-4.9-.3-6.4.8-4.9,29.4,4.3,33.5,6.3,7.4,3.6,6.5,13.2,14.1,18.8,2-2.6-3.4-8.6,1.4-9.9,9.9-2.8,15.7,5.5,19.3,14.3,3.3-3,2.5-7.3,6.8-9.1,3.8,5.1.8,11.8,3.7,16.7s16.2-2.7,21.1,7.6-10.8,16.6-7.9,22.1c4.5-4.4,10.1-3.6,16.2-5s8.1-7.3,9.3-3.4l3.8,12.4c1.1,3.7,17.5-.9,19.2,11.1.3,2.2-3.9,3.5-4.1,5.4-.6,4.5,7.4,6.1,8.7,9.7,3.5,9.6,6.2,18.1,13.9,26.6-3.6,3.8-4.7,10.4-8.4,12.5-5.5,3-11.7-1.5-18.1-2.5-.9,7.3,2.5,14.7,1.1,21.9s-6.8,4.6-9.1,6.5c-5.8,5-9.5,2.9-15.5.3s-6.4,1.6-8.5.4-4-3.3-5.4-8.1c-8.7,9.1-11.8-.5-27.7,0,2.3-4.3,7-3.4,10.2-7.5-9.7-11.8-28.5,19.7-33.3,25-11,12.3-27.5,14.6-42.8,17.8-74.3,15.8-86.1,54.6-112,83.5l-18.8,21c-11.5,12.8-15.4,29.5-21.5,44.5l-.5-.7Z"/>
  <path class="cls-6" d="M1241,231.6l-26.1-.5c-7.3-30.2-14.7-64.6-4.8-94.5s2.5-22.1,3.6-33.3c4.2-43.5-8.9-38.4-3.4-99.1l2.8-30.9,4.5-46c2.6-26.7,9.2-52.8,23.3-74.1V231.6h.1Z"/>
  <path class="cls-1" d="M728.7-192.4l-.7,121.4c42.1-21.6,60.6-28.1,106.9-23.8,47.6-.8,58-3.5,98.1-23.6,58.5-29.3,90.3-31.3,155.9-27.8,22.1,1.2,42.7,6.1,64.3,9.1,1.9.3,3.8.2,3.5-1.5,5.6,17.6,12.8,35.9,14.5,55.5s5.9,29.8,5.6,44.3-5,37.8-2,58.2.8,28.1,3.7,42c4.6,21.6.3,41.7-5.1,62.5-6.6,25.3-6.7,51.1-7.4,76.9-.3,10.6-1.5,20.2-5.3,30.8l-62.9-.5c13.2-18.6,23.5-35.7,24.7-58.4l-33,44,10-51.4c4.7-24,41.1-48.4,55.5-65.8-16.9,6.6-31.4,15.7-46.1,26-16,11.2-13.2,22.7-20.1,13.9l-.9,14.5c-.9,15.1-11.6,29.2-18,46.2-.6-47.1-10.7-91.7-34.8-132.3s-3.7-14.9-1-18.4c8.1-2.9,13.2-5.9,18-13.2,8-12.1,24.1-20.1,38.4-20,11.3,0,16.3,10.1,19.9,19.2,3.9-5,0-9.9-.5-15.9,4.9.7,6.7,5.3,10.6,8.1,2.1-4-2-4.2-3.1-7,13.5,1.3,4-4.4,17.2-8.6-2.8-3.1-6.4-2.4-9.5-5,1.1-.9,6.2-1.4,5.7-2.6-.7-1.8-3.1-1.6-5.2-2.5,5.7-4.2,8.2-12.6,2.3-18-.3,5.1-.6,9.5-3.6,12.6,0-6,.5-11.9-4.8-15.1-1.2,5.1,2.1,9.5-1.6,14.4-2.5-5.3-4-11.5-11.1-12,1.5,6,6.5,9.6,3.7,15.8-48.2-1.3-48.3,11.8-71.4,30.1s-12.7,6.5-14.7,15.8c-2.8-5.3-1.3-13.9,4.3-16,21.6-8,7.5-26.4,34.8-45.7,12.1-8.5,18.6,5.3,22.4,3.2s-2.1-9.8-1-14.4,11.7-3.4,13.8-8.9c1.2-3.1-.9-6.4-4.3-7.6-13.4-4.8-45.7,18.6-54.7,30.7,5.3-20.8,23.3-34.4,42.5-42.6,4.1-1.8,7-3.7,6.5-7.8-1.7-16.9-43.4-1-60.7,46.3-2,5.6-3.6,10.9-8.8,14.3.5-26.8-1.9-44.3,11.3-67.6s3.7-11.9,1.9-17.3c-8.9-.5-16,5.6-19,13.9-11.3,32.2,3.2,50.6-15.9,77.1,9.5-28.4-13.2-29.1-1.5-66.8s-1.3-12.6-6.8-11c-19.6,5.8-5.2,44.5-1.3,56.9-12-12.7-16.7-28.9-19.5-46.6-2.4-2.6-8.4.4-9.6,2.7-8.4,16.7,5.7,27.4,13.6,43.9-7.3-1.6-19.5-24.1-26.4-20.3s1.9,17.8,8.2,22.4c-5.5.7-9.8-2.1-15.1-3-4.4,10.5,7.2,13.5,10.3,16.1s-4.4,2.1-5.3,3.5c-3.9,6.5,16.8,4.6,21.8,3-.4,1.7-2,2.1-2.7,2.5-1.5.7-3.3,4.8-.4,4.5l17.8-1.8c8.4-.8,14.4,12,18.8,19.6-6.8,1.6-8.9-4.3-14.8-4.5,2.5,7.4,10.1,9.2,15.9,13.5s5.8,13,10.6,17.4l10.4,9.7c14.8,13.7,19.4,37.1,25,57.8-13.1-10.6-22.1-23.5-32.7-37.5,9.3,62.1,50.5,20,44.9,124-7.7-11.2-13.2-21.8-22.1-31.6l-25.7-28.4c-9.8-10.8-15.4-22.7-19.6-36.3-.3,28.6,12.5,54.2,30.9,75,10.7,12,18.2,24.8,21,42.1-4.1-.2-9-2-11.5-5.7s.3-5.1-.8-6.3c-7.9-7.6-14.9-1-35.2-13.6-8.1-5-15.3-11.3-24-15.2-4.9-2.2-10.1-2.6-12.3-9.3l28-15.8c-15.2-3.1-19.4,12.2-36.8,3.6,14.3-22.6,3.5-15.7,22-39.6-30.9,13.9-33.6,51.2-65.4,65.1,5.7-14,15.3-24.4,21.9-37.1,10.8-20.7,16.8-41.6,18.9-64.8-13.3,18.6-22.3,58-41.1,74.5,8.9-27.4,15.4-52.4,13-80.1,4.7-4.9,9.5-7.1,14.6-11.1-3.9-2.6-8.1,1.5-12-.3-1.4-14.1,3-25.9,0-39.7-8.9,17.6-8.4,36.4-12.1,54.9-3.4-17.9-6-17.3-8.4-34.4-3.5,10.4,3.3,19.7.5,29.8s-17.4,27.5-19.9,31.5c-3.8,5.9-1.9,13.9-7.1,19l3.3-36.4-9.1,20.6c-13.1-46.9-7.6-31.1,4.2-69.3-7.8,7.2-11.3,16.4-17.3,25.4-6.9-15.4-10.8-32.4-26.6-42.1,8.6,17,18.7,33.8,20,53.8.5,8.5-4.9,16.7-5.8,25.1-13.3-12.9-26.2-23.4-43.3-29.2l-5.5-11.5c-1.9,3.4-1.9,6.6-3.7,7.5-3.5,1.8-6.7-1.5-10.7.8,4.9,3.6,13.8.9,14.1,15.4.6,30.2,7.4,57.3,18.5,86.3-23.5-31-23.2-50.5-58-74.5l19.3,30.3c10.2,16,13.2,35,25.6,51-7.6.2-10-5.4-15.2-7.7-.6-4.2.8-7-.7-11.4-5.6,5.1-11.9,7.3-19.2,3.7-.2,3.6.9,4.9,1,6.9,0-1.1-8.9,13.9-4-18.6-7.7.3-5.7,6.4-6.4,11-1.1,6.8-5.7,12.9-8.2,19.6-4.5-14.4-2-27.2-8.8-38.5-3.1,15.5-.2,29.8-1.4,45.3-5.6-13.5-5.8-29.8-19.6-40.6,5.2,18.1,13.8,33.3,14.5,51l-16.9-34.3c-.9,13.4,8.2,21.8,9.2,34.4-3.9-9.3-10.5-16.4-16.3-25s1.9-11.1-6.6-10.4l-1.8,29.3c-9.3-3.2-8.6-11.4-9.2-20.2l-.4-6.8c-.1-1.9-6.1-2.8-6.4-.5-1.5,10.9-.5,21.6-.5,33.3,7.9-2.8,16.1,0,17.1,8.2s-3,4.8.1,9c-6.8.5-9.6-10.2-16.3-8.5s.6,11.5-2.9,13.2-5.3,1.1-7,0c-2.8-1.8-.3-11.6-2.8-12.7s-3.3-1.2-5,0,.3,10.8-2.9,12.7-5.2,1.3-6.9.1c-2.7-1.9-.4-11.8-2.7-12.8s-3.3-.6-5,.3c-2.4,1.3.3,10.4-3.3,12.5s-5.3.9-7.4-.1-.6-10.6-1.6-12-3.3-1.7-4.8-1.2c-2.9,1-1,12.3-2.5,13.2-2.2,1.3-5.9,1.1-7.4.2-3.5-2.2-.8-11.4-3.2-12.7s-3.4-.8-5-.2-.1,11.2-2.6,12.8-5.5,1-7.1,0c-3.2-2.1-.8-11.7-2.9-12.7s-3.7-.5-5,0c-3.1.9.1,11.4-2.7,12.9s-5.7,1.1-7.4,0c-3-1.9-.7-11.8-2.8-12.8s-3.6-.9-5.1-.2c-2.7,1.3.8,11.1-2.5,13.1s-5.5,1.1-7.5,0c-3-1.7.2-12.2-2.7-12.9s-3.5-.6-5,.1.2,10.8-2.8,12.8-5.3,1.2-7.2,0-1.1-10.7-1.9-12.2-3.1-1.3-4.8-.8c-3.1.9-1,9.4-2.9,12.1s-4.4,1.7-7.1,1.3c-5.4-.8,1.5-17.6-8-13.6s-.9,11.6-2.5,12.8-5.2,1-7.5.7c-5.7-.6,2.1-15.9-7.7-13.4s.6,11.4-2.9,12.9-5.5,1-7.2,0c-2.7-1.6-.2-11.6-2.8-12.7s-3.8-.9-5.1-.3,0,11.4-2.8,12.9-5.4,1-7,.1c-3.2-1.6-.3-12.4-2.8-13.1s-3.7-.6-5.2.3c-2.1,1.3.4,11.3-2.8,12.8s-5.3.8-7.5-.1.2-11.6-2.2-12.6-3.4-.9-5,0c-2.5,1.5.4,10.8-3.1,12.8s-5,1.1-7.1,0,0-11.8-2.7-13-3.6-.1-4.9.8c-2.5,1.7,0,10.5-3.3,12.3s-4.9,1-6.9-.8-.3-8.9-2-11.6-3-1.2-5-.5-.4,11.6-2.6,13-5.7,1-7.2,0c-3.2-2-.9-11.7-2.9-12.8s-3.7-.5-4.9,0c-2.9,1,0,11.5-2.8,12.8s-5.7,1-7.2.1c-3.5-2.1-.7-11.3-2.9-12.9s-3.6-.4-5,0c-2.7.8.4,8.4-2.2,12.8-8.9,1.5-17.4.3-26.4.4l-1-12.2c-.1-1.8-3.3-1.3-4.7-1.3-4.2.1-.3,10.6-3.9,13.2s-5.1,1.1-7.1-.5-.4-9.4-2.1-12-3-1-5-.5-1,11.9-2.6,12.7-5.9,1.3-7.4.4c-3.7-2.4-.4-11.4-3.1-12.9s-3.3-.8-5,0-.4,11.3-2.6,12.8-5.7,1-7.2,0c-3.3-2-.8-11.8-2.8-12.7s-3.7-.6-5-.2c-2.8.8.5,11-2.7,12.8s-5.6,1-7.4.1c-3.1-1.6-.6-11.7-2.8-12.8s-3.4-.8-5,0,0,10.9-2.9,12.7-5.3,1.2-7,0c-2.7-1.7,0-12-2.8-12.9s-3.6-.4-5,.3c-2.1,1,0,10.7-3,12.5s-5.6,1-7.3,0,.2-11.8-2.4-12.7-3.5-.7-5,.4c-2.3,1.7,0,10.9-3.1,12.5s-5.2,1.2-7-.7-.3-8.6-2-12-3-1.4-5-.7-.5,12-2.7,13.3-5.6,1-7.2.1c-3.4-1.9-1-10.7-3.2-12.7s-3.3-1-5-.3,0,11.4-2.6,12.8-5.6,1.1-7.1.1c-3.3-2.1-.8-11.8-2.8-12.8s-3.4-.8-4.9,0c-2.5,1.3.6,11-2.8,12.9s-5.4.8-7.2-.2c-2.8-1.7-.1-12.5-2.9-13s-4-1-5.4-.2c-2,1.2,1,11.4-2.6,13.4s-5.3.9-7.3-.2c-3.2-1.7.2-12.3-2.7-12.9s-3.3-1.1-4.7.1c-2.5,2.2.3,10.7-3.1,12.9s-5.2,1.3-7.1-.7-.2-9.6-1.9-11.8-3.1-1.2-4.9-.8-.9,12.2-2.5,13.1-6,1.2-7.5.2c-3.5-2.3-.7-11.6-3.1-12.8s-3.4-1.1-4.8-.6c-2.5.9,0,11.5-2.7,13.3s-5.6,1-7.2,0c-3.2-1.9-.9-11.7-2.9-12.7s-3.6-1-4.9-.2c-2.6,1.4,0,11.2-2.9,12.8s-5.4,1-7.1.1c-2.9-1.6-.3-11.7-2.9-12.8s-3.4-.8-5.1,0c-2.4,1.1,0,11.3-2.8,12.9s-5.4.8-7,0c-2.9-1.6-.1-11.5-2.6-12.7s-3.9-.6-5.3,0c-2.1,1,.4,10.7-2.9,12.8s-5.2,1.2-7.1,0-.2-11.3-2.6-12.8-4.2-1.2-5.5-.3.4,11.2-2.6,13.2-5.2,1-7.2-.5,0-8.3-1.8-12.1-3.1-1.3-4.9-.8c-2.7.7-.7,12.1-2.9,13.3s-5.6,1-7.2.1c-3.5-2.1-.7-11.3-3.1-12.8s-3.3-1.1-5-.1,0,11.1-2.6,12.8-5.2.7-7.3.5c-3.9-.3-2.9-4.6-3.3-8.4l-7.6-81.6,739.5-.2c4.1,0,3.4-7,.9-7l-19.7-1.1V-178.3c-.1,0-336.7-.2-336.7-.2V-60.7c11.8,1.1,22.4-1.4,34.3,1.2-11.3,5.2-22.8-1-35.1,3.2,10,5,22.7-.2,32.5,2.8,3.5,1.7,3.5,13-.1,14.8-9.7,2.4-22.8-2.9-33.3,2.4,12.1,4.7,23.2,0,35,2.4.4,4,2.2,13.4-1.1,15.5-11.2,3-22.6-3.6-33.8,2.1,10.6,5.1,23.3-.7,33.3,2.8,3.7,1.4,3.5,13.4,0,15.3-9.8,2.7-22.7-3.9-33.1,1.9,10.3,4.9,23.3-.3,33.6,2.3,3.2,2.3,2.8,13.2-.4,15.7-9.9,2.6-22.7-3.6-33.1,1.9,10.3,5.2,23.3-.7,33.1,2.8,3.6,1.5,3.6,13.5,0,15.1-9.8,2.8-22.9-3.5-33.1,2.1,10.1,4.9,23.3-.5,33.1,2.7,3.5,1.8,3.7,13.3.1,15.1-10,2.6-22.9-3.2-33.4,2.1,11.2,5.5,22.4-1,33.7,2.7,3.3,1.8,1.9,10.8,1.1,15.5-10.6,1.4-20.3-.7-31.4-.2s-3,3.6-1.1,3.7l31.2.9c3.9,2.1,3.2,15.3-1.1,16-11.1,1.8-21.9-3.9-32.4,1.7,11.4,5.1,22.5-.8,33.6,2.2,3.5,2.4,2,11.8.9,16.4l-31.4.6c-2.1,3.2-1.1,6.5-1.9,10.5-4.2,1.4-8.9,2-14.1-.4V-178.3l-343.9-.1-.3,117.3c10.1,2.6,19.6-1.6,29.1,2-5.2,3.7-27-.4-28.1,2.3s0,2.7,1.9,2.8l24.3.4c2.1,4.3,1.5,10.1.4,15.4-9.4,2.9-18.3-3.4-28.5,2.1,10.3,4.9,19.4-.6,29.1,2.4.7,4.7.6,10.5-.3,15.6-9.6,3.1-18.5-3.5-28.9,2,9.6,4.9,18.2-.1,28,2.3,2.2,4,1.7,10.4.8,15.6-9.6,3.1-18.4-3.4-28.8,2,9.6,4.7,18.2.3,28.2,2.2,1.8,4.1,1.3,10.4.3,15.7-9.5,3-18.3-3.3-28.6,2.2l28.6,3c1.1,4.3,1.2,10,.2,15-9.4,3.3-18.6-3.7-28.6,1.9,8.2,5.1,19.6-.5,27.3,2.5,3,2.5,3.1,13.1,0,15.5-4.3,2.6-24.6-2.2-25.9,1.1s-.2,3.1,1.9,3.1l24.3-.5c2.4,4.7,1.8,10.8.7,16.2-9.5,2.7-18.3-3-28.6,2.2,10.2,4.6,19.2.2,28.7,3,1,4.4,1,10,0,15-9.5,3.3-18.4-3.6-28.7,2,9.6,4.8,18.1,0,28.2,2,2.3,4.6,1.6,11.2.4,16.7-8.4,1.2-16.3-.9-24.8,1.1-3.6.8-1.6,7.5-3.5,9.3-3.5,3.2-9.4,2-14,.6l.2-49.8.2-72.1-.6-190h-273.4c0-.1-.4,219.9-.4,219.9l-.3,92.4c-6,.8-9.5,1.6-12.9-.4s-.8-5.9-1.8-10.7l-280.3-.2c-2.4-5.4-2.8-11-.6-16.5l282.6-2.5c-26.6-5-279.4.2-282.5-2.8s-1-8.8-.9-14.5l283.4-2.7-282.6-2.3c-2-4.3-2.7-13.3,1.1-15.3l281.5-2.4-280.9-2.2c-3.2,0-2.9-2.7-2.8-4.7s1.2-3,4.6-3h195.3c2.4-1.4,2.5-7.5,4.9-7.7,26.8-2.2,52.2,2.6,79.5-2.3-14.7-6-77.5,2.4-84.3-4.4-2.4-2.4-4.7-8.7-1.9-12.6l86.1-3c-29.6-4.8-57.8-.3-86.5-2-1.3-5.1-1.4-10.4,0-15.4l86.5-2.6c-29.2-4.6-56.8-.7-85.9-1.6-2.2-3.9-1.2-9.2-1-15.7l86.9-2.8c-29.2-4.4-56.8-.9-86-1.3-2.1-4.7-1.4-10.6-.7-16.3l86.7-2.3c-29.2-4.7-56.7-.6-85.9-1.7-2.3-4.3-1.6-10.3-.7-15.5l86-2.3-85.6-3.5,84.6-1.5v-117.8l-344.5.2.2,311.3c-4.7,2.5-9.4,2-13.6.6-1.4-4.1-.3-7.7-2.3-10.7l-82.5-.3c-2.7-2.8-1.5-9.1-1.6-12.8s4.3-4.1,8.1-4.1h76.5c2.3.2,2.4-3.9,0-3.9l-84,.6c-1.1-6.3-1-11.2.1-15.9l87-2.7c-28.5-4.9-57.6-.3-85.7-2.1-3.5-3-3.5-12.9.1-16.1l83.6.2c1.3-3.8-.6-4.1-3.6-4l-81.5.5c-1.5-6.3-1.4-10.6.1-16.5h85.1c1-3.7-.7-3.9-3.7-3.9l-81.5.7c-.9-6.3-2.3-13,.9-16.1l86.1-2.5c-29.8-4.8-58-.4-86.9-1.9-.9-5.4-2.5-12.5,1-16h84c1.2-3.8-.6-4.2-3.6-4.2l-80.7,1c-2.8-5.3-1.8-11.1-.9-16.2l87.2-2.7c-30-4.8-58.2-.4-87.3-1.9-1-5.6-1-10.3,0-16.1h83.6c2.2.1,2.7-3.8,1.5-3.8h-82.1c-5.1,0-3.8-8.3-3.2-14.3.2-2.2,37.9-1.8,45.8-1.8l36.1.2c1.6,0,2.3-.5,2.7-1.3,2.3-5.7-74.6.6-85-3.9l85.6-1.7v-117.5h-336.8l-.2,311.5c-7.4,2-13.2.5-20.4,1.6-2.5-.6-3.7,7,.6,7l740.7.3-7.4,81.7c-.3,2.9.1,6.7-1.7,7.8s-5.3.7-7.2.6c-7.1-.5.4-19.1-9.8-13.9s.5,11.7-2.6,13.3-5.5.9-7.3,0c-2.6-1.5-.8-12.3-2.7-13.2s-4.1-.6-5.4,0c-2.3.9.5,11.7-2.6,13.4s-5.4,1-7.1,0c-3.3-1.9.3-12-2.7-13s-3.6-.5-5,.2.3,10.6-3,12.7-5.1,1.2-7.1,0-.3-11.4-2.6-12.8-3.9-.5-5.2.1c-2,1,.4,11-2.9,12.7s-5.5.7-7.5-.2-.4-10.1-1.6-12.1-3.1-1-4.9-.4c-2.8.9-1,11.7-2.5,12.5s-5.9,1.2-7.3.2c-3.4-2.4-.7-11.3-3.2-12.6s-3.1-.5-4.7-.2c-2.7.5-.2,11.1-2.9,12.8s-5.6.7-7.2,0c-3.1-1.5-.7-11.8-2.8-12.7s-3.7-.5-5.1-.1c-2.9.8.4,11.3-2.6,12.9s-5.8,1.1-7.3.1c-3.4-2-.7-11.9-2.8-12.9s-3.4-.8-5,0,.3,10.8-2.8,12.8-5.3,1.2-7.1,0c-2.6-1.7-.2-12.1-2.9-12.9s-3.6-.7-5.1.1c-2.2,1.1.5,10.8-2.8,13s-5.1,1-7.1-.2-.2-11.5-2.7-12.8-3.7-.6-5.3.1-.2,9-1.6,11.8-4.9,2.1-7.2,1.1-.9-11.5-3.1-12.8-3.2-.6-4.7-.3c-2.8.7-.1,11.1-2.9,12.9s-5.5,1-7,0c-3.4-2.1-.9-11.8-2.9-12.8s-3.7-.9-5.1-.3c-3,1.3.3,11.2-2.6,13s-5.4,1.1-7.3,0c-2.7-1.6-.2-11.6-2.7-12.9s-3.4-.7-5,0,.1,11.2-2.8,12.8-5.4,1-7.4,0-.2-11.4-2.8-12.8-3.4-.6-5,.1-.5,8.4-1.9,11.6-6.1,2.8-8,.7.5-8.7-2.1-12-3.3-.7-4.6-.5c-2.9.5-1.2,11.5-2.5,12.6s-5.1,1-7.4.6c-4.5-.9-.4-11.8-4.1-13.3s-5.4-.8-5.5,3.3l-.4,10.1c-2.4,9.6-18.1,2.2-10.6-5.3l-.6-6.9c-2.2,3.3-4.2,6.6-6.1,10,3,11.7-20.6,6.4-10.3-4.1-2.2-2.1-4.7-.6-7.3,4.5,1.5,7.1-8,8.5-10.4,1.5-2.9-.3-3.9-1.4-3.8-4.2s.1.7-1.3,1.7-1.7.9-2.7,1.1c2.6,6.9-8.3,8.8-10,1.8l-2.7-.7-1.3-13.2c-3.4,2.9-4.6,8.6-3.7,17.2-4.8,1.1-30.9,2.5-30.1-3.2,5.6-3.7,0-12.3-4.3-8,4.2,1.7,4,6.6-.4,7.8-3.3,8.4-16.7,2.6-11.9-4.2.4-4.4-2.3-6.5-5.8-4,3.1.2,2.9,5.5-.2,6,2.5,9-8.1,8.2-13.6,1.2-3.8,6.7-16.3,8.1-13.9-1.2-3.3-1.4-3.4-6.4-.5-8.3-7.8-3.2-5.8,2.3-3.3,7.8s-13.5,11.5-14.3,2.3c-3-3.2-5.2-3.7-6.6-1.4,2.7,7.5-10,7.9-11.3,1.3-2.3-1.9-4.5-1.8-6.6,0-1.5,8.9-17.4,3.5-11.3-2.8l-.4-9.1-3.2,2.8c.6,4.5-.4,7.5-3,9-1,7.7-10.7,5.3-14.3-.7-5.6,7.7-12.3,7.9-17.3-.6-2.6,6.1-12,9.5-14.1,1.9-4.5-1.8-3.6-8.4-.7-11.8-3.5-.8-5.5,1.1-6,5.8,2.6,10.9-6.7,14.6-11.2,5.5-2.1-2.3-4.3-2.2-6.6.3-3.7,9.2-14.9,3.7-11-6.2-2.8-1.7-4.2-.4-4.2,4.1l-2.6,1.7c-4.6,9.3-14.4,4.2-12.7-5.7-.9-3.7-2.6-3.8-5.1-.3,3.1.6,2.8,5.7-.5,6.3-3,7.1-9.6,4.8-13.7-.9-4.7,6.2-12,8.6-13.6.3-4.3-1-4.8-8.5-.1-9.4-4-3.9-7.7-1.4-7,6.6,4.3,8.4-8.1,11.2-10.8,3.3-2.6-2.6-4.8-2.7-6.7-.3-2.3,9-17.1,3.9-12.2-4.2-1.5-4.3-3.4-4.8-5.6-1.4,3,.3,3,3.4-.1,3.9,2.7,4,.1,5.9-4.3,6.3-9,.8-10.8-6.5-10.3-13.9-5.1,3.6-10.8,4.1-17.2,1.6-2.6,5.9-14.9,13-19.5,7.3-9.4-11.6,24.9-29.6,33.6-31.3,3.1,4.8,6.2-4.8,6.1-9.1s-3.2-13.5-5.9-7c2.1,4.4,4.4,10.3,0,13.9,2,3.8,1.5,5.8-1.8,3.2-9.6,8.1-18-3.4-9.1-8.7-3.5-1.6-3.6-8,.6-8.2-5-5.1-8-3.3-8.9,5.5-8.2,10.8-23.9,11.7-18.2-5.1-2.6,7.3-6.7,11.8-12.3,13.5-1.2-4-4.2-4.4-9-1.3-1.9-6.4-4.1-7.8-6.6-4.2l-3.4-1.4c-3.7-8.5-6.7-17.3-9-26.4l4.8,34.1c-1.8,4.1-5.6,4.2-9,1.4l-12.2-20.2c-8.4-10.9-7.9-7.2,1.4,11.2,6.4,12.6,5.2,18.1-3.6,16.3-1.3-3.8-1.8-2.8-1.5,3.3-4.2.5-4.1,3.3.2,8.6-.7,7.3-3.2,11.9-7.2,13.8-6.5-3.2-10.8-2.2-12.9,3-35.8.9-71.4.5-106.6-1.2-2.4-8.6-3-17.9-1.9-27.9l4-2.8c-2.9,0-2.9-3.8.2-4.3-3.6-6.8,6.4-10.8,11.6-10,1.4-4.8.6-6.7-2.5-5.5,2.8,2.2-4.1,8.1-5.5,7.9-14.1-1.8-.2-23.9,7.5-28.6l-1.6-4.1c14.5-40.6,21.8-61,21.8-61l2.6-.9c-2.2-3.7-1-6.8,3.8-9.4-2.4,0-4.5,1.9-6.4,5.6.3,4.5-5.7,27.1-7.7,28.8s-3.9,1.6-6-.6-4.4-24.3.4-26.2c-1,0-2,0-2.8-.3-2.3-.9-1.9-4.1-1.9-3.9,0,2.3-1.6,3-4,3.9-4.4,3.4-9.5.5-10.9-4.5-3.2-2-2.9-3.4,1-3.4-.6-3.4-2.5-3.7-5.3-1.7-5,3.3-6.4-4.2-4-8.1-2.4-.6-2.9-2.4-2.7-4.5s1.6,6.6-1,6.7c5.4,3.2,7.2,10.7.6,14.2,8.3,6.6,0,15.2-5,6.3-3.3,1.2-4,2.4-2,3.6,10-3.8,15.6,5.4,16.9,27.6,0,0-1.3,23.6-3.8,70.8,3,5.1,2.5,16.8-4.7,16.3s-3.7-1.7-2.7-5.4c-5.1-.1-11.1-9.2-10-13.7-1,.3-1.9.5-2.3.1-2-1.8-15.3-14.7-15.5-15.8,2.2-13.2,3.8-26.5,5-40,4.6-4.8,4.8-18.4-3-15.7,2.5,3.7,2.6,13.3-2.2,15.4l3.3,3.4c.6,3.6-.6,30.2-1.9,31.9-4.2,5.6-6.7.2-8.5-4.4s-5-11.4-9.1-16l2.3-5c-1.2-1-2.1-1.9-2-2.9.1-9.8,4.3-28.3,10.2-35.3-1.8-1.5-3.8-1.4-6,.4,1.1,1.2,2.2,2.6,2.1,4.1-.2,2.4-5.6,28.5-6.4,29.7-2.3,3.6-4.6,2.6-5.7-1.6-4-2.5-7.8-6.1-11.6-10.8-9.9-1.9-5.8-10,2.1-12.7l-.6-2.6c5.8-6.2,5.7-14.8-.3-25.8-12.8,17.3-21.4,2.5-12.2-11.7l-4.5.4c-3.4-5.1-6.6-10.5-9.8-16-11.7,11.1-20.3-1.5-6.8-9.9-6.1,0-8.6-.9-9-7.2-8.1-1-12.6-3.4-18.6-8.7-1.2,6-4,9.4-8.4,10.3,4.5,6.1-3.1,8.6-7.1,3l-2.2-16c-5.4-3.2-7.9-3.1-7.4.4l-6.8.3c3.4,3.7,5.9,7.4,1,10.8,5.3,1,24.6,10,15,15.5s-3.2-.8-4.6-1.9c-.5,3.2-3.6,4.9-9.2,5-3.1,6.4-3.1,10,.3,10.9,3.8,4.7,6.5,10,8,16.1,8.4,5.1,15.4,11.5,21.1,19.5,8.5,4.9,12.7,10.9,12.6,18,14.5-2.5,10.6,15.7,9.3,12.7s6.7-6.2,10-4.3c3.1-5.1,7.9-6.4,12.5-2.5,7.8-13.4,23.8-.4,25.1,10.4,3.8.1,3.7,1.8-.2,2.5-6.5,1.3-3.5,3,9.1,5.1,4.2,3.6,13,22.9,1.5,20.6-31-5.4-19.9-2.4,3.5,3.5,6.2,7.1-4.2,10.8-10.9,11.6l-29.5,1.9,9.1,2.3c15.5-1.1,30.9-4.8,46.3-11.2,6,4,9.3,8.5,9.7,13.4,4.4,1.5,11.8,11.3,9.6,16.4,7.1-.6,10.4,14.7,2.2,18.3l-126.5-.2c-3.6-1-6.1-2.5-5.6-6.4-9.5-3.2-7.1-21.7-.4-29.4l-3.7-2.4,3.9-24.3c-1.8,8.1-5.1,13.9-10,5.1-5.1,6.6-10.1,2.5-15.1-12.5l9,32.4-3.1,3.8c4.8,3.5,12.9,29.5,1.4,27.9s-17.6-31.2-12.2-34.4c-2.4-1.8-4.3-1.7-5.7.3l2.8,1.1s5,10.9,15.1,32.7c.8,8-28.7,7.9-32.6,6.2-6-2.6-8-15.5-5.2-21.6l-2.6-44.4c-2.8-47.5,3.3-42.3-5.1-97.2-3.6-23.7-7.6-46.7-4.4-71.1s5.6-38.4,4.6-57.7c-.9-16.8,3.9-30.2,9.5-44.1,1.4,4.5,6.9-.2,10.3-1.3l61.6-20.6c42.2-14.1,46.4,1.6,83.1-6.9,38.2-8.8,62.4-13.3,101-3l129.7,34.6v-94.2l1.9-4c573,0,1146.1-.1,1719.3-.2l2.5,4-.1-.2Z"/>
  <path class="cls-1" d="M596.9-142.6l4,1.8V-29.8c35.2-2.6,69.9-13.4,100.2-31.5l-.2-109,4-2.4c4.8,36.4,1,73.5,1.9,112l-.8,190.9-116.9-17.6v-252.7c2.9-2.4,5.5-2.1,7.8-2.5Z"/>
  <path class="cls-1" d="M579-22.8l.5,133.7-75.1-12,.4-121.5c0-1.6.4-3.9,1.3-4,19-1.2,44-1.1,63.1-.2,5.4-1.2,8.6.2,9.7,4h.1Z"/>
  <rect class="cls-3" x="60.4" y="106.9" width="295.1" height="17.9"/>
  <rect class="cls-6" x="60.2" y="67.2" width="295.2" height="17.5"/>
  <rect class="cls-6" x="200.95" y="-54.03" width="17.4" height="295.1" transform="translate(115.77 303) rotate(-89.9)"/>
  <path class="cls-3" d="M473-107l4,1.3V-28.7l11.3,1c1-29.8,1.2-57.5.5-83.2.4-.8,5.9-3.6,5.9-1.6l-.3,89.3-.8,120.5c-8,.3-14.5-1.2-22-2.6l-.3-119.6-.4-78.1c0-2.1.9-3.6,2.1-4.1v.1Z"/>
  <path class="cls-3" d="M341.5,53.3c3.4-3.2,3-6.7,5.1-7.4,3-1,9.1-1.7,9.9,1.2,1.3,4.9.7,9.1-.2,14.3H62.9c-1.7-5.1-1.5-10.5.6-16.3h33.3c2.1,1.7,2.4,6.7,5.1,8h239.8l-.2.2Z"/>
  <path class="cls-6" d="M264.8-57.9c1.2-4.3,5.6-4.1,8.2-1.2l-.8,96.3-101.5-.4-.3-95.6c2.2-3.1,6.2-3.5,8.2-.4l.2,85.1h85.7l.2-83.9.1.1Z"/>
  <path class="cls-6" d="M152.8-58c0-4.4,9.6-4,9.7-1.8l.8,96.2-48.4.6-.2-96.9c3.4-1.5,6.8-1.2,9.6-.4l.3,85.4c9.9,1.3,18.6,1.8,28.3,0V-58.1l-.1.1Z"/>
  <path class="cls-1" d="M937.3,231.6c-1.1-4.9,15.2-7.9,13.8-13.3-1.9-7.3-37.9,10.2-47.7,13.4,3.8-9.8,11.1-16.9,19.4-24.1,2.9,5.7-3.6,7.2-2.4,12,8.2-3.4,8.9-11.4,14.9-16.7s16.9-13,24.8-12c11.6,1.5,25.7,18.3,37.2,24.4-3,1.6-6.3.7-9.4,2.7s-.5,3.9.3,5.2c2.5,4.1,30.7-.9,37.2,7.5l-88,1-.1-.1Z"/>
  <path class="cls-2" d="M318.6-58c0-3.9,8-3.5,10.2-1.6l.2,96.5h-48.7c0-.1-.2-93.8-.2-93.8,0-3,2.6-4,3.9-4.1s5.5-.6,5.6,2.1l.6,84.8c10.4.3,19,1,28.1-.4l.4-83.5h-.1Z"/>
  <path class="cls-1" d="M842.9,161.2c-8.3-7.9-11.2-17.8-15.7-28.2-1.8,2.3-.4,4.5-1.9,7.4-21.8-11.9-14.8-21.6-24.5-50.1,12.1-.9,32.5,26.8,40.9,36.5.7,11,2.8,20.9,1.2,34.3v.1Z"/>
  <path class="cls-9" d="M875.7,205.1c2.2-39.6,9.4-68.4,26.4-106.7,12.4,17.8-15.8,86.5-26.4,106.7Z"/>
  <path class="cls-5" d="M101.7,1.3l-37.2.3c-3.9-1.9-3.8-12.8-1-15.8,12.5-1.3,26.3-.5,39-.3,1.3,4.3,2.3,12.2-.9,15.8h.1Z"/>
  <path class="cls-6" d="M101.7,21.6l-37-.5c-3.9-1.1-4.2-12.7-1.1-15.2,12.2-1.4,26.5-.9,38.8-.4,1.3,4.5,2.2,11.7-.7,16v.1Z"/>
  <path class="cls-3" d="M94.1,41.6c-10.3-.3-20.1.6-29.5-.2-3.8-.8-4-12.7-.8-15.2,11.8-1.7,26.2-.9,38.5-.8,3.5,6.2.3,16.4-8.1,16.2h-.1Z"/>
  <path class="cls-5" d="M462,121.7h-33.6c-3.3-3-2.3-11.3-1.1-15.9l34.1-.6c2,4.9,1.3,10,.6,16.5Z"/>
  <path class="cls-8" d="M461.8,81.4l-33.1-.7c-3.5-1.5-3.5-12.1-.7-15l33.4-1c2,5.6,1.3,10.4.3,16.7h.1Z"/>
  <path class="cls-6" d="M461.2,2l-32.3-.8c-3.8-1.3-3.9-14.1,0-15.1,10.5-2.6,23-.2,33.3-.9.9,5.8,1.1,10.1-1,16.7v.1Z"/>
  <path class="cls-5" d="M461.5,22.4l-33-.9c-3.5-2.6-2.1-11.2-1.1-16,11.5-.4,21.7-.8,33.9,0,1.9,4.7,1.9,9.8.2,16.8v.1Z"/>
  <path class="cls-4" d="M461.6,42.4l-33.1-.8c-3.4-2.9-1.8-11-1-15.9,12-.8,22.8-.8,34.6-.2.6,5.7,1.2,10.1-.5,16.9Z"/>
  <path class="cls-1" d="M461.5,102.1l-33-.8c-3.5-2.5-2.2-11-1.2-15.6,12.1-1,23-.5,34.8-.3.5,5.7,1.2,10-.6,16.6v.1Z"/>
  <path class="cls-3" d="M461.9,61.5h-34.5c-1.6-6-1.6-10.5-.1-16.1l34.2-.4c1.9,5,1.4,10.1.4,16.5Z"/>
  <path class="cls-3" d="M1.2,40.9c-7.9.7-14.4,1.4-22.4.8-1.7-5.1-1-10-.4-15.6,7.2-1.5,14.1-.9,21.6.2l1.2,14.6h0Z"/>
  <path class="cls-3" d="M.9,61.2c-6.6-.7-13.6,1.8-20.3-.6s-2.8-10.8-1.3-14.9c7.7-1.5,14-.7,21.6-.4.4,5.1.3,8.5,0,15.9h0Z"/>
  <path class="cls-1" d="M.4,80.3c-7.2,1.2-13.7,1.2-20.9.4-1.9-5.3-2.4-10.1-.3-15.4H.9c.4,5.1-.2,8.7-.6,15h.1Z"/>
  <path class="cls-1" d="M-.1,0c-6.9,1.8-13.3,1.7-20.6.5-1.5-5.1-1.9-9.7-.2-14.6,7.5-.6,13.8-.8,20.9.5C.4-9.5.2-5.9,0,0h-.1Z"/>
</svg>