<?xml version="1.0" encoding="UTF-8"?>
<svg id="Layer_1" xmlns="http://www.w3.org/2000/svg" version="1.1" viewBox="0 0 2834.6 2834.6">
  <!-- Generator: Adobe Illustrator 30.1.0, SVG Export Plug-In . SVG Version: 2.1.1 Build 136)  -->
  <defs>
    <style>
      .st0 {
        fill: #aaa;
      }

      .st1 {
        fill: #565656;
      }

      .st2 {
        fill: #f3f3f3;
      }
    </style>
  </defs>
  <polygon class="st2" points="571.3 1145.4 460.6 1256 773.3 1256 884 1145.4 571.3 1145.4"/>
  <polygon class="st1" points="883.5 1363.9 883.5 1247.6 772.9 1358.1 772.9 1474.4 773.1 1474.4 883.5 1363.9"/>
  <polygon class="st2" points="883.5 1277.3 772.9 1387.9 1085.5 1387.9 1196.3 1277.3 883.5 1277.3"/>
  <rect class="st0" x="832.7" y="1328.1" width="312.7" height="116.2"/>
  <polygon class="st1" points="1196.2 1393.6 1196.2 1277.3 1145.4 1328.1 1145.4 1444.4 1145.5 1444.4 1196.4 1393.6 1196.2 1393.6"/>
  <rect class="st0" x="724.1" y="1387.8" width="198.5" height="116.2"/>
  <rect class="st1" x="797.2" y="1312.6" width="35.5" height="67.5"/>
  <polygon class="st1" points="883.5 1262.2 883.5 1145.9 772.9 1256.4 772.9 1372.7 773.1 1372.7 883.5 1262.2"/>
  <polygon class="st2" points="823.8 1336.9 773.1 1387.7 773.1 1387.8 922.2 1387.8 973.1 1336.9 823.8 1336.9"/>
  <rect class="st0" x="460.6" y="1256" width="312.6" height="247.9"/>
  <polygon class="st1" points="973.4 1453.1 973.4 1336.9 922.5 1387.6 922.5 1503.9 922.7 1503.9 973.5 1453.1 973.4 1453.1"/>
  <polygon class="st2" points="259 1028.7 148.3 1139.3 461 1139.3 571.7 1028.7 259 1028.7"/>
  <polygon class="st1" points="571.2 1145.5 571.2 1029.2 460.6 1139.7 460.6 1256 460.8 1256 571.2 1145.5"/>
  <rect class="st0" x="148.4" y="1139.5" width="312.6" height="364.5"/>
</svg>