<?xml version="1.0" encoding="UTF-8"?>
<svg id="Layer_1" xmlns="http://www.w3.org/2000/svg" version="1.1" viewBox="0 0 2834.6 2834.6">
  <!-- Generator: Adobe Illustrator 30.1.0, SVG Export Plug-In . SVG Version: 2.1.1 Build 136)  -->
  <defs>
    <style>
      .st0 {
        fill: #aaa;
      }

      .st1 {
        fill: #565656;
      }
    </style>
  </defs>
  <g>
    <path class="st1" d="M2040.2,824.7c37.1,0,67.2,30.1,67.2,67.2v32.9h-31.6v-25.6c0-24.4-19.7-44.1-44.1-44.1h-24.5v-30.4h32.9Z"/>
    <rect class="st0" x="1996.5" y="820.2" width="10.9" height="39.5" rx="5.4" ry="5.4" transform="translate(4003.9 1679.9) rotate(180)"/>
    <rect class="st0" x="2086.2" y="910.5" width="10.9" height="39.5" rx="5.4" ry="5.4" transform="translate(3021.9 -1161.4) rotate(90)"/>
    <rect class="st0" x="2086.4" y="890.1" width="10.9" height="39.5" rx="5.4" ry="5.4" transform="translate(3001.6 -1182) rotate(90)"/>
  </g>
  <rect class="st1" x="2065.5" y="814.5" width="52.2" height="90" rx="7.5" ry="7.5"/>
  <path class="st1" d="M2109.4,834.4h23.3v51.9h-23.3c-4.1,0-7.5-3.4-7.5-7.5v-36.9c0-4.1,3.4-7.5,7.5-7.5Z" transform="translate(4234.5 1720.6) rotate(180)"/>
  <rect class="st1" x="2076" y="915.3" width="31.5" height="9.5"/>
  <rect class="st0" x="2080.2" y="915.3" width="4.9" height="10"/>
  <rect class="st0" x="2089.2" y="915" width="4.9" height="10"/>
  <rect class="st0" x="2098.2" y="915" width="4.9" height="10"/>
  <g>
    <g>
      <rect class="st0" x="1996.4" y="820.2" width="10.9" height="39.5" rx="5.4" ry="5.4" transform="translate(4003.7 1680) rotate(180)"/>
      <rect class="st0" x="2016.9" y="820.4" width="10.9" height="39.5" rx="5.4" ry="5.4" transform="translate(4044.6 1680.2) rotate(-180)"/>
    </g>
    <rect class="st1" x="1996.4" y="835.2" width="31.5" height="9.5" transform="translate(2852.1 -1172.1) rotate(90)"/>
    <rect class="st0" x="2009.9" y="825.5" width="4.9" height="10.9" transform="translate(2843.3 -1181.4) rotate(90)"/>
    <rect class="st0" x="2009.7" y="835" width="4.9" height="10" transform="translate(2852 -1172.2) rotate(90)"/>
    <rect class="st0" x="2009.8" y="844" width="4.9" height="10" transform="translate(2861.2 -1163.2) rotate(90)"/>
  </g>
  <path class="st0" d="M2092.7,787.8h6.1v39.6h-6.1c-4.1,0-7.5-3.4-7.5-7.5v-24.7c0-4.1,3.4-7.5,7.5-7.5Z" transform="translate(2899.6 -1284.3) rotate(90)"/>
  <rect class="st0" x="2085.4" y="780.3" width="13" height="29.4"/>
  <rect class="st0" x="2054.8" y="768.2" width="74.1" height="14" rx="7" ry="7"/>
  <path class="st1" d="M2098.4,768.2h23.4c3.9,0,7,3.1,7,7h0c0,3.9-3.1,7-7,7h-23.4v-14h0Z"/>
</svg>