<?xml version="1.0" encoding="UTF-8"?>
<svg id="Layer_1" xmlns="http://www.w3.org/2000/svg" version="1.1" viewBox="0 0 2834.6 2834.6">
  <!-- Generator: Adobe Illustrator 30.1.0, SVG Export Plug-In . SVG Version: 2.1.1 Build 136)  -->
  <defs>
    <style>
      .st0 {
        fill: #aaa;
      }

      .st1 {
        fill: #565656;
      }
    </style>
  </defs>
  <rect class="st0" x="2192.9" y="1363.6" width="10.9" height="39.5" rx="5.4" ry="5.4" transform="translate(4396.7 2766.6) rotate(-180)"/>
  <rect class="st0" x="2259.8" y="1364" width="10.9" height="39.5" rx="5.4" ry="5.4" transform="translate(4530.6 2767.5) rotate(-180)"/>
  <rect class="st0" x="2213.4" y="1363.7" width="10.9" height="39.5" rx="5.4" ry="5.4" transform="translate(4437.6 2766.9) rotate(-180)"/>
  <rect class="st1" x="2192.9" y="1378.6" width="31.5" height="9.5" transform="translate(3591.9 -825.3) rotate(90)"/>
  <rect class="st0" x="2206.4" y="1368.8" width="4.9" height="10.9" transform="translate(3583.1 -834.6) rotate(90)"/>
  <rect class="st0" x="2206.2" y="1378.3" width="4.9" height="10" transform="translate(3591.9 -825.4) rotate(90)"/>
  <rect class="st0" x="2206.3" y="1387.3" width="4.9" height="10" transform="translate(3601 -816.4) rotate(90)"/>
  <rect class="st1" x="2224.2" y="1360" width="35.5" height="47.5" rx="7.5" ry="7.5"/>
  <rect class="st1" x="2229.3" y="1352.4" width="25.5" height="61.5" rx="7.5" ry="7.5"/>
</svg>