<?xml version="1.0" encoding="UTF-8"?>
<svg id="Layer_1" xmlns="http://www.w3.org/2000/svg" version="1.1" viewBox="0 0 2834.6 2834.6">
  <!-- Generator: Adobe Illustrator 30.1.0, SVG Export Plug-In . SVG Version: 2.1.1 Build 136)  -->
  <defs>
    <style>
      .st0 {
        fill: #aaa;
      }

      .st1 {
        fill: #565656;
      }
    </style>
  </defs>
  <rect class="st0" x="2433.9" y="1363.4" width="10.9" height="39.5" rx="5.4" ry="5.4"/>
  <rect class="st0" x="2367" y="1363.9" width="10.9" height="39.5" rx="5.4" ry="5.4"/>
  <rect class="st0" x="2413.5" y="1363.5" width="10.9" height="39.5" rx="5.4" ry="5.4"/>
  <rect class="st1" x="2413.4" y="1378.4" width="31.5" height="9.5" transform="translate(3812.3 -1046) rotate(90)"/>
  <rect class="st0" x="2426.4" y="1368.7" width="4.9" height="10.9" transform="translate(3803 -1054.7) rotate(90)"/>
  <rect class="st0" x="2426.7" y="1378.1" width="4.9" height="10" transform="translate(3812.2 -1046) rotate(90)"/>
  <rect class="st0" x="2426.6" y="1387.2" width="4.9" height="10" transform="translate(3821.2 -1036.9) rotate(90)"/>
  <rect class="st1" x="2378" y="1359.8" width="35.5" height="47.5" rx="7.5" ry="7.5" transform="translate(4791.5 2767.2) rotate(180)"/>
  <rect class="st1" x="2382.9" y="1352.3" width="25.5" height="61.5" rx="7.5" ry="7.5" transform="translate(4791.4 2766.1) rotate(180)"/>
</svg>