<?xml version="1.0" encoding="UTF-8"?>
<svg id="Layer_1" xmlns="http://www.w3.org/2000/svg" version="1.1" viewBox="0 0 2834.6 2834.6">
  <!-- Generator: Adobe Illustrator 30.1.0, SVG Export Plug-In . SVG Version: 2.1.1 Build 136)  -->
  <defs>
    <style>
      .st0 {
        fill: #aaa;
      }

      .st1 {
        fill: #565656;
      }
    </style>
  </defs>
  <rect class="st1" x="1558.2" y="807.2" width="47.3" height="64.3" rx="7.5" ry="7.5" transform="translate(2421.2 -742.6) rotate(90)"/>
  <g>
    <g>
      <rect class="st0" x="1518.4" y="819.9" width="10.9" height="39.5" rx="5.4" ry="5.4" transform="translate(3047.8 1679.3) rotate(180)"/>
      <rect class="st0" x="1538.9" y="820" width="10.9" height="39.5" rx="5.4" ry="5.4" transform="translate(3088.7 1679.5) rotate(-180)"/>
    </g>
    <rect class="st1" x="1518.4" y="834.9" width="31.5" height="9.5" transform="translate(2373.8 -694.5) rotate(90)"/>
    <rect class="st0" x="1532" y="825.1" width="4.9" height="10.9" transform="translate(2365 -703.8) rotate(90)"/>
    <rect class="st0" x="1531.7" y="834.6" width="4.9" height="10" transform="translate(2373.7 -694.6) rotate(90)"/>
    <rect class="st0" x="1531.8" y="843.6" width="4.9" height="10" transform="translate(2382.8 -685.6) rotate(90)"/>
  </g>
  <g>
    <g>
      <rect class="st0" x="1614" y="820" width="10.9" height="39.5" rx="5.4" ry="5.4" transform="translate(3239 1679.4) rotate(180)"/>
      <rect class="st0" x="1634.5" y="820.1" width="10.9" height="39.5" rx="5.4" ry="5.4" transform="translate(3279.9 1679.7) rotate(180)"/>
    </g>
    <rect class="st1" x="1614" y="835" width="31.5" height="9.5" transform="translate(2469.5 -790) rotate(90)"/>
    <rect class="st0" x="1627.6" y="825.2" width="4.9" height="10.9" transform="translate(2460.7 -799.3) rotate(90)"/>
    <rect class="st0" x="1627.3" y="834.7" width="4.9" height="10" transform="translate(2469.4 -790.1) rotate(90)"/>
    <rect class="st0" x="1627.4" y="843.7" width="4.9" height="10" transform="translate(2478.5 -781.1) rotate(90)"/>
  </g>
</svg>