<?xml version="1.0" encoding="UTF-8"?>
<svg id="Layer_1" data-name="Layer 1" xmlns="http://www.w3.org/2000/svg" viewBox="0 0 850.32 850.32">
  <defs>
    <style>
      .cls-1 {
        fill: #fa7728;
      }

      .cls-2 {
        fill: #fa7727;
      }

      .cls-3 {
        fill: #554338;
      }

      .cls-4 {
        fill: #564339;
      }

      .cls-5 {
        fill: #f97626;
      }

      .cls-6 {
        fill: #908e89;
      }

      .cls-7 {
        fill: #db947e;
      }

      .cls-8 {
        fill: #f97625;
      }

      .cls-9 {
        fill: #f5cc40;
      }

      .cls-10 {
        fill: #d99983;
      }

      .cls-11 {
        fill: #386ba5;
      }

      .cls-12 {
        fill: #d99a84;
      }

      .cls-13 {
        fill: #d99782;
      }

      .cls-14 {
        fill: #aeaba7;
      }

      .cls-15 {
        fill: #da957f;
      }

      .cls-16 {
        fill: #386aa5;
      }

      .cls-17 {
        fill: #f3bba2;
      }

      .cls-18 {
        fill: #df9781;
      }

      .cls-19 {
        fill: #bc7660;
      }

      .cls-20 {
        fill: #f19f51;
      }

      .cls-21 {
        fill: #d9957d;
      }

      .cls-22 {
        fill: #8d8b87;
      }

      .cls-23 {
        fill: #da947e;
      }

      .cls-24 {
        fill: #f0a250;
      }

      .cls-25 {
        fill: #afada8;
      }

      .cls-26 {
        fill: #d99781;
      }

      .cls-27 {
        fill: #de9680;
      }

      .cls-28 {
        fill: #8b8984;
      }

      .cls-29 {
        fill: #8e8d88;
      }

      .cls-30 {
        fill: #d99680;
      }

      .cls-31 {
        fill: #f09f50;
      }

      .cls-32 {
        fill: #d7947c;
      }

      .cls-33 {
        fill: #da9580;
      }

      .cls-34 {
        fill: #d7eff1;
      }

      .cls-35 {
        fill: #f3bba1;
      }
    </style>
  </defs>
  <path class="cls-35" d="M513.4,295.65c1.23,2.57,1.18,6.91.05,9.52l1.06.56c2.04,5.87,4,11.76,5.88,17.67l.32,34.75c2.25-.49,4.38-1.36,6.39-2.59l1.2.47.65,1.06-.56,22.75c12.83-4.57,16.24-20.13,12.72-32.28-1.39-4.79-4.26-8.84-9.7-7.58l-.93-.7c-.36-.13-.91-.33-.91-.62,0-2.06.78-12.52,1.7-13.44,1.14-1.14,4.2-.74,5.78-.42,1.9.04,2.98.66,3.25,1.84,5.68,2.7,9.99,7.25,12.32,13.38,2.21,5.81,3.26,11.9,2.88,18.12-.68,11.27-3.81,22.04-10.76,30.9-4.89,6.22-10.99,9.01-18.13,11.73-.9,2.82-.66,5.44-.91,8.37-1.9,22.12-10.48,43-25.07,59.68-1.04,1.19-2.49,2.41-2.49,3.83-.13.48-.28.95-.5,1.39s-.42.85-.73,1.15c-19.06,18.55-45.75,31.14-72.59,30.98-27.79-.16-54.3-12.63-73.53-32.12l-1.03-2.37c-.63-1.14-1.05-2.04-2.05-3.23-9.72-11.57-16.44-22.36-20.77-37.14-2.4-8.19-2.99-16.5-3.91-24.91-.22-2.04-.15-4.02-.96-5.84-4.82-1.93-9.55-3.67-13.52-7.08-8.41-7.24-13.5-16.9-15.37-27.81-1.22-7.1-1.24-8.66-.24-15.87.84-6.04,3.33-11.63,6.47-16.78,1.97-3.23,5.29-4.51,8.27-6.3-.12-.37-.14-.93.11-1,2.18-.56,8.03-1.57,9.65-.35.61.46,1.6,11.76,1.63,13.44l-.89.78-.97.55c-5.16-2.06-8.92,3.55-9.97,8.04-2.88,12.21.09,27.21,13.16,31.78l-.78-23.82.94-.61.98-.43c1.78,1.61,4.54,3.21,6.65,2.97l.22-34.72c1.86-5.87,3.8-11.74,5.81-17.6l1.16-1.12-.84-1.21-.05-6.69.94-1.16,1.37-.77c55.58,5.03,112.96,6.02,168.71.27,2.34.09,4.67.02,6.97-.21l.94.75Z"/>
  <path class="cls-9" d="M468.98,138.24l.87.71c-3.96,27.34-7.67,54.63-11.12,81.85,1.4,0,2.22-1.39,2.44-4.16,5.61-24.37,11.61-48.52,17.97-72.45l1.17-.19c3.7,1.09,6.85,3.41,10.17,5.63,2.13,1.43,4.3,2.62,6.35,4.26,4.09,3.28,7.88,6.7,11.79,10.24,9.06,8.2,16.94,19.33,23.76,29.57,3.45,5.17,6.05,10.33,8.61,15.96,3.63,7.99,5.74,16.02,6.38,24.81.92,12.72.99,25.16-.06,38.17,4.8.89,12.56-1.1,17.86.08,1.91.43.91,3.48.11,4.55-2.04,2.73-4.58,4.47-7.52,6.07-4.51,2.45-8.97,4.92-14.1,5.96-.93.19-1.73.25-2.02,1.05.07.37.08.95-.14,1-8.56,1.89-18.2,3.63-26.91,4.97l-1.18-.67c-2.81.86-6.02.1-9.05.53-4.22.61-8.2.74-12.36,1.07l-15,1.17-6.69.43-6.74.45-17.06.35c-14.76.31-29.36.37-44.11-.01l-14.21-.37-10.56-.48-8.14-.41-22.05-1.93c-4.09-.36-8.33-.22-12.02-.85l-.15.62c-9.51-1.19-19.06-2.79-28.65-4.81l-.48-1.07c-.24-.63-.93-1.03-1.83-1.17-5.1-.81-9.41-2.85-13.77-5.37-3.49-2.02-6.77-4.45-7.7-8.54-.17-.74-.25-1.62.2-2.19.31-.38,1.19-.64,1.99-.62l14.42.47c.79.03,1.59-.12,1.87-.69.16-.34.51-.99.47-1.63-.56-7.2-.22-14.1-.32-21.28-.12-8.92.06-17.72,1.95-26.48.82-3.83,2.29-7.29,3.48-10.95,2.15-6.63,5.16-12.57,8.72-18.54l3.24-5.43c5.68-9.51,11.56-16.12,20.01-23.29l4.69-3.98c7.71-6.54,15.71-12.38,24.54-16.81,1.16-.49,1.93.2,2.32,2.08,6.02,25.04,12.32,49.94,18.9,74.7l1.01.11-9.73-70.02c-.44-3.67-.81-7.33-1.05-11.02-.02-.3.56-.53.97-.65,1.09-3.56.82-8.65,3.86-11.49,10.12-7.8,34.99-8.35,47.55-7.61,10.78.63,20.99,3.52,30.96,7.22,4.18,1.55,4.7,7.18,6.1,11.04Z"/>
  <path class="cls-2" d="M534.7,522.61l1.22.83c.08,69.99.09,140.04.03,210.16l-.96.6-11.55.03-91.96-.09c-.38,0-.95-.1-.96-.33-.3-15.86-.1-32.17.61-48.02,2.41-7.41,5.36-14.54,8.84-21.4l70.97-147.42,1.12-.11c2.25-.91,4.37-1.59,6.9-.81,5.54,1.72,11.41,2.99,15.74,6.58Z"/>
  <path class="cls-1" d="M335.98,516.5l1.06-.02,78.61,162.92c1.65,4.21,2.07,8.69,2.17,13.17.28,13.09.5,28-.37,40.96l-.97.69c-2.93.3-5.89-.04-9.1-.03l-36.92.05-49.41.2c-2.63.01-4.85.02-7.2,0l-.96-.46c.13-70.34,0-140.6-.39-210.8.31-.43.71-.76,1.2-1.01,3.08-2.44,7.19-3.03,10.9-4.73s7.58-2.5,11.39-.94Z"/>
  <path class="cls-11" d="M498.68,510.69c.6.15,14,5.03,13.39,6.15l-39.27,81.5-7.88,16.45-24.07,49.99-4.86,10.56c-2.32,5.03-4.37,9.57-4.39,15.26l-.12,43.54-12.53.11c-.93,0-1.83.8-2.47-.02l.28-15.1c.12-6.61.09-13.06.1-19.69,0-8.02.44-14.66-3.13-22.07l-12.95-26.86-25.31-52.29-20.9-43.37-5.02-10.37-13.56-27.97c4.5-2.2,9.06-4.23,13.78-5.91l1.55,1.51c24.94,60.83,122.12,60.58,146.06-.42l1.31-.99Z"/>
  <path class="cls-16" d="M247.03,562.36l.77.81c-.29,56.73-.36,113.52-.22,170.4l-.96.6-20.65.09-41.44-.24c-2.97-.02-5.67-.37-8.44-1.26-8.69-2.79-14.84-11.29-12.71-20.71l9.25-40.89c2.82-12.47,5.34-24.57,9.33-36.69l3.65-11.09c2-6.09,4.16-11.84,6.84-17.65,2.46-5.35,5.71-9.61,9.96-13.69,5.24-5.03,10.89-9.24,16.99-13.24l14.2-9.3c2.31-1.51,11.46-7.45,13.44-7.13Z"/>
  <path class="cls-11" d="M602.19,734.15l-.96-.34s-.1-57.36-.31-172.09l.96-.71,8.39,4.89,14,9.49c6.55,4.44,12.49,8.95,18.45,14.19,7.61,6.68,12.93,14.91,16.53,24.36,2.41,6.3,4.88,12.11,6.83,18.69,4.97,16.73,8.81,33.43,12.66,50.45l3.13,13.82,2.9,11.91c1.07,4.41,1.26,9.1-.48,13.37-3.3,8.1-11.09,11.85-19.76,11.87l-49.3.15-13.03-.06Z"/>
  <path class="cls-34" d="M313.7,522.17c-.36.89-.32,1.69.05,3.01l.1,209.26-36.1-.24c-1.01-.05-1.33-.52-1.24-1.48.36-63.08.24-125.48-.15-188.51l-.51-4.74,1-.58c2.64-2.21,6.04-3.55,9.4-5.06l17.17-7.66c3.5-1.56,6.81-3.03,10.26-4Z"/>
  <path class="cls-34" d="M571.94,538.1c.65,1.03.71,2.33.19,3.92-.17,63.74-.21,127.58-.12,191.52l-.96.6-36.06.06.05-209.11c0-1.22-.04-1.78-.34-2.48.88.73,2.29.23,3.44.69l23.95,9.61c3.66,1.47,6.58,3.68,9.85,5.19Z"/>
  <path class="cls-5" d="M601.88,561.02l.05,20.99c0,1.7-.01,3.13,0,4.86l.1,19.16c.01,2.94.07,5.3.07,8.31l.1,119.79-28.22.11c-1.11,0-2.15.79-2.91-.12l-.03-185.5c0-3.93-.15-7.2.91-10.53l27.13,12.48c1.45.67,2.12,2.08,1.86,3.66-.4,2.47.93,4.63.94,6.78Z"/>
  <path class="cls-8" d="M276.87,538.89c-.22,1.69.45,3.37.46,5.29l.31,43.98-.04,46.88.11,21.42-.03,32.21v25.57c-.02,5.91.28,11.57-.16,17.54-.07.9-.04,1.8.25,2.4-2.43,1.14-5.27.13-8.09.11l-23.04-.14-.02-169.2c0-.98.26-2.06.43-2.61,2.01-4.77-1.33-10.27,3.6-12.35l10.14-4.27,14.38-6.75c.61-.29,1.25-.12,1.71-.1Z"/>
  <path class="cls-17" d="M498.12,510.55l.56.14c-3.11,10.9-12.51,23.12-21.63,30.14-4.72,3.63-9.27,6.74-14.66,9.3-26.31,12.48-57.22,11.22-82.29-3.52-13.97-8.21-25.25-20.87-30.33-36.02.63-.83.81-2.1.7-3.38-.5-5.68-.15-11.11-.08-16.78.04-3.72-.35-7.17-.08-10.62.51-1.22,1.67-1.21,3.49.03,34.18,41.23,93.06,53.26,141.58,30.96l2.75-.26Z"/>
  <path class="cls-27" d="M498.13,472.68v37.88c-25.58,12.75-58.94,15.83-86.72,7.83-21.99-6.33-41.28-18.85-56.57-35.75-.89-2.08-2.61-2.79-4.54-2.82.21-2.68-.39-5.44-.54-8.11.64,1.16,2.27,1.93,3.33,3.01,15.59,15.91,35.8,26.02,57.81,29.42,10.35,1.6,20.11,1.48,30.42-.5,21.98-4.23,41.21-15.38,56.81-30.96Z"/>
  <path class="cls-25" d="M335.36,304.67c-.88,6.59-6.07,15.25-6.09,19.78l-.15,35.15c-2.69-.53-5.4-1.36-7.29-2.94l-1.29-1.08-1-.53c-.79-4.8-1.53-9.63-2.23-14.49l.85-.93-1.25-13.58c-1.89-.37-3.91-.28-5.81.07l-3.45.64-2.69-15.02c-.65-3.66-.26-7.3-.27-10.81.14-.91.44-1.69.9-2.35l20.5,4.51c3.25.62,6.34,1.15,9.26,1.59Z"/>
  <path class="cls-14" d="M540.28,326.66c-1.98-.94-7.24-1.51-8.08-1.02-.42.25-.71,1.02-.78,1.78l-.97,11.87c.23.01.45.05.63.15.72.41-1.41,14.52-1.75,16.28l-1.05.32c-2.66,1.31-5.35,2.97-8.54,3.38l-.25-34.97c-.03-4.6-5.36-13.69-6.05-19.29.16-.38.42-.69.83-.74,9.08-1.19,18.6-3.18,27.39-6.24l1.06.29c.71,11.51-1.5,17.29-2.45,28.19Z"/>
  <path class="cls-20" d="M480.31,144c-.59,1.03-.87,2.24-1.21,3.59l-6.58,25.97-7.16,29.3c-1.48,6.05-2.4,11.92-4.41,17.71-.37,1.07-1.75,1.31-2.46,1.15-.95-.21-.95-1.45-.82-2.44l4.83-34.61,6.47-46.43,9.1,4.16c.89.41,1.69,1.05,2.23,1.61Z"/>
  <path class="cls-31" d="M380.5,139.07c-.16.52.86,10.42,1.15,12.49l6.02,42.33,3.6,26.87c.15,1.13-1.6,1.08-2.16.86-.44-.17-1-.68-1.2-1.48l-5.47-21.92-6.31-24.91-6.52-26.63c-.28-1.15-.75-2.26-1.52-2.81,3.89-1.95,7.71-4.57,12.41-4.8Z"/>
  <path class="cls-28" d="M335.42,295.61c.01,3.05.35,6.04-.06,9.06-.85.62-2.01.79-3.31.54-8.95-1.66-17.55-3.6-26.31-5.84l-1.04,1.55c0-3.55.09-7.26,1.43-10.56l9.97,1.93,19.31,3.32Z"/>
  <path class="cls-22" d="M541.64,290.35c.85,2.69.93,5.36,1.1,8.12-.4.55-1.02.79-1.84,1.05-7.8,2.46-15.57,4.2-23.65,5.59-1.4.24-2.66.55-3.8.05-.39-3.17-.32-6.32-.05-9.52,2.19-.67,4.38-.91,6.91-1.38l21.33-3.92Z"/>
  <path class="cls-6" d="M393.97,322.08c-12.01-2.36-24.26-3.14-35.49,2.32-2.91,1.42-7.81,3.53-9.71-.12-.85-1.63-.35-3.13.71-4.65,10.05-14.31,30.94-15.39,46.2-9.98,3.17,1.12,5.4,3.83,5.27,6.88-.08,1.93-.79,3.4-1.95,4.46-1.36,1.24-3.05,1.49-5.04,1.09Z"/>
  <path class="cls-29" d="M478.46,320.77c-8.1-1.2-15.74-.21-23.49,1.22-2.31.43-4.42-.04-5.9-1.6-1.31-1.38-1.85-3.67-1-5.8,2.62-6.59,13.17-7.37,19.77-7.85,19.32-1.41,36.63,12.11,31.68,17.9-4.1,4.8-9.44-2.14-21.06-3.87Z"/>
  <path class="cls-7" d="M407.22,395.53c-1.84-.86-3.44-3.49-2.03-5.21s4.36-1.61,6.22-.72c3.97,1.9,7.83,3.8,12.32,4.29,4.84.52,9.69-1.7,12.82-5.24,2.74-3.1-.38-13.98-1.38-18.67-1.92-9.02-3.94-17.73-5.22-26.87-.28-1.99-1.05-7.4,2.16-7.09.68.06,1.76.95,2.01,2.01l6.87,29.55c1.29,5.55,2.42,10.82,3.22,16.4.59,4.07-.67,7.65-3.69,10.56-5.01,4.82-12.72,8.36-19.88,6.26-4.71-1.39-8.98-3.21-13.42-5.28Z"/>
  <path class="cls-18" d="M318.17,339.62c.25,2.75,1.43,5.74,1.24,8.73-.18,2.72,1.06,4.86,1.14,7.22l.85,25.85c-15.06-4.07-18.96-22.72-14.46-35.53,1.73-4.92,6.75-9.08,11.23-6.28Z"/>
  <path class="cls-27" d="M528.29,356.05c.29-1.62,1.14-3.35.97-5.23-.18-1.99,1.12-10.46,1.2-11.52,4.12-1.54,8.38.47,10.34,4.82,5.95,13.16,1.86,32.62-13.42,37.36l.51-22.05c.03-1.27-.09-2.42.39-3.38Z"/>
  <path class="cls-15" d="M447.46,486.4c11.43-6.94,10.92-13.88,14.36-12.55,5.03,1.94-4.88,16.16-17.73,20.14-11.81,3.66-24.57,3.7-36.53.59-15.06-3.91-24.67-18.7-19.92-20.68,1.3-.54,2.49-.02,3.22,1.34,8.75,16.25,30.28,18.03,46.48,14.97,3.74-.71,6.92-1.88,10.12-3.82Z"/>
  <path class="cls-19" d="M441.94,429.99c-16.76,3.32-40.49,2.26-55.17-7.09-1.08-.69-.84-2.65-.51-3.44.46-1.09,2.09-1.4,3.28-.92l7.87,3.16c15.3,6.15,44.35,5.55,61.44-4.46,1.01-.59,2.65-1,3.51-.04,1.61,1.8.68,4.29-1.24,5.49-5.92,3.72-12.2,5.91-19.19,7.3Z"/>
  <path class="cls-4" d="M383.9,350.95c-1.72,2.42-4.11,3.63-6.52,3.71s-5.01-1.06-6.61-3.31c-3.67-5.14-3.83-12.46-.2-17.66,1.54-2.2,3.9-3.96,6.6-3.92,2.91.04,5.55,1.92,7.09,4.36,3.18,5.03,3.17,11.86-.36,16.82Z"/>
  <path class="cls-3" d="M477.55,351.46c-1.68,2.15-3.92,3.27-6.09,3.22s-4.52-.97-6.12-2.89c-3.61-4.35-4.15-10.67-1.88-15.88,1.44-3.3,4.49-6.12,8.27-6.15,3-.02,5.62,2.32,7.05,4.9,2.88,5.23,2.52,12.01-1.22,16.79Z"/>
  <path class="cls-21" d="M375.39,416.54c-4.05,7.42.07,15.8-3.73,16.32s-3.06-4.98-3.09-7.7c-.15-14.07,9.82-17.65,17.45-29.95.68-1.09,2.31-1.1,3.16-.61,4.96,2.87-10.97,16.76-13.8,21.94Z"/>
  <path class="cls-23" d="M478.48,415.88c1.84,4.31,3.13,17.04-.78,17.02-5.27-.02,1.53-10.86-6.92-20.2l-4.63-5.12c-1.63-1.8-10.26-11.21-6.55-13.01.94-.45,2.58-.45,3.25.63,5.78,9.28,12.38,13.01,15.64,20.67Z"/>
  <path class="cls-33" d="M396.59,356.56c3.84,3.21-14.28,18.9-32.57,14.11-1.33-.35-1.41-1.8-1.18-2.76.27-1.13,1.48-1.67,2.78-1.5,10.48,1.37,20.48-1.93,27.63-9.58.9-.96,2.43-1.03,3.34-.27Z"/>
  <path class="cls-13" d="M485.43,368.36c.87,5.14-14.31,2.72-17.63,1.69-6.29-1.96-11.84-5.7-16.14-10.54-1.04-1.17-.4-2.73.62-3.43s2.06-.23,3.12.91c6.94,7.48,16.95,10.93,27.1,9.31,1.61-.26,2.71.69,2.94,2.06Z"/>
  <path class="cls-30" d="M439.89,442.75c.8,5.6-21.12,7.78-29.76,2.74-1.06-.62-.53-2.09-.18-2.73,1.97-3.56,11.33,3.69,27.39-2.14,1.38-.5,2.42,1.25,2.55,2.13Z"/>
  <path class="cls-32" d="M504.82,352.37c1.2.6,1.18,2.07,1.01,2.95-.21,1.04-1.52,1.42-2.8.95l-8.31-3.1c-1-.37-1.41-1.32-1.35-2.11.05-.63.84-1.87,1.91-1.65,3.2.65,6.53,1.45,9.55,2.97Z"/>
  <path class="cls-26" d="M345.73,356.06c-1.57.58-2.73.17-3.09-.89-1.24-3.71,5.47-4.24,9.75-5.62,1.04-.34,2.09-.07,2.55.71.53.91.26,2.29-.92,2.72l-8.29,3.08Z"/>
  <path class="cls-12" d="M352.82,343.21c1.4.33,1.91,1.17,1.93,2.09.07,3.76-9.34.59-11.26-.2-1.15-.47-1.33-1.82-1.16-2.63.61-2.91,6.8-.12,10.48.74Z"/>
  <path class="cls-10" d="M505.09,344.91c-1.89.83-10.45,3.71-11.23,1.25-.2-.62-.41-1.97.57-2.32,3.11-1.11,6.22-1.86,9.46-2.58,1.09-.24,2,.46,2.2,1.24.18.73-.03,1.98-.99,2.41Z"/>
  <path class="cls-24" d="M446.75,267.5c-22.62-.57-44.33-.18-66.72,1.29-18.57,1.22-36.47,4.09-54.62,7.59-1.42.27-2.52-.28-2.84-1.26-.41-1.26-.04-2.53,1.34-3.06,4.93-1.91,9.74-3.06,15.02-4.18,19.59-4.16,39.03-6.52,59.06-7.57,15.87-.83,31.27-1.15,47.13-.44,24.39,1.1,56.09,4.47,79.19,11.82,1.22.39,2.22,1.54,2.08,2.53-.15,1.07-1.49,2.35-2.87,2.08l-14.77-2.87c-20.48-3.98-40.84-4.95-62-5.94Z"/>
</svg>