<?xml version="1.0" encoding="UTF-8"?>
<svg id="Layer_1" xmlns="http://www.w3.org/2000/svg" version="1.1" viewBox="0 0 2834.6 2834.6">
  <!-- Generator: Adobe Illustrator 30.1.0, SVG Export Plug-In . SVG Version: 2.1.1 Build 136)  -->
  <defs>
    <style>
      .st0 {
        fill: #3268a5;
      }

      .st1 {
        fill: #9a6c49;
      }

      .st2 {
        fill: #aaa;
      }

      .st3 {
        fill: #565656;
      }

      .st4 {
        fill: #d3d3d8;
      }

      .st5 {
        fill: #72513b;
      }
    </style>
  </defs>
  <rect class="st4" x="-2.3" y="-.9" width="2836.3" height="1626.7"/>
  <rect class="st1" y="1663.9" width="2833" height="1178.5"/>
  <rect class="st5" y="1625.8" width="2833" height="65.7"/>
  <g>
    <path class="st0" d="M1320.7,1272c-37.1,0-67.2,30.1-67.2,67.2v32.9h31.6v-25.6c0-24.4,19.7-44.1,44.1-44.1h24.5v-30.4h-33Z"/>
    <rect class="st2" x="1353.5" y="1267.5" width="10.9" height="39.5" rx="5.4" ry="5.4"/>
    <rect class="st2" x="1249.5" y="1372.2" width="39.5" height="10.9" rx="5.4" ry="5.4"/>
  </g>
  <g>
    <rect class="st0" x="1253.5" y="1399" width="31.6" height="320.3"/>
    <rect class="st2" x="1249.6" y="1388.2" width="39.5" height="10.9" rx="5.4" ry="5.4"/>
    <rect class="st2" x="1249.6" y="1719.3" width="39.5" height="10.9" rx="5.4" ry="5.4"/>
  </g>
  <g>
    <path class="st0" d="M1218,1846.2c37.1,0,67.2-30.1,67.2-67.2v-32.9h-31.6v25.6c0,24.4-19.7,44.1-44.1,44.1h-24.5v30.4h33Z"/>
    <rect class="st2" x="1174.2" y="1811.2" width="10.9" height="39.5" rx="5.4" ry="5.4"/>
    <rect class="st2" x="1249.7" y="1735.2" width="39.5" height="10.9" rx="5.4" ry="5.4"/>
  </g>
  <g>
    <rect class="st0" x="1513.2" y="1271.3" width="62.8" height="31.6"/>
    <rect class="st2" x="1575.8" y="1267.5" width="10.9" height="39.5" rx="5.4" ry="5.4"/>
    <rect class="st2" x="1502.2" y="1267.3" width="10.9" height="39.5" rx="5.4" ry="5.4"/>
  </g>
  <g>
    <rect class="st0" x="1769" y="1271.5" width="62.8" height="31.6"/>
    <rect class="st2" x="1831.7" y="1267.6" width="10.9" height="39.5" rx="5.4" ry="5.4"/>
    <rect class="st2" x="1758" y="1267.6" width="10.9" height="39.5" rx="5.4" ry="5.4"/>
  </g>
  <g>
    <path class="st0" d="M1994.7,1846c-37.1,0-67.2-30.1-67.2-67.2v-32.9h31.6v25.6c0,24.4,19.7,44.1,44.1,44.1h24.5v30.4h-33Z"/>
    <rect class="st2" x="2027.5" y="1811" width="10.9" height="39.5" rx="5.4" ry="5.4"/>
    <rect class="st2" x="1923.5" y="1734.9" width="39.5" height="10.9" rx="5.4" ry="5.4"/>
  </g>
  <g>
    <rect class="st0" x="2138.9" y="1814.8" width="62.8" height="31.6"/>
    <rect class="st2" x="2201.5" y="1811" width="10.9" height="39.5" rx="5.4" ry="5.4"/>
    <rect class="st2" x="2128" y="1810.8" width="10.9" height="39.5" rx="5.4" ry="5.4"/>
  </g>
  <g>
    <g>
      <path class="st3" d="M1891.6,1272.1c37.1,0,67.2,30.1,67.2,67.2v32.9h-31.6v-25.6c0-24.4-19.7-44.1-44.1-44.1h-24.5v-30.4h33Z"/>
      <rect class="st2" x="1847.9" y="1267.6" width="10.9" height="39.5" rx="5.4" ry="5.4"/>
      <rect class="st2" x="1923.3" y="1372.2" width="39.5" height="10.9" rx="5.4" ry="5.4"/>
      <rect class="st2" x="1923.4" y="1351.8" width="39.5" height="10.9" rx="5.4" ry="5.4"/>
    </g>
    <rect class="st3" x="1916.9" y="1261.9" width="52.2" height="90" rx="7.5" ry="7.5"/>
    <path class="st3" d="M1976.5,1333.6h-23.3v-51.9h23.3c4.1,0,7.5,3.4,7.5,7.5v36.9c0,4.1-3.4,7.5-7.5,7.5Z"/>
    <rect class="st3" x="1927.4" y="1362.7" width="31.5" height="9.5"/>
    <rect class="st2" x="1931.6" y="1362.7" width="4.9" height="10"/>
    <rect class="st2" x="1940.6" y="1362.4" width="4.9" height="10"/>
    <rect class="st2" x="1949.6" y="1362.4" width="4.9" height="10"/>
    <g>
      <g>
        <rect class="st2" x="1847.8" y="1267.7" width="10.9" height="39.5" rx="5.4" ry="5.4"/>
        <rect class="st2" x="1868.2" y="1267.7" width="10.9" height="39.5" rx="5.4" ry="5.4"/>
      </g>
      <rect class="st3" x="1858.8" y="1271.7" width="9.5" height="31.5"/>
      <rect class="st2" x="1858.3" y="1275.9" width="10.9" height="4.9"/>
      <rect class="st2" x="1858.4" y="1284.9" width="10" height="4.9"/>
      <rect class="st2" x="1858.6" y="1294" width="10" height="4.9"/>
    </g>
    <path class="st2" d="M1963.2,1255.8v6.1h-39.6v-6.1c0-4.1,3.4-7.5,7.5-7.5h24.7c4.1,0,7.5,3.4,7.5,7.5h0Z"/>
    <rect class="st2" x="1936.8" y="1227.7" width="13" height="29.4"/>
    <path class="st2" d="M1913.2,1215.6h60.1c3.9,0,7,3.1,7,7h0c0,3.9-3.1,7-7,7h-60.1c-3.9,0-7-3.1-7-7h0c0-3.9,3.1-7,7-7Z"/>
    <path class="st3" d="M1949.8,1215.6h23.4c3.9,0,7,3.1,7,7h0c0,3.9-3.1,7-7,7h-23.4v-14h0Z"/>
  </g>
  <g>
    <rect class="st2" x="2044.3" y="1810.9" width="10.9" height="39.5" rx="5.4" ry="5.4"/>
    <rect class="st2" x="2111.3" y="1811.4" width="10.9" height="39.5" rx="5.4" ry="5.4"/>
    <rect class="st2" x="2064.7" y="1811.1" width="10.9" height="39.5" rx="5.4" ry="5.4"/>
    <rect class="st3" x="2055.2" y="1815" width="9.5" height="31.5"/>
    <rect class="st2" x="2054.8" y="1819.2" width="10.9" height="4.9"/>
    <rect class="st2" x="2055" y="1828.2" width="10" height="4.9"/>
    <rect class="st2" x="2055.1" y="1837.3" width="10" height="4.9"/>
    <rect class="st3" x="2075.6" y="1807.4" width="35.5" height="47.5" rx="7.5" ry="7.5"/>
    <rect class="st3" x="2080.7" y="1799.8" width="25.5" height="61.5" rx="7.5" ry="7.5"/>
  </g>
  <g>
    <rect class="st2" x="2285.3" y="1810.8" width="10.9" height="39.5" rx="5.4" ry="5.4"/>
    <rect class="st2" x="2218.4" y="1811.3" width="10.9" height="39.5" rx="5.4" ry="5.4"/>
    <rect class="st2" x="2264.9" y="1810.9" width="10.9" height="39.5" rx="5.4" ry="5.4"/>
    <rect class="st3" x="2275.8" y="1814.8" width="9.5" height="31.5"/>
    <rect class="st2" x="2274.8" y="1819.1" width="10.9" height="4.9"/>
    <rect class="st2" x="2275.5" y="1828.1" width="10" height="4.9"/>
    <rect class="st2" x="2275.4" y="1837.1" width="10" height="4.9"/>
    <rect class="st3" x="2229.4" y="1807.3" width="35.5" height="47.5" rx="7.5" ry="7.5"/>
    <rect class="st3" x="2234.4" y="1799.7" width="25.5" height="61.5" rx="7.5" ry="7.5"/>
  </g>
  <g>
    <path class="st2" d="M2331.9,1772.4h0c4.9,0,8.8,3.9,8.8,8.8v18.3c0,4.9-3.9,8.8-8.8,8.8h0c-4.9,0-8.8-3.9-8.8-8.8v-18.3c0-4.9,3.9-8.8,8.8-8.8Z"/>
    <path class="st2" d="M2359.9,1771h50.8c3.9,0,7,3.1,7,7h0c0,3.9-3.1,7-7,7h-50.8c-3.9,0-7-3.1-7-7h0c0-3.9,3.1-7,7-7Z"/>
    <path class="st2" d="M2329.2,1780.6l27.2-10.3c3.6-1.4,7.7.4,9,4.1h0c1.4,3.6-.4,7.7-4.1,9l-27.2,10.3c-3.6,1.4-7.7-.4-9-4.1h0c-1.4-3.6.4-7.7,4.1-9Z"/>
    <rect class="st2" x="2302.5" y="1811" width="10.9" height="39.5" rx="5.4" ry="5.4"/>
    <rect class="st2" x="2349.6" y="1810.7" width="10.9" height="39.5" rx="5.4" ry="5.4"/>
    <rect class="st3" x="2313.6" y="1806.9" width="35.5" height="47.5" rx="7.5" ry="7.5"/>
    <rect class="st3" x="2313.6" y="1799.5" width="35.9" height="61.5" rx="7.5" ry="7.5"/>
  </g>
  <g>
    <rect class="st0" x="2378.2" y="1814.2" width="62.8" height="31.6"/>
    <rect class="st2" x="2440.8" y="1810.3" width="10.9" height="39.5" rx="5.4" ry="5.4"/>
    <rect class="st2" x="2367.2" y="1810.3" width="10.9" height="39.5" rx="5.4" ry="5.4"/>
  </g>
  <g>
    <rect class="st0" x="2478.7" y="1750.6" width="111.4" height="159.8" rx="20" ry="20"/>
    <path class="st2" d="M2595.1,1903.3h0c0,4-3.3,7.3-7.3,7.3h-107.4c-4,0-7.3-3.3-7.3-7.3h0c0-4,3.3-7.3,7.3-7.3h107.4c4,0,7.3,3.3,7.3,7.3Z"/>
    <path class="st2" d="M2595.5,1757h0c0,4-3.3,7.3-7.3,7.3h-107.4c-4,0-7.3-3.3-7.3-7.3h0c0-4,3.3-7.3,7.3-7.3h107.4c4,0,7.3,3.3,7.3,7.3Z"/>
    <rect class="st2" x="2478.7" y="1802.9" width="111.4" height="55.1"/>
    <g>
      <rect class="st2" x="2458.3" y="1810.5" width="10.9" height="39.5" rx="5.4" ry="5.4"/>
      <rect class="st2" x="2478.7" y="1810.5" width="10.9" height="39.5" rx="5.4" ry="5.4"/>
    </g>
    <rect class="st3" x="2469.2" y="1814.5" width="9.5" height="31.5"/>
    <rect class="st2" x="2468.8" y="1818.8" width="10.9" height="4.9"/>
    <rect class="st2" x="2468.9" y="1827.7" width="10" height="4.9"/>
    <rect class="st2" x="2469" y="1836.8" width="10" height="4.9"/>
  </g>
  <g>
    <rect class="st0" y="1815.6" width="1158" height="31.6"/>
    <rect class="st2" x="1157.8" y="1811.7" width="10.9" height="39.5" rx="5.4" ry="5.4"/>
  </g>
  <g>
    <rect class="st0" x="2607.7" y="1813.8" width="225.3" height="31.6" transform="translate(5440.7 3659.2) rotate(180)"/>
    <rect class="st2" x="2597" y="1809.9" width="10.9" height="39.5" rx="5.4" ry="5.4" transform="translate(5204.9 3659.3) rotate(180)"/>
  </g>
</svg>