<?xml version="1.0" encoding="UTF-8"?>
<svg id="Layer_1" xmlns="http://www.w3.org/2000/svg" version="1.1" viewBox="0 0 2834.6 2834.6">
  <!-- Generator: Adobe Illustrator 30.1.0, SVG Export Plug-In . SVG Version: 2.1.1 Build 136)  -->
  <defs>
    <style>
      .st0 {
        fill: #3268a5;
      }

      .st1 {
        fill: #aaa;
      }

      .st2 {
        fill: #565656;
      }

      .st3 {
        fill: #f3f3f3;
      }
    </style>
  </defs>
  <g>
    <path class="st0" d="M1469.3,824.6c-37.1,0-67.2,30.1-67.2,67.2v32.9h31.6v-25.6c0-24.4,19.7-44.1,44.1-44.1h24.5v-30.4h-32.9Z"/>
    <rect class="st1" x="1502.1" y="820.1" width="10.9" height="39.5" rx="5.4" ry="5.4"/>
    <rect class="st1" x="1412.4" y="910.4" width="10.9" height="39.5" rx="5.4" ry="5.4" transform="translate(2348 -487.6) rotate(90)"/>
  </g>
  <g>
    <rect class="st0" x="1402.1" y="951.6" width="31.6" height="320.3"/>
    <rect class="st1" x="1412.5" y="926.5" width="10.9" height="39.5" rx="5.4" ry="5.4" transform="translate(2364.2 -471.7) rotate(90)"/>
    <rect class="st1" x="1412.4" y="1257.6" width="10.9" height="39.5" rx="5.4" ry="5.4" transform="translate(2695.3 -140.5) rotate(90)"/>
  </g>
  <g>
    <path class="st0" d="M1366.6,1398.8c37.1,0,67.2-30.1,67.2-67.2v-32.9h-31.6v25.6c0,24.4-19.7,44.1-44.1,44.1h-24.5v30.4h32.9Z"/>
    <rect class="st1" x="1322.9" y="1363.8" width="10.9" height="39.5" rx="5.4" ry="5.4" transform="translate(2656.6 2767.1) rotate(180)"/>
    <rect class="st1" x="1412.6" y="1273.5" width="10.9" height="39.5" rx="5.4" ry="5.4" transform="translate(124.8 2711.3) rotate(-90)"/>
  </g>
  <g>
    <rect class="st0" x="1661.8" y="823.9" width="62.8" height="31.6"/>
    <rect class="st1" x="1724.4" y="820" width="10.9" height="39.5" rx="5.4" ry="5.4" transform="translate(3459.7 1679.6) rotate(180)"/>
    <rect class="st1" x="1650.9" y="820" width="10.9" height="39.5" rx="5.4" ry="5.4" transform="translate(3312.6 1679.4) rotate(-180)"/>
  </g>
  <g>
    <rect class="st0" x="1917.6" y="824.1" width="62.8" height="31.6"/>
    <rect class="st1" x="1980.2" y="820.3" width="10.9" height="39.5" rx="5.4" ry="5.4" transform="translate(3971.4 1680) rotate(180)"/>
    <rect class="st1" x="1906.7" y="820.2" width="10.9" height="39.5" rx="5.4" ry="5.4" transform="translate(3824.2 1679.9) rotate(180)"/>
  </g>
  <g>
    <rect class="st0" x="2076.2" y="951.4" width="31.6" height="320.3"/>
    <rect class="st1" x="2086.5" y="926.3" width="10.9" height="39.5" rx="5.4" ry="5.4" transform="translate(3038 -1145.8) rotate(90)"/>
    <rect class="st1" x="2086.5" y="1257.4" width="10.9" height="39.5" rx="5.4" ry="5.4" transform="translate(3369.1 -814.8) rotate(90)"/>
  </g>
  <g>
    <path class="st0" d="M2143.3,1398.6c-37.1,0-67.2-30.1-67.2-67.2v-32.9h31.6v25.6c0,24.4,19.7,44.1,44.1,44.1h24.5v30.4h-32.9Z"/>
    <rect class="st1" x="2176.1" y="1363.6" width="10.9" height="39.5" rx="5.4" ry="5.4"/>
    <rect class="st1" x="2086.4" y="1273.3" width="10.9" height="39.5" rx="5.4" ry="5.4" transform="translate(798.8 3384.8) rotate(-90)"/>
  </g>
  <g>
    <rect class="st0" x="2287.5" y="1367.4" width="62.8" height="31.6"/>
    <rect class="st1" x="2350.1" y="1363.5" width="10.9" height="39.5" rx="5.4" ry="5.4" transform="translate(4711.1 2766.6) rotate(-180)"/>
    <rect class="st1" x="2276.5" y="1363.5" width="10.9" height="39.5" rx="5.4" ry="5.4" transform="translate(4564 2766.4) rotate(-180)"/>
  </g>
  <g>
    <rect class="st0" x="1741.9" y="784.4" width="159.8" height="111.4" rx="20" ry="20"/>
    <rect class="st1" x="1887.3" y="779.3" width="14.6" height="122" rx="7.3" ry="7.3"/>
    <rect class="st1" x="1741.1" y="778.9" width="14.6" height="122" rx="7.3" ry="7.3"/>
    <rect class="st1" x="1846.6" y="784.3" width="14.6" height="111.4"/>
    <path class="st1" d="M1777.2,778.9h46.6c4.1,0,7.5,3.4,7.5,7.5v31.2h-61.6v-31.2c0-4.1,3.4-7.5,7.5-7.5Z"/>
    <rect class="st2" x="1782.9" y="779" width="35.2" height="25.6"/>
  </g>
  <g>
    <g>
      <path class="st2" d="M2040.2,824.7c37.1,0,67.2,30.1,67.2,67.2v32.9h-31.6v-25.6c0-24.4-19.7-44.1-44.1-44.1h-24.5v-30.4h32.9Z"/>
      <rect class="st1" x="1996.5" y="820.2" width="10.9" height="39.5" rx="5.4" ry="5.4" transform="translate(4003.9 1679.9) rotate(180)"/>
      <rect class="st1" x="2086.2" y="910.5" width="10.9" height="39.5" rx="5.4" ry="5.4" transform="translate(3021.9 -1161.4) rotate(90)"/>
      <rect class="st1" x="2086.4" y="890.1" width="10.9" height="39.5" rx="5.4" ry="5.4" transform="translate(3001.6 -1182) rotate(90)"/>
    </g>
    <rect class="st2" x="2065.5" y="814.5" width="52.2" height="90" rx="7.5" ry="7.5"/>
    <path class="st2" d="M2109.4,834.4h23.3v51.9h-23.3c-4.1,0-7.5-3.4-7.5-7.5v-36.9c0-4.1,3.4-7.5,7.5-7.5Z" transform="translate(4234.5 1720.6) rotate(180)"/>
    <rect class="st2" x="2076" y="915.3" width="31.5" height="9.5"/>
    <rect class="st1" x="2080.2" y="915.3" width="4.9" height="10"/>
    <rect class="st1" x="2089.2" y="915" width="4.9" height="10"/>
    <rect class="st1" x="2098.2" y="915" width="4.9" height="10"/>
    <g>
      <g>
        <rect class="st1" x="1996.4" y="820.2" width="10.9" height="39.5" rx="5.4" ry="5.4" transform="translate(4003.7 1680) rotate(180)"/>
        <rect class="st1" x="2016.9" y="820.4" width="10.9" height="39.5" rx="5.4" ry="5.4" transform="translate(4044.6 1680.2) rotate(-180)"/>
      </g>
      <rect class="st2" x="1996.4" y="835.2" width="31.5" height="9.5" transform="translate(2852.1 -1172.1) rotate(90)"/>
      <rect class="st1" x="2009.9" y="825.5" width="4.9" height="10.9" transform="translate(2843.3 -1181.4) rotate(90)"/>
      <rect class="st1" x="2009.7" y="835" width="4.9" height="10" transform="translate(2852 -1172.2) rotate(90)"/>
      <rect class="st1" x="2009.8" y="844" width="4.9" height="10" transform="translate(2861.2 -1163.2) rotate(90)"/>
    </g>
    <path class="st1" d="M2092.7,787.8h6.1v39.6h-6.1c-4.1,0-7.5-3.4-7.5-7.5v-24.7c0-4.1,3.4-7.5,7.5-7.5Z" transform="translate(2899.6 -1284.3) rotate(90)"/>
    <rect class="st1" x="2085.4" y="780.3" width="13" height="29.4"/>
    <rect class="st1" x="2054.8" y="768.2" width="74.1" height="14" rx="7" ry="7"/>
    <path class="st2" d="M2098.4,768.2h23.4c3.9,0,7,3.1,7,7h0c0,3.9-3.1,7-7,7h-23.4v-14h0Z"/>
  </g>
  <g>
    <rect class="st1" x="2192.9" y="1363.6" width="10.9" height="39.5" rx="5.4" ry="5.4" transform="translate(4396.7 2766.6) rotate(-180)"/>
    <rect class="st1" x="2259.8" y="1364" width="10.9" height="39.5" rx="5.4" ry="5.4" transform="translate(4530.6 2767.5) rotate(-180)"/>
    <rect class="st1" x="2213.4" y="1363.7" width="10.9" height="39.5" rx="5.4" ry="5.4" transform="translate(4437.6 2766.9) rotate(-180)"/>
    <rect class="st2" x="2192.9" y="1378.6" width="31.5" height="9.5" transform="translate(3591.9 -825.3) rotate(90)"/>
    <rect class="st1" x="2206.4" y="1368.8" width="4.9" height="10.9" transform="translate(3583.1 -834.6) rotate(90)"/>
    <rect class="st1" x="2206.2" y="1378.3" width="4.9" height="10" transform="translate(3591.9 -825.4) rotate(90)"/>
    <rect class="st1" x="2206.3" y="1387.3" width="4.9" height="10" transform="translate(3601 -816.4) rotate(90)"/>
    <rect class="st2" x="2224.2" y="1360" width="35.5" height="47.5" rx="7.5" ry="7.5"/>
    <rect class="st2" x="2229.3" y="1352.4" width="25.5" height="61.5" rx="7.5" ry="7.5"/>
  </g>
  <g>
    <rect class="st1" x="2433.9" y="1363.4" width="10.9" height="39.5" rx="5.4" ry="5.4"/>
    <rect class="st1" x="2367" y="1363.9" width="10.9" height="39.5" rx="5.4" ry="5.4"/>
    <rect class="st1" x="2413.5" y="1363.5" width="10.9" height="39.5" rx="5.4" ry="5.4"/>
    <rect class="st2" x="2413.4" y="1378.4" width="31.5" height="9.5" transform="translate(3812.3 -1046) rotate(90)"/>
    <rect class="st1" x="2426.4" y="1368.7" width="4.9" height="10.9" transform="translate(3803 -1054.7) rotate(90)"/>
    <rect class="st1" x="2426.7" y="1378.1" width="4.9" height="10" transform="translate(3812.2 -1046) rotate(90)"/>
    <rect class="st1" x="2426.6" y="1387.2" width="4.9" height="10" transform="translate(3821.2 -1036.9) rotate(90)"/>
    <rect class="st2" x="2378" y="1359.8" width="35.5" height="47.5" rx="7.5" ry="7.5" transform="translate(4791.5 2767.2) rotate(180)"/>
    <rect class="st2" x="2382.9" y="1352.3" width="25.5" height="61.5" rx="7.5" ry="7.5" transform="translate(4791.4 2766.1) rotate(180)"/>
  </g>
  <g>
    <rect class="st1" x="2471.7" y="1325" width="17.6" height="35.9" rx="8.8" ry="8.8"/>
    <rect class="st1" x="2501.5" y="1323.6" width="64.8" height="14" rx="7" ry="7"/>
    <rect class="st1" x="2472.1" y="1329.2" width="43.1" height="14" rx="7" ry="7" transform="translate(-311.8 971) rotate(-20.8)"/>
    <rect class="st1" x="2451.1" y="1363.6" width="10.9" height="39.5" rx="5.4" ry="5.4"/>
    <rect class="st1" x="2498.2" y="1363.3" width="10.9" height="39.5" rx="5.4" ry="5.4"/>
    <rect class="st2" x="2462.1" y="1359.6" width="35.5" height="47.5" rx="7.5" ry="7.5" transform="translate(4959.8 2766.6) rotate(180)"/>
    <rect class="st2" x="2462.2" y="1352" width="35.9" height="61.5" rx="7.5" ry="7.5" transform="translate(4960.3 2765.6) rotate(180)"/>
  </g>
  <g>
    <rect class="st0" x="2526.8" y="1366.8" width="62.8" height="31.6"/>
    <rect class="st1" x="2589.4" y="1363" width="10.9" height="39.5" rx="5.4" ry="5.4" transform="translate(5189.7 2765.4) rotate(180)"/>
    <rect class="st1" x="2515.9" y="1362.9" width="10.9" height="39.5" rx="5.4" ry="5.4" transform="translate(5042.6 2765.3) rotate(180)"/>
  </g>
  <g>
    <rect class="st0" x="2603.1" y="1327.4" width="159.8" height="111.4" rx="20" ry="20" transform="translate(4066.1 -1299.9) rotate(90)"/>
    <rect class="st1" x="2675.4" y="1394.9" width="14.6" height="122" rx="7.3" ry="7.3" transform="translate(4138.6 -1226.8) rotate(90)"/>
    <rect class="st1" x="2675.8" y="1248.7" width="14.6" height="122" rx="7.3" ry="7.3" transform="translate(3992.8 -1373.5) rotate(90)"/>
    <rect class="st1" x="2655.4" y="1327.4" width="55.1" height="111.4" transform="translate(4066.1 -1299.9) rotate(90)"/>
    <g>
      <rect class="st1" x="2606.8" y="1363" width="10.9" height="39.5" rx="5.4" ry="5.4" transform="translate(5224.6 2765.6) rotate(-180)"/>
      <rect class="st1" x="2627.3" y="1363.2" width="10.9" height="39.5" rx="5.4" ry="5.4" transform="translate(5265.5 2765.8) rotate(180)"/>
    </g>
    <rect class="st2" x="2606.8" y="1378" width="31.5" height="9.5" transform="translate(4005.3 -1239.7) rotate(90)"/>
    <rect class="st1" x="2620.4" y="1368.3" width="4.9" height="10.9" transform="translate(3996.6 -1249) rotate(90)"/>
    <rect class="st1" x="2620.1" y="1377.8" width="4.9" height="10" transform="translate(4005.3 -1239.8) rotate(90)"/>
    <rect class="st1" x="2620.2" y="1386.8" width="4.9" height="10" transform="translate(4014.4 -1230.8) rotate(90)"/>
  </g>
  <g>
    <rect class="st2" x="1558.2" y="807.2" width="47.3" height="64.3" rx="7.5" ry="7.5" transform="translate(2421.2 -742.6) rotate(90)"/>
    <g>
      <g>
        <rect class="st1" x="1518.4" y="819.9" width="10.9" height="39.5" rx="5.4" ry="5.4" transform="translate(3047.8 1679.3) rotate(180)"/>
        <rect class="st1" x="1538.9" y="820" width="10.9" height="39.5" rx="5.4" ry="5.4" transform="translate(3088.7 1679.5) rotate(-180)"/>
      </g>
      <rect class="st2" x="1518.4" y="834.9" width="31.5" height="9.5" transform="translate(2373.8 -694.5) rotate(90)"/>
      <rect class="st1" x="1532" y="825.1" width="4.9" height="10.9" transform="translate(2365 -703.8) rotate(90)"/>
      <rect class="st1" x="1531.7" y="834.6" width="4.9" height="10" transform="translate(2373.7 -694.6) rotate(90)"/>
      <rect class="st1" x="1531.8" y="843.6" width="4.9" height="10" transform="translate(2382.8 -685.6) rotate(90)"/>
    </g>
    <g>
      <g>
        <rect class="st1" x="1614" y="820" width="10.9" height="39.5" rx="5.4" ry="5.4" transform="translate(3239 1679.4) rotate(180)"/>
        <rect class="st1" x="1634.5" y="820.1" width="10.9" height="39.5" rx="5.4" ry="5.4" transform="translate(3279.9 1679.7) rotate(180)"/>
      </g>
      <rect class="st2" x="1614" y="835" width="31.5" height="9.5" transform="translate(2469.5 -790) rotate(90)"/>
      <rect class="st1" x="1627.6" y="825.2" width="4.9" height="10.9" transform="translate(2460.7 -799.3) rotate(90)"/>
      <rect class="st1" x="1627.3" y="834.7" width="4.9" height="10" transform="translate(2469.4 -790.1) rotate(90)"/>
      <rect class="st1" x="1627.4" y="843.7" width="4.9" height="10" transform="translate(2478.5 -781.1) rotate(90)"/>
    </g>
  </g>
  <polygon class="st3" points="571.3 1145.4 460.6 1256 773.3 1256 884 1145.4 571.3 1145.4"/>
  <polygon class="st2" points="883.5 1363.9 883.5 1247.6 772.9 1358.1 772.9 1474.4 773.1 1474.4 883.5 1363.9"/>
  <polygon class="st3" points="883.5 1277.3 772.9 1387.9 1085.5 1387.9 1196.3 1277.3 883.5 1277.3"/>
  <rect class="st1" x="832.7" y="1328.1" width="312.7" height="116.2"/>
  <polygon class="st2" points="1196.2 1393.6 1196.2 1277.3 1145.4 1328.1 1145.4 1444.4 1145.5 1444.4 1196.4 1393.6 1196.2 1393.6"/>
  <g>
    <rect class="st0" x="864.1" y="1368.2" width="442.5" height="31.6"/>
    <rect class="st1" x="1306.4" y="1364.4" width="10.9" height="39.5" rx="5.4" ry="5.4" transform="translate(2623.7 2768.2) rotate(-180)"/>
  </g>
  <rect class="st1" x="724.1" y="1387.8" width="198.5" height="116.2"/>
  <rect class="st2" x="797.2" y="1312.6" width="35.5" height="67.5"/>
  <polygon class="st2" points="883.5 1262.2 883.5 1145.9 772.9 1256.4 772.9 1372.7 773.1 1372.7 883.5 1262.2"/>
  <polygon class="st3" points="823.8 1336.9 773.1 1387.7 773.1 1387.8 922.2 1387.8 973.1 1336.9 823.8 1336.9"/>
  <rect class="st1" x="460.6" y="1256" width="312.6" height="247.9"/>
  <polygon class="st2" points="973.4 1453.1 973.4 1336.9 922.5 1387.6 922.5 1503.9 922.7 1503.9 973.5 1453.1 973.4 1453.1"/>
  <polygon class="st3" points="259 1028.7 148.3 1139.3 461 1139.3 571.7 1028.7 259 1028.7"/>
  <polygon class="st2" points="571.2 1145.5 571.2 1029.2 460.6 1139.7 460.6 1256 460.8 1256 571.2 1145.5"/>
  <rect class="st1" x="148.4" y="1139.5" width="312.6" height="364.5"/>
</svg>