<?xml version="1.0" encoding="UTF-8"?>
<svg id="Layer_1" xmlns="http://www.w3.org/2000/svg" xmlns:xlink="http://www.w3.org/1999/xlink" version="1.1" viewBox="0 0 2834.6 2834.6">
  <!-- Generator: Adobe Illustrator 30.1.0, SVG Export Plug-In . SVG Version: 2.1.1 Build 136)  -->
  <defs>
    <style>
      .st0 {
        fill: #3268a5;
      }

      .st1 {
        fill: #9a6c49;
      }

      .st2 {
        fill: #aaa;
      }

      .st3 {
        fill: #565656;
      }

      .st4 {
        fill: #d3d3d8;
      }

      .st5 {
        fill: #72513b;
      }

      .st6 {
        fill: #f3f3f3;
      }
    </style>
  </defs>
  <rect class="st4" x="-2.3" y="-.9" width="2836.3" height="1626.7"/>
  <image width="2752" height="1536" transform="translate(511 -1242.8) scale(.7)" xlink:href="../../../../../../Downloads/hf_20260410_011900_d4f9b60c-b30b-4e75-ad58-6b32e01e0096.png"/>
  <rect class="st1" x="0" y="1663.9" width="2833" height="1178.5"/>
  <rect class="st5" x="0" y="1625.8" width="2833" height="65.7"/>
  <g>
    <path class="st0" d="M1320.7,1272c-37.1,0-67.2,30.1-67.2,67.2v32.9h31.6v-25.6c0-24.4,19.7-44.1,44.1-44.1h24.5v-30.4h-33Z"/>
    <rect class="st2" x="1353.5" y="1267.5" width="10.9" height="39.5" rx="5.4" ry="5.4"/>
    <rect class="st2" x="1249.5" y="1372.2" width="39.5" height="10.9" rx="5.4" ry="5.4"/>
  </g>
  <g>
    <rect class="st0" x="1253.5" y="1399" width="31.6" height="320.3"/>
    <rect class="st2" x="1249.6" y="1388.2" width="39.5" height="10.9" rx="5.4" ry="5.4"/>
    <rect class="st2" x="1249.6" y="1719.3" width="39.5" height="10.9" rx="5.4" ry="5.4"/>
  </g>
  <g>
    <path class="st0" d="M1218,1846.2c37.1,0,67.2-30.1,67.2-67.2v-32.9h-31.6v25.6c0,24.4-19.7,44.1-44.1,44.1h-24.5v30.4h33Z"/>
    <rect class="st2" x="1174.2" y="1811.2" width="10.9" height="39.5" rx="5.4" ry="5.4"/>
    <rect class="st2" x="1249.7" y="1735.2" width="39.5" height="10.9" rx="5.4" ry="5.4"/>
  </g>
  <g>
    <rect class="st0" x="1513.2" y="1271.3" width="62.8" height="31.6"/>
    <rect class="st2" x="1575.8" y="1267.5" width="10.9" height="39.5" rx="5.4" ry="5.4"/>
    <rect class="st2" x="1502.2" y="1267.3" width="10.9" height="39.5" rx="5.4" ry="5.4"/>
  </g>
  <g>
    <rect class="st0" x="1769" y="1271.5" width="62.8" height="31.6"/>
    <rect class="st2" x="1831.7" y="1267.6" width="10.9" height="39.5" rx="5.4" ry="5.4"/>
    <rect class="st2" x="1758" y="1267.6" width="10.9" height="39.5" rx="5.4" ry="5.4"/>
  </g>
  <g>
    <rect class="st0" x="1927.6" y="1398.8" width="31.6" height="320.3"/>
    <rect class="st2" x="1923.6" y="1388.1" width="39.5" height="10.9" rx="5.4" ry="5.4"/>
    <rect class="st2" x="1923.6" y="1719.1" width="39.5" height="10.9" rx="5.4" ry="5.4"/>
  </g>
  <g>
    <path class="st0" d="M1994.7,1846c-37.1,0-67.2-30.1-67.2-67.2v-32.9h31.6v25.6c0,24.4,19.7,44.1,44.1,44.1h24.5v30.4h-33Z"/>
    <rect class="st2" x="2027.5" y="1811" width="10.9" height="39.5" rx="5.4" ry="5.4"/>
    <rect class="st2" x="1923.5" y="1734.9" width="39.5" height="10.9" rx="5.4" ry="5.4"/>
  </g>
  <g>
    <rect class="st0" x="2138.9" y="1814.8" width="62.8" height="31.6"/>
    <rect class="st2" x="2201.5" y="1811" width="10.9" height="39.5" rx="5.4" ry="5.4"/>
    <rect class="st2" x="2128" y="1810.8" width="10.9" height="39.5" rx="5.4" ry="5.4"/>
  </g>
  <g>
    <rect class="st0" x="1593.3" y="1231.8" width="159.8" height="111.4" rx="20" ry="20"/>
    <path class="st2" d="M1746,1226.7h0c4,0,7.3,3.3,7.3,7.3v107.4c0,4-3.3,7.3-7.3,7.3h0c-4,0-7.3-3.3-7.3-7.3v-107.4c0-4,3.3-7.3,7.3-7.3Z"/>
    <path class="st2" d="M1599.8,1226.3h0c4,0,7.3,3.3,7.3,7.3v107.4c0,4-3.3,7.3-7.3,7.3h0c-4,0-7.3-3.3-7.3-7.3v-107.4c0-4,3.3-7.3,7.3-7.3Z"/>
    <rect class="st2" x="1698" y="1231.7" width="14.6" height="111.4"/>
    <path class="st2" d="M1628.6,1226.3h46.6c4.1,0,7.5,3.4,7.5,7.5v31.2h-61.6v-31.2c0-4.1,3.4-7.5,7.5-7.5Z"/>
    <rect class="st3" x="1634.3" y="1226.4" width="35.2" height="25.6"/>
  </g>
  <g>
    <g>
      <path class="st3" d="M1891.6,1272.1c37.1,0,67.2,30.1,67.2,67.2v32.9h-31.6v-25.6c0-24.4-19.7-44.1-44.1-44.1h-24.5v-30.4h33Z"/>
      <rect class="st2" x="1847.9" y="1267.6" width="10.9" height="39.5" rx="5.4" ry="5.4"/>
      <rect class="st2" x="1923.3" y="1372.2" width="39.5" height="10.9" rx="5.4" ry="5.4"/>
      <rect class="st2" x="1923.4" y="1351.8" width="39.5" height="10.9" rx="5.4" ry="5.4"/>
    </g>
    <rect class="st3" x="1916.9" y="1261.9" width="52.2" height="90" rx="7.5" ry="7.5"/>
    <path class="st3" d="M1976.5,1333.6h-23.3v-51.9h23.3c4.1,0,7.5,3.4,7.5,7.5v36.9c0,4.1-3.4,7.5-7.5,7.5Z"/>
    <rect class="st3" x="1927.4" y="1362.7" width="31.5" height="9.5"/>
    <rect class="st2" x="1931.6" y="1362.7" width="4.9" height="10"/>
    <rect class="st2" x="1940.6" y="1362.4" width="4.9" height="10"/>
    <rect class="st2" x="1949.6" y="1362.4" width="4.9" height="10"/>
    <g>
      <g>
        <rect class="st2" x="1847.8" y="1267.7" width="10.9" height="39.5" rx="5.4" ry="5.4"/>
        <rect class="st2" x="1868.2" y="1267.7" width="10.9" height="39.5" rx="5.4" ry="5.4"/>
      </g>
      <rect class="st3" x="1858.8" y="1271.7" width="9.5" height="31.5"/>
      <rect class="st2" x="1858.3" y="1275.9" width="10.9" height="4.9"/>
      <rect class="st2" x="1858.4" y="1284.9" width="10" height="4.9"/>
      <rect class="st2" x="1858.6" y="1294" width="10" height="4.9"/>
    </g>
    <path class="st2" d="M1963.2,1255.8v6.1h-39.6v-6.1c0-4.1,3.4-7.5,7.5-7.5h24.7c4.1,0,7.5,3.4,7.5,7.5h-.1Z"/>
    <rect class="st2" x="1936.8" y="1227.7" width="13" height="29.4"/>
    <path class="st2" d="M1913.2,1215.6h60.1c3.9,0,7,3.1,7,7h0c0,3.9-3.1,7-7,7h-60.1c-3.9,0-7-3.1-7-7h0c0-3.9,3.1-7,7-7Z"/>
    <path class="st3" d="M1949.8,1215.6h23.4c3.9,0,7,3.1,7,7h0c0,3.9-3.1,7-7,7h-23.4v-14h0Z"/>
  </g>
  <g>
    <rect class="st2" x="2044.3" y="1810.9" width="10.9" height="39.5" rx="5.4" ry="5.4"/>
    <rect class="st2" x="2111.3" y="1811.4" width="10.9" height="39.5" rx="5.4" ry="5.4"/>
    <rect class="st2" x="2064.7" y="1811.1" width="10.9" height="39.5" rx="5.4" ry="5.4"/>
    <rect class="st3" x="2055.2" y="1815" width="9.5" height="31.5"/>
    <rect class="st2" x="2054.8" y="1819.2" width="10.9" height="4.9"/>
    <rect class="st2" x="2055" y="1828.2" width="10" height="4.9"/>
    <rect class="st2" x="2055.1" y="1837.3" width="10" height="4.9"/>
    <rect class="st3" x="2075.6" y="1807.4" width="35.5" height="47.5" rx="7.5" ry="7.5"/>
    <rect class="st3" x="2080.7" y="1799.8" width="25.5" height="61.5" rx="7.5" ry="7.5"/>
  </g>
  <g>
    <rect class="st2" x="2285.3" y="1810.8" width="10.9" height="39.5" rx="5.4" ry="5.4"/>
    <rect class="st2" x="2218.4" y="1811.3" width="10.9" height="39.5" rx="5.4" ry="5.4"/>
    <rect class="st2" x="2264.9" y="1810.9" width="10.9" height="39.5" rx="5.4" ry="5.4"/>
    <rect class="st3" x="2275.8" y="1814.8" width="9.5" height="31.5"/>
    <rect class="st2" x="2274.8" y="1819.1" width="10.9" height="4.9"/>
    <rect class="st2" x="2275.5" y="1828.1" width="10" height="4.9"/>
    <rect class="st2" x="2275.4" y="1837.1" width="10" height="4.9"/>
    <rect class="st3" x="2229.4" y="1807.3" width="35.5" height="47.5" rx="7.5" ry="7.5"/>
    <rect class="st3" x="2234.4" y="1799.7" width="25.5" height="61.5" rx="7.5" ry="7.5"/>
  </g>
  <g>
    <path class="st2" d="M2331.9,1772.4h0c4.9,0,8.8,3.9,8.8,8.8v18.3c0,4.9-3.9,8.8-8.8,8.8h0c-4.9,0-8.8-3.9-8.8-8.8v-18.3c0-4.9,3.9-8.8,8.8-8.8Z"/>
    <path class="st2" d="M2359.9,1771h50.8c3.9,0,7,3.1,7,7h0c0,3.9-3.1,7-7,7h-50.8c-3.9,0-7-3.1-7-7h0c0-3.9,3.1-7,7-7Z"/>
    <path class="st2" d="M2329.2,1780.6l27.2-10.3c3.6-1.4,7.7.4,9,4.1h0c1.4,3.6-.4,7.7-4.1,9l-27.2,10.3c-3.6,1.4-7.7-.4-9-4.1h0c-1.4-3.6.4-7.7,4.1-9Z"/>
    <rect class="st2" x="2302.5" y="1811" width="10.9" height="39.5" rx="5.4" ry="5.4"/>
    <rect class="st2" x="2349.6" y="1810.7" width="10.9" height="39.5" rx="5.4" ry="5.4"/>
    <rect class="st3" x="2313.6" y="1806.9" width="35.5" height="47.5" rx="7.5" ry="7.5"/>
    <rect class="st3" x="2313.6" y="1799.5" width="35.9" height="61.5" rx="7.5" ry="7.5"/>
  </g>
  <g>
    <rect class="st0" x="2378.2" y="1814.2" width="62.8" height="31.6"/>
    <rect class="st2" x="2440.8" y="1810.3" width="10.9" height="39.5" rx="5.4" ry="5.4"/>
    <rect class="st2" x="2367.2" y="1810.3" width="10.9" height="39.5" rx="5.4" ry="5.4"/>
  </g>
  <g>
    <rect class="st0" x="2478.7" y="1750.6" width="111.4" height="159.8" rx="20" ry="20"/>
    <path class="st2" d="M2595.1,1903.3h0c0,4-3.3,7.3-7.3,7.3h-107.4c-4,0-7.3-3.3-7.3-7.3h0c0-4,3.3-7.3,7.3-7.3h107.4c4,0,7.3,3.3,7.3,7.3Z"/>
    <path class="st2" d="M2595.5,1757h0c0,4-3.3,7.3-7.3,7.3h-107.4c-4,0-7.3-3.3-7.3-7.3h0c0-4,3.3-7.3,7.3-7.3h107.4c4,0,7.3,3.3,7.3,7.3Z"/>
    <rect class="st2" x="2478.7" y="1802.9" width="111.4" height="55.1"/>
    <g>
      <rect class="st2" x="2458.3" y="1810.5" width="10.9" height="39.5" rx="5.4" ry="5.4"/>
      <rect class="st2" x="2478.7" y="1810.5" width="10.9" height="39.5" rx="5.4" ry="5.4"/>
    </g>
    <rect class="st3" x="2469.2" y="1814.5" width="9.5" height="31.5"/>
    <rect class="st2" x="2468.8" y="1818.8" width="10.9" height="4.9"/>
    <rect class="st2" x="2468.9" y="1827.7" width="10" height="4.9"/>
    <rect class="st2" x="2469" y="1836.8" width="10" height="4.9"/>
  </g>
  <g>
    <rect class="st3" x="1401.1" y="1263" width="64.3" height="47.3" rx="7.5" ry="7.5"/>
    <g>
      <g>
        <rect class="st2" x="1369.9" y="1267.3" width="10.9" height="39.5" rx="5.4" ry="5.4"/>
        <rect class="st2" x="1390.3" y="1267.4" width="10.9" height="39.5" rx="5.4" ry="5.4"/>
      </g>
      <rect class="st3" x="1380.8" y="1271.3" width="9.5" height="31.5"/>
      <rect class="st2" x="1380.4" y="1275.6" width="10.9" height="4.9"/>
      <rect class="st2" x="1380.5" y="1284.5" width="10" height="4.9"/>
      <rect class="st2" x="1380.6" y="1293.6" width="10" height="4.9"/>
    </g>
    <g>
      <g>
        <rect class="st2" x="1465.5" y="1267.3" width="10.9" height="39.5" rx="5.4" ry="5.4"/>
        <rect class="st2" x="1485.9" y="1267.5" width="10.9" height="39.5" rx="5.4" ry="5.4"/>
      </g>
      <rect class="st3" x="1476.4" y="1271.4" width="9.5" height="31.5"/>
      <rect class="st2" x="1476" y="1275.7" width="10.9" height="4.9"/>
      <rect class="st2" x="1476.1" y="1284.6" width="10" height="4.9"/>
      <rect class="st2" x="1476.2" y="1293.7" width="10" height="4.9"/>
    </g>
  </g>
  <polygon class="st6" points="422.7 1592.8 312 1703.4 624.7 1703.4 735.4 1592.8 422.7 1592.8"/>
  <polygon class="st3" points="734.9 1811.3 734.9 1695 624.3 1805.5 624.3 1921.8 624.5 1921.8 734.9 1811.3"/>
  <polygon class="st6" points="734.9 1724.7 624.3 1835.3 936.9 1835.3 1047.7 1724.7 734.9 1724.7"/>
  <rect class="st2" x="684.1" y="1775.5" width="312.7" height="116.2"/>
  <polygon class="st3" points="1047.6 1841 1047.6 1724.7 996.8 1775.5 996.8 1891.8 996.9 1891.8 1047.8 1841 1047.6 1841"/>
  <g>
    <rect class="st0" x="715.5" y="1815.6" width="442.5" height="31.6"/>
    <rect class="st2" x="1157.8" y="1811.7" width="10.9" height="39.5" rx="5.4" ry="5.4"/>
  </g>
  <rect class="st2" x="575.5" y="1835.2" width="198.5" height="116.2"/>
  <rect class="st3" x="648.6" y="1760" width="35.5" height="67.5"/>
  <polygon class="st3" points="734.9 1709.6 734.9 1593.3 624.3 1703.8 624.3 1820.1 624.5 1820.1 734.9 1709.6"/>
  <polygon class="st6" points="675.2 1784.3 624.5 1835.1 624.5 1835.2 773.6 1835.2 824.5 1784.3 675.2 1784.3"/>
  <rect class="st2" x="312" y="1703.4" width="312.6" height="247.9"/>
  <polygon class="st3" points="824.8 1900.5 824.8 1784.3 773.9 1835 773.9 1951.3 774.1 1951.3 824.9 1900.5 824.8 1900.5"/>
  <polygon class="st3" points="422.6 1592.9 422.6 1476.6 312 1587.1 312 1703.4 312.2 1703.4 422.6 1592.9"/>
  <rect class="st2" x="-.2" y="1586.9" width="312.6" height="364.5"/>
  <g>
    <polygon class="st6" points="110.4 1476.1 -.3 1586.7 312.4 1586.7 423.1 1476.1 110.4 1476.1"/>
    <polygon class="st6" points=".6 1475.9 .6 1586.3 111.1 1475.9 .6 1475.9"/>
  </g>
</svg>