<?xml version="1.0" encoding="UTF-8"?>
<svg id="Layer_1" xmlns="http://www.w3.org/2000/svg" version="1.1" viewBox="0 0 850.3 850.3">
  <!-- Generator: Adobe Illustrator 30.1.0, SVG Export Plug-In . SVG Version: 2.1.1 Build 136)  -->
  <defs>
    <style>
      .st0 {
        fill: #fa7728;
      }

      .st1 {
        fill: #fa7727;
      }

      .st2 {
        fill: #554338;
      }

      .st3 {
        fill: #564339;
      }

      .st4 {
        fill: #f97626;
      }

      .st5 {
        fill: #908e89;
      }

      .st6 {
        fill: #db947e;
      }

      .st7 {
        fill: #f97625;
      }

      .st8 {
        fill: #f5cc40;
      }

      .st9 {
        fill: #d99983;
      }

      .st10 {
        fill: #386ba5;
      }

      .st11 {
        fill: #d99a84;
      }

      .st12 {
        fill: #d99782;
      }

      .st13 {
        fill: #aeaba7;
      }

      .st14 {
        fill: #da957f;
      }

      .st15 {
        fill: #386aa5;
      }

      .st16 {
        fill: #f3bba2;
      }

      .st17 {
        fill: #df9781;
      }

      .st18 {
        fill: #bc7660;
      }

      .st19 {
        fill: #f19f51;
      }

      .st20 {
        fill: #d9957d;
      }

      .st21 {
        fill: #8d8b87;
      }

      .st22 {
        fill: #da947e;
      }

      .st23 {
        fill: #f0a250;
      }

      .st24 {
        fill: #afada8;
      }

      .st25 {
        fill: #d99781;
      }

      .st26 {
        fill: #de9680;
      }

      .st27 {
        fill: #8b8984;
      }

      .st28 {
        fill: #8e8d88;
      }

      .st29 {
        fill: #d99680;
      }

      .st30 {
        fill: #f09f50;
      }

      .st31 {
        fill: #d7947c;
      }

      .st32 {
        fill: #da9580;
      }

      .st33 {
        fill: #d7eff1;
      }

      .st34 {
        fill: #f3bba1;
      }
    </style>
  </defs>
  <path class="st34" d="M531,328.1c1.5,3.1,1.4,8.2,0,11.3l1.3.7c2.4,7,4.8,14,7,21l.4,41.3c2.7-.6,5.2-1.6,7.6-3.1l1.4.6.8,1.3-.7,27c15.2-5.4,19.3-23.9,15.1-38.3-1.7-5.7-5.1-10.5-11.5-9l-1.1-.8c-.4-.2-1.1-.4-1.1-.7,0-2.4.9-14.9,2-16,1.4-1.4,5-.9,6.9-.5,2.3,0,3.5.8,3.9,2.2,6.7,3.2,11.9,8.6,14.6,15.9,2.6,6.9,3.9,14.1,3.4,21.5-.8,13.4-4.5,26.2-12.8,36.7-5.8,7.4-13.1,10.7-21.5,13.9-1.1,3.4-.8,6.5-1.1,9.9-2.3,26.3-12.4,51.1-29.8,70.9-1.2,1.4-3,2.9-3,4.5-.2.6-.3,1.1-.6,1.7s-.5,1-.9,1.4c-22.6,22-54.3,37-86.2,36.8-33-.2-64.5-15-87.4-38.2l-1.2-2.8c-.7-1.4-1.2-2.4-2.4-3.8-11.5-13.7-19.5-26.6-24.7-44.1-2.9-9.7-3.6-19.6-4.6-29.6-.3-2.4-.2-4.8-1.1-6.9-5.7-2.3-11.3-4.4-16.1-8.4-10-8.6-16-20.1-18.3-33-1.4-8.4-1.5-10.3-.3-18.9,1-7.2,4-13.8,7.7-19.9,2.3-3.8,6.3-5.4,9.8-7.5-.1-.4-.2-1.1.1-1.2,2.6-.7,9.5-1.9,11.5-.4.7.5,1.9,14,1.9,16l-1.1.9-1.2.7c-6.1-2.4-10.6,4.2-11.8,9.6-3.4,14.5.1,32.3,15.6,37.8l-.9-28.3,1.1-.7,1.2-.5c2.1,1.9,5.4,3.8,7.9,3.5l.3-41.2c2.2-7,4.5-13.9,6.9-20.9l1.4-1.3-1-1.4v-7.9c0,0,1.1-1.4,1.1-1.4l1.6-.9c66,6,134.2,7.2,200.4.3,2.8.1,5.5,0,8.3-.2l1.1.9h0Z"/>
  <path class="st8" d="M478.3,141.1l1,.8c-4.7,32.5-9.1,64.9-13.2,97.2,1.7,0,2.6-1.7,2.9-4.9,6.7-29,13.8-57.6,21.3-86.1l1.4-.2c4.4,1.3,8.1,4.1,12.1,6.7,2.5,1.7,5.1,3.1,7.5,5.1,4.9,3.9,9.4,8,14,12.2,10.8,9.7,20.1,23,28.2,35.1,4.1,6.1,7.2,12.3,10.2,19,4.3,9.5,6.8,19,7.6,29.5,1.1,15.1,1.2,29.9,0,45.3,5.7,1.1,14.9-1.3,21.2,0,2.3.5,1.1,4.1.1,5.4-2.4,3.2-5.4,5.3-8.9,7.2-5.4,2.9-10.7,5.8-16.8,7.1-1.1.2-2.1.3-2.4,1.2,0,.4,0,1.1-.2,1.2-10.2,2.2-21.6,4.3-32,5.9l-1.4-.8c-3.3,1-7.2.1-10.8.6-5,.7-9.7.9-14.7,1.3l-17.8,1.4-7.9.5-8,.5-20.3.4c-17.5.4-34.9.4-52.4,0l-16.9-.4-12.5-.6-9.7-.5-26.2-2.3c-4.9-.4-9.9-.3-14.3-1l-.2.7c-11.3-1.4-22.6-3.3-34-5.7l-.6-1.3c-.3-.7-1.1-1.2-2.2-1.4-6.1-1-11.2-3.4-16.4-6.4-4.1-2.4-8-5.3-9.1-10.1-.2-.9-.3-1.9.2-2.6.4-.5,1.4-.8,2.4-.7l17.1.6c.9,0,1.9-.1,2.2-.8.2-.4.6-1.2.6-1.9-.7-8.6-.3-16.8-.4-25.3-.1-10.6,0-21.1,2.3-31.5,1-4.5,2.7-8.7,4.1-13,2.6-7.9,6.1-14.9,10.4-22l3.8-6.5c6.7-11.3,13.7-19.1,23.8-27.7l5.6-4.7c9.2-7.8,18.7-14.7,29.2-20,1.4-.6,2.3.2,2.8,2.5,7.2,29.7,14.6,59.3,22.5,88.7h1.2c0,.1-11.6-83.1-11.6-83.1-.5-4.4-1-8.7-1.2-13.1,0-.4.7-.6,1.2-.8,1.3-4.2,1-10.3,4.6-13.6,12-9.3,41.6-9.9,56.5-9,12.8.7,24.9,4.2,36.8,8.6,5,1.8,5.6,8.5,7.2,13.1h0Z"/>
  <path class="st1" d="M556.3,597.7l1.4,1c0,83.1.1,166.4,0,249.7l-1.1.7h-13.7s-109.2,0-109.2,0c-.5,0-1.1-.1-1.1-.4-.4-18.8-.1-38.2.7-57,2.9-8.8,6.4-17.3,10.5-25.4l84.3-175.1h1.3c2.7-1.2,5.2-2,8.2-1.1,6.6,2,13.6,3.6,18.7,7.8h0Z"/>
  <path class="st0" d="M320.3,590.4h1.3s93.4,193.5,93.4,193.5c2,5,2.5,10.3,2.6,15.6.3,15.6.6,33.3-.4,48.7l-1.2.8c-3.5.4-7,0-10.8,0h-43.9c0,0-58.7.3-58.7.3-3.1,0-5.8,0-8.6,0l-1.1-.5c.2-83.6,0-167-.5-250.4.4-.5.8-.9,1.4-1.2,3.7-2.9,8.5-3.6,12.9-5.6s9-3,13.5-1.1h0Z"/>
  <path class="st10" d="M513.6,583.5c.7.2,16.6,6,15.9,7.3l-46.7,96.8-9.4,19.5-28.6,59.4-5.8,12.5c-2.8,6-5.2,11.4-5.2,18.1v51.7c-.1,0-15,.1-15,.1-1.1,0-2.2,1-2.9,0l.3-17.9c.1-7.9.1-15.5.1-23.4,0-9.5.5-17.4-3.7-26.2l-15.4-31.9-30.1-62.1-24.8-51.5-6-12.3-16.1-33.2c5.3-2.6,10.8-5,16.4-7l1.8,1.8c29.6,72.3,145.1,72,173.5-.5l1.6-1.2h0Z"/>
  <path class="st15" d="M214.6,644.9l.9,1c-.3,67.4-.4,134.9-.3,202.4l-1.1.7h-24.5c0,.1-49.2-.2-49.2-.2-3.5,0-6.7-.4-10-1.5-10.3-3.3-17.6-13.4-15.1-24.6l11-48.6c3.4-14.8,6.3-29.2,11.1-43.6l4.3-13.2c2.4-7.2,4.9-14.1,8.1-21,2.9-6.4,6.8-11.4,11.8-16.3,6.2-6,12.9-11,20.2-15.7l16.9-11c2.7-1.8,13.6-8.9,16-8.5h0Z"/>
  <path class="st10" d="M636.5,849l-1.1-.4s-.1-68.1-.4-204.4l1.1-.8,10,5.8,16.6,11.3c7.8,5.3,14.8,10.6,21.9,16.9,9,7.9,15.4,17.7,19.6,28.9,2.9,7.5,5.8,14.4,8.1,22.2,5.9,19.9,10.5,39.7,15,59.9l3.7,16.4,3.4,14.1c1.3,5.2,1.5,10.8-.6,15.9-3.9,9.6-13.2,14.1-23.5,14.1l-58.6.2h-15.5c0,0,0,0,0,0Z"/>
  <path class="st33" d="M293.8,597.2c-.4,1.1-.4,2,0,3.6v248.6c.1,0-42.8-.3-42.8-.3-1.2,0-1.6-.6-1.5-1.8.4-74.9.3-149.1-.2-223.9l-.6-5.6,1.2-.7c3.1-2.6,7.2-4.2,11.2-6l20.4-9.1c4.2-1.9,8.1-3.6,12.2-4.8h0Z"/>
  <path class="st33" d="M600.6,616.1c.8,1.2.8,2.8.2,4.7-.2,75.7-.2,151.6-.1,227.5l-1.1.7h-42.8c0,0,0-248.3,0-248.3,0-1.4,0-2.1-.4-2.9,1,.9,2.7.3,4.1.8l28.5,11.4c4.3,1.7,7.8,4.4,11.7,6.2h0Z"/>
  <path class="st4" d="M636.2,643.3v24.9c0,2,0,3.7,0,5.8v22.8c.1,3.5.2,6.3.2,9.9v142.3c.1,0-33.4.1-33.4.1-1.3,0-2.6.9-3.5-.1v-220.4c0-4.7-.2-8.6,1-12.5l32.2,14.8c1.7.8,2.5,2.5,2.2,4.3-.5,2.9,1.1,5.5,1.1,8.1h0Z"/>
  <path class="st7" d="M250.1,617c-.3,2,.5,4,.5,6.3l.4,52.2v55.7s0,25.4,0,25.4v38.3s0,30.4,0,30.4c0,7,.3,13.7-.2,20.8,0,1.1,0,2.1.3,2.9-2.9,1.4-6.3.2-9.6.1l-27.4-.2v-201c0-1.2.3-2.4.5-3.1,2.4-5.7-1.6-12.2,4.3-14.7l12-5.1,17.1-8c.7-.3,1.5-.1,2-.1h0Z"/>
  <path class="st16" d="M512.9,583.4l.7.2c-3.7,12.9-14.9,27.5-25.7,35.8-5.6,4.3-11,8-17.4,11-31.3,14.8-68,13.3-97.8-4.2-16.6-9.8-30-24.8-36-42.8.7-1,1-2.5.8-4-.6-6.7-.2-13.2,0-19.9,0-4.4-.4-8.5,0-12.6.6-1.4,2-1.4,4.1,0,40.6,49,110.6,63.3,168.2,36.8l3.3-.3h0Z"/>
  <path class="st26" d="M512.9,538.4v45c-30.4,15.1-70,18.8-103,9.3-26.1-7.5-49-22.4-67.2-42.5-1.1-2.5-3.1-3.3-5.4-3.4.2-3.2-.5-6.5-.6-9.6.8,1.4,2.7,2.3,4,3.6,18.5,18.9,42.5,30.9,68.7,34.9,12.3,1.9,23.9,1.8,36.1-.6,26.1-5,49-18.3,67.5-36.8h0Z"/>
  <path class="st24" d="M319.5,338.8c-1,7.8-7.2,18.1-7.2,23.5l-.2,41.8c-3.2-.6-6.4-1.6-8.7-3.5l-1.5-1.3-1.2-.6c-.9-5.7-1.8-11.4-2.6-17.2l1-1.1-1.5-16.1c-2.2-.4-4.6-.3-6.9,0l-4.1.8-3.2-17.8c-.8-4.3-.3-8.7-.3-12.8.2-1.1.5-2,1.1-2.8l24.4,5.4c3.9.7,7.5,1.4,11,1.9h0Z"/>
  <path class="st13" d="M563,364.9c-2.4-1.1-8.6-1.8-9.6-1.2-.5.3-.8,1.2-.9,2.1l-1.2,14.1c.3,0,.5,0,.7.2.9.5-1.7,17.2-2.1,19.3l-1.2.4c-3.2,1.6-6.4,3.5-10.1,4l-.3-41.5c0-5.5-6.4-16.3-7.2-22.9.2-.5.5-.8,1-.9,10.8-1.4,22.1-3.8,32.5-7.4l1.3.3c.8,13.7-1.8,20.5-2.9,33.5h0Z"/>
  <path class="st19" d="M491.7,147.9c-.7,1.2-1,2.7-1.4,4.3l-7.8,30.9-8.5,34.8c-1.8,7.2-2.9,14.2-5.2,21-.4,1.3-2.1,1.6-2.9,1.4-1.1-.2-1.1-1.7-1-2.9l5.7-41.1,7.7-55.2,10.8,4.9c1.1.5,2,1.2,2.6,1.9h0Z"/>
  <path class="st30" d="M373.2,142.1c-.2.6,1,12.4,1.4,14.8l7.2,50.3,4.3,31.9c.2,1.3-1.9,1.3-2.6,1-.5-.2-1.2-.8-1.4-1.8l-6.5-26-7.5-29.6-7.7-31.6c-.3-1.4-.9-2.7-1.8-3.3,4.6-2.3,9.2-5.4,14.7-5.7Z"/>
  <path class="st27" d="M319.6,328c0,3.6.4,7.2,0,10.8-1,.7-2.4.9-3.9.6-10.6-2-20.8-4.3-31.3-6.9l-1.2,1.8c0-4.2.1-8.6,1.7-12.5l11.8,2.3,22.9,3.9h0Z"/>
  <path class="st21" d="M564.6,321.8c1,3.2,1.1,6.4,1.3,9.6-.5.7-1.2.9-2.2,1.2-9.3,2.9-18.5,5-28.1,6.6-1.7.3-3.2.7-4.5,0-.5-3.8-.4-7.5,0-11.3,2.6-.8,5.2-1.1,8.2-1.6l25.3-4.7h0Z"/>
  <path class="st5" d="M389.2,359.5c-14.3-2.8-28.8-3.7-42.2,2.8-3.5,1.7-9.3,4.2-11.5-.1-1-1.9-.4-3.7.8-5.5,11.9-17,36.8-18.3,54.9-11.9,3.8,1.3,6.4,4.5,6.3,8.2,0,2.3-.9,4-2.3,5.3-1.6,1.5-3.6,1.8-6,1.3h0Z"/>
  <path class="st28" d="M489.5,357.9c-9.6-1.4-18.7-.2-27.9,1.4-2.7.5-5.3,0-7-1.9-1.6-1.6-2.2-4.4-1.2-6.9,3.1-7.8,15.6-8.8,23.5-9.3,23-1.7,43.5,14.4,37.6,21.3-4.9,5.7-11.2-2.5-25-4.6Z"/>
  <path class="st6" d="M404.9,446.7c-2.2-1-4.1-4.1-2.4-6.2s5.2-1.9,7.4-.9c4.7,2.3,9.3,4.5,14.6,5.1,5.7.6,11.5-2,15.2-6.2,3.3-3.7-.5-16.6-1.6-22.2-2.3-10.7-4.7-21.1-6.2-31.9-.3-2.4-1.2-8.8,2.6-8.4.8,0,2.1,1.1,2.4,2.4l8.2,35.1c1.5,6.6,2.9,12.9,3.8,19.5.7,4.8-.8,9.1-4.4,12.5-6,5.7-15.1,9.9-23.6,7.4-5.6-1.7-10.7-3.8-15.9-6.3h0Z"/>
  <path class="st17" d="M299.1,380.3c.3,3.3,1.7,6.8,1.5,10.4-.2,3.2,1.3,5.8,1.4,8.6l1,30.7c-17.9-4.8-22.5-27-17.2-42.2,2.1-5.8,8-10.8,13.3-7.5h0Z"/>
  <path class="st26" d="M548.7,399.8c.3-1.9,1.4-4,1.2-6.2-.2-2.4,1.3-12.4,1.4-13.7,4.9-1.8,10,.6,12.3,5.7,7.1,15.6,2.2,38.8-15.9,44.4l.6-26.2c0-1.5-.1-2.9.5-4h0Z"/>
  <path class="st14" d="M452.7,554.7c13.6-8.2,13-16.5,17.1-14.9,6,2.3-5.8,19.2-21.1,23.9-14,4.3-29.2,4.4-43.4.7-17.9-4.6-29.3-22.2-23.7-24.6,1.5-.6,3,0,3.8,1.6,10.4,19.3,36,21.4,55.2,17.8,4.4-.8,8.2-2.2,12-4.5h0Z"/>
  <path class="st18" d="M446.1,487.7c-19.9,3.9-48.1,2.7-65.5-8.4-1.3-.8-1-3.1-.6-4.1.5-1.3,2.5-1.7,3.9-1.1l9.3,3.8c18.2,7.3,52.7,6.6,73-5.3,1.2-.7,3.1-1.2,4.2,0,1.9,2.1.8,5.1-1.5,6.5-7,4.4-14.5,7-22.8,8.7h0Z"/>
  <path class="st3" d="M377.2,393.8c-2,2.9-4.9,4.3-7.7,4.4s-6-1.3-7.9-3.9c-4.4-6.1-4.5-14.8-.2-21,1.8-2.6,4.6-4.7,7.8-4.7,3.5,0,6.6,2.3,8.4,5.2,3.8,6,3.8,14.1-.4,20h0Z"/>
  <path class="st2" d="M488.5,394.4c-2,2.6-4.7,3.9-7.2,3.8s-5.4-1.2-7.3-3.4c-4.3-5.2-4.9-12.7-2.2-18.9,1.7-3.9,5.3-7.3,9.8-7.3,3.6,0,6.7,2.8,8.4,5.8,3.4,6.2,3,14.3-1.4,19.9h0Z"/>
  <path class="st20" d="M367.1,471.7c-4.8,8.8,0,18.8-4.4,19.4s-3.6-5.9-3.7-9.1c-.2-16.7,11.7-21,20.7-35.6.8-1.3,2.7-1.3,3.8-.7,5.9,3.4-13,19.9-16.4,26.1h0Z"/>
  <path class="st22" d="M489.6,470.9c2.2,5.1,3.7,20.2-.9,20.2-6.3,0,1.8-12.9-8.2-24l-5.5-6.1c-1.9-2.1-12.2-13.3-7.8-15.5,1.1-.5,3.1-.5,3.9.7,6.9,11,14.7,15.5,18.6,24.6h0Z"/>
  <path class="st32" d="M392.3,400.4c4.6,3.8-17,22.5-38.7,16.8-1.6-.4-1.7-2.1-1.4-3.3.3-1.3,1.8-2,3.3-1.8,12.4,1.6,24.3-2.3,32.8-11.4,1.1-1.1,2.9-1.2,4-.3Z"/>
  <path class="st12" d="M497.8,414.4c1,6.1-17,3.2-20.9,2-7.5-2.3-14.1-6.8-19.2-12.5-1.2-1.4-.5-3.2.7-4.1s2.4-.3,3.7,1.1c8.2,8.9,20.1,13,32.2,11.1,1.9-.3,3.2.8,3.5,2.4h0Z"/>
  <path class="st29" d="M443.7,502.8c1,6.7-25.1,9.2-35.4,3.3-1.3-.7-.6-2.5-.2-3.2,2.3-4.2,13.5,4.4,32.5-2.5,1.6-.6,2.9,1.5,3,2.5h0Z"/>
  <path class="st31" d="M520.8,395.4c1.4.7,1.4,2.5,1.2,3.5-.2,1.2-1.8,1.7-3.3,1.1l-9.9-3.7c-1.2-.4-1.7-1.6-1.6-2.5,0-.7,1-2.2,2.3-2,3.8.8,7.8,1.7,11.3,3.5h0Z"/>
  <path class="st25" d="M331.9,399.8c-1.9.7-3.2.2-3.7-1.1-1.5-4.4,6.5-5,11.6-6.7,1.2-.4,2.5,0,3,.8.6,1.1.3,2.7-1.1,3.2l-9.8,3.7h0Z"/>
  <path class="st11" d="M340.3,384.6c1.7.4,2.3,1.4,2.3,2.5,0,4.5-11.1.7-13.4-.2-1.4-.6-1.6-2.2-1.4-3.1.7-3.5,8.1-.1,12.4.9h0Z"/>
  <path class="st9" d="M521.2,386.6c-2.2,1-12.4,4.4-13.3,1.5-.2-.7-.5-2.3.7-2.8,3.7-1.3,7.4-2.2,11.2-3.1,1.3-.3,2.4.5,2.6,1.5.2.9,0,2.4-1.2,2.9h0Z"/>
  <path class="st23" d="M451.9,294.6c-26.9-.7-52.7-.2-79.3,1.5-22.1,1.4-43.3,4.9-64.9,9-1.7.3-3-.3-3.4-1.5-.5-1.5,0-3,1.6-3.6,5.9-2.3,11.6-3.6,17.8-5,23.3-4.9,46.4-7.7,70.2-9,18.9-1,37.1-1.4,56-.5,29,1.3,66.6,5.3,94.1,14,1.4.5,2.6,1.8,2.5,3-.2,1.3-1.8,2.8-3.4,2.5l-17.5-3.4c-24.3-4.7-48.5-5.9-73.7-7.1h0Z"/>
</svg>