<?xml version="1.0" encoding="UTF-8"?>
<svg id="Layer_1" xmlns="http://www.w3.org/2000/svg" version="1.1" viewBox="0 0 610 708">
  <!-- Generator: Adobe Illustrator 30.1.0, SVG Export Plug-In . SVG Version: 2.1.1 Build 136)  -->
  <defs>
    <style>
      .st0 {
        fill: #fa7728;
      }

      .st1 {
        fill: #fa7727;
      }

      .st2 {
        fill: #554338;
      }

      .st3 {
        fill: #564339;
      }

      .st4 {
        fill: #f97626;
      }

      .st5 {
        fill: #908e89;
      }

      .st6 {
        fill: #db947e;
      }

      .st7 {
        fill: #f97625;
      }

      .st8 {
        fill: #f5cc40;
      }

      .st9 {
        fill: #d99983;
      }

      .st10 {
        fill: #386ba5;
      }

      .st11 {
        fill: #d99a84;
      }

      .st12 {
        fill: #d99782;
      }

      .st13 {
        fill: #aeaba7;
      }

      .st14 {
        fill: #da957f;
      }

      .st15 {
        fill: #386aa5;
      }

      .st16 {
        fill: #f3bba2;
      }

      .st17 {
        fill: #df9781;
      }

      .st18 {
        fill: #bc7660;
      }

      .st19 {
        fill: #f19f51;
      }

      .st20 {
        fill: #d9957d;
      }

      .st21 {
        fill: #8d8b87;
      }

      .st22 {
        fill: #da947e;
      }

      .st23 {
        fill: #f0a250;
      }

      .st24 {
        fill: #afada8;
      }

      .st25 {
        fill: #d99781;
      }

      .st26 {
        fill: #de9680;
      }

      .st27 {
        fill: #8b8984;
      }

      .st28 {
        fill: #8e8d88;
      }

      .st29 {
        fill: #d99680;
      }

      .st30 {
        fill: #f09f50;
      }

      .st31 {
        fill: #d7947c;
      }

      .st32 {
        fill: #da9580;
      }

      .st33 {
        fill: #d7eff1;
      }

      .st34 {
        fill: #f3bba1;
      }
    </style>
  </defs>
  <path class="st34" d="M407.7,207.5c1.4,3,1.3,7.9,0,10.9l1.2.7c2.3,6.7,4.6,13.5,6.7,20.2l.4,39.7c2.6-.6,5-1.5,7.3-3l1.3.6.8,1.2-.7,25.9c14.6-5.2,18.5-23,14.5-36.8-1.6-5.5-4.9-10.1-11.1-8.6l-1.1-.8c-.4-.2-1.1-.4-1.1-.7,0-2.3.9-14.3,1.9-15.4,1.3-1.3,4.8-.9,6.6-.5,2.2,0,3.4.8,3.7,2.1,6.4,3.1,11.4,8.3,14,15.3,2.5,6.6,3.7,13.5,3.3,20.7-.8,12.9-4.3,25.2-12.3,35.3-5.6,7.1-12.6,10.3-20.7,13.4-1.1,3.3-.8,6.2-1.1,9.5-2.2,25.3-11.9,49.1-28.6,68.1-1.2,1.3-2.9,2.8-2.9,4.3-.2.6-.3,1.1-.6,1.6s-.5,1-.9,1.3c-21.7,21.1-52.2,35.6-82.8,35.4-31.7-.2-62-14.4-84-36.7l-1.2-2.7c-.7-1.3-1.2-2.3-2.3-3.7-11.1-13.2-18.7-25.6-23.7-42.4-2.8-9.3-3.5-18.8-4.4-28.4-.3-2.3-.2-4.6-1.1-6.6-5.5-2.2-10.9-4.2-15.5-8.1-9.6-8.3-15.4-19.3-17.6-31.7-1.3-8.1-1.4-9.9-.3-18.2,1-6.9,3.8-13.3,7.4-19.1,2.2-3.7,6.1-5.2,9.4-7.2,0-.4-.2-1.1,0-1.2,2.5-.7,9.1-1.8,11.1-.4.7.5,1.8,13.5,1.8,15.4l-1.1.9-1.2.7c-5.9-2.3-10.2,4-11.3,9.2-3.3,13.9,0,31,15,36.3l-.9-27.2,1.1-.7,1.2-.5c2,1.8,5.2,3.7,7.6,3.4l.3-39.6c2.1-6.7,4.3-13.4,6.6-20.1l1.3-1.2-1-1.3v-7.6l1.1-1.3,1.5-.9c63.4,5.8,129,6.9,192.6.3,2.7,0,5.3,0,8-.2l1.1.9h0v-.5Z"/>
  <path class="st8" d="M357.1,27.8l1,.8c-4.5,31.2-8.7,62.4-12.7,93.4,1.6,0,2.5-1.6,2.8-4.7,6.4-27.9,13.3-55.3,20.5-82.7l1.3-.2c4.2,1.2,7.8,3.9,11.6,6.4,2.4,1.6,4.9,3,7.2,4.9,4.7,3.7,9,7.7,13.5,11.7,10.4,9.3,19.3,22.1,27.1,33.7,3.9,5.9,6.9,11.8,9.8,18.3,4.1,9.1,6.5,18.3,7.3,28.3,1.1,14.5,1.2,28.7,0,43.5,5.5,1.1,14.3-1.2,20.4,0,2.2.5,1.1,3.9,0,5.2-2.3,3.1-5.2,5.1-8.6,6.9-5.2,2.8-10.3,5.6-16.1,6.8-1.1.2-2,.3-2.3,1.2,0,.4,0,1.1-.2,1.2-9.8,2.1-20.8,4.1-30.7,5.7l-1.3-.8c-3.2,1-6.9,0-10.4.6-4.8.7-9.3.9-14.1,1.2l-17.1,1.3-7.6.5-7.7.5-19.5.4c-16.8.4-33.5.4-50.4,0l-16.2-.4-12-.6-9.3-.5-25.2-2.2c-4.7-.4-9.5-.3-13.7-1l-.2.7c-10.9-1.3-21.7-3.2-32.7-5.5l-.6-1.2c-.3-.7-1.1-1.2-2.1-1.3-5.9-1-10.8-3.3-15.8-6.1-3.9-2.3-7.7-5.1-8.7-9.7-.2-.9-.3-1.8.2-2.5.4-.5,1.3-.8,2.3-.7l16.4.6c.9,0,1.8,0,2.1-.8.2-.4.6-1.2.6-1.8-.7-8.3-.3-16.1-.4-24.3,0-10.2,0-20.3,2.2-30.3,1-4.3,2.6-8.4,3.9-12.5,2.5-7.6,5.9-14.3,10-21.1l3.7-6.2c6.4-10.9,13.2-18.4,22.9-26.6l5.4-4.5c8.8-7.5,18-14.1,28.1-19.2,1.3-.6,2.2.2,2.7,2.4,6.9,28.5,14,57,21.6,85.2h1.2c0,0-11.1-79.9-11.1-79.9-.5-4.2-1-8.4-1.2-12.6,0-.4.7-.6,1.2-.8,1.2-4,1-9.9,4.4-13.1,11.5-8.9,40-9.5,54.3-8.6,12.3.7,23.9,4,35.4,8.3,4.8,1.7,5.4,8.2,6.9,12.6h0v.2Z"/>
  <path class="st1" d="M432,466.5l1.3,1c0,79.9,0,159.9,0,239.9l-1.1.7h-118.1c-.5,0-1.1,0-1.1-.4-.4-18.1,0-36.7.7-54.8,2.8-8.5,6.1-16.6,10.1-24.4l81-168.3h1.2c2.6-1.2,5-1.9,7.9-1.1,6.3,1.9,13.1,3.5,18,7.5h0v-.2Z"/>
  <path class="st0" d="M205.3,459.5h1.2l89.7,185.9c1.9,4.8,2.4,9.9,2.5,15,.3,15,.6,32-.4,46.8l-1.2.8c-3.4.4-6.7,0-10.4,0h-42.2l-56.4.3h-8.3l-1.1-.5c.2-80.3,0-160.5-.5-240.6.4-.5.8-.9,1.3-1.2,3.6-2.8,8.2-3.5,12.4-5.4s8.6-2.9,13-1.1h0Z"/>
  <path class="st10" d="M391,452.9c.7.2,16,5.8,15.3,7l-44.9,93-9,18.7-27.5,57.1-5.6,12c-2.7,5.8-5,11-5,17.4v49.7c0,0-14.4,0-14.4,0-1.1,0-2.1,1-2.8,0l.3-17.2c0-7.6,0-14.9,0-22.5s.5-16.7-3.6-25.2l-14.8-30.7-28.9-59.7-23.8-49.5-5.8-11.8-15.5-31.9c5.1-2.5,10.4-4.8,15.8-6.7l1.7,1.7c28.4,69.5,139.4,69.2,166.7-.5l1.5-1.2h0Z"/>
  <path class="st15" d="M103.7,511.9l.9,1c-.3,64.8-.4,129.6-.3,194.5l-1.1.7h-23.5c0,0-47.3-.2-47.3-.2-3.4,0-6.4-.4-9.6-1.4-9.9-3.2-16.9-12.9-14.5-23.6l10.6-46.7c3.3-14.2,6.1-28.1,10.7-41.9l4.1-12.7c2.3-6.9,4.7-13.5,7.8-20.2,2.8-6.1,6.5-11,11.3-15.7,6-5.8,12.4-10.6,19.4-15.1l16.2-10.6c2.6-1.7,13.1-8.6,15.4-8.2h0Z"/>
  <path class="st10" d="M509.1,708l-1.1-.4s0-65.4-.4-196.4l1.1-.8,9.6,5.6,16,10.9c7.5,5.1,14.2,10.2,21,16.2,8.6,7.6,14.8,17,18.8,27.8,2.8,7.2,5.6,13.8,7.8,21.3,5.7,19.1,10.1,38.1,14.4,57.6l3.6,15.8,3.3,13.5c1.2,5,1.4,10.4-.6,15.3-3.7,9.2-12.7,13.5-22.6,13.5l-56.3.2h-14.9.3Z"/>
  <path class="st33" d="M179.8,466.1c-.4,1.1-.4,1.9,0,3.5v238.9c0,0-41.1-.3-41.1-.3-1.2,0-1.5-.6-1.4-1.7.4-72,.3-143.3-.2-215.1l-.6-5.4,1.2-.7c3-2.5,6.9-4,10.8-5.8l19.6-8.7c4-1.8,7.8-3.5,11.7-4.6h0Z"/>
  <path class="st33" d="M474.6,484.2c.8,1.2.8,2.7.2,4.5-.2,72.7-.2,145.7,0,218.6l-1.1.7h-41.1v-238.6c0-1.3,0-2-.4-2.8,1,.9,2.6.3,3.9.8l27.4,11c4.1,1.6,7.5,4.2,11.2,6h0Z"/>
  <path class="st4" d="M508.8,510.4v51.4c0,3.4.2,6.1.2,9.5v136.7c0,0-32.1,0-32.1,0-1.2,0-2.5.9-3.4,0v-211.8c0-4.5-.2-8.3,1-12l30.9,14.2c1.6.8,2.4,2.4,2.1,4.1-.5,2.8,1.1,5.3,1.1,7.8h.2Z"/>
  <path class="st7" d="M137.8,485.1c-.3,1.9.5,3.8.5,6.1l.4,50.2v143.9c0,6.7.3,13.2-.2,20,0,1.1,0,2,.3,2.8-2.8,1.3-6.1.2-9.2,0l-26.3-.2v-193.1c0-1.2.3-2.3.5-3,2.3-5.5-1.5-11.7,4.1-14.1l11.5-4.9,16.4-7.7c.7-.3,1.4,0,1.9,0h0Z"/>
  <path class="st16" d="M390.3,452.8l.7.2c-3.6,12.4-14.3,26.4-24.7,34.4-5.4,4.1-10.6,7.7-16.7,10.6-30.1,14.2-65.3,12.8-94-4-16-9.4-28.8-23.8-34.6-41.1.7-1,1-2.4.8-3.8-.6-6.4-.2-12.7,0-19.1,0-4.2-.4-8.2,0-12.1.6-1.3,1.9-1.3,3.9,0,39,47.1,106.3,60.8,161.6,35.4l3.2-.3h-.2Z"/>
  <path class="st26" d="M390.3,409.6v43.2c-29.2,14.5-67.3,18.1-99,8.9-25.1-7.2-47.1-21.5-64.6-40.8-1.1-2.4-3-3.2-5.2-3.3.2-3.1-.5-6.2-.6-9.2.8,1.3,2.6,2.2,3.8,3.5,17.8,18.2,40.8,29.7,66,33.5,11.8,1.8,23,1.7,34.7-.6,25.1-4.8,47.1-17.6,64.9-35.4h0Z"/>
  <path class="st24" d="M204.5,217.8c-1,7.5-6.9,17.4-6.9,22.6l-.2,40.2c-3.1-.6-6.1-1.5-8.4-3.4l-1.4-1.2-1.2-.6c-.9-5.5-1.7-11-2.5-16.5l1-1.1-1.4-15.5c-2.1-.4-4.4-.3-6.6,0l-3.9.8-3.1-17.1c-.8-4.1-.3-8.4-.3-12.3.2-1.1.5-1.9,1.1-2.7l23.4,5.2c3.7.7,7.2,1.3,10.6,1.8h0v-.2Z"/>
  <path class="st13" d="M438.5,242.9c-2.3-1.1-8.3-1.7-9.2-1.2s-.8,1.2-.9,2l-1.2,13.5c.3,0,.5,0,.7.2.9.5-1.6,16.5-2,18.5l-1.2.4c-3.1,1.5-6.1,3.4-9.7,3.8l-.3-39.9c0-5.3-6.1-15.7-6.9-22,.2-.5.5-.8,1-.9,10.4-1.3,21.2-3.7,31.2-7.1l1.2.3c.8,13.2-1.7,19.7-2.8,32.2h0Z"/>
  <path class="st19" d="M370,34.3c-.7,1.2-1,2.6-1.3,4.1l-7.5,29.7-8.2,33.4c-1.7,6.9-2.8,13.6-5,20.2-.4,1.2-2,1.5-2.8,1.3-1.1-.2-1.1-1.6-1-2.8l5.5-39.5,7.4-53,10.4,4.7c1.1.5,1.9,1.2,2.5,1.8h0Z"/>
  <path class="st30" d="M256.1,28.8c-.2.6,1,11.9,1.3,14.2l6.9,48.3,4.1,30.7c.2,1.2-1.8,1.2-2.5,1-.5-.2-1.2-.8-1.3-1.7l-6.2-25-7.2-28.4-7.4-30.4c-.3-1.3-.9-2.6-1.7-3.2,4.4-2.2,8.8-5.2,14.1-5.5h0Z"/>
  <path class="st27" d="M204.6,207.4c0,3.5.4,6.9,0,10.4-1,.7-2.3.9-3.7.6-10.2-1.9-20-4.1-30.1-6.6l-1.2,1.7c0-4,0-8.3,1.6-12l11.3,2.2,22,3.7h0Z"/>
  <path class="st21" d="M440,201.4c1,3.1,1.1,6.1,1.2,9.2-.5.7-1.2.9-2.1,1.2-8.9,2.8-17.8,4.8-27,6.3-1.6.3-3.1.7-4.3,0-.5-3.7-.4-7.2,0-10.9,2.5-.8,5-1.1,7.9-1.5l24.3-4.5h0v.2Z"/>
  <path class="st5" d="M271.5,237.7c-13.7-2.7-27.7-3.6-40.6,2.7-3.4,1.6-8.9,4-11.1,0-1-1.8-.4-3.6.8-5.3,11.4-16.3,35.4-17.6,52.8-11.4,3.7,1.2,6.1,4.3,6.1,7.9,0,2.2-.9,3.8-2.2,5.1-1.5,1.4-3.5,1.7-5.8,1.2h0Z"/>
  <path class="st28" d="M367.9,236.1c-9.2-1.3-18-.2-26.8,1.3-2.6.5-5.1,0-6.7-1.8-1.5-1.5-2.1-4.2-1.2-6.6,3-7.5,15-8.5,22.6-8.9,22.1-1.6,41.8,13.8,36.1,20.5-4.7,5.5-10.8-2.4-24-4.4Z"/>
  <path class="st6" d="M286.6,321.5c-2.1-1-3.9-3.9-2.3-6s5-1.8,7.1-.9c4.5,2.2,8.9,4.3,14,4.9,5.5.6,11.1-1.9,14.6-6,3.2-3.6-.5-16-1.5-21.3-2.2-10.3-4.5-20.3-6-30.7-.3-2.3-1.2-8.5,2.5-8.1.8,0,2,1.1,2.3,2.3l7.9,33.7c1.4,6.3,2.8,12.4,3.7,18.7.7,4.6-.8,8.7-4.2,12-5.8,5.5-14.5,9.5-22.7,7.1-5.4-1.6-10.3-3.7-15.3-6.1h0Z"/>
  <path class="st17" d="M184.9,257.6c.3,3.2,1.6,6.5,1.4,10-.2,3.1,1.2,5.6,1.3,8.3l1,29.5c-17.2-4.6-21.6-25.9-16.5-40.6,2-5.6,7.7-10.4,12.8-7.2h0Z"/>
  <path class="st26" d="M424.7,276.4c.3-1.8,1.3-3.8,1.2-6-.2-2.3,1.2-11.9,1.3-13.2,4.7-1.7,9.6.6,11.8,5.5,6.8,15,2.1,37.3-15.3,42.7l.6-25.2c0-1.4,0-2.8.5-3.8h0Z"/>
  <path class="st14" d="M332.5,425.2c13.1-7.9,12.5-15.9,16.4-14.3,5.8,2.2-5.6,18.4-20.3,23-13.5,4.1-28.1,4.2-41.7.7-17.2-4.4-28.2-21.3-22.8-23.6,1.4-.6,2.9,0,3.7,1.5,10,18.5,34.6,20.6,53,17.1,4.2-.8,7.9-2.1,11.5-4.3h0Z"/>
  <path class="st18" d="M326.1,360.9c-19.1,3.7-46.2,2.6-62.9-8.1-1.2-.8-1-3-.6-3.9.5-1.2,2.4-1.6,3.7-1.1l8.9,3.7c17.5,7,50.6,6.3,70.1-5.1,1.2-.7,3-1.2,4,0,1.8,2,.8,4.9-1.4,6.2-6.7,4.2-13.9,6.7-21.9,8.4h0Z"/>
  <path class="st3" d="M259.9,270.6c-1.9,2.8-4.7,4.1-7.4,4.2s-5.8-1.2-7.6-3.7c-4.2-5.9-4.3-14.2-.2-20.2,1.7-2.5,4.4-4.5,7.5-4.5s6.3,2.2,8.1,5c3.7,5.8,3.7,13.5-.4,19.2h0Z"/>
  <path class="st2" d="M366.9,271.2c-1.9,2.5-4.5,3.7-6.9,3.7s-5.2-1.2-7-3.3c-4.1-5-4.7-12.2-2.1-18.2,1.6-3.7,5.1-7,9.4-7s6.4,2.7,8.1,5.6c3.3,6,2.9,13.7-1.3,19.1h0Z"/>
  <path class="st20" d="M250.2,345.5c-4.6,8.5,0,18.1-4.2,18.6s-3.5-5.7-3.6-8.7c-.2-16,11.2-20.2,19.9-34.2.8-1.2,2.6-1.2,3.7-.7,5.7,3.3-12.5,19.1-15.8,25.1h0Z"/>
  <path class="st22" d="M367.9,344.7c2.1,4.9,3.6,19.4-.9,19.4s1.7-12.4-7.9-23.1l-5.3-5.9c-1.8-2-11.7-12.8-7.5-14.9,1.1-.5,3-.5,3.7.7,6.6,10.6,14.1,14.9,17.9,23.6h0Z"/>
  <path class="st32" d="M274.5,277c4.4,3.7-16.3,21.6-37.2,16.1-1.5-.4-1.6-2-1.3-3.2.3-1.2,1.7-1.9,3.2-1.7,11.9,1.5,23.4-2.2,31.5-11,1.1-1.1,2.8-1.2,3.8-.3h0Z"/>
  <path class="st12" d="M375.8,290.4c1,5.9-16.3,3.1-20.1,1.9-7.2-2.2-13.5-6.5-18.4-12-1.2-1.3-.5-3.1.7-3.9s2.3-.3,3.6,1.1c7.9,8.6,19.3,12.5,30.9,10.7,1.8-.3,3.1.8,3.4,2.3h0Z"/>
  <path class="st29" d="M323.8,375.4c1,6.4-24.1,8.8-34,3.2-1.2-.7-.6-2.4-.2-3.1,2.2-4,13,4.2,31.2-2.4,1.5-.6,2.8,1.4,2.9,2.4h0Z"/>
  <path class="st31" d="M397.9,272.2c1.3.7,1.3,2.4,1.2,3.4-.2,1.2-1.7,1.6-3.2,1.1l-9.5-3.6c-1.2-.4-1.6-1.5-1.5-2.4,0-.7,1-2.1,2.2-1.9,3.7.8,7.5,1.6,10.9,3.4h0Z"/>
  <path class="st25" d="M216.4,276.4c-1.8.7-3.1.2-3.6-1.1-1.4-4.2,6.2-4.8,11.1-6.4,1.2-.4,2.4,0,2.9.8.6,1.1.3,2.6-1.1,3.1l-9.4,3.6h0Z"/>
  <path class="st11" d="M224.5,261.8c1.6.4,2.2,1.3,2.2,2.4,0,4.3-10.7.7-12.9-.2-1.3-.6-1.5-2.1-1.3-3,.7-3.4,7.8,0,11.9.9h0Z"/>
  <path class="st9" d="M398.3,263.7c-2.1,1-11.9,4.2-12.8,1.4-.2-.7-.5-2.2.7-2.7,3.6-1.2,7.1-2.1,10.8-3,1.2-.3,2.3.5,2.5,1.4.2.9,0,2.3-1.2,2.8h0Z"/>
  <path class="st23" d="M331.7,175.3c-25.8-.7-50.6-.2-76.2,1.4-21.2,1.3-41.6,4.7-62.4,8.6-1.6.3-2.9-.3-3.3-1.4-.5-1.4,0-2.9,1.5-3.5,5.7-2.2,11.1-3.5,17.1-4.8,22.4-4.7,44.6-7.4,67.5-8.6,18.2-1,35.6-1.3,53.8-.5,27.9,1.2,64,5.1,90.4,13.5,1.3.5,2.5,1.7,2.4,2.9-.2,1.2-1.7,2.7-3.3,2.4l-16.8-3.3c-23.4-4.5-46.6-5.7-70.8-6.8h0Z"/>
</svg>