<svg width="44" height="44" viewBox="0 0 44 44" fill="none" xmlns="http://www.w3.org/2000/svg">
<circle cx="22" cy="22" r="22" fill="white"/>
<path d="M18.2571 11.8743L15.4202 14.7122C15.0343 15.0982 14.9185 15.6786 15.1272 16.1829C15.3362 16.6874 15.8292 17.0169 16.3752 17.0169H25.5627C27.5976 17.017 29.2942 17.6664 30.7258 18.9642C32.132 20.2389 32.8167 21.7832 32.8167 23.6878C32.8166 25.5923 32.132 27.1368 30.7258 28.4114C29.2942 29.7091 27.5975 30.3586 25.5627 30.3587H16.5579V30.1419H25.5627C27.4073 30.1418 29.0526 29.5457 30.4348 28.3568C31.8554 27.1347 32.5998 25.5492 32.5999 23.6878C32.5999 21.8262 31.8555 20.24 30.4348 19.0179C29.0526 17.829 27.4072 17.2338 25.5627 17.2337H16.3752C15.8292 17.2337 15.3362 17.5623 15.1272 18.0667C14.9184 18.5711 15.0341 19.1523 15.4202 19.5384L18.2571 22.3743L18.1243 22.5071L12.7424 17.1243L18.1243 11.7425L18.2571 11.8743Z" fill="#1D1B20" stroke="#315283" stroke-width="2.7"/>
</svg>
