<?xml version="1.0" encoding="UTF-8"?>
<svg id="Layer_1" data-name="Layer 1" xmlns="http://www.w3.org/2000/svg" viewBox="0 0 707.4 494.43">
  <defs>
    <style>
      .cls-1 {
        fill: #fff;
      }

      .cls-2 {
        fill: #dbf2f4;
      }
    </style>
  </defs>
  <path class="cls-1" d="M598.9,259.83c0-56.7-41.67-103.67-96.07-111.96C496.57,65.16,427.48,0,343.17,0c-68.93,0-127.68,43.56-150.24,104.65-5.22-.85-10.57-1.3-16.02-1.3-51.5,0-93.8,39.35-98.48,89.62C34.13,199.06,0,237.05,0,283.03s35.23,85.28,80.57,90.41h.79c3.14.33,415.77,0,415.77,0,57.15-5.75,101.77-54.95,101.77-113.62h0Z"/>
  <path class="cls-2" d="M502.84,147.87C496.58,65.16,427.49,0,343.18,0,328.26,0,313.82,2.05,300.12,5.87v367.7c87.77-.04,172.95-.1,192.73-.12,2.86,0,5.72-.12,8.55-.52,55.1-7.71,97.51-55.91,97.51-113.11s-41.67-103.67-96.07-111.96h0Z"/>
  <path class="cls-1" d="M553,178.58c-72.42-1.74-134.15,45.17-154.81,110.37-52.69,4.7-93.99,48.96-93.99,102.87,0,12.84,2.34,25.18,6.63,36.58,15.09,40.17,54.44,66.03,97.35,66.03h140.93c86.96,0,157.54-69.46,158.28-156.24.73-85.96-68.43-157.54-154.37-159.61h-.02Z"/>
  <path class="cls-2" d="M553,178.58c-12.13-.29-23.95.81-35.34,3.11v312.74h31.43c86.96,0,157.54-69.46,158.28-156.24.73-85.96-68.43-157.54-154.37-159.61h0Z"/>
</svg>