<?xml version="1.0" encoding="UTF-8"?>
<svg id="Layer_1" data-name="Layer 1" xmlns="http://www.w3.org/2000/svg" viewBox="0 0 603.32 460.52">
  <defs>
    <style>
      .cls-1 {
        fill: #ffbf4e;
      }

      .cls-2 {
        fill: #fff;
      }

      .cls-3 {
        fill: #dbf2f4;
      }
    </style>
  </defs>
  <path class="cls-1" d="M68.45,459.35c-20.7,0-40.76-2.75-59.83-7.88-10.06-2.71-11.77-16.32-2.68-21.42,70.03-39.34,117.36-114.32,117.36-200.37S75.98,68.65,5.94,29.31C-3.13,24.22-1.46,10.61,8.58,7.9,27.67,2.75,47.75,0,68.46,0c126.66,0,229.37,102.53,229.67,229.11.3,126.89-102.78,230.24-229.67,230.23h0Z"/>
  <path class="cls-2" d="M432.25,110.52c-80.26-1.93-148.66,50.06-171.56,122.3-58.39,5.21-104.16,54.25-104.16,113.99,0,14.23,2.6,27.9,7.34,40.54,16.72,44.51,60.33,73.17,107.88,73.17h156.17c96.37,0,174.58-76.97,175.4-173.14.81-95.26-75.84-174.58-171.07-176.88v.02Z"/>
  <path class="cls-3" d="M432.25,110.51c-13.44-.32-26.54.9-39.16,3.44v346.57h34.83c96.37,0,174.58-76.97,175.4-173.14.81-95.26-75.84-174.58-171.07-176.88h0Z"/>
</svg>