<?xml version="1.0" encoding="UTF-8"?>
<svg id="Layer_1" data-name="Layer 1" xmlns="http://www.w3.org/2000/svg" viewBox="0 0 453.06 462.65">
  <defs>
    <style>
      .cls-1 {
        fill: #ffbf4e;
      }
    </style>
  </defs>
  <path class="cls-1" d="M221.72,0C200.87,0,180.67,2.76,161.46,7.94c-10.14,2.73-11.86,16.44-2.7,21.58,70.54,39.62,118.2,115.14,118.2,201.81s-47.67,162.19-118.21,201.81c-9.13,5.13-7.45,18.84,2.66,21.56,19.23,5.18,39.45,7.95,60.32,7.95,127.57,0,231.02-103.26,231.33-230.76C453.37,104.08,349.54,0,221.73,0h-.01Z"/>
  <polygon class="cls-1" points="90.97 228.9 135.09 234.81 117.53 275.71 125.54 319.49 81.21 315.43 42.05 336.58 32.21 293.17 0 262.45 38.25 239.69 57.5 199.56 90.97 228.9"/>
  <polygon class="cls-1" points="178.54 146.63 193.96 162.67 174.36 173.21 163.87 192.83 147.79 177.45 125.88 173.54 135.54 153.49 132.5 131.44 154.55 134.44 174.57 124.73 178.54 146.63"/>
</svg>