<?xml version="1.0" encoding="UTF-8"?>
<svg id="Layer_1" xmlns="http://www.w3.org/2000/svg" version="1.1" viewBox="0 0 607.1 503">
  <!-- Generator: Adobe Illustrator 29.0.1, SVG Export Plug-In . SVG Version: 2.1.0 Build 192)  -->
  <defs>
    <style>
      .st0 {
        fill: #fff;
      }

      .st1 {
        fill: #88d9ea;
      }
    </style>
  </defs>
  <path class="st1" d="M517.5,246.6H126.2c-.7,0-1.4,0-2-.1-33.7-3.9-64.1-18.7-88.1-42.7-48-48-48-126,0-173.9C55.3,10.6,80.9,0,108.1,0s52.8,10.6,72.1,29.8c6.8,6.8,6.8,17.9,0,24.7-6.8,6.8-17.9,6.8-24.7,0-12.6-12.6-29.4-19.6-47.3-19.6s-34.7,7-47.3,19.6c-34.3,34.3-34.3,90.1,0,124.5,18.2,18.2,41.1,29.4,66.5,32.6h390.3c9.7,0,17.5,7.8,17.5,17.5s-7.8,17.5-17.5,17.5Z"/>
  <path class="st1" d="M103.4,502.9c-18.5,0-37.1-7.1-51.2-21.2-16.3-16.3-25.2-37.9-25.2-60.9s9-44.7,25.2-60.9c16.6-16.6,37.7-26.8,61-29.6.7,0,1.4-.1,2-.1h344.3c9.7,0,17.5,7.8,17.5,17.5s-7.8,17.5-17.5,17.5H116.2c-15,2-28.6,8.7-39.3,19.4-9.7,9.7-15,22.5-15,36.2s5.3,26.5,15,36.2c14.6,14.6,38.3,14.6,52.9,0,6.8-6.8,17.9-6.8,24.7,0,6.8,6.8,6.8,17.9,0,24.7-14.1,14.1-32.7,21.2-51.2,21.2Z"/>
  <path class="st0" d="M368.9,189.4h-199.8c-.7,0-1.4,0-2-.1-31.6-3.7-67.4-9.8-93-35.4-6.8-6.8-6.8-17.9,0-24.7,6.8-6.8,17.9-6.8,24.7,0,17.4,17.4,44.7,22.1,71.3,25.3h198.7c9.7,0,17.5,7.8,17.5,17.5s-7.8,17.5-17.5,17.5Z"/>
  <path class="st0" d="M589.6,307H119c-9.7,0-17.5-7.8-17.5-17.5s7.8-17.5,17.5-17.5h470.6c9.7,0,17.5,7.8,17.5,17.5s-7.8,17.5-17.5,17.5Z"/>
</svg>