<?xml version="1.0" encoding="UTF-8"?>
<svg id="Layer_1" data-name="Layer 1" xmlns="http://www.w3.org/2000/svg" viewBox="0 0 668.95 492.43">
  <defs>
    <style>
      .cls-1 {
        fill: #ffbf4e;
      }

      .cls-2 {
        fill: #fff;
      }

      .cls-3 {
        fill: #fddb45;
      }

      .cls-4 {
        fill: #dbf2f4;
      }
    </style>
  </defs>
  <g>
    <path class="cls-3" d="M190.9,56.48c-38.5,0-74.69,14.99-101.92,42.21-27.22,27.22-42.22,63.42-42.22,101.92s14.99,74.69,42.22,101.92,63.42,42.21,101.92,42.21,74.69-14.99,101.92-42.21c27.22-27.22,42.22-63.42,42.22-101.92s-14.99-74.69-42.22-101.92-63.42-42.21-101.92-42.21Z"/>
    <path class="cls-1" d="M292.82,98.69c-27.06-27.06-62.99-42.03-101.24-42.21v288.25c38.24-.18,74.17-15.14,101.24-42.21,27.22-27.22,42.22-63.42,42.22-101.92s-14.99-74.69-42.22-101.92h0Z"/>
  </g>
  <g>
    <path class="cls-1" d="M381.81,139.01l-52.79-38.32-19.88-62.13-65.23.02L191.31,0l-52.76,38.36-65.23-.29-20.13,62.05L.25,138.23l20.18,62.03L0,262.21l52.79,38.32,19.88,62.13,65.23-.02,52.6,38.58,52.76-38.36,65.23.29,20.13-62.05,52.94-38.11-20.18-62.03,20.43-61.95h0ZM320.78,299.88c-26.52,34.69-64.96,56.98-108.24,62.76s-86.22-5.64-120.92-32.16c-34.69-26.52-56.98-64.96-62.76-108.24-5.78-43.28,5.64-86.22,32.16-120.92,26.52-34.69,64.96-56.98,108.24-62.76,43.28-5.78,86.22,5.64,120.92,32.16,34.69,26.52,56.98,64.96,62.76,108.24,5.78,43.28-5.64,86.22-32.16,120.92Z"/>
    <path class="cls-3" d="M189.87,364.1c-35.4-.15-69.63-11.74-98.25-33.61-34.69-26.52-56.98-64.96-62.76-108.24s5.64-86.22,32.16-120.92c26.52-34.69,64.96-56.98,108.24-62.76,6.89-.92,13.77-1.4,20.61-1.46V1.05l-51.32,37.32-65.23-.29-20.13,62.05L.25,138.24l20.18,62.03L0,262.22l52.79,38.32,19.88,62.13,65.23-.02,51.98,38.12v-36.66h-.01Z"/>
  </g>
  <path class="cls-2" d="M668.94,373.97c0-59.04-43.39-107.95-100.03-116.57-6.52-86.12-78.46-153.97-166.25-153.97-71.77,0-132.94,45.36-156.44,108.97-5.43-.88-11-1.35-16.68-1.35-53.62,0-97.66,40.97-102.54,93.32-46.13,6.34-81.66,45.9-81.66,93.77s36.68,88.8,83.89,94.14h.83c3.27.34,432.91,0,432.91,0,59.51-5.99,105.97-57.22,105.97-118.31h0Z"/>
  <path class="cls-4" d="M568.92,257.4c-6.52-86.12-78.46-153.97-166.25-153.97-15.53,0-30.57,2.13-44.83,6.11v382.86c91.39-.04,180.08-.1,200.67-.12,2.98,0,5.96-.12,8.91-.54,57.37-8.03,101.53-58.21,101.53-117.77s-43.39-107.95-100.03-116.57h0Z"/>
</svg>