<?xml version="1.0" encoding="UTF-8"?>
<svg id="Layer_1" data-name="Layer 1" xmlns="http://www.w3.org/2000/svg" viewBox="0 0 577.99 561.01">
  <defs>
    <style>
      .cls-1 {
        fill: #fff;
      }

      .cls-2 {
        fill: #88d9ea;
      }

      .cls-3 {
        fill: #dbf2f4;
      }
    </style>
  </defs>
  <path class="cls-1" d="M577.98,250.75c0-54.72-40.22-100.05-92.71-108.05C479.23,62.89,412.55,0,331.19,0c-66.53,0-123.22,42.04-145,101-5.03-.82-10.19-1.25-15.46-1.25-49.7,0-90.52,37.98-95.04,86.5C32.93,192.12,0,228.79,0,273.16s34,82.3,77.76,87.25h.77c3.03.32,401.25,0,401.25,0,55.16-5.55,98.21-53.03,98.21-109.66h-.01Z"/>
  <path class="cls-3" d="M485.27,142.71C479.23,62.89,412.55,0,331.19,0c-14.4,0-28.34,1.97-41.55,5.66v354.87c84.71-.03,166.91-.1,186-.11,2.76,0,5.53-.11,8.25-.5,53.17-7.44,94.11-53.96,94.11-109.16s-40.22-100.05-92.71-108.05h-.01Z"/>
  <path class="cls-2" d="M239.07,509.35l-23.63-41.51c-1.95-3.43-6.9-3.43-8.85,0l-23.63,41.51c-.72,1.12-1.39,2.28-1.98,3.48h0c-2.3,4.69-3.54,9.99-3.41,15.61.46,17.74,14.95,32.17,32.69,32.56,18.82.42,34.2-14.72,34.2-33.44,0-6.72-1.98-12.97-5.39-18.21h.01Z"/>
  <path class="cls-2" d="M297.9,427.34l-15.94-28c-1.32-2.31-4.66-2.31-5.98,0l-15.94,28c-.48.76-.94,1.53-1.34,2.35h0c-1.56,3.17-2.39,6.74-2.29,10.53.3,11.96,10.08,21.71,22.04,21.97,12.7.28,23.07-9.93,23.07-22.56,0-4.53-1.34-8.75-3.64-12.28h.02Z"/>
  <path class="cls-2" d="M356.93,521.92l-15.94-28c-1.32-2.31-4.66-2.31-5.98,0l-15.94,28c-.48.76-.94,1.53-1.34,2.35h0c-1.56,3.17-2.39,6.74-2.29,10.53.3,11.96,10.08,21.71,22.04,21.97,12.7.28,23.07-9.93,23.07-22.56,0-4.53-1.34-8.75-3.64-12.28h.02Z"/>
  <path class="cls-2" d="M150.57,438.57l-28.61-50.25c-2.37-4.15-8.36-4.15-10.71,0l-28.61,50.25c-.88,1.35-1.68,2.75-2.4,4.22h0c-2.79,5.68-4.3,12.1-4.12,18.9.55,21.47,18.1,38.95,39.57,39.42,22.78.5,41.41-17.82,41.41-40.48,0-8.13-2.4-15.7-6.53-22.04h0Z"/>
  <path class="cls-2" d="M472.72,443.82l-28.61-50.25c-2.37-4.15-8.36-4.15-10.71,0l-28.61,50.25c-.88,1.35-1.68,2.75-2.4,4.22h0c-2.79,5.68-4.3,12.1-4.12,18.9.55,21.47,18.1,38.95,39.57,39.42,22.78.5,41.41-17.82,41.41-40.48,0-8.13-2.4-15.7-6.53-22.04h0Z"/>
</svg>