<?xml version="1.0" encoding="UTF-8"?>
<svg id="Layer_1" data-name="Layer 1" xmlns="http://www.w3.org/2000/svg" viewBox="0 0 465.57 489.19">
  <defs>
    <style>
      .cls-1 {
        fill: #ffbf4e;
      }

      .cls-2 {
        fill: #fddb45;
      }
    </style>
  </defs>
  <g>
    <path class="cls-2" d="M232.79,66.88c-47.47,0-92.1,18.49-125.67,52.05-33.57,33.57-52.05,78.2-52.05,125.67s18.49,92.1,52.05,125.67c33.57,33.57,78.2,52.05,125.67,52.05s92.1-18.49,125.67-52.05c33.57-33.57,52.05-78.2,52.05-125.67s-18.49-92.1-52.05-125.67c-33.57-33.57-78.2-52.05-125.67-52.05Z"/>
    <path class="cls-1" d="M358.46,118.93c-33.37-33.37-77.67-51.83-124.83-52.04v355.42c47.16-.22,91.46-18.67,124.83-52.04s52.05-78.2,52.05-125.67-18.49-92.1-52.05-125.67h0Z"/>
  </g>
  <g>
    <path class="cls-1" d="M465.57,169.49l-64.36-46.73-24.24-75.75-79.54.03L233.29,0l-64.33,46.77-79.54-.35-24.55,75.65L.32,168.53l24.61,75.64L.02,319.7l64.36,46.73,24.24,75.75,79.54-.03,64.14,47.04,64.33-46.78,79.54.35,24.55-75.65,64.55-46.46-24.61-75.64,24.91-75.54v.02ZM391.15,365.65c-32.33,42.3-79.2,69.48-131.98,76.53-52.77,7.05-105.13-6.88-147.43-39.21s-69.48-79.2-76.53-131.98c-7.05-52.77,6.88-105.13,39.21-147.43,32.33-42.3,79.2-69.48,131.98-76.53,52.77-7.05,105.13,6.88,147.43,39.21s69.48,79.2,76.53,131.98c7.05,52.77-6.88,105.13-39.21,147.43h0Z"/>
    <path class="cls-2" d="M231.53,443.95c-43.17-.18-84.9-14.31-119.8-40.98-42.3-32.33-69.48-79.2-76.53-131.98s6.88-105.13,39.21-147.43c32.33-42.3,79.2-69.48,131.98-76.53,8.4-1.12,16.79-1.71,25.13-1.78V1.28l-62.58,45.5-79.54-.35-24.55,75.65L.3,168.54l24.61,75.64L0,319.71l64.36,46.73,24.24,75.75,79.54-.03,63.38,46.48v-44.7h.01Z"/>
  </g>
</svg>