<?xml version="1.0" encoding="UTF-8"?>
<svg id="Layer_1" xmlns="http://www.w3.org/2000/svg" viewBox="0 0 465.6 489.2" class="sun-icon">
  <defs>
    <style>
      .st0 { fill: #ffbf4e; }
      .st1 { fill: #fddb45; }

      /* Sun: gentle inward pulse (never grows beyond 1, avoids cropping) */
      .sun-core {
        transform-origin: 233px 245px;
        animation: sunIn 2.6s ease-in-out infinite;
      }

      /* Rays: subtle rotate + inward pulse (kept inside by scaling down) */
      .sun-rays {
        transform-origin: 233px 245px;
        animation: raysSpinIn 6.5s linear infinite;
      }

      @keyframes sunIn {
        0%, 100% { transform: scale(1); opacity: 1; }
        50% { transform: scale(0.955); opacity: 0.98; }
      }

      @keyframes raysSpinIn {
        0% { transform: rotate(0deg) scale(0.94); opacity: 0.95; }
        50% { transform: rotate(180deg) scale(0.92); opacity: 0.9; }
        100% { transform: rotate(360deg) scale(0.94); opacity: 0.95; }
      }

      @media (prefers-reduced-motion: reduce) {
        .sun-core, .sun-rays { animation: none; }
      }
    </style>
  </defs>

  <!-- Core (disc) -->
  <g class="sun-core">
    <path class="st1" d="M232.8,66.9c-47.5,0-92.1,18.5-125.7,52-33.6,33.6-52,78.2-52,125.7s18.5,92.1,52,125.7c33.6,33.6,78.2,52,125.7,52s92.1-18.5,125.7-52c33.6-33.6,52-78.2,52-125.7s-18.5-92.1-52-125.7c-33.6-33.6-78.2-52.1-125.7-52Z"/>
    <path class="st0" d="M358.5,118.9c-33.4-33.4-77.7-51.8-124.8-52v355.4c47.2-.2,91.5-18.7,124.8-52s52-78.2,52-125.7-18.5-92.1-52-125.7h0Z"/>
  </g>

  <!-- Rays (behind/around core) -->
  <g class="sun-rays">
    <path class="st0" d="M465.6,169.5l-64.4-46.7-24.2-75.8h-79.5S233.3,0,233.3,0l-64.3,46.8-79.5-.3-24.5,75.7L.3,168.5l24.6,75.6L0,319.7l64.4,46.7,24.2,75.8h79.5s64.1,47,64.1,47l64.3-46.8,79.5.4,24.5-75.6,64.6-46.5-24.6-75.6,24.9-75.5h0s0,0,0,0ZM391.1,365.6c-32.3,42.3-79.2,69.5-132,76.5-52.8,7-105.1-6.9-147.4-39.2s-69.5-79.2-76.5-132c-7-52.8,6.9-105.1,39.2-147.4,32.3-42.3,79.2-69.5,132-76.5,52.8-7,105.1,6.9,147.4,39.2,42.3,32.3,69.5,79.2,76.5,132,7,52.8-6.9,105.1-39.2,147.4h0Z"/>
    <path class="st1" d="M231.5,444c-43.2-.2-84.9-14.3-119.8-41-42.3-32.3-69.5-79.2-76.5-132s6.9-105.1,39.2-147.4c32.3-42.3,79.2-69.5,132-76.5,8.4-1.1,16.8-1.7,25.1-1.8V1.3l-62.6,45.5-79.5-.3-24.5,75.7L.3,168.5l24.6,75.6L0,319.7l64.4,46.7,24.2,75.8h79.5s63.4,46.5,63.4,46.5v-44.7h0Z"/>
  </g>
</svg>