<?xml version="1.0" encoding="UTF-8"?>
<svg id="Layer_1" data-name="Layer 1" xmlns="http://www.w3.org/2000/svg" viewBox="0 0 540.23 549.14">
  <defs>
    <style>
      .cls-1 {
        fill: #ffbf4e;
      }

      .cls-2 {
        fill: #fff;
      }

      .cls-3 {
        fill: #88d9ea;
      }

      .cls-4 {
        fill: #dbf2f4;
      }
    </style>
  </defs>
  <path class="cls-2" d="M516.98,261.31c0-48.95-35.97-89.49-82.93-96.64-5.4-71.4-65.05-127.64-137.82-127.64-59.5,0-110.22,37.6-129.69,90.34-4.5-.73-9.12-1.12-13.83-1.12-44.45,0-80.97,33.97-85.01,77.36C29.46,208.86,0,241.66,0,281.35s30.41,73.62,69.55,78.05h.69c2.71.28,358.9,0,358.9,0,49.34-4.97,87.85-47.44,87.85-98.08h-.01Z"/>
  <path class="cls-4" d="M434.05,164.67c-5.4-71.4-65.05-127.64-137.82-127.64-12.88,0-25.34,1.77-37.17,5.06v317.41c75.76-.03,149.29-.09,166.36-.1,2.47,0,4.94-.1,7.38-.45,47.56-6.65,84.17-48.26,84.17-97.64s-35.97-89.49-82.93-96.64h.01Z"/>
  <path class="cls-3" d="M226.57,482.68l30.4-53.4c2.51-4.41,8.87-4.41,11.39,0l30.4,53.4c.93,1.44,1.79,2.93,2.55,4.48h0c2.96,6.03,4.56,12.86,4.38,20.08-.59,22.82-19.23,41.39-42.05,41.89-24.21.53-44.01-18.93-44.01-43.03,0-8.64,2.56-16.68,6.94-23.42h0Z"/>
  <path class="cls-3" d="M150.89,377.17l20.51-36.03c1.7-2.98,5.99-2.98,7.68,0l20.51,36.03c.63.97,1.21,1.98,1.72,3.02h0c2,4.07,3.08,8.68,2.95,13.55-.4,15.39-12.97,27.92-28.37,28.26-16.33.36-29.69-12.77-29.69-29.03,0-5.83,1.72-11.25,4.68-15.8h.01Z"/>
  <path class="cls-3" d="M110.92,493.83l16.14-28.35c1.33-2.34,4.71-2.34,6.05,0l16.14,28.35c.5.76.95,1.56,1.35,2.38h0c1.57,3.2,2.42,6.83,2.32,10.66-.31,12.11-10.21,21.97-22.33,22.24-12.85.28-23.36-10.05-23.36-22.84,0-4.59,1.36-8.86,3.68-12.44h.01Z"/>
  <path class="cls-1" d="M355.26,299.83L440.93,18.73c3.56-11.16,13.92-18.73,25.63-18.73h0c18.33,0,31.29,17.93,25.55,35.33l-44.43,149.21c-5.79,17.55,12.47,33.38,29.02,25.15l33.42-16.62c16.38-8.14,34.54,7.3,29.14,24.77l-89.52,289.68c-3.8,12.28-15.15,20.66-28.01,20.66h0c-19.98,0-34.11-19.55-27.83-38.52l51.51-155.75c5.81-17.58-12.5-33.42-29.06-25.14l-31.96,15.98c-16.46,8.23-34.72-7.39-29.13-24.93h0Z"/>
</svg>