<svg width="27" height="33" viewBox="0 0 27 33" fill="none" xmlns="http://www.w3.org/2000/svg">
<path fill-rule="evenodd" clip-rule="evenodd" d="M24.4282 5.45882C24.1103 5.394 23.8824 5.11424 23.8824 4.79012V2.72941C23.8824 1.22209 22.6603 0 21.1529 0H4.09412C1.8328 0 0 1.8328 0 4.09412V28.6588C0 30.9201 1.8328 32.7529 4.09412 32.7529H23.8824C25.3897 32.7529 26.6118 31.5308 26.6118 30.0235V8.18824C26.6384 6.87061 25.7192 5.72221 24.4282 5.45882ZM20.4706 18.0824C20.4624 18.2168 20.3778 18.3355 20.2536 18.3874C20.1287 18.4392 19.9854 18.4167 19.8838 18.328L17.3045 15.7351C17.1646 15.6102 16.9531 15.6102 16.8132 15.7351L14.2339 18.328C14.1172 18.4024 13.9684 18.4024 13.8518 18.328C13.7269 18.2734 13.6464 18.1499 13.6471 18.0141V7.84706C13.6471 7.65873 13.7999 7.50588 13.9882 7.50588H20.1294C20.3177 7.50588 20.4706 7.65873 20.4706 7.84706V18.0824ZM21.1529 5.06306C21.1693 5.16268 21.1407 5.26435 21.0745 5.34078C21.009 5.41652 20.9128 5.46019 20.8118 5.45882H4.09412C3.34012 5.45882 2.72941 4.84812 2.72941 4.09412C2.72941 3.34012 3.34012 2.72941 4.09412 2.72941H20.8118C21.0001 2.72941 21.1529 2.88226 21.1529 3.07059V5.06306Z" fill="#8F64B3"/>
</svg>
