<?xml version="1.0" encoding="UTF-8"?>
<svg id="Layer_1" xmlns="http://www.w3.org/2000/svg" version="1.1" viewBox="0 0 283.5 283.5">
  <!-- Generator: Adobe Illustrator 30.1.0, SVG Export Plug-In . SVG Version: 2.1.1 Build 136)  -->
  <defs>
    <style>
      .st0 {
        fill: #417d61;
      }
    </style>
  </defs>
  <g id="_x31__x25_20_x28_275_x29_">
    <path class="st0" d="M13.7,107c0-42.2,29.9-77.6,70.6-84.5,34.5-5.8,69.9,11.2,87,41.9,7.5,13.4,11.3,27.7,11,43-.3,15.6-4.5,30.1-12.9,43.2-1.2,1.9-1.1,2.9.6,4.3,3.5,3,6.9,6.2,10.3,9.3,1,.9,1.7,1.1,2.9.2,5-3.7,10.9-3.1,15.4,1.2,1,1,.9,1.7,0,2.7-9,9.8-17.9,19.5-26.8,29.3-1.3,1.4-2.1,1-3.2-.1-3.8-4-4.5-10.2-1.4-14.9,1-1.5.7-2.1-.5-3.2-3.5-3-7-6.1-10.3-9.3-1.4-1.3-2.2-1.3-3.7,0-11.6,10-25,16.4-40.1,19-24.9,4.2-47.3-1.8-66.9-17.4-17.3-13.6-27.8-31.5-31.2-53.4-.6-4-.9-8.1-.7-11.3ZM97.9,165.6c31.6.8,59.8-27,59.6-59.3-.2-33.2-26.4-60.3-58.9-60.4-32.9-.1-60.2,26.9-60.2,59.7,0,32.9,26.8,59.9,59.6,60Z"/>
    <path class="st0" d="M253.6,216.1c-.3.4-.6.9-1,1.3-8.8,9.5-17.6,18.9-26.3,28.5-1.9,2.1-2.9,1.7-4.7.1-6.6-6.1-13.4-12.1-20.1-18.1-7.6-6.9-15.5-13.5-22.9-20.6-1.6-1.5-1.6-2.4,0-4,8.9-9.4,17.6-18.9,26.3-28.4,1.4-1.5,2.3-1.6,3.8-.2,7.7,7,15.5,14,23.2,21,6.8,6.2,13.5,12.4,20.3,18.7.5.5,1.2.9,1.4,1.9Z"/>
    <path class="st0" d="M245.8,262.1c-5.1,0-8.5-2-11.5-4.9-3.3-3.3-3.3-3.2-.2-6.5,7.9-8.5,15.7-17.1,23.6-25.5,3.6-3.8,2.6-3.7,6.7-.2,5.2,4.5,6.8,10.5,4.5,16.6-.8,2.2-2.4,4-3.9,5.7-3.1,3.5-6.2,6.9-9.3,10.3-2.8,3.1-6.4,4.5-9.8,4.6Z"/>
  </g>
</svg>