<svg width="36" height="37" viewBox="0 0 36 37" fill="none" xmlns="http://www.w3.org/2000/svg">
<path fill-rule="evenodd" clip-rule="evenodd" d="M1.58324 14.8135C1.58324 16.9344 3.30286 18.6541 5.42378 18.6541C7.5447 18.6541 9.26432 16.9344 9.26432 14.8135C9.26432 12.6926 7.5447 10.973 5.42378 10.973C3.30286 10.973 1.58324 12.6926 1.58324 14.8135ZM26.1313 14.8135C26.1313 16.9344 27.851 18.6541 29.9719 18.6541C32.0928 18.6541 33.8124 16.9344 33.8124 14.8135C33.8124 12.6926 32.0928 10.973 29.9719 10.973C27.851 10.973 26.1313 12.6926 26.1313 14.8135ZM16.9141 6.27027C16.048 6.27027 15.3465 5.56878 15.3465 4.7027V1.56757C15.3465 0.701486 16.048 0 16.9141 0C17.7801 0 18.4816 0.701486 18.4816 1.56757V4.7027C18.4816 5.56878 17.7801 6.27027 16.9141 6.27027ZM26.1157 3.73081C25.5043 3.12338 24.5168 3.12338 23.9054 3.73081L21.6795 5.94108C21.3824 6.23578 21.2155 6.6363 21.2155 7.05405C21.2155 7.47181 21.3824 7.87232 21.6795 8.16703C21.9742 8.46408 22.3747 8.63103 22.7924 8.63103C23.2102 8.63103 23.6107 8.46408 23.9054 8.16703L26.1157 5.94108C26.7231 5.32973 26.7231 4.34216 26.1157 3.73081ZM11.0357 8.62162C10.5975 8.64122 10.1712 8.47662 9.86 8.16703L7.71243 5.94108C7.27665 5.32503 7.34249 4.48559 7.8684 3.944C8.39432 3.40319 9.2314 3.31305 9.86 3.73081L12.1486 5.94108C12.4457 6.23578 12.6126 6.6363 12.6126 7.05405C12.6126 7.47181 12.4457 7.87232 12.1486 8.16703C11.8532 8.46016 11.4526 8.62397 11.0357 8.62162ZM24.5951 36.0541V25.5043C20.6841 25.1164 17.3679 22.4632 16.1303 18.7324L14.8135 14.7665C14.5917 14.1316 14.6607 13.4309 15.0016 12.8509C15.3433 12.2717 15.9218 11.8712 16.5849 11.7568C17.7331 11.6078 18.8202 12.3101 19.1557 13.4184L20.4411 17.2589C21.1614 19.4614 23.2188 20.949 25.5357 20.9427H32.2762C34.0076 20.9427 35.4114 22.3465 35.4114 24.0778V36.0541H24.5951ZM13.8416 19.4692V19.2654C12.8094 20.3596 11.3641 20.9686 9.86 20.9427H3.13513C1.40376 20.9427 0 22.3465 0 24.0778V36.0541H10.8005V25.5043C12.7044 25.3233 14.5165 24.5998 16.0205 23.4195C15.0565 22.2485 14.3174 20.909 13.8416 19.4692Z" fill="#E8C66C"/>
</svg>
