<svg width="33" height="33" viewBox="0 0 33 33" fill="none" xmlns="http://www.w3.org/2000/svg">
<path fill-rule="evenodd" clip-rule="evenodd" d="M32.4424 15.4576L17.3899 0.405049C17.1326 0.145736 16.783 0 16.4183 0C16.0537 0 15.704 0.145736 15.4468 0.405049L0.39426 15.4576C0.00631612 15.851 -0.107262 16.4394 0.106894 16.9491C0.316945 17.4602 0.813678 17.7948 1.36583 17.7975H3.07634C3.26518 17.7975 3.41845 17.9508 3.41845 18.1396V31.4816C3.41845 32.2377 4.03081 32.85 4.78685 32.85H12.6552C12.844 32.85 12.9973 32.6968 12.9973 32.5079V26.008C12.9973 24.1189 14.5292 22.587 16.4183 22.587C18.3074 22.587 19.8394 24.1189 19.8394 26.008V32.5079C19.8394 32.6968 19.9926 32.85 20.1815 32.85H28.0498C28.8059 32.85 29.4182 32.2377 29.4182 31.4816V18.1396C29.4182 17.9508 29.5715 17.7975 29.7603 17.7975H31.4708C32.023 17.7948 32.5197 17.4602 32.7298 16.9491C32.9439 16.4394 32.8304 15.851 32.4424 15.4576Z" fill="#007F9C"/>
</svg>
