<svg width="34" height="23" viewBox="0 0 34 23" fill="none" xmlns="http://www.w3.org/2000/svg">
<path fill-rule="evenodd" clip-rule="evenodd" d="M27.1662 0H6.26913C2.80997 0.00763527 0.00768108 2.80006 1.88325e-05 6.24704V20.0183C-0.00276744 20.7846 0.303723 21.5197 0.849832 22.059C1.40082 22.6059 2.14824 22.9114 2.92561 22.9058C5.71188 22.9058 6.06016 22.0729 8.76285 16.8531L9.77984 14.9235C10.4102 13.8414 11.5749 13.1785 12.8308 13.1882H20.6045C21.8256 13.1861 22.9582 13.824 23.5858 14.8679C24.0456 15.7287 24.4356 16.4922 24.7839 17.1585C27.2916 22.0173 27.7513 22.9058 30.454 22.9058C31.246 22.9093 32.008 22.5997 32.5715 22.0451C33.1253 21.4926 33.436 20.7436 33.4353 19.9628V6.24704C33.4276 2.80006 30.6253 0.00763527 27.1662 0ZM10.1003 8.32938H9.05541C8.6709 8.32938 8.35884 8.64035 8.35884 9.0235V10.0647C8.35884 10.6394 7.89074 11.1058 7.31399 11.1058C6.73723 11.1058 6.26913 10.6394 6.26913 10.0647V9.0235C6.26913 8.64035 5.95707 8.32938 5.57256 8.32938H4.52771C3.95095 8.32938 3.48286 7.86294 3.48286 7.28821C3.48286 6.71348 3.95095 6.24704 4.52771 6.24704H5.57256C5.95707 6.24704 6.26913 5.93607 6.26913 5.55292V4.51175C6.26913 3.93702 6.73723 3.47058 7.31399 3.47058C7.89074 3.47058 8.35884 3.93702 8.35884 4.51175V5.55292C8.35884 5.93607 8.6709 6.24704 9.05541 6.24704H10.1003C10.677 6.24704 11.1451 6.71348 11.1451 7.28821C11.1451 7.86294 10.677 8.32938 10.1003 8.32938ZM22.2902 8.32938C21.5205 8.32938 20.8971 7.70815 20.8971 6.94115C20.8971 6.17416 21.5205 5.55292 22.2902 5.55292C23.0599 5.55292 23.6833 6.17416 23.6833 6.94115C23.6833 7.70815 23.0599 8.32938 22.2902 8.32938ZM25.773 11.1058C25.0033 11.1058 24.3799 10.4846 24.3799 9.71761C24.3799 8.95062 25.0033 8.32938 25.773 8.32938C26.5428 8.32938 27.1662 8.95062 27.1662 9.71761C27.1662 10.4846 26.5428 11.1058 25.773 11.1058ZM25.773 5.55292C25.0033 5.55292 24.3799 4.93169 24.3799 4.16469C24.3799 3.39769 25.0033 2.77646 25.773 2.77646C26.5428 2.77646 27.1662 3.39769 27.1662 4.16469C27.1662 4.93169 26.5428 5.55292 25.773 5.55292ZM29.2559 8.32938C28.4862 8.32938 27.8627 7.70815 27.8627 6.94115C27.8627 6.17416 28.4862 5.55292 29.2559 5.55292C30.0256 5.55292 30.649 6.17416 30.649 6.94115C30.649 7.70815 30.0256 8.32938 29.2559 8.32938Z" fill="#417D61"/>
</svg>
