<svg width="33" height="33" viewBox="0 0 33 33" fill="none" xmlns="http://www.w3.org/2000/svg">
<path fill-rule="evenodd" clip-rule="evenodd" d="M29.4208 5.47364H25.9998V8.89466H28.7366C29.4926 8.89466 30.105 9.50702 30.105 10.2631V25.3156C30.105 26.0716 29.4926 26.684 28.7366 26.684H19.1577C18.7985 26.6826 18.4551 26.5396 18.1998 26.2871C18.1164 26.3467 18.0295 26.4014 17.9398 26.4514C17.5663 26.6032 17.1667 26.6819 16.763 26.684C16.1534 26.686 15.5574 26.5047 15.0525 26.164V29.4208C15.0525 31.3099 16.5844 32.8418 18.4735 32.8418H29.4208C31.3099 32.8418 32.8418 31.3099 32.8418 29.4208V8.89466C32.8418 7.00557 31.3099 5.47364 29.4208 5.47364ZM16.0378 24.3303C16.3306 24.628 16.7767 24.7148 17.1599 24.5493C17.543 24.3926 17.7921 24.019 17.7893 23.6051V21.2103C17.7893 20.8327 18.0958 20.5261 18.4735 20.5261H21.5525C22.8716 20.5186 23.9396 19.4506 23.9472 18.1314V2.39472C23.9396 1.07557 22.8716 0.00752625 21.5525 0H2.39472C1.07557 0.00752625 0.00752625 1.07557 0 2.39472V18.1314C0.00752625 19.4506 1.07557 20.5186 2.39472 20.5261H11.9736C12.1556 20.5268 12.3314 20.5952 12.4662 20.7177L16.0378 24.3303ZM13.1504 13.7525L10.0031 16.2704C9.7985 16.4387 9.51455 16.4709 9.27782 16.3525C9.04313 16.2375 8.89398 15.9981 8.89466 15.7367V14.0262C8.89466 13.8374 8.7414 13.6841 8.55256 13.6841H8.21046C7.07673 13.6841 6.15784 12.7652 6.15784 11.6315V6.15784C6.15784 5.02412 7.07673 4.10523 8.21046 4.10523H16.4209C17.5546 4.10523 18.4735 5.02412 18.4735 6.15784V11.6315C18.4735 12.7652 17.5546 13.6841 16.4209 13.6841H13.3557C13.2818 13.6861 13.2106 13.7094 13.1504 13.7525Z" fill="#E39F58"/>
</svg>
