<svg width="30" height="30" viewBox="0 0 30 30" fill="none" xmlns="http://www.w3.org/2000/svg">
<path fill-rule="evenodd" clip-rule="evenodd" d="M26.25 0H3.75C1.67875 0 0 1.67875 0 3.75V26.25C0 28.3212 1.67875 30 3.75 30H26.25C28.3212 30 30 28.3212 30 26.25V3.75C30 1.67875 28.3212 0 26.25 0ZM25.625 25.9375H23.4375C22.92 25.9375 22.5 25.5175 22.5 25C22.5 24.4825 22.92 24.0625 23.4375 24.0625H25.625C26.1425 24.0625 26.5625 24.4825 26.5625 25C26.5625 25.5175 26.1425 25.9375 25.625 25.9375ZM12.8125 25.9375H4.375C3.8575 25.9375 3.4375 25.5175 3.4375 25C3.4375 24.4825 3.8575 24.0625 4.375 24.0625H12.8125C13.33 24.0625 13.75 24.4825 13.75 25C13.75 25.5175 13.33 25.9375 12.8125 25.9375ZM15.625 25C15.625 23.6194 16.7444 22.5 18.125 22.5C19.5056 22.5 20.625 23.6194 20.625 25C20.625 26.3806 19.5056 27.5 18.125 27.5C16.7444 27.5 15.625 26.3806 15.625 25ZM3.125 19.375C2.78 19.375 2.5 19.095 2.5 18.75V3.75C2.5 3.05938 3.05938 2.5 3.75 2.5H26.25C26.9406 2.5 27.5 3.05938 27.5 3.75V18.75C27.5 19.095 27.22 19.375 26.875 19.375H3.125ZM19.35 9.4875L11.95 5.175C11.5519 4.90313 11.0325 4.885 10.6156 5.12813C10.1994 5.37063 9.95938 5.83188 10 6.3125V15C9.95938 15.4806 10.1994 15.9419 10.6156 16.1844C11.0325 16.4275 11.5519 16.4094 11.95 16.1375L19.35 11.825C19.7887 11.6006 20.065 11.1494 20.065 10.6562C20.065 10.1631 19.7887 9.71187 19.35 9.4875Z" fill="#D1454C"/>
</svg>
