<?xml version="1.0" encoding="UTF-8"?>
<svg id="Layer_1" data-name="Layer 1" xmlns="http://www.w3.org/2000/svg" viewBox="0 0 745.29 745.29">
  <defs>
    <style>
      .cls-1 {
        fill: #183d74;
      }

      .cls-2 {
        fill: #f5792c;
      }

      .cls-3 {
        fill: #f0c840;
      }

      .cls-4 {
        fill: #d49a78;
      }

      .cls-5 {
        fill: #ec9c50;
      }

      .cls-6 {
        fill: #244771;
      }

      .cls-7 {
        fill: #4570a5;
      }

      .cls-8 {
        fill: #5d3f31;
      }

      .cls-9 {
        fill: #fdfefe;
      }

      .cls-10 {
        fill: #c37c5b;
      }
    </style>
  </defs>
  <path class="cls-1" d="M390.48,703.04c-39.85,2.41-80.82-2.85-119.61-15.36-100.69-32.48-180.14-111.25-213.3-211.5-21.57-65.2-21.86-139.05-.79-205.07,11-34.48,31.09-72.43,53.64-101.34,16.76-21.5,40.56-44.92,62.45-61.46,44.78-33.85,100.61-56.65,155.39-63.48,35.34-4.4,72.93-3.36,105.9,2.94,53.95,10.31,101.86,32.56,146.18,67.89,11.78,9.4,36.27,33.65,46.43,46,43.79,53.23,69.12,115.88,74.92,185.33,1.12,13.44.47,51-1.11,63.51-5.06,40.23-15.32,74.67-32.53,109.17-16.05,32.18-34.53,58.28-59.2,83.6-58.44,59.98-134.44,94.7-218.36,99.78ZM368.9,685.99c1.4,1.4,37.82-1.33,53.81-4.04,49.7-8.41,94.94-27.58,134.87-57.18,63.17-46.81,106.07-114.14,121.43-190.62,4.62-23.02,5.47-32.33,5.49-60.77.01-26.25-.31-31.12-3.3-50.22-13.53-86.31-64-164.24-137.89-212.87-40.74-26.81-88.09-43.6-139.01-49.27-13.54-1.51-54.68-1.3-68.05.36-70.96,8.76-132.97,38.23-182.6,86.73-26.62,26.02-45.44,51.59-61.61,83.71-20.37,40.47-30.74,80.04-33.14,126.45-2.96,57.34,11.57,118.52,39.99,168.32,6.13,10.73,19.84,31.16,26.58,39.58,42.04,52.59,96.94,89.5,160.19,107.71,25.04,7.21,53.52,11.7,74.15,11.69,4.75,0,8.84.19,9.08.43Z"/>
  <path class="cls-6" d="M532.18,502.74c-.87.5-3.3.9-5.41.88-3.24-.03-8.77-2.02-35.85-12.96-17.61-7.11-32.68-13.29-33.48-13.73-1.91-1.06-4.73-4.34-4.18-4.88.23-.24.09-.43-.31-.43-.79,0-1.03-.97-1.12-4.55-.08-3.08.23-4.16,3.44-11.9,3.3-7.96,4.14-10.12,3.92-10.12-.09,0,.28-.82.82-1.82.55-1,1.07-2.15,1.15-2.55s.68-1.96,1.32-3.46,1.19-2.97,1.21-3.28c.03-.3.71-1.61,1.51-2.91.81-1.3,1.24-2.37.96-2.37s.03-.82.68-1.82c.66-1,.98-1.82.73-1.82s.07-.82.73-1.82c.66-1,.98-1.82.73-1.82s.07-.82.73-1.82c.66-1,1-1.82.79-1.82s0-.74.5-1.64.93-1.8.96-2c.11-.73,3.37-9.03,3.84-9.77.26-.43.53-1.11.6-1.51.07-.4.63-1.97,1.26-3.47.63-1.51,1.18-2.98,1.22-3.28.04-.29.55-1.27,1.14-2.17s.87-1.64.61-1.64.07-.82.73-1.82c.66-1,1-1.82.79-1.82s0-.74.49-1.64.96-1.97,1.04-2.37c.22-1.14,3.17-8.41,4.1-10.12.47-.84.9-1.86.98-2.26.07-.4.65-1.97,1.27-3.47.63-1.51,1.14-2.92,1.13-3.13-.01-.21.49-1.19,1.14-2.17.64-.98.96-1.78.71-1.78s.07-.82.73-1.82c.66-1,.98-1.82.73-1.82s.07-.82.73-1.82c.66-1,.98-1.82.73-1.82s.07-.82.73-1.82c.66-1,1-1.82.79-1.82s0-.74.5-1.64c.49-.9.84-1.89.75-2.18-.08-.3.23-.55.7-.55s.65-.2.4-.44c-.4-.41.54-3.2,3.42-10.09.6-1.43,1.08-2.77,1.06-2.98-.01-.21.49-1.19,1.14-2.17.64-.98.96-1.78.71-1.78s.09-.85.77-1.89c.68-1.04,1.39-2.75,1.58-3.81.2-1.06.74-2.17,1.22-2.47.47-.31.64-.56.37-.56-.57-.01,2.82-8.67,3.93-10.02.41-.5.53-.91.27-.91s-.07-.74.42-1.64.96-1.97,1.03-2.37c.29-1.53,7.02-17.51,7.73-18.38.41-.5.51-.91.21-.91s-.13-.49.36-1.09.66-1.09.37-1.09,0-.82.66-1.82c.66-1,1-1.82.79-1.82s0-.74.49-1.64.95-1.97,1.03-2.37c.07-.4.68-2.04,1.35-3.64s1.19-3,1.16-3.1c-.03-.1.45-1.16,1.07-2.36s1.13-2.42,1.14-2.72c0-.31.5-1.29,1.09-2.19s.89-1.64.67-1.64,0-.74.5-1.64.93-1.81.96-2,.46-1.1.96-2,.7-1.64.44-1.64.07-.82.72-1.82c.66-1,.98-1.82.73-1.82s.07-.82.73-1.82c.66-1,.98-1.82.73-1.82s.07-.82.73-1.82c.66-1,1-1.82.79-1.82s0-.74.5-1.64c.89-1.61,1.05-2.05,1.24-3.41.04-.37,1.27-1.93,2.71-3.46,2.47-2.62,2.9-2.79,7.33-2.92,4.75-.14,12.61,2.08,12.61,3.56,0,.36.28.49.63.28.84-.52,6.65,1.79,6.65,2.63,0,.36.29.48.64.26.55-.34,44.97,17.18,49.14,19.38,3.87,2.05,6.62,7.55,5.86,11.74-.32,1.78-14.29,37.29-17.8,45.25-.71,1.6-17.61,43.8-37.56,93.77-20.16,50.51-36.94,91.56-37.79,92.43-.84.87-2.23,1.98-3.11,2.48ZM519.41,494.5c3.14,1.38,6.4,2.52,7.24,2.55,1.91.07,4.62-2.23,5.01-4.24.16-.84.55-1.94.87-2.44.31-.5.61-1.24.68-1.64.07-.4.7-2.04,1.41-3.64.71-1.6,1.37-3.16,1.45-3.46.09-.3.23-.63.31-.73s.25-.76.39-1.46c.13-.71.95-2.74,1.81-4.53.87-1.78,1.53-3.44,1.46-3.68-.06-.23.41-1.23,1.06-2.21.64-.98.96-1.78.7-1.78s-.09-.46.38-1.02c.46-.56.96-1.64,1.11-2.4s.78-2.61,1.4-4.09c.62-1.49,1.12-2.88,1.11-3.09s.49-1.19,1.14-2.17c.64-.98.98-1.78.76-1.78s0-.74.49-1.64.96-1.97,1.03-2.37c.19-1,4.67-12.15,5.25-13.08.25-.41.53-1.17.61-1.68.08-.52.82-2.23,1.64-3.82.83-1.59,1.31-2.89,1.06-2.89s-.03-.49.47-1.09.66-1.09.37-1.09,0-.82.66-1.82c.66-1,.98-1.82.73-1.82s.07-.82.73-1.82c.66-1,.98-1.82.73-1.82s.07-.82.73-1.82c.66-1,1.04-1.82.85-1.82-.48,0,3.79-10.22,4.77-11.4.44-.54.6-.98.33-.98s-.07-.74.43-1.64.96-1.89,1.03-2.18c.07-.3.2-.79.29-1.09.1-.3.14-.79.09-1.09-.05-.3.3-.55.76-.55s.63-.22.36-.49c-.27-.27.01-1.25.63-2.18.61-.93.9-1.7.65-1.7s.07-.82.73-1.82c.66-1,.98-1.82.73-1.82s.07-.82.73-1.82c.66-1,1-1.82.79-1.82s0-.74.49-1.64.95-1.97,1.03-2.37c.07-.4.68-2.04,1.35-3.64s1.15-2.91,1.06-2.91c-.09,0,.29-.82.85-1.82.55-1,1.06-2.07,1.12-2.37.07-.3.2-.79.29-1.09.1-.3.14-.79.09-1.09-.05-.3.26-.55.68-.55s.61-.26.41-.57c-.2-.32.32-2.04,1.16-3.82.84-1.78,1.63-3.84,1.77-4.56.15-.73.76-2.28,1.36-3.45.61-1.18,1.03-2.23.95-2.33-.09-.1.36-1.17,1.02-2.37,1.13-2.08,2.13-4.68,2.1-5.46,0-.2.47-1.1,1.06-2s.89-1.64.67-1.64,0-.74.5-1.64.94-1.81.97-2c.17-.96,1.44-4.32,2.76-7.28.81-1.81,1.54-3.6,1.62-4,.09-.4.68-1.97,1.31-3.47.63-1.51,1.18-2.98,1.22-3.28.04-.29.55-1.27,1.14-2.17s.89-1.64.67-1.64,0-.74.49-1.64.97-1.97,1.05-2.37c.25-1.19,6.19-15.9,7.07-17.47.44-.8.83-1.62.86-1.82s.46-1.1.96-2,.7-1.64.44-1.64.07-.82.72-1.82c.66-1,1-1.82.79-1.82s0-.74.5-1.64.94-1.81.97-2c.17-.96,1.44-4.32,2.76-7.28,2.48-5.55,2.38-8.07-.4-9.56-3.97-2.13-64.31-26.1-65.69-26.1-2.54,0-3.73,1.52-5.99,7.64-1.18,3.2-9.93,25.15-19.46,48.76-9.52,23.62-22.53,55.87-28.9,71.69-39.78,98.67-40.83,101.39-40.17,103.26.46,1.32,1.84,2.3,5,3.57,2.4.96,4.48,2.05,4.61,2.42.13.36.5.5.82.31.72-.44,14.86,5.39,15.2,6.27.13.36.5.48.82.28.61-.37,19.02,6.64,19.67,7.49.21.28.71.51,1.11.52,1.45.02,6.19,2.11,6.19,2.72,0,.34.3.44.66.22.36-.23,3.23.71,6.37,2.09ZM259.67,493.79c-3.7,1.54-10.42,1.42-14.11-.26-5.7-2.58-7.53-5.28-12.93-19.02-6.87-17.45-11.57-32.07-15.43-47.99-1.8-7.42-4.24-15.84-5.43-18.74-2.74-6.66-2.81-10-.26-12.65l1.9-1.99-1.59-4.77c-1.51-4.54-1.71-4.78-4.27-5.2-12.77-2.05-17.8-5.11-21.24-12.9-.84-1.9-1.67-3.46-1.84-3.46s-1.55.47-3.06,1.05c-22.2,8.48-30.57,10.41-35.06,8.09-2.99-1.54-6.46-5.81-7.28-8.94-.84-3.21-2.76-132.76-2.01-135.73.68-2.71,4.68-7.11,7.54-8.31,3.02-1.26,7.62-1.25,10.66.01,3.02,1.26,5.14,3.8,26.38,31.64,9.57,12.54,26.21,34.32,36.97,48.4,10.76,14.08,20.18,26.9,20.91,28.5.74,1.6,1.35,4.2,1.36,5.77.01,3.15-2.14,8.24-4.34,10.23-.78.71-8.51,3.84-17.18,6.99-8.68,3.14-15.96,5.89-16.19,6.11-1.03,1.03,2.18,2.61,7.33,3.6,3.1.6,6.78,1.62,8.17,2.28,5.02,2.39,7.96,7.02,12.23,19.35.28.83.98,1.07,2.31.82,1.24-.23,2.44.12,3.44,1,1.72,1.53,4.42,7.17,5.7,11.95.47,1.75,2.42,6.3,4.33,10.12,7,14,14.28,32.51,20.47,52.05,4.2,13.28,4.67,17.98,2.26,22.66-1.89,3.68-6.32,7.93-9.75,9.36ZM149.08,369.25c1.07.68,2.76,1.11,3.76.94,2.32-.39,28.56-9.8,29.24-10.49.28-.28-.85-4.71-2.5-9.83-2.91-9-2.98-9.41-1.95-12.31.58-1.65,1.9-3.62,2.94-4.39,2.69-1.99,7.19-2.44,10-.99,2.69,1.39,4.12,4.04,7.44,13.71,1.43,4.16,2.83,7.1,3.39,7.1,2.52,0,29.8-10.34,30.96-11.74,1.43-1.7,1.67-5.09.52-7.23-.41-.78-9.97-13.45-21.24-28.16-11.27-14.71-28.34-37.05-37.93-49.67-9.6-12.61-18.28-23.83-19.29-24.93-2.58-2.81-6.04-2.74-8.97.2l-2.2,2.2.42,25.28c.23,13.9.6,36.41.83,50.02s.49,31.62.6,40.03c.2,16.42.52,18.04,3.99,20.26ZM513.21,461.75c-2.11,1.09-6.54,1.97-7.74,1.54-.4-.15-1.6-.46-2.67-.69-2.75-.6-6.23-3.74-7.99-7.2-2.27-4.44-1.56-7.8,5.12-24.43,5.6-13.92,5.91-14.97,5.12-17.37-1.79-5.42-.84-8.41,16.73-52.21,9.31-23.2,17.53-43.37,18.27-44.83,1.47-2.88,5.59-6.84,7.86-7.56,1.05-.33,3.11-4.58,7.77-16.01,7.69-18.89,9.48-21.01,17.53-20.94,4.13.04,7.1,1.25,9.51,3.9,5.04,5.56,4.64,8.8-3.49,28.9-4,9.88-6.87,18.09-7.18,20.49-.74,5.83-35.18,91.6-38.23,95.21-1.46,1.72-4.66,8.69-9.02,19.6-6.97,17.47-8.27,19.88-11.6,21.6ZM502.98,454.46c1.23,1.04,3.01,1.89,3.96,1.89,3.27,0,5.13-2.91,10.45-16.38,2.85-7.21,5.18-13.3,5.18-13.55s-1.3-.66-2.9-.92c-1.59-.25-4.05-1.02-5.47-1.69-1.59-.76-2.82-.97-3.24-.54-1.32,1.35-10.23,24.93-10.23,27.1,0,1.57.65,2.75,2.24,4.09ZM565.5,311.13c.96,1.03,2.05,1.76,2.4,1.64.74-.25,11.44-26.34,11.44-27.88,0-3.14-3.18-6.14-6.48-6.14-3.67,0-4.8,2.1-15.11,28.11-.18.46,1.04,1.15,2.84,1.61,1.74.44,3.95,1.63,4.91,2.66ZM218.17,385.51c1.67,4.45,2.26,5.31,3.65,5.32,2.57.01,2.67-1.69.47-7.74-3.17-8.67-5.92-11-14.48-12.24-4.96-.73-8.84-2.86-10.32-5.68-.68-1.3-3.07-7.76-5.32-14.37-3.52-10.34-4.3-12.04-5.69-12.24-1-.15-1.8.23-2.08.98-.71,1.84,8.23,28.32,10.44,30.95,2.54,3.01,4.68,3.98,11.8,5.32,7.5,1.41,8.87,2.56,11.54,9.69Z"/>
  <path class="cls-7" d="M368.9,685.99c-.24-.24-4.33-.43-9.08-.43-.68,0-1.35,0-2.05-.01,1.51-.14,1.77-.57,2.1-1.86.63-2.5.37-24.78-.35-30.6-.65-5.24-3.36-11.27-25.55-56.89-4.35-8.94-7.91-16.36-7.91-16.48s-4.13-8.68-9.19-19.03c-5.05-10.35-10.9-22.42-13.01-26.83-2.1-4.4-7.16-14.84-11.24-23.19-4.08-8.35-7.31-15.27-7.19-15.38.47-.41,11.73-5.47,12.18-5.47.25,0,1.03,1.52,1.72,3.38,1.98,5.33,8.75,14.91,14.05,19.87,9.15,8.56,21.35,15.1,35.02,18.76,6.28,1.69,8.5,1.91,18.77,1.91s12.41-.21,18.83-1.97c14.12-3.87,23.95-9.05,32.72-17.23,8.26-7.71,11.91-12.94,17.69-25.31.05-.12,2.93,1.18,6.38,2.9,3.45,1.71,6.18,3.28,6.06,3.49-.64,1.08-16.1,32.72-24.37,49.87-5.22,10.81-13.28,27.45-17.93,36.99-4.64,9.53-8.44,17.45-8.44,17.58,0,.13-4.77,10.17-10.6,22.32-5.83,12.14-11.24,23.95-12.01,26.25-1.23,3.65-1.4,6.3-1.4,21.01v16.71c-2.98.04-4.9-.07-5.2-.37ZM531.31,642.28v-111.84l4.18,2.35c6.03,3.38,20.08,14.08,25.34,19.28,5.16,5.1,14.26,17.06,18.43,24.22,1.56,2.68,4.43,8.55,6.36,13.06,1.94,4.51,3.75,8.19,4.01,8.19.03,0,.07-.01.13-.04-10.04,9.72-20.78,18.83-32.18,27.27-8.52,6.31-17.28,12.15-26.27,17.51ZM202.7,636.24c-20.3-13.08-39.15-28.57-56.3-46.3.51.49.87.77,1.02.82.41.14.81-.46.87-1.33.07-.87.54-1.85,1.06-2.18.52-.33.7-.61.39-.61-1.3-.03,8.81-18.12,10.52-18.81.33-.14.59-.55.59-.91,0-1.14,5.18-7.94,6.63-8.72.76-.41,1.38-1.19,1.38-1.74,0-1.11,7.6-8.31,14-13.25,3.71-2.87,18.22-11.89,19.13-11.89.19,0,.43,23.65.53,52.56l.19,52.37ZM262.34,666.17c-19.24-7.2-37.6-16.21-54.94-26.95l4.02,2.39c16.54,9.82,33.49,18,50.91,24.56ZM671.36,464.41c5.15-16.95,8.95-34.64,11.48-53.19.17-1.22.32-2.36.45-3.46-.82,8.03-2.14,15.74-4.28,26.38-2.06,10.26-4.61,20.36-7.65,30.26ZM410.08,683.66c13.28-1.67,26.17-4.07,38.73-7.22-8.56,2.18-17.26,4.02-26.1,5.51-3.44.58-7.85,1.17-12.63,1.71ZM345.31,684.94c-6.43-.51-13.26-1.32-20.26-2.42,6.28.92,13.98,1.83,20.26,2.42ZM125.48,566.16c-3.42-4.27-8.63-11.63-13.73-19.24,5.27,7.84,10.74,15.5,14.59,20.31l-.85-1.07ZM620.44,563.12c4.68-6.11,9.1-12.31,13.25-18.62-4.18,6.36-8.6,12.57-13.25,18.62ZM137.54,580.43c-3.14-3.52-6.24-7.13-9.26-10.81,2.8,3.4,6.15,7.29,9.26,10.81ZM603.6,583.23c.99-1.09,1.97-2.19,2.94-3.28-.98,1.1-1.96,2.19-2.94,3.28Z"/>
  <path class="cls-8" d="M380.1,474.94c-6.22,1.11-17.79,1.22-24.56.25-16.16-2.33-29.64-10.6-48.26-29.62-9.72-9.93-15.63-18.06-20.84-28.71-5.95-12.17-7.52-21.52-13.73-82.06l-1.6-15.65-5.08-.09-5.09-.08-.54-2.47c-1.89-8.65-3.64-30.48-2.45-30.48.17,0,2.7.5,5.62,1.11,2.91.61,8.37,1.58,12.13,2.14,3.76.57,6.96,1.15,7.1,1.29.14.15-.92,3.68-2.37,7.87-1.75,5.09-2.73,9.4-2.95,13.06-.47,7.44,1.72,36.41,3.39,45.02,4.11,21.24,10.2,34.43,20.17,43.76,5.54,5.18,14.4,11.28,15.44,10.63.4-.25.95-1.51,1.22-2.8.92-4.36,4.67-11.26,7.56-13.86,3.2-2.9,11.94-6.03,22.76-8.17,6.24-1.24,6.42-1.23,12.96.39l6.64,1.64,6.15-1.65c7.36-1.98,10.57-1.64,23.93,2.53,11.56,3.61,14.21,6.3,18.2,18.42l1.5,4.57,5.79-3.81c3.19-2.09,7.86-5.87,10.39-8.39,8.85-8.85,12.83-17.06,17.78-36.6,2.34-9.29,3.04-13.73,3.9-25.11.58-7.61,1.06-17.66,1.06-22.34,0-8.1-.14-8.92-2.9-16.68-1.6-4.49-2.83-8.21-2.73-8.28.29-.18,24.86-4.05,25.58-4.03.88.03-.12,15.23-1.63,24.71l-1.2,7.58-5.17-.17-5.17-.17-.44,2.78c-.24,1.52-1.27,11.13-2.29,21.33-5.47,54.97-6.83,62.45-13.85,76.38-6.56,13.04-19.08,27.58-34.46,40.07-11.83,9.6-19.82,13.52-31.97,15.68ZM346.39,437.12c3.57.92,6.92.1,9.64-2.37,1.22-1.09,1.16-1.32-1.03-4.37-1.85-2.58-2.15-3.47-1.52-4.46.64-.99,1.56-1.16,4.7-.87,2.15.2,6.7.36,10.09.36s7.5-.16,9.1-.36c2.71-.33,2.93-.23,3.13,1.54.15,1.23-.46,2.71-1.71,4.2-1.62,1.92-1.78,2.48-1,3.43,1.6,1.93,4.85,3.21,8.1,3.2,6.08-.01,15.01-7.1,18.14-14.39,2.49-5.79,2.57-9.54.33-14.45-3.53-7.71-3.69-7.79-22.25-10.53-7.96-1.18-12.45-1.47-18.26-1.16-9.61.49-28.96,3.93-30.68,5.44-.7.62-2.14,2.95-3.2,5.18-2.58,5.46-2.6,10.09-.06,15.36,3.7,7.67,9.1,12.34,16.49,14.25ZM436.25,314.72c-.55,1.43-3.67,1.46-6.11.04-1-.57-4.44-1.91-7.64-2.95-5.15-1.69-6.58-1.86-12.37-1.48-3.6.23-8.3.9-10.44,1.48-4.09,1.11-5.73.88-7.19-.99-1.08-1.39-1.22-7.06-.18-7.7,1.23-.76,13.85-2.5,18.2-2.52,5.15-.01,11.48,1.6,17.25,4.41,7.68,3.73,9.83,6.19,8.48,9.71ZM306.62,313.71c-5.95,2.7-7.98,2.77-9.08.33-.75-1.64-.58-2.1,1.56-4.31,4.59-4.74,16.05-9.13,23.79-9.13,5.26,0,14.69,1.38,17.54,2.58,2.74,1.14,3.12,3.33,1.22,7.01-.36.69-.51,1.19-.84,1.5-.76.73-2.45.49-9.69-.52-.93-.13-1.96-.27-3.09-.43-7.9-1.08-14.44-.17-21.41,2.98ZM415.07,344.25c-1.16.91-2.96,1.46-4.75,1.46-5.82,0-9.43-6.32-8.21-14.39.57-3.82,3.89-7.75,7.25-8.6,2.54-.63,6.43,1.14,8.12,3.71,2.93,4.46,1.54,14.7-2.41,17.81ZM327.88,344.14c-3.71,2.92-8.67,1.72-11.09-2.67-4.48-8.16-1.03-18.31,6.22-18.31,5.27,0,8.89,4.43,8.89,10.9,0,4.56-1.38,8.01-4.01,10.08Z"/>
  <path class="cls-10" d="M380.1,474.94c12.15-2.17,20.15-6.08,31.97-15.68,12.26-9.95,22.69-21.2,29.75-31.97-3.97,6.26-8.76,12.16-14.79,18.31l-7.21,7.35.28,9.16c.26,8.58.42,9.43,2.58,13.61,1.46,2.8,3.94,5.93,6.71,8.44l4.4,3.99-5.63,2.57c-7.35,3.35-8.89,3.9-15.83,5.71-7.54,1.97-26.04,2.58-33.12,1.1-17.84-3.73-39.67-15.6-56.24-30.56-4.66-4.21-7.84-6.59-8.06-6.06-.2.49-.4-1.07-.44-3.47l-.07-4.37-8.06-8.37c-3.99-4.14-7.39-8.12-10.38-12.15,3.17,4.24,6.84,8.44,11.32,13.02,18.62,19.01,32.1,27.29,48.26,29.62,6.77.98,18.34.86,24.56-.25ZM457.97,289.53c-4.03.65-7.16,1.17-7.26,1.24s1.13,3.78,2.73,8.28c.84,2.37,1.44,4.08,1.87,5.56-.45-1.25-1.04-1.73-1.78-1.42-.66.27-4.79,1.27-9.19,2.23-7.06,1.52-9.16,1.9-9.35,2.72-.08.34.17.75.52,1.35.07.12.15.25.23.39.36.62.6,1.25.73,1.88-.66-2.15-3.33-4.14-8.69-6.75-5.77-2.81-12.1-4.43-17.25-4.41-4.35.01-16.97,1.76-18.2,2.52-1.03.64-.9,6.31.18,7.7.81,1.03,1.66,1.56,2.95,1.64-1.19-.04-1.99-.39-2.45-1.07-.22-.31-11.72-.66-25.56-.76-20.84-.16-25.38-.01-26.41.84-.04.04-.08.07-.12.09.27-.31.42-.77.74-1.39,1.91-3.68,1.53-5.87-1.22-7.01-2.85-1.19-12.28-2.58-17.54-2.58-7.52,0-18.52,4.14-23.36,8.71.08-.08.17-.17.25-.25l3.08-3.14-4.23-.84c-2.32-.47-6.84-1.36-10.04-1.99-3.2-.63-6.4-1.46-7.12-1.85-1.1-.58-1.5-.25-2.49,2.07-.03.07-.06.13-.09.2.42-1.59.94-3.27,1.55-5.04,1.44-4.18,2.5-7.72,2.37-7.87-.15-.14-3.34-.72-7.1-1.29-.97-.15-2.05-.31-3.17-.5,19.67,3.14,49.67,5.18,85.18,5.76,35.52.57,74.91-1.44,100.24-5.01ZM277.37,377.51c-.9-6.4-1.24-7.88-2.09-8.28-.41-.19-.93-.14-1.68-.26-8.23-1.34-15.95-11.78-15.95-21.58s3.08-16.16,8.85-17.72c1.62-.44,3.42-.62,4-.39.86.33,1.01-.52.83-4.86l-.21-5.26,1.6,15.64c1.9,18.51,3.36,32.24,4.65,42.72ZM456.42,379.94c1.13-9.27,2.37-21.21,3.96-37.14.74-7.37,1.47-14.43,1.91-18.36-.07.87-.11,1.71-.11,2.34,0,2.52.03,2.55,3.25,2.63,6.68.19,9.9,4.81,10.42,14.96.36,7.21-.61,10.98-4.33,16.78-2.51,3.92-5.98,6.48-10.68,7.89-2.55.76-3.07,1.24-3.36,3.15-.12.83-.55,3.89-1.07,7.74ZM378.58,379.39c-6.83,3.14-15.17,3.5-21.89.95-5.54-2.1-8.44-4.66-7.76-6.81.74-2.31,2.07-2.39,8.93-.49,7.85,2.17,9.38,2.2,16.66.25l.75-.2c6.16-1.64,7.64-2.04,8.34-1.47.25.2.4.52.63.95,1.3,2.44-.28,4.35-5.67,6.82ZM204.15,637.18c-.49-.31-.98-.63-1.46-.94l-.19-52.37c-.1-28.45-.33-51.81-.52-52.54.2-.09.38-.17.52-.23,1.2-.44,1.28,2.5,1.46,52.82l.19,53.26ZM455.54,334.37c-.09,1.27-.17,2.52-.26,3.7-.72,9.48-1.32,14.15-2.86,20.82,1.35-6.59,2.29-13.47,2.85-20.82.09-1.27.18-2.5.27-3.7ZM279.81,348.92c1.03,8.28,2.42,14.59,4.76,22.6.39,1.35.8,2.66,1.23,3.94-1.91-5.5-3.52-11.75-4.91-18.93-.35-1.78-.72-4.45-1.08-7.61ZM444.83,383.6c-2.58,5.83-5.57,10.2-9.64,14.55,3.96-4.33,7.15-9.16,9.64-14.55ZM475.06,286.89c-1.75.24-5.17.76-8.89,1.35.12-.02.24-.04.36-.07,1.02-.19,1.94-.36,2.78-.52,2.84-.54,4.64-.87,5.75-.76ZM408.53,393.98c-2.5-2.05-5.82-3.43-10.81-4.99,6.59,2.06,8.71,3.01,10.81,4.99ZM475.87,301.54c.54-5.63.84-11.06.71-13.48.27.93.16,2.47-.01,4.85-.06.72-.12,1.52-.17,2.41-.11,1.81-.3,3.99-.52,6.22ZM277.5,311.51c.04-.63.1-1.27.18-1.94-.23,2.79-.25,6.39-.07,11.08-.17-3.98-.23-7.26-.11-9.15ZM455.73,306.25c.57,2.55.62,4.8.61,9.48,0,.47,0,1.01-.01,1.59.05-5-.15-8.7-.6-11.07ZM205.08,637.76l7.08,4.24c1.47.88,2.95,1.75,4.45,2.61-1.73-.99-3.46-1.99-5.17-3.01l-4.02-2.38h0c-.78-.49-1.56-.98-2.33-1.46ZM284.36,412.23c-1.99-4.88-3.28-9.81-4.51-17.2,1.36,7.88,2.73,12.8,4.51,17.2ZM416.28,408.49l.07.27-.44-1.35c-.52-1.58-1.02-3-1.52-4.29.75,1.73,1.39,3.55,1.89,5.36ZM339.77,312.08c-.95.18-2.39.03-5.2-.43-.12-.02-.24-.04-.36-.06,3.03.41,4.64.58,5.57.49ZM419.76,410.44l-2.34,1.54-.04-.12,2.39-1.42ZM327.63,310.68c-2.69-.29-5.04-.41-7.19-.36,2.3-.09,4.68.03,7.19.36ZM435.21,315.61c-.68.34-1.62.36-2.79.04,1.05.23,2.05.22,2.79-.04ZM257.95,286.03c-.53.09-.46,4.67-.04,10.44-.43-5.82-.52-10.44.02-10.44h.01ZM191.59,537.36c-3.62,2.29-7.16,4.62-8.74,5.84,1.75-1.35,5.19-3.62,8.74-5.84ZM421.21,311.4c-1.99-.6-3.46-.96-4.97-1.14,1.54.15,2.96.51,4.97,1.14ZM262.34,666.17h0c-1.66-.63-3.32-1.27-4.98-1.93,3.99,1.57,8.01,3.06,12.05,4.48-2.37-.82-4.72-1.67-7.07-2.55ZM266.27,287.68c-1.02-.19-1.94-.37-2.69-.53-.77-.16-1.51-.31-2.19-.45,1.07.21,2.32.47,3.64.74.41.08.82.17,1.24.25ZM430.24,314.83c-.23-.1-.45-.22-.68-.33-.2-.1-.44-.22-.72-.34.57.25,1.03.47,1.3.62.04.02.07.04.1.06ZM401.87,311.35c-.86.16-1.6.32-2.18.47-.37.1-.73.19-1.07.27.33-.08.69-.17,1.07-.28.57-.15,1.32-.31,2.18-.47ZM299.41,315.74c1.38.29,3.54-.37,7.16-2.01-3.62,1.64-5.78,2.3-7.16,2.01ZM463,319.28l.09-.59h0l-.09.59Z"/>
  <path class="cls-4" d="M436.25,314.72c.41-1.06.49-2.03.21-2.96-.13-.63-.37-1.26-.73-1.88-.08-.14-.15-.27-.23-.39-.36-.6-.6-1.01-.52-1.35.19-.82,2.29-1.2,9.35-2.72,4.4-.95,8.54-1.96,9.19-2.23.74-.31,1.32.17,1.78,1.42.17.57.31,1.12.42,1.64.45,2.37.65,6.07.6,11.07-.07,4.23-.38,10.98-.78,17.05-.09,1.2-.17,2.44-.27,3.7-.57,7.34-1.51,14.23-2.85,20.82-.31,1.33-.66,2.74-1.04,4.29-2.21,8.7-4.21,15.15-6.55,20.42-2.49,5.39-5.68,10.22-9.64,14.55h0c-.51.55-1.04,1.09-1.59,1.64-2.53,2.53-7.2,6.3-10.39,8.39l-3.45,2.26-2.39,1.42-1.02-3.1-.07-.27c-.49-1.81-1.14-3.63-1.89-5.36-1.67-4.31-3.34-7.07-5.87-9.15-2.1-1.97-4.21-2.93-10.81-4.99-13.36-4.17-16.57-4.51-23.93-2.53l-6.15,1.65-6.64-1.64c-6.54-1.62-6.72-1.62-12.96-.39-10.82,2.14-19.56,5.27-22.76,8.17-2.89,2.61-6.65,9.51-7.56,13.86-.28,1.3-.82,2.55-1.22,2.8-1.04.65-9.9-5.45-15.44-10.63-6.6-6.18-11.5-14.05-15.26-24.83-.43-1.27-.84-2.58-1.23-3.94-2.34-8.01-3.73-14.32-4.76-22.6-.95-8.22-1.84-19.83-2.21-28.27h0c-.18-4.69-.16-8.29.07-11.08.23-1.86.64-3.89,1.22-6.08.03-.07.06-.14.09-.2.99-2.31,1.39-2.65,2.49-2.07.72.39,3.92,1.22,7.12,1.85,3.2.63,7.71,1.53,10.04,1.99l4.23.84-3.08,3.14c-.09.09-.17.17-.25.25-.15.15-.29.28-.43.42-2.14,2.21-2.31,2.67-1.56,4.31.43.95.99,1.51,1.87,1.7h.03c1.38.28,3.54-.38,7.13-2.01l.05-.02c.11-.05.22-.09.33-.15h0c4.49-2,8.83-3.06,13.48-3.24,2.15-.06,4.51.07,7.19.36.14.01.27.04.4.05,1.13.16,2.15.3,3.09.43,1.16.17,2.19.31,3.09.43.12.02.24.04.36.06,2.81.46,4.26.61,5.2.43.51-.05.82-.18,1.04-.4.03-.04.07-.07.09-.11.04-.03.09-.06.12-.09,1.03-.85,5.57-1,26.41-.84,13.84.1,25.34.45,25.56.76.46.68,1.26,1.03,2.45,1.07.84.06,1.86-.07,3.17-.38.34-.08.7-.17,1.07-.27.58-.15,1.32-.31,2.18-.47,2.38-.44,5.61-.84,8.26-1.01,2.72-.18,4.48-.23,6.11-.07h0c1.51.17,2.98.54,4.97,1.14.41.12.83.26,1.29.41,2.33.76,4.79,1.67,6.34,2.34.28.12.52.24.72.34.23.12.46.23.68.33.7.39,1.45.66,2.18.82,1.17.32,2.1.31,2.79-.04.51-.17.88-.47,1.04-.89ZM441.91,491.69c-3.04-1.48-5.44-2.56-5.49-2.45-5.79,12.37-9.43,17.6-17.69,25.31-8.76,8.18-18.6,13.36-32.72,17.23-6.42,1.75-8.43,1.97-18.83,1.97s-12.49-.23-18.77-1.91c-13.67-3.66-25.87-10.2-35.02-18.76-5.31-4.96-12.07-14.53-14.05-19.87-.69-1.86-1.46-3.38-1.72-3.38-.29,0-5.18,2.15-8.68,3.76,1.35-.67,2.98-1.48,4.72-2.34,13.6-6.75,18.81-13.33,20.07-25.36.07-.6.12-1.18.18-1.72.55-5.17.84-7.77.07-10.03-.63-1.86-1.97-3.49-4.46-6.11l4.86,5.05.07,4.37c.04,2.4.23,3.97.44,3.47.22-.54,3.4,1.85,8.06,6.06,16.57,14.96,38.4,26.83,56.24,30.56,7.07,1.48,25.58.87,33.12-1.1,6.94-1.81,8.48-2.37,15.83-5.71l5.63-2.57-4.4-3.99c-.49-.44-.98-.9-1.44-1.38,3.01,2.89,7.04,5.47,12.71,8.29.43.21.85.43,1.27.63ZM346.39,437.12c-7.39-1.91-12.79-6.58-16.49-14.25-2.54-5.28-2.53-9.91.06-15.36,1.06-2.23,2.5-4.56,3.2-5.18,1.72-1.51,21.07-4.94,30.68-5.44,5.81-.31,10.31-.01,18.26,1.16,18.56,2.74,18.72,2.82,22.25,10.53,2.24,4.91,2.16,8.65-.33,14.45-3.13,7.29-12.05,14.37-18.14,14.39-3.25,0-6.5-1.27-8.1-3.2-.78-.95-.62-1.51,1-3.43,1.25-1.49,1.86-2.97,1.71-4.2-.2-1.77-.42-1.87-3.13-1.54-1.6.2-5.7.36-9.1.36s-7.95-.16-10.09-.36c-3.14-.29-4.06-.12-4.7.87-.63.99-.33,1.89,1.52,4.46,2.19,3.05,2.25,3.28,1.03,4.37-2.72,2.47-6.08,3.29-9.64,2.37ZM277.37,377.51c.34,2.8.68,5.37,1,7.74l-4.56-1.3c-15.42-4.42-26.32-20.4-26.33-38.6,0-11.3,3.68-19.48,11.19-24.84l2.11-1.51-.61-3.63c.08.4.16.79.23,1.14l.54,2.47,5.09.08,5.08.09h0s.21,5.27.21,5.27c.18,4.34.03,5.19-.83,4.86-.57-.23-2.37-.04-4,.39-5.77,1.55-8.85,7.72-8.85,17.72s7.71,20.24,15.95,21.58c.75.12,1.27.07,1.68.26.85.4,1.19,1.88,2.09,8.28ZM456.42,379.94c.52-3.85.95-6.91,1.07-7.74.28-1.91.8-2.39,3.36-3.15,4.7-1.41,8.17-3.97,10.68-7.89,3.72-5.79,4.69-9.57,4.33-16.78-.52-10.15-3.73-14.77-10.42-14.96-3.22-.09-3.26-.12-3.25-2.63,0-.63.04-1.48.11-2.34.17-1.51.3-2.55.37-2.98l.34-2.19.09-.59,5.17.17,5.13.17-.09.54,2.98,1.99c3.36,2.26,7.23,8.19,8.82,13.54,1.38,4.64,1.38,15.67,0,21-3.05,11.7-10.31,21.18-19.59,25.59-2.85,1.35-6.19,2.66-7.42,2.92-2.19.45-2.27.6-3.13,6.43-.37,2.5-.81,4.93-1.32,7.3.94-4.77,1.81-10.66,2.76-18.41ZM356.73,415.19c9.88,2.14,21.57.85,29.82-3.29,4.32-2.18,8.66-5.47,8.66-6.57,0-.39-11.79-.66-28.39-.66s-28.39.28-28.39.66c0,2.42,10.79,8.23,18.29,9.86ZM415.07,344.25c3.95-3.11,5.33-13.35,2.41-17.81-1.68-2.57-5.58-4.35-8.12-3.71-3.36.84-6.68,4.77-7.25,8.6-1.22,8.07,2.39,14.39,8.21,14.39,1.78,0,3.59-.55,4.75-1.46ZM327.88,344.14c2.63-2.07,4.01-5.52,4.01-10.08,0-6.47-3.62-10.9-8.89-10.9-7.25,0-10.7,10.15-6.22,18.31,2.42,4.4,7.38,5.59,11.09,2.67ZM378.58,379.39c5.39-2.47,6.97-4.38,5.67-6.82-.23-.43-.39-.75-.63-.95-.7-.57-2.18-.17-8.34,1.47l-.75.2c-7.28,1.94-8.81,1.91-16.66-.25-6.86-1.9-8.2-1.83-8.93.49-.68,2.15,2.22,4.71,7.76,6.81,6.72,2.55,15.06,2.2,21.89-.95ZM285.97,415.87c.15.33.31.66.47.99,2.81,5.74,5.82,10.74,9.51,15.69,1.62,2.18,3.35,4.33,5.23,6.51-6.64-7.66-11.62-15.23-15.21-23.19ZM281.21,402.06c-.81-3.28-1.43-6.67-1.87-10.17.17,1.1.34,2.14.52,3.14.43,2.61.87,4.92,1.35,7.02ZM443.94,423.9c-3.67,6.35-8.25,12.43-13.92,18.56,4.66-5.04,8.51-9.99,11.8-15.17.74-1.14,1.46-2.27,2.13-3.39ZM475.87,301.54c.22-2.23.41-4.42.52-6.22.06-.89.12-1.69.17-2.41.17-2.38.28-3.92.01-4.85,0-.04,0-.07,0-.1.3.89.19,2.39.02,4.72-.04.68-.1,1.44-.15,2.27-.12,2.07-.36,4.76-.66,7.49.03-.3.06-.6.09-.9ZM258.47,302.88c.31,3.05.68,6.1,1.08,8.76l-.04-.2c-.37-2.18-.73-5.28-1.04-8.55ZM285.44,495.35c.16.66,3.29,7.34,7.19,15.32-4.08-8.35-7.31-15.24-7.19-15.32ZM257.9,286.04c-.15.06-.24.49-.29,1.23.03-.79.1-1.24.22-1.24.01,0,.04,0,.07,0ZM448.85,495.63c-.16.27-1.24,2.44-2.91,5.82,1.67-3.38,2.75-5.55,2.91-5.82h0ZM475.06,286.89c-.19-.02-.4-.03-.63-.02.24,0,.46,0,.66.01h-.02ZM422.92,476.18c-.09-.15-.17-.31-.25-.46-.17-.33-.33-.64-.47-.93.14.27.28.55.44.86.09.17.19.36.28.53Z"/>
  <path class="cls-3" d="M457.97,289.53c-25.34,3.57-64.72,5.59-100.24,5.01-35.52-.58-65.52-2.63-85.18-5.76-2.11-.35-4.36-.74-6.27-1.11h0c-.42-.08-.84-.17-1.24-.25-1.32-.27-2.57-.52-3.64-.74h0c-1.89-.39-3.3-.66-3.43-.66h-.03s-.02,0-.04,0c-.03,0-.06,0-.07,0-.12,0-.19.45-.22,1.24-.02.28-.04.61-.04.98l-.12-2.74-5.64-1.63c-3.1-.9-6.67-2.26-7.95-3.04-1.94-1.18-2.27-1.78-2.08-3.75.19-1.99.95-2.82,4.94-5.45,2.6-1.7,4.93-3.67,5.18-4.37.26-.7.86-5.36,1.33-10.36,2.54-26.84,6.1-41.89,13.35-56.41,9.24-18.49,25.87-36.57,43.07-46.85,3.84-2.29,5.2-2.79,5.6-2.07.53.95,1.32,3.96,12.15,46.57,3.13,12.32,6.08,22.79,6.54,23.25,2.21,2.21,2.34-.77.55-13.69-1-7.18-2.68-19.59-3.73-27.6-1.06-8.01-2.69-19.21-3.62-24.91-1.88-11.43-1.67-13.81,1.52-17.6,2.13-2.53,9.21-5.07,20.44-7.32,8.38-1.68,25.95-2.05,33.41-.71,5.71,1.03,15.4,3.84,19.44,5.63,2.92,1.29,3.43,1.9,5.05,6.07,1.03,2.64,1.57,5.09,1.27,5.72-.82,1.68-10.16,68.07-10.16,72.24,0,2.62,1.97,2.67,2.95.07.4-1.06,3.01-11.13,5.81-22.38,6.57-26.51,11.57-45.75,11.97-46.15.4-.4,6.22,2.95,10.93,6.3,12.25,8.7,25.39,22.38,31.71,33.04,11.57,19.48,16.2,35.11,19.33,65.23,1.45,13.99.76,12.51,7.9,17.07,1.99,1.28,3.74,2.91,3.88,3.63.63,3.25-4.48,6.83-12.31,8.65l-3.36.79-.19,3.48c-.03-.41-.08-.75-.17-1.03-.04-.77-.14-1.21-.29-1.22-.09,0-.51.05-1.19.15-.2-.02-.41-.02-.66-.01-1.13.02-2.77.33-5.12.78-.84.16-1.76.33-2.78.52-.12.02-.24.04-.36.07-2.74.42-5.66.89-8.2,1.3ZM273.72,271.91c1.06,1.27,1.39,1.27,8.41-.06,9.53-1.8,29.86-4.61,40.66-5.61,6.89-.65,21.99-.94,46.58-.91,39.67.04,47.74.6,74.34,5.17,6.35,1.09,12.69,2,14.09,2.02,2.24.04,2.55-.17,2.55-1.78,0-2.25-1.19-2.67-16.18-5.74-28.72-5.87-63.9-8.32-96.63-6.72-40.44,1.98-77.76,8.87-73.82,13.62ZM152.24,557.04c-1.59,1.43-3.06,1.53-4.65.29-3.28-2.56-14.77-23.65-21.62-39.69-13.11-30.71-20.58-63.24-21.67-94.42-.48-13.68-.24-14.53,3.92-14.05l2.05.23.55,8.01c1.65,23.87,3.92,39.47,8.21,56.58,6.27,25.03,16.33,49.46,29.01,70.5,3.04,5.05,5.53,9.67,5.53,10.26s-.6,1.62-1.33,2.29ZM558.65,529.37c-.99,1.07-2.45,1.94-3.24,1.94-1.53,0-3.73-1.79-3.73-3.03,0-.41,2.44-5.21,5.42-10.68,11.14-20.41,18.57-41.32,22.92-64.53,2.05-10.92,3.67-26.19,3.68-34.75,0-6.12.21-7.3,1.46-8.55,1.8-1.8,3.06-1.84,4.62-.12,2.15,2.37,1.48,17.14-1.77,39.71-1.85,12.8-6.11,29.56-10.49,41.23-4.05,10.8-16.33,36.03-18.88,38.79ZM216.48,248.32c-6.83,6.73-12.72,12.22-13.1,12.2-2.27-.15-3.96-1.51-3.96-3.2,0-3.26,17.87-21.41,31.91-32.42,11.19-8.77,15.15-10.48,16.86-7.28,1.24,2.31,0,3.7-10.01,11.37-5.11,3.91-14.86,12.59-21.7,19.33ZM523.16,248.77c-2.13,2.13-4.2.97-12.59-7.08-3.6-3.46-10.64-9.32-15.65-13.04-5-3.72-9.37-7.25-9.71-7.85-.33-.6-.41-1.89-.17-2.86.79-3.17,4.47-2.4,11.07,2.31,14.99,10.71,27.92,22.64,27.92,25.74,0,1.05-.39,2.3-.87,2.78ZM258.47,302.88c.31,3.28.67,6.37,1.04,8.55l.04.2c0,.07.01.13.03.2l-.07-.4c-.55-3.28-1.14-8.65-1.46-13.25.12,1.53.27,3.11.43,4.69ZM260.79,319l-.63-3.7v.07s.63,3.63.63,3.63Z"/>
  <path class="cls-5" d="M273.72,271.91c-3.94-4.75,33.38-11.65,73.82-13.62,32.73-1.6,67.91.85,96.63,6.72,14.99,3.07,16.18,3.49,16.18,5.74,0,1.6-.31,1.81-2.55,1.78-1.4-.02-7.74-.93-14.09-2.02-26.6-4.56-34.67-5.12-74.34-5.17-24.59-.03-39.7.26-46.58.91-10.8,1-31.13,3.81-40.66,5.61-7.02,1.32-7.36,1.32-8.41.06ZM586.8,556.97c-2.12,2.39-6,.98-6-2.18,0-1.1,2.05-5.29,4.73-9.7,5.67-9.3,14.43-26.78,18.2-36.33,11.06-28.02,17.55-57.72,18.98-86.97.28-5.6.79-10.76,1.16-11.46.81-1.57,3.74-1.67,4.99-.16,1.3,1.57.45,24.59-1.4,37.82-3.23,23.14-10.12,47.88-19.41,69.65-4.48,10.51-18.19,35.9-21.25,39.35ZM181.08,530.44c-1.43,1.43-4.18,1-6-.97-.94-1.01-4.5-7.48-7.91-14.37-14.43-29.15-21.41-55.03-23.84-88.26-.86-11.79-.28-32.85.95-34.36,1.1-1.35,4.74-1.12,5.56.36.43.76.55,5.9.3,12.92-.79,22.55,2.53,48.23,8.98,69.51,4.51,14.84,12.8,34.2,19.45,45.37,3.45,5.81,4.08,8.25,2.52,9.8ZM196.39,213.29c-7.96,7.47-9.99,8.73-11.96,7.41-2.86-1.91-1.24-4.99,6.36-12.14,23.36-21.98,47.22-37.44,76.85-49.81,9.77-4.08,13.49-4.64,14.78-2.21,1.38,2.59-.66,4.48-7.77,7.17-14.98,5.67-30.16,13.65-46.49,24.44-12.51,8.27-20.73,14.76-31.78,25.15ZM533.6,202.74c-.41,1.54-1.08,2.2-2.37,2.36-1.94.23-2.56-.17-13.66-8.76-17.26-13.36-40.03-26.06-59.65-33.28-5.25-1.94-7.26-4.13-5.98-6.52,1.27-2.37,5-1.89,14.07,1.86,22.74,9.37,52.58,27.4,65.18,39.39,2.63,2.5,2.9,3.07,2.4,4.96ZM627.88,371.87c-6.46,2.44-14.78-1.03-17.89-7.45-4.8-9.92,2.76-20.82,13.88-20.02,5.16.37,9.75,3.22,11.75,7.31,1.62,3.3,1.75,9.8.25,12.67-1.46,2.77-5.47,6.53-7.99,7.48ZM117.76,378.37c-3.42,1.65-8.39,1.98-11.48.75-7.84-3.13-11.49-11.8-8.12-19.24,4.65-10.23,19.56-11.11,25.2-1.48,4.1,6.99,1.4,16.57-5.61,19.97ZM421.03,151.62c-1.22-.63-2.05-.97-2.18-.82-.4.4-5.39,19.64-11.97,46.15-2.79,11.25-5.41,21.32-5.81,22.38-.99,2.6-2.95,2.55-2.95-.07,0-4.17,9.34-70.56,10.16-72.24.25-.51-.07-2.24-.75-4.29.79,1.8,1.67,3.2,2.18,3.37,3.03,1.02,7.02,2.99,11.32,5.52ZM326.17,142.35c-.52,2.59-.13,6.18.97,12.88.93,5.69,2.55,16.9,3.62,24.91,1.06,8.01,2.74,20.42,3.73,27.6,1.79,12.92,1.67,15.9-.55,13.69-.47-.47-3.41-10.93-6.54-23.25-10.84-42.61-11.62-45.62-12.15-46.57-.23-.41-.79-.42-1.96.09,2.13-1.15,4.27-2.2,6.42-3.14,5.27-2.3,5.52-2.52,6.28-5.54.06-.23.12-.44.18-.66ZM620.32,364.99c4.44,1.87,9.08-.97,9.75-5.96.33-2.5.08-3.26-1.76-5.32-1.87-2.1-2.61-2.41-5.66-2.41s-3.79.33-5.21,1.98c-3.26,3.79-1.8,9.75,2.88,11.71ZM109.4,372.5c3.37.87,5.36.27,7.5-2.27,1.56-1.86,1.82-2.74,1.49-5.19-.52-3.91-3.18-6.22-7.13-6.22-8.25,0-9.83,11.62-1.86,13.68ZM448.36,173.41c-4.29-4.52-9.05-8.91-13.81-12.72,1.56,1.19,3.09,2.39,4.53,3.6,2.68,2.23,5.98,5.52,9.28,9.11ZM292.87,166.29c-10.7,9.77-20.14,21.91-26.29,34.23,6.32-12.66,15.6-24.58,26.29-34.23ZM333.06,134.81c3.49-1.65,8.57-3.01,16.05-4.51-7.05,1.41-12.47,2.94-16.05,4.51Z"/>
  <path class="cls-2" d="M448.85,495.62c.11-.21-2.61-1.78-6.06-3.49l-.18-.09c4.21,2.03,7.32,3.22,7.55,2.86.83-1.33,4.35-.71,11.64,2.05l7.28,2.76.18,85.35.19,85.35.6-.18c-6.98,2.31-14.06,4.37-21.25,6.2-12.56,3.15-25.46,5.55-38.73,7.22h0c-12.92,1.47-28.7,2.64-36.45,2.71.15,0,.31,0,.47,0v-16.71c0-14.71.17-17.37,1.4-21.01.77-2.29,6.18-14.11,12.01-26.25,5.83-12.14,10.6-22.18,10.6-22.32,0-.14,3.8-8.05,8.44-17.58,4.64-9.53,12.71-26.18,17.93-36.99,6.76-14.02,18.32-37.72,22.66-46.49-.36.72-.76,1.54-1.21,2.45,1.67-3.38,2.75-5.55,2.91-5.82h0ZM345.31,684.94c-6.28-.59-13.98-1.49-20.26-2.42-13.03-2.02-26.65-4.99-39.38-8.65-5.48-1.58-10.9-3.3-16.26-5.15-2.34-.82-4.66-1.66-6.97-2.53.92.32,1.54.49,1.75.49.49,0,.74-27.87.74-83.26v-83.26l7.46-2.99c7.5-3.01,10.56-3.6,11.89-2.28.38.38,2.97-.57,6.2-2.08-.54.27-1.05.52-1.53.76-1.86.86-3.33,1.56-3.5,1.7,0,0,0,.03,0,.06h0c-.12.08,3.12,6.97,7.19,15.32,4.08,8.35,9.13,18.79,11.24,23.19,2.1,4.4,7.96,16.48,13.01,26.83,5.05,10.35,9.19,18.92,9.19,19.03s3.56,7.53,7.91,16.48c22.19,45.61,24.9,51.65,25.55,56.89.72,5.82.98,28.11.35,30.6-.33,1.29-.59,1.72-2.1,1.86-3.92-.05-8.09-.25-12.46-.6ZM531.31,642.28c-9.22,5.5-18.69,10.5-28.39,14.99l.18-70.42.19-70.46,2.1.23c3.62.39,21.06,8.18,23.11,10.33,1.05,1.1,2.03,2.3,2.18,2.67.12.29,1.48,1.25,3.27,2.31l-2.63-1.48v111.84ZM205.08,637.76c-.31-.2-.62-.39-.92-.58l-.19-53.26c-.16-46.46-.24-52.53-1.19-52.84.39-.33.9-1,1.29-1.77.57-1.11,1.66-2.57,2.42-3.26,1.93-1.75,22.74-10.2,23.96-9.72.84.32,1.03,11.52,1.18,68.59l.19,67.85c-5.11-2.57-10.17-5.28-15.2-8.15h0c-1.48-.86-2.97-1.73-4.44-2.61l-7.08-4.24ZM312.31,473c.94-3.14,1.46-6.88,1.72-11.58l.32-5.7c.26,1.97,0,4.43-.44,8.44-.06.55-.12,1.12-.18,1.72-.28,2.61-.74,4.96-1.43,7.12ZM478.14,667.45c3.68-1.37,8.08-3.06,11.86-4.56-3.92,1.6-7.88,3.12-11.86,4.56ZM439.1,490.28c-4.87-2.52-8.44-4.88-11.16-7.5l-.02-.02c2.71,2.59,6.26,4.95,11.19,7.53ZM193.46,536.18c-.62.39-1.24.79-1.88,1.18-3.54,2.22-6.98,4.49-8.73,5.84,2.15-1.67,6.54-4.52,10.6-7.02ZM549.05,542.21c4.7,3.6,9.22,7.34,11.78,9.87-2.52-2.5-7.06-6.26-11.78-9.87ZM285.97,415.87c1.75,3.87,3.82,7.66,6.27,11.4-2.46-3.77-4.55-7.58-6.3-11.48l.04.07ZM296.12,489.97c.47-.25.94-.51,1.4-.77-.45.25-.92.52-1.4.77Z"/>
  <path class="cls-9" d="M0,372.64V0h745.29v745.29H0v-372.64ZM390.48,703.04c83.93-5.07,159.92-39.8,218.36-99.78,24.67-25.31,43.15-51.41,59.2-83.6,17.21-34.51,27.47-68.94,32.53-109.17,1.58-12.51,2.23-50.07,1.11-63.51-5.8-69.44-31.13-132.09-74.92-185.33-10.16-12.35-34.64-36.6-46.43-46-44.32-35.33-92.23-57.58-146.18-67.89-32.97-6.3-70.56-7.34-105.9-2.94-54.78,6.83-110.61,29.63-155.39,63.48-21.89,16.54-45.69,39.96-62.45,61.46-22.55,28.91-42.64,66.86-53.64,101.34-21.06,66.02-20.78,139.87.79,205.07,33.17,100.24,112.62,179.02,213.3,211.5,38.79,12.5,79.76,17.77,119.61,15.36ZM469.26,585.07l-.18-85.35-7.28-2.76c-7.29-2.77-10.81-3.38-11.64-2.05-.25.41-4.2-1.16-9.22-3.68-10.22-5.12-15.01-9.2-18.31-15.58-2.11-4.09-2.28-4.99-2.54-13.54l-.28-9.16,7.21-7.35c16.5-16.81,24.76-32.94,27.95-54.55.86-5.83.94-5.98,3.13-6.43,1.23-.25,4.57-1.57,7.42-2.92,9.28-4.41,16.54-13.89,19.59-25.59,1.38-5.33,1.39-16.36,0-21-1.59-5.36-5.46-11.29-8.82-13.54l-2.98-1.99,1.32-8.22c.73-4.52,1.54-12.18,1.8-17.03l.49-8.81,3.36-.79c7.84-1.83,12.94-5.41,12.31-8.65-.14-.72-1.89-2.35-3.88-3.63-7.14-4.56-6.46-3.08-7.9-17.07-3.13-30.12-7.76-45.76-19.33-65.23-4.2-7.07-15.43-20.02-22.41-25.84-9.51-7.93-22.16-15.77-29.37-18.2-.63-.22-1.89-2.42-2.79-4.9-1.49-4.08-1.95-4.64-4.91-5.95-4.08-1.8-13.76-4.6-19.48-5.64-7.46-1.35-25.04-.98-33.41.71-16.64,3.33-21.42,5.96-23.12,12.7-.76,3.02-1.01,3.24-6.28,5.54-21.27,9.27-41.87,29.43-53.13,51.97-7.25,14.52-10.81,29.56-13.35,56.41-.47,5.01-1.07,9.67-1.33,10.36-.25.7-2.58,2.66-5.18,4.37-4,2.63-4.75,3.46-4.94,5.45-.19,1.97.14,2.57,2.08,3.75,1.27.78,4.85,2.14,7.95,3.04l5.64,1.63.39,9.18c.22,5.04.97,12.58,1.67,16.74l1.28,7.57-2.11,1.51c-7.52,5.36-11.2,13.54-11.19,24.84,0,18.2,10.9,34.18,26.33,38.6l4.69,1.34.84,6.6c2.54,19.98,10.73,35.96,27.05,52.81l8.11,8.37-.47,8.35c-.68,12.24-3.13,17.95-10.14,23.69-4.38,3.59-18.68,10.74-19.62,9.8-1.32-1.32-4.39-.74-11.89,2.28l-7.46,2.99v83.26c0,55.39-.25,83.26-.74,83.26-1.17,0-13.41-4.96-23.28-9.44l-9.1-4.12-.19-68.21c-.15-57.07-.34-68.27-1.18-68.59-1.22-.47-22.03,7.98-23.96,9.72-.76.69-1.86,2.15-2.42,3.26-.57,1.1-1.35,2-1.73,2-1.18,0-15.04,8.46-19.48,11.89-6.4,4.94-14,12.14-14,13.25,0,.55-.62,1.33-1.38,1.74-1.45.78-6.63,7.58-6.63,8.72,0,.36-.26.77-.59.91-1.7.7-11.82,18.79-10.52,18.81.31,0,.12.28-.39.61-.52.33-1,1.31-1.06,2.18-.07.87-.46,1.47-.87,1.33-1.18-.39-14.06-14.77-21.08-23.53-7.46-9.32-20.99-29.37-27.43-40.65-28.42-49.8-42.96-110.98-39.99-168.32,2.39-46.41,12.77-85.98,33.14-126.45,16.17-32.12,34.99-57.69,61.61-83.71,49.62-48.5,111.64-77.96,182.6-86.73,13.37-1.65,54.51-1.87,68.05-.36,50.93,5.67,98.28,22.45,139.01,49.27,73.88,48.63,124.36,126.55,137.89,212.87,2.99,19.1,3.31,23.97,3.3,50.22-.02,22.68-.22,27.31-1.66,37.85-8.33,61.14-30.59,112.96-68.71,159.9-6.97,8.58-23.52,26.42-24.51,26.42-.26,0-2.07-3.68-4.01-8.19-1.94-4.51-4.8-10.38-6.36-13.06-4.17-7.16-13.27-19.12-18.43-24.22-5.36-5.31-19.38-15.95-25.52-19.37-2.4-1.34-4.49-2.73-4.64-3.09-.15-.37-1.14-1.57-2.18-2.67-2.05-2.15-19.49-9.94-23.11-10.33l-2.1-.23-.19,70.46-.18,70.46-5.41,2.47c-4.88,2.23-22.32,8.93-26.42,10.15l-1.63.49-.19-85.35ZM152.24,557.04c.74-.67,1.33-1.7,1.33-2.29s-2.49-5.21-5.53-10.26c-12.68-21.03-22.74-45.47-29.01-70.5-4.29-17.11-6.56-32.71-8.21-56.58l-.55-8.01-2.05-.23c-4.16-.48-4.4.38-3.92,14.05,1.1,31.18,8.57,63.71,21.67,94.42,6.85,16.03,18.33,37.13,21.62,39.69,1.59,1.24,3.06,1.14,4.65-.29ZM586.8,556.97c3.06-3.45,16.76-28.84,21.25-39.35,9.29-21.76,16.18-46.5,19.41-69.65,1.86-13.24,2.71-36.25,1.4-37.82-1.25-1.51-4.18-1.41-4.99.16-.36.7-.88,5.86-1.16,11.46-1.43,29.25-7.92,58.95-18.98,86.97-3.77,9.55-12.53,27.03-18.2,36.33-2.69,4.41-4.73,8.6-4.73,9.7,0,3.17,3.88,4.58,6,2.18ZM181.08,530.44c1.56-1.56.93-4-2.52-9.8-6.65-11.16-14.94-30.52-19.45-45.37-6.46-21.29-9.77-46.97-8.98-69.51.25-7.02.13-12.15-.3-12.92-.82-1.48-4.46-1.71-5.56-.36-1.23,1.51-1.8,22.57-.95,34.36,2.43,33.23,9.42,59.11,23.84,88.26,3.41,6.89,6.97,13.36,7.91,14.37,1.82,1.97,4.56,2.4,6,.97ZM558.65,529.37c2.55-2.75,14.83-27.98,18.88-38.79,4.38-11.67,8.64-28.43,10.49-41.23,3.25-22.57,3.92-37.34,1.77-39.71-1.56-1.72-2.82-1.68-4.62.12-1.25,1.25-1.46,2.43-1.46,8.55,0,8.56-1.62,23.83-3.68,34.75-4.35,23.21-11.78,44.12-22.92,64.53-2.98,5.47-5.42,10.28-5.42,10.68,0,1.24,2.2,3.03,3.73,3.03.79,0,2.25-.87,3.24-1.94ZM532.18,502.74c.87-.5,2.27-1.62,3.11-2.48.84-.87,17.63-41.92,37.79-92.43,19.95-49.97,36.85-92.17,37.56-93.77,3.51-7.96,17.48-43.47,17.8-45.25.76-4.18-1.99-9.69-5.86-11.74-4.16-2.21-48.58-19.72-49.14-19.38-.35.22-.64.1-.64-.26,0-.84-5.82-3.15-6.65-2.63-.34.21-.63.08-.63-.28,0-1.48-7.87-3.7-12.61-3.56-4.43.13-4.85.3-7.33,2.92-1.44,1.53-2.66,3.09-2.71,3.46-.19,1.36-.35,1.8-1.24,3.41-.5.9-.73,1.64-.5,1.64s-.13.82-.79,1.82c-.66,1-.98,1.82-.73,1.82s-.07.82-.73,1.82c-.66,1-.98,1.82-.73,1.82s-.07.82-.73,1.82c-.66,1-.98,1.82-.72,1.82s.07.74-.44,1.64-.93,1.81-.96,2-.46,1.1-.96,2-.73,1.64-.5,1.64-.08.74-.67,1.64-1.08,1.89-1.09,2.19c-.01.31-.52,1.53-1.14,2.72s-1.1,2.26-1.07,2.36c.03.1-.49,1.5-1.16,3.1s-1.27,3.24-1.35,3.64c-.07.4-.53,1.46-1.03,2.37s-.72,1.64-.49,1.64-.13.82-.79,1.82c-.66,1-.95,1.82-.66,1.82s.12.49-.37,1.09-.66,1.09-.36,1.09.2.41-.21.91c-.71.87-7.44,16.85-7.73,18.38-.07.4-.54,1.46-1.03,2.37s-.68,1.64-.42,1.64.14.41-.27.91c-1.11,1.35-4.51,10.01-3.93,10.02.27,0,.1.25-.37.56-.47.3-1.02,1.41-1.22,2.47-.19,1.06-.9,2.77-1.58,3.81-.68,1.03-1.03,1.89-.77,1.89s-.07.8-.71,1.78c-.64.98-1.15,1.96-1.14,2.17.01.21-.47,1.56-1.06,2.98-2.88,6.89-3.82,9.68-3.42,10.09.25.25.07.44-.4.44s-.78.25-.7.55c.09.3-.25,1.28-.75,2.18-.5.9-.73,1.64-.5,1.64s-.13.82-.79,1.82c-.66,1-.98,1.82-.73,1.82s-.07.82-.73,1.82c-.66,1-.98,1.82-.73,1.82s-.07.82-.73,1.82c-.66,1-.98,1.82-.73,1.82s-.07.8-.71,1.78c-.64.98-1.15,1.96-1.14,2.17.01.21-.49,1.62-1.13,3.13-.63,1.51-1.2,3.07-1.27,3.47-.07.4-.51,1.42-.98,2.26-.93,1.7-3.89,8.97-4.1,10.12-.08.4-.55,1.46-1.04,2.37s-.72,1.64-.49,1.64-.13.82-.79,1.82c-.66,1-.98,1.82-.73,1.82s-.02.74-.61,1.64-1.1,1.88-1.14,2.17c-.04.29-.59,1.77-1.22,3.28-.63,1.51-1.19,3.07-1.26,3.47-.07.4-.33,1.08-.6,1.51-.47.75-3.73,9.05-3.84,9.77-.03.2-.46,1.1-.96,2s-.73,1.64-.5,1.64-.13.82-.79,1.82c-.66,1-.98,1.82-.73,1.82s-.07.82-.73,1.82c-.66,1-.98,1.82-.73,1.82s-.07.82-.73,1.82c-.66,1-.97,1.82-.68,1.82s-.15,1.06-.96,2.37c-.8,1.3-1.48,2.61-1.51,2.91-.02.31-.57,1.78-1.21,3.28s-1.24,3.06-1.32,3.46-.6,1.54-1.15,2.55c-.55,1-.92,1.82-.82,1.82.23,0-.61,2.16-3.92,10.12-3.21,7.74-3.52,8.82-3.44,11.9.09,3.58.33,4.55,1.12,4.55.4,0,.54.19.31.43-.55.54,2.27,3.82,4.18,4.88.8.44,15.87,6.62,33.48,13.73,27.08,10.93,32.61,12.93,35.85,12.96,2.11.01,4.55-.38,5.41-.88ZM259.67,493.79c3.43-1.43,7.86-5.68,9.75-9.36,2.42-4.67,1.94-9.38-2.26-22.66-6.19-19.53-13.46-38.04-20.47-52.05-1.91-3.81-3.86-8.37-4.33-10.12-1.28-4.78-3.97-10.42-5.7-11.95-1-.89-2.2-1.24-3.44-1-1.33.25-2.03.01-2.31-.82-4.28-12.33-7.21-16.96-12.23-19.35-1.39-.66-5.07-1.68-8.17-2.28-5.15-.98-8.36-2.56-7.33-3.6.23-.23,7.51-2.98,16.19-6.11,8.67-3.14,16.4-6.28,17.18-6.99,2.2-1.99,4.35-7.07,4.34-10.23,0-1.57-.62-4.17-1.36-5.77-.74-1.6-10.15-14.43-20.91-28.5-10.76-14.08-27.4-35.86-36.97-48.4-21.25-27.84-23.36-30.38-26.38-31.64-3.04-1.27-7.63-1.27-10.66-.01-2.86,1.2-6.86,5.6-7.54,8.31-.75,2.97,1.17,132.52,2.01,135.73.82,3.14,4.29,7.4,7.28,8.94,4.49,2.32,12.86.39,35.06-8.09,1.51-.57,2.89-1.05,3.06-1.05s1,1.56,1.84,3.46c3.44,7.79,8.47,10.84,21.24,12.9,2.55.41,2.75.66,4.27,5.2l1.59,4.77-1.9,1.99c-2.55,2.65-2.47,5.99.26,12.65,1.19,2.9,3.63,11.32,5.43,18.74,3.86,15.92,8.56,30.55,15.43,47.99,5.41,13.74,7.23,16.43,12.93,19.02,3.69,1.68,10.41,1.8,14.11.26ZM117.76,378.37c7.02-3.4,9.71-12.98,5.61-19.97-5.65-9.63-20.55-8.75-25.2,1.48-3.38,7.44.28,16.11,8.12,19.24,3.09,1.23,8.06.9,11.48-.75ZM627.88,371.87c2.53-.95,6.54-4.71,7.99-7.48,1.5-2.87,1.38-9.37-.25-12.67-2-4.08-6.59-6.94-11.75-7.31-11.12-.81-18.68,10.09-13.88,20.02,3.11,6.42,11.43,9.88,17.89,7.45ZM216.48,248.32c6.83-6.74,16.59-15.42,21.7-19.33,10.01-7.66,11.24-9.06,10.01-11.37-1.71-3.2-5.67-1.49-16.86,7.28-14.04,11.01-31.91,29.16-31.91,32.42,0,1.68,1.69,3.04,3.96,3.2.38.02,6.27-5.47,13.1-12.2ZM523.16,248.77c.48-.48.87-1.73.87-2.78,0-3.11-12.93-15.04-27.92-25.74-6.6-4.72-10.28-5.49-11.07-2.31-.25.97-.17,2.26.17,2.86.34.6,4.71,4.13,9.71,7.85,5.01,3.72,12.05,9.59,15.65,13.04,8.39,8.05,10.46,9.21,12.59,7.08ZM196.39,213.29c11.06-10.39,19.27-16.88,31.78-25.15,16.33-10.79,31.51-18.77,46.49-24.44,7.1-2.69,9.15-4.58,7.77-7.17-1.3-2.42-5.01-1.87-14.78,2.21-29.63,12.37-53.49,27.83-76.85,49.81-7.61,7.15-9.22,10.23-6.36,12.14,1.97,1.32,4,.07,11.96-7.41ZM533.6,202.74c.5-1.89.23-2.47-2.4-4.96-12.61-11.99-42.44-30.02-65.18-39.39-9.07-3.74-12.8-4.23-14.07-1.86-1.28,2.39.72,4.59,5.98,6.52,19.62,7.22,42.39,19.93,59.65,33.28,11.1,8.6,11.73,8.99,13.66,8.76,1.29-.16,1.96-.82,2.37-2.36ZM356.73,415.19c-7.5-1.63-18.29-7.45-18.29-9.86,0-.39,11.79-.66,28.39-.66s28.39.28,28.39.66c0,1.11-4.34,4.4-8.66,6.57-8.25,4.14-19.94,5.43-29.82,3.29ZM519.41,494.5c-3.14-1.38-6-2.31-6.37-2.09-.36.23-.66.12-.66-.22,0-.61-4.74-2.7-6.19-2.72-.4,0-.9-.24-1.11-.52-.65-.85-19.05-7.86-19.67-7.49-.31.2-.68.07-.82-.28-.33-.88-14.48-6.71-15.2-6.27-.31.2-.68.06-.82-.31-.14-.37-2.21-1.46-4.61-2.42-3.16-1.27-4.54-2.25-5-3.57-.66-1.88.39-4.59,40.17-103.26,6.38-15.82,19.38-48.07,28.9-71.69,9.53-23.62,18.28-45.56,19.46-48.76,2.26-6.12,3.45-7.64,5.99-7.64,1.38,0,61.71,23.97,65.69,26.1,2.78,1.49,2.88,4.01.4,9.56-1.32,2.95-2.59,6.32-2.76,7.28-.03.2-.47,1.1-.97,2s-.73,1.64-.5,1.64-.13.82-.79,1.82c-.66,1-.98,1.82-.72,1.82s.07.74-.44,1.64-.93,1.81-.96,2-.41,1.02-.86,1.82c-.88,1.57-6.82,16.27-7.07,17.47-.08.4-.55,1.46-1.05,2.37s-.72,1.64-.49,1.64-.08.74-.67,1.64-1.1,1.88-1.14,2.17c-.04.29-.59,1.77-1.22,3.28-.63,1.51-1.22,3.07-1.31,3.47-.09.4-.82,2.2-1.62,4-1.32,2.95-2.59,6.32-2.76,7.28-.03.2-.47,1.1-.97,2s-.73,1.64-.5,1.64-.08.74-.67,1.64-1.07,1.81-1.06,2c.03.78-.98,3.38-2.1,5.46-.66,1.2-1.11,2.27-1.02,2.37.09.1-.33,1.15-.95,2.33-.6,1.17-1.22,2.72-1.36,3.45-.14.72-.93,2.77-1.77,4.56-.84,1.78-1.35,3.5-1.16,3.82.2.31,0,.57-.41.57s-.74.25-.68.55c.04.3,0,.79-.09,1.09-.09.3-.23.79-.29,1.09-.07.3-.57,1.36-1.12,2.37-.56,1-.94,1.82-.85,1.82.09,0-.39,1.31-1.06,2.91s-1.27,3.24-1.35,3.64c-.07.4-.53,1.46-1.03,2.37s-.72,1.64-.49,1.64-.13.82-.79,1.82c-.66,1-.98,1.82-.73,1.82s-.07.82-.73,1.82c-.66,1-.98,1.82-.73,1.82s-.04.76-.65,1.7c-.61.93-.9,1.91-.63,2.18.27.27.11.49-.36.49s-.82.25-.76.55c.04.3,0,.79-.09,1.09-.09.3-.23.79-.29,1.09-.07.3-.52,1.28-1.03,2.18s-.69,1.64-.43,1.64.11.44-.33.98c-.98,1.18-5.25,11.4-4.77,11.4.19,0-.2.82-.85,1.82-.66,1-.98,1.82-.73,1.82s-.07.82-.73,1.82c-.66,1-.98,1.82-.73,1.82s-.07.82-.73,1.82c-.66,1-.95,1.82-.66,1.82s.12.49-.37,1.09-.71,1.09-.47,1.09-.23,1.3-1.06,2.89c-.83,1.59-1.56,3.3-1.64,3.82-.08.51-.36,1.27-.61,1.68-.58.93-5.06,12.08-5.25,13.08-.07.4-.54,1.46-1.03,2.37s-.72,1.64-.49,1.64-.12.8-.76,1.78c-.64.98-1.15,1.96-1.14,2.17s-.49,1.6-1.11,3.09c-.62,1.48-1.25,3.33-1.4,4.09s-.65,1.84-1.11,2.4c-.47.56-.63,1.02-.38,1.02s-.06.8-.7,1.78c-.64.98-1.11,1.97-1.06,2.21.07.24-.6,1.89-1.46,3.68-.86,1.79-1.68,3.82-1.81,4.53-.14.7-.31,1.35-.39,1.46s-.22.43-.31.73c-.08.3-.74,1.86-1.45,3.46-.71,1.6-1.35,3.24-1.41,3.64-.07.4-.37,1.14-.68,1.64-.31.49-.71,1.59-.87,2.44-.39,2.02-3.09,4.31-5.01,4.24-.84-.03-4.1-1.17-7.24-2.55ZM513.21,461.75c3.33-1.72,4.63-4.13,11.6-21.6,4.36-10.91,7.56-17.88,9.02-19.6,3.04-3.6,37.48-89.38,38.23-95.21.31-2.4,3.18-10.61,7.18-20.49,8.13-20.1,8.52-23.34,3.49-28.9-2.4-2.65-5.37-3.86-9.51-3.9-8.05-.07-9.83,2.05-17.53,20.94-4.66,11.43-6.72,15.68-7.77,16.01-2.27.72-6.39,4.68-7.86,7.56-.74,1.46-8.96,21.63-18.27,44.83-17.57,43.8-18.52,46.78-16.73,52.21.79,2.39.47,3.45-5.12,17.37-6.68,16.62-7.39,19.99-5.12,24.43,1.76,3.46,5.24,6.59,7.99,7.2,1.07.23,2.27.55,2.67.69,1.19.44,5.63-.44,7.74-1.54ZM218.17,385.51c-2.66-7.13-4.04-8.28-11.54-9.69-7.12-1.34-9.26-2.31-11.8-5.32-2.21-2.63-11.15-29.11-10.44-30.95.28-.75,1.08-1.13,2.08-.98,1.39.2,2.18,1.9,5.69,12.24,2.25,6.61,4.64,13.07,5.32,14.37,1.48,2.82,5.36,4.95,10.32,5.68,8.57,1.24,11.32,3.57,14.48,12.24,2.21,6.05,2.1,7.75-.47,7.74-1.39,0-1.98-.87-3.65-5.32ZM149.08,369.25c-3.47-2.21-3.79-3.84-3.99-20.26-.1-8.41-.37-26.42-.6-40.03s-.6-36.12-.83-50.02l-.42-25.28,2.2-2.2c2.93-2.93,6.39-3.01,8.97-.2,1.01,1.1,9.69,12.31,19.29,24.93,9.59,12.61,26.67,34.96,37.93,49.67,11.27,14.71,20.82,27.38,21.24,28.16,1.15,2.14.91,5.53-.52,7.23-1.16,1.4-28.44,11.74-30.96,11.74-.56,0-1.97-2.94-3.39-7.1-3.32-9.67-4.75-12.32-7.44-13.71-2.81-1.45-7.31-1-10,.99-1.04.76-2.36,2.74-2.94,4.39-1.03,2.9-.96,3.3,1.95,12.31,1.65,5.12,2.78,9.54,2.5,9.83-.68.69-26.91,10.1-29.24,10.49-1,.17-2.69-.25-3.76-.94ZM109.4,372.5c-7.96-2.07-6.39-13.68,1.86-13.68,3.95,0,6.61,2.31,7.13,6.22.33,2.45.07,3.33-1.49,5.19-2.14,2.54-4.13,3.14-7.5,2.27ZM620.32,364.99c-4.68-1.97-6.14-7.92-2.88-11.71,1.42-1.64,2.3-1.98,5.21-1.98s3.78.31,5.66,2.41c1.84,2.06,2.1,2.82,1.76,5.32-.67,4.99-5.31,7.83-9.75,5.96ZM502.98,454.46c-1.59-1.34-2.24-2.52-2.24-4.09,0-2.17,8.9-25.75,10.23-27.1.42-.43,1.64-.23,3.24.54,1.41.67,3.87,1.43,5.47,1.69,1.6.25,2.9.67,2.9.92s-2.33,6.35-5.18,13.55c-5.32,13.46-7.18,16.38-10.45,16.38-.95,0-2.73-.84-3.96-1.89ZM565.5,311.13c-.96-1.03-3.17-2.22-4.91-2.66-1.8-.46-3.02-1.15-2.84-1.61,10.31-26.01,11.44-28.11,15.11-28.11,3.3,0,6.48,3.01,6.48,6.14,0,1.54-10.71,27.63-11.44,27.88-.36.12-1.44-.62-2.4-1.64Z"/>
</svg>