<svg xmlns="http://www.w3.org/2000/svg" width="1024" height="1024" viewBox="0 0 1024 1024">
<g>
<path d="M 307.84 499.25 C308.06,500.26 307.24,500.20 306.60,499.15 C305.23,496.94 304.86,481.39 305.95,471.94 C308.30,451.47 313.28,437.74 331.39,401.69 C340.65,383.27 345.03,373.21 348.98,361.33 C351.87,352.62 354.32,345.39 354.44,345.26 C354.55,345.13 358.44,346.09 363.07,347.40 C367.71,348.71 372.78,350.07 374.34,350.43 C376.69,350.97 376.97,351.33 375.97,352.54 C375.30,353.34 374.34,354.00 373.84,354.00 C373.33,354.00 371.95,354.90 370.78,355.99 C368.64,357.98 368.63,357.98 365.26,355.99 C361.02,353.49 353.22,353.26 352.32,355.61 C351.98,356.49 352.40,359.53 353.26,362.36 C356.66,373.59 356.18,381.77 352.09,382.15 C351.22,382.23 349.78,382.34 348.90,382.40 C346.90,382.53 342.16,388.09 342.70,389.67 C342.93,390.31 342.18,391.13 341.04,391.49 C338.01,392.45 336.10,396.85 337.15,400.50 C338.26,404.39 337.30,408.94 334.79,411.68 C331.94,414.78 333.17,415.81 338.71,414.96 C343.70,414.19 345.42,414.51 344.48,416.04 C343.77,417.18 348.48,418.41 350.55,417.62 C351.52,417.25 351.85,417.43 351.43,418.12 C350.98,418.84 351.43,419.00 352.74,418.58 C354.64,417.98 354.69,418.20 353.77,423.22 C353.24,426.13 353.03,430.75 353.32,433.50 C353.60,436.25 353.46,439.40 352.99,440.50 C352.21,442.33 352.13,442.29 352.05,440.00 C351.99,438.01 351.77,437.81 351.00,439.00 C350.47,439.83 350.02,440.08 350.02,439.56 C350.01,439.04 349.38,439.47 348.62,440.50 C347.42,442.14 347.06,442.20 345.80,440.94 C344.16,439.30 342.12,431.70 342.35,428.05 C342.45,426.42 341.75,425.22 340.26,424.46 C339.02,423.84 337.19,422.57 336.18,421.66 C333.59,419.32 331.03,419.59 327.97,422.52 C326.52,423.91 324.30,425.25 323.03,425.49 C321.77,425.74 320.61,426.06 320.46,426.22 C319.47,427.25 319.78,433.23 320.94,435.38 C322.17,437.69 322.12,438.21 320.52,439.98 C319.21,441.42 318.72,443.57 318.73,447.74 C318.74,451.82 318.06,454.87 316.38,458.19 C314.71,461.52 314.21,463.78 314.64,465.97 C315.09,468.20 314.75,469.62 313.43,471.08 C312.28,472.35 311.68,474.35 311.83,476.48 C311.95,478.33 311.63,480.11 311.11,480.43 C310.54,480.78 310.62,482.19 311.32,484.03 C312.19,486.33 312.17,487.51 311.23,489.01 C310.55,490.09 310.00,491.40 310.00,491.92 C310.00,492.44 309.48,494.14 308.84,495.68 C308.20,497.23 307.75,498.84 307.84,499.25 ZM 701.84 461.45 C700.56,464.25 698.00,464.91 698.00,462.44 C698.00,461.58 697.55,461.16 697.00,461.50 C696.45,461.84 695.55,460.96 695.01,459.53 C694.47,458.11 693.24,456.64 692.27,456.27 C689.55,455.23 687.16,451.76 687.61,449.52 C688.93,442.99 688.20,434.05 685.99,429.48 C683.79,424.94 683.77,424.64 685.47,423.40 C687.13,422.18 687.05,421.89 684.13,418.97 C681.08,415.93 679.84,413.16 682.15,414.60 C682.86,415.03 683.04,414.87 682.61,414.18 C682.22,413.55 682.44,412.04 683.10,410.82 C683.98,409.17 683.99,408.50 683.14,408.21 C682.51,408.00 682.00,407.17 682.00,406.36 C682.00,405.55 681.53,405.17 680.96,405.52 C678.63,406.96 680.69,397.16 683.39,393.95 C684.87,392.19 686.21,390.92 686.37,391.12 C687.24,392.24 698.22,413.45 699.02,415.54 C699.76,417.49 699.63,418.00 698.42,418.00 C697.57,418.00 697.10,417.66 697.36,417.23 C697.62,416.81 696.80,415.98 695.54,415.39 C693.73,414.53 692.78,414.66 691.02,415.98 C688.86,417.62 688.83,417.87 690.04,425.08 C690.72,429.16 691.56,434.49 691.89,436.92 C692.78,443.38 694.40,442.91 695.87,435.76 C696.59,432.32 697.69,428.43 698.32,427.13 C698.95,425.82 699.48,424.06 699.49,423.21 C699.49,422.37 700.07,421.55 700.78,421.41 C701.48,421.27 701.59,421.38 701.03,421.66 C699.49,422.42 699.79,424.02 701.35,423.42 C702.30,423.06 704.05,426.39 707.29,434.70 C714.10,452.20 714.20,452.87 709.27,449.00 C704.60,445.32 703.00,446.73 703.00,454.53 C703.00,456.94 702.48,460.05 701.84,461.45 ZM 607.69 538.75 C607.80,539.26 607.27,539.67 606.52,539.67 C605.66,539.67 606.66,537.45 609.20,533.71 C616.45,523.04 622.92,506.98 628.48,485.88 L 630.23 479.25 L 635.06 478.68 C637.72,478.36 641.15,477.45 642.70,476.66 L 645.50 475.21 L 645.42 479.05 C645.37,481.82 644.69,483.43 643.01,484.79 C640.50,486.82 639.58,490.11 640.48,493.76 C640.95,495.64 641.50,495.91 643.67,495.37 C645.52,494.90 646.09,495.05 645.59,495.85 C645.20,496.48 644.03,497.00 643.00,497.00 C641.96,497.00 639.44,498.53 637.39,500.41 C633.19,504.26 631.00,504.11 631.00,499.98 C631.00,496.96 629.19,495.66 627.44,497.42 C625.97,498.90 624.00,504.78 624.00,507.71 C624.00,509.03 623.61,509.87 623.12,509.58 C622.64,509.28 622.25,510.18 622.25,511.59 C622.25,513.00 623.09,514.66 624.12,515.31 C626.45,516.76 626.70,523.69 624.53,526.56 C623.72,527.63 623.05,530.16 623.03,532.19 C623.01,534.22 622.55,536.16 622.00,536.50 C621.45,536.84 617.97,537.28 614.25,537.48 C610.54,537.68 607.59,538.25 607.69,538.75 ZM 330.46 610.25 C327.83,615.26 327.48,615.59 326.51,614.02 C324.39,610.58 323.20,599.31 324.09,591.16 C325.15,581.55 329.76,562.07 330.05,566.00 C330.15,567.38 330.34,568.95 330.46,569.50 C330.59,570.05 330.76,571.51 330.85,572.75 C330.93,573.99 331.34,574.92 331.75,574.82 C332.16,574.72 334.15,575.46 336.16,576.46 C339.51,578.13 339.78,578.58 339.29,581.59 C338.92,583.87 339.26,585.40 340.38,586.52 C341.48,587.62 342.00,589.90 342.00,593.59 C342.00,598.57 341.76,599.15 339.25,600.27 C335.75,601.83 333.58,604.30 330.46,610.25 ZM 390.58 617.25 C386.71,621.54 386.14,620.93 386.58,613.00 C387.11,603.52 387.56,602.15 391.07,599.04 L 394.50 596.01 L 396.25 598.12 C398.20,600.46 398.40,601.83 397.08,603.90 C395.48,606.44 397.94,607.74 402.19,606.60 C405.15,605.81 406.00,605.09 406.00,603.36 C406.00,600.56 408.78,597.70 410.77,598.47 C411.61,598.79 413.10,598.32 414.08,597.43 C415.07,596.53 416.30,596.07 416.82,596.39 C417.35,596.71 418.39,596.22 419.14,595.30 C420.34,593.82 420.27,593.71 418.61,594.34 C417.01,594.94 416.91,594.81 417.97,593.53 C418.66,592.70 419.56,592.23 419.96,592.48 C420.36,592.72 421.80,591.71 423.15,590.21 C427.89,584.97 428.03,584.61 426.50,581.67 C425.72,580.17 425.31,578.37 425.57,577.67 C426.42,575.46 431.34,573.19 433.50,574.00 C434.60,574.41 435.84,574.55 436.25,574.32 C436.66,574.08 437.07,574.58 437.15,575.44 C437.23,576.30 437.35,577.34 437.40,577.75 C437.45,578.16 434.06,581.74 429.86,585.69 C425.66,589.65 422.42,593.09 422.66,593.33 C422.91,593.57 422.07,594.63 420.80,595.68 C419.54,596.72 418.05,598.33 417.50,599.24 C416.95,600.15 413.35,604.94 409.50,609.89 C403.39,617.74 402.10,618.89 399.37,618.94 C397.22,618.98 395.75,618.30 394.65,616.75 L 393.06 614.50 ZM 668.48 384.44 C664.73,386.22 662.00,386.46 662.00,385.00 C662.00,384.45 660.68,384.00 659.06,384.00 L 656.12 384.00 L 656.31 377.75 C656.48,372.14 656.72,371.49 658.62,371.39 C661.28,371.26 665.76,368.07 666.54,365.75 C666.87,364.79 667.73,364.00 668.46,364.00 C669.90,364.00 671.44,361.25 671.11,359.25 C671.00,358.56 671.32,358.00 671.82,358.00 C672.32,358.00 674.28,362.39 676.17,367.75 L 679.61 377.50 L 676.80 377.81 C675.26,377.99 674.00,378.55 674.00,379.06 C674.00,379.58 673.44,379.89 672.75,379.75 C672.06,379.61 671.56,380.26 671.63,381.19 C671.71,382.20 670.42,383.52 668.48,384.44 ZM 637.82 400.00 C636.75,400.00 635.00,400.47 633.93,401.04 C632.31,401.90 632.00,401.74 632.00,400.00 C632.00,396.66 628.49,390.70 622.80,384.38 C618.63,379.76 618.31,379.20 621.28,381.75 C625.24,385.15 627.11,386.04 625.03,383.54 C624.02,382.32 624.19,382.15 626.04,382.51 C627.25,382.74 629.29,383.62 630.57,384.45 C632.72,385.86 632.79,386.18 631.50,388.67 C630.24,391.08 630.30,391.52 632.03,393.03 C633.10,393.95 633.75,394.92 633.48,395.19 C632.76,395.90 639.15,395.39 641.75,394.52 C642.99,394.10 644.00,393.35 644.00,392.85 C644.00,392.35 645.58,391.00 647.50,389.87 C649.42,388.73 651.00,387.17 651.00,386.40 C651.00,384.51 652.78,384.63 654.81,386.67 C656.01,387.86 656.52,390.25 656.62,395.06 L 656.75 401.78 L 652.63 401.24 C648.93,400.76 647.62,399.99 646.77,397.82 C646.62,397.45 645.23,396.83 643.69,396.45 C641.35,395.87 640.78,396.11 640.32,397.88 C640.00,399.12 638.96,400.00 637.82,400.00 ZM 620.67 617.50 C620.67,618.33 620.56,619.00 620.43,619.00 C620.30,619.00 614.31,611.61 607.12,602.57 C599.92,593.53 591.78,584.20 589.02,581.82 C583.45,577.03 582.25,573.13 586.25,572.83 C587.49,572.73 589.18,572.61 590.00,572.54 C590.83,572.48 592.10,572.06 592.83,571.61 C594.75,570.42 598.01,574.24 597.32,576.89 C597.02,578.05 596.40,579.00 595.95,579.00 C594.85,579.00 595.11,583.17 596.30,584.75 C596.93,585.59 596.83,586.00 596.00,586.00 C595.01,586.00 595.01,586.31 595.99,587.49 C596.67,588.31 597.57,588.76 598.00,588.50 C598.43,588.24 599.39,588.78 600.14,589.70 C601.07,590.86 601.11,591.15 600.25,590.63 C598.26,589.44 598.80,591.51 601.00,593.50 C602.10,594.50 603.00,594.89 603.00,594.37 C603.00,593.13 606.80,592.86 607.53,594.05 C607.85,594.56 607.50,594.74 606.76,594.46 C605.82,594.10 605.42,594.79 605.46,596.72 C605.50,599.09 605.90,599.48 608.22,599.39 C609.72,599.34 610.70,599.67 610.41,600.14 C610.12,600.61 610.57,601.00 611.41,601.00 C612.24,601.00 613.43,601.94 614.04,603.08 C615.11,605.08 615.21,605.09 616.51,603.33 C617.79,601.60 617.91,601.63 618.82,604.00 C619.53,605.86 619.40,606.93 618.29,608.19 C617.47,609.11 617.10,610.35 617.46,610.94 C617.82,611.52 617.64,612.00 617.05,612.00 C616.35,612.00 616.42,612.70 617.23,614.00 C617.92,615.10 618.97,616.00 619.57,616.00 C620.17,616.00 620.67,616.67 620.67,617.50 ZM 371.43 630.59 C369.82,630.98 368.22,631.74 367.88,632.26 C367.50,632.84 366.98,632.78 366.57,632.11 C366.19,631.50 366.26,631.00 366.73,631.00 C368.69,631.00 367.46,626.90 365.34,626.37 C359.92,625.01 358.81,618.06 363.27,613.42 C364.10,612.56 364.53,611.96 365.09,611.81 C366.02,611.56 367.30,612.56 371.28,615.70 C371.81,616.11 372.38,616.56 373.00,617.04 C375.48,618.98 375.48,619.01 373.50,620.55 C371.60,622.03 371.66,622.08 374.81,621.53 C377.81,621.00 384.04,623.34 383.98,624.97 C383.95,625.70 375.00,629.71 371.43,630.59 ZM 698.06 609.75 C697.90,613.07 694.00,608.63 694.00,605.14 C694.00,602.70 691.39,600.34 690.76,602.21 C690.41,603.24 689.99,603.23 688.65,602.12 C687.73,601.36 687.06,600.23 687.18,599.62 C687.48,597.91 685.89,591.65 684.80,590.29 C682.87,587.90 684.96,587.08 689.18,588.56 C691.45,589.37 693.47,589.87 693.65,589.68 C693.84,589.49 694.09,588.17 694.21,586.74 C694.33,585.31 694.78,584.36 695.21,584.63 C695.65,584.90 696.00,584.10 696.00,582.86 C696.00,581.44 696.35,580.95 696.94,581.55 C698.51,583.13 699.89,598.08 698.97,603.50 C698.50,606.25 698.09,609.06 698.06,609.75 ZM 422.59 570.50 C418.68,574.41 417.98,573.46 420.22,567.28 C421.36,564.11 421.26,563.79 418.55,561.62 C416.67,560.12 415.95,558.88 416.48,558.03 C416.92,557.32 417.33,554.88 417.39,552.62 C417.48,549.14 417.85,548.45 419.76,548.18 C421.01,548.00 421.77,547.44 421.46,546.93 C421.14,546.42 421.29,546.00 421.80,546.00 C422.82,546.00 433.00,556.50 433.00,557.56 C433.00,557.94 432.24,557.63 431.31,556.87 C430.01,555.82 429.80,555.80 430.41,556.81 C431.26,558.24 428.48,562.00 426.56,562.00 C425.95,562.00 424.93,563.35 424.31,565.00 C423.63,566.79 423.56,568.00 424.13,568.00 C424.66,568.00 423.97,569.12 422.59,570.50 ZM 657.33 473.58 C657.03,474.36 656.17,475.00 655.42,475.00 C654.57,475.00 654.30,474.39 654.70,473.34 C655.18,472.10 654.97,471.88 653.92,472.48 C652.77,473.14 652.74,473.04 653.75,471.95 C655.87,469.66 655.13,468.58 652.83,470.60 C651.64,471.64 652.76,469.90 655.33,466.71 C657.90,463.53 660.93,459.10 662.07,456.87 C663.99,453.09 664.26,452.92 665.90,454.41 C666.87,455.28 668.16,456.00 668.77,456.00 C669.38,456.00 669.71,456.89 669.50,457.99 C669.27,459.20 669.96,460.56 671.30,461.50 C673.06,462.73 673.26,463.36 672.36,464.76 C671.73,465.75 670.06,466.48 668.50,466.45 C666.46,466.41 665.21,467.25 663.63,469.73 C662.18,471.99 660.92,472.91 659.69,472.60 C658.69,472.36 657.63,472.80 657.33,473.58 ZM 668.03 445.33 C667.00,448.54 665.90,451.43 665.58,451.75 C664.73,452.61 664.83,452.11 667.01,445.16 C670.10,435.30 669.47,420.96 665.53,411.75 C664.20,408.63 669.45,409.50 670.88,412.63 C671.54,414.08 671.84,415.50 671.55,415.79 C671.26,416.08 671.53,416.93 672.15,417.69 C672.78,418.44 673.39,421.86 673.52,425.28 C673.64,428.70 674.29,432.85 674.96,434.50 C675.97,436.98 675.90,438.16 674.54,441.33 C673.19,444.51 672.65,444.96 671.45,443.96 C670.65,443.30 669.98,442.02 669.95,441.13 C669.92,440.23 669.05,442.13 668.03,445.33 ZM 615.29 369.11 C615.91,374.49 614.69,375.79 612.27,372.34 C609.59,368.53 606.62,362.64 607.72,363.32 C608.20,363.62 609.21,363.49 609.96,363.02 C610.72,362.56 612.38,362.57 613.67,363.06 C615.68,363.83 616.00,363.64 616.00,361.71 C616.00,360.38 614.97,358.84 613.48,357.93 C611.07,356.47 611.50,356.33 623.61,354.66 C630.56,353.70 636.50,353.16 636.79,353.46 C637.09,353.76 636.78,354.00 636.11,354.00 C635.43,354.00 635.12,354.38 635.41,354.85 C635.70,355.32 634.23,356.21 632.16,356.83 C630.08,357.46 627.32,359.10 626.02,360.48 C624.72,361.87 622.85,363.00 621.87,363.00 C620.89,363.00 618.92,363.54 617.48,364.19 C615.19,365.23 614.91,365.86 615.29,369.11 ZM 395.32 492.91 C395.43,493.79 394.36,494.46 392.48,494.69 C389.51,495.05 387.00,493.62 387.00,491.55 C387.00,489.76 382.57,485.29 381.25,485.74 C379.97,486.18 377.88,482.11 378.68,480.75 C378.92,480.34 378.61,480.00 377.99,480.00 C377.33,480.00 377.50,479.35 378.41,478.45 C379.67,477.18 380.66,477.09 383.73,477.94 C385.80,478.52 388.66,478.99 390.07,478.99 C392.43,479.00 392.75,479.53 393.89,485.25 C394.58,488.69 395.22,492.14 395.32,492.91 ZM 693.49 558.51 C693.65,563.19 693.38,567.26 692.89,567.57 C692.40,567.87 691.96,566.85 691.92,565.31 C691.88,563.76 691.63,563.01 691.37,563.64 C690.80,565.04 687.06,564.21 686.84,562.63 C686.75,562.01 686.62,558.84 686.54,555.58 C686.41,550.61 686.54,550.13 687.33,552.58 C688.57,556.42 688.92,556.72 690.12,554.97 C690.89,553.85 690.98,554.04 690.50,555.75 C690.13,557.07 690.30,558.00 690.93,558.00 C691.95,558.00 692.44,552.85 692.02,546.61 C691.91,545.03 692.30,543.43 692.88,543.08 C694.17,542.28 694.53,537.44 693.58,533.93 C693.10,532.18 693.34,530.96 694.34,530.13 C696.15,528.63 701.30,529.69 700.30,531.36 C699.92,531.99 700.39,531.87 701.33,531.11 C702.28,530.34 703.34,530.00 703.69,530.36 C704.04,530.71 703.81,531.00 703.17,531.00 C702.53,531.00 702.08,531.34 702.17,531.75 C702.26,532.16 700.69,535.86 698.67,539.97 C696.65,544.08 695.00,548.02 695.00,548.72 C695.00,549.42 694.59,550.00 694.09,550.00 C693.60,550.00 693.32,553.83 693.49,558.51 ZM 409.27 532.60 C409.69,533.29 408.87,533.73 407.08,533.78 C403.99,533.87 400.62,530.77 398.90,526.25 C397.31,522.06 397.31,514.28 398.90,512.80 C400.05,511.73 400.15,511.74 399.49,512.90 C398.97,513.82 399.07,514.07 399.80,513.62 C400.41,513.24 400.66,512.28 400.35,511.47 C400.04,510.66 400.28,510.00 400.89,510.00 C401.50,510.00 402.00,510.51 402.00,511.13 C402.00,511.76 404.10,516.60 406.66,521.88 C409.22,527.17 411.24,531.84 411.16,532.25 C411.07,532.66 411.52,533.00 412.17,533.00 C412.81,533.00 413.04,533.29 412.69,533.64 C412.34,534.00 411.28,533.66 410.33,532.89 C409.39,532.13 408.91,531.99 409.27,532.60 ZM 670.51 351.49 C671.42,354.04 671.58,355.82 670.96,356.44 C670.35,357.05 670.00,356.77 670.00,355.64 C670.00,354.67 669.60,354.13 669.11,354.43 C668.63,354.73 667.97,354.01 667.66,352.82 C667.22,351.11 666.82,350.91 665.70,351.83 C664.47,352.85 657.29,353.51 653.00,352.99 C652.17,352.89 649.97,353.14 648.09,353.56 C645.78,354.07 644.90,353.97 645.34,353.25 C645.78,352.55 644.58,352.32 641.75,352.59 C638.82,352.86 639.82,352.41 645.00,351.14 C651.83,349.46 664.66,345.63 667.75,344.35 C668.48,344.05 669.02,344.60 669.04,345.67 C669.07,346.67 669.73,349.29 670.51,351.49 ZM 599.89 559.60 C598.36,560.98 596.29,561.50 592.30,561.50 C589.28,561.50 586.50,561.28 586.12,561.00 C585.74,560.72 589.39,556.57 594.23,551.76 C599.07,546.95 602.30,544.14 601.40,545.51 C600.46,546.95 600.22,548.00 600.85,548.00 C602.65,548.00 604.36,552.04 603.09,553.31 C602.49,553.91 602.00,555.14 602.00,556.04 C602.00,556.95 601.05,558.55 599.89,559.60 ZM 366.28 471.43 C365.38,473.15 364.11,474.00 362.44,474.00 C359.85,474.00 359.31,473.25 358.80,469.00 C358.63,467.56 357.55,466.08 356.27,465.52 C354.77,464.86 354.17,463.88 354.43,462.52 C355.07,459.19 356.16,457.00 357.17,457.00 C357.69,457.00 357.78,457.56 357.37,458.25 C356.87,459.08 357.20,459.03 358.33,458.11 C359.28,457.34 360.17,456.89 360.33,457.11 C360.48,457.32 361.43,458.81 362.43,460.41 C363.44,462.02 366.06,465.28 368.26,467.66 C370.46,470.05 371.80,472.00 371.25,472.00 C370.70,472.00 369.66,471.29 368.94,470.43 C367.78,469.03 367.48,469.14 366.28,471.43 ZM 413.31 360.00 C411.76,360.00 409.14,360.37 407.49,360.83 C404.18,361.74 399.71,361.00 400.19,359.61 C400.36,359.12 398.34,358.17 395.69,357.50 C393.04,356.83 390.34,355.71 389.69,355.01 C388.40,353.64 392.45,353.86 410.20,356.13 C417.58,357.08 418.69,357.46 417.52,358.62 C416.76,359.38 414.87,360.00 413.31,360.00 ZM 354.41 637.29 C353.36,637.86 352.22,638.75 351.88,639.27 C351.50,639.84 350.99,639.79 350.59,639.15 C350.23,638.57 349.32,638.32 348.57,638.61 C347.78,638.92 344.52,636.52 340.85,632.92 C337.36,629.51 335.51,627.52 336.75,628.51 C337.99,629.50 339.00,629.87 339.00,629.32 C339.00,628.78 339.56,628.28 340.25,628.21 C340.94,628.14 342.81,627.77 344.40,627.39 C347.28,626.72 347.30,626.75 346.71,630.38 C346.39,632.39 346.49,633.81 346.95,633.53 C347.40,633.25 348.00,633.89 348.28,634.95 C348.64,636.33 349.37,636.72 350.88,636.32 C352.03,636.02 352.70,635.33 352.37,634.79 C352.03,634.24 352.78,634.35 354.04,635.02 C356.23,636.19 356.24,636.28 354.41,637.29 ZM 429.49 382.79 C424.23,385.35 423.81,385.41 422.20,383.80 C419.61,381.21 421.33,377.90 426.69,375.13 C428.33,374.28 429.06,374.29 429.59,375.15 C430.08,375.93 429.85,376.04 428.90,375.49 C428.13,375.05 427.83,375.04 428.23,375.49 C428.64,375.93 429.95,376.79 431.15,377.40 C434.70,379.18 434.31,380.45 429.49,382.79 ZM 361.65 405.46 C361.33,406.31 360.52,407.00 359.86,407.00 C359.19,407.00 359.65,405.94 360.87,404.64 C362.08,403.35 363.30,400.98 363.57,399.39 C364.59,393.41 372.24,390.67 373.02,396.00 C373.52,399.41 372.91,401.00 371.12,401.00 C368.17,401.00 362.30,403.77 361.65,405.46 ZM 319.00 524.06 C319.00,529.02 317.11,527.37 312.96,518.80 C308.27,509.10 308.01,507.00 311.46,507.00 C315.58,507.00 316.90,512.71 313.71,516.77 C312.96,517.74 313.17,517.88 314.61,517.36 C315.65,516.99 316.17,517.05 315.76,517.50 C315.35,517.95 315.91,518.95 317.01,519.72 C318.23,520.57 319.00,522.25 319.00,524.06 ZM 652.62 630.20 C652.90,630.64 652.98,630.96 652.81,630.91 C650.02,630.14 646.50,628.80 642.13,626.86 L 636.75 624.47 L 639.42 623.04 C641.63,621.86 642.89,621.82 646.64,622.83 C651.96,624.25 654.19,626.08 652.98,628.04 C652.51,628.79 652.35,629.76 652.62,630.20 ZM 329.97 548.25 C329.88,550.86 329.70,553.00 329.56,553.00 C329.43,553.00 328.75,551.09 328.05,548.75 C327.35,546.41 325.52,541.72 323.99,538.32 C322.45,534.92 321.42,531.92 321.69,531.64 C322.53,530.81 325.03,532.14 324.44,533.10 C324.13,533.60 324.41,534.00 325.06,534.00 C325.92,534.00 325.95,534.36 325.16,535.30 C324.31,536.33 324.76,536.59 327.29,536.55 C330.34,536.50 330.49,536.68 330.31,540.00 C330.21,541.92 330.05,545.64 329.97,548.25 ZM 606.90 421.00 C606.77,418.67 606.71,418.71 606.00,421.50 L 605.24 424.50 L 605.12 421.49 C605.05,419.84 604.55,416.93 604.01,415.03 C603.34,412.68 603.35,411.25 604.07,410.54 C604.80,409.82 604.93,409.99 604.51,411.10 C604.11,412.15 604.79,413.29 606.45,414.38 C607.95,415.36 609.00,415.59 609.00,414.95 C609.00,414.35 609.71,414.56 610.57,415.43 C611.57,416.42 613.13,416.81 614.82,416.48 C617.41,415.97 617.42,415.99 615.16,416.98 C613.87,417.54 612.41,417.75 611.92,417.45 C611.43,417.15 611.29,417.59 611.62,418.45 C611.95,419.31 611.69,420.00 611.04,420.00 C610.32,420.00 610.11,420.77 610.50,422.00 C610.86,423.15 610.68,424.00 610.07,424.00 C609.48,424.00 608.99,423.21 608.98,422.25 C608.97,420.75 608.83,420.72 608.00,422.00 C607.23,423.20 607.00,423.00 606.90,421.00 ZM 518.50 417.00 C517.81,418.11 516.88,418.11 512.50,417.00 C510.85,416.58 509.95,416.13 510.50,416.00 C511.05,415.87 510.15,415.42 508.50,415.00 C505.69,414.29 505.79,414.22 510.00,413.96 L 514.50 413.69 L 504.50 412.31 L 511.25 412.16 C516.18,412.04 517.93,412.34 517.75,413.25 C517.61,413.94 517.05,414.83 516.50,415.23 C515.94,415.65 516.30,415.98 517.31,415.98 C518.30,415.99 518.84,416.45 518.50,417.00 ZM 421.25 372.19 C415.90,375.69 414.26,376.16 414.40,374.16 C414.66,370.54 416.69,368.74 420.86,368.44 C423.14,368.28 425.00,368.51 425.00,368.94 C425.00,369.38 423.31,370.84 421.25,372.19 ZM 414.11 420.14 C413.63,419.39 413.08,419.22 412.87,419.76 C412.65,420.36 412.11,420.39 411.50,419.83 C410.95,419.33 409.82,418.37 408.99,417.71 C408.16,417.04 407.65,416.60 407.87,416.71 C408.83,417.24 412.00,414.80 411.47,413.95 C411.15,413.43 411.55,413.00 412.37,413.00 C413.18,413.00 414.06,412.21 414.31,411.25 C414.56,410.29 414.81,412.20 414.87,415.50 C414.93,419.22 414.64,420.98 414.11,420.14 ZM 453.83 424.88 C454.85,425.52 454.67,425.85 453.09,426.27 C451.68,426.64 450.04,425.91 448.00,424.00 C444.99,421.19 443.95,419.23 446.20,420.63 C446.87,421.04 448.76,421.52 450.42,421.70 C453.60,422.05 456.56,423.99 453.95,424.02 C452.77,424.03 452.75,424.19 453.83,424.88 ZM 632.50 615.23 C633.05,615.64 632.06,615.98 630.31,615.98 C626.26,616.00 625.39,614.59 627.48,611.39 C629.45,608.38 631.50,608.73 631.50,612.08 C631.50,613.41 631.95,614.83 632.50,615.23 ZM 669.77 636.49 C669.88,637.87 669.87,638.97 669.74,638.93 C669.61,638.89 667.49,637.97 665.03,636.88 C661.74,635.42 660.92,634.66 661.94,634.03 C662.71,633.56 664.27,633.52 665.42,633.94 C666.56,634.37 667.96,634.55 668.53,634.35 C669.10,634.14 669.66,635.11 669.77,636.49 ZM 398.50 384.47 C393.87,387.32 391.03,387.87 392.96,385.54 C393.63,384.74 393.88,383.62 393.53,383.04 C393.17,382.47 393.32,382.00 393.86,382.00 C394.40,382.00 395.63,381.70 396.59,381.33 C397.95,380.80 398.20,381.03 397.70,382.35 C397.15,383.76 397.36,383.88 398.96,383.02 C402.75,380.99 402.41,382.07 398.50,384.47 ZM 560.12 406.64 C559.98,409.10 557.00,410.80 557.00,408.42 C557.00,406.22 559.46,401.80 561.94,399.55 C563.75,397.92 563.98,397.88 563.44,399.31 C563.08,400.24 562.36,401.00 561.83,401.00 C561.31,401.00 561.20,401.52 561.60,402.15 C562.05,402.89 561.87,403.04 561.09,402.55 C560.34,402.09 559.94,402.32 560.05,403.15 C560.15,403.89 560.18,405.46 560.12,406.64 ZM 716.46 465.63 C716.87,467.80 716.71,469.69 716.07,470.33 C715.31,471.09 715.00,470.69 714.98,468.95 C714.97,467.00 714.77,466.81 714.00,468.00 C713.14,469.33 713.03,469.33 713.03,468.00 C713.03,465.51 714.18,462.00 715.01,462.00 C715.43,462.00 716.08,463.63 716.46,465.63 ZM 417.09 578.95 C414.18,580.51 413.00,580.23 413.00,578.00 C413.00,576.55 413.67,576.00 415.44,576.00 C418.65,576.00 419.56,577.63 417.09,578.95 ZM 374.72 498.88 C373.18,500.42 372.32,500.29 371.60,498.41 C370.86,496.47 371.66,495.00 373.45,495.00 C375.28,495.00 376.10,497.50 374.72,498.88 ZM 639.29 617.98 C639.89,620.31 638.34,620.57 635.74,618.60 C634.21,617.44 634.17,617.11 635.45,616.05 C637.21,614.58 638.57,615.26 639.29,617.98 ZM 438.99 389.50 C438.54,389.22 437.98,389.33 437.75,389.74 C437.52,390.16 437.44,390.00 437.58,389.40 C437.72,388.76 436.71,388.41 435.16,388.58 C432.63,388.85 432.59,388.79 434.44,387.43 C436.91,385.61 437.92,385.62 438.64,387.49 C439.02,388.50 440.07,388.82 441.85,388.47 C444.43,387.97 444.44,387.98 442.16,388.98 C440.87,389.54 439.45,389.78 438.99,389.50 ZM 465.64 413.50 C464.87,415.49 463.37,415.40 462.57,413.32 C462.21,412.38 462.59,410.99 463.43,410.14 C464.76,408.81 465.00,408.83 465.57,410.32 C465.92,411.25 465.95,412.67 465.64,413.50 ZM 395.00 585.50 C395.00,587.97 394.55,590.00 394.00,590.00 C393.45,590.00 393.00,587.97 393.00,585.50 C393.00,583.03 393.45,581.00 394.00,581.00 C394.55,581.00 395.00,583.03 395.00,585.50 ZM 664.00 550.04 C664.00,550.61 663.16,551.99 662.13,553.09 C660.70,554.62 660.13,554.78 659.74,553.76 C659.13,552.18 661.22,549.00 662.86,549.00 C663.49,549.00 664.00,549.47 664.00,550.04 ZM 350.61 444.71 C352.38,445.41 352.46,445.78 351.32,448.00 C350.20,450.16 349.80,449.93 350.07,447.30 C350.11,446.91 349.10,446.17 347.82,445.65 C346.09,444.94 345.90,444.60 347.06,444.31 C347.92,444.10 349.52,444.28 350.61,444.71 ZM 364.98 392.25 C365.01,393.41 362.20,393.14 361.45,391.91 C361.08,391.31 361.29,390.31 361.93,389.67 C362.80,388.80 363.31,388.88 364.03,390.01 C364.55,390.83 364.98,391.84 364.98,392.25 ZM 635.69 408.15 C636.13,408.34 636.27,410.30 635.98,412.50 L 635.46 416.50 L 634.76 412.55 C634.05,408.51 634.25,407.52 635.69,408.15 ZM 676.00 630.06 C676.00,630.58 674.88,631.00 673.50,631.00 C672.12,631.00 671.00,630.52 671.00,629.94 C671.00,629.36 671.41,629.14 671.91,629.45 C672.42,629.76 673.01,629.48 673.22,628.83 C673.66,627.52 676.00,628.56 676.00,630.06 ZM 374.29 504.89 C375.90,506.50 374.82,506.90 372.00,505.73 C369.83,504.83 369.75,504.64 371.36,504.25 C372.38,504.01 373.70,504.30 374.29,504.89 ZM 693.00 445.00 C693.00,445.55 694.01,445.99 695.25,445.98 C697.07,445.97 697.21,445.78 696.00,445.00 C694.06,443.75 693.00,443.75 693.00,445.00 ZM 655.50 554.00 C655.16,554.55 654.49,555.00 654.00,555.00 C653.51,555.00 652.84,554.55 652.50,554.00 C652.16,553.45 652.84,553.00 654.00,553.00 C655.16,553.00 655.84,553.45 655.50,554.00 ZM 685.00 425.00 C685.00,425.55 685.45,426.00 686.00,426.00 C686.55,426.00 687.00,425.55 687.00,425.00 C687.00,424.45 686.55,424.00 686.00,424.00 C685.45,424.00 685.00,424.45 685.00,425.00 ZM 359.50 456.00 C359.16,456.55 358.68,457.00 358.44,457.00 C358.20,457.00 358.00,456.55 358.00,456.00 C358.00,455.45 358.48,455.00 359.06,455.00 C359.64,455.00 359.84,455.45 359.50,456.00 Z" fill="rgb(94,62,46)"/>
<path d="M 307.84 499.25 C307.75,498.84 308.20,497.23 308.84,495.68 C309.48,494.14 310.00,492.44 310.00,491.92 C310.00,491.40 310.55,490.09 311.23,489.01 C312.17,487.51 312.19,486.33 311.32,484.03 C310.62,482.19 310.54,480.78 311.11,480.43 C311.63,480.11 311.95,478.33 311.83,476.48 C311.68,474.35 312.28,472.35 313.43,471.08 C314.75,469.62 315.09,468.20 314.64,465.97 C314.21,463.78 314.71,461.52 316.38,458.19 C318.06,454.87 318.74,451.82 318.73,447.74 C318.72,443.57 319.21,441.42 320.52,439.98 C322.12,438.21 322.17,437.69 320.94,435.38 C319.78,433.23 319.47,427.25 320.46,426.22 C320.61,426.06 321.77,425.74 323.03,425.49 C324.30,425.25 326.52,423.91 327.97,422.52 C331.03,419.59 333.59,419.32 336.18,421.66 C337.19,422.57 339.02,423.84 340.26,424.46 C341.75,425.22 342.45,426.42 342.35,428.05 C342.12,431.70 344.16,439.30 345.80,440.94 C347.06,442.20 347.42,442.14 348.62,440.50 C349.38,439.47 350.01,439.04 350.02,439.56 C350.02,440.08 350.47,439.83 351.00,439.00 C351.77,437.81 351.99,438.01 352.05,440.00 C352.13,442.29 352.21,442.33 352.99,440.50 C353.46,439.40 353.60,436.25 353.32,433.50 C353.03,430.75 353.24,426.13 353.77,423.22 C354.69,418.20 354.64,417.98 352.74,418.58 C351.43,419.00 350.98,418.84 351.43,418.12 C351.85,417.43 351.52,417.25 350.55,417.62 C348.48,418.41 343.77,417.18 344.48,416.04 C345.42,414.51 343.70,414.19 338.71,414.96 C333.17,415.81 331.94,414.78 334.79,411.68 C337.30,408.94 338.26,404.39 337.15,400.50 C336.10,396.85 338.01,392.45 341.04,391.49 C342.18,391.13 342.93,390.31 342.70,389.67 C342.16,388.09 346.90,382.53 348.90,382.40 C349.78,382.34 351.22,382.23 352.09,382.15 C356.18,381.77 356.66,373.59 353.26,362.36 C352.40,359.53 351.98,356.49 352.32,355.61 C353.22,353.26 361.02,353.49 365.26,355.99 C368.63,357.98 368.64,357.98 370.78,355.99 C371.95,354.90 373.33,354.00 373.84,354.00 C374.34,354.00 375.30,353.34 375.97,352.54 C376.97,351.33 376.69,350.97 374.34,350.43 C373.53,350.24 371.77,349.79 369.62,349.21 C372.12,349.84 374.31,350.35 375.50,350.56 C377.70,350.95 379.93,351.51 380.45,351.81 C380.97,352.12 382.32,352.47 383.45,352.59 C384.58,352.71 387.30,353.07 389.50,353.37 C406.34,355.73 416.87,356.96 425.28,357.57 C430.65,357.96 435.27,358.64 435.55,359.07 C436.32,360.33 431.36,364.79 424.39,369.77 C424.78,369.39 425.00,369.10 425.00,368.94 C425.00,368.51 423.14,368.28 420.86,368.44 C416.69,368.74 414.66,370.54 414.40,374.16 C414.30,375.53 415.04,375.74 417.22,374.62 C412.08,377.92 406.59,381.07 401.79,383.34 C392.32,387.81 392.07,388.13 390.51,398.01 L 389.95 401.52 L 401.49 407.26 C406.87,409.94 411.58,412.20 413.05,412.83 C412.83,412.94 412.60,413.00 412.37,413.00 C411.55,413.00 411.15,413.43 411.47,413.95 C412.00,414.80 408.83,417.24 407.87,416.71 C407.65,416.60 408.16,417.04 408.99,417.71 C409.23,417.91 409.51,418.13 409.78,418.36 L 401.30 414.09 C395.56,411.20 390.29,409.06 389.57,409.33 C388.81,409.63 388.00,412.44 387.60,416.17 C386.61,425.38 385.88,429.00 385.01,429.00 C384.58,429.00 383.99,428.21 383.70,427.25 C383.40,426.29 380.95,420.10 378.26,413.50 C374.85,405.16 373.03,401.48 370.59,401.03 C370.77,401.01 370.95,401.00 371.12,401.00 C372.91,401.00 373.52,399.41 373.02,396.00 C372.24,390.67 364.59,393.41 363.57,399.39 C363.30,400.98 362.08,403.35 360.87,404.64 C359.65,405.94 359.19,407.00 359.86,407.00 C360.52,407.00 361.33,406.31 361.65,405.46 C362.09,404.33 364.86,402.72 367.52,401.77 C366.49,402.33 365.31,403.17 363.90,404.24 C358.26,408.55 355.39,413.75 353.95,422.31 C352.09,433.33 354.48,445.17 359.52,455.15 C359.42,455.06 359.26,455.00 359.06,455.00 C358.48,455.00 358.00,455.45 358.00,456.00 C358.00,456.55 358.20,457.00 358.44,457.00 C358.68,457.00 359.16,456.55 359.50,456.00 C359.63,455.78 359.68,455.58 359.66,455.42 C361.06,458.16 362.66,460.75 364.42,463.14 C363.57,462.06 362.86,461.09 362.43,460.41 C361.43,458.81 360.48,457.32 360.33,457.11 C360.17,456.89 359.28,457.34 358.33,458.11 C357.20,459.03 356.87,459.08 357.37,458.25 C357.78,457.56 357.69,457.00 357.17,457.00 C356.16,457.00 355.07,459.19 354.43,462.52 C354.17,463.88 354.77,464.86 356.27,465.52 C357.55,466.08 358.63,467.56 358.80,469.00 C359.31,473.25 359.85,474.00 362.44,474.00 C364.11,474.00 365.38,473.15 366.28,471.43 C367.48,469.14 367.78,469.03 368.94,470.43 C369.66,471.29 370.70,472.00 371.25,472.00 C371.71,472.00 370.86,470.66 369.30,468.84 C374.72,474.24 381.12,477.87 387.86,478.67 C388.86,478.79 389.65,478.88 390.29,479.00 C390.22,479.00 390.15,478.99 390.07,478.99 C388.66,478.99 385.80,478.52 383.73,477.94 C380.66,477.09 379.67,477.18 378.41,478.45 C377.50,479.35 377.33,480.00 377.99,480.00 C378.61,480.00 378.92,480.34 378.68,480.75 C377.88,482.11 379.97,486.18 381.25,485.74 C382.57,485.29 387.00,489.76 387.00,491.55 C387.00,493.62 389.51,495.05 392.48,494.69 C394.36,494.46 395.43,493.79 395.32,492.91 C395.24,492.31 394.84,490.09 394.34,487.52 C396.09,494.48 399.67,506.57 400.97,509.50 C401.05,509.68 401.13,509.87 401.21,510.05 C401.11,510.02 401.00,510.00 400.89,510.00 C400.28,510.00 400.04,510.66 400.35,511.47 C400.66,512.28 400.41,513.24 399.80,513.62 C399.07,514.07 398.97,513.82 399.49,512.90 C400.15,511.74 400.05,511.73 398.90,512.80 C397.31,514.28 397.31,522.06 398.90,526.25 C400.62,530.77 403.99,533.87 407.08,533.78 C408.87,533.73 409.69,533.29 409.27,532.60 C408.91,531.99 409.39,532.13 410.33,532.89 C411.28,533.66 412.34,534.00 412.69,533.64 C413.04,533.29 412.81,533.00 412.17,533.00 C411.52,533.00 411.07,532.66 411.16,532.25 C411.24,531.84 409.22,527.17 406.66,521.88 C405.61,519.73 404.65,517.65 403.87,515.90 C411.92,533.10 418.67,542.61 430.36,553.85 L 438.00 561.21 L 438.00 578.11 L 431.87 583.78 C431.78,583.86 431.69,583.95 431.60,584.04 C434.96,580.79 437.45,578.10 437.40,577.75 C437.35,577.34 437.23,576.30 437.15,575.44 C437.07,574.58 436.66,574.08 436.25,574.32 C435.84,574.55 434.60,574.41 433.50,574.00 C431.34,573.19 426.42,575.46 425.57,577.67 C425.31,578.37 425.72,580.17 426.50,581.67 C428.03,584.61 427.89,584.97 423.15,590.21 C421.80,591.71 420.36,592.72 419.96,592.48 C419.56,592.23 418.66,592.70 417.97,593.53 C416.91,594.81 417.01,594.94 418.61,594.34 C420.27,593.71 420.34,593.82 419.14,595.30 C418.39,596.22 417.35,596.71 416.82,596.39 C416.30,596.07 415.07,596.53 414.08,597.43 C413.10,598.32 411.61,598.79 410.77,598.47 C408.78,597.70 406.00,600.56 406.00,603.36 C406.00,605.09 405.15,605.81 402.19,606.60 C397.94,607.74 395.48,606.44 397.08,603.90 C398.40,601.83 398.20,600.46 396.25,598.12 L 394.50 596.01 L 391.07 599.04 C387.56,602.15 387.11,603.52 386.58,613.00 C386.14,620.93 386.71,621.54 390.58,617.25 L 393.06 614.50 L 394.65 616.75 C395.75,618.30 397.22,618.98 399.37,618.94 C400.26,618.93 401.00,618.79 401.81,618.34 C400.92,619.24 400.31,619.77 400.08,619.81 C396.32,620.56 388.05,623.49 382.50,626.05 L 382.40 626.09 C383.36,625.57 383.97,625.16 383.98,624.97 C384.04,623.34 377.81,621.00 374.81,621.53 C371.66,622.08 371.60,622.03 373.50,620.55 C375.48,619.01 375.48,618.98 373.00,617.04 C372.38,616.56 371.81,616.11 371.28,615.70 C367.30,612.56 366.02,611.56 365.09,611.81 C364.53,611.96 364.10,612.56 363.27,613.42 C358.81,618.06 359.92,625.01 365.34,626.37 C367.46,626.90 368.69,631.00 366.73,631.00 C366.26,631.00 366.19,631.50 366.57,632.11 C366.98,632.78 367.50,632.84 367.88,632.26 C368.22,631.74 369.82,630.98 371.43,630.59 C372.45,630.34 373.91,629.83 375.48,629.22 C367.94,632.57 361.96,635.00 361.18,635.00 C360.65,635.00 358.25,636.12 355.85,637.49 C353.46,638.86 351.01,639.98 350.40,639.99 C348.57,640.01 341.82,634.63 336.35,628.82 C332.16,624.36 329.05,619.71 326.96,614.64 C327.67,615.35 328.27,614.41 330.46,610.25 C333.58,604.30 335.75,601.83 339.25,600.27 C341.76,599.15 342.00,598.57 342.00,593.59 C342.00,589.90 341.48,587.62 340.38,586.52 C339.26,585.40 338.92,583.87 339.29,581.59 C339.78,578.58 339.51,578.13 336.16,576.46 C334.15,575.46 332.16,574.72 331.75,574.82 C331.34,574.92 330.93,573.99 330.85,572.75 C330.76,571.51 330.59,570.05 330.46,569.50 C330.34,568.95 330.15,567.38 330.05,566.00 C329.91,564.02 328.67,567.96 327.34,573.59 C329.31,565.02 329.65,555.34 328.23,549.35 C328.86,551.40 329.44,553.00 329.56,553.00 C329.70,553.00 329.88,550.86 329.97,548.25 C330.05,545.64 330.21,541.92 330.31,540.00 C330.49,536.68 330.34,536.50 327.29,536.55 C324.76,536.59 324.31,536.33 325.16,535.30 C325.95,534.36 325.92,534.00 325.06,534.00 C324.41,534.00 324.13,533.60 324.44,533.10 C325.03,532.14 322.53,530.81 321.69,531.64 C321.42,531.92 322.45,534.92 323.99,538.32 C324.65,539.80 325.38,541.52 326.04,543.18 C323.88,537.94 321.36,533.02 319.48,530.50 C316.68,526.77 311.79,517.22 309.03,510.13 C307.78,506.93 306.82,502.71 306.18,497.98 C306.31,498.51 306.45,498.91 306.60,499.15 C307.24,500.20 308.06,500.26 307.84,499.25 ZM 701.84 461.45 C702.48,460.05 703.00,456.94 703.00,454.53 C703.00,446.73 704.60,445.32 709.27,449.00 C712.00,451.14 713.19,451.89 712.55,449.17 C712.72,449.80 712.88,450.41 713.03,451.00 C714.32,456.30 715.21,460.01 715.81,463.21 C715.53,462.47 715.23,462.00 715.01,462.00 C714.18,462.00 713.03,465.51 713.03,468.00 C713.03,469.33 713.14,469.33 714.00,468.00 C714.77,466.81 714.97,467.00 714.98,468.95 C715.00,470.69 715.31,471.09 716.07,470.33 C716.34,470.06 716.53,469.56 716.62,468.91 C717.01,473.19 716.96,477.81 716.79,486.00 C716.51,500.08 716.11,504.17 714.72,506.90 C713.78,508.78 713.00,511.04 713.00,511.93 C713.00,512.82 712.39,514.44 711.65,515.53 C710.91,516.61 710.01,518.71 709.65,520.18 C709.29,521.65 708.29,523.57 707.43,524.43 C706.56,525.29 706.14,526.00 706.48,526.00 C706.82,526.00 705.78,527.91 704.18,530.25 C704.06,530.42 703.95,530.60 703.83,530.77 C703.89,530.66 703.85,530.51 703.69,530.36 C703.34,530.00 702.28,530.34 701.33,531.11 C700.39,531.87 699.92,531.99 700.30,531.36 C701.30,529.69 696.15,528.63 694.34,530.13 C693.34,530.96 693.10,532.18 693.58,533.93 C694.53,537.44 694.17,542.28 692.88,543.08 C692.30,543.43 691.91,545.03 692.02,546.61 C692.44,552.85 691.95,558.00 690.93,558.00 C690.30,558.00 690.13,557.07 690.50,555.75 C690.98,554.04 690.89,553.85 690.12,554.97 C688.92,556.72 688.57,556.42 687.33,552.58 C686.54,550.13 686.41,550.61 686.54,555.58 C686.62,558.84 686.75,562.01 686.84,562.63 C687.06,564.21 690.80,565.04 691.37,563.64 C691.63,563.01 691.88,563.76 691.92,565.31 C691.96,566.85 692.40,567.87 692.89,567.57 C693.26,567.34 693.50,565.02 693.53,561.93 C693.83,565.90 694.68,570.52 696.12,576.30 C696.73,578.73 697.25,581.07 697.69,583.29 C697.45,582.42 697.20,581.81 696.94,581.55 C696.35,580.95 696.00,581.44 696.00,582.86 C696.00,584.10 695.65,584.90 695.21,584.63 C694.78,584.36 694.33,585.31 694.21,586.74 C694.09,588.17 693.84,589.49 693.65,589.68 C693.47,589.87 691.45,589.37 689.18,588.56 C684.96,587.08 682.87,587.90 684.80,590.29 C685.89,591.65 687.48,597.91 687.18,599.62 C687.06,600.23 687.73,601.36 688.65,602.12 C689.99,603.23 690.41,603.24 690.76,602.21 C691.39,600.34 694.00,602.70 694.00,605.14 C694.00,607.64 696.00,610.62 697.19,610.90 C695.42,616.19 692.71,621.89 690.36,624.86 C685.14,631.47 682.67,634.00 681.43,634.00 C680.68,634.00 679.64,634.81 679.11,635.79 C678.59,636.77 677.06,638.17 675.71,638.89 C674.09,639.76 673.05,639.85 669.83,638.63 C669.87,638.21 669.85,637.42 669.77,636.49 C669.66,635.11 669.10,634.14 668.53,634.35 C667.96,634.55 666.56,634.37 665.42,633.94 C664.27,633.52 662.71,633.56 661.94,634.03 C661.34,634.41 661.38,634.83 662.20,635.41 C644.89,628.00 627.02,620.91 624.22,620.38 C622.89,620.13 622.01,619.92 620.57,618.70 C620.63,618.43 620.67,617.99 620.67,617.50 C620.67,616.67 620.17,616.00 619.57,616.00 C618.97,616.00 617.92,615.10 617.23,614.00 C616.42,612.70 616.35,612.00 617.05,612.00 C617.64,612.00 617.82,611.52 617.46,610.94 C617.10,610.35 617.47,609.11 618.29,608.19 C619.40,606.93 619.53,605.86 618.82,604.00 C617.91,601.63 617.79,601.60 616.51,603.33 C615.21,605.09 615.11,605.08 614.04,603.08 C613.43,601.94 612.24,601.00 611.41,601.00 C610.57,601.00 610.12,600.61 610.41,600.14 C610.70,599.67 609.72,599.34 608.22,599.39 C605.90,599.48 605.50,599.09 605.46,596.72 C605.42,594.79 605.82,594.10 606.76,594.46 C607.50,594.74 607.85,594.56 607.53,594.05 C606.80,592.86 603.00,593.13 603.00,594.37 C603.00,594.89 602.10,594.50 601.00,593.50 C598.80,591.51 598.26,589.44 600.25,590.63 C601.11,591.15 601.07,590.86 600.14,589.70 C599.39,588.78 598.43,588.24 598.00,588.50 C597.57,588.76 596.67,588.31 595.99,587.49 C595.01,586.31 595.01,586.00 596.00,586.00 C596.83,586.00 596.93,585.59 596.30,584.75 C595.11,583.17 594.85,579.00 595.95,579.00 C596.40,579.00 597.02,578.05 597.32,576.89 C598.01,574.24 594.75,570.42 592.83,571.61 C592.10,572.06 590.83,572.48 590.00,572.54 C589.18,572.61 587.49,572.73 586.25,572.83 C585.00,572.92 584.26,573.37 584.00,574.09 L 584.00 561.36 L 590.32 555.77 C587.58,558.69 585.85,560.81 586.12,561.00 C586.50,561.28 589.28,561.50 592.30,561.50 C596.29,561.50 598.36,560.98 599.89,559.60 C601.05,558.55 602.00,556.95 602.00,556.04 C602.00,555.14 602.49,553.91 603.09,553.31 C604.36,552.04 602.65,548.00 600.85,548.00 C600.22,548.00 600.46,546.95 601.40,545.51 C602.20,544.30 599.77,546.35 595.86,550.16 C598.78,546.95 601.98,543.15 604.49,539.84 C609.95,532.64 614.21,525.66 617.89,517.49 C615.13,523.82 612.23,529.24 609.20,533.71 C606.66,537.45 605.66,539.67 606.52,539.67 C607.27,539.67 607.80,539.26 607.69,538.75 C607.59,538.25 610.54,537.68 614.25,537.48 C617.97,537.28 621.45,536.84 622.00,536.50 C622.55,536.16 623.01,534.22 623.03,532.19 C623.05,530.16 623.72,527.63 624.53,526.56 C626.70,523.69 626.45,516.76 624.12,515.31 C623.09,514.66 622.25,513.00 622.25,511.59 C622.25,510.18 622.64,509.28 623.12,509.58 C623.61,509.87 624.00,509.03 624.00,507.71 C624.00,504.78 625.97,498.90 627.44,497.42 C629.19,495.66 631.00,496.96 631.00,499.98 C631.00,504.11 633.19,504.26 637.39,500.41 C639.44,498.53 641.96,497.00 643.00,497.00 C644.03,497.00 645.20,496.48 645.59,495.85 C646.09,495.05 645.52,494.90 643.67,495.37 C641.50,495.91 640.95,495.64 640.48,493.76 C639.58,490.11 640.50,486.82 643.01,484.79 C644.69,483.43 645.37,481.82 645.42,479.05 L 645.50 475.21 L 642.70 476.66 C641.37,477.34 638.65,478.11 636.23,478.51 C642.10,477.48 648.31,473.48 654.93,466.48 C664.28,456.60 669.08,441.83 668.93,428.76 C669.13,434.55 668.51,440.38 667.01,445.16 C664.83,452.11 664.73,452.61 665.58,451.75 C665.90,451.43 667.00,448.54 668.03,445.33 C669.05,442.13 669.92,440.23 669.95,441.13 C669.98,442.02 670.65,443.30 671.45,443.96 C672.65,444.96 673.19,444.51 674.54,441.33 C675.90,438.16 675.97,436.98 674.96,434.50 C674.29,432.85 673.64,428.70 673.52,425.28 C673.39,421.86 672.78,418.44 672.15,417.69 C671.53,416.93 671.26,416.08 671.55,415.79 C671.84,415.50 671.54,414.08 670.88,412.63 C669.45,409.50 664.20,408.63 665.53,411.75 C666.30,413.55 666.95,415.55 667.46,417.67 C665.87,411.86 662.98,407.00 658.74,403.93 C657.26,402.86 655.43,401.92 653.92,401.41 L 656.75 401.78 L 656.62 395.06 C656.52,390.25 656.01,387.86 654.81,386.67 C652.78,384.63 651.00,384.51 651.00,386.40 C651.00,387.17 649.42,388.73 647.50,389.87 C645.58,391.00 644.00,392.35 644.00,392.85 C644.00,393.35 642.99,394.10 641.75,394.52 C639.15,395.39 632.76,395.90 633.48,395.19 C633.75,394.92 633.10,393.95 632.03,393.03 C630.30,391.52 630.24,391.08 631.50,388.67 C632.79,386.18 632.72,385.86 630.57,384.45 C629.29,383.62 627.25,382.74 626.04,382.51 C624.19,382.15 624.02,382.32 625.03,383.54 C627.11,386.04 625.24,385.15 621.28,381.75 C618.31,379.20 618.63,379.76 622.80,384.38 C626.48,388.47 629.25,392.41 630.75,395.58 C629.22,392.64 626.24,388.84 621.51,383.69 C619.11,381.08 616.33,377.57 613.70,373.94 C615.14,375.01 615.77,373.29 615.29,369.11 C614.91,365.86 615.19,365.23 617.48,364.19 C618.92,363.54 620.89,363.00 621.87,363.00 C622.85,363.00 624.72,361.87 626.02,360.48 C627.32,359.10 630.08,357.46 632.16,356.83 C634.23,356.21 635.70,355.32 635.41,354.85 C635.12,354.38 635.43,354.00 636.11,354.00 C636.78,354.00 637.09,353.76 636.79,353.46 C636.50,353.16 630.56,353.70 623.61,354.66 C611.50,356.33 611.07,356.47 613.48,357.93 C614.97,358.84 616.00,360.38 616.00,361.71 C616.00,363.64 615.68,363.83 613.67,363.06 C612.38,362.57 610.72,362.56 609.96,363.02 C609.21,363.49 608.20,363.62 607.72,363.32 C607.03,362.90 607.93,365.04 609.36,367.63 C607.03,364.04 605.20,360.81 604.46,358.82 C603.96,357.46 604.65,357.05 608.17,356.61 C629.80,353.94 632.71,353.47 647.00,350.42 C649.11,349.97 651.72,349.32 654.39,348.59 C650.97,349.57 647.56,350.51 645.00,351.14 C639.82,352.41 638.82,352.86 641.75,352.59 C644.58,352.32 645.78,352.55 645.34,353.25 C644.90,353.97 645.78,354.07 648.09,353.56 C649.97,353.14 652.17,352.89 653.00,352.99 C657.29,353.51 664.47,352.85 665.70,351.83 C666.82,350.91 667.22,351.11 667.66,352.82 C667.97,354.01 668.63,354.73 669.11,354.43 C669.60,354.13 670.00,354.67 670.00,355.64 C670.00,356.77 670.35,357.05 670.96,356.44 C671.58,355.82 671.42,354.04 670.51,351.49 C669.79,349.47 669.17,347.09 669.06,345.94 C669.45,348.24 671.70,355.24 675.12,364.89 C673.61,360.91 672.23,358.00 671.82,358.00 C671.32,358.00 671.00,358.56 671.11,359.25 C671.44,361.25 669.90,364.00 668.46,364.00 C667.73,364.00 666.87,364.79 666.54,365.75 C665.76,368.07 661.28,371.26 658.62,371.39 C656.72,371.49 656.48,372.14 656.31,377.75 L 656.12 384.00 L 659.06 384.00 C660.68,384.00 662.00,384.45 662.00,385.00 C662.00,386.46 664.73,386.22 668.48,384.44 C670.42,383.52 671.71,382.20 671.63,381.19 C671.56,380.26 672.06,379.61 672.75,379.75 C673.44,379.89 674.00,379.58 674.00,379.06 C674.00,378.55 675.26,377.99 676.80,377.81 L 679.61 377.50 L 677.15 370.53 C677.27,370.85 677.39,371.18 677.51,371.50 C679.31,376.44 683.77,386.09 687.44,392.96 C686.89,391.96 686.51,391.30 686.37,391.12 C686.21,390.92 684.87,392.19 683.39,393.95 C680.69,397.16 678.63,406.96 680.96,405.52 C681.53,405.17 682.00,405.55 682.00,406.36 C682.00,407.17 682.51,408.00 683.14,408.21 C683.99,408.50 683.98,409.17 683.10,410.82 C682.44,412.04 682.22,413.55 682.61,414.18 C683.04,414.87 682.86,415.03 682.15,414.60 C679.84,413.16 681.08,415.93 684.13,418.97 C687.05,421.89 687.13,422.18 685.47,423.40 C683.77,424.64 683.79,424.94 685.99,429.48 C688.20,434.05 688.93,442.99 687.61,449.52 C687.16,451.76 689.55,455.23 692.27,456.27 C693.24,456.64 694.47,458.11 695.01,459.53 C695.55,460.96 696.45,461.84 697.00,461.50 C697.55,461.16 698.00,461.58 698.00,462.44 C698.00,464.91 700.56,464.25 701.84,461.45 ZM 637.82 400.00 C638.96,400.00 640.00,399.12 640.32,397.88 C640.78,396.11 641.35,395.87 643.69,396.45 C645.23,396.83 646.62,397.45 646.77,397.82 C647.51,399.70 648.59,400.53 651.28,401.03 C649.37,401.22 648.66,402.49 646.03,409.08 C640.54,422.84 637.20,429.60 636.68,428.00 C636.41,427.17 635.75,422.54 635.21,417.70 C634.68,412.86 634.00,408.67 633.71,408.38 C632.68,407.35 609.99,420.46 610.49,421.80 C611.43,424.31 609.13,436.04 606.63,441.50 C603.52,448.29 595.63,456.80 589.17,460.31 C573.46,468.86 553.50,466.03 539.92,453.33 C532.34,446.24 527.00,434.08 527.00,423.90 C527.00,421.44 526.40,420.65 523.63,419.49 C521.83,418.74 519.67,418.17 517.38,417.80 C517.92,417.70 518.23,417.44 518.50,417.00 C518.84,416.45 518.30,415.99 517.31,415.98 C516.30,415.98 515.94,415.65 516.50,415.23 C517.05,414.83 517.61,413.94 517.75,413.25 C517.93,412.34 516.18,412.04 511.25,412.16 L 505.55 412.29 C511.97,411.80 520.23,412.17 523.77,413.42 L 527.79 414.84 L 529.90 409.06 C533.69,398.66 540.62,391.41 551.76,386.19 C556.95,383.76 558.61,383.50 569.02,383.50 C579.99,383.50 580.86,383.66 587.11,386.73 C595.42,390.82 603.09,398.78 606.65,406.99 C608.11,410.34 609.79,412.96 610.40,412.79 C611.01,412.63 616.11,410.06 621.75,407.09 C629.09,403.21 631.91,401.22 632.00,399.85 C632.00,399.90 632.00,399.95 632.00,400.00 C632.00,401.74 632.31,401.90 633.93,401.04 C635.00,400.47 636.75,400.00 637.82,400.00 ZM 414.11 420.14 C414.64,420.98 414.93,419.22 414.87,415.50 C414.81,412.20 414.56,410.29 414.31,411.25 C414.24,411.52 414.12,411.77 413.97,412.00 C413.99,411.84 414.00,411.65 414.00,411.47 C414.00,408.36 419.31,399.60 424.09,394.81 C426.72,392.19 431.10,389.07 434.82,387.16 C434.70,387.24 434.57,387.33 434.44,387.43 C432.59,388.79 432.63,388.85 435.16,388.58 C436.71,388.41 437.72,388.76 437.58,389.40 C437.44,390.00 437.52,390.16 437.75,389.74 C437.98,389.33 438.54,389.22 438.99,389.50 C439.45,389.78 440.87,389.54 442.16,388.98 C444.44,387.98 444.43,387.97 441.85,388.47 C440.07,388.82 439.02,388.50 438.64,387.49 C438.25,386.50 437.79,386.03 437.06,386.08 C442.32,383.65 443.93,383.50 454.00,383.50 C464.59,383.50 466.00,383.73 471.82,386.42 C481.43,390.85 490.39,401.51 494.31,413.16 C494.81,414.63 495.27,414.67 498.68,413.45 C500.10,412.94 502.27,412.58 504.79,412.35 L 514.50 413.69 L 510.00 413.96 C505.79,414.22 505.69,414.29 508.50,415.00 C510.15,415.42 511.05,415.87 510.50,416.00 C509.95,416.13 510.85,416.58 512.50,417.00 C513.13,417.16 513.69,417.30 514.19,417.41 C509.83,417.06 505.35,417.39 502.12,418.46 C496.12,420.45 495.45,421.47 494.74,429.50 C493.34,445.52 479.79,460.60 463.50,464.27 C453.01,466.64 445.17,465.59 435.00,460.48 C428.87,457.40 419.00,448.51 419.00,446.07 C419.00,445.48 418.58,445.00 418.07,445.00 C416.38,445.00 412.83,433.61 412.28,426.42 L 411.79 420.06 C412.28,420.37 412.68,420.26 412.87,419.76 C413.08,419.22 413.63,419.39 414.11,420.14 ZM 445.72 458.97 C451.83,460.51 462.40,459.42 468.53,456.62 C483.04,449.97 492.01,432.99 489.05,417.77 C486.72,405.83 479.76,396.63 469.00,391.25 C464.14,388.82 462.39,388.50 454.00,388.52 C446.37,388.54 443.55,388.98 439.67,390.75 C429.29,395.49 422.53,403.31 419.04,414.61 C416.59,422.52 417.64,431.67 422.02,440.63 C426.07,448.93 435.82,456.48 445.72,458.97 ZM 560.41 458.56 C575.17,462.72 592.85,455.05 600.20,441.29 C605.98,430.47 606.34,419.60 601.28,408.78 C597.60,400.92 591.88,395.07 584.16,391.28 C579.18,388.83 577.36,388.50 569.00,388.50 C560.60,388.50 558.83,388.83 553.76,391.32 C546.44,394.91 539.38,401.98 536.08,409.00 C533.87,413.71 533.50,415.87 533.51,424.00 C533.51,432.72 533.77,433.99 536.67,439.50 C541.69,449.05 549.82,455.57 560.41,458.56 ZM 599.96 383.55 C598.33,385.51 597.52,385.33 590.00,381.35 C580.66,376.42 568.65,375.21 558.00,378.12 C546.56,381.26 545.50,381.36 543.66,379.52 C535.07,370.92 565.86,363.55 584.15,369.82 C596.09,373.91 602.99,379.90 599.96,383.55 ZM 560.12 406.64 C560.18,405.46 560.15,403.89 560.05,403.15 C559.94,402.32 560.34,402.09 561.09,402.55 C561.87,403.04 562.05,402.89 561.60,402.15 C561.20,401.52 561.31,401.00 561.83,401.00 C562.36,401.00 563.08,400.24 563.44,399.31 C563.98,397.88 563.75,397.92 561.94,399.55 C560.77,400.62 559.59,402.17 558.69,403.75 C559.84,401.15 561.48,399.10 563.47,398.20 C569.11,395.62 573.02,397.16 576.07,403.14 C579.93,410.70 579.24,417.91 574.10,423.81 C569.91,428.62 561.64,427.08 558.44,420.89 C556.76,417.63 556.42,413.20 557.11,409.09 C557.65,410.40 560.00,408.82 560.12,406.64 ZM 453.83 424.88 C452.75,424.19 452.77,424.03 453.95,424.02 C456.56,423.99 453.60,422.05 450.42,421.70 C448.76,421.52 446.87,421.04 446.20,420.63 C445.17,419.99 444.83,420.05 445.05,420.58 C443.73,418.15 443.00,415.21 443.00,412.10 C443.00,406.81 444.47,403.22 448.04,399.81 C453.83,394.28 460.67,397.32 464.40,407.10 C464.70,407.87 464.93,408.63 465.11,409.37 C464.76,408.94 464.36,409.21 463.43,410.14 C462.59,410.99 462.21,412.38 462.57,413.32 C463.30,415.22 464.61,415.46 465.41,413.99 C465.05,417.23 463.41,420.30 460.46,423.34 C456.31,427.61 452.95,428.02 448.63,424.79 C447.33,423.83 446.22,422.56 445.34,421.08 C445.81,421.77 446.73,422.81 448.00,424.00 C450.04,425.91 451.68,426.64 453.09,426.27 C454.67,425.85 454.85,425.52 453.83,424.88 ZM 432.21 381.48 C431.56,381.79 430.96,382.07 430.40,382.33 C434.34,380.28 434.46,379.06 431.15,377.40 C429.95,376.79 428.64,375.93 428.23,375.49 C427.83,375.04 428.13,375.05 428.90,375.49 C429.85,376.04 430.08,375.93 429.59,375.15 C429.06,374.29 428.33,374.28 426.69,375.13 C426.47,375.24 426.26,375.35 426.05,375.47 C426.16,375.39 426.27,375.32 426.39,375.24 C437.26,367.96 456.87,365.33 470.29,369.35 C478.89,371.92 481.67,375.34 478.59,379.54 C477.28,381.33 476.85,381.37 472.34,380.09 C454.92,375.14 444.82,375.49 432.21,381.48 ZM 422.59 570.50 C423.97,569.12 424.66,568.00 424.13,568.00 C423.56,568.00 423.63,566.79 424.31,565.00 C424.93,563.35 425.95,562.00 426.56,562.00 C428.48,562.00 431.26,558.24 430.41,556.81 C429.80,555.80 430.01,555.82 431.31,556.87 C432.24,557.63 433.00,557.94 433.00,557.56 C433.00,556.50 422.82,546.00 421.80,546.00 C421.29,546.00 421.14,546.42 421.46,546.93 C421.77,547.44 421.01,548.00 419.76,548.18 C417.85,548.45 417.48,549.14 417.39,552.62 C417.33,554.88 416.92,557.32 416.48,558.03 C415.95,558.88 416.67,560.12 418.55,561.62 C421.26,563.79 421.36,564.11 420.22,567.28 C417.98,573.46 418.68,574.41 422.59,570.50 ZM 657.33 473.58 C657.63,472.80 658.69,472.36 659.69,472.60 C660.92,472.91 662.18,471.99 663.63,469.73 C665.21,467.25 666.46,466.41 668.50,466.45 C670.06,466.48 671.73,465.75 672.36,464.76 C673.26,463.36 673.06,462.73 671.30,461.50 C669.96,460.56 669.27,459.20 669.50,457.99 C669.71,456.89 669.38,456.00 668.77,456.00 C668.16,456.00 666.87,455.28 665.90,454.41 C664.26,452.92 663.99,453.09 662.07,456.87 C660.93,459.10 657.90,463.53 655.33,466.71 C652.76,469.90 651.64,471.64 652.83,470.60 C655.13,468.58 655.87,469.66 653.75,471.95 C652.74,473.04 652.77,473.14 653.92,472.48 C654.97,471.88 655.18,472.10 654.70,473.34 C654.30,474.39 654.57,475.00 655.42,475.00 C656.17,475.00 657.03,474.36 657.33,473.58 ZM 699.34 416.49 C705.18,428.77 709.55,439.34 711.91,447.00 C711.07,444.45 709.55,440.50 707.29,434.70 C704.05,426.39 702.30,423.06 701.35,423.42 C699.79,424.02 699.49,422.42 701.03,421.66 C701.59,421.38 701.48,421.27 700.78,421.41 C700.07,421.55 699.49,422.37 699.49,423.21 C699.48,424.06 698.95,425.82 698.32,427.13 C697.69,428.43 696.59,432.32 695.87,435.76 C694.40,442.91 692.78,443.38 691.89,436.92 C691.56,434.49 690.72,429.16 690.04,425.08 C688.83,417.87 688.86,417.62 691.02,415.98 C692.78,414.66 693.73,414.53 695.54,415.39 C696.80,415.98 697.62,416.81 697.36,417.23 C697.10,417.66 697.57,418.00 698.42,418.00 C699.40,418.00 699.67,417.66 699.34,416.49 ZM 413.31 360.00 C414.87,360.00 416.76,359.38 417.52,358.62 C418.69,357.46 417.58,357.08 410.20,356.13 C392.45,353.86 388.40,353.64 389.69,355.01 C390.34,355.71 393.04,356.83 395.69,357.50 C398.34,358.17 400.36,359.12 400.19,359.61 C399.71,361.00 404.18,361.74 407.49,360.83 C409.14,360.37 411.76,360.00 413.31,360.00 ZM 354.41 637.29 C356.24,636.28 356.23,636.19 354.04,635.02 C352.78,634.35 352.03,634.24 352.37,634.79 C352.70,635.33 352.03,636.02 350.88,636.32 C349.37,636.72 348.64,636.33 348.28,634.95 C348.00,633.89 347.40,633.25 346.95,633.53 C346.49,633.81 346.39,632.39 346.71,630.38 C347.30,626.75 347.28,626.72 344.40,627.39 C342.81,627.77 340.94,628.14 340.25,628.21 C339.56,628.28 339.00,628.78 339.00,629.32 C339.00,629.87 337.99,629.50 336.75,628.51 C335.51,627.52 337.36,629.51 340.85,632.92 C344.52,636.52 347.78,638.92 348.57,638.61 C349.32,638.32 350.23,638.57 350.59,639.15 C350.99,639.79 351.50,639.84 351.88,639.27 C352.22,638.75 353.36,637.86 354.41,637.29 ZM 319.00 524.06 C319.00,522.25 318.23,520.57 317.01,519.72 C315.91,518.95 315.35,517.95 315.76,517.50 C316.17,517.05 315.65,516.99 314.61,517.36 C313.17,517.88 312.96,517.74 313.71,516.77 C316.90,512.71 315.58,507.00 311.46,507.00 C308.01,507.00 308.27,509.10 312.96,518.80 C317.11,527.37 319.00,529.02 319.00,524.06 ZM 652.62 630.20 C652.35,629.76 652.51,628.79 652.98,628.04 C654.19,626.08 651.96,624.25 646.64,622.83 C642.89,621.82 641.63,621.86 639.42,623.04 L 636.75 624.47 L 642.13 626.86 C646.50,628.80 650.02,630.14 652.81,630.91 C652.98,630.96 652.90,630.64 652.62,630.20 ZM 606.90 421.00 C607.00,423.00 607.23,423.20 608.00,422.00 C608.83,420.72 608.97,420.75 608.98,422.25 C608.99,423.21 609.48,424.00 610.07,424.00 C610.68,424.00 610.86,423.15 610.50,422.00 C610.11,420.77 610.32,420.00 611.04,420.00 C611.69,420.00 611.95,419.31 611.62,418.45 C611.29,417.59 611.43,417.15 611.92,417.45 C612.41,417.75 613.87,417.54 615.16,416.98 C617.42,415.99 617.41,415.97 614.82,416.48 C613.13,416.81 611.57,416.42 610.57,415.43 C609.71,414.56 609.00,414.35 609.00,414.95 C609.00,415.59 607.95,415.36 606.45,414.38 C604.79,413.29 604.11,412.15 604.51,411.10 C604.93,409.99 604.80,409.82 604.07,410.54 C603.35,411.25 603.34,412.68 604.01,415.03 C604.55,416.93 605.05,419.84 605.12,421.49 L 605.24 424.50 L 606.00 421.50 C606.71,418.71 606.77,418.67 606.90,421.00 ZM 632.50 615.23 C631.95,614.83 631.50,613.41 631.50,612.08 C631.50,608.73 629.45,608.38 627.48,611.39 C625.39,614.59 626.26,616.00 630.31,615.98 C632.06,615.98 633.05,615.64 632.50,615.23 ZM 398.50 384.47 C402.41,382.07 402.75,380.99 398.96,383.02 C397.36,383.88 397.15,383.76 397.70,382.35 C398.20,381.03 397.95,380.80 396.59,381.33 C395.63,381.70 394.40,382.00 393.86,382.00 C393.32,382.00 393.17,382.47 393.53,383.04 C393.88,383.62 393.63,384.74 392.96,385.54 C391.03,387.87 393.87,387.32 398.50,384.47 ZM 417.09 578.95 C419.56,577.63 418.65,576.00 415.44,576.00 C413.67,576.00 413.00,576.55 413.00,578.00 C413.00,580.23 414.18,580.51 417.09,578.95 ZM 374.72 498.88 C376.10,497.50 375.28,495.00 373.45,495.00 C371.66,495.00 370.86,496.47 371.60,498.41 C372.32,500.29 373.18,500.42 374.72,498.88 ZM 639.29 617.98 C638.57,615.26 637.21,614.58 635.45,616.05 C634.17,617.11 634.21,617.44 635.74,618.60 C638.34,620.57 639.89,620.31 639.29,617.98 ZM 395.00 585.50 C395.00,583.03 394.55,581.00 394.00,581.00 C393.45,581.00 393.00,583.03 393.00,585.50 C393.00,587.97 393.45,590.00 394.00,590.00 C394.55,590.00 395.00,587.97 395.00,585.50 ZM 664.00 550.04 C664.00,549.47 663.49,549.00 662.86,549.00 C661.22,549.00 659.13,552.18 659.74,553.76 C660.13,554.78 660.70,554.62 662.13,553.09 C663.16,551.99 664.00,550.61 664.00,550.04 ZM 350.61 444.71 C349.52,444.28 347.92,444.10 347.06,444.31 C345.90,444.60 346.09,444.94 347.82,445.65 C349.10,446.17 350.11,446.91 350.07,447.30 C349.80,449.93 350.20,450.16 351.32,448.00 C352.46,445.78 352.38,445.41 350.61,444.71 ZM 364.98 392.25 C364.98,391.84 364.55,390.83 364.03,390.01 C363.31,388.88 362.80,388.80 361.93,389.67 C361.29,390.31 361.08,391.31 361.45,391.91 C362.20,393.14 365.01,393.41 364.98,392.25 ZM 635.69 408.15 C634.25,407.52 634.05,408.51 634.76,412.55 L 635.46 416.50 L 635.98 412.50 C636.27,410.30 636.13,408.34 635.69,408.15 ZM 676.00 630.06 C676.00,628.56 673.66,627.52 673.22,628.83 C673.01,629.48 672.42,629.76 671.91,629.45 C671.41,629.14 671.00,629.36 671.00,629.94 C671.00,630.52 672.12,631.00 673.50,631.00 C674.88,631.00 676.00,630.58 676.00,630.06 ZM 374.29 504.89 C373.70,504.30 372.38,504.01 371.36,504.25 C369.75,504.64 369.83,504.83 372.00,505.73 C374.82,506.90 375.90,506.50 374.29,504.89 ZM 617.94 616.04 C615.24,613.02 610.99,607.71 603.38,598.20 C598.13,591.62 592.14,584.79 589.24,582.01 C592.18,584.67 600.10,593.76 607.12,602.57 C611.54,608.13 615.51,613.06 617.94,616.04 ZM 693.00 445.00 C693.00,443.75 694.06,443.75 696.00,445.00 C697.21,445.78 697.07,445.97 695.25,445.98 C694.01,445.99 693.00,445.55 693.00,445.00 ZM 655.50 554.00 C655.84,553.45 655.16,553.00 654.00,553.00 C652.84,553.00 652.16,553.45 652.50,554.00 C652.84,554.55 653.51,555.00 654.00,555.00 C654.49,555.00 655.16,554.55 655.50,554.00 ZM 422.50 593.93 C422.69,593.64 422.76,593.42 422.66,593.33 C422.42,593.09 425.66,589.65 429.86,585.69 C430.33,585.26 430.78,584.82 431.22,584.40 C429.20,586.37 426.00,589.88 422.50,593.93 ZM 685.00 425.00 C685.00,424.45 685.45,424.00 686.00,424.00 C686.55,424.00 687.00,424.45 687.00,425.00 C687.00,425.55 686.55,426.00 686.00,426.00 C685.45,426.00 685.00,425.55 685.00,425.00 ZM 412.94 605.43 C415.30,602.33 417.12,599.87 417.50,599.24 C418.05,598.33 419.54,596.72 420.80,595.68 C421.11,595.42 421.40,595.16 421.65,594.91 C419.01,597.98 416.24,601.31 413.70,604.48 C413.45,604.79 413.19,605.11 412.94,605.43 ZM 703.80 530.81 C702.50,532.75 701.27,534.79 700.15,536.87 C701.40,534.15 702.24,532.05 702.17,531.75 C702.08,531.34 702.53,531.00 703.17,531.00 C703.49,531.00 703.71,530.93 703.80,530.81 ZM 694.78 549.55 C694.67,549.95 694.55,550.34 694.45,550.73 C693.90,552.82 693.56,554.94 693.45,557.24 C693.38,553.16 693.64,550.00 694.09,550.00 C694.37,550.00 694.62,549.82 694.78,549.55 ZM 588.12 581.02 L 584.00 577.58 L 584.00 575.47 C584.38,576.92 585.78,578.86 588.12,581.02 ZM 323.96 602.01 C323.28,594.28 324.32,585.47 326.99,575.02 C327.07,574.72 327.14,574.42 327.22,574.11 C325.94,579.61 324.60,586.53 324.09,591.16 C323.73,594.51 323.71,598.38 323.96,602.01 ZM 311.72 445.62 C315.52,434.30 321.56,421.13 331.49,401.46 C332.90,398.67 334.19,396.09 335.38,393.66 C334.16,396.16 332.83,398.83 331.39,401.69 C321.47,421.44 315.49,434.49 311.72,445.62 ZM 698.82 590.34 C699.48,595.78 699.50,600.45 698.88,604.38 C698.79,604.94 698.68,605.53 698.54,606.14 C698.67,605.30 698.82,604.40 698.97,603.50 C699.46,600.64 699.30,595.14 698.82,590.34 ZM 625.78 495.49 C626.39,493.39 627.00,491.21 627.62,488.93 L 630.22 479.25 L 630.23 479.25 L 628.48 485.88 C627.60,489.21 626.70,492.41 625.78,495.49 ZM 696.44 544.78 C695.89,546.16 695.41,547.52 695.00,548.85 C695.00,548.81 695.00,548.76 695.00,548.72 C695.00,548.31 695.57,546.79 696.44,544.78 ZM 393.22 482.16 C392.93,480.97 392.65,480.23 392.29,479.76 C392.79,480.22 393.01,480.94 393.22,482.16 ZM 665.94 345.02 C666.43,344.84 666.87,344.67 667.25,344.51 C668.42,344.02 668.95,344.23 669.00,345.21 C668.85,344.45 668.36,344.10 667.75,344.35 C667.32,344.53 666.70,344.76 665.94,345.02 ZM 305.32 485.97 C305.27,482.98 305.33,479.95 305.53,476.98 C305.36,479.89 305.29,483.01 305.32,485.97 ZM 422.56 384.15 C422.86,384.42 423.12,384.62 423.41,384.74 C423.09,384.64 422.83,384.44 422.56,384.15 Z" fill="rgb(98,65,49)"/>
<path d="M 475.64 511.77 C474.53,513.57 472.72,513.29 468.90,510.71 C462.43,506.35 465.77,502.21 473.24,505.33 C476.65,506.75 477.44,508.86 475.64,511.77 ZM 555.25 508.28 C553.53,509.83 546.84,512.82 548.26,511.40 C548.66,511.01 548.44,510.03 547.79,509.24 C547.13,508.45 546.50,507.22 546.40,506.50 C546.16,504.87 553.37,501.55 555.45,502.34 C557.52,503.14 557.42,506.31 555.25,508.28 ZM 537.61 514.25 C537.52,516.19 536.88,516.54 533.00,516.78 C529.71,516.98 528.90,516.78 530.00,516.04 C531.31,515.16 531.29,515.03 529.87,515.02 C528.97,515.01 528.01,514.15 527.74,513.11 C527.34,511.58 527.94,511.11 530.87,510.62 C536.00,509.77 537.21,509.86 536.50,511.00 C536.16,511.55 536.30,512.00 536.80,512.00 C537.31,512.00 537.68,513.01 537.61,514.25 Z" fill="rgb(142,103,83)"/>
<path d="M 501.00 590.91 C510.75,592.16 513.71,592.12 523.00,590.60 C542.57,587.39 563.51,577.42 581.81,562.61 C586.22,559.04 589.42,556.37 592.08,553.93 C591.46,554.57 590.87,555.19 590.32,555.77 L 584.00 561.36 L 584.00 574.09 C583.86,574.47 583.86,574.94 584.00,575.47 L 584.00 577.58 L 586.47 579.64 C585.83,579.21 585.33,579.00 584.97,579.00 C584.41,579.00 584.00,583.39 584.00,589.42 C584.00,599.43 583.86,600.10 580.41,606.67 C578.44,610.43 576.08,614.24 575.16,615.14 C572.57,617.70 553.20,621.01 540.84,621.00 C510.11,620.99 481.37,607.90 452.61,580.83 C446.62,575.19 440.88,569.21 439.86,567.54 L 438.01 564.50 L 438.00 578.11 L 438.00 562.74 C438.01,562.78 438.02,562.82 438.02,562.85 C438.03,563.93 438.28,564.10 438.77,563.35 C439.26,562.59 442.16,564.17 447.50,568.11 C462.21,578.98 485.53,588.92 501.00,590.91 ZM 646.03 409.08 C646.46,407.99 646.84,407.05 647.19,406.24 L 645.24 411.47 L 648.19 413.26 C659.44,420.10 655.94,446.84 642.63,455.75 C639.96,457.54 636.68,459.00 635.34,459.00 C633.16,459.00 632.96,458.67 633.43,455.75 C633.71,453.96 634.44,447.57 635.04,441.55 C635.64,435.53 636.27,430.36 636.44,430.05 C636.57,429.82 636.45,427.94 636.19,425.38 C636.40,426.71 636.57,427.67 636.68,428.00 C637.20,429.60 640.54,422.84 646.03,409.08 ZM 386.88 422.20 C385.91,431.16 385.93,435.70 386.93,445.61 C387.63,452.50 387.95,458.38 387.65,458.69 C386.61,459.72 382.52,458.10 378.28,454.98 C365.78,445.78 363.04,419.44 373.95,413.23 C375.62,412.28 376.99,411.20 376.99,410.83 C376.99,410.70 376.88,410.29 376.67,409.71 C377.16,410.85 377.69,412.11 378.26,413.50 C380.95,420.10 383.40,426.29 383.70,427.25 C383.99,428.21 384.58,429.00 385.01,429.00 C385.65,429.00 386.23,427.00 386.88,422.20 ZM 475.64 511.77 C477.34,509.03 476.73,507.00 473.80,505.58 C475.05,505.97 476.49,506.44 478.16,507.00 C483.08,508.65 487.99,510.00 489.06,510.00 C490.13,510.00 491.00,510.40 491.00,510.89 C491.00,512.02 521.06,511.74 530.09,510.76 C527.83,511.21 527.38,511.73 527.74,513.11 C528.01,514.15 528.97,515.01 529.87,515.02 C531.29,515.03 531.31,515.16 530.00,516.04 C528.90,516.78 529.71,516.98 533.00,516.78 C536.88,516.54 537.52,516.19 537.61,514.25 C537.68,513.01 537.31,512.00 536.80,512.00 C536.30,512.00 536.16,511.55 536.50,511.00 C537.14,509.97 536.22,509.80 532.30,510.40 C532.38,510.37 532.45,510.34 532.50,510.31 C535.31,508.78 543.84,505.59 549.37,503.84 C547.65,504.72 546.29,505.78 546.40,506.50 C546.50,507.22 547.13,508.45 547.79,509.24 C548.44,510.03 548.66,511.01 548.26,511.40 C547.28,512.39 550.18,511.26 552.63,509.95 C548.21,512.95 540.39,515.81 531.05,517.61 C510.98,521.47 488.24,519.66 473.50,513.04 C473.36,512.97 473.21,512.91 473.07,512.84 C474.26,513.10 475.05,512.73 475.64,511.77 ZM 522.99 479.84 C513.94,483.75 504.92,483.26 495.95,478.38 C490.35,475.33 488.65,471.92 491.37,469.21 C492.87,467.70 493.43,467.79 498.71,470.38 C501.86,471.93 506.76,473.43 509.61,473.72 C514.00,474.18 515.84,473.77 521.84,471.00 C529.44,467.50 532.00,467.57 532.00,471.29 C532.00,474.27 528.75,477.35 522.99,479.84 ZM 582.47 445.64 C580.06,447.40 571.04,447.28 564.02,445.40 C551.34,441.99 538.41,430.70 544.51,428.36 C545.41,428.01 547.60,429.22 549.97,431.36 C557.19,437.88 563.33,440.31 573.83,440.81 C580.97,441.14 583.29,441.60 583.74,442.77 C584.07,443.63 583.52,444.87 582.47,445.64 ZM 461.53 443.90 C452.92,447.12 440.68,447.55 437.24,444.76 C434.56,442.58 437.98,441.24 447.27,440.82 C457.49,440.37 462.92,438.32 469.97,432.29 C473.99,428.85 476.38,428.19 477.61,430.18 C478.83,432.15 467.81,441.55 461.53,443.90 ZM 577.01 514.49 C574.10,518.00 571.00,514.91 571.00,508.50 C571.00,503.61 569.84,501.66 562.28,493.76 C555.72,486.91 554.94,484.75 558.82,484.18 C561.46,483.79 571.06,492.53 574.54,498.49 C577.42,503.44 578.80,512.33 577.01,514.49 ZM 524.83 537.29 C518.09,540.59 498.47,540.23 494.21,536.74 C493.50,536.16 493.05,534.97 493.22,534.09 C493.48,532.74 495.57,532.47 507.01,532.32 C514.43,532.22 522.30,532.00 524.50,531.82 C527.94,531.55 528.50,531.78 528.50,533.50 C528.50,534.81 527.24,536.12 524.83,537.29 ZM 448.80 514.80 C448.14,515.46 447.33,516.00 447.00,516.00 C444.07,516.00 443.16,509.56 445.10,502.58 C446.47,497.63 459.44,484.00 462.78,484.00 C466.88,484.00 465.47,488.07 459.59,493.22 C453.61,498.46 450.00,504.83 450.00,510.12 C450.00,512.03 449.46,514.14 448.80,514.80 ZM 468.52 510.45 C465.71,508.66 464.75,507.10 465.36,505.51 C465.80,504.37 466.52,503.90 468.67,504.24 C464.84,504.20 464.01,507.23 468.52,510.45 ZM 387.60 416.17 C387.98,412.63 388.73,409.91 389.46,409.40 C388.80,409.88 388.13,412.58 387.47,417.35 C387.51,416.96 387.56,416.57 387.60,416.17 ZM 363.90 404.24 C365.31,403.17 366.49,402.33 367.52,401.77 C367.74,401.69 367.97,401.62 368.18,401.55 C366.98,402.08 365.57,402.98 363.90,404.24 ZM 653.92 401.41 C655.42,401.92 657.26,402.86 658.73,403.92 C657.25,402.85 655.40,401.91 653.87,401.40 Z" fill="rgb(222,150,128)"/>
<path d="M 515.72 809.50 L 515.50 884.50 L 507.99 885.12 L 508.24 806.82 C508.50,729.42 508.52,728.52 510.50,728.15 C511.60,727.94 512.77,727.34 513.10,726.82 C513.43,726.29 514.20,727.81 514.82,730.18 C515.60,733.21 515.87,756.87 515.72,809.50 ZM 541.06 709.52 C535.31,713.63 530.10,717.00 529.47,717.00 C527.88,717.00 527.00,715.95 527.00,714.03 C527.00,712.56 548.66,688.50 552.84,685.33 C556.20,682.77 558.71,683.95 568.13,692.49 C573.29,697.15 577.84,700.98 578.26,700.99 C578.68,700.99 577.67,703.70 576.00,707.00 C574.33,710.30 572.55,713.00 572.02,713.00 C571.50,713.00 567.44,710.53 563.00,707.50 C558.56,704.47 554.15,702.01 553.21,702.02 C552.27,702.03 546.80,705.41 541.06,709.52 ZM 494.40 715.41 C493.29,718.29 490.38,717.09 480.00,709.50 C474.36,705.38 469.30,702.00 468.76,702.00 C466.76,702.00 455.63,708.52 452.61,711.46 L 449.50 714.50 L 446.38 708.18 L 443.27 701.86 L 448.38 697.06 C458.08,687.96 463.13,684.00 465.02,684.00 C466.14,684.00 471.86,689.06 478.87,696.25 C493.34,711.08 495.18,713.36 494.40,715.41 Z" fill="rgb(203,202,202)"/>
<path d="M 625.78 495.49 C623.30,503.75 620.67,511.09 617.89,517.49 C614.21,525.66 609.95,532.64 604.49,539.84 C601.98,543.15 598.78,546.95 595.86,550.16 C595.34,550.66 594.80,551.20 594.23,551.76 C593.48,552.50 592.76,553.23 592.08,553.93 C589.42,556.37 586.22,559.04 581.81,562.61 C563.51,577.42 542.57,587.39 523.00,590.60 C513.71,592.12 510.75,592.16 501.00,590.91 C485.53,588.92 462.21,578.98 447.50,568.11 C442.16,564.17 439.26,562.59 438.77,563.35 C438.28,564.10 438.03,563.93 438.02,562.85 C438.02,562.82 438.01,562.78 438.00,562.74 L 438.00 561.21 L 430.36 553.85 C418.67,542.61 411.92,533.10 403.87,515.90 C402.74,513.35 402.00,511.50 402.00,511.13 C402.00,510.62 401.66,510.19 401.21,510.05 C401.13,509.87 401.05,509.68 400.97,509.50 C399.67,506.57 396.09,494.48 394.34,487.52 C394.20,486.78 394.05,486.02 393.89,485.25 C393.64,483.98 393.43,482.97 393.22,482.16 C393.01,480.94 392.79,480.22 392.29,479.76 C391.83,479.15 391.23,479.01 390.29,479.00 C389.65,478.88 388.86,478.79 387.86,478.67 C381.12,477.87 374.72,474.24 369.30,468.84 C368.98,468.47 368.63,468.07 368.26,467.66 C366.99,466.29 365.58,464.62 364.42,463.14 C362.66,460.75 361.06,458.16 359.66,455.42 C359.65,455.31 359.60,455.22 359.52,455.15 C354.48,445.17 352.09,433.33 353.95,422.31 C355.39,413.75 358.26,408.55 363.90,404.24 C365.57,402.98 366.98,402.08 368.18,401.55 C369.05,401.28 369.88,401.09 370.59,401.03 C372.62,401.40 374.22,404.02 376.67,409.71 C376.88,410.29 376.99,410.70 376.99,410.83 C376.99,411.20 375.62,412.28 373.95,413.23 C363.04,419.44 365.78,445.78 378.28,454.98 C382.52,458.10 386.61,459.72 387.65,458.69 C387.95,458.38 387.63,452.50 386.93,445.61 C385.93,435.70 385.91,431.16 386.88,422.20 C387.07,420.82 387.26,419.21 387.47,417.35 L 387.47 417.35 C388.13,412.58 388.80,409.88 389.46,409.40 C389.50,409.37 389.53,409.35 389.57,409.34 L 389.57 409.33 C390.19,409.13 393.79,410.50 398.18,412.57 C398.51,412.72 398.83,412.88 399.16,413.04 L 399.18 413.04 C399.88,413.38 400.59,413.73 401.30,414.09 L 409.78 418.36 C410.44,418.90 411.11,419.48 411.50,419.83 C411.60,419.93 411.70,420.00 411.79,420.06 L 412.28 426.42 C412.83,433.61 416.38,445.00 418.07,445.00 C418.58,445.00 419.00,445.48 419.00,446.07 C419.00,448.51 428.87,457.40 435.00,460.48 C445.17,465.59 453.01,466.64 463.50,464.27 C479.79,460.60 493.34,445.52 494.74,429.50 C495.45,421.47 496.12,420.45 502.12,418.46 C505.35,417.39 509.83,417.06 514.19,417.41 C515.78,417.78 516.74,417.91 517.38,417.80 C519.67,418.17 521.83,418.74 523.63,419.49 C526.40,420.65 527.00,421.44 527.00,423.90 C527.00,434.08 532.34,446.24 539.92,453.33 C553.50,466.03 573.46,468.86 589.17,460.31 C595.63,456.80 603.52,448.29 606.63,441.50 C609.13,436.04 611.43,424.31 610.49,421.80 C609.99,420.46 632.68,407.35 633.71,408.38 C634.00,408.67 634.68,412.86 635.21,417.70 C635.53,420.59 635.90,423.40 636.19,425.38 C636.45,427.94 636.57,429.82 636.44,430.05 C636.27,430.36 635.64,435.53 635.04,441.55 C634.44,447.57 633.71,453.96 633.43,455.75 C632.96,458.67 633.16,459.00 635.34,459.00 C636.68,459.00 639.96,457.54 642.63,455.75 C655.94,446.84 659.44,420.10 648.19,413.26 L 645.24 411.47 L 647.19 406.24 C648.93,402.10 649.68,401.19 651.28,401.03 C651.69,401.11 652.14,401.17 652.63,401.24 L 653.87 401.40 C655.36,401.90 657.16,402.81 658.62,403.84 C658.66,403.87 658.70,403.90 658.73,403.92 L 658.74 403.93 C662.98,407.00 665.87,411.86 667.46,417.67 C668.30,421.14 668.79,424.94 668.93,428.76 C669.08,441.83 664.28,456.60 654.93,466.48 C648.31,473.48 642.10,477.48 636.23,478.51 C635.83,478.58 635.44,478.63 635.06,478.68 L 630.23 479.25 L 630.22 479.25 L 627.62 488.93 C627.00,491.21 626.39,493.39 625.78,495.49 ZM 515.34 737.36 C515.21,733.34 515.03,731.00 514.82,730.18 C514.20,727.81 513.43,726.29 513.10,726.82 C512.77,727.34 511.60,727.94 510.50,728.15 C508.52,728.52 508.50,729.42 508.24,806.82 L 507.99 885.12 L 507.95 885.12 L 508.02 805.57 L 508.09 726.01 L 504.18 719.25 C502.02,715.54 495.62,704.17 489.96,694.00 C484.29,683.83 476.99,670.78 473.74,665.00 C470.49,659.22 461.23,642.58 453.17,628.01 L 438.50 601.53 L 438.00 590.01 L 437.50 578.57 L 438.00 578.11 L 438.01 564.50 L 439.86 567.54 C440.88,569.21 446.62,575.19 452.61,580.83 C481.37,607.90 510.11,620.99 540.84,621.00 C553.20,621.01 572.57,617.70 575.16,615.14 C576.08,614.24 578.44,610.43 580.41,606.67 C582.19,603.28 583.09,601.47 583.54,599.13 L 583.47 601.50 L 555.60 651.50 C540.27,679.00 524.59,707.05 520.76,713.83 C513.93,725.92 513.81,726.25 514.86,730.33 C515.05,731.08 515.21,733.41 515.34,737.36 ZM 421.25 372.19 C422.56,371.33 423.72,370.42 424.39,369.77 C431.36,364.79 436.32,360.33 435.55,359.07 C435.36,358.77 433.08,358.35 429.91,358.00 C446.77,359.39 464.26,360.15 486.50,360.57 C527.86,361.35 579.32,359.47 610.61,356.31 C609.82,356.41 609.01,356.51 608.17,356.61 C604.65,357.05 603.96,357.46 604.46,358.82 C605.20,360.81 607.03,364.04 609.36,367.63 C610.21,369.19 611.26,370.91 612.27,372.34 C612.81,373.11 613.28,373.64 613.70,373.94 C616.33,377.57 619.11,381.08 621.51,383.69 C626.24,388.84 629.22,392.64 630.75,395.58 C631.53,397.25 631.96,398.70 632.00,399.85 C631.91,401.22 629.09,403.21 621.75,407.09 C616.11,410.06 611.01,412.63 610.40,412.79 C609.79,412.96 608.11,410.34 606.65,406.99 C603.09,398.78 595.42,390.82 587.11,386.73 C580.86,383.66 579.99,383.50 569.02,383.50 C558.61,383.50 556.95,383.76 551.76,386.19 C540.62,391.41 533.69,398.66 529.90,409.06 L 527.79 414.84 L 523.77 413.42 C520.23,412.17 511.97,411.80 505.55,412.29 L 504.50 412.31 L 504.79 412.35 C502.27,412.58 500.10,412.94 498.68,413.45 C495.27,414.67 494.81,414.63 494.31,413.16 C490.39,401.51 481.43,390.85 471.82,386.42 C466.00,383.73 464.59,383.50 454.00,383.50 C443.93,383.50 442.32,383.65 437.06,386.08 C436.50,386.13 435.78,386.49 434.82,387.16 C431.10,389.07 426.72,392.19 424.09,394.81 C419.31,399.60 414.00,408.36 414.00,411.47 C414.00,411.65 413.99,411.84 413.97,412.00 C413.73,412.36 413.40,412.66 413.05,412.83 C411.58,412.20 406.87,409.94 401.49,407.26 L 389.95 401.52 L 390.51 398.01 C392.07,388.13 392.32,387.81 401.79,383.34 C406.59,381.07 412.08,377.92 417.22,374.62 C418.23,374.10 419.56,373.29 421.25,372.19 ZM 445.72 458.97 C435.82,456.48 426.07,448.93 422.02,440.63 C417.64,431.67 416.59,422.52 419.04,414.61 C422.53,403.31 429.29,395.49 439.67,390.75 C443.55,388.98 446.37,388.54 454.00,388.52 C462.39,388.50 464.14,388.82 469.00,391.25 C479.76,396.63 486.72,405.83 489.05,417.77 C492.01,432.99 483.04,449.97 468.53,456.62 C462.40,459.42 451.83,460.51 445.72,458.97 ZM 560.41 458.56 C549.82,455.57 541.69,449.05 536.67,439.50 C533.77,433.99 533.51,432.72 533.51,424.00 C533.50,415.87 533.87,413.71 536.08,409.00 C539.38,401.98 546.44,394.91 553.76,391.32 C558.83,388.83 560.60,388.50 569.00,388.50 C577.36,388.50 579.18,388.83 584.16,391.28 C591.88,395.07 597.60,400.92 601.28,408.78 C606.34,419.60 605.98,430.47 600.20,441.29 C592.85,455.05 575.17,462.72 560.41,458.56 ZM 555.25 508.28 C557.42,506.31 557.52,503.14 555.45,502.34 C554.29,501.90 551.54,502.73 549.37,503.84 C543.84,505.59 535.31,508.78 532.50,510.31 C532.45,510.34 532.38,510.37 532.30,510.40 C531.86,510.46 531.39,510.54 530.87,510.62 C530.59,510.67 530.33,510.72 530.09,510.76 C521.06,511.74 491.00,512.02 491.00,510.89 C491.00,510.40 490.13,510.00 489.06,510.00 C487.99,510.00 483.08,508.65 478.16,507.00 C476.49,506.44 475.05,505.97 473.80,505.58 C471.46,504.58 469.91,504.25 468.67,504.24 C466.52,503.90 465.80,504.37 465.36,505.51 C464.75,507.10 465.71,508.66 468.52,510.45 C468.64,510.54 468.77,510.62 468.90,510.71 C470.68,511.91 472.03,512.62 473.07,512.84 C473.21,512.91 473.36,512.97 473.50,513.04 C488.24,519.66 510.98,521.47 531.05,517.61 C540.39,515.81 548.21,512.95 552.63,509.95 C553.72,509.37 554.72,508.75 555.25,508.28 ZM 429.49 382.79 C429.81,382.64 430.12,382.48 430.40,382.33 C430.96,382.07 431.56,381.79 432.21,381.48 C444.82,375.49 454.92,375.14 472.34,380.09 C476.85,381.37 477.28,381.33 478.59,379.54 C481.67,375.34 478.89,371.92 470.29,369.35 C456.87,365.33 437.26,367.96 426.39,375.24 C426.27,375.32 426.16,375.39 426.05,375.47 C421.20,378.16 419.72,381.32 422.20,383.80 C422.33,383.93 422.44,384.04 422.56,384.15 C422.83,384.44 423.09,384.64 423.41,384.74 C424.43,385.18 425.71,384.63 429.49,382.79 ZM 599.96 383.55 C602.99,379.90 596.09,373.91 584.15,369.82 C565.86,363.55 535.07,370.92 543.66,379.52 C545.50,381.36 546.56,381.26 558.00,378.12 C568.65,375.21 580.66,376.42 590.00,381.35 C597.52,385.33 598.33,385.51 599.96,383.55 ZM 465.64 413.50 C465.95,412.67 465.92,411.25 465.57,410.32 C465.40,409.87 465.26,409.56 465.11,409.37 C464.93,408.63 464.70,407.87 464.40,407.10 C460.67,397.32 453.83,394.28 448.04,399.81 C444.47,403.22 443.00,406.81 443.00,412.10 C443.00,415.21 443.73,418.15 445.05,420.58 C445.11,420.71 445.20,420.88 445.34,421.08 C446.22,422.56 447.33,423.83 448.63,424.79 C452.95,428.02 456.31,427.61 460.46,423.34 C463.41,420.30 465.05,417.23 465.41,413.99 C465.49,413.84 465.57,413.68 465.64,413.50 ZM 563.47 398.20 C561.48,399.10 559.84,401.15 558.69,403.75 C557.68,405.49 557.00,407.26 557.00,408.42 C557.00,408.69 557.04,408.91 557.11,409.09 C556.42,413.20 556.76,417.63 558.44,420.89 C561.64,427.08 569.91,428.62 574.10,423.81 C579.24,417.91 579.93,410.70 576.07,403.14 C573.02,397.16 569.11,395.62 563.47,398.20 ZM 522.99 479.84 C528.75,477.35 532.00,474.27 532.00,471.29 C532.00,467.57 529.44,467.50 521.84,471.00 C515.84,473.77 514.00,474.18 509.61,473.72 C506.76,473.43 501.86,471.93 498.71,470.38 C493.43,467.79 492.87,467.70 491.37,469.21 C488.65,471.92 490.35,475.33 495.95,478.38 C504.92,483.26 513.94,483.75 522.99,479.84 ZM 582.47 445.64 C583.52,444.87 584.07,443.63 583.74,442.77 C583.29,441.60 580.97,441.14 573.83,440.81 C563.33,440.31 557.19,437.88 549.97,431.36 C547.60,429.22 545.41,428.01 544.51,428.36 C538.41,430.70 551.34,441.99 564.02,445.40 C571.04,447.28 580.06,447.40 582.47,445.64 ZM 461.53 443.90 C467.81,441.55 478.83,432.15 477.61,430.18 C476.38,428.19 473.99,428.85 469.97,432.29 C462.92,438.32 457.49,440.37 447.27,440.82 C437.98,441.24 434.56,442.58 437.24,444.76 C440.68,447.55 452.92,447.12 461.53,443.90 ZM 577.01 514.49 C578.80,512.33 577.42,503.44 574.54,498.49 C571.06,492.53 561.46,483.79 558.82,484.18 C554.94,484.75 555.72,486.91 562.28,493.76 C569.84,501.66 571.00,503.61 571.00,508.50 C571.00,514.91 574.10,518.00 577.01,514.49 ZM 524.83 537.29 C527.24,536.12 528.50,534.81 528.50,533.50 C528.50,531.78 527.94,531.55 524.50,531.82 C522.30,532.00 514.43,532.22 507.01,532.32 C495.57,532.47 493.48,532.74 493.22,534.09 C493.05,534.97 493.50,536.16 494.21,536.74 C498.47,540.23 518.09,540.59 524.83,537.29 ZM 448.80 514.80 C449.46,514.14 450.00,512.03 450.00,510.12 C450.00,504.83 453.61,498.46 459.59,493.22 C465.47,488.07 466.88,484.00 462.78,484.00 C459.44,484.00 446.47,497.63 445.10,502.58 C443.16,509.56 444.07,516.00 447.00,516.00 C447.33,516.00 448.14,515.46 448.80,514.80 ZM 423.89 357.47 C417.71,356.98 410.32,356.16 400.20,354.83 C408.35,355.88 416.11,356.74 423.89,357.47 ZM 584.08 585.13 C584.22,581.42 584.55,579.00 584.97,579.00 C584.70,579.09 584.33,581.56 584.08,585.13 ZM 340.56 632.99 C342.92,635.17 345.23,637.06 347.07,638.33 C345.33,637.32 343.00,635.36 340.56,632.99 ZM 323.96 602.01 C323.98,602.19 323.99,602.37 324.00,602.55 C323.21,594.76 324.21,585.90 326.99,575.03 C324.32,585.47 323.28,594.28 323.96,602.01 ZM 637.56 352.37 C634.88,352.90 632.43,353.33 629.69,353.76 C632.15,353.33 635.18,352.79 637.56,352.37 ZM 412.94 605.43 C413.19,605.11 413.45,604.79 413.70,604.48 C416.24,601.31 419.01,597.98 421.65,594.91 C421.67,594.89 421.69,594.87 421.71,594.85 C419.07,597.93 416.28,601.29 413.70,604.50 C413.36,604.92 413.03,605.34 412.69,605.75 ZM 328.56 618.12 C328.21,617.43 327.88,616.73 327.56,616.02 C328.17,617.37 328.86,618.68 329.62,619.97 C329.21,619.31 328.85,618.69 328.56,618.12 ZM 357.54 636.56 C359.28,635.65 360.77,635.00 361.18,635.00 C361.69,635.00 364.40,633.97 368.32,632.32 C364.42,633.96 361.70,635.00 361.21,635.00 C360.82,635.00 359.34,635.64 357.54,636.56 ZM 351.83 639.53 C352.38,639.29 353.05,638.98 353.76,638.62 C352.97,639.04 352.36,639.34 351.83,639.53 ZM 422.50 593.93 C423.19,593.13 423.87,592.36 424.53,591.61 C423.86,592.37 423.17,593.16 422.47,593.97 C422.48,593.96 422.49,593.95 422.50,593.93 ZM 401.81 618.34 C401.18,618.98 400.69,619.43 400.38,619.65 C400.69,619.43 401.18,618.98 401.81,618.34 Z" fill="rgb(243,183,155)"/>
<path d="M 409.80 329.56 C401.46,330.93 393.70,332.29 392.56,332.57 C390.33,333.13 388.00,331.43 388.00,329.25 C388.00,327.22 393.50,325.30 408.73,322.02 C439.81,315.34 461.66,313.08 502.50,312.34 C546.09,311.55 581.00,314.58 613.08,321.94 C628.73,325.54 633.00,327.24 633.00,329.88 C633.00,333.04 630.14,333.18 617.43,330.60 C587.86,324.61 555.81,322.00 512.00,322.02 C471.82,322.04 442.49,324.20 409.80,329.56 ZM 559.82 245.75 C555.55,262.61 554.39,266.00 552.90,266.00 C551.92,266.00 550.87,265.60 550.57,265.11 C550.26,264.62 550.70,259.78 551.53,254.36 C552.36,248.94 553.93,237.98 555.01,230.00 C556.87,216.35 560.39,192.18 563.06,174.75 C563.71,170.49 564.72,167.00 565.29,167.00 C565.87,167.00 569.39,168.41 573.12,170.12 C578.69,172.69 579.66,173.48 578.59,174.55 C577.87,175.27 574.51,187.03 571.12,200.68 C567.73,214.33 562.64,234.61 559.82,245.75 ZM 469.62 254.91 C470.89,262.94 470.90,264.53 469.72,265.71 C468.58,266.85 468.14,266.86 467.30,265.80 C466.45,264.74 444.19,178.48 443.66,174.21 C443.57,173.50 446.42,171.62 450.00,170.02 C455.84,167.42 456.56,167.29 457.12,168.81 C457.93,171.03 462.29,200.38 465.54,225.50 C466.96,236.50 468.80,249.74 469.62,254.91 ZM 422.02 357.31 C416.44,356.83 409.85,356.09 401.25,354.97 C408.08,355.83 414.83,356.60 422.02,357.31 ZM 421.58 357.25 C422.35,357.32 423.12,357.39 423.89,357.47 C423.28,357.42 422.66,357.37 421.58,357.25 Z" fill="rgb(237,169,74)"/>
<path d="M 665.94 345.02 C663.27,345.94 658.82,347.31 654.39,348.59 C651.72,349.32 649.11,349.97 647.00,350.42 C643.25,351.22 640.29,351.84 637.56,352.37 C635.18,352.79 632.15,353.33 629.69,353.76 C625.02,354.49 619.52,355.20 610.61,356.31 C579.32,359.47 527.86,361.35 486.50,360.57 C464.26,360.15 446.77,359.39 429.91,358.00 C428.51,357.84 426.93,357.69 425.28,357.57 C424.82,357.54 424.36,357.50 423.89,357.47 L 423.89 357.47 C423.12,357.39 422.35,357.32 421.58,357.25 C414.56,356.57 407.54,355.77 400.20,354.83 C396.94,354.40 393.39,353.92 389.50,353.37 C387.30,353.07 384.58,352.71 383.45,352.59 C382.32,352.47 380.97,352.12 380.45,351.81 C379.93,351.51 377.70,350.95 375.50,350.56 C374.31,350.35 372.12,349.84 369.62,349.21 C367.63,348.67 365.30,348.03 363.07,347.40 C358.44,346.09 354.55,345.13 354.44,345.26 C354.34,345.38 352.37,351.14 349.90,358.56 C353.66,347.07 354.13,344.65 352.97,344.00 C348.43,341.43 342.69,336.54 341.05,333.84 C337.86,328.60 338.90,328.00 351.11,328.00 C357.10,328.00 362.02,327.66 362.05,327.25 C362.07,326.84 362.23,315.70 362.40,302.50 C362.72,277.14 363.12,274.24 368.66,256.68 C379.69,221.72 412.29,186.59 448.50,170.66 C456.43,167.17 456.52,167.08 458.72,161.43 C462.30,152.23 464.50,150.64 477.83,147.61 C495.87,143.50 523.87,143.66 542.32,147.96 C558.08,151.63 561.26,153.65 563.53,161.43 C564.75,165.59 564.97,166.34 569.85,168.67 C567.52,167.68 565.69,167.00 565.29,167.00 C564.72,167.00 563.71,170.49 563.06,174.75 C560.39,192.18 556.87,216.35 555.01,230.00 C553.93,237.98 552.36,248.94 551.53,254.36 C550.70,259.78 550.26,264.62 550.57,265.11 C550.87,265.60 551.92,266.00 552.90,266.00 C554.39,266.00 555.55,262.61 559.82,245.75 C562.64,234.61 567.73,214.33 571.12,200.68 C574.51,187.03 577.87,175.27 578.59,174.55 C579.38,173.77 579.07,173.14 576.66,171.85 C604.73,185.58 631.36,212.52 646.69,242.87 C656.47,262.24 659.22,275.72 659.38,305.00 C659.45,318.04 659.89,326.79 660.50,327.23 C661.05,327.64 665.90,327.98 671.28,327.98 C679.26,328.00 681.17,328.29 681.67,329.58 C682.52,331.79 679.18,335.97 673.74,339.50 C669.53,342.23 668.43,343.48 669.71,348.57 C669.38,347.41 669.16,346.52 669.06,345.94 C669.05,345.84 669.05,345.75 669.04,345.67 C669.04,345.50 669.02,345.35 669.00,345.21 C668.95,344.23 668.42,344.02 667.25,344.51 C666.87,344.67 666.43,344.84 665.94,345.02 ZM 409.80 329.56 C442.49,324.20 471.82,322.04 512.00,322.02 C555.81,322.00 587.86,324.61 617.43,330.60 C630.14,333.18 633.00,333.04 633.00,329.88 C633.00,327.24 628.73,325.54 613.08,321.94 C581.00,314.58 546.09,311.55 502.50,312.34 C461.66,313.08 439.81,315.34 408.73,322.02 C393.50,325.30 388.00,327.22 388.00,329.25 C388.00,331.43 390.33,333.13 392.56,332.57 C393.70,332.29 401.46,330.93 409.80,329.56 ZM 469.62 254.91 C468.80,249.74 466.96,236.50 465.54,225.50 C462.29,200.38 457.93,171.03 457.12,168.81 C456.56,167.29 455.84,167.42 450.00,170.02 C446.42,171.62 443.57,173.50 443.66,174.21 C444.19,178.48 466.45,264.74 467.30,265.80 C468.14,266.86 468.58,266.85 469.72,265.71 C470.90,264.53 470.89,262.94 469.62,254.91 ZM 676.50 368.67 C677.92,372.49 679.27,375.86 680.66,379.06 C679.34,376.12 678.22,373.44 677.51,371.50 C677.39,371.18 677.27,370.85 677.15,370.53 Z" fill="rgb(242,201,66)"/>
<path d="M 401.81 618.34 C403.45,617.42 405.37,615.20 409.42,609.99 C405.09,615.78 402.00,620.48 402.00,621.74 C402.00,624.32 402.83,630.76 408.58,673.00 C413.78,711.13 415.86,725.19 416.36,725.69 C416.65,725.98 420.20,723.13 424.25,719.36 C435.22,709.14 443.13,701.82 448.88,696.60 C448.71,696.75 448.55,696.90 448.38,697.06 L 443.27 701.86 L 446.38 708.18 L 449.50 714.50 L 449.83 714.18 L 451.73 718.59 C452.89,721.29 456.99,730.03 460.84,738.00 C487.22,792.68 499.91,820.22 500.94,825.00 C501.73,828.69 502.02,839.38 501.81,857.50 L 501.50 884.50 L 378.00 885.02 L 378.00 757.01 C378.00,665.84 377.69,629.00 376.92,629.00 C376.52,629.00 374.82,629.60 372.61,630.48 C373.54,630.08 374.50,629.66 375.48,629.22 C377.97,628.24 380.72,627.00 382.40,626.09 L 382.50 626.05 C388.05,623.49 396.32,620.56 400.08,619.81 C400.15,619.80 400.25,619.75 400.38,619.65 L 400.38 619.65 C400.70,619.43 401.18,618.98 401.81,618.34 ZM 614.01 611.41 C614.10,611.52 614.19,611.62 614.28,611.73 C614.36,611.83 614.45,611.94 614.53,612.04 C615.02,612.63 615.48,613.18 615.91,613.69 L 616.02 613.82 C616.74,614.67 617.38,615.41 617.94,616.04 L 617.95 616.05 C619.47,617.91 620.38,619.00 620.43,619.00 C620.48,619.00 620.53,618.89 620.57,618.70 C622.01,619.92 622.89,620.13 624.22,620.38 C626.04,620.73 634.22,623.84 644.47,628.01 C644.45,628.00 644.43,628.00 644.42,628.00 C644.20,628.00 643.89,685.71 643.75,756.25 L 643.50 884.50 L 581.70 884.76 L 519.89 885.02 L 520.20 853.76 L 520.50 822.50 L 527.65 807.50 C531.59,799.25 538.06,785.75 542.05,777.50 C568.33,723.11 572.79,713.46 571.78,713.11 C571.21,712.91 567.66,710.65 563.67,707.95 C567.84,710.77 571.53,713.00 572.02,713.00 C572.55,713.00 574.33,710.30 576.00,707.00 C577.28,704.46 578.18,702.27 578.34,701.39 C578.56,701.59 578.78,701.78 579.00,701.96 C583.12,705.52 590.88,712.42 596.24,717.31 C602.45,722.98 606.14,725.71 606.41,724.85 C606.85,723.44 611.86,687.25 614.50,666.33 C615.35,659.64 617.14,646.42 618.48,636.95 L 620.91 619.74 L 617.46 615.62 C616.79,614.82 615.57,613.32 614.01,611.41 ZM 724.76 777.00 L 724.50 884.50 L 706.25 884.77 L 688.00 885.05 L 688.00 766.52 C688.00,677.87 688.29,648.00 689.15,648.00 C690.40,648.00 717.14,660.51 720.65,662.74 C721.83,663.48 723.30,665.31 723.91,666.80 C724.71,668.74 724.95,699.87 724.76,777.00 ZM 333.75 766.25 L 333.50 884.50 L 315.25 884.77 L 297.00 885.05 L 297.00 776.46 C297.00,700.20 297.32,667.26 298.09,665.84 C298.68,664.72 302.40,662.33 306.34,660.53 C310.28,658.72 317.73,655.17 322.89,652.62 C328.06,650.08 332.67,648.00 333.15,648.00 C333.63,648.00 333.90,700.59 333.75,766.25 ZM 539.56 698.98 C534.06,705.05 528.73,711.24 527.34,713.34 C528.09,711.36 531.12,707.83 539.56,698.98 ZM 575.52 698.94 C573.64,697.38 570.98,695.06 568.13,692.49 C561.38,686.37 558.18,684.03 555.66,684.14 C555.95,684.04 556.21,684.00 556.44,684.00 C558.07,684.00 561.09,685.98 565.21,689.75 C567.79,692.11 571.89,695.77 575.52,698.94 ZM 478.81 696.18 C484.48,701.77 490.32,707.86 492.91,711.16 C493.37,711.74 493.72,712.32 493.96,712.87 C492.60,710.50 488.58,706.20 478.87,696.25 ZM 493.46 716.64 C493.09,716.87 492.61,717.00 492.02,717.00 C491.65,717.00 490.65,716.51 489.23,715.69 C491.35,716.82 492.64,717.09 493.46,716.64 ZM 662.20 635.41 C662.29,635.47 662.39,635.54 662.49,635.60 C660.00,634.54 656.94,633.22 653.17,631.59 C656.14,632.83 659.18,634.11 662.20,635.41 ZM 461.30 705.49 C464.63,703.56 467.78,702.00 468.76,702.00 C467.90,702.00 464.70,703.57 461.30,705.49 ZM 672.92 639.51 C674.02,639.64 674.77,639.39 675.71,638.89 C675.31,639.10 674.97,639.29 674.62,639.41 C674.16,639.57 673.66,639.63 672.92,639.51 ZM 461.75 685.55 C463.44,684.35 464.33,684.00 465.02,684.00 C464.35,684.00 463.28,684.50 461.75,685.55 Z" fill="rgb(247,120,44)"/>
<path d="M 0.00 512.00 L 0.00 0.00 L 512.00 0.00 L 1024.00 0.00 L 1024.00 512.00 L 1024.00 1024.00 L 512.00 1024.00 L 0.00 1024.00 L 0.00 512.00 ZM 333.75 766.25 C333.90,700.59 333.63,648.00 333.15,648.00 C332.67,648.00 328.06,650.08 322.89,652.62 C317.73,655.17 310.28,658.72 306.34,660.53 C302.40,662.33 298.68,664.72 298.09,665.84 C297.32,667.26 297.00,700.20 297.00,776.46 L 297.00 885.05 L 315.25 884.77 L 333.50 884.50 L 333.75 766.25 ZM 501.81 857.50 C502.02,839.38 501.73,828.69 500.94,825.00 C499.91,820.22 487.22,792.68 460.84,738.00 C456.99,730.03 452.89,721.29 451.73,718.59 L 449.62 713.68 L 452.93 710.91 C456.42,708.00 467.08,702.00 468.76,702.00 C469.30,702.00 474.36,705.38 480.00,709.50 C485.64,713.62 491.05,717.00 492.02,717.00 C494.78,717.00 495.22,714.10 492.91,711.16 C487.33,704.06 466.73,684.00 465.02,684.00 C462.58,684.00 457.63,688.30 424.25,719.36 C420.20,723.13 416.65,725.98 416.36,725.69 C415.86,725.19 413.78,711.13 408.58,673.00 C402.83,630.76 402.00,624.32 402.00,621.74 C402.00,618.53 422.17,592.84 431.62,584.00 L 437.50 578.50 L 438.00 590.01 L 438.50 601.53 L 453.17 628.01 C461.23,642.58 470.49,659.22 473.74,665.00 C476.99,670.78 484.29,683.83 489.96,694.00 C495.62,704.17 502.02,715.54 504.18,719.25 L 508.09 726.01 L 508.02 805.57 L 507.95 885.12 L 511.73 884.81 L 515.50 884.50 L 515.72 809.50 C515.86,758.64 515.59,733.16 514.86,730.33 C513.81,726.25 513.93,725.92 520.76,713.83 C524.59,707.05 540.27,679.00 555.60,651.50 L 583.47 601.50 L 583.82 590.25 C584.01,584.06 584.57,579.00 585.05,579.00 C586.98,579.00 593.54,585.87 603.52,598.36 C609.29,605.59 615.56,613.35 617.46,615.62 L 620.91 619.74 L 618.48 636.95 C617.14,646.42 615.35,659.64 614.50,666.33 C611.86,687.25 606.85,723.44 606.41,724.85 C606.14,725.71 602.45,722.98 596.24,717.31 C590.88,712.42 583.12,705.52 579.00,701.96 C574.88,698.41 568.67,692.92 565.21,689.75 C561.09,685.98 558.07,684.00 556.44,684.00 C554.59,684.00 551.32,686.74 543.62,694.75 C529.28,709.65 526.79,712.68 527.18,714.71 C527.83,718.06 530.56,717.04 541.02,709.55 C546.78,705.42 552.27,702.03 553.21,702.02 C554.15,702.01 558.47,704.41 562.80,707.36 C567.13,710.31 571.17,712.90 571.78,713.11 C572.79,713.46 568.33,723.11 542.05,777.50 C538.06,785.75 531.59,799.25 527.65,807.50 L 520.50 822.50 L 520.20 853.76 L 519.89 885.02 L 581.70 884.76 L 643.50 884.50 L 643.75 756.25 C643.89,685.71 644.20,628.00 644.42,628.00 C644.65,628.00 648.59,629.62 653.17,631.59 C673.57,640.39 673.15,640.26 675.75,638.87 C677.07,638.16 678.59,636.77 679.11,635.79 C679.64,634.81 680.68,634.00 681.43,634.00 C682.67,634.00 685.14,631.47 690.36,624.86 C693.75,620.58 697.90,610.60 698.88,604.38 C699.98,597.41 699.07,588.10 696.12,576.30 C693.14,564.36 692.68,557.39 694.45,550.73 C696.16,544.30 699.79,536.65 704.18,530.25 C705.78,527.91 706.82,526.00 706.48,526.00 C706.14,526.00 706.56,525.29 707.43,524.43 C708.29,523.57 709.29,521.65 709.65,520.18 C710.01,518.71 710.91,516.61 711.65,515.53 C712.39,514.44 713.00,512.82 713.00,511.93 C713.00,511.04 713.78,508.78 714.72,506.90 C716.11,504.17 716.51,500.08 716.79,486.00 C717.14,468.55 717.01,467.31 713.03,451.00 C710.19,439.38 700.65,417.75 687.46,393.00 C681.15,381.18 677.63,372.67 671.61,354.73 C668.05,344.13 668.20,343.09 673.74,339.50 C679.18,335.97 682.52,331.79 681.67,329.58 C681.17,328.29 679.26,328.00 671.28,327.98 C665.90,327.98 661.05,327.64 660.50,327.23 C659.89,326.79 659.45,318.04 659.38,305.00 C659.22,275.72 656.47,262.24 646.69,242.87 C630.84,211.48 602.88,183.73 573.76,170.48 C565.03,166.50 565.02,166.50 563.53,161.43 C561.26,153.65 558.08,151.63 542.32,147.96 C523.87,143.66 495.87,143.50 477.83,147.61 C464.50,150.64 462.30,152.23 458.72,161.43 C456.52,167.08 456.43,167.17 448.50,170.66 C412.29,186.59 379.69,221.72 368.66,256.68 C363.12,274.24 362.72,277.14 362.40,302.50 C362.23,315.70 362.07,326.84 362.05,327.25 C362.02,327.66 357.10,328.00 351.11,328.00 C338.90,328.00 337.86,328.60 341.05,333.84 C342.69,336.54 348.43,341.43 352.97,344.00 C354.21,344.70 353.59,347.41 349.08,361.04 C344.97,373.46 340.86,382.91 331.52,401.40 C313.27,437.55 308.17,451.75 305.89,472.79 C304.44,486.19 305.74,501.69 309.03,510.13 C311.79,517.22 316.68,526.77 319.48,530.50 C321.87,533.70 325.29,540.76 327.67,547.44 C329.80,553.40 329.51,565.16 326.99,575.02 C322.21,593.75 322.67,606.50 328.56,618.12 C331.64,624.19 342.36,635.80 347.40,638.51 C350.71,640.30 350.78,640.29 355.50,637.66 C358.11,636.20 360.68,635.00 361.21,635.00 C361.73,635.00 365.24,633.65 369.00,632.00 C372.76,630.35 376.32,629.00 376.92,629.00 C377.69,629.00 378.00,665.84 378.00,757.01 L 378.00 885.02 L 439.75 884.76 L 501.50 884.50 L 501.81 857.50 ZM 724.76 777.00 C724.95,699.87 724.71,668.74 723.91,666.80 C723.30,665.31 721.83,663.48 720.65,662.74 C717.14,660.51 690.40,648.00 689.15,648.00 C688.29,648.00 688.00,677.87 688.00,766.52 L 688.00 885.05 L 706.25 884.77 L 724.50 884.50 L 724.76 777.00 Z" fill="rgb(254,254,254)"/>
</g>
</svg>