<svg width="107" height="28" viewBox="0 0 107 28" fill="none" xmlns="http://www.w3.org/2000/svg">
<rect width="107" height="28" rx="10" fill="#284572"/>
<path d="M74 0H97C102.523 0 107 4.47715 107 10V18C107 23.5228 102.523 28 97 28H74V0Z" fill="#F5C942"/>
<path d="M9.75852 18V9.27273H13.2528C13.8949 9.27273 14.4304 9.3679 14.8594 9.55824C15.2884 9.74858 15.6108 10.0128 15.8267 10.3509C16.0426 10.6861 16.1506 11.0724 16.1506 11.5099C16.1506 11.8509 16.0824 12.1506 15.946 12.4091C15.8097 12.6648 15.6222 12.875 15.3835 13.0398C15.1477 13.2017 14.8778 13.3168 14.5739 13.3849V13.4702C14.9063 13.4844 15.2173 13.5781 15.5071 13.7514C15.7997 13.9247 16.0369 14.1676 16.2188 14.4801C16.4006 14.7898 16.4915 15.1591 16.4915 15.5881C16.4915 16.0511 16.3764 16.4645 16.1463 16.8281C15.919 17.1889 15.5824 17.4744 15.1364 17.6847C14.6903 17.8949 14.1406 18 13.4872 18H9.75852ZM11.6037 16.4915H13.108C13.6222 16.4915 13.9972 16.3935 14.233 16.1974C14.4688 15.9986 14.5866 15.7344 14.5866 15.4048C14.5866 15.1634 14.5284 14.9503 14.4119 14.7656C14.2955 14.581 14.1293 14.4361 13.9134 14.331C13.7003 14.2259 13.446 14.1733 13.1506 14.1733H11.6037V16.4915ZM11.6037 12.9247H12.9716C13.2244 12.9247 13.4489 12.8807 13.6449 12.7926C13.8438 12.7017 14 12.5739 14.1136 12.4091C14.2301 12.2443 14.2884 12.0469 14.2884 11.8168C14.2884 11.5014 14.1761 11.2472 13.9517 11.054C13.7301 10.8608 13.4148 10.7642 13.0057 10.7642H11.6037V12.9247ZM19.4734 9.27273V18H17.658V9.27273H19.4734ZM23.8849 18.1278C23.223 18.1278 22.6506 17.9872 22.1676 17.706C21.6875 17.4219 21.3168 17.027 21.0554 16.5213C20.794 16.0128 20.6634 15.4233 20.6634 14.7528C20.6634 14.0767 20.794 13.4858 21.0554 12.9801C21.3168 12.4716 21.6875 12.0767 22.1676 11.7955C22.6506 11.5114 23.223 11.3693 23.8849 11.3693C24.5469 11.3693 25.1179 11.5114 25.598 11.7955C26.081 12.0767 26.4531 12.4716 26.7145 12.9801C26.9759 13.4858 27.1065 14.0767 27.1065 14.7528C27.1065 15.4233 26.9759 16.0128 26.7145 16.5213C26.4531 17.027 26.081 17.4219 25.598 17.706C25.1179 17.9872 24.5469 18.1278 23.8849 18.1278ZM23.8935 16.7216C24.1946 16.7216 24.446 16.6364 24.6477 16.4659C24.8494 16.2926 25.0014 16.0568 25.1037 15.7585C25.2088 15.4602 25.2614 15.1207 25.2614 14.7401C25.2614 14.3594 25.2088 14.0199 25.1037 13.7216C25.0014 13.4233 24.8494 13.1875 24.6477 13.0142C24.446 12.8409 24.1946 12.7543 23.8935 12.7543C23.5895 12.7543 23.3338 12.8409 23.1264 13.0142C22.9219 13.1875 22.767 13.4233 22.6619 13.7216C22.5597 14.0199 22.5085 14.3594 22.5085 14.7401C22.5085 15.1207 22.5597 15.4602 22.6619 15.7585C22.767 16.0568 22.9219 16.2926 23.1264 16.4659C23.3338 16.6364 23.5895 16.7216 23.8935 16.7216ZM31.2443 18.1278C30.5739 18.1278 29.9972 17.9858 29.5142 17.7017C29.0341 17.4148 28.6648 17.017 28.4062 16.5085C28.1506 16 28.0227 15.4148 28.0227 14.7528C28.0227 14.0824 28.152 13.4943 28.4105 12.9886C28.6719 12.4801 29.0426 12.0838 29.5227 11.7997C30.0028 11.5128 30.5739 11.3693 31.2358 11.3693C31.8068 11.3693 32.3068 11.473 32.7358 11.6804C33.1648 11.8878 33.5043 12.179 33.7543 12.554C34.0043 12.929 34.142 13.3693 34.1676 13.875H32.4545C32.4063 13.5483 32.2784 13.2855 32.071 13.0866C31.8665 12.8849 31.598 12.7841 31.2656 12.7841C30.9844 12.7841 30.7386 12.8608 30.5284 13.0142C30.321 13.1648 30.1591 13.3849 30.0426 13.6747C29.9261 13.9645 29.8679 14.3153 29.8679 14.7273C29.8679 15.1449 29.9247 15.5 30.0384 15.7926C30.1548 16.0852 30.3182 16.3082 30.5284 16.4616C30.7386 16.6151 30.9844 16.6918 31.2656 16.6918C31.473 16.6918 31.6591 16.6491 31.8239 16.5639C31.9915 16.4787 32.1293 16.3551 32.2372 16.1932C32.348 16.0284 32.4205 15.831 32.4545 15.6009H34.1676C34.1392 16.1009 34.0028 16.5412 33.7585 16.9219C33.517 17.2997 33.1832 17.5952 32.7571 17.8082C32.331 18.0213 31.8267 18.1278 31.2443 18.1278ZM36.9748 16.1165L36.979 13.9389H37.2433L39.3398 11.4545H41.4237L38.6069 14.7443H38.1765L36.9748 16.1165ZM35.3299 18V9.27273H37.1452V18H35.3299ZM39.4208 18L37.4947 15.1491L38.7049 13.8665L41.5472 18H39.4208ZM52.4254 9.27273V18H50.8317L47.0348 12.5071H46.9709V18H45.1257V9.27273H46.745L50.5121 14.7614H50.5888V9.27273H52.4254ZM56.8732 18.1278C56.2113 18.1278 55.6388 17.9872 55.1559 17.706C54.6758 17.4219 54.305 17.027 54.0437 16.5213C53.7823 16.0128 53.6516 15.4233 53.6516 14.7528C53.6516 14.0767 53.7823 13.4858 54.0437 12.9801C54.305 12.4716 54.6758 12.0767 55.1559 11.7955C55.6388 11.5114 56.2113 11.3693 56.8732 11.3693C57.5352 11.3693 58.1062 11.5114 58.5863 11.7955C59.0692 12.0767 59.4414 12.4716 59.7028 12.9801C59.9641 13.4858 60.0948 14.0767 60.0948 14.7528C60.0948 15.4233 59.9641 16.0128 59.7028 16.5213C59.4414 17.027 59.0692 17.4219 58.5863 17.706C58.1062 17.9872 57.5352 18.1278 56.8732 18.1278ZM56.8817 16.7216C57.1829 16.7216 57.4343 16.6364 57.636 16.4659C57.8377 16.2926 57.9897 16.0568 58.092 15.7585C58.1971 15.4602 58.2496 15.1207 58.2496 14.7401C58.2496 14.3594 58.1971 14.0199 58.092 13.7216C57.9897 13.4233 57.8377 13.1875 57.636 13.0142C57.4343 12.8409 57.1829 12.7543 56.8817 12.7543C56.5778 12.7543 56.3221 12.8409 56.1147 13.0142C55.9102 13.1875 55.7553 13.4233 55.6502 13.7216C55.5479 14.0199 55.4968 14.3594 55.4968 14.7401C55.4968 15.1207 55.5479 15.4602 55.6502 15.7585C55.7553 16.0568 55.9102 16.2926 56.1147 16.4659C56.3221 16.6364 56.5778 16.7216 56.8817 16.7216ZM62.3363 18.1108C62.055 18.1108 61.8136 18.0114 61.6119 17.8125C61.413 17.6108 61.3136 17.3693 61.3136 17.0881C61.3136 16.8097 61.413 16.571 61.6119 16.3722C61.8136 16.1733 62.055 16.0739 62.3363 16.0739C62.609 16.0739 62.8477 16.1733 63.0522 16.3722C63.2567 16.571 63.359 16.8097 63.359 17.0881C63.359 17.2756 63.3107 17.4474 63.2141 17.6037C63.1204 17.7571 62.9968 17.8807 62.8434 17.9744C62.69 18.0653 62.521 18.1108 62.3363 18.1108Z" fill="white"/>
<path d="M85.7757 9.38894V18.1162H83.9306V11.1404H83.8794L81.8809 12.3932V10.7568L84.0414 9.38894H85.7757ZM91.6681 8.97985L88.8556 19.4287H87.2917L90.1042 8.97985H91.6681ZM95.7516 18.2355C95.1152 18.2355 94.5485 18.1262 94.0513 17.9074C93.557 17.6858 93.1664 17.3818 92.8794 16.9955C92.5953 16.6063 92.449 16.1574 92.4405 15.6489H94.2985C94.3098 15.8619 94.3794 16.0494 94.5073 16.2114C94.638 16.3705 94.8113 16.4941 95.0272 16.5821C95.2431 16.6702 95.486 16.7142 95.7559 16.7142C96.0371 16.7142 96.2857 16.6645 96.5016 16.5651C96.7175 16.4656 96.8865 16.3279 97.0087 16.1517C97.1309 15.9756 97.1919 15.7725 97.1919 15.5423C97.1919 15.3094 97.1266 15.1034 96.9959 14.9244C96.8681 14.7426 96.6834 14.6006 96.4419 14.4983C96.2033 14.396 95.9192 14.3449 95.5897 14.3449H94.7757V12.9898H95.5897C95.8681 12.9898 96.1138 12.9415 96.3269 12.8449C96.5428 12.7483 96.7104 12.6148 96.8297 12.4443C96.949 12.271 97.0087 12.0693 97.0087 11.8392C97.0087 11.6205 96.9561 11.4287 96.851 11.2639C96.7488 11.0963 96.6039 10.9656 96.4164 10.8719C96.2317 10.7781 96.0158 10.7313 95.7686 10.7313C95.5186 10.7313 95.29 10.7767 95.0826 10.8676C94.8752 10.9557 94.709 11.0821 94.584 11.2469C94.459 11.4117 94.3922 11.6048 94.3837 11.8264H92.6152C92.6238 11.3236 92.7672 10.8804 93.0456 10.4969C93.324 10.1134 93.699 9.81365 94.1706 9.59774C94.6451 9.37899 95.1806 9.26962 95.7772 9.26962C96.3794 9.26962 96.9064 9.37899 97.3581 9.59774C97.8098 9.81649 98.1607 10.1119 98.4107 10.4841C98.6635 10.8534 98.7885 11.2682 98.7857 11.7284C98.7885 12.2171 98.6365 12.6247 98.3297 12.9514C98.0257 13.2781 97.6294 13.4855 97.1408 13.5736V13.6418C97.7828 13.7242 98.2715 13.9472 98.6067 14.3108C98.9448 14.6716 99.1124 15.1233 99.1096 15.6659C99.1124 16.1631 98.9689 16.6048 98.6792 16.9912C98.3922 17.3776 97.9959 17.6816 97.4902 17.9031C96.9846 18.1247 96.405 18.2355 95.7516 18.2355Z" fill="#193E75"/>
</svg>
