<svg width="276" height="161" viewBox="0 0 276 161" fill="none" xmlns="http://www.w3.org/2000/svg">
<g clip-path="url(#clip0_1268_14822)">
<path d="M25.5304 22L17.9601 51.3578C17.9601 53.4424 19.6521 55.1323 21.7393 55.1323H21.7513C23.8384 55.1323 25.5304 53.4424 25.5304 51.3578L33.1008 22C33.1008 19.9154 31.4088 18.2254 29.3216 18.2254H29.3096C27.2224 18.2254 25.5304 19.9154 25.5304 22Z" fill="#193E75"/>
<path d="M57.0476 6C54.9604 6 53.2684 7.68993 53.2684 9.77456L57.0476 22L57.0598 50.555C57.0598 52.6397 58.7518 54.3296 60.839 54.3296H60.851C62.9382 54.3296 64.6302 52.6397 64.6302 50.555V17.5L60.8388 9.77456C60.8388 7.68993 59.1468 6 57.0596 6H57.0476Z" fill="#193E75"/>
<path d="M208.5 8C206.413 8 206.5 11.4154 206.5 13.5L213.71 20.5V51.3578C213.71 53.4424 215.401 55.1323 217.489 55.1323H217.501C219.588 55.1323 221.28 53.4424 221.28 51.3578L220 26.5C220 24.4154 214.087 10 212 10L208.5 8Z" fill="#193E75"/>
<path d="M90.5803 33.839V78.3309C90.5803 80.4155 92.2723 82.1055 94.3595 82.1055H94.3715C96.4587 82.1055 98.1507 80.4155 98.1507 78.3309V33.839C98.1507 31.7544 96.4587 30.0645 94.3715 30.0645H94.3595C92.2723 30.0645 90.5803 31.7544 90.5803 33.839Z" fill="#193E75"/>
<path d="M181.257 34.63V79.1219C181.257 81.2066 182.949 82.8965 185.036 82.8965H185.048C187.135 82.8965 188.827 81.2066 188.827 79.1219V34.63C188.827 32.5454 187.135 30.8555 185.048 30.8555H185.036C182.949 30.8555 181.257 32.5454 181.257 34.63Z" fill="#193E75"/>
<path d="M169.619 6.79421V63.9518C169.619 67.7024 166.572 70.7461 162.817 70.7461H117.442C113.687 70.7461 110.64 67.7024 110.64 63.9518V6.79421C110.64 3.04361 113.687 0 117.442 0H162.817C166.572 0 169.619 3.04361 169.619 6.79421ZM158.39 7.93257H121.833C119.95 7.93257 118.438 9.45438 118.438 11.3237V62.49C118.438 64.3712 119.962 65.8811 121.833 65.8811H158.39C160.273 65.8811 161.785 64.3593 161.785 62.49V11.3237C161.785 9.44239 160.261 7.93257 158.39 7.93257Z" fill="#193E75"/>
<path d="M240.43 11.5L250.662 51.1663C250.662 53.251 252.354 54.9409 254.441 54.9409H254.453C256.54 54.9409 258.232 53.251 258.232 51.1663L248 22V11.5C248 9.41537 246.308 7.72543 244.221 7.72543H244.209C242.122 7.72543 240.43 9.41537 240.43 11.5Z" fill="#193E75"/>
<path d="M269.197 51.8013H6.80252C3.04559 51.8013 0 54.8431 0 58.5955V154.206C0 157.958 3.04559 161 6.80252 161H269.197C272.954 161 276 157.958 276 154.206V58.5955C276 54.8431 272.954 51.8013 269.197 51.8013Z" fill="#C0C9CE"/>
<path d="M195.521 51.7896H269.161C272.917 51.7896 275.964 54.8332 275.964 58.5838V154.194C275.964 157.945 272.917 160.988 269.161 160.988H195.521V51.7896Z" fill="#808F96"/>
<path d="M84.5456 51.7773H52.6445V160.976H84.5456V51.7773Z" fill="#808F96"/>
<path d="M22.3272 83.4719C27.3298 83.4719 31.3852 79.4214 31.3852 74.4249C31.3852 69.4284 27.3298 65.3779 22.3272 65.3779C17.3246 65.3779 13.2692 69.4284 13.2692 74.4249C13.2692 79.4214 17.3246 83.4719 22.3272 83.4719Z" fill="#808F96"/>
<path d="M22.3272 146.788C27.3298 146.788 31.3852 142.738 31.3852 137.741C31.3852 132.745 27.3298 128.694 22.3272 128.694C17.3246 128.694 13.2692 132.745 13.2692 137.741C13.2692 142.738 17.3246 146.788 22.3272 146.788Z" fill="#808F96"/>
<path d="M107.053 83.3278C112.055 83.3278 116.111 79.2774 116.111 74.2809C116.111 69.2844 112.055 65.2339 107.053 65.2339C102.05 65.2339 97.9948 69.2844 97.9948 74.2809C97.9948 79.2774 102.05 83.3278 107.053 83.3278Z" fill="#808F96"/>
<path d="M107.053 146.656C112.055 146.656 116.111 142.606 116.111 137.609C116.111 132.613 112.055 128.562 107.053 128.562C102.05 128.562 97.9948 132.613 97.9948 137.609C97.9948 142.606 102.05 146.656 107.053 146.656Z" fill="#808F96"/>
<path d="M173.038 83.3278C178.041 83.3278 182.096 79.2774 182.096 74.2809C182.096 69.2844 178.041 65.2339 173.038 65.2339C168.036 65.2339 163.98 69.2844 163.98 74.2809C163.98 79.2774 168.036 83.3278 173.038 83.3278Z" fill="#808F96"/>
<path d="M265.79 26.8774H10.3898C8.30259 26.8774 6.6106 28.5674 6.6106 30.652V30.664C6.6106 32.7486 8.30259 34.4385 10.3898 34.4385H265.79C267.877 34.4385 269.569 32.7486 269.569 30.664V30.652C269.569 28.5674 267.877 26.8774 265.79 26.8774Z" fill="#193E75"/>
<path d="M164 110.5L176.5 96L181.5 107.5L191.5 118.5L170.5 130.5L176.5 139.5L155.5 161L164 139.5L155.5 130.5L176.5 118.5L164 110.5Z" fill="#384D56"/>
<path d="M46 65.5L39.5 52.5H49.5L52.5 66L39.5 96L49.5 122L43.5 148V128L32 101L46 65.5Z" fill="#384D56"/>
<path d="M238.5 82L232 56.5L250.5 69L253 82L243.5 90L249 101L232 118.5L243.5 128L249 148L238.5 134.5L224.5 118.5L232 96L238.5 82Z" fill="#384D56"/>
<path d="M125 65.5L132.5 52.5H140.5L132.5 65.5L140.5 69L129 89.5L125 101L122 89.5L132.5 74L125 65.5Z" fill="#384D56"/>
<path d="M164 110.5L176.5 96L181.5 107.5L191.5 118.5L170.5 130.5L176.5 139.5L155.5 161L164 139.5L155.5 130.5L176.5 118.5L164 110.5Z" stroke="#808F96"/>
<path d="M46 65.5L39.5 52.5H49.5L52.5 66L39.5 96L49.5 122L43.5 148V128L32 101L46 65.5Z" stroke="#808F96"/>
<path d="M238.5 82L232 56.5L250.5 69L253 82L243.5 90L249 101L232 118.5L243.5 128L249 148L238.5 134.5L224.5 118.5L232 96L238.5 82Z" stroke="#808F96"/>
<path d="M125 65.5L132.5 52.5H140.5L132.5 65.5L140.5 69L129 89.5L125 101L122 89.5L132.5 74L125 65.5Z" stroke="#808F96"/>
</g>
<defs>
<clipPath id="clip0_1268_14822">
<rect width="276" height="161" fill="white"/>
</clipPath>
</defs>
</svg>
