<svg width="1659" height="855" viewBox="0 0 1659 855" fill="none" xmlns="http://www.w3.org/2000/svg">
<path d="M153.529 814.607H255.025C262.426 814.607 268.438 820.614 268.438 828.008V855H140.1V828.008C140.1 820.614 146.112 814.607 153.513 814.607H153.529Z" fill="#F5C942"/>
<path d="M196.995 4.37612L42.1436 159.093L47.3544 164.3L202.206 9.58242L196.995 4.37612Z" fill="#193E75"/>
<path d="M30.2879 126.287H75.0713V232.693H30.2879C22.8871 232.693 16.875 226.686 16.875 219.292V139.688C16.875 132.294 22.8871 126.287 30.2879 126.287Z" fill="#F37329"/>
<path d="M190.974 9.42136L188.866 16.4766L545.729 122.905L547.836 115.85L190.974 9.42136Z" fill="#193E75"/>
<path d="M96.3583 232.646H51.575V126.24H96.3583C103.759 126.24 109.771 132.247 109.771 139.641V219.244C109.771 226.639 103.759 232.646 96.3583 232.646Z" fill="#3268A5"/>
<path d="M231.813 828.15H177.451V263.642H231.813V828.15ZM186.635 304.114L218.148 272.629H186.809L186.635 304.114ZM191.59 309.774H222.929L223.102 278.289M191.811 318.698L223.323 350.183V318.871L191.811 318.698ZM186.146 323.648V354.96L217.658 355.133M186.351 395.826L217.863 364.341H186.525L186.351 395.826ZM191.306 401.486H222.645L222.818 370.001M191.527 410.394L223.039 441.879V410.567L191.527 410.394ZM185.862 415.344V446.656L217.374 446.829M186.73 487.821L218.242 456.336H186.903L186.73 487.821ZM191.7 493.481H223.039L223.213 461.996M191.906 502.405L223.418 533.89V502.579L191.906 502.405ZM186.241 507.356V538.667L217.753 538.841M186.446 579.533L217.958 548.048H186.619L186.446 579.533ZM191.401 585.193H222.739L222.913 553.708M191.622 594.101L223.134 625.586V594.275L191.622 594.101ZM185.957 599.068V630.379L217.469 630.553M186.73 671.923L218.242 640.438H186.903L186.73 671.923ZM191.7 677.583H223.039L223.213 646.098M191.906 686.491L223.418 717.976V686.664L191.906 686.491ZM186.241 691.457V722.769L217.753 722.942M186.446 763.619L217.958 732.134H186.619L186.446 763.619ZM191.401 769.295H222.739L222.913 737.81M191.622 778.203L223.134 809.688V778.376L191.622 778.203ZM185.957 783.154V814.465L217.469 814.639" fill="#F5C942"/>
<rect y="163" width="1659" height="17" rx="8.5" fill="#F5C942"/>
<path d="M196.292 5.42334L226.937 141.864L166.421 141.485L196.292 5.42334ZM196.135 38.1066L193.468 51.4448L201.153 61.1253L196.15 38.1066H196.135ZM184.962 100.43L204.64 81.3375L192.158 65.461L184.947 100.43H184.962ZM183.605 116.386L215.007 133.665L206.281 94.7388L183.605 116.386ZM171.25 165.923L219.347 150.614L179.234 128.431L171.25 165.923Z" fill="#F5C942"/>
<path d="M195.677 36.8929C205.874 36.8929 214.139 28.6341 214.139 18.4464C214.139 8.25875 205.874 0 195.677 0C185.48 0 177.214 8.25875 177.214 18.4464C177.214 28.6341 185.48 36.8929 195.677 36.8929Z" fill="#F1732A"/>
<path d="M706.488 170.921H217.658L277.306 116.606H653.894L706.472 170.921H706.488ZM318.713 162.045L287.2 130.56V161.871L318.713 162.045ZM324.394 157.078V125.767L292.881 125.593M333.309 156.873L364.822 125.388H333.483L333.309 156.873ZM338.264 162.533H369.603L369.777 131.048M410.804 161.65L379.292 130.165V161.477L410.804 161.65ZM416.469 156.7V125.388L384.957 125.215M425.385 156.479L456.897 124.994H425.558L425.385 156.479ZM430.356 162.155H461.694L461.868 130.67M502.58 161.95L471.068 130.465V161.777L502.58 161.95ZM508.261 156.984V125.672L476.748 125.499M517.177 156.763L548.689 125.278H517.35L517.177 156.763ZM522.131 162.439H553.47L553.644 130.954M595.066 161.65L563.554 130.165V161.477L595.066 161.65ZM600.731 156.7V125.388L569.219 125.215M609.647 156.479L641.159 124.994H609.82L609.647 156.479ZM614.617 162.155H645.956L646.13 130.67M686.842 161.95L655.33 130.465V161.777L686.842 161.95ZM244.689 161.635H277.953V130.764L244.689 161.635Z" fill="#F5C942"/>
<path d="M1180.83 170.921H692L751.648 116.606H1128.24L1180.81 170.921H1180.83ZM793.054 162.045L761.542 130.56V161.871L793.054 162.045ZM798.735 157.078V125.767L767.223 125.593M807.651 156.873L839.163 125.388H807.824L807.651 156.873ZM812.606 162.533H843.945L844.118 131.048M885.146 161.65L853.633 130.165V161.477L885.146 161.65ZM890.811 156.7V125.388L859.298 125.215M899.727 156.479L931.239 124.994H899.9L899.727 156.479ZM904.697 162.155H936.036L936.21 130.67M976.922 161.95L945.409 130.465V161.777L976.922 161.95ZM982.603 156.984V125.672L951.09 125.499M991.518 156.763L1023.03 125.278H991.692L991.518 156.763ZM996.473 162.439H1027.81L1027.99 130.954M1069.41 161.65L1037.9 130.165V161.477L1069.41 161.65ZM1075.07 156.7V125.388L1043.56 125.215M1083.99 156.479L1115.5 124.994H1084.16L1083.99 156.479ZM1088.96 162.155H1120.3L1120.47 130.67M1161.18 161.95L1129.67 130.465V161.777L1161.18 161.95ZM719.031 161.635H752.295V130.764L719.031 161.635Z" fill="#F5C942"/>
<path d="M1648.83 170.921H1160L1219.65 116.606H1596.24L1648.81 170.921H1648.83ZM1261.05 162.045L1229.54 130.56V161.871L1261.05 162.045ZM1266.74 157.078V125.767L1235.22 125.593M1275.65 156.873L1307.16 125.388H1275.82L1275.65 156.873ZM1280.61 162.533H1311.94L1312.12 131.048M1353.15 161.65L1321.63 130.165V161.477L1353.15 161.65ZM1358.81 156.7V125.388L1327.3 125.215M1367.73 156.479L1399.24 124.994H1367.9L1367.73 156.479ZM1372.7 162.155H1404.04L1404.21 130.67M1444.92 161.95L1413.41 130.465V161.777L1444.92 161.95ZM1450.6 156.984V125.672L1419.09 125.499M1459.52 156.763L1491.03 125.278H1459.69L1459.52 156.763ZM1464.47 162.439H1495.81L1495.99 130.954M1537.41 161.65L1505.9 130.165V161.477L1537.41 161.65ZM1543.07 156.7V125.388L1511.56 125.215M1551.99 156.479L1583.5 124.994H1552.16L1551.99 156.479ZM1556.96 162.155H1588.3L1588.47 130.67M1629.18 161.95L1597.67 130.465V161.777L1629.18 161.95ZM1187.03 161.635H1220.29V130.764L1187.03 161.635Z" fill="#F5C942"/>
<path d="M262.931 264.336H165.869C158.452 264.336 152.456 258.329 152.456 250.935V153.957C152.456 146.547 158.468 140.556 165.869 140.556H221.95C229.746 140.556 237.004 144.513 241.202 151.072L270.016 195.99C274.15 202.438 276.36 209.943 276.36 217.605V250.935C276.36 258.345 270.347 264.336 262.947 264.336H262.931Z" fill="#F37329"/>
<path d="M239.529 229.477H186.114C182.043 229.477 178.729 226.166 178.729 222.098V168.73C178.729 164.662 182.043 161.351 186.114 161.351H216.98C221.272 161.351 225.264 163.527 227.568 167.137L243.427 191.859C245.699 195.406 246.914 199.537 246.914 203.762V222.114C246.914 226.182 243.601 229.493 239.529 229.493V229.477Z" fill="#3268A5"/>
</svg>
