<svg width="211" height="122" viewBox="0 0 211 122" fill="none" xmlns="http://www.w3.org/2000/svg">
<path d="M28.9759 2.9209H0.0721436V113.897H28.9759V2.9209Z" fill="#9A6C48"/>
<path d="M119.874 3.52734H90.9702V114.503H119.874V3.52734Z" fill="#9A6C48"/>
<path d="M210.671 4.36621H181.767V115.342H210.671V4.36621Z" fill="#9A6C48"/>
<path d="M210.714 9.0791H0.0577393V18.1585H210.714V9.0791Z" fill="#C7A46A"/>
<path d="M210.728 0H0.0721436V9.07933H210.728V0Z" fill="#B18058"/>
<path d="M210.685 43.6475H0.0289307V52.7268H210.685V43.6475Z" fill="#C7A46A"/>
<path d="M210.7 34.5537H0.043335V43.633H210.7V34.5537Z" fill="#B18058"/>
<path d="M210.685 77.9258H0.0289307V87.0051H210.685V77.9258Z" fill="#C7A46A"/>
<path d="M210.7 68.832H0.043335V77.9114H210.7V68.832Z" fill="#B18058"/>
<path d="M210.656 112.479H0V121.559H210.656V112.479Z" fill="#C7A46A"/>
<path d="M210.671 103.4H0.0144043V112.48H210.671V103.4Z" fill="#B18058"/>
</svg>
