<svg width="170" height="28" viewBox="0 0 170 28" fill="none" xmlns="http://www.w3.org/2000/svg">
<rect width="170" height="28" rx="10" fill="#284572"/>
<path d="M137.572 0H160C165.523 0 170 4.47715 170 10V18C170 23.5228 165.523 28 160 28H137.572V0Z" fill="#E61E2A"/>
<path d="M105.145 0H137.572V28H105.145V0Z" fill="#F37329"/>
<path d="M74 0H107V28H74V0Z" fill="#F5C942"/>
<path d="M12.8523 18H9.75852V9.27273H12.8778C13.7557 9.27273 14.5114 9.44744 15.1449 9.79688C15.7784 10.1435 16.2656 10.642 16.6065 11.2926C16.9503 11.9432 17.1222 12.7216 17.1222 13.6278C17.1222 14.5369 16.9503 15.3182 16.6065 15.9716C16.2656 16.625 15.7756 17.1264 15.1364 17.4759C14.5 17.8253 13.7386 18 12.8523 18ZM11.6037 16.419H12.7756C13.321 16.419 13.7798 16.3224 14.152 16.1293C14.527 15.9332 14.8082 15.6307 14.9957 15.2216C15.1861 14.8097 15.2812 14.2784 15.2812 13.6278C15.2812 12.983 15.1861 12.456 14.9957 12.0469C14.8082 11.6378 14.5284 11.3366 14.1562 11.1435C13.7841 10.9503 13.3253 10.8537 12.7798 10.8537H11.6037V16.419ZM20.3214 18.1236C19.9038 18.1236 19.5316 18.0511 19.2049 17.9062C18.8782 17.7585 18.6197 17.5412 18.4293 17.2543C18.2418 16.9645 18.1481 16.6037 18.1481 16.1719C18.1481 15.8082 18.2148 15.5028 18.3484 15.2557C18.4819 15.0085 18.6637 14.8097 18.8938 14.6591C19.1239 14.5085 19.3853 14.3949 19.6779 14.3182C19.9734 14.2415 20.283 14.1875 20.6069 14.1562C20.9876 14.1165 21.2944 14.0795 21.5273 14.0455C21.7603 14.0085 21.9293 13.9545 22.0344 13.8835C22.1396 13.8125 22.1921 13.7074 22.1921 13.5682V13.5426C22.1921 13.2727 22.1069 13.0639 21.9364 12.9162C21.7688 12.7685 21.5302 12.6946 21.2205 12.6946C20.8938 12.6946 20.6339 12.767 20.4407 12.9119C20.2475 13.054 20.1197 13.233 20.0572 13.4489L18.3782 13.3125C18.4634 12.9148 18.631 12.571 18.881 12.2812C19.131 11.9886 19.4535 11.7642 19.8484 11.608C20.2461 11.4489 20.7063 11.3693 21.229 11.3693C21.5927 11.3693 21.9407 11.4119 22.2731 11.4972C22.6083 11.5824 22.9052 11.7145 23.1637 11.8935C23.4251 12.0724 23.631 12.3026 23.7816 12.5838C23.9322 12.8622 24.0075 13.196 24.0075 13.5852V18H22.2859V17.0923H22.2347C22.1296 17.2969 21.989 17.4773 21.8129 17.6335C21.6367 17.7869 21.4251 17.9077 21.1779 17.9957C20.9308 18.081 20.6452 18.1236 20.3214 18.1236ZM20.8413 16.8707C21.1083 16.8707 21.3441 16.8182 21.5487 16.7131C21.7532 16.6051 21.9137 16.4602 22.0302 16.2784C22.1467 16.0966 22.2049 15.8906 22.2049 15.6605V14.9659C22.1481 15.0028 22.07 15.0369 21.9705 15.0682C21.8739 15.0966 21.7646 15.1236 21.6424 15.1491C21.5202 15.1719 21.3981 15.1932 21.2759 15.2131C21.1538 15.2301 21.043 15.2457 20.9435 15.2599C20.7305 15.2912 20.5444 15.3409 20.3853 15.4091C20.2262 15.4773 20.1026 15.5696 20.0146 15.6861C19.9265 15.7997 19.8825 15.9418 19.8825 16.1122C19.8825 16.3594 19.9719 16.5483 20.1509 16.679C20.3327 16.8068 20.5629 16.8707 20.8413 16.8707ZM25.4158 18V11.4545H27.146V12.6094H27.2227C27.359 12.2259 27.5863 11.9233 27.9045 11.7017C28.2227 11.4801 28.6033 11.3693 29.0465 11.3693C29.4954 11.3693 29.8775 11.4815 30.1928 11.706C30.5082 11.9276 30.7184 12.2287 30.8235 12.6094H30.8917C31.0252 12.2344 31.2667 11.9347 31.6161 11.7102C31.9684 11.483 32.3846 11.3693 32.8647 11.3693C33.4755 11.3693 33.9712 11.5639 34.3519 11.9531C34.7354 12.3395 34.9272 12.8878 34.9272 13.598V18H33.1161V13.956C33.1161 13.5923 33.0195 13.3196 32.8263 13.1378C32.6332 12.956 32.3917 12.8651 32.1019 12.8651C31.7724 12.8651 31.5153 12.9702 31.3306 13.1804C31.146 13.3878 31.0536 13.6619 31.0536 14.0028V18H29.2937V13.9176C29.2937 13.5966 29.2013 13.3409 29.0167 13.1506C28.8349 12.9602 28.5948 12.8651 28.2965 12.8651C28.0948 12.8651 27.913 12.9162 27.7511 13.0185C27.592 13.1179 27.4656 13.2585 27.3718 13.4403C27.2781 13.6193 27.2312 13.8295 27.2312 14.071V18H25.4158ZM38.2276 18.1236C37.81 18.1236 37.4379 18.0511 37.1112 17.9062C36.7844 17.7585 36.5259 17.5412 36.3356 17.2543C36.1481 16.9645 36.0543 16.6037 36.0543 16.1719C36.0543 15.8082 36.1211 15.5028 36.2546 15.2557C36.3881 15.0085 36.57 14.8097 36.8001 14.6591C37.0302 14.5085 37.2915 14.3949 37.5842 14.3182C37.8796 14.2415 38.1893 14.1875 38.5131 14.1562C38.8938 14.1165 39.2006 14.0795 39.4336 14.0455C39.6665 14.0085 39.8356 13.9545 39.9407 13.8835C40.0458 13.8125 40.0984 13.7074 40.0984 13.5682V13.5426C40.0984 13.2727 40.0131 13.0639 39.8427 12.9162C39.6751 12.7685 39.4364 12.6946 39.1268 12.6946C38.8001 12.6946 38.5401 12.767 38.3469 12.9119C38.1538 13.054 38.0259 13.233 37.9634 13.4489L36.2844 13.3125C36.3697 12.9148 36.5373 12.571 36.7873 12.2812C37.0373 11.9886 37.3597 11.7642 37.7546 11.608C38.1523 11.4489 38.6126 11.3693 39.1353 11.3693C39.4989 11.3693 39.8469 11.4119 40.1793 11.4972C40.5146 11.5824 40.8114 11.7145 41.07 11.8935C41.3313 12.0724 41.5373 12.3026 41.6879 12.5838C41.8384 12.8622 41.9137 13.196 41.9137 13.5852V18H40.1921V17.0923H40.141C40.0359 17.2969 39.8952 17.4773 39.7191 17.6335C39.543 17.7869 39.3313 17.9077 39.0842 17.9957C38.837 18.081 38.5515 18.1236 38.2276 18.1236ZM38.7475 16.8707C39.0146 16.8707 39.2504 16.8182 39.4549 16.7131C39.6594 16.6051 39.82 16.4602 39.9364 16.2784C40.0529 16.0966 40.1112 15.8906 40.1112 15.6605V14.9659C40.0543 15.0028 39.9762 15.0369 39.8768 15.0682C39.7802 15.0966 39.6708 15.1236 39.5487 15.1491C39.4265 15.1719 39.3043 15.1932 39.1822 15.2131C39.06 15.2301 38.9492 15.2457 38.8498 15.2599C38.6367 15.2912 38.4506 15.3409 38.2915 15.4091C38.1325 15.4773 38.0089 15.5696 37.9208 15.6861C37.8327 15.7997 37.7887 15.9418 37.7887 16.1122C37.7887 16.3594 37.8782 16.5483 38.0572 16.679C38.239 16.8068 38.4691 16.8707 38.7475 16.8707ZM46.271 20.5909C45.6829 20.5909 45.1786 20.5099 44.7582 20.348C44.3406 20.1889 44.0082 19.9716 43.761 19.696C43.5138 19.4205 43.3533 19.1108 43.2795 18.767L44.9585 18.5412C45.0096 18.6719 45.0906 18.794 45.2013 18.9077C45.3121 19.0213 45.4585 19.1122 45.6403 19.1804C45.8249 19.2514 46.0494 19.2869 46.3136 19.2869C46.7085 19.2869 47.0337 19.1903 47.2894 18.9972C47.5479 18.8068 47.6772 18.4872 47.6772 18.0384V16.8409H47.6005C47.521 17.0227 47.4016 17.1946 47.2425 17.3565C47.0835 17.5185 46.8789 17.6506 46.6289 17.7528C46.3789 17.8551 46.0806 17.9062 45.734 17.9062C45.2425 17.9062 44.7951 17.7926 44.3917 17.5653C43.9911 17.3352 43.6715 16.9844 43.4329 16.5128C43.1971 16.0384 43.0792 15.4389 43.0792 14.7145C43.0792 13.973 43.1999 13.3537 43.4414 12.8565C43.6829 12.3594 44.0039 11.9872 44.4045 11.7401C44.8079 11.4929 45.2496 11.3693 45.7298 11.3693C46.0962 11.3693 46.4031 11.4318 46.6502 11.5568C46.8974 11.679 47.0962 11.8324 47.2468 12.017C47.4002 12.1989 47.5181 12.3778 47.6005 12.554H47.6687V11.4545H49.4712V18.0639C49.4712 18.6207 49.3349 19.0866 49.0621 19.4616C48.7894 19.8366 48.4116 20.1179 47.9286 20.3054C47.4485 20.4957 46.896 20.5909 46.271 20.5909ZM46.3093 16.5426C46.6019 16.5426 46.8491 16.4702 47.0508 16.3253C47.2553 16.1776 47.4116 15.9673 47.5195 15.6946C47.6303 15.419 47.6857 15.0895 47.6857 14.706C47.6857 14.3224 47.6317 13.9901 47.5238 13.7088C47.4158 13.4247 47.2596 13.2045 47.055 13.0483C46.8505 12.892 46.6019 12.8139 46.3093 12.8139C46.011 12.8139 45.7596 12.8949 45.555 13.0568C45.3505 13.2159 45.1957 13.4375 45.0906 13.7216C44.9854 14.0057 44.9329 14.3338 44.9329 14.706C44.9329 15.0838 44.9854 15.4105 45.0906 15.6861C45.1985 15.9588 45.3533 16.1705 45.555 16.321C45.7596 16.4687 46.011 16.5426 46.3093 16.5426ZM53.8988 18.1278C53.2255 18.1278 52.646 17.9915 52.1602 17.7188C51.6772 17.4432 51.305 17.054 51.0437 16.5511C50.7823 16.0455 50.6516 15.4474 50.6516 14.7571C50.6516 14.0838 50.7823 13.4929 51.0437 12.9844C51.305 12.4759 51.6729 12.0795 52.1474 11.7955C52.6246 11.5114 53.1843 11.3693 53.8263 11.3693C54.2582 11.3693 54.6602 11.4389 55.0323 11.5781C55.4073 11.7145 55.734 11.9205 56.0124 12.196C56.2937 12.4716 56.5124 12.8182 56.6687 13.2358C56.8249 13.6506 56.9031 14.1364 56.9031 14.6932V15.1918H51.3761V14.0668H55.1942C55.1942 13.8054 55.1374 13.5739 55.0238 13.3722C54.9102 13.1705 54.7525 13.0128 54.5508 12.8991C54.3519 12.7827 54.1204 12.7244 53.8562 12.7244C53.5806 12.7244 53.3363 12.7884 53.1232 12.9162C52.913 13.0412 52.7482 13.2102 52.6289 13.4233C52.5096 13.6335 52.4485 13.8679 52.4457 14.1264V15.196C52.4457 15.5199 52.5053 15.7997 52.6246 16.0355C52.7468 16.2713 52.9187 16.4531 53.1403 16.581C53.3619 16.7088 53.6246 16.7727 53.9286 16.7727C54.1303 16.7727 54.315 16.7443 54.4826 16.6875C54.6502 16.6307 54.7937 16.5455 54.913 16.4318C55.0323 16.3182 55.1232 16.179 55.1857 16.0142L56.8647 16.125C56.7795 16.5284 56.6048 16.8807 56.3406 17.1818C56.0792 17.4801 55.7411 17.7131 55.3263 17.8807C54.9144 18.0455 54.4386 18.1278 53.8988 18.1278Z" fill="white"/>
</svg>
