<svg width="96" height="119" viewBox="0 0 96 119" fill="none" xmlns="http://www.w3.org/2000/svg">
<path d="M91.0569 9.1084H4.54785V109.762H91.0569V9.1084Z" fill="#F9893D"/>
<path d="M91.0568 6.56348H66.6143V109.761H91.0568V6.56348Z" fill="#F37329"/>
<path d="M90.7103 0H4.54778C2.0361 0 0 2.03894 0 4.55412C0 7.06929 2.0361 9.10825 4.54778 9.10825H90.7103C93.222 9.10825 95.2581 7.06929 95.2581 4.55412C95.2581 2.03894 93.222 0 90.7103 0Z" fill="#F37329"/>
<path d="M91.1722 37.749H4.40332V79.6036H91.1722V37.749Z" fill="#BFC8CD"/>
<path d="M65.9358 38.4424H4.3313V80.297H65.9358V38.4424Z" fill="#D4E2E8"/>
<path d="M90.9413 36.0283H4.77873C2.26706 36.0283 0.230957 38.0673 0.230957 40.5824C0.230957 43.0976 2.26706 45.1366 4.77873 45.1366H90.9413C93.4529 45.1366 95.489 43.0976 95.489 40.5824C95.489 38.0673 93.4529 36.0283 90.9413 36.0283Z" fill="#F37329"/>
<path d="M90.8257 73.7334H4.66326C2.15158 73.7334 0.115479 75.7723 0.115479 78.2875C0.115479 80.8027 2.15158 82.8417 4.66326 82.8417H90.8257C93.3374 82.8417 95.3735 80.8027 95.3735 78.2875C95.3735 75.7723 93.3374 73.7334 90.8257 73.7334Z" fill="#F37329"/>
<path d="M91.0567 109.762H4.89421C2.38254 109.762 0.346436 111.801 0.346436 114.316C0.346436 116.831 2.38254 118.87 4.89421 118.87H91.0567C93.5684 118.87 95.6045 116.831 95.6045 114.316C95.6045 111.801 93.5684 109.762 91.0567 109.762Z" fill="#808F96"/>
</svg>
