<?xml version="1.0" encoding="UTF-8"?>
<svg id="Layer_1" xmlns="http://www.w3.org/2000/svg" version="1.1" viewBox="0 0 15840.4 582">
  <!-- Generator: Adobe Illustrator 29.0.1, SVG Export Plug-In . SVG Version: 2.1.0 Build 192)  -->
  <defs>
    <style>
      .st0 {
        fill: #a69d93;
      }
    </style>
  </defs>
  <path class="st0" d="M8392.9,120.1c-40.4,21.9-104,52.6-104,52.6l-36,105.2h776v-105.2s-91.2-25.6-148-52.6c-33.2-15.8-50.8-30.2-84-46-56.8-27-89.1-44.8-148-52.6-35.8-4.7-56.3-7.1-92,0-67.7,13.5-99.2,63.5-164,98.7Z"/>
  <path class="st0" d="M5935.9,141c-40.4,13.3-104,32-104,32l-36,64h776v-64s-91.2-15.6-148-32c-33.2-9.6-50.8-18.4-84-28-56.8-16.4-89.1-27.3-148-32-35.8-2.9-56.3-4.3-92,0-67.7,8.2-99.2,38.6-164,60Z"/>
  <path class="st0" d="M9660.7,118.2c-65.4,25.1-168.5,60.3-168.5,60.3l-58.3,120.6h1257v-120.6s-147.7-29.3-239.7-60.3c-53.8-18.1-82.3-34.6-136.1-52.7-92-31-144.3-51.3-239.7-60.3-58-5.4-91.2-8.1-149,0-109.7,15.4-160.7,72.8-265.7,113Z"/>
  <rect class="st0" y="173" width="15840.4" height="409"/>
  <path class="st0" d="M12738.2,171.1c-65.4,25.1-168.5,60.3-168.5,60.3l-58.3,120.6h1257v-120.6s-147.7-29.3-239.7-60.3c-53.8-18.1-82.3-34.6-136.1-52.7-92-31-144.3-51.3-239.7-60.3-58-5.4-91.2-8.1-149,0-109.7,15.4-160.7,72.8-265.7,113Z"/>
  <path class="st0" d="M14602.6,117.6c-69.5,8.7-178,18.1-178,18.1l-85.5,103.1,1220.3,301.3,28.9-117s-136.4-63.9-218.3-116c-47.9-30.5-71.6-53.4-119.4-83.8-81.9-52.1-127.7-84.4-218.3-116-55-19.2-86.6-29.8-144.7-35.7-110.2-11.3-173.5,32.1-285,46Z"/>
  <path class="st0" d="M545.5,141.7c-65.2,25.4-168.2,61.2-168.2,61.2l-57.7,120.9,1257-6.6-.6-120.6s-147.9-28.6-240.1-59c-53.9-17.8-82.4-34.2-136.3-52-92.2-30.5-144.5-50.6-240.1-59-58-5.1-91.3-7.7-149,.8-109.6,16-160.4,73.6-265.1,114.4Z"/>
</svg>