<?xml version="1.0" encoding="UTF-8"?>
<svg id="Layer_1" xmlns="http://www.w3.org/2000/svg" version="1.1" viewBox="0 0 15059 569">
  <!-- Generator: Adobe Illustrator 29.0.1, SVG Export Plug-In . SVG Version: 2.1.0 Build 192)  -->
  <defs>
    <style>
      .st0 {
        fill: #9a6c49;
      }
    </style>
  </defs>
  <path class="st0" d="M4254.1,60.5c-84.5,12.9-123.8,49.6-202.8,82.4-64.5,26.8-137,66.5-164.7,69.7s34.8,60.2,34.8,60.2h541.7l617.8-28.5,219.4-60.2s-282-58.6-335.8-58.6-67.9,3.6-108.5,17.4c-20.5,7-29.7,17.1-50.7,22.2-28.8,7-46.6,4-76,0-60.4-8.3-86.2-40.3-142.6-63.4-41.7-17-63.2-34.4-107.7-41.2-31.8-4.9-82.4,0-82.4,0,0,0-87.5-8.4-142.6,0Z"/>
  <path class="st0" d="M8352.5,4.7c-106.7,16.3-156.3,62.6-256,104-81.4,33.8-173,84-208,88s44,76,44,76h684l780-36,277-76s-356-74-424-74-85.7,4.6-137,22c-25.8,8.8-37.5,21.5-64,28-36.4,8.9-58.9,5.1-96,0-76.2-10.4-108.8-50.9-180-80-52.6-21.5-79.8-43.4-136-52-40.1-6.1-104,0-104,0,0,0-110.5-10.6-180,0Z"/>
  <path class="st0" d="M10294.3,58.2s-51.1-4.9-83.2,0c-45,6.9-66.7,24.4-108.9,41.6-57,23.3-83.1,55.7-144.1,64-29.7,4.1-47.7,7.1-76.8,0-21.2-5.2-30.6-15.4-51.2-22.4-41.1-14-55.2-17.6-109.7-17.6s-339.4,59.2-339.4,59.2l221.7,60.8,624.3,28.8h547.5s63.2-57.6,35.2-60.8c-28-3.2-101.3-43.4-166.5-70.4-79.8-33.1-119.5-70.2-204.9-83.2-55.6-8.5-144.1,0-144.1,0Z"/>
  <rect class="st0" x="-14.2" y="160" width="15087" height="409"/>
  <rect class="st0" x="79" y="160" width="14983.5" height="409"/>
  <path class="st0" d="M5150.9,220.1c-106.7,16.3-156.3,62.6-256,104-81.4,33.8-173,84-208,88s44,76,44,76h684l780-36,277-76s-356-74-424-74-85.7,4.6-137,22c-25.8,8.8-37.5,21.5-64,28-36.4,8.9-58.9,5.1-96,0-76.2-10.4-108.8-50.9-180-80-52.6-21.5-79.8-43.4-136-52-40.1-6.1-104,0-104,0,0,0-110.5-10.6-180,0Z"/>
  <path class="st0" d="M6626.2,83.6c-105.8,21-153.4,69.4-251.2,115.2-79.9,37.4-169.1,91.5-203.9,97.1-34.8,5.5,47.3,74,47.3,74l683.3-30.1,777.7-70.3,273.4-88.1s-358.9-58.2-426.8-55.3c-67.9,3-85.4,8.3-135.9,28-25.4,9.9-36.5,23.2-62.7,30.8-36,10.5-58.6,7.7-95.9,4.2-76.6-7.1-110.9-46.1-183.3-72-53.5-19.2-81.6-39.8-138.2-46-40.4-4.4-103.9,4.6-103.9,4.6,0,0-110.9-5.7-179.8,7.9Z"/>
  <path class="st0" d="M13396.3,100.2s-50.9-6.8-83.2-3.1c-45.2,5.2-67.6,21.9-110.3,37.6-57.8,21.2-85.1,52.6-146.3,58.7-29.9,3-47.9,5.3-76.8-2.8-21-6-30-16.5-50.4-24.3-40.5-15.5-54.5-19.6-108.9-21.7-54.4-2-341.3,46.6-341.3,46.6l219.3,69,622.9,51.9,547.1,20.2s65.3-55.3,37.4-59.5-99.6-47.1-163.8-76.5c-78.5-36.1-116.9-74.6-201.7-90.8-55.3-10.6-144-5.3-144-5.3Z"/>
</svg>