<svg width="37" height="79" viewBox="0 0 37 79" fill="none" xmlns="http://www.w3.org/2000/svg">
<path d="M24.2494 0L12.0042 0.110352L5.15573 2.09688C5.42398 6.7479 -2.4344 9.38086 0.768916 17.6266L7.28597 34.386C8.46946 37.4131 10.7102 38.501 13.6611 39.0844C14.529 40.5033 14.4974 45.2174 13.0141 46.526C5.42395 49.6319 0.658451 56.7582 1.69992 64.5625C2.7414 72.3668 8.5326 78.0268 17.0695 78.689C25.1488 79.3039 31.2083 73.8961 33.023 65.6819L34.6799 58.2087C35.0113 56.711 31.6975 57.4047 30.8454 58.3506C26.9635 62.6075 27.5474 71.1212 18.9631 70.7586C14.8919 70.5852 11.8464 67.8576 11.0416 64.4364C9.96856 59.9115 12.2409 56.4114 16.3121 54.4248C24.0916 50.641 21.7719 44.7917 22.7187 38.8479C25.8273 38.9582 27.5632 37.4604 28.6204 34.7959L36.0527 15.9554C38.2935 10.248 32.6443 8.00921 30.9401 2.52258L24.2494 0Z" fill="#193E75"/>
</svg>
