<svg width="276" height="161" viewBox="0 0 276 161" fill="none" xmlns="http://www.w3.org/2000/svg">
<g clip-path="url(#clip0_1265_14304)">
<path d="M17.9602 6.86588L17.9602 51.3578C17.9602 53.4424 19.6522 55.1323 21.7394 55.1323H21.7514C23.8386 55.1323 25.5306 53.4424 25.5306 51.3578L25.5306 6.86588C25.5306 4.78125 23.8386 3.09132 21.7514 3.09132H21.7394C19.6522 3.09132 17.9602 4.78125 17.9602 6.86588Z" fill="#193E75"/>
<path d="M57.0596 6.06314V50.555C57.0596 52.6397 58.7516 54.3296 60.8388 54.3296H60.8507C62.9379 54.3296 64.6299 52.6397 64.6299 50.555V6.06314C64.6299 3.97851 62.9379 2.28858 60.8507 2.28858H60.8388C58.7516 2.28858 57.0596 3.97851 57.0596 6.06314Z" fill="#193E75"/>
<path d="M213.71 6.86588V51.3578C213.71 53.4424 215.402 55.1323 217.489 55.1323H217.501C219.588 55.1323 221.28 53.4424 221.28 51.3578V6.86588C221.28 4.78125 219.588 3.09132 217.501 3.09132H217.489C215.402 3.09132 213.71 4.78125 213.71 6.86588Z" fill="#193E75"/>
<path d="M90.5803 33.839V78.3309C90.5803 80.4155 92.2723 82.1055 94.3595 82.1055H94.3715C96.4587 82.1055 98.1507 80.4155 98.1507 78.3309V33.839C98.1507 31.7544 96.4587 30.0645 94.3715 30.0645H94.3595C92.2723 30.0645 90.5803 31.7544 90.5803 33.839Z" fill="#193E75"/>
<path d="M181.257 34.63V79.1219C181.257 81.2066 182.949 82.8965 185.036 82.8965H185.048C187.135 82.8965 188.827 81.2066 188.827 79.1219V34.63C188.827 32.5454 187.135 30.8555 185.048 30.8555H185.036C182.949 30.8555 181.257 32.5454 181.257 34.63Z" fill="#193E75"/>
<path d="M169.619 6.79421V63.9518C169.619 67.7024 166.572 70.7461 162.817 70.7461H117.442C113.687 70.7461 110.64 67.7024 110.64 63.9518V6.79421C110.64 3.04361 113.687 0 117.442 0H162.817C166.572 0 169.619 3.04361 169.619 6.79421ZM158.39 7.93257H121.833C119.95 7.93257 118.438 9.45438 118.438 11.3237V62.49C118.438 64.3712 119.962 65.8811 121.833 65.8811H158.39C160.273 65.8811 161.785 64.3593 161.785 62.49V11.3237C161.785 9.44239 160.261 7.93257 158.39 7.93257Z" fill="#193E75"/>
<path d="M250.661 6.67447V51.1663C250.661 53.251 252.353 54.9409 254.441 54.9409H254.453C256.54 54.9409 258.232 53.251 258.232 51.1663V6.67447C258.232 4.58984 256.54 2.8999 254.453 2.8999H254.441C252.353 2.8999 250.661 4.58984 250.661 6.67447Z" fill="#193E75"/>
<path d="M269.197 51.8013H6.80252C3.04559 51.8013 0 54.8431 0 58.5955V154.206C0 157.958 3.04559 161 6.80252 161H269.197C272.954 161 276 157.958 276 154.206V58.5955C276 54.8431 272.954 51.8013 269.197 51.8013Z" fill="#C0C9CE"/>
<path d="M195.521 51.7896H269.161C272.917 51.7896 275.964 54.8332 275.964 58.5838V154.194C275.964 157.945 272.917 160.988 269.161 160.988H195.521V51.7896Z" fill="#808F96"/>
<path d="M84.5456 51.7773H52.6445V160.976H84.5456V51.7773Z" fill="#808F96"/>
<path d="M22.3271 83.4719C27.3297 83.4719 31.3851 79.4214 31.3851 74.4249C31.3851 69.4284 27.3297 65.3779 22.3271 65.3779C17.3245 65.3779 13.269 69.4284 13.269 74.4249C13.269 79.4214 17.3245 83.4719 22.3271 83.4719Z" fill="#808F96"/>
<path d="M22.3271 146.788C27.3297 146.788 31.3851 142.738 31.3851 137.741C31.3851 132.745 27.3297 128.694 22.3271 128.694C17.3245 128.694 13.269 132.745 13.269 137.741C13.269 142.738 17.3245 146.788 22.3271 146.788Z" fill="#808F96"/>
<path d="M107.053 83.3278C112.055 83.3278 116.111 79.2774 116.111 74.2809C116.111 69.2844 112.055 65.2339 107.053 65.2339C102.05 65.2339 97.9946 69.2844 97.9946 74.2809C97.9946 79.2774 102.05 83.3278 107.053 83.3278Z" fill="#808F96"/>
<path d="M107.053 146.656C112.055 146.656 116.111 142.606 116.111 137.609C116.111 132.613 112.055 128.562 107.053 128.562C102.05 128.562 97.9946 132.613 97.9946 137.609C97.9946 142.606 102.05 146.656 107.053 146.656Z" fill="#808F96"/>
<path d="M173.038 83.3278C178.041 83.3278 182.096 79.2774 182.096 74.2809C182.096 69.2844 178.041 65.2339 173.038 65.2339C168.036 65.2339 163.98 69.2844 163.98 74.2809C163.98 79.2774 168.036 83.3278 173.038 83.3278Z" fill="#808F96"/>
<path d="M265.79 26.8774H10.3898C8.30259 26.8774 6.6106 28.5674 6.6106 30.652V30.664C6.6106 32.7486 8.30259 34.4385 10.3898 34.4385H265.79C267.877 34.4385 269.569 32.7486 269.569 30.664V30.652C269.569 28.5674 267.877 26.8774 265.79 26.8774Z" fill="#193E75"/>
</g>
<defs>
<clipPath id="clip0_1265_14304">
<rect width="276" height="161" fill="white"/>
</clipPath>
</defs>
</svg>
